<?xml version="1.0" encoding="utf-8"?>
<!-- Generator: Adobe Illustrator 21.0.2, SVG Export Plug-In . SVG Version: 6.00 Build 0)  -->
<svg version="1.1" id="bg" xmlns="http://www.w3.org/2000/svg" xmlns:xlink="http://www.w3.org/1999/xlink" x="0px" y="0px"
	 viewBox="0 0 695 450" style="enable-background:new 0 0 695 450;" xml:space="preserve">
<style type="text/css">
	.st0{fill:#C1272D;}
</style>
<g>
	<path d="M310.4,232.1v-10h2.5c0.4,0,0.8,0.1,1.1,0.2c0.3,0.1,0.6,0.3,0.9,0.5c0.2,0.2,0.4,0.5,0.5,0.8s0.2,0.7,0.2,1.2
		c0,0.5-0.1,1-0.4,1.3s-0.6,0.7-1,0.8c0.3,0.1,0.5,0.2,0.7,0.3c0.2,0.1,0.4,0.3,0.5,0.5c0.1,0.2,0.2,0.4,0.3,0.7
		c0.1,0.3,0.1,0.5,0.1,0.8c0,0.5-0.1,0.9-0.2,1.2c-0.1,0.3-0.3,0.6-0.5,0.9s-0.5,0.4-0.9,0.5c-0.3,0.1-0.7,0.2-1.1,0.2H310.4z
		 M311.2,226.6h1.8c0.6,0,1.1-0.2,1.4-0.5s0.5-0.8,0.5-1.4c0-0.6-0.2-1.1-0.5-1.4c-0.3-0.3-0.8-0.4-1.5-0.4h-1.7V226.6z
		 M311.2,227.3v4.1h2.1c0.3,0,0.6,0,0.8-0.1s0.4-0.2,0.6-0.4s0.3-0.4,0.4-0.6s0.1-0.5,0.1-0.9c0-0.3,0-0.5-0.1-0.8s-0.2-0.5-0.3-0.6
		s-0.3-0.3-0.6-0.4c-0.2-0.1-0.5-0.2-0.8-0.2H311.2z"/>
	<path d="M318.4,231.6c0-0.2,0.1-0.3,0.2-0.4c0.1-0.1,0.2-0.2,0.4-0.2s0.3,0.1,0.4,0.2c0.1,0.1,0.2,0.2,0.2,0.4
		c0,0.2-0.1,0.3-0.2,0.4s-0.2,0.2-0.4,0.2s-0.3-0.1-0.4-0.2S318.4,231.7,318.4,231.6z"/>
	<path d="M327.3,229.6c0-0.3,0-0.5-0.1-0.7c-0.1-0.2-0.2-0.4-0.4-0.6s-0.4-0.3-0.7-0.5s-0.6-0.3-1.1-0.4c-0.4-0.1-0.8-0.3-1.1-0.5
		c-0.3-0.2-0.6-0.4-0.9-0.6c-0.2-0.2-0.4-0.5-0.5-0.8c-0.1-0.3-0.2-0.6-0.2-1c0-0.4,0.1-0.7,0.2-1c0.1-0.3,0.3-0.6,0.6-0.8
		c0.2-0.2,0.5-0.4,0.9-0.5c0.3-0.1,0.7-0.2,1.1-0.2c0.4,0,0.8,0.1,1.2,0.2s0.7,0.4,0.9,0.6s0.4,0.6,0.6,0.9c0.1,0.4,0.2,0.8,0.2,1.2
		h-0.8c0-0.3,0-0.6-0.1-0.9s-0.2-0.5-0.4-0.7s-0.4-0.4-0.7-0.5c-0.3-0.1-0.6-0.2-0.9-0.2s-0.6,0-0.9,0.1s-0.5,0.2-0.6,0.4
		c-0.2,0.2-0.3,0.4-0.4,0.6c-0.1,0.2-0.1,0.5-0.1,0.7c0,0.2,0,0.5,0.1,0.7c0.1,0.2,0.2,0.4,0.4,0.5s0.4,0.3,0.7,0.5
		c0.3,0.1,0.6,0.3,1,0.4c0.4,0.1,0.8,0.3,1.2,0.5c0.3,0.2,0.6,0.4,0.9,0.6s0.4,0.5,0.5,0.8c0.1,0.3,0.2,0.7,0.2,1.1
		c0,0.4-0.1,0.8-0.2,1.1c-0.1,0.3-0.3,0.6-0.6,0.8s-0.6,0.4-0.9,0.5s-0.7,0.2-1.2,0.2c-0.4,0-0.7-0.1-1.1-0.2s-0.7-0.3-1-0.5
		c-0.3-0.2-0.5-0.5-0.7-0.9c-0.2-0.4-0.3-0.8-0.3-1.4h0.8c0,0.4,0.1,0.8,0.2,1.1s0.3,0.5,0.5,0.7s0.5,0.3,0.8,0.4s0.6,0.1,0.8,0.1
		c0.3,0,0.6,0,0.9-0.1c0.3-0.1,0.5-0.2,0.7-0.4c0.2-0.2,0.3-0.4,0.4-0.6S327.3,229.9,327.3,229.6z"/>
	<path d="M330.4,231.6c0-0.2,0.1-0.3,0.2-0.4c0.1-0.1,0.2-0.2,0.4-0.2s0.3,0.1,0.4,0.2c0.1,0.1,0.2,0.2,0.2,0.4
		c0,0.2-0.1,0.3-0.2,0.4s-0.2,0.2-0.4,0.2s-0.3-0.1-0.4-0.2S330.4,231.7,330.4,231.6z"/>
	<path d="M344.4,229c-0.1,1.1-0.4,1.9-0.9,2.5c-0.5,0.5-1.3,0.8-2.2,0.8c-0.5,0-0.9-0.1-1.3-0.3c-0.4-0.2-0.7-0.5-1-0.8
		c-0.3-0.4-0.5-0.8-0.6-1.3c-0.1-0.5-0.2-1.1-0.2-1.7V226c0-0.6,0.1-1.2,0.2-1.7c0.1-0.5,0.4-0.9,0.6-1.3c0.3-0.3,0.6-0.6,1-0.8
		c0.4-0.2,0.8-0.3,1.3-0.3c0.5,0,0.9,0.1,1.2,0.2c0.4,0.1,0.7,0.3,0.9,0.6s0.5,0.6,0.6,1s0.2,0.9,0.3,1.5h-0.8
		c0-0.5-0.1-0.8-0.2-1.2c-0.1-0.3-0.3-0.6-0.4-0.8c-0.2-0.2-0.4-0.3-0.7-0.4c-0.3-0.1-0.6-0.1-0.9-0.1c-0.4,0-0.7,0.1-1,0.2
		c-0.3,0.1-0.5,0.4-0.7,0.6s-0.4,0.6-0.5,1c-0.1,0.4-0.2,0.9-0.2,1.4v2.2c0,0.5,0,1,0.1,1.4c0.1,0.4,0.2,0.8,0.4,1.1
		s0.4,0.5,0.7,0.7s0.6,0.2,1,0.2c0.4,0,0.7,0,1-0.1c0.3-0.1,0.5-0.2,0.7-0.4c0.2-0.2,0.3-0.5,0.4-0.8c0.1-0.3,0.2-0.7,0.2-1.2H344.4
		z"/>
	<path d="M346.9,222.6c0-0.2,0-0.3,0.1-0.4s0.2-0.2,0.4-0.2s0.3,0.1,0.4,0.2c0.1,0.1,0.1,0.2,0.1,0.4s0,0.3-0.1,0.4
		c-0.1,0.1-0.2,0.2-0.4,0.2s-0.3-0.1-0.4-0.2C346.9,222.8,346.9,222.7,346.9,222.6z M347.8,232.1H347v-7.4h0.8V232.1z"/>
	<path d="M352.5,230.9l1.8-6.2h0.8l-2.3,7.4h-0.6l-2.3-7.4h0.8L352.5,230.9z"/>
	<path d="M357.2,222.6c0-0.2,0-0.3,0.1-0.4s0.2-0.2,0.4-0.2s0.3,0.1,0.4,0.2c0.1,0.1,0.1,0.2,0.1,0.4s0,0.3-0.1,0.4
		c-0.1,0.1-0.2,0.2-0.4,0.2s-0.3-0.1-0.4-0.2C357.2,222.8,357.2,222.7,357.2,222.6z M358,232.1h-0.8v-7.4h0.8V232.1z"/>
	<path d="M361.7,232.1h-0.8v-10.5h0.8V232.1z"/>
	<path d="M372.2,232.1c0-0.1-0.1-0.3-0.1-0.5c0-0.2,0-0.4,0-0.6c-0.1,0.2-0.2,0.3-0.3,0.4c-0.1,0.1-0.3,0.3-0.5,0.4
		c-0.2,0.1-0.4,0.2-0.6,0.3s-0.4,0.1-0.7,0.1c-0.3,0-0.6,0-0.8-0.1c-0.2-0.1-0.5-0.2-0.6-0.4s-0.3-0.4-0.4-0.6s-0.1-0.6-0.1-0.9
		c0-0.3,0.1-0.7,0.2-0.9c0.1-0.3,0.3-0.5,0.5-0.7c0.2-0.2,0.5-0.4,0.9-0.5s0.8-0.2,1.2-0.2h1.3v-1c0-0.5-0.1-0.9-0.4-1.1
		c-0.3-0.2-0.6-0.3-1.2-0.3c-0.2,0-0.5,0-0.7,0.1c-0.2,0.1-0.4,0.2-0.5,0.3c-0.1,0.1-0.3,0.3-0.3,0.5c-0.1,0.2-0.1,0.4-0.1,0.6
		l-0.8,0c0-0.3,0.1-0.6,0.2-0.8c0.1-0.3,0.3-0.5,0.5-0.7s0.5-0.4,0.8-0.5s0.6-0.2,1-0.2c0.3,0,0.6,0,0.9,0.1
		c0.3,0.1,0.5,0.2,0.7,0.4c0.2,0.2,0.4,0.4,0.5,0.7c0.1,0.3,0.2,0.6,0.2,1v3.8c0,0.1,0,0.3,0,0.4s0,0.3,0,0.4c0,0.1,0,0.3,0.1,0.4
		c0,0.1,0.1,0.2,0.1,0.3v0.1H372.2z M370.2,231.5c0.2,0,0.5,0,0.7-0.1c0.2-0.1,0.4-0.2,0.6-0.3c0.2-0.1,0.3-0.3,0.4-0.4
		c0.1-0.2,0.2-0.3,0.3-0.5v-1.8H371c-0.7,0-1.3,0.2-1.6,0.5s-0.5,0.7-0.5,1.2c0,0.5,0.1,0.8,0.4,1.1
		C369.4,231.4,369.7,231.5,370.2,231.5z"/>
	<path d="M376.3,224.7l0,1.2c0.2-0.4,0.5-0.7,0.8-1c0.3-0.2,0.7-0.4,1.2-0.4c0.3,0,0.6,0,0.8,0.2c0.2,0.1,0.5,0.3,0.6,0.5
		c0.2,0.2,0.3,0.5,0.4,0.8c0.1,0.3,0.1,0.8,0.1,1.2v4.8h-0.8v-4.8c0-0.4,0-0.7-0.1-1c-0.1-0.3-0.2-0.5-0.3-0.6
		c-0.1-0.2-0.3-0.3-0.4-0.3c-0.2-0.1-0.4-0.1-0.6-0.1c-0.2,0-0.4,0-0.6,0.1c-0.2,0.1-0.4,0.2-0.5,0.4s-0.3,0.3-0.4,0.5
		s-0.2,0.4-0.3,0.6v5.1h-0.8v-7.4H376.3z"/>
	<path d="M382.8,228c0-0.6,0.1-1.1,0.2-1.6c0.1-0.4,0.3-0.8,0.5-1.1s0.5-0.5,0.8-0.6c0.3-0.1,0.6-0.2,1-0.2c0.4,0,0.8,0.1,1.1,0.3
		c0.3,0.2,0.6,0.5,0.8,0.8v-4.1h0.8v10.5h-0.7l0-1c-0.2,0.3-0.5,0.6-0.8,0.8c-0.3,0.2-0.7,0.3-1.1,0.3c-0.4,0-0.7-0.1-1-0.2
		c-0.3-0.1-0.5-0.4-0.8-0.6c-0.2-0.3-0.4-0.6-0.5-1.1s-0.2-1-0.2-1.6V228z M383.6,228.7c0,0.9,0.1,1.6,0.4,2.1
		c0.3,0.4,0.7,0.7,1.4,0.7c0.2,0,0.4,0,0.6-0.1c0.2-0.1,0.3-0.1,0.5-0.2c0.1-0.1,0.3-0.2,0.4-0.4c0.1-0.1,0.2-0.3,0.3-0.5v-3.8
		c-0.1-0.2-0.2-0.3-0.3-0.5s-0.2-0.3-0.4-0.4c-0.1-0.1-0.3-0.2-0.5-0.3c-0.2-0.1-0.4-0.1-0.6-0.1c-0.6,0-1.1,0.2-1.4,0.7
		c-0.3,0.4-0.4,1.1-0.4,2.1V228.7z"/>
	<path d="M399.2,227.3h-3.9v4h4.4v0.7h-5.2v-10h5.2v0.7h-4.4v3.7h3.9V227.3z"/>
	<path d="M402.8,224.7l0,1.2c0.2-0.4,0.5-0.7,0.8-1c0.3-0.2,0.7-0.4,1.2-0.4c0.3,0,0.6,0,0.8,0.2c0.2,0.1,0.5,0.3,0.6,0.5
		c0.2,0.2,0.3,0.5,0.4,0.8c0.1,0.3,0.1,0.8,0.1,1.2v4.8h-0.8v-4.8c0-0.4,0-0.7-0.1-1c-0.1-0.3-0.2-0.5-0.3-0.6
		c-0.1-0.2-0.3-0.3-0.4-0.3c-0.2-0.1-0.4-0.1-0.6-0.1c-0.2,0-0.4,0-0.6,0.1c-0.2,0.1-0.4,0.2-0.5,0.4s-0.3,0.3-0.4,0.5
		s-0.2,0.4-0.3,0.6v5.1h-0.8v-7.4H402.8z"/>
	<path d="M411.5,230.9l1.8-6.2h0.8l-2.3,7.4h-0.6l-2.3-7.4h0.8L411.5,230.9z"/>
	<path d="M416.1,222.6c0-0.2,0-0.3,0.1-0.4s0.2-0.2,0.4-0.2s0.3,0.1,0.4,0.2c0.1,0.1,0.1,0.2,0.1,0.4s0,0.3-0.1,0.4
		c-0.1,0.1-0.2,0.2-0.4,0.2s-0.3-0.1-0.4-0.2C416.2,222.8,416.1,222.7,416.1,222.6z M417,232.1h-0.8v-7.4h0.8V232.1z"/>
	<path d="M422.7,225.4c-0.1,0-0.2,0-0.2,0c-0.1,0-0.2,0-0.3,0c-0.2,0-0.4,0-0.6,0.1c-0.2,0.1-0.3,0.2-0.5,0.3
		c-0.1,0.1-0.3,0.3-0.4,0.5c-0.1,0.2-0.2,0.4-0.2,0.7v5.1h-0.8v-7.4h0.7l0,1.1c0.2-0.4,0.4-0.7,0.7-0.9c0.3-0.2,0.6-0.3,1-0.3
		c0.1,0,0.2,0,0.3,0s0.2,0,0.2,0.1L422.7,225.4z"/>
	<path d="M424.3,228c0-0.6,0.1-1.1,0.2-1.5s0.3-0.8,0.6-1.1c0.2-0.3,0.5-0.5,0.9-0.7c0.3-0.2,0.7-0.2,1.1-0.2c0.4,0,0.8,0.1,1.1,0.2
		s0.6,0.4,0.9,0.7c0.2,0.3,0.4,0.7,0.6,1.1c0.1,0.4,0.2,0.9,0.2,1.5v0.8c0,0.6-0.1,1.1-0.2,1.5c-0.1,0.4-0.3,0.8-0.6,1.1
		c-0.2,0.3-0.5,0.5-0.9,0.7c-0.3,0.2-0.7,0.2-1.1,0.2c-0.4,0-0.8-0.1-1.1-0.2s-0.6-0.4-0.9-0.7c-0.2-0.3-0.4-0.6-0.6-1.1
		s-0.2-0.9-0.2-1.5V228z M425.1,228.8c0,0.4,0,0.8,0.1,1.1s0.2,0.6,0.4,0.9c0.2,0.2,0.4,0.4,0.6,0.5s0.5,0.2,0.8,0.2
		c0.3,0,0.6-0.1,0.9-0.2s0.4-0.3,0.6-0.5s0.3-0.5,0.4-0.9c0.1-0.3,0.1-0.7,0.1-1.1V228c0-0.4,0-0.8-0.1-1.1
		c-0.1-0.3-0.2-0.6-0.4-0.9c-0.2-0.2-0.4-0.4-0.6-0.6c-0.2-0.1-0.5-0.2-0.8-0.2c-0.3,0-0.6,0.1-0.8,0.2c-0.2,0.1-0.4,0.3-0.6,0.6
		c-0.2,0.2-0.3,0.5-0.4,0.9c-0.1,0.3-0.1,0.7-0.1,1.1V228.8z"/>
	<path d="M432.9,224.7l0,1.2c0.2-0.4,0.5-0.7,0.8-1c0.3-0.2,0.7-0.4,1.2-0.4c0.3,0,0.6,0,0.8,0.2c0.2,0.1,0.5,0.3,0.6,0.5
		c0.2,0.2,0.3,0.5,0.4,0.8c0.1,0.3,0.1,0.8,0.1,1.2v4.8h-0.8v-4.8c0-0.4,0-0.7-0.1-1c-0.1-0.3-0.2-0.5-0.3-0.6
		c-0.1-0.2-0.3-0.3-0.4-0.3c-0.2-0.1-0.4-0.1-0.6-0.1c-0.2,0-0.4,0-0.6,0.1c-0.2,0.1-0.4,0.2-0.5,0.4s-0.3,0.3-0.4,0.5
		s-0.2,0.4-0.3,0.6v5.1h-0.8v-7.4H432.9z"/>
	<path d="M440.3,224.7l0,1.1c0.2-0.4,0.5-0.7,0.8-0.9c0.3-0.2,0.7-0.3,1.2-0.3c0.4,0,0.8,0.1,1.1,0.3c0.3,0.2,0.6,0.6,0.7,1
		c0.1-0.2,0.2-0.4,0.4-0.5c0.1-0.2,0.3-0.3,0.5-0.4s0.4-0.2,0.6-0.3s0.4-0.1,0.7-0.1c0.3,0,0.6,0.1,0.9,0.2c0.3,0.1,0.5,0.3,0.6,0.5
		c0.2,0.2,0.3,0.5,0.4,0.8s0.1,0.8,0.1,1.2v4.8h-0.8v-4.8c0-0.4,0-0.7-0.1-1c-0.1-0.3-0.2-0.5-0.3-0.6c-0.1-0.2-0.3-0.3-0.5-0.3
		s-0.4-0.1-0.6-0.1c-0.3,0-0.5,0.1-0.7,0.2c-0.2,0.1-0.4,0.3-0.5,0.4c-0.1,0.2-0.3,0.4-0.3,0.6c-0.1,0.2-0.1,0.4-0.1,0.7v4.9h-0.8
		v-4.9c0-0.4,0-0.7-0.1-0.9c-0.1-0.2-0.2-0.4-0.3-0.6c-0.1-0.1-0.3-0.3-0.5-0.3s-0.4-0.1-0.6-0.1c-0.2,0-0.5,0-0.7,0.1
		c-0.2,0.1-0.4,0.2-0.5,0.4c-0.1,0.2-0.3,0.3-0.4,0.5s-0.2,0.4-0.2,0.6v5.1h-0.8v-7.4H440.3z"/>
	<path d="M453.4,232.2c-0.4,0-0.8-0.1-1.1-0.2c-0.3-0.1-0.6-0.3-0.9-0.6c-0.2-0.3-0.4-0.6-0.6-1s-0.2-0.9-0.2-1.5V228
		c0-0.6,0.1-1.1,0.2-1.6c0.1-0.4,0.3-0.8,0.6-1.1c0.2-0.3,0.5-0.5,0.8-0.6c0.3-0.1,0.7-0.2,1-0.2c0.8,0,1.4,0.3,1.8,0.8
		c0.4,0.5,0.6,1.4,0.6,2.5v0.6h-4.4v0.4c0,0.5,0,0.8,0.2,1.2s0.2,0.6,0.4,0.8s0.4,0.4,0.7,0.5c0.3,0.1,0.5,0.2,0.8,0.2
		c0.4,0,0.7-0.1,1-0.2c0.3-0.1,0.5-0.3,0.8-0.6l0.4,0.5c-0.1,0.1-0.2,0.3-0.4,0.4c-0.1,0.1-0.3,0.2-0.5,0.3
		c-0.2,0.1-0.4,0.2-0.6,0.2C454,232.2,453.7,232.2,453.4,232.2z M453.3,225.3c-0.3,0-0.5,0-0.7,0.1c-0.2,0.1-0.4,0.2-0.6,0.4
		c-0.2,0.2-0.3,0.5-0.4,0.8s-0.2,0.7-0.2,1.1h3.6v-0.2c0-0.4,0-0.7-0.1-1s-0.2-0.5-0.3-0.7c-0.1-0.2-0.3-0.3-0.5-0.4
		C453.8,225.3,453.6,225.3,453.3,225.3z"/>
	<path d="M458.8,224.7l0,1.2c0.2-0.4,0.5-0.7,0.8-1c0.3-0.2,0.7-0.4,1.2-0.4c0.3,0,0.6,0,0.8,0.2c0.2,0.1,0.5,0.3,0.6,0.5
		c0.2,0.2,0.3,0.5,0.4,0.8c0.1,0.3,0.1,0.8,0.1,1.2v4.8h-0.8v-4.8c0-0.4,0-0.7-0.1-1c-0.1-0.3-0.2-0.5-0.3-0.6
		c-0.1-0.2-0.3-0.3-0.4-0.3c-0.2-0.1-0.4-0.1-0.6-0.1c-0.2,0-0.4,0-0.6,0.1c-0.2,0.1-0.4,0.2-0.5,0.4s-0.3,0.3-0.4,0.5
		s-0.2,0.4-0.3,0.6v5.1h-0.8v-7.4H458.8z"/>
	<path d="M466.7,222.8v1.9h1.3v0.7h-1.3v4.9c0,0.3,0,0.5,0.1,0.6c0,0.2,0.1,0.3,0.2,0.4s0.2,0.1,0.3,0.2c0.1,0,0.2,0,0.3,0
		c0.1,0,0.2,0,0.3,0c0.1,0,0.2,0,0.3,0l0,0.7c-0.1,0-0.2,0.1-0.3,0.1c-0.1,0-0.3,0-0.4,0c-0.2,0-0.4,0-0.5-0.1
		c-0.2-0.1-0.3-0.2-0.4-0.3s-0.2-0.3-0.3-0.6c-0.1-0.2-0.1-0.6-0.1-0.9v-4.9h-1.1v-0.7h1.1v-1.9H466.7z"/>
	<path d="M474.2,232.1c0-0.1-0.1-0.3-0.1-0.5c0-0.2,0-0.4,0-0.6c-0.1,0.2-0.2,0.3-0.3,0.4c-0.1,0.1-0.3,0.3-0.5,0.4
		c-0.2,0.1-0.4,0.2-0.6,0.3s-0.4,0.1-0.7,0.1c-0.3,0-0.6,0-0.8-0.1c-0.2-0.1-0.5-0.2-0.6-0.4s-0.3-0.4-0.4-0.6s-0.1-0.6-0.1-0.9
		c0-0.3,0.1-0.7,0.2-0.9c0.1-0.3,0.3-0.5,0.5-0.7c0.2-0.2,0.5-0.4,0.9-0.5s0.8-0.2,1.2-0.2h1.3v-1c0-0.5-0.1-0.9-0.4-1.1
		c-0.3-0.2-0.6-0.3-1.2-0.3c-0.2,0-0.5,0-0.7,0.1c-0.2,0.1-0.4,0.2-0.5,0.3c-0.1,0.1-0.3,0.3-0.3,0.5c-0.1,0.2-0.1,0.4-0.1,0.6
		l-0.8,0c0-0.3,0.1-0.6,0.2-0.8c0.1-0.3,0.3-0.5,0.5-0.7s0.5-0.4,0.8-0.5s0.6-0.2,1-0.2c0.3,0,0.6,0,0.9,0.1
		c0.3,0.1,0.5,0.2,0.7,0.4c0.2,0.2,0.4,0.4,0.5,0.7c0.1,0.3,0.2,0.6,0.2,1v3.8c0,0.1,0,0.3,0,0.4s0,0.3,0,0.4c0,0.1,0,0.3,0.1,0.4
		c0,0.1,0.1,0.2,0.1,0.3v0.1H474.2z M472.1,231.5c0.2,0,0.5,0,0.7-0.1c0.2-0.1,0.4-0.2,0.6-0.3c0.2-0.1,0.3-0.3,0.4-0.4
		c0.1-0.2,0.2-0.3,0.3-0.5v-1.8h-1.1c-0.7,0-1.3,0.2-1.6,0.5s-0.5,0.7-0.5,1.2c0,0.5,0.1,0.8,0.4,1.1
		C471.4,231.4,471.7,231.5,472.1,231.5z"/>
	<path d="M478.4,232.1h-0.8v-10.5h0.8V232.1z"/>
	<path d="M341.9,244.1h-3.9v4h4.4v0.7h-5.2v-10h5.2v0.7h-4.4v3.7h3.9V244.1z"/>
	<path d="M345.5,241.5l0,1.2c0.2-0.4,0.5-0.7,0.8-1c0.3-0.2,0.7-0.4,1.2-0.4c0.3,0,0.6,0,0.8,0.2c0.2,0.1,0.5,0.3,0.6,0.5
		c0.2,0.2,0.3,0.5,0.4,0.8c0.1,0.3,0.1,0.8,0.1,1.2v4.8h-0.8v-4.8c0-0.4,0-0.7-0.1-1c-0.1-0.3-0.2-0.5-0.3-0.6
		c-0.1-0.2-0.3-0.3-0.4-0.3c-0.2-0.1-0.4-0.1-0.6-0.1c-0.2,0-0.4,0-0.6,0.1c-0.2,0.1-0.4,0.2-0.5,0.4s-0.3,0.3-0.4,0.5
		s-0.2,0.4-0.3,0.6v5.1h-0.8v-7.4H345.5z"/>
	<path d="M352,244.8c0-0.6,0.1-1.1,0.2-1.6c0.1-0.4,0.3-0.8,0.5-1.1c0.2-0.3,0.5-0.5,0.8-0.6c0.3-0.1,0.6-0.2,1-0.2
		c0.5,0,0.8,0.1,1.1,0.3s0.6,0.5,0.8,0.9l0-1h0.7v7.6c0,0.5-0.1,0.9-0.2,1.2c-0.1,0.3-0.3,0.6-0.5,0.9c-0.2,0.2-0.5,0.4-0.8,0.5
		c-0.3,0.1-0.6,0.2-1,0.2c-0.2,0-0.4,0-0.6-0.1s-0.4-0.1-0.6-0.2c-0.2-0.1-0.4-0.2-0.5-0.3c-0.2-0.1-0.3-0.3-0.4-0.4l0.4-0.5
		c0.3,0.3,0.5,0.5,0.8,0.7c0.3,0.1,0.6,0.2,0.9,0.2c0.3,0,0.5,0,0.8-0.1c0.2-0.1,0.4-0.2,0.6-0.4c0.1-0.2,0.3-0.4,0.3-0.6
		c0.1-0.3,0.1-0.6,0.1-0.9V248c-0.2,0.3-0.4,0.6-0.8,0.8s-0.7,0.3-1.1,0.3c-0.4,0-0.7-0.1-1-0.2c-0.3-0.1-0.5-0.4-0.8-0.6
		c-0.2-0.3-0.4-0.6-0.5-1.1c-0.1-0.4-0.2-1-0.2-1.6V244.8z M352.7,245.5c0,0.9,0.1,1.6,0.4,2.1s0.7,0.7,1.4,0.7c0.2,0,0.4,0,0.6-0.1
		s0.3-0.1,0.5-0.2s0.3-0.2,0.4-0.4s0.2-0.3,0.3-0.5v-3.8c-0.1-0.2-0.2-0.3-0.3-0.5c-0.1-0.2-0.2-0.3-0.4-0.4
		c-0.1-0.1-0.3-0.2-0.5-0.3c-0.2-0.1-0.4-0.1-0.6-0.1c-0.6,0-1.1,0.2-1.4,0.7c-0.3,0.4-0.4,1.1-0.4,2.1V245.5z"/>
	<path d="M359.7,239.4c0-0.2,0-0.3,0.1-0.4s0.2-0.2,0.4-0.2s0.3,0.1,0.4,0.2c0.1,0.1,0.1,0.2,0.1,0.4s0,0.3-0.1,0.4
		c-0.1,0.1-0.2,0.2-0.4,0.2s-0.3-0.1-0.4-0.2C359.8,239.6,359.7,239.5,359.7,239.4z M360.6,248.9h-0.8v-7.4h0.8V248.9z"/>
	<path d="M364.1,241.5l0,1.2c0.2-0.4,0.5-0.7,0.8-1c0.3-0.2,0.7-0.4,1.2-0.4c0.3,0,0.6,0,0.8,0.2c0.2,0.1,0.5,0.3,0.6,0.5
		c0.2,0.2,0.3,0.5,0.4,0.8c0.1,0.3,0.1,0.8,0.1,1.2v4.8h-0.8v-4.8c0-0.4,0-0.7-0.1-1c-0.1-0.3-0.2-0.5-0.3-0.6
		c-0.1-0.2-0.3-0.3-0.4-0.3c-0.2-0.1-0.4-0.1-0.6-0.1c-0.2,0-0.4,0-0.6,0.1c-0.2,0.1-0.4,0.2-0.5,0.4s-0.3,0.3-0.4,0.5
		s-0.2,0.4-0.3,0.6v5.1h-0.8v-7.4H364.1z"/>
	<path d="M373.3,249c-0.4,0-0.8-0.1-1.1-0.2c-0.3-0.1-0.6-0.3-0.9-0.6c-0.2-0.3-0.4-0.6-0.6-1s-0.2-0.9-0.2-1.5v-0.8
		c0-0.6,0.1-1.1,0.2-1.6c0.1-0.4,0.3-0.8,0.6-1.1c0.2-0.3,0.5-0.5,0.8-0.6c0.3-0.1,0.7-0.2,1-0.2c0.8,0,1.4,0.3,1.8,0.8
		c0.4,0.5,0.6,1.4,0.6,2.5v0.6h-4.4v0.4c0,0.5,0,0.8,0.2,1.2s0.2,0.6,0.4,0.8s0.4,0.4,0.7,0.5c0.3,0.1,0.5,0.2,0.8,0.2
		c0.4,0,0.7-0.1,1-0.2c0.3-0.1,0.5-0.3,0.8-0.6l0.4,0.5c-0.1,0.1-0.2,0.3-0.4,0.4c-0.1,0.1-0.3,0.2-0.5,0.3
		c-0.2,0.1-0.4,0.2-0.6,0.2C373.8,249,373.6,249,373.3,249z M373.1,242.1c-0.3,0-0.5,0-0.7,0.1c-0.2,0.1-0.4,0.2-0.6,0.4
		c-0.2,0.2-0.3,0.5-0.4,0.8s-0.2,0.7-0.2,1.1h3.6v-0.2c0-0.4,0-0.7-0.1-1s-0.2-0.5-0.3-0.7c-0.1-0.2-0.3-0.3-0.5-0.4
		C373.7,242.1,373.4,242.1,373.1,242.1z"/>
	<path d="M380.4,249c-0.4,0-0.8-0.1-1.1-0.2c-0.3-0.1-0.6-0.3-0.9-0.6c-0.2-0.3-0.4-0.6-0.6-1s-0.2-0.9-0.2-1.5v-0.8
		c0-0.6,0.1-1.1,0.2-1.6c0.1-0.4,0.3-0.8,0.6-1.1c0.2-0.3,0.5-0.5,0.8-0.6c0.3-0.1,0.7-0.2,1-0.2c0.8,0,1.4,0.3,1.8,0.8
		c0.4,0.5,0.6,1.4,0.6,2.5v0.6h-4.4v0.4c0,0.5,0,0.8,0.2,1.2s0.2,0.6,0.4,0.8s0.4,0.4,0.7,0.5c0.3,0.1,0.5,0.2,0.8,0.2
		c0.4,0,0.7-0.1,1-0.2c0.3-0.1,0.5-0.3,0.8-0.6l0.4,0.5c-0.1,0.1-0.2,0.3-0.4,0.4c-0.1,0.1-0.3,0.2-0.5,0.3
		c-0.2,0.1-0.4,0.2-0.6,0.2C380.9,249,380.7,249,380.4,249z M380.2,242.1c-0.3,0-0.5,0-0.7,0.1c-0.2,0.1-0.4,0.2-0.6,0.4
		c-0.2,0.2-0.3,0.5-0.4,0.8s-0.2,0.7-0.2,1.1h3.6v-0.2c0-0.4,0-0.7-0.1-1s-0.2-0.5-0.3-0.7c-0.1-0.2-0.3-0.3-0.5-0.4
		C380.8,242.1,380.5,242.1,380.2,242.1z"/>
	<path d="M387.9,242.2c-0.1,0-0.2,0-0.2,0c-0.1,0-0.2,0-0.3,0c-0.2,0-0.4,0-0.6,0.1c-0.2,0.1-0.3,0.2-0.5,0.3
		c-0.1,0.1-0.3,0.3-0.4,0.5c-0.1,0.2-0.2,0.4-0.2,0.7v5.1H385v-7.4h0.7l0,1.1c0.2-0.4,0.4-0.7,0.7-0.9c0.3-0.2,0.6-0.3,1-0.3
		c0.1,0,0.2,0,0.3,0s0.2,0,0.2,0.1L387.9,242.2z"/>
	<path d="M389.9,239.4c0-0.2,0-0.3,0.1-0.4s0.2-0.2,0.4-0.2s0.3,0.1,0.4,0.2c0.1,0.1,0.1,0.2,0.1,0.4s0,0.3-0.1,0.4
		c-0.1,0.1-0.2,0.2-0.4,0.2s-0.3-0.1-0.4-0.2C390,239.6,389.9,239.5,389.9,239.4z M390.8,248.9h-0.8v-7.4h0.8V248.9z"/>
	<path d="M394.3,241.5l0,1.2c0.2-0.4,0.5-0.7,0.8-1c0.3-0.2,0.7-0.4,1.2-0.4c0.3,0,0.6,0,0.8,0.2c0.2,0.1,0.5,0.3,0.6,0.5
		c0.2,0.2,0.3,0.5,0.4,0.8c0.1,0.3,0.1,0.8,0.1,1.2v4.8h-0.8v-4.8c0-0.4,0-0.7-0.1-1c-0.1-0.3-0.2-0.5-0.3-0.6
		c-0.1-0.2-0.3-0.3-0.4-0.3c-0.2-0.1-0.4-0.1-0.6-0.1c-0.2,0-0.4,0-0.6,0.1c-0.2,0.1-0.4,0.2-0.5,0.4s-0.3,0.3-0.4,0.5
		s-0.2,0.4-0.3,0.6v5.1h-0.8v-7.4H394.3z"/>
	<path d="M400.8,244.8c0-0.6,0.1-1.1,0.2-1.6c0.1-0.4,0.3-0.8,0.5-1.1c0.2-0.3,0.5-0.5,0.8-0.6c0.3-0.1,0.6-0.2,1-0.2
		c0.5,0,0.8,0.1,1.1,0.3s0.6,0.5,0.8,0.9l0-1h0.7v7.6c0,0.5-0.1,0.9-0.2,1.2c-0.1,0.3-0.3,0.6-0.5,0.9c-0.2,0.2-0.5,0.4-0.8,0.5
		c-0.3,0.1-0.6,0.2-1,0.2c-0.2,0-0.4,0-0.6-0.1s-0.4-0.1-0.6-0.2c-0.2-0.1-0.4-0.2-0.5-0.3c-0.2-0.1-0.3-0.3-0.4-0.4l0.4-0.5
		c0.3,0.3,0.5,0.5,0.8,0.7c0.3,0.1,0.6,0.2,0.9,0.2c0.3,0,0.5,0,0.8-0.1c0.2-0.1,0.4-0.2,0.6-0.4c0.1-0.2,0.3-0.4,0.3-0.6
		c0.1-0.3,0.1-0.6,0.1-0.9V248c-0.2,0.3-0.4,0.6-0.8,0.8s-0.7,0.3-1.1,0.3c-0.4,0-0.7-0.1-1-0.2c-0.3-0.1-0.5-0.4-0.8-0.6
		c-0.2-0.3-0.4-0.6-0.5-1.1c-0.1-0.4-0.2-1-0.2-1.6V244.8z M401.6,245.5c0,0.9,0.1,1.6,0.4,2.1s0.7,0.7,1.4,0.7c0.2,0,0.4,0,0.6-0.1
		s0.3-0.1,0.5-0.2s0.3-0.2,0.4-0.4s0.2-0.3,0.3-0.5v-3.8c-0.1-0.2-0.2-0.3-0.3-0.5c-0.1-0.2-0.2-0.3-0.4-0.4
		c-0.1-0.1-0.3-0.2-0.5-0.3c-0.2-0.1-0.4-0.1-0.6-0.1c-0.6,0-1.1,0.2-1.4,0.7c-0.3,0.4-0.4,1.1-0.4,2.1V245.5z"/>
	<path d="M311.4,272.5l3,8.8l3-8.8h1v10h-0.8v-4.3l0.1-4.3l-3,8.7h-0.6l-3-8.6l0.1,4.3v4.3h-0.8v-10H311.4z"/>
	<path d="M321.4,273c0-0.2,0-0.3,0.1-0.4s0.2-0.2,0.4-0.2s0.3,0.1,0.4,0.2s0.1,0.2,0.1,0.4s0,0.3-0.1,0.4c-0.1,0.1-0.2,0.2-0.4,0.2
		s-0.3-0.1-0.4-0.2C321.4,273.2,321.4,273.1,321.4,273z M322.2,282.5h-0.8v-7.4h0.8V282.5z"/>
	<path d="M325.8,275.1l0,1.2c0.2-0.4,0.5-0.7,0.8-1s0.7-0.4,1.2-0.4c0.3,0,0.6,0,0.8,0.2s0.5,0.3,0.6,0.5s0.3,0.5,0.4,0.8
		c0.1,0.3,0.1,0.8,0.1,1.2v4.8H329v-4.8c0-0.4,0-0.7-0.1-1s-0.2-0.5-0.3-0.6c-0.1-0.2-0.3-0.3-0.4-0.3c-0.2-0.1-0.4-0.1-0.6-0.1
		c-0.2,0-0.4,0-0.6,0.1c-0.2,0.1-0.4,0.2-0.5,0.4s-0.3,0.3-0.4,0.5s-0.2,0.4-0.3,0.6v5.1H325v-7.4H325.8z"/>
	<path d="M332.2,278.4c0-0.6,0.1-1.1,0.2-1.5s0.3-0.8,0.6-1.1c0.2-0.3,0.5-0.5,0.9-0.7s0.7-0.2,1.1-0.2c0.4,0,0.8,0.1,1.1,0.2
		s0.6,0.4,0.9,0.7c0.2,0.3,0.4,0.7,0.6,1.1c0.1,0.4,0.2,0.9,0.2,1.5v0.8c0,0.6-0.1,1.1-0.2,1.5c-0.1,0.4-0.3,0.8-0.6,1.1
		c-0.2,0.3-0.5,0.5-0.9,0.7s-0.7,0.2-1.1,0.2c-0.4,0-0.8-0.1-1.1-0.2s-0.6-0.4-0.9-0.7c-0.2-0.3-0.4-0.6-0.6-1.1s-0.2-0.9-0.2-1.5
		V278.4z M333,279.2c0,0.4,0,0.8,0.1,1.1s0.2,0.6,0.4,0.9s0.4,0.4,0.6,0.5s0.5,0.2,0.8,0.2c0.3,0,0.6-0.1,0.9-0.2s0.4-0.3,0.6-0.5
		s0.3-0.5,0.4-0.9s0.1-0.7,0.1-1.1v-0.8c0-0.4,0-0.8-0.1-1.1c-0.1-0.3-0.2-0.6-0.4-0.9c-0.2-0.2-0.4-0.4-0.6-0.6
		c-0.2-0.1-0.5-0.2-0.8-0.2c-0.3,0-0.6,0.1-0.8,0.2c-0.2,0.1-0.4,0.3-0.6,0.6c-0.2,0.2-0.3,0.5-0.4,0.9c-0.1,0.3-0.1,0.7-0.1,1.1
		V279.2z"/>
	<path d="M342.9,275.8c-0.1,0-0.2,0-0.2,0c-0.1,0-0.2,0-0.3,0c-0.2,0-0.4,0-0.6,0.1c-0.2,0.1-0.3,0.2-0.5,0.3
		c-0.1,0.1-0.3,0.3-0.4,0.5c-0.1,0.2-0.2,0.4-0.2,0.7v5.1H340v-7.4h0.7l0,1.1c0.2-0.4,0.4-0.7,0.7-0.9c0.3-0.2,0.6-0.3,1-0.3
		c0.1,0,0.2,0,0.3,0s0.2,0,0.2,0.1L342.9,275.8z"/>
	<path d="M348.7,280.7c0-0.2,0-0.3-0.1-0.4c-0.1-0.1-0.2-0.3-0.3-0.4c-0.1-0.1-0.3-0.2-0.5-0.4c-0.2-0.1-0.5-0.3-0.8-0.4
		c-0.3-0.2-0.6-0.3-0.9-0.4c-0.3-0.1-0.5-0.3-0.7-0.5c-0.2-0.2-0.3-0.3-0.4-0.5c-0.1-0.2-0.1-0.4-0.1-0.7c0-0.3,0.1-0.5,0.2-0.8
		c0.1-0.2,0.2-0.4,0.4-0.6s0.4-0.3,0.7-0.4c0.3-0.1,0.6-0.2,0.9-0.2c0.4,0,0.7,0.1,1,0.2c0.3,0.1,0.5,0.3,0.7,0.4
		c0.2,0.2,0.4,0.4,0.5,0.7c0.1,0.3,0.2,0.6,0.2,0.9h-0.8c0-0.2,0-0.4-0.1-0.5c-0.1-0.2-0.2-0.3-0.3-0.5c-0.1-0.1-0.3-0.2-0.5-0.3
		c-0.2-0.1-0.4-0.1-0.7-0.1c-0.3,0-0.5,0-0.7,0.1c-0.2,0.1-0.3,0.2-0.5,0.3c-0.1,0.1-0.2,0.2-0.3,0.4c-0.1,0.1-0.1,0.3-0.1,0.4
		s0,0.3,0.1,0.4c0,0.1,0.1,0.2,0.3,0.3c0.1,0.1,0.3,0.2,0.5,0.3c0.2,0.1,0.5,0.3,0.8,0.4c0.3,0.2,0.6,0.3,0.9,0.4s0.5,0.3,0.7,0.5
		c0.2,0.2,0.3,0.4,0.4,0.6c0.1,0.2,0.2,0.5,0.2,0.8c0,0.3-0.1,0.6-0.2,0.8s-0.3,0.5-0.5,0.6c-0.2,0.2-0.4,0.3-0.7,0.4
		c-0.3,0.1-0.6,0.1-0.9,0.1c-0.4,0-0.8-0.1-1.1-0.2c-0.3-0.1-0.6-0.3-0.8-0.5c-0.2-0.2-0.4-0.4-0.5-0.7c-0.1-0.3-0.2-0.5-0.2-0.8
		h0.8c0,0.3,0.1,0.5,0.2,0.7c0.1,0.2,0.2,0.3,0.4,0.4s0.3,0.2,0.5,0.2s0.4,0.1,0.6,0.1c0.3,0,0.5,0,0.7-0.1c0.2-0.1,0.4-0.2,0.5-0.3
		c0.1-0.1,0.2-0.2,0.3-0.4C348.6,281,348.7,280.8,348.7,280.7z"/>
	<path d="M341.2,294.5c-0.1,0.9-0.3,1.5-0.7,1.9s-1,0.6-1.7,0.6c-0.4,0-0.7-0.1-1-0.2c-0.3-0.1-0.6-0.4-0.8-0.6
		c-0.2-0.3-0.4-0.6-0.5-1s-0.2-0.8-0.2-1.3v-1.7c0-0.5,0.1-0.9,0.2-1.3c0.1-0.4,0.3-0.7,0.5-1s0.5-0.5,0.8-0.6
		c0.3-0.1,0.7-0.2,1-0.2c0.4,0,0.7,0,1,0.2s0.5,0.3,0.7,0.5c0.2,0.2,0.4,0.5,0.5,0.8c0.1,0.3,0.2,0.7,0.2,1.1h-0.6
		c0-0.4-0.1-0.7-0.2-0.9s-0.2-0.5-0.3-0.6s-0.3-0.3-0.5-0.3c-0.2-0.1-0.4-0.1-0.7-0.1c-0.3,0-0.6,0.1-0.8,0.2
		c-0.2,0.1-0.4,0.3-0.6,0.5c-0.2,0.2-0.3,0.5-0.4,0.8c-0.1,0.3-0.1,0.7-0.1,1.1v1.7c0,0.4,0,0.8,0.1,1.1c0.1,0.3,0.2,0.6,0.3,0.8
		s0.3,0.4,0.6,0.5c0.2,0.1,0.5,0.2,0.8,0.2c0.3,0,0.5,0,0.8-0.1s0.4-0.2,0.5-0.3s0.3-0.4,0.3-0.6c0.1-0.3,0.1-0.6,0.2-0.9H341.2z"/>
	<path d="M342.9,293.7c0-0.4,0.1-0.8,0.2-1.2c0.1-0.3,0.2-0.6,0.4-0.9c0.2-0.2,0.4-0.4,0.7-0.5c0.3-0.1,0.5-0.2,0.9-0.2
		c0.3,0,0.6,0.1,0.9,0.2c0.3,0.1,0.5,0.3,0.7,0.5c0.2,0.2,0.3,0.5,0.4,0.9c0.1,0.3,0.2,0.7,0.2,1.2v0.6c0,0.4-0.1,0.8-0.2,1.2
		c-0.1,0.3-0.2,0.6-0.4,0.8s-0.4,0.4-0.7,0.5c-0.3,0.1-0.5,0.2-0.9,0.2c-0.3,0-0.6-0.1-0.9-0.2c-0.3-0.1-0.5-0.3-0.7-0.5
		s-0.3-0.5-0.4-0.8c-0.1-0.3-0.2-0.7-0.2-1.2V293.7z M343.5,294.3c0,0.3,0,0.6,0.1,0.9c0.1,0.3,0.2,0.5,0.3,0.7
		c0.1,0.2,0.3,0.3,0.5,0.4c0.2,0.1,0.4,0.2,0.6,0.2c0.3,0,0.5-0.1,0.7-0.2c0.2-0.1,0.3-0.2,0.5-0.4c0.1-0.2,0.2-0.4,0.3-0.7
		c0.1-0.3,0.1-0.6,0.1-0.9v-0.6c0-0.3,0-0.6-0.1-0.9c-0.1-0.3-0.2-0.5-0.3-0.7c-0.1-0.2-0.3-0.3-0.5-0.4c-0.2-0.1-0.4-0.2-0.6-0.2
		c-0.2,0-0.5,0.1-0.6,0.2c-0.2,0.1-0.3,0.2-0.5,0.4c-0.1,0.2-0.2,0.4-0.3,0.7c-0.1,0.3-0.1,0.6-0.1,0.9V294.3z"/>
	<path d="M349.6,291.1l0,0.9c0.2-0.3,0.4-0.5,0.6-0.7c0.3-0.2,0.6-0.3,0.9-0.3c0.3,0,0.6,0.1,0.9,0.3c0.3,0.2,0.4,0.4,0.6,0.8
		c0.1-0.2,0.2-0.3,0.3-0.4c0.1-0.1,0.2-0.2,0.4-0.3c0.1-0.1,0.3-0.2,0.5-0.2c0.2-0.1,0.3-0.1,0.5-0.1c0.3,0,0.5,0,0.7,0.1
		c0.2,0.1,0.4,0.2,0.5,0.4s0.2,0.4,0.3,0.7c0.1,0.3,0.1,0.6,0.1,1v3.8h-0.6v-3.8c0-0.3,0-0.6-0.1-0.8c-0.1-0.2-0.1-0.4-0.2-0.5
		c-0.1-0.1-0.2-0.2-0.4-0.2c-0.1,0-0.3-0.1-0.5-0.1c-0.2,0-0.4,0.1-0.6,0.1c-0.2,0.1-0.3,0.2-0.4,0.3s-0.2,0.3-0.3,0.5
		s-0.1,0.3-0.1,0.5v3.9h-0.6V293c0-0.3,0-0.5-0.1-0.7s-0.1-0.3-0.2-0.5c-0.1-0.1-0.2-0.2-0.4-0.3c-0.1,0-0.3-0.1-0.5-0.1
		c-0.2,0-0.4,0-0.5,0.1s-0.3,0.2-0.4,0.3s-0.2,0.3-0.3,0.4s-0.1,0.3-0.2,0.5v4h-0.6v-5.8H349.6z"/>
	<path d="M362,294.3c0,0.5,0,0.9-0.1,1.2s-0.2,0.6-0.4,0.9c-0.2,0.2-0.4,0.4-0.6,0.5s-0.5,0.2-0.8,0.2c-0.4,0-0.7-0.1-0.9-0.2
		s-0.5-0.3-0.6-0.6v2.9H358v-8h0.5l0,0.8c0.2-0.3,0.4-0.5,0.6-0.7c0.2-0.2,0.5-0.2,0.9-0.2c0.3,0,0.6,0.1,0.8,0.2
		c0.2,0.1,0.4,0.3,0.6,0.5c0.2,0.2,0.3,0.5,0.4,0.9c0.1,0.3,0.1,0.8,0.1,1.2V294.3z M361.4,293.7c0-0.7-0.1-1.3-0.3-1.6
		c-0.2-0.4-0.6-0.5-1.1-0.5c-0.2,0-0.3,0-0.5,0.1c-0.1,0.1-0.3,0.1-0.4,0.2c-0.1,0.1-0.2,0.2-0.3,0.3s-0.1,0.2-0.2,0.4v3.1
		c0.1,0.1,0.1,0.2,0.2,0.3s0.2,0.2,0.3,0.3c0.1,0.1,0.2,0.1,0.4,0.2s0.3,0.1,0.5,0.1c0.5,0,0.8-0.2,1.1-0.5c0.2-0.4,0.3-0.9,0.3-1.7
		V293.7z"/>
	<path d="M367,296.2c-0.2,0.3-0.4,0.4-0.6,0.6s-0.6,0.2-0.9,0.2c-0.2,0-0.5,0-0.7-0.1c-0.2-0.1-0.4-0.2-0.5-0.4
		c-0.1-0.2-0.2-0.4-0.3-0.7s-0.1-0.6-0.1-1v-3.7h0.6v3.7c0,0.3,0,0.6,0.1,0.8c0.1,0.2,0.1,0.4,0.2,0.5c0.1,0.1,0.2,0.2,0.3,0.3
		c0.1,0.1,0.3,0.1,0.4,0.1c0.2,0,0.4,0,0.5-0.1c0.2-0.1,0.3-0.1,0.4-0.2c0.1-0.1,0.2-0.2,0.3-0.3c0.1-0.1,0.1-0.3,0.2-0.4v-4.3h0.6
		v5.8H367L367,296.2z"/>
	<path d="M370.7,289.6v1.5h1v0.5h-1v3.9c0,0.2,0,0.4,0.1,0.5c0,0.1,0.1,0.2,0.1,0.3c0.1,0.1,0.1,0.1,0.2,0.1s0.2,0,0.2,0
		c0.1,0,0.2,0,0.2,0c0.1,0,0.1,0,0.2,0l0,0.5c-0.1,0-0.2,0.1-0.3,0.1c-0.1,0-0.2,0-0.3,0c-0.2,0-0.3,0-0.4-0.1s-0.2-0.1-0.3-0.3
		c-0.1-0.1-0.2-0.3-0.2-0.5c-0.1-0.2-0.1-0.4-0.1-0.7v-3.9h-0.9v-0.5h0.9v-1.5H370.7z"/>
	<path d="M376.6,296.9c0-0.1-0.1-0.2-0.1-0.4c0-0.1,0-0.3,0-0.4c-0.1,0.1-0.2,0.2-0.3,0.3s-0.2,0.2-0.4,0.3
		c-0.1,0.1-0.3,0.2-0.4,0.2s-0.3,0.1-0.5,0.1c-0.2,0-0.5,0-0.7-0.1c-0.2-0.1-0.4-0.2-0.5-0.3s-0.2-0.3-0.3-0.5
		c-0.1-0.2-0.1-0.4-0.1-0.7c0-0.3,0-0.5,0.1-0.7c0.1-0.2,0.2-0.4,0.4-0.6s0.4-0.3,0.7-0.4c0.3-0.1,0.6-0.1,1-0.1h1v-0.8
		c0-0.4-0.1-0.7-0.3-0.9s-0.5-0.3-0.9-0.3c-0.2,0-0.4,0-0.5,0.1c-0.2,0.1-0.3,0.1-0.4,0.2c-0.1,0.1-0.2,0.2-0.3,0.4
		c-0.1,0.1-0.1,0.3-0.1,0.5l-0.6,0c0-0.2,0-0.4,0.1-0.6s0.2-0.4,0.4-0.5c0.2-0.2,0.4-0.3,0.6-0.4s0.5-0.1,0.8-0.1
		c0.3,0,0.5,0,0.7,0.1s0.4,0.2,0.6,0.3s0.3,0.3,0.4,0.5c0.1,0.2,0.1,0.5,0.1,0.8v3c0,0.1,0,0.2,0,0.3c0,0.1,0,0.2,0,0.3
		c0,0.1,0,0.2,0,0.3c0,0.1,0,0.2,0.1,0.2v0.1H376.6z M374.9,296.4c0.2,0,0.4,0,0.5-0.1s0.3-0.1,0.4-0.2c0.1-0.1,0.2-0.2,0.3-0.3
		c0.1-0.1,0.2-0.3,0.2-0.4V294h-0.9c-0.6,0-1,0.1-1.3,0.4s-0.4,0.6-0.4,1c0,0.4,0.1,0.7,0.3,0.8
		C374.3,296.3,374.6,296.4,374.9,296.4z"/>
	<path d="M380.1,289.6v1.5h1v0.5h-1v3.9c0,0.2,0,0.4,0.1,0.5c0,0.1,0.1,0.2,0.1,0.3c0.1,0.1,0.1,0.1,0.2,0.1s0.2,0,0.2,0
		c0.1,0,0.2,0,0.2,0c0.1,0,0.1,0,0.2,0l0,0.5c-0.1,0-0.2,0.1-0.3,0.1c-0.1,0-0.2,0-0.3,0c-0.2,0-0.3,0-0.4-0.1s-0.2-0.1-0.3-0.3
		c-0.1-0.1-0.2-0.3-0.2-0.5c-0.1-0.2-0.1-0.4-0.1-0.7v-3.9h-0.9v-0.5h0.9v-1.5H380.1z"/>
	<path d="M383,289.4c0-0.1,0-0.2,0.1-0.3c0.1-0.1,0.2-0.1,0.3-0.1c0.1,0,0.2,0,0.3,0.1c0.1,0.1,0.1,0.2,0.1,0.3s0,0.2-0.1,0.3
		c-0.1,0.1-0.2,0.1-0.3,0.1c-0.1,0-0.2,0-0.3-0.1C383,289.6,383,289.5,383,289.4z M383.6,296.9H383v-5.8h0.6V296.9z"/>
	<path d="M385.6,293.7c0-0.4,0.1-0.8,0.2-1.2c0.1-0.3,0.2-0.6,0.4-0.9c0.2-0.2,0.4-0.4,0.7-0.5c0.3-0.1,0.5-0.2,0.9-0.2
		c0.3,0,0.6,0.1,0.9,0.2c0.3,0.1,0.5,0.3,0.7,0.5c0.2,0.2,0.3,0.5,0.4,0.9c0.1,0.3,0.2,0.7,0.2,1.2v0.6c0,0.4-0.1,0.8-0.2,1.2
		c-0.1,0.3-0.2,0.6-0.4,0.8s-0.4,0.4-0.7,0.5c-0.3,0.1-0.5,0.2-0.9,0.2c-0.3,0-0.6-0.1-0.9-0.2c-0.3-0.1-0.5-0.3-0.7-0.5
		s-0.3-0.5-0.4-0.8c-0.1-0.3-0.2-0.7-0.2-1.2V293.7z M386.2,294.3c0,0.3,0,0.6,0.1,0.9c0.1,0.3,0.2,0.5,0.3,0.7
		c0.1,0.2,0.3,0.3,0.5,0.4c0.2,0.1,0.4,0.2,0.6,0.2c0.3,0,0.5-0.1,0.7-0.2c0.2-0.1,0.3-0.2,0.5-0.4c0.1-0.2,0.2-0.4,0.3-0.7
		c0.1-0.3,0.1-0.6,0.1-0.9v-0.6c0-0.3,0-0.6-0.1-0.9c-0.1-0.3-0.2-0.5-0.3-0.7c-0.1-0.2-0.3-0.3-0.5-0.4c-0.2-0.1-0.4-0.2-0.6-0.2
		c-0.2,0-0.5,0.1-0.6,0.2c-0.2,0.1-0.3,0.2-0.5,0.4c-0.1,0.2-0.2,0.4-0.3,0.7c-0.1,0.3-0.1,0.6-0.1,0.9V294.3z"/>
	<path d="M392.4,291.1l0,0.9c0.2-0.3,0.4-0.6,0.7-0.8s0.6-0.3,0.9-0.3c0.2,0,0.5,0,0.7,0.1s0.4,0.2,0.5,0.4c0.1,0.2,0.2,0.4,0.3,0.7
		c0.1,0.3,0.1,0.6,0.1,1v3.8h-0.6v-3.8c0-0.3,0-0.5-0.1-0.7s-0.1-0.4-0.2-0.5c-0.1-0.1-0.2-0.2-0.4-0.3s-0.3-0.1-0.5-0.1
		c-0.2,0-0.3,0-0.5,0.1s-0.3,0.2-0.4,0.3c-0.1,0.1-0.2,0.3-0.3,0.4c-0.1,0.2-0.2,0.3-0.2,0.5v4h-0.6v-5.8H392.4z"/>
	<path d="M400.7,296.9c0-0.1-0.1-0.2-0.1-0.4c0-0.1,0-0.3,0-0.4c-0.1,0.1-0.2,0.2-0.3,0.3s-0.2,0.2-0.4,0.3
		c-0.1,0.1-0.3,0.2-0.4,0.2s-0.3,0.1-0.5,0.1c-0.2,0-0.5,0-0.7-0.1c-0.2-0.1-0.4-0.2-0.5-0.3s-0.2-0.3-0.3-0.5
		c-0.1-0.2-0.1-0.4-0.1-0.7c0-0.3,0-0.5,0.1-0.7c0.1-0.2,0.2-0.4,0.4-0.6s0.4-0.3,0.7-0.4c0.3-0.1,0.6-0.1,1-0.1h1v-0.8
		c0-0.4-0.1-0.7-0.3-0.9s-0.5-0.3-0.9-0.3c-0.2,0-0.4,0-0.5,0.1c-0.2,0.1-0.3,0.1-0.4,0.2c-0.1,0.1-0.2,0.2-0.3,0.4
		c-0.1,0.1-0.1,0.3-0.1,0.5l-0.6,0c0-0.2,0-0.4,0.1-0.6s0.2-0.4,0.4-0.5c0.2-0.2,0.4-0.3,0.6-0.4s0.5-0.1,0.8-0.1
		c0.3,0,0.5,0,0.7,0.1s0.4,0.2,0.6,0.3s0.3,0.3,0.4,0.5c0.1,0.2,0.1,0.5,0.1,0.8v3c0,0.1,0,0.2,0,0.3c0,0.1,0,0.2,0,0.3
		c0,0.1,0,0.2,0,0.3c0,0.1,0,0.2,0.1,0.2v0.1H400.7z M399.1,296.4c0.2,0,0.4,0,0.5-0.1s0.3-0.1,0.4-0.2c0.1-0.1,0.2-0.2,0.3-0.3
		c0.1-0.1,0.2-0.3,0.2-0.4V294h-0.9c-0.6,0-1,0.1-1.3,0.4s-0.4,0.6-0.4,1c0,0.4,0.1,0.7,0.3,0.8
		C398.5,296.3,398.7,296.4,399.1,296.4z"/>
	<path d="M404,296.9h-0.6v-8.3h0.6V296.9z"/>
	<path d="M413,293.2h-3v3.6h-0.6v-7.8h4.1v0.6H410v3h3V293.2z"/>
	<path d="M415.2,289.4c0-0.1,0-0.2,0.1-0.3c0.1-0.1,0.2-0.1,0.3-0.1c0.1,0,0.2,0,0.3,0.1c0.1,0.1,0.1,0.2,0.1,0.3s0,0.2-0.1,0.3
		c-0.1,0.1-0.2,0.1-0.3,0.1c-0.1,0-0.2,0-0.3-0.1C415.2,289.6,415.2,289.5,415.2,289.4z M415.9,296.9h-0.6v-5.8h0.6V296.9z"/>
	<path d="M418.6,291.1l0,0.9c0.2-0.3,0.4-0.6,0.7-0.8s0.6-0.3,0.9-0.3c0.2,0,0.5,0,0.7,0.1s0.4,0.2,0.5,0.4c0.1,0.2,0.2,0.4,0.3,0.7
		c0.1,0.3,0.1,0.6,0.1,1v3.8h-0.6v-3.8c0-0.3,0-0.5-0.1-0.7s-0.1-0.4-0.2-0.5c-0.1-0.1-0.2-0.2-0.4-0.3s-0.3-0.1-0.5-0.1
		c-0.2,0-0.3,0-0.5,0.1s-0.3,0.2-0.4,0.3c-0.1,0.1-0.2,0.3-0.3,0.4c-0.1,0.2-0.2,0.3-0.2,0.5v4h-0.6v-5.8H418.6z"/>
	<path d="M427,296.9c0-0.1-0.1-0.2-0.1-0.4c0-0.1,0-0.3,0-0.4c-0.1,0.1-0.2,0.2-0.3,0.3s-0.2,0.2-0.4,0.3c-0.1,0.1-0.3,0.2-0.4,0.2
		s-0.3,0.1-0.5,0.1c-0.2,0-0.5,0-0.7-0.1c-0.2-0.1-0.4-0.2-0.5-0.3s-0.2-0.3-0.3-0.5c-0.1-0.2-0.1-0.4-0.1-0.7c0-0.3,0-0.5,0.1-0.7
		c0.1-0.2,0.2-0.4,0.4-0.6s0.4-0.3,0.7-0.4c0.3-0.1,0.6-0.1,1-0.1h1v-0.8c0-0.4-0.1-0.7-0.3-0.9s-0.5-0.3-0.9-0.3
		c-0.2,0-0.4,0-0.5,0.1c-0.2,0.1-0.3,0.1-0.4,0.2c-0.1,0.1-0.2,0.2-0.3,0.4c-0.1,0.1-0.1,0.3-0.1,0.5l-0.6,0c0-0.2,0-0.4,0.1-0.6
		s0.2-0.4,0.4-0.5c0.2-0.2,0.4-0.3,0.6-0.4s0.5-0.1,0.8-0.1c0.3,0,0.5,0,0.7,0.1s0.4,0.2,0.6,0.3s0.3,0.3,0.4,0.5
		c0.1,0.2,0.1,0.5,0.1,0.8v3c0,0.1,0,0.2,0,0.3c0,0.1,0,0.2,0,0.3c0,0.1,0,0.2,0,0.3c0,0.1,0,0.2,0.1,0.2v0.1H427z M425.3,296.4
		c0.2,0,0.4,0,0.5-0.1s0.3-0.1,0.4-0.2c0.1-0.1,0.2-0.2,0.3-0.3c0.1-0.1,0.2-0.3,0.2-0.4V294H426c-0.6,0-1,0.1-1.3,0.4
		s-0.4,0.6-0.4,1c0,0.4,0.1,0.7,0.3,0.8C424.7,296.3,425,296.4,425.3,296.4z"/>
	<path d="M430.2,291.1l0,0.9c0.2-0.3,0.4-0.6,0.7-0.8s0.6-0.3,0.9-0.3c0.2,0,0.5,0,0.7,0.1s0.4,0.2,0.5,0.4c0.1,0.2,0.2,0.4,0.3,0.7
		c0.1,0.3,0.1,0.6,0.1,1v3.8h-0.6v-3.8c0-0.3,0-0.5-0.1-0.7s-0.1-0.4-0.2-0.5c-0.1-0.1-0.2-0.2-0.4-0.3s-0.3-0.1-0.5-0.1
		c-0.2,0-0.3,0-0.5,0.1s-0.3,0.2-0.4,0.3c-0.1,0.1-0.2,0.3-0.3,0.4c-0.1,0.2-0.2,0.3-0.2,0.5v4h-0.6v-5.8H430.2z"/>
	<path d="M437.3,296.4c0.2,0,0.3,0,0.5-0.1c0.2,0,0.3-0.1,0.4-0.2s0.2-0.2,0.3-0.4s0.1-0.4,0.1-0.7h0.6c0,0.3-0.1,0.6-0.2,0.8
		c-0.1,0.2-0.2,0.4-0.4,0.6s-0.4,0.3-0.6,0.4c-0.2,0.1-0.5,0.1-0.7,0.1c-0.7,0-1.2-0.2-1.6-0.7s-0.5-1.1-0.5-2v-0.7
		c0-0.9,0.2-1.6,0.5-2s0.9-0.7,1.6-0.7c0.3,0,0.5,0,0.7,0.1s0.4,0.2,0.6,0.4c0.2,0.2,0.3,0.4,0.4,0.6c0.1,0.3,0.2,0.6,0.2,0.9h-0.6
		c0-0.3-0.1-0.5-0.1-0.7s-0.2-0.3-0.3-0.5c-0.1-0.1-0.3-0.2-0.4-0.3c-0.2-0.1-0.3-0.1-0.5-0.1c-0.3,0-0.5,0-0.7,0.1
		c-0.2,0.1-0.3,0.2-0.5,0.4c-0.1,0.2-0.2,0.4-0.3,0.7c-0.1,0.3-0.1,0.6-0.1,0.9v0.7c0,0.3,0,0.6,0.1,0.9c0.1,0.3,0.1,0.5,0.3,0.7
		s0.3,0.3,0.5,0.4S437,296.4,437.3,296.4z"/>
	<path d="M442.9,297c-0.3,0-0.6-0.1-0.9-0.2s-0.5-0.3-0.7-0.5s-0.3-0.5-0.5-0.8s-0.2-0.7-0.2-1.2v-0.7c0-0.5,0.1-0.9,0.2-1.2
		s0.3-0.6,0.5-0.8c0.2-0.2,0.4-0.4,0.7-0.5c0.3-0.1,0.5-0.2,0.8-0.2c0.6,0,1.1,0.2,1.5,0.6s0.5,1.1,0.5,1.9v0.5h-3.5v0.3
		c0,0.4,0,0.7,0.1,0.9s0.2,0.5,0.3,0.6s0.3,0.3,0.5,0.4s0.4,0.1,0.7,0.1c0.3,0,0.6-0.1,0.8-0.2c0.2-0.1,0.4-0.3,0.6-0.5l0.3,0.4
		c-0.1,0.1-0.2,0.2-0.3,0.3c-0.1,0.1-0.2,0.2-0.4,0.2c-0.1,0.1-0.3,0.1-0.5,0.2C443.4,297,443.2,297,442.9,297z M442.8,291.5
		c-0.2,0-0.4,0-0.6,0.1c-0.2,0.1-0.3,0.2-0.5,0.3c-0.1,0.2-0.2,0.4-0.3,0.6c-0.1,0.2-0.1,0.5-0.1,0.9h2.9v-0.2c0-0.3,0-0.5-0.1-0.8
		c-0.1-0.2-0.1-0.4-0.3-0.6s-0.2-0.3-0.4-0.4C443.3,291.6,443.1,291.5,442.8,291.5z"/>
	<path d="M342.2,310.1h-0.6v-3.7h-3.7v3.7h-0.6v-7.8h0.6v3.5h3.7v-3.5h0.6V310.1z"/>
	<path d="M347.6,309.4c-0.2,0.3-0.4,0.4-0.6,0.6s-0.6,0.2-0.9,0.2c-0.2,0-0.5,0-0.7-0.1c-0.2-0.1-0.4-0.2-0.5-0.4
		c-0.1-0.2-0.2-0.4-0.3-0.7s-0.1-0.6-0.1-1v-3.7h0.6v3.7c0,0.3,0,0.6,0.1,0.8c0.1,0.2,0.1,0.4,0.2,0.5c0.1,0.1,0.2,0.2,0.3,0.3
		c0.1,0.1,0.3,0.1,0.4,0.1c0.2,0,0.4,0,0.5-0.1c0.2-0.1,0.3-0.1,0.4-0.2c0.1-0.1,0.2-0.2,0.3-0.3c0.1-0.1,0.1-0.3,0.2-0.4v-4.3h0.6
		v5.8h-0.6L347.6,309.4z"/>
	<path d="M350.9,304.3l0,0.9c0.2-0.3,0.4-0.5,0.6-0.7c0.3-0.2,0.6-0.3,0.9-0.3c0.3,0,0.6,0.1,0.9,0.3c0.3,0.2,0.4,0.4,0.6,0.8
		c0.1-0.2,0.2-0.3,0.3-0.4c0.1-0.1,0.2-0.2,0.4-0.3c0.1-0.1,0.3-0.2,0.5-0.2c0.2-0.1,0.3-0.1,0.5-0.1c0.3,0,0.5,0,0.7,0.1
		c0.2,0.1,0.4,0.2,0.5,0.4s0.2,0.4,0.3,0.7c0.1,0.3,0.1,0.6,0.1,1v3.8h-0.6v-3.8c0-0.3,0-0.6-0.1-0.8c-0.1-0.2-0.1-0.4-0.2-0.5
		c-0.1-0.1-0.2-0.2-0.4-0.2c-0.1,0-0.3-0.1-0.5-0.1c-0.2,0-0.4,0.1-0.6,0.1c-0.2,0.1-0.3,0.2-0.4,0.3s-0.2,0.3-0.3,0.5
		s-0.1,0.3-0.1,0.5v3.9h-0.6v-3.8c0-0.3,0-0.5-0.1-0.7s-0.1-0.3-0.2-0.5c-0.1-0.1-0.2-0.2-0.4-0.3c-0.1,0-0.3-0.1-0.5-0.1
		c-0.2,0-0.4,0-0.5,0.1s-0.3,0.2-0.4,0.3s-0.2,0.3-0.3,0.4s-0.1,0.3-0.2,0.5v4h-0.6v-5.8H350.9z"/>
	<path d="M362.4,310.1c0-0.1-0.1-0.2-0.1-0.4c0-0.1,0-0.3,0-0.4c-0.1,0.1-0.2,0.2-0.3,0.3s-0.2,0.2-0.4,0.3
		c-0.1,0.1-0.3,0.2-0.4,0.2s-0.3,0.1-0.5,0.1c-0.2,0-0.5,0-0.7-0.1c-0.2-0.1-0.4-0.2-0.5-0.3s-0.2-0.3-0.3-0.5
		c-0.1-0.2-0.1-0.4-0.1-0.7c0-0.3,0-0.5,0.1-0.7c0.1-0.2,0.2-0.4,0.4-0.6s0.4-0.3,0.7-0.4c0.3-0.1,0.6-0.1,1-0.1h1v-0.8
		c0-0.4-0.1-0.7-0.3-0.9s-0.5-0.3-0.9-0.3c-0.2,0-0.4,0-0.5,0.1c-0.2,0.1-0.3,0.1-0.4,0.2c-0.1,0.1-0.2,0.2-0.3,0.4
		c-0.1,0.1-0.1,0.3-0.1,0.5l-0.6,0c0-0.2,0-0.4,0.1-0.6s0.2-0.4,0.4-0.5c0.2-0.2,0.4-0.3,0.6-0.4s0.5-0.1,0.8-0.1
		c0.3,0,0.5,0,0.7,0.1s0.4,0.2,0.6,0.3s0.3,0.3,0.4,0.5c0.1,0.2,0.1,0.5,0.1,0.8v3c0,0.1,0,0.2,0,0.3c0,0.1,0,0.2,0,0.3
		c0,0.1,0,0.2,0,0.3c0,0.1,0,0.2,0.1,0.2v0.1H362.4z M360.7,309.6c0.2,0,0.4,0,0.5-0.1s0.3-0.1,0.4-0.2c0.1-0.1,0.2-0.2,0.3-0.3
		c0.1-0.1,0.2-0.3,0.2-0.4v-1.4h-0.9c-0.6,0-1,0.1-1.3,0.4s-0.4,0.6-0.4,1c0,0.4,0.1,0.7,0.3,0.8
		C360.1,309.5,360.4,309.6,360.7,309.6z"/>
	<path d="M365.6,304.3l0,0.9c0.2-0.3,0.4-0.6,0.7-0.8s0.6-0.3,0.9-0.3c0.2,0,0.5,0,0.7,0.1s0.4,0.2,0.5,0.4c0.1,0.2,0.2,0.4,0.3,0.7
		c0.1,0.3,0.1,0.6,0.1,1v3.8h-0.6v-3.8c0-0.3,0-0.5-0.1-0.7s-0.1-0.4-0.2-0.5c-0.1-0.1-0.2-0.2-0.4-0.3s-0.3-0.1-0.5-0.1
		c-0.2,0-0.3,0-0.5,0.1s-0.3,0.2-0.4,0.3c-0.1,0.1-0.2,0.3-0.3,0.4c-0.1,0.2-0.2,0.3-0.2,0.5v4H365v-5.8H365.6z"/>
	<path d="M372.6,306.9h-2.2v-0.6h2.2V306.9z"/>
	<path d="M379.1,307.7c-0.1,0.9-0.3,1.5-0.7,1.9c-0.4,0.4-1,0.6-1.7,0.6c-0.4,0-0.7-0.1-1-0.2c-0.3-0.1-0.6-0.4-0.8-0.6
		c-0.2-0.3-0.4-0.6-0.5-1s-0.2-0.8-0.2-1.3v-1.7c0-0.5,0.1-0.9,0.2-1.3c0.1-0.4,0.3-0.7,0.5-1s0.5-0.5,0.8-0.6
		c0.3-0.1,0.7-0.2,1-0.2c0.4,0,0.7,0,1,0.2s0.5,0.3,0.7,0.5s0.4,0.5,0.5,0.8s0.2,0.7,0.2,1.1h-0.6c0-0.4-0.1-0.7-0.2-0.9
		s-0.2-0.5-0.3-0.6c-0.1-0.2-0.3-0.3-0.5-0.3s-0.4-0.1-0.7-0.1c-0.3,0-0.6,0.1-0.8,0.2c-0.2,0.1-0.4,0.3-0.6,0.5s-0.3,0.5-0.4,0.8
		c-0.1,0.3-0.1,0.7-0.1,1.1v1.7c0,0.4,0,0.8,0.1,1.1s0.2,0.6,0.3,0.8s0.3,0.4,0.6,0.5c0.2,0.1,0.5,0.2,0.8,0.2c0.3,0,0.5,0,0.8-0.1
		s0.4-0.2,0.5-0.3c0.1-0.2,0.3-0.4,0.3-0.6c0.1-0.3,0.1-0.6,0.2-0.9H379.1z"/>
	<path d="M380.8,306.9c0-0.4,0.1-0.8,0.2-1.2c0.1-0.3,0.2-0.6,0.4-0.9c0.2-0.2,0.4-0.4,0.7-0.5c0.3-0.1,0.5-0.2,0.9-0.2
		c0.3,0,0.6,0.1,0.9,0.2c0.3,0.1,0.5,0.3,0.7,0.5c0.2,0.2,0.3,0.5,0.4,0.9c0.1,0.3,0.2,0.7,0.2,1.2v0.6c0,0.4-0.1,0.8-0.2,1.2
		c-0.1,0.3-0.2,0.6-0.4,0.8s-0.4,0.4-0.7,0.5c-0.3,0.1-0.5,0.2-0.9,0.2c-0.3,0-0.6-0.1-0.9-0.2c-0.3-0.1-0.5-0.3-0.7-0.5
		s-0.3-0.5-0.4-0.8c-0.1-0.3-0.2-0.7-0.2-1.2V306.9z M381.4,307.5c0,0.3,0,0.6,0.1,0.9c0.1,0.3,0.2,0.5,0.3,0.7
		c0.1,0.2,0.3,0.3,0.5,0.4c0.2,0.1,0.4,0.2,0.6,0.2c0.3,0,0.5-0.1,0.7-0.2c0.2-0.1,0.3-0.2,0.5-0.4c0.1-0.2,0.2-0.4,0.3-0.7
		c0.1-0.3,0.1-0.6,0.1-0.9v-0.6c0-0.3,0-0.6-0.1-0.9c-0.1-0.3-0.2-0.5-0.3-0.7c-0.1-0.2-0.3-0.3-0.5-0.4c-0.2-0.1-0.4-0.2-0.6-0.2
		c-0.2,0-0.5,0.1-0.6,0.2c-0.2,0.1-0.3,0.2-0.5,0.4c-0.1,0.2-0.2,0.4-0.3,0.7c-0.1,0.3-0.1,0.6-0.1,0.9V307.5z"/>
	<path d="M387.5,304.3l0,0.9c0.2-0.3,0.4-0.5,0.6-0.7c0.3-0.2,0.6-0.3,0.9-0.3c0.3,0,0.6,0.1,0.9,0.3c0.3,0.2,0.4,0.4,0.6,0.8
		c0.1-0.2,0.2-0.3,0.3-0.4c0.1-0.1,0.2-0.2,0.4-0.3c0.1-0.1,0.3-0.2,0.5-0.2c0.2-0.1,0.3-0.1,0.5-0.1c0.3,0,0.5,0,0.7,0.1
		c0.2,0.1,0.4,0.2,0.5,0.4s0.2,0.4,0.3,0.7c0.1,0.3,0.1,0.6,0.1,1v3.8h-0.6v-3.8c0-0.3,0-0.6-0.1-0.8c-0.1-0.2-0.1-0.4-0.2-0.5
		c-0.1-0.1-0.2-0.2-0.4-0.2c-0.1,0-0.3-0.1-0.5-0.1c-0.2,0-0.4,0.1-0.6,0.1c-0.2,0.1-0.3,0.2-0.4,0.3s-0.2,0.3-0.3,0.5
		s-0.1,0.3-0.1,0.5v3.9h-0.6v-3.8c0-0.3,0-0.5-0.1-0.7s-0.1-0.3-0.2-0.5c-0.1-0.1-0.2-0.2-0.4-0.3c-0.1,0-0.3-0.1-0.5-0.1
		c-0.2,0-0.4,0-0.5,0.1s-0.3,0.2-0.4,0.3s-0.2,0.3-0.3,0.4s-0.1,0.3-0.2,0.5v4h-0.6v-5.8H387.5z"/>
	<path d="M399.9,307.5c0,0.5,0,0.9-0.1,1.2s-0.2,0.6-0.4,0.9c-0.2,0.2-0.4,0.4-0.6,0.5s-0.5,0.2-0.8,0.2c-0.4,0-0.7-0.1-0.9-0.2
		s-0.5-0.3-0.6-0.6v2.9h-0.6v-8h0.5l0,0.8c0.2-0.3,0.4-0.5,0.6-0.7c0.2-0.2,0.5-0.2,0.9-0.2c0.3,0,0.6,0.1,0.8,0.2
		c0.2,0.1,0.4,0.3,0.6,0.5c0.2,0.2,0.3,0.5,0.4,0.9c0.1,0.3,0.1,0.8,0.1,1.2V307.5z M399.3,306.9c0-0.7-0.1-1.3-0.3-1.6
		c-0.2-0.4-0.6-0.5-1.1-0.5c-0.2,0-0.3,0-0.5,0.1c-0.1,0.1-0.3,0.1-0.4,0.2c-0.1,0.1-0.2,0.2-0.3,0.3s-0.1,0.2-0.2,0.4v3.1
		c0.1,0.1,0.1,0.2,0.2,0.3s0.2,0.2,0.3,0.3c0.1,0.1,0.2,0.1,0.4,0.2s0.3,0.1,0.5,0.1c0.5,0,0.8-0.2,1.1-0.5c0.2-0.4,0.3-0.9,0.3-1.7
		V306.9z"/>
	<path d="M404.9,309.4c-0.2,0.3-0.4,0.4-0.6,0.6s-0.6,0.2-0.9,0.2c-0.2,0-0.5,0-0.7-0.1c-0.2-0.1-0.4-0.2-0.5-0.4
		c-0.1-0.2-0.2-0.4-0.3-0.7s-0.1-0.6-0.1-1v-3.7h0.6v3.7c0,0.3,0,0.6,0.1,0.8c0.1,0.2,0.1,0.4,0.2,0.5c0.1,0.1,0.2,0.2,0.3,0.3
		c0.1,0.1,0.3,0.1,0.4,0.1c0.2,0,0.4,0,0.5-0.1c0.2-0.1,0.3-0.1,0.4-0.2c0.1-0.1,0.2-0.2,0.3-0.3c0.1-0.1,0.1-0.3,0.2-0.4v-4.3h0.6
		v5.8h-0.6L404.9,309.4z"/>
	<path d="M408.5,302.8v1.5h1v0.5h-1v3.9c0,0.2,0,0.4,0.1,0.5c0,0.1,0.1,0.2,0.1,0.3c0.1,0.1,0.1,0.1,0.2,0.1s0.2,0,0.2,0
		c0.1,0,0.2,0,0.2,0c0.1,0,0.1,0,0.2,0l0,0.5c-0.1,0-0.2,0.1-0.3,0.1c-0.1,0-0.2,0-0.3,0c-0.2,0-0.3,0-0.4-0.1s-0.2-0.1-0.3-0.3
		c-0.1-0.1-0.2-0.3-0.2-0.5c-0.1-0.2-0.1-0.4-0.1-0.7v-3.9h-0.9v-0.5h0.9v-1.5H408.5z"/>
	<path d="M413.3,310.2c-0.3,0-0.6-0.1-0.9-0.2s-0.5-0.3-0.7-0.5s-0.3-0.5-0.5-0.8s-0.2-0.7-0.2-1.2v-0.7c0-0.5,0.1-0.9,0.2-1.2
		s0.3-0.6,0.5-0.8c0.2-0.2,0.4-0.4,0.7-0.5c0.3-0.1,0.5-0.2,0.8-0.2c0.6,0,1.1,0.2,1.5,0.6s0.5,1.1,0.5,1.9v0.5h-3.5v0.3
		c0,0.4,0,0.7,0.1,0.9s0.2,0.5,0.3,0.6s0.3,0.3,0.5,0.4s0.4,0.1,0.7,0.1c0.3,0,0.6-0.1,0.8-0.2c0.2-0.1,0.4-0.3,0.6-0.5l0.3,0.4
		c-0.1,0.1-0.2,0.2-0.3,0.3c-0.1,0.1-0.2,0.2-0.4,0.2c-0.1,0.1-0.3,0.1-0.5,0.2C413.7,310.2,413.5,310.2,413.3,310.2z M413.2,304.7
		c-0.2,0-0.4,0-0.6,0.1c-0.2,0.1-0.3,0.2-0.5,0.3c-0.1,0.2-0.2,0.4-0.3,0.6c-0.1,0.2-0.1,0.5-0.1,0.9h2.9v-0.2c0-0.3,0-0.5-0.1-0.8
		c-0.1-0.2-0.1-0.4-0.3-0.6s-0.2-0.3-0.4-0.4C413.6,304.8,413.4,304.7,413.2,304.7z"/>
	<path d="M419.2,304.8c-0.1,0-0.1,0-0.2,0c-0.1,0-0.1,0-0.2,0c-0.2,0-0.3,0-0.5,0.1s-0.3,0.2-0.4,0.3c-0.1,0.1-0.2,0.2-0.3,0.4
		c-0.1,0.2-0.1,0.3-0.2,0.5v4H417v-5.8h0.6l0,0.9c0.1-0.3,0.3-0.5,0.5-0.7c0.2-0.2,0.5-0.3,0.8-0.3c0.1,0,0.1,0,0.2,0
		c0.1,0,0.1,0,0.2,0L419.2,304.8z"/>
	<path d="M424.7,310.1h-0.6v-7.8h0.6V310.1z"/>
	<path d="M427.7,304.3l0,0.9c0.2-0.3,0.4-0.6,0.7-0.8s0.6-0.3,0.9-0.3c0.2,0,0.5,0,0.7,0.1s0.4,0.2,0.5,0.4c0.1,0.2,0.2,0.4,0.3,0.7
		c0.1,0.3,0.1,0.6,0.1,1v3.8h-0.6v-3.8c0-0.3,0-0.5-0.1-0.7s-0.1-0.4-0.2-0.5c-0.1-0.1-0.2-0.2-0.4-0.3s-0.3-0.1-0.5-0.1
		c-0.2,0-0.3,0-0.5,0.1s-0.3,0.2-0.4,0.3c-0.1,0.1-0.2,0.3-0.3,0.4c-0.1,0.2-0.2,0.3-0.2,0.5v4h-0.6v-5.8H427.7z"/>
	<path d="M433.8,302.8v1.5h1v0.5h-1v3.9c0,0.2,0,0.4,0.1,0.5c0,0.1,0.1,0.2,0.1,0.3c0.1,0.1,0.1,0.1,0.2,0.1s0.2,0,0.2,0
		c0.1,0,0.2,0,0.2,0c0.1,0,0.1,0,0.2,0l0,0.5c-0.1,0-0.2,0.1-0.3,0.1c-0.1,0-0.2,0-0.3,0c-0.2,0-0.3,0-0.4-0.1s-0.2-0.1-0.3-0.3
		c-0.1-0.1-0.2-0.3-0.2-0.5c-0.1-0.2-0.1-0.4-0.1-0.7v-3.9h-0.9v-0.5h0.9v-1.5H433.8z"/>
	<path d="M438.6,310.2c-0.3,0-0.6-0.1-0.9-0.2s-0.5-0.3-0.7-0.5s-0.3-0.5-0.5-0.8s-0.2-0.7-0.2-1.2v-0.7c0-0.5,0.1-0.9,0.2-1.2
		s0.3-0.6,0.5-0.8c0.2-0.2,0.4-0.4,0.7-0.5c0.3-0.1,0.5-0.2,0.8-0.2c0.6,0,1.1,0.2,1.5,0.6s0.5,1.1,0.5,1.9v0.5H437v0.3
		c0,0.4,0,0.7,0.1,0.9s0.2,0.5,0.3,0.6s0.3,0.3,0.5,0.4s0.4,0.1,0.7,0.1c0.3,0,0.6-0.1,0.8-0.2c0.2-0.1,0.4-0.3,0.6-0.5l0.3,0.4
		c-0.1,0.1-0.2,0.2-0.3,0.3c-0.1,0.1-0.2,0.2-0.4,0.2c-0.1,0.1-0.3,0.1-0.5,0.2C439,310.2,438.8,310.2,438.6,310.2z M438.5,304.7
		c-0.2,0-0.4,0-0.6,0.1c-0.2,0.1-0.3,0.2-0.5,0.3c-0.1,0.2-0.2,0.4-0.3,0.6c-0.1,0.2-0.1,0.5-0.1,0.9h2.9v-0.2c0-0.3,0-0.5-0.1-0.8
		c-0.1-0.2-0.1-0.4-0.3-0.6s-0.2-0.3-0.4-0.4C438.9,304.8,438.7,304.7,438.5,304.7z"/>
	<path d="M444.5,304.8c-0.1,0-0.1,0-0.2,0c-0.1,0-0.1,0-0.2,0c-0.2,0-0.3,0-0.5,0.1s-0.3,0.2-0.4,0.3c-0.1,0.1-0.2,0.2-0.3,0.4
		c-0.1,0.2-0.1,0.3-0.2,0.5v4h-0.6v-5.8h0.6l0,0.9c0.1-0.3,0.3-0.5,0.5-0.7c0.2-0.2,0.5-0.3,0.8-0.3c0.1,0,0.1,0,0.2,0
		c0.1,0,0.1,0,0.2,0L444.5,304.8z"/>
	<path d="M449,310.1c0-0.1-0.1-0.2-0.1-0.4c0-0.1,0-0.3,0-0.4c-0.1,0.1-0.2,0.2-0.3,0.3s-0.2,0.2-0.4,0.3c-0.1,0.1-0.3,0.2-0.4,0.2
		s-0.3,0.1-0.5,0.1c-0.2,0-0.5,0-0.7-0.1c-0.2-0.1-0.4-0.2-0.5-0.3s-0.2-0.3-0.3-0.5c-0.1-0.2-0.1-0.4-0.1-0.7c0-0.3,0-0.5,0.1-0.7
		c0.1-0.2,0.2-0.4,0.4-0.6s0.4-0.3,0.7-0.4c0.3-0.1,0.6-0.1,1-0.1h1v-0.8c0-0.4-0.1-0.7-0.3-0.9s-0.5-0.3-0.9-0.3
		c-0.2,0-0.4,0-0.5,0.1c-0.2,0.1-0.3,0.1-0.4,0.2c-0.1,0.1-0.2,0.2-0.3,0.4c-0.1,0.1-0.1,0.3-0.1,0.5l-0.6,0c0-0.2,0-0.4,0.1-0.6
		s0.2-0.4,0.4-0.5c0.2-0.2,0.4-0.3,0.6-0.4s0.5-0.1,0.8-0.1c0.3,0,0.5,0,0.7,0.1s0.4,0.2,0.6,0.3s0.3,0.3,0.4,0.5
		c0.1,0.2,0.1,0.5,0.1,0.8v3c0,0.1,0,0.2,0,0.3c0,0.1,0,0.2,0,0.3c0,0.1,0,0.2,0,0.3c0,0.1,0,0.2,0.1,0.2v0.1H449z M447.4,309.6
		c0.2,0,0.4,0,0.5-0.1s0.3-0.1,0.4-0.2c0.1-0.1,0.2-0.2,0.3-0.3c0.1-0.1,0.2-0.3,0.2-0.4v-1.4H448c-0.6,0-1,0.1-1.3,0.4
		s-0.4,0.6-0.4,1c0,0.4,0.1,0.7,0.3,0.8C446.8,309.5,447,309.6,447.4,309.6z"/>
	<path d="M453.5,309.6c0.2,0,0.3,0,0.5-0.1c0.2,0,0.3-0.1,0.4-0.2s0.2-0.2,0.3-0.4s0.1-0.4,0.1-0.7h0.6c0,0.3-0.1,0.6-0.2,0.8
		c-0.1,0.2-0.2,0.4-0.4,0.6s-0.4,0.3-0.6,0.4c-0.2,0.1-0.5,0.1-0.7,0.1c-0.7,0-1.2-0.2-1.6-0.7s-0.5-1.1-0.5-2v-0.7
		c0-0.9,0.2-1.6,0.5-2s0.9-0.7,1.6-0.7c0.3,0,0.5,0,0.7,0.1s0.4,0.2,0.6,0.4c0.2,0.2,0.3,0.4,0.4,0.6c0.1,0.3,0.2,0.6,0.2,0.9h-0.6
		c0-0.3-0.1-0.5-0.1-0.7s-0.2-0.3-0.3-0.5c-0.1-0.1-0.3-0.2-0.4-0.3c-0.2-0.1-0.3-0.1-0.5-0.1c-0.3,0-0.5,0-0.7,0.1
		c-0.2,0.1-0.3,0.2-0.5,0.4c-0.1,0.2-0.2,0.4-0.3,0.7c-0.1,0.3-0.1,0.6-0.1,0.9v0.7c0,0.3,0,0.6,0.1,0.9c0.1,0.3,0.1,0.5,0.3,0.7
		s0.3,0.3,0.5,0.4S453.2,309.6,453.5,309.6z"/>
	<path d="M458.1,302.8v1.5h1v0.5h-1v3.9c0,0.2,0,0.4,0.1,0.5c0,0.1,0.1,0.2,0.1,0.3c0.1,0.1,0.1,0.1,0.2,0.1s0.2,0,0.2,0
		c0.1,0,0.2,0,0.2,0c0.1,0,0.1,0,0.2,0l0,0.5c-0.1,0-0.2,0.1-0.3,0.1c-0.1,0-0.2,0-0.3,0c-0.2,0-0.3,0-0.4-0.1s-0.2-0.1-0.3-0.3
		c-0.1-0.1-0.2-0.3-0.2-0.5c-0.1-0.2-0.1-0.4-0.1-0.7v-3.9h-0.9v-0.5h0.9v-1.5H458.1z"/>
	<path d="M460.9,302.6c0-0.1,0-0.2,0.1-0.3c0.1-0.1,0.2-0.1,0.3-0.1c0.1,0,0.2,0,0.3,0.1c0.1,0.1,0.1,0.2,0.1,0.3s0,0.2-0.1,0.3
		c-0.1,0.1-0.2,0.1-0.3,0.1c-0.1,0-0.2,0-0.3-0.1C461,302.8,460.9,302.7,460.9,302.6z M461.6,310.1H461v-5.8h0.6V310.1z"/>
	<path d="M463.6,306.9c0-0.4,0.1-0.8,0.2-1.2c0.1-0.3,0.2-0.6,0.4-0.9c0.2-0.2,0.4-0.4,0.7-0.5c0.3-0.1,0.5-0.2,0.9-0.2
		c0.3,0,0.6,0.1,0.9,0.2c0.3,0.1,0.5,0.3,0.7,0.5c0.2,0.2,0.3,0.5,0.4,0.9c0.1,0.3,0.2,0.7,0.2,1.2v0.6c0,0.4-0.1,0.8-0.2,1.2
		c-0.1,0.3-0.2,0.6-0.4,0.8s-0.4,0.4-0.7,0.5c-0.3,0.1-0.5,0.2-0.9,0.2c-0.3,0-0.6-0.1-0.9-0.2c-0.3-0.1-0.5-0.3-0.7-0.5
		s-0.3-0.5-0.4-0.8c-0.1-0.3-0.2-0.7-0.2-1.2V306.9z M464.2,307.5c0,0.3,0,0.6,0.1,0.9c0.1,0.3,0.2,0.5,0.3,0.7
		c0.1,0.2,0.3,0.3,0.5,0.4c0.2,0.1,0.4,0.2,0.6,0.2c0.3,0,0.5-0.1,0.7-0.2c0.2-0.1,0.3-0.2,0.5-0.4c0.1-0.2,0.2-0.4,0.3-0.7
		c0.1-0.3,0.1-0.6,0.1-0.9v-0.6c0-0.3,0-0.6-0.1-0.9c-0.1-0.3-0.2-0.5-0.3-0.7c-0.1-0.2-0.3-0.3-0.5-0.4c-0.2-0.1-0.4-0.2-0.6-0.2
		c-0.2,0-0.5,0.1-0.6,0.2c-0.2,0.1-0.3,0.2-0.5,0.4c-0.1,0.2-0.2,0.4-0.3,0.7c-0.1,0.3-0.1,0.6-0.1,0.9V307.5z"/>
	<path d="M470.3,304.3l0,0.9c0.2-0.3,0.4-0.6,0.7-0.8s0.6-0.3,0.9-0.3c0.2,0,0.5,0,0.7,0.1s0.4,0.2,0.5,0.4c0.1,0.2,0.2,0.4,0.3,0.7
		c0.1,0.3,0.1,0.6,0.1,1v3.8h-0.6v-3.8c0-0.3,0-0.5-0.1-0.7s-0.1-0.4-0.2-0.5c-0.1-0.1-0.2-0.2-0.4-0.3s-0.3-0.1-0.5-0.1
		c-0.2,0-0.3,0-0.5,0.1s-0.3,0.2-0.4,0.3c-0.1,0.1-0.2,0.3-0.3,0.4c-0.1,0.2-0.2,0.3-0.2,0.5v4h-0.6v-5.8H470.3z"/>
</g>
<path class="st0" d="M305.6,150c2.3-0.1,3.2-1,3.2-3.3c0-7.7,0-15.5,0-23.2c0-0.2,0-0.3-0.1-0.6c-1,0-1.9,0-3,0c0-0.3,0-0.5,0-0.8
	c0.3,0,0.5-0.1,0.6-0.1c3.1,0,6.1,0,9.2,0c0.5,0,0.7,0.2,0.8,0.6c1.6,4.8,3.3,9.7,5,14.5c0.5,1.4,1,2.9,1.6,4.5
	c0.5-1.3,0.9-2.5,1.3-3.6c1.8-5.1,3.6-10.2,5.3-15.3c0.2-0.6,0.5-0.8,1.1-0.8c2.7,0,5.4,0,8.1,0c0.3,0,0.5,0,0.8,0
	c0.2,0.6,0.1,0.9-0.5,0.8c-0.7,0-1.5,0-2.3,0c0,0.3,0,0.6,0,0.8c0,8.5,0,17,0,25.4c0,0.7,0.2,0.9,0.9,0.9c0.7-0.1,1.3,0,2.1,0
	c0,0.2,0,0.4,0,0.7c-4.3,0-8.6,0-12.9,0c-0.1-0.5-0.1-0.7,0.5-0.7c0.8,0,1.6,0,2.4,0c0.4,0,0.6-0.1,0.6-0.6c0-8.5,0-16.9,0-25.4
	c0,0,0,0-0.1-0.2c-0.4,1.1-0.8,2.1-1.1,3.2c-2.7,7.7-5.3,15.3-8,23c-0.1,0.4-0.2,0.7-0.8,0.7c-0.6,0-0.8-0.2-0.9-0.7
	c-3-8.7-6.1-17.3-9.1-26c0-0.1-0.1-0.3-0.2-0.6c0,0.4-0.1,0.6-0.1,0.8c0,7.4,0,14.8,0,22.2c0,0.6,0.1,1.2,0.2,1.7
	c0.2,1.1,0.9,1.6,2,1.7c0.5,0,0.9,0.1,1.4,0.2c0.1,0.6-0.2,0.7-0.7,0.7c-2.4,0-4.8,0-7.2,0C305.6,150.5,305.6,150.2,305.6,150z"/>
<path class="st0" d="M305.6,157.1c3.9,0,7.8,0,11.7,0c0.3,0,0.7,0,1.1,0c0.2,0.5,0.1,0.8-0.5,0.8c-0.9,0-1.7,0-2.7,0
	c0,0.3,0,0.6,0,0.9c0,6,0,11.9,0,17.9c0,1.6,0.2,3.2,0.9,4.8c0.6,1.5,1.7,2.6,3.2,3.1c2.8,0.9,5.4,0.7,7.7-1.2
	c1.4-1.2,2.1-2.7,2.4-4.5c0.1-0.8,0.2-1.6,0.2-2.4c0-4.9,0-9.9,0-14.8c0-0.4,0-0.8,0-1.1c-0.1-1.6-0.9-2.4-2.6-2.5
	c-0.3,0-0.5,0-0.8,0c-0.5,0-0.7-0.2-0.5-0.7c2.6,0,5.3,0,7.9,0c0.2,0.7,0.2,0.7-0.5,0.7c-1.7,0.1-2.2,0.5-2.5,2.2
	c-0.1,0.4-0.1,0.9-0.1,1.3c0,5.2,0,10.3,0,15.5c0,1.7-0.3,3.3-1.1,4.9c-0.9,1.8-2.3,3.1-4.2,3.7c-3.5,1.3-7.1,1.4-10.7,0
	c-3.5-1.4-5.4-4.1-5.7-7.8c-0.2-1.9-0.1-3.8-0.1-5.7c0-4.4,0-8.7,0-13.1c0-0.3,0-0.6,0-1c-1.1,0-2.2,0-3.2,0
	C305.6,157.6,305.6,157.3,305.6,157.1z"/>
<path class="st0" d="M457.1,182.8c0,0.2,0.2,0.5,0.1,0.7c-1.6,3-6.3,3.8-8.6,1.3c-0.7-0.7-1.1-1.6-1.1-2.6c0-4.2,0-8.4-0.1-12.6
	c0-0.3,0-0.6,0-1c-0.6,0-1.2,0-1.7,0c-0.1,0-0.4-0.3-0.4-0.4c0-0.1,0.2-0.4,0.4-0.4c3.4-0.4,5.1-2.7,6.2-5.7
	c0.3-0.8,0.3-1.7,0.5-2.5c0-0.2,0.2-0.4,0.4-0.5c0.1,0.2,0.4,0.4,0.4,0.6c0,2.3,0,4.7,0,7c0,0.3,0,0.7,0,1.1c4.7,0,9.3,0,14,0
	c0,0.3,0,0.5,0.1,0.8c-0.9,0-1.7,0-2.6,0c1.6,3.6,3.1,7,4.7,10.6c0.2-0.4,0.3-0.7,0.5-1c0.9-2.2,1.9-4.4,2.7-6.7
	c0.8-2.1,0.2-2.8-2-2.8c-0.1,0-0.2,0-0.3,0c0-0.1-0.1-0.3-0.1-0.4c0-0.1,0-0.2,0.1-0.4c2.1,0,4.1,0,6.2,0c0,0.3,0,0.5,0,0.7
	c-1.5,0.1-2,1.3-2.5,2.4c-2.2,4.9-4.3,9.9-6.3,14.9c-0.7,1.8-0.9,3.8-1.4,5.7c-0.3,1.3-0.7,2.6-1.6,3.6c-1.3,1.4-3.7,1.6-5.2,0.3
	c-0.9-0.8-1.1-2.1-0.6-3.3c0.4-1,1.4-1.6,2.6-1.5c1.4,0.1,2.3,0.7,2.5,1.8c0.1,0.6,0,1.3,0,2.1c0.3-0.5,0.7-0.8,0.8-1.1
	c0.5-1.8,1-3.7,1.4-5.5c0.2-0.8,0-1.6-0.3-2.4c-2.4-5.4-4.7-10.8-7-16.3c-0.2-0.5-0.4-0.6-0.9-0.6c-1.5,0-3,0-4.5,0
	c-0.1,0.1-0.1,0.2-0.1,0.3c0,4.6,0,9.3,0.1,13.9c0,1,0.6,1.6,1.4,1.6c0.7,0,1.2-0.4,1.6-0.9c0.2-0.2,0.4-0.5,0.6-0.8
	C456.9,182.8,457,182.8,457.1,182.8z"/>
<path class="st0" d="M415.7,107.4c-1.6-0.8-2.7-2-3.1-3.7c-0.5-2.3,0.4-4.6,2.4-5.9c3.1-2,6.4-1.8,9.6,0c0.2-0.2,0.5-0.5,0.8-0.7
	c1.2-1,2.7-1.2,4-0.5c1.1,0.6,1.4,1.9,0.7,3c-0.6,0.9-2,1.1-2.9,0.5c-0.9-0.7-1-2.1-0.2-3c0-0.1,0.1-0.1,0.2-0.3
	c-1,0.2-1.6,0.9-2.1,1.7c1,1.1,1.6,2.3,1.6,3.8c0.1,2.7-1.5,4.9-4.3,5.8c-1.7,0.5-3.3,0.6-5,0.1c-1.4-0.4-2.7,0-3.7,1.1
	c-0.3,0.3-0.5,0.8-0.4,1.1c0.2,0.4,0.7,0.7,1.1,0.8c1.8,0.1,3.7,0.1,5.5,0.1c1.2,0,2.5,0,3.7,0.1c2.6,0.1,4.2,1.4,4.6,4
	c0.7,3.9-0.9,7.6-4.3,9.3c-3.7,1.8-7.5,1.7-10.9-0.6c-3.1-2.1-2.7-5.8,0.7-7.4c0.2-0.1,0.3-0.1,0.6-0.3c-2.3-1-2.7-3-2.4-5.1
	C412,109.4,413,108.5,415.7,107.4z M413.4,120.3c0,1,0.3,1.9,1,2.6c1.6,1.9,3.7,2.4,6.1,2c2.7-0.5,5-1.6,6.1-4.3
	c0.8-2,0.2-3.9-2.5-4c-2.8-0.1-5.7-0.1-8.5-0.1c-0.2,0-0.6,0.1-0.7,0.3C414,117.7,413.5,118.9,413.4,120.3z M422.2,102.8
	c-0.1-1.5-0.2-2.7-0.4-3.8c-0.2-1.2-0.8-1.7-2.1-1.7c-1.1,0-1.9,0.5-2.2,1.6c-0.6,2-0.4,4.1-0.2,6.1c0,0.6,0.2,1.1,0.4,1.7
	c0.4,1,1.3,1.1,2.2,1c0.8,0,1.5-0.3,1.7-1.1C421.9,105.2,422.1,103.8,422.2,102.8z"/>
<path class="st0" d="M378.1,114.2c0.8,0,1.5,0,2.3,0c0,0.3,0,0.5,0,0.8c-0.2,0-0.5,0-0.7,0c-3.1,0-6.3,0-9.4,0
	c-0.6,0-0.9-0.1-0.6-0.8c0.8,0,1.7,0,2.6,0c0-5.5,0-10.9,0-16.4c-0.7,0-1.4,0-2.1,0c-0.5,0-0.7-0.2-0.5-0.7c2.7-0.3,5.6,0.5,8.3-1
	c0,1.3,0,2.6,0,3.9c0.9-1.3,2.1-2.3,3.5-2.9c1.8-0.7,3.7-0.8,5.6-0.2c2,0.6,2.9,2.2,3,4.1c0.2,1.8,0.1,3.6,0.2,5.4
	c0,2.6,0,5.1,0,7.8c0.8,0,1.5,0,2.3,0c0.2,0,0.4,0.3,0.6,0.4c-0.2,0.1-0.4,0.4-0.5,0.4c-3.2,0-6.5,0-9.7,0c-0.6,0-0.6-0.3-0.5-0.8
	c0.7,0,1.4,0,2.2,0c0-0.3,0-0.6,0-0.8c0-4,0-8.1,0-12.1c0-0.5-0.1-1.1-0.2-1.6c-0.4-1.4-1.8-2-3.2-1.3c-2,0.9-3.1,2.6-3.2,4.7
	c-0.1,3.6,0,7.3,0,10.9C378.1,113.9,378.1,114,378.1,114.2z"/>
<path class="st0" d="M329.2,95.8c-0.7,0.3-0.8,0-0.9-0.5c-0.7-3-2.1-5.6-4.5-7.6c-1.4-1.2-3.1-1.9-5-1.6c-1.9,0.2-3.1,1.3-3.9,2.9
	c-1,1.9-1.4,3.9-1.6,6c-0.4,3.3-0.5,6.6-0.1,9.9c0.2,2,0.6,4.1,1.2,6c1.4,4.3,5.3,4.7,8.5,3.1c3.4-1.7,5.1-4.7,5.7-8.4
	c0.1-0.4,0-1,0.8-0.8c0,0.2,0,0.4,0,0.6c0,2.9,0,5.8,0,8.7c0,0.3-0.2,0.5-0.3,0.8c-0.2-0.2-0.5-0.3-0.6-0.5
	c-0.6-1.2-1.3-1.4-2.6-0.7c-2.1,1.2-4.3,1.9-6.7,1.9c-4.9,0-8.6-2.2-11-6.4c-3-5.2-2.9-10.6-0.4-16c1.4-2.9,3.4-5.3,6.3-6.7
	c2.7-1.4,5.5-1.7,8.4-0.7c1.1,0.4,2.1,0.8,3.2,1.2c0.4,0.1,0.8,0.2,1.2,0.3c0.6,0.1,1.2-0.1,1.4-0.8c0.1-0.2,0.3-0.3,0.5-0.4
	c0.1,0,0.3,0.2,0.3,0.4C329.3,89.6,329.2,92.7,329.2,95.8z"/>
<path class="st0" d="M345,185.8c-0.3-0.8,0.2-0.8,0.7-0.8c0.4,0,0.9,0,1.4,0c0-0.3,0-0.6,0-0.9c0-4,0-8,0-12c0-0.5,0-1-0.1-1.4
	c-0.4-1.6-1.7-2.2-3.2-1.6c-2.1,0.9-3.2,2.7-3.3,4.9c-0.1,3.6,0,7.1,0,10.7c0,0.1,0,0.1,0.1,0.3c0.7,0,1.5,0,2.2,0
	c0,0.3,0,0.5,0,0.8c-3.6,0-7.2,0-10.8,0c0-0.2,0-0.5,0-0.8c0.9,0,1.8,0,2.7,0c0-5.5,0-10.9,0-16.4c-0.9,0-1.8,0-2.7,0
	c0-0.3,0-0.5,0-0.8c2.8-0.3,5.6,0.5,8.4-0.9c0,1.3,0,2.6,0,4.1c0.3-0.3,0.4-0.4,0.5-0.6c1.9-2.7,6.1-3.9,9.1-2.5
	c2,0.9,2.6,2.7,2.7,4.7c0.1,3.8,0.1,7.6,0.1,11.4c0,0.3,0,0.6,0,1c0.7,0,1.4,0,2.1,0c0.7,0,0.7,0,0.6,0.8
	C352.1,185.8,348.6,185.8,345,185.8z"/>
<path class="st0" d="M401.5,133.6c-0.9,0-1.8,0-2.7,0c0-0.3,0-0.5,0-0.7c2.8-0.2,5.6,0.3,8.4-1c0,1.3,0,2.6,0,3.9
	c0.7-0.7,1.2-1.4,1.8-1.9c2.3-1.8,4.8-2,7.5-1.2c1.8,0.6,2.6,2.1,2.9,4c0.1,0.7,0.2,1.4,0.2,2.2c0,3.3,0,6.6,0,9.9
	c0,0.3,0,0.7,0,1.1c0.9,0,1.8,0,2.7,0c0,0.3,0.1,0.5,0.1,0.8c-1.2,0-2.4,0-3.6,0c-2.2,0-4.4,0-6.6,0c-0.5,0-0.8-0.1-0.5-0.7
	c0.7,0,1.4,0,2.2,0c0-0.4,0-0.7,0-1c0-3.9,0-7.8,0-11.7c0-0.5,0-1-0.1-1.5c-0.4-1.8-1.8-2.5-3.5-1.7c-1.8,1-3,2.6-3,4.6
	c-0.1,3.6,0,7.2,0,10.8c0,0.1,0,0.2,0,0.4c0.8,0,1.5,0,2.3,0c0,0.3,0,0.5,0.1,0.7c-3.6,0-7.2,0-10.7,0c-0.1-0.7-0.1-0.7,0.4-0.7
	c0.7,0,1.4,0,2.2,0C401.5,144.5,401.5,139.1,401.5,133.6z"/>
<path class="st0" d="M389.6,132.3c5.4,0.1,9.4,4.1,9.4,9.4c0.1,5.7-4.5,9.8-10.3,9.5c-3.7-0.2-6.5-1.8-8.2-5.1
	c-2.7-5.5,0-12.5,7-13.6C388.2,132.3,388.9,132.3,389.6,132.3z M392.6,141.8C392.6,141.8,392.6,141.8,392.6,141.8c0-1.8,0-3.6,0-5.3
	c0-1.6-0.9-2.8-2.2-3.2c-2.3-0.7-4.2,0.6-4.3,3.1c-0.1,3.6-0.1,7.2,0,10.8c0.1,2.7,2.6,4.1,4.9,2.9c1.1-0.6,1.5-1.8,1.6-3
	C392.6,145.3,392.6,143.5,392.6,141.8z"/>
<path class="st0" d="M351.7,111.5c0.1,1.7-0.8,3.1-2.4,3.6c-1.9,0.7-4.4,0.5-5.8-1.9c-0.8,0.5-1.5,1.2-2.4,1.6
	c-2.2,1-4.5,0.9-6.7-0.1c-2-0.9-2.9-2.5-2.7-4.7c0.1-2,1.1-3.4,2.9-4c1.4-0.5,2.8-0.8,4.3-1c1.3-0.2,2.7-0.2,4-0.4
	c0.2,0,0.5-0.3,0.5-0.5c0-1.5,0-3-0.1-4.4c-0.1-1.3-0.9-2.2-2.2-2.2c-1.3,0-2.6,0.1-3.9,0.3c-0.3,0-0.5,0.4-0.8,0.7
	c0.2,0.2,0.4,0.5,0.7,0.6c1.2,0.5,1.6,1.4,1.1,2.9c-0.3,1.2-1.5,1.6-3,1.4c-1.2-0.2-1.9-1.1-2-2.3c-0.1-1.6,0.7-2.7,2-3.3
	c1.1-0.5,2.3-1,3.5-1.2c2.3-0.3,4.6-0.2,6.7,0.7c2.3,0.9,3.4,2.6,3.4,5.1c0,3.2,0,6.3,0,9.5c0,0.4,0,0.8,0.2,1.2
	c0.2,0.7,0.9,0.8,1.3,0.3c0.3-0.4,0.6-0.9,0.7-1.5C351,111.5,351.2,111.3,351.7,111.5z M343.3,105.4c-1.2,0.1-2.3,0.1-3.3,0.3
	c-1.8,0.3-2.5,0.9-2.6,2.4c-0.1,1.3,0,2.6,0.1,3.9c0.2,1.5,1.3,2.2,2.8,2.2c1-0.1,1.8-0.6,2.3-1.5
	C343.8,110.4,343,107.9,343.3,105.4z"/>
<path class="st0" d="M365.2,150c0.9,0,1.6,0,2.3,0c0.5,0,0.6,0.2,0.5,0.7c-3.7,0-7.3,0-11.1,0c0-0.2,0-0.4,0-0.7c0.9,0,1.8,0,2.7,0
	c0-9.1,0-18,0-27.1c-0.8,0-1.7,0-2.6,0c0-0.3,0-0.5-0.1-0.8c2.8-0.4,5.7,0.6,8.4-1C365.2,130.7,365.2,140.3,365.2,150z"/>
<path class="st0" d="M371.5,122.9c-0.9,0-1.8,0-2.7,0c0-0.3,0-0.5-0.1-0.8c2.8-0.4,5.7,0.6,8.5-1c0,9.6,0,19.2,0,28.9
	c1,0,1.9,0,2.8,0c0.1,0.5,0.1,0.8-0.5,0.8c-3.5,0-7.1,0-10.7,0c0-0.2-0.1-0.4-0.1-0.7c0.9,0,1.8,0,2.7,0
	C371.5,140.9,371.5,132,371.5,122.9z"/>
<path class="st0" d="M356.7,140.9c-1.9,0-3.7,0-5.5,0c-1.8,0-3.7,0-5.6,0c0,0.7,0,1.4,0,2.1c0,1.2,0,2.3,0.2,3.5
	c0.4,3.5,3,4.3,5.9,3.4c2.5-0.8,3.7-2.9,4.4-5.3c0.2-0.6,0.4-0.6,0.9-0.4c-0.9,4.7-4.2,7.4-8.9,7.1c-4.6-0.3-7.7-3-8.4-7.6
	c-0.9-5.5,2.5-10.2,7.2-11.2c3.4-0.7,7,1.1,8.9,4.4C356.3,138.1,356.7,139.4,356.7,140.9z M345.6,140.1c1.5,0,3,0,4.5,0
	c0.1,0,0.4-0.3,0.4-0.4c0-1.4,0.1-2.7,0-4.1c-0.1-1.6-0.9-2.4-2.2-2.5c-1.4-0.1-2.4,0.6-2.6,2.2
	C345.5,136.8,345.6,138.4,345.6,140.1z"/>
<path class="st0" d="M410.4,105.1c-1.6,0-3.2,0-4.7,0c-1.9,0-3.9,0-5.8,0c-0.3,0-0.7,0-0.7,0.5c0,1.7-0.1,3.4,0.1,5.1
	c0.5,4,4,4.4,6.6,3.1c2-1,3-2.8,3.6-4.9c0.2-0.6,0.2-0.6,0.9-0.5c-0.5,3.4-2.9,6.5-6.8,7c-4,0.5-7.2-0.7-9.3-4.2
	c-3-4.9-0.9-11.9,4.6-14.1c3.8-1.5,8.2,0.1,10.3,3.8C409.9,102.1,410.4,103.5,410.4,105.1z M404.4,104.3c-0.1-1.7-0.1-3.4-0.3-5.1
	c-0.2-1.3-1.1-1.9-2.3-1.9c-1.1,0-2.1,0.6-2.3,1.9c-0.2,1.7-0.2,3.4-0.3,5.1C401,104.3,402.6,104.3,404.4,104.3z"/>
<path class="st0" d="M459.7,105.1c-3.7,0-7.4,0-11.2,0c0,1.5-0.1,2.9,0,4.3c0.1,0.9,0.2,1.9,0.5,2.7c0.6,1.8,2.2,2.5,4,2.3
	c3.3-0.3,4.8-2.5,5.8-5.4c0.1-0.2,0.1-0.5,0.2-0.7c0.3,0,0.5,0,0.8,0c-0.6,2.7-1.7,4.9-4.2,6.2c-3.3,1.7-7.9,1.1-10.5-1.6
	c-2.8-2.8-3.3-6.2-2.3-9.8c1-3.5,3.4-5.8,7.1-6.5c3.3-0.7,6.9,1.1,8.7,4.3C459.2,102.2,459.7,103.5,459.7,105.1z M453.4,104.3
	c0-1.7,0.1-3.3,0-4.9c-0.1-1.3-1-2-2.2-2.1c-1.2-0.1-2.2,0.6-2.4,1.8c-0.2,1.7-0.2,3.4-0.3,5.2C450.2,104.3,451.8,104.3,453.4,104.3
	z"/>
<path class="st0" d="M402.1,176c-3.8,0-7.4,0-11.3,0c0.1,2.2,0.1,4.3,0.5,6.4c0.4,2.2,2.5,3.3,4.7,2.8c2.9-0.6,4.4-2.7,5.2-5.3
	c0.2-0.8,0.2-0.8,1-0.6c-0.7,3-2.1,5.4-5.1,6.5c-3.5,1.2-8,0.5-10.4-2.9c-2.4-3.2-2.5-6.8-0.9-10.4c1.6-3.4,4.4-5.2,8.2-5.1
	c3.1,0.1,5.3,1.8,6.9,4.4C401.7,173,402.2,174.3,402.1,176z M396.1,175.1c-0.1-1.7-0.1-3.4-0.3-5c-0.1-1.2-0.9-1.9-1.9-2
	c-1.4-0.1-2.5,0.4-2.7,1.6c-0.3,1.7-0.2,3.5-0.4,5.3C392.7,175.1,394.3,175.1,396.1,175.1z"/>
<path class="st0" d="M360.4,114.2c1.1,0,2.1,0,3.1,0c0.2,0,0.4,0.2,0.6,0.4c-0.2,0.1-0.4,0.4-0.6,0.4c-3.7,0-7.3,0-11,0
	c-0.2,0-0.4-0.3-0.6-0.4c0.2-0.1,0.4-0.4,0.6-0.4c0.7,0,1.4,0,2.2,0c0-0.3,0-0.5,0-0.8c0-4.9,0-9.8,0-14.8c0-0.7-0.2-1-0.9-0.9
	c-0.4,0-0.9,0-1.4,0c-0.2,0-0.4-0.2-0.6-0.3c0.2-0.1,0.4-0.4,0.5-0.4c1.2,0,2.4,0,3.5,0c1.5,0,2.9-0.1,4.3-0.9c0,1.3,0,2.4,0,3.6
	c0.1,0,0.1,0,0.2,0c0.1-0.2,0.3-0.5,0.4-0.7c1.4-2,3.2-3,5.6-2.6c1.5,0.2,2.5,1.5,2.4,3.2c-0.1,1.5-1.2,2.7-2.7,2.8
	c-1.1,0.1-2.1-0.1-2.8-1.1c-0.7-1.1-0.6-2.2,0-3.3c0.1-0.1,0.1-0.2,0.3-0.5c-2,0.9-2.9,2.4-3.2,4.2c-0.1,0.6-0.2,1.3-0.2,1.9
	c0,3.2,0,6.5,0,9.7C360.4,113.6,360.4,113.8,360.4,114.2z"/>
<path class="st0" d="M410.6,166.9c0,1.3,0,2.5,0,3.5c0.7-0.8,1.3-1.6,2.1-2.3c1.2-1,2.7-1.2,4.2-1c1.4,0.2,2.3,1.4,2.3,2.9
	c0,1.6-0.8,2.8-2.2,3.1c-1.3,0.2-2.4,0.1-3.2-1c-0.7-1-0.6-2.4,0.3-3.8c-0.2,0.1-0.3,0.1-0.4,0.1c-1.9,1.1-2.8,2.8-2.9,4.9
	c-0.1,3.6-0.1,7.2-0.1,10.8c0,0.6,0.2,0.8,0.8,0.8c0.9,0,1.9,0,2.9,0c0,0.3,0,0.5,0,0.8c-4,0-8,0-12.1,0c-0.2-0.6,0-0.8,0.6-0.8
	c0.5,0,1,0,1.4,0c0.5,0,0.7-0.2,0.7-0.7c0-3.1,0-6.2,0-9.3c0-1.8,0-3.6,0-5.4c0-1,0-1-1-1c-0.6,0-1.1,0-1.8,0c0-0.3,0-0.5,0-0.8
	C405,167.6,407.8,168.3,410.6,166.9z"/>
<path class="st0" d="M432.2,173.3c-0.3-0.3-0.6-0.4-0.7-0.7c-0.6-1.4-1.4-2.7-2.6-3.6c-1.7-1.2-4.3-1.2-5.7,0
	c-0.8,0.7-1.1,1.7-0.9,2.7c0.2,0.9,1,1.3,1.8,1.5c1.3,0.3,2.7,0.5,4,0.7c0.5,0.1,1,0.2,1.5,0.3c2.7,0.7,3.7,1.9,4,4.6
	c0.3,2.8-1.2,5.6-3.7,6.8c-1.9,0.9-3.7,0.7-5.6,0.1c-0.6-0.2-1.3-0.4-2-0.4c-0.4,0-0.8,0.3-1.1,0.5c-0.3,0.2-0.6,0.3-1.1,0.6
	c0-0.6,0-0.9,0-1.2c0-2,0-3.9,0-5.8c0.6-0.3,0.8-0.1,1,0.5c0.8,2.3,2.1,4.2,4.4,5.2c1.5,0.6,2.9,0.5,4.3-0.5
	c0.9-0.6,1.3-1.6,1.4-2.6c0.1-1.1-0.5-1.8-1.8-2.1c-1.3-0.3-2.6-0.4-3.8-0.6c-0.7-0.1-1.4-0.3-2.1-0.5c-3.3-1-4-4.3-3.3-7
	c1-3.6,4.3-5.4,7.9-4.2c0.5,0.2,1,0.3,1.4,0.4c0.7,0.2,1.4,0.2,1.9-0.6c0.1-0.1,0.3-0.2,0.5-0.2c0.1,0,0.2,0.2,0.2,0.4
	C432.2,169.5,432.2,171.3,432.2,173.3z"/>
<path class="st0" d="M374.3,168.6c1.6,3.5,3.1,6.9,4.7,10.5c0.5-1.2,0.9-2.2,1.3-3.1c0.6-1.6,1.3-3.1,1.9-4.7c0.1-0.3,0.2-0.7,0.2-1
	c0.1-1.1-0.5-1.7-1.6-1.7c-0.3,0-0.6,0-0.9,0c-0.2-0.5-0.1-0.8,0.5-0.8c1.8,0,3.5,0,5.3,0c0.2,0,0.4,0.2,0.5,0.3
	c-0.2,0.2-0.3,0.3-0.5,0.5c-0.5,0.4-1.2,0.8-1.6,1.3c-0.7,1.1-1.2,2.2-1.7,3.3c-1.8,4.1-3.5,8.3-5.3,12.5c-0.2,0.4-0.3,0.5-0.8,0.5
	c-0.4,0-0.7,0-0.9-0.5c-2.3-5.5-4.7-10.9-7.1-16.4c-0.3-0.6-0.6-0.8-1.2-0.7c-0.2,0-0.4,0-0.6,0c-0.1-0.1-0.3-0.3-0.3-0.4
	c0-0.2,0.2-0.4,0.4-0.4c0.3-0.1,0.6,0,1,0c2.8,0,5.5,0,8.3,0c0.2,0,0.6,0.2,0.6,0.4c0.1,0.5-0.3,0.5-0.6,0.5
	C375.5,168.6,374.9,168.6,374.3,168.6z"/>
<path class="st0" d="M445.5,185c0,0.3,0,0.5,0,0.8c-1.2,0-2.3,0-3.4,0c-2.4,0-4.8,0-7.2,0c-0.2,0-0.4-0.2-0.6-0.4
	c0.2-0.2,0.4-0.3,0.6-0.4c0.1,0,0.2,0,0.3,0c1.9,0,1.9,0,1.9-2c0-4.5,0-8.9,0-13.4c0-0.7-0.1-1.1-0.9-1c-0.5,0.1-1,0-1.4,0
	c-0.2,0-0.3-0.3-0.5-0.4c0.2-0.1,0.3-0.3,0.5-0.4c0.1-0.1,0.3,0,0.5,0c2.5-0.1,5,0.4,7.5-0.9c0,0.4,0,0.8,0,1.1c0,5.4,0,10.7,0,16.1
	c0,0.7,0.1,1,0.9,0.9C444.2,184.9,444.8,185,445.5,185z"/>
<path class="st0" d="M359,168.6c-0.7,0-1.4,0-2.1,0c-0.5,0-0.7-0.2-0.5-0.7c2.8-0.2,5.6,0.3,8.4-0.9c0,6,0,12,0,18.1
	c0.8,0,1.5,0,2.2,0c0.5,0,0.7,0.2,0.5,0.7c-0.1,0-0.2,0-0.3,0c-3.4,0-6.7,0-10.1,0c-0.1,0-0.2,0-0.2,0c-0.2-0.1-0.3-0.2-0.4-0.4
	c0.1-0.1,0.3-0.4,0.4-0.4c0.6,0,1.2,0,1.8,0c0.4,0,0.5-0.1,0.5-0.5c0-5.2,0-10.4,0-15.6C359.1,168.8,359.1,168.8,359,168.6z"/>
<path class="st0" d="M439.6,96c0,6.1,0,12,0,18.1c0.9,0,1.8,0,2.7,0c0.2,0.5,0.2,0.8-0.4,0.8c-3.4,0-6.8,0-10.2,0
	c-0.1,0-0.2,0-0.4-0.1c0-0.2,0-0.4,0-0.7c0.9,0,1.7,0,2.6,0c0-5.5,0-10.9,0-16.4c-0.9,0-1.7,0-2.6,0c-0.2-0.6,0-0.8,0.5-0.7
	c1.4,0,2.8,0,4.1,0C437.2,96.9,438.4,96.8,439.6,96z"/>
<path class="st0" d="M433.9,90.7c0-1.7,1.2-2.9,2.9-2.9c1.7,0,3,1.3,3,2.9c0,1.6-1.3,2.9-2.9,2.9C435.1,93.6,433.9,92.4,433.9,90.7z
	"/>
<path class="st0" d="M361.9,164.4c-1.7,0-3-1.3-2.9-2.9c0-1.6,1.3-2.9,2.9-2.9c1.7,0,2.9,1.2,2.9,2.9
	C364.9,163.2,363.7,164.4,361.9,164.4z"/>
<path class="st0" d="M439.9,164.4c-1.7,0-2.9-1.2-2.9-2.9c0-1.7,1.3-3,2.9-3c1.7,0,2.9,1.3,2.9,3
	C442.9,163.2,441.6,164.4,439.9,164.4z"/>
</svg>
