<?xml version="1.0" encoding="utf-8"?>
<!-- Generator: Adobe Illustrator 21.0.2, SVG Export Plug-In . SVG Version: 6.00 Build 0)  -->
<svg version="1.1" id="Layer_1" xmlns="http://www.w3.org/2000/svg" xmlns:xlink="http://www.w3.org/1999/xlink" x="0px" y="0px"
	 viewBox="0 0 695 450" style="enable-background:new 0 0 695 450;" xml:space="preserve">
<style type="text/css">
	.st0{fill:#FFFFFF;}
</style>
<g>
	<g>
		<path d="M131.9,206c-0.2,2.1-0.5,4.1-0.6,6.1c-0.1,1.9-0.1,3.7,0,5.6c0,1.4-0.5,1.8-1.8,1.4c-0.3-0.1-0.6-0.3-0.9-0.3
			c-1.8-0.4-1.8-0.6-1.6-2.4c0.4-3.3,0.6-6.5-0.3-9.8c-0.3-1.1,0.1-1.7,1.1-1.5C129.1,205.3,130.5,205.7,131.9,206z M128.9,216.7
			c0.2,0,0.4,0,0.6,0c0.2-3.2,0.4-6.3,0.6-9.5c-1.2-0.3-1.5,0.2-1.5,1.1c0,2.5,0,5.1,0,7.6C128.7,216.1,128.8,216.4,128.9,216.7z"/>
		<path d="M141.1,206.6c1.8-0.4,3.4-0.2,4.7,1.2c0.5,0.5,0.8,1,0.7,1.8c-0.4,3-1.1,6.1-0.8,9.2c0,0.3-0.6,1-1,1
			c-1.1,0.1-2.2,0-3.2-0.2c-1.1-0.3-1.1-1-0.4-1.9c0.3-0.4,0.6-1,0.6-1.5c-0.2-2.9-0.5-5.8-0.8-8.8C140.9,207.2,141,207,141.1,206.6
			z M143.6,218c0.3-0.4,0.5-0.6,0.5-0.7c0.3-2.6,0.6-5.2,0.8-7.8c0.1-1.1-0.7-1.1-1.7-0.9c0,2.9-0.1,5.8-0.1,8.6
			C143.1,217.4,143.3,217.6,143.6,218z"/>
		<path d="M140.4,226.4c0.9,0.1,1.7,0.2,2.5,0.3c1.6,0.4,1.7,0.6,1.6,2.3c-0.3,2.3-0.6,4.7-0.7,7c-0.1,0.8,0.2,1.6,0.3,2.3
			c-1,0.8-3.1,1.1-4,0.5c-0.3-0.2-0.6-0.8-0.6-1.1c0.2-3.4,0.5-6.8,0.7-10.2C140.2,227.3,140.3,227,140.4,226.4z M142,237.1
			c0.2-0.4,0.4-0.9,0.4-1.3c0.2-2.1,0.3-4.1,0.4-6.2c0-0.3-0.1-0.7-0.2-1.2C141.6,229.9,141,235.2,142,237.1z"/>
		<path d="M155.8,217.5c0.1,0.6,0.2,0.9,0.2,1.3c0,0.9-0.3,1.4-1.3,1.3c-0.9-0.1-2,0-2.7-0.5c-1.1-0.6-0.1-1.7,0-2.6
			c0-2.6,0.2-5.2,0.3-7.8c0.1-1.6,0.5-1.9,2-1.5c2.4,0.6,2.9,1.3,2.6,3.7c-0.1,1.1-0.4,2.2-0.6,3.4
			C156.1,215.7,156,216.7,155.8,217.5z M154,217.9c0.1-0.1,0.4-0.2,0.4-0.4c0.3-2.2,0.6-4.5,0.9-6.7c0.1-0.6,0.1-1.1-0.6-1.3
			c-0.7-0.1-0.9,0.4-1,1c0,0.2-0.1,0.4-0.1,0.6c-0.1,1.8-0.3,3.6-0.4,5.4C153.3,217,153.1,217.7,154,217.9z"/>
		<path d="M127,237c1.8-3.2,1.1-6.2,0.7-9.2c-0.2-1.7-0.1-2.1,1.6-1.8c1,0.2,2.1,0.2,3.2,0.4c-0.2,2.4-0.5,4.7-0.7,6.9
			c-0.1,0.8,0.1,1.6,0.2,2.4c0.2,1.5-0.2,2-1.7,1.8C129.4,237.3,128.3,237.2,127,237z M130.4,235c0-1.2,0.1-2.3,0.1-3.5
			c0-1.1,0.7-2.3,0-3.5C129.7,229.3,129.6,233.1,130.4,235z"/>
		<path d="M149.9,237.8c0-2.7,0-5.5,0-8.2c0-1.1,0.5-1.5,1.5-1.3c1,0.2,2.2,0.4,3,0.9c1,0.8-0.1,1.8-0.2,2.8c-0.1,2-0.4,4-0.6,6
			c-0.2,1.5-0.5,1.8-2.1,1.7C150.1,239.6,149.6,239.1,149.9,237.8z M151.4,237.5c0.2,0,0.5,0,0.7,0c0.1-1.2,0.2-2.3,0.3-3.5
			c0.1-1.1,0.8-2.4-0.5-3.4C151.8,232.9,151.3,235.2,151.4,237.5z"/>
		<path class="st0" d="M128.9,216.7c-0.1-0.3-0.3-0.6-0.3-0.9c0-2.5,0-5.1,0-7.6c0-0.9,0.3-1.4,1.5-1.1c-0.2,3.2-0.4,6.3-0.6,9.5
			C129.3,216.6,129.1,216.7,128.9,216.7z"/>
		<path class="st0" d="M143.6,218c-0.3-0.4-0.6-0.6-0.6-0.8c0-2.9,0.1-5.7,0.1-8.6c1-0.1,1.8-0.2,1.7,0.9c-0.2,2.6-0.5,5.2-0.8,7.8
			C144.1,217.4,143.9,217.6,143.6,218z"/>
		<path class="st0" d="M142,237.1c-1-1.9-0.4-7.2,0.7-8.7c0.1,0.5,0.2,0.9,0.2,1.2c-0.1,2.1-0.2,4.1-0.4,6.2
			C142.4,236.2,142.2,236.6,142,237.1z"/>
		<path class="st0" d="M154,217.9c-0.9-0.2-0.7-0.9-0.7-1.4c0.1-1.8,0.2-3.6,0.4-5.4c0-0.2,0-0.4,0.1-0.6c0.1-0.5,0.3-1.1,1-1
			c0.7,0.1,0.6,0.7,0.6,1.3c-0.3,2.2-0.6,4.5-0.9,6.7C154.4,217.7,154.2,217.8,154,217.9z"/>
		<path class="st0" d="M130.4,235c-0.9-1.9-0.7-5.7,0-7c0.7,1.2,0,2.4,0,3.5C130.5,232.7,130.5,233.8,130.4,235z"/>
		<path class="st0" d="M151.4,237.5c-0.2-2.3,0.3-4.6,0.5-6.9c1.3,1,0.6,2.2,0.5,3.4c-0.1,1.2-0.2,2.3-0.3,3.5
			C151.9,237.5,151.7,237.5,151.4,237.5z"/>
	</g>
	<g>
		<path d="M125.9,257.5c0-3.1,0-6.3,0-9.4c0-0.8,0.4-1.2,1.3-1.2c1,0,2,0,3,0c1.1,0,1.4,0.5,1.1,1.5c-0.2,0.8-0.4,1.5-0.5,2.3
			c-0.2,1.6-0.4,3.2-0.6,4.8c-0.1,1.1-0.2,2.3-0.2,3.4c-0.1,0.9-0.5,1.2-1.3,0.9c-0.5-0.2-1-0.4-1.5-0.5
			C125.7,259,125.6,258.8,125.9,257.5z M129.1,249.7c0,0-0.2-0.3-0.5-0.6c-0.3,0.2-0.7,0.5-0.8,0.7c-0.2,2.3-0.3,4.6-0.4,7
			c0,0.2,0.5,0.5,0.7,0.7c0.2-0.2,0.5-0.5,0.5-0.7C128.9,254.5,129,252.3,129.1,249.7z"/>
		<path d="M126.4,266.8c0.3,0,0.7,0,1,0.1c1.2,0.2,1.6,0.6,1.7,1.9c0,0.5,0,0.9-0.1,1.4c-0.4,2.9-0.7,5.7-1.1,8.5
			c-0.2,1.7-0.3,1.7-1.9,0.9c-0.2-0.1-0.4-0.2-0.6-0.2c-1.8-0.5-2-0.8-1.7-2.7c0.3-1.6,0.5-3.3,0.7-5c0.1-1,0-2-0.1-3
			c-0.2-1.7,0-2,1.7-1.9C126.1,266.8,126.3,266.8,126.4,266.8z M127.2,268.8c-0.2,0-0.4-0.1-0.6-0.1c-0.2,0.3-0.5,0.6-0.5,0.9
			c-0.4,2.3-0.7,4.6-1,6.9c0,0.1,0,0.3,0,0.4c0.2,0.3,0.4,0.6,0.6,0.7c0.3,0.1,0.7-0.1,0.8-0.4c0.2-0.3,0.2-0.7,0.3-1.1
			c0.1-1.5,0.3-3.1,0.4-4.6C127.3,270.6,127.2,269.7,127.2,268.8z"/>
		<path d="M149.9,260.2c-0.5,0.1-1.2,0.3-1.8,0.2c-1.6-0.1-2.1-1-1.8-2.6c0.5-2.7,1.2-5.4,0.5-8.1c-0.2-0.8,0.2-1.3,1-1.3
			c0.1,0,0.3,0,0.4,0c2.9,0.2,3.4,0.7,3,3.6C150.7,254.7,150.3,257.3,149.9,260.2z M149.1,250.3c-0.9,1.3-0.5,2.7-0.8,4
			c-0.3,1.2-0.6,2.5,0,4.1C149.1,256.4,149.6,251.8,149.1,250.3z"/>
		<path d="M139.3,246.4c2.3,0.1,3.2,1.2,2.9,3.5c-0.3,2.4-0.5,4.8-0.7,7.2c-0.1,1.6-0.2,1.7-1.8,1.7c-0.3,0-0.5,0-0.8,0
			c-1.7-0.1-1.8-0.3-1.6-2.1c0.3-2.8,0.4-5.6,0.3-8.4C137.6,246.7,137.8,246.3,139.3,246.4z M138.8,255.8c0.1,0.1,0.3,0.8,0.6,0.9
			c0.8,0.1,0.7-0.6,0.7-1.1c0.2-2,0.5-4.1,0.7-6.1c0-0.4-0.3-0.7-0.5-1.1c-0.3,0.3-0.7,0.6-0.8,0.9
			C139.3,251.3,139.1,253.4,138.8,255.8z"/>
		<path d="M134.6,275.8c0.3-1.5,0.7-2.5,0.8-3.5c0.1-2.1,0-4.2,0-6.2c0-1.5,0.2-1.8,1.7-1.7c0.8,0,1.6,0.1,2.4,0.2
			c0,1.5,0.1,2.8,0,4.1c-0.2,2.1-0.4,4.1-0.7,6.2c-0.1,1.2-0.3,1.4-1.5,1.4c-0.5,0-1.1,0.1-1.6,0
			C135.3,276.1,134.8,275.9,134.6,275.8z M137,273.8c1.1-1,0.7-2.4,0.7-3.5c0-1.2,0.8-2.5-0.1-3.7C137,269,136.6,271.4,137,273.8z"
			/>
		<path d="M147.1,275c-0.3,0-0.7,0-1,0c-0.7-0.1-1-0.5-1-1.2c0.2-2.3,0.5-4.5,0.7-6.8c0.1-1.1,0.4-1.4,1.6-1.2
			c0.5,0.1,0.9,0.2,1.4,0.3c0.9,0.2,1.2,0.8,1.1,1.7c-0.2,2-0.4,4-0.7,6C149,275,148.7,275.1,147.1,275z M147,272.7
			c0.2,0,0.4,0.1,0.6,0.1c0.7-1.5,0.9-3,0.4-4.6c-0.2,0-0.3,0-0.5-0.1C147.3,269.7,147.1,271.2,147,272.7z"/>
		<path class="st0" d="M129.1,249.7c-0.1,2.6-0.2,4.8-0.4,7c0,0.3-0.3,0.5-0.5,0.7c-0.3-0.2-0.8-0.5-0.7-0.7c0.1-2.3,0.2-4.6,0.4-7
			c0-0.3,0.5-0.5,0.8-0.7C128.9,249.4,129.1,249.7,129.1,249.7z"/>
		<path class="st0" d="M127.2,268.8c0,0.9,0,1.8,0,2.7c-0.1,1.5-0.2,3.1-0.4,4.6c0,0.4-0.1,0.8-0.3,1.1c-0.1,0.2-0.6,0.4-0.8,0.4
			c-0.2,0-0.4-0.4-0.6-0.7c-0.1-0.1,0-0.3,0-0.4c0.3-2.3,0.6-4.6,1-6.9c0.1-0.3,0.3-0.6,0.5-0.9C126.8,268.7,127,268.7,127.2,268.8z
			"/>
		<path class="st0" d="M149.1,250.3c0.5,1.5,0,6.1-0.8,8c-0.5-1.6-0.3-2.9,0-4.1C148.6,253.1,148.2,251.6,149.1,250.3z"/>
		<path class="st0" d="M138.8,255.8c0.3-2.4,0.5-4.5,0.7-6.5c0-0.3,0.5-0.6,0.8-0.9c0.2,0.4,0.6,0.8,0.5,1.1
			c-0.2,2.1-0.5,4.1-0.7,6.1c-0.1,0.5,0,1.3-0.7,1.1C139.1,256.6,138.9,255.9,138.8,255.8z"/>
		<path class="st0" d="M137,273.8c-0.4-2.5,0-4.9,0.6-7.3c0.9,1.2,0.1,2.5,0.1,3.7C137.7,271.5,138.1,272.8,137,273.8z"/>
		<path class="st0" d="M147,272.7c0.2-1.5,0.4-3,0.5-4.5c0.2,0,0.3,0,0.5,0.1c0.5,1.6,0.3,3.1-0.4,4.6
			C147.4,272.8,147.2,272.8,147,272.7z"/>
	</g>
	<g>
		<path d="M104.8,136.4c0.6,2.3,1.1,4.4,0.9,6.7c-1.1,0.7-2.1,0.3-3,0.1c-0.9-0.2-1.1-0.9-1.2-1.7c-0.2-1.1-0.3-2.1-0.5-3.2
			c-0.2-1.1,0.1-1.5,1.2-1.6C102.9,136.6,103.7,136.5,104.8,136.4z M103.6,141.8c0.3-1.3,0.6-2.5-0.7-3.7
			C102.5,139.6,102.6,140.8,103.6,141.8z"/>
		<path d="M111.4,139.9c0.1,1.5,0,1.7-1.1,1.9c-1.3,0.2-1.9-0.1-2.2-1.4c-0.4-1.3-0.8-2.5-1.1-3.8c-0.3-0.9-0.1-1.4,0.9-1.6
			c2.5-0.7,2.6-0.6,3.1,1.9C111.2,138,111.3,139,111.4,139.9z M109.3,139.4c0-0.9,0.5-1.8-0.5-2.4
			C109,137.8,109.1,138.6,109.3,139.4z"/>
		<path d="M106.4,148.9c0,0.7,0.1,1.5,0,2.2c-0.2,1.1-1,1.4-1.9,0.8c-0.4-0.3-0.8-0.8-1-1.2c-0.4-1.2-0.8-2.4-1.1-3.6
			c-0.2-0.8,0-1.3,1-1.6c2.5-0.6,2.8-0.5,3,2.3C106.4,148.1,106.4,148.5,106.4,148.9C106.4,148.9,106.4,148.9,106.4,148.9z
			 M104.6,147.4c-0.2,0-0.3,0-0.5,0c0.1,0.5,0.2,1,0.3,1.4c0.1,0,0.2,0,0.3,0C104.7,148.3,104.6,147.8,104.6,147.4z"/>
		<path d="M115.9,132.6c1.6,0,1.7,0.1,2,1.6c0.2,1.2,0.5,2.4,0.6,3.5c0.1,1.2-0.3,1.7-1.3,1.8c-1,0.1-1.9-0.4-2-1.5
			c-0.1-1.5-0.4-2.9-1.2-4.2c-0.4-0.7,0-1.2,0.7-1.3C115.1,132.5,115.5,132.6,115.9,132.6z M116.5,135.1c-0.2,0.1-0.4,0.1-0.4,0.2
			c0.1,0.5,0.1,1.1,0.2,1.6c0.1,0,0.2,0,0.4-0.1C116.7,136.2,116.6,135.7,116.5,135.1z"/>
		<path d="M108.2,144.3c1.1,0,1.9-0.1,2.6,0c1.4,0.2,1.7,0.7,1.8,2.1c0.1,0.9,0.1,1.7,0.2,2.6c0.1,0.8,0,1.6-1,1.9
			c-0.7,0.2-2.2-0.3-2.4-1.1C109.1,148.1,108.7,146.3,108.2,144.3z M110.9,146c-0.2,0-0.4,0.1-0.6,0.1c-0.4,1,0.1,1.8,0.4,2.6
			c0.1,0,0.3,0,0.4-0.1C111.1,147.8,111,146.9,110.9,146z"/>
		<path d="M118.6,146.6c0,1.9-0.2,2.2-1.4,2.3c-1.1,0.1-1.6-0.3-1.9-1.4c-0.3-1.1-0.6-2.2-0.9-3.2c-0.4-1.2,0.1-1.8,1.4-1.6
			C117.9,143,118.6,144,118.6,146.6z M116.8,146.7c0.1,0,0.2-0.1,0.3-0.1c-0.1-0.3-0.1-0.6-0.2-0.9c-0.1-0.3-0.3-0.6-0.4-0.8
			c-0.2,0.5-0.1,0.8,0,1.2C116.6,146.3,116.7,146.5,116.8,146.7z"/>
		<path class="st0" d="M103.6,141.8c-1-1-1.1-2.2-0.7-3.7C104.2,139.2,103.9,140.5,103.6,141.8z"/>
		<path class="st0" d="M109.3,139.4c-0.2-0.8-0.3-1.6-0.5-2.4C109.8,137.6,109.3,138.5,109.3,139.4z"/>
		<path class="st0" d="M104.6,147.4c0,0.5,0.1,1,0.1,1.5c-0.1,0-0.2,0-0.3,0c-0.1-0.5-0.2-1-0.3-1.4
			C104.3,147.4,104.5,147.4,104.6,147.4z"/>
		<path class="st0" d="M116.5,135.1c0.1,0.6,0.1,1.2,0.2,1.7c-0.1,0-0.2,0-0.4,0.1c-0.1-0.5-0.1-1.1-0.2-1.6
			C116.2,135.2,116.3,135.2,116.5,135.1z"/>
		<path class="st0" d="M110.9,146c0.1,0.9,0.2,1.8,0.2,2.6c-0.1,0-0.3,0-0.4,0.1c-0.3-0.8-0.8-1.6-0.4-2.6
			C110.5,146.1,110.7,146,110.9,146z"/>
		<path class="st0" d="M116.8,146.7c-0.1-0.2-0.2-0.4-0.3-0.6c-0.1-0.4-0.2-0.7,0-1.2c0.1,0.3,0.3,0.5,0.4,0.8
			c0.1,0.3,0.1,0.6,0.2,0.9C117,146.6,116.9,146.7,116.8,146.7z"/>
	</g>
	<g>
		<path d="M106.5,167c0.1,0.8,0.4,2.1,0.6,3.5c0.1,0.9,0.5,2-0.4,2.4c-0.9,0.4-2.1,0.4-3.1,0.4c-0.2,0-0.7-0.7-0.6-1
			c0.4-2.7-0.4-5.2-1.3-7.6c-0.5-1.3,0-1.9,1.4-1.9c0.1,0,0.3,0,0.4,0C106.5,163.4,106.7,163.4,106.5,167z M104.9,171.8
			c0.3-0.5,0.5-0.6,0.5-0.8c-0.1-1.8-0.3-3.7-0.4-5.5c0-0.2-0.2-0.5-0.4-0.7c-0.1-0.1-0.3-0.2-0.6-0.3c-0.1,0.3-0.3,0.5-0.3,0.7
			c0.2,1.8,0.4,3.7,0.6,5.5C104.3,171.1,104.6,171.3,104.9,171.8z"/>
		<path d="M115.7,160.2c0,3.6,0,6.9,0,10.5c-0.5,0.1-1.1,0.3-1.7,0.3c-1.3,0-1.5-0.2-1.8-1.5c-0.1-0.6-0.3-1.2-0.3-1.8
			c0-1.9-0.1-3.9-0.7-5.8c-0.4-1.2-0.1-1.6,1.2-1.7C113.5,160.1,114.5,160.2,115.7,160.2z M113.9,161.8c-0.2,0.1-0.6,0.3-0.6,0.4
			c0.1,2.2-0.1,4.5,0.7,6.8C114.6,167.4,114.5,163.4,113.9,161.8z"/>
		<path d="M101.6,189.9c0.1,1.5-0.2,1.9-1.5,2c-1.5,0.2-2.1-0.2-2.3-1.8c-0.3-2.3-0.7-4.6-1-7c-0.1-0.7,0.1-1.2,0.8-1.4
			c0.4-0.1,0.9-0.3,1.3-0.4c0.9-0.2,1.5,0.2,1.6,1.1C101,185,101.3,187.4,101.6,189.9z M99.5,189.8c0.5-1.8,0.4-3-0.6-5.5
			C98.7,187,98.8,188.1,99.5,189.8z"/>
		<path d="M116.2,182c0,1.2,0.1,2.4,0,3.6c-0.1,1.2-0.6,1.6-2.1,1.5c-1.3-0.1-1.6-0.3-1.7-1.7c-0.2-2.3-0.5-4.5-0.8-6.8
			c-0.2-1.3,0.2-1.7,1.6-1.6c3,0.4,3,0.4,3,3.5C116.2,181.1,116.2,181.6,116.2,182C116.2,182,116.2,182,116.2,182z M114.1,178.9
			c-0.6,2-0.5,4.8,0.1,6.2C115,183.7,115,180.5,114.1,178.9z"/>
		<path d="M99.3,173.6c0.3,1.7-1,2.1-2.6,1.9c-0.8-0.1-1.3-0.5-1.1-1.3c0.5-2.4-0.4-4.6-1.2-6.8c-0.6-1.6,0-2.3,1.6-2.1
			c0.5,0.1,0.9,0,1.4,0.1c0.6,0.1,1,0.5,1.1,1.2C98.7,168.7,99,170.8,99.3,173.6z M97.1,173c0.2-2.1,0.6-4.2-0.5-6
			c-0.2,0-0.3,0.1-0.5,0.1C96.4,169.1,96.7,171,97.1,173z"/>
		<path d="M104.7,186.9c-0.3-1.8-0.5-3.7-0.9-5.5c-0.3-1.6,0-2.1,1.7-1.8c2.2,0.3,2.4,0.6,2.7,2.8c0.2,1.5,0.4,3.1,0.6,4.6
			c0.1,0.9,0.1,1.8-1,2.1c-1,0.3-2.6,0.1-3-0.6c-0.2-0.4-0.2-1-0.3-1.5C104.5,187,104.6,186.9,104.7,186.9z M106.3,181.7
			c-0.2,0-0.3,0-0.5,0c0,1.7,0,3.4,0,5.1c0,0.3,0.5,0.5,1.1,1.1C107.2,185.4,106.9,183.5,106.3,181.7z"/>
		<path class="st0" d="M104.9,171.8c-0.3-0.5-0.6-0.7-0.7-1c-0.2-1.8-0.4-3.7-0.6-5.5c0-0.2,0.2-0.4,0.3-0.7
			c0.3,0.1,0.5,0.1,0.6,0.3c0.2,0.2,0.3,0.4,0.4,0.7c0.2,1.8,0.3,3.7,0.4,5.5C105.4,171.2,105.2,171.3,104.9,171.8z"/>
		<path class="st0" d="M113.9,161.8c0.6,1.5,0.7,5.5,0.1,7.2c-0.8-2.3-0.6-4.6-0.7-6.8C113.3,162.1,113.6,162,113.9,161.8z"/>
		<path class="st0" d="M99.5,189.8c-0.7-1.7-0.9-2.8-0.6-5.5C99.9,186.8,100,188,99.5,189.8z"/>
		<path class="st0" d="M114.1,178.9c0.9,1.6,0.9,4.9,0.1,6.2C113.6,183.7,113.5,180.9,114.1,178.9z"/>
		<path class="st0" d="M97.1,173c-0.3-2-0.7-4-1-5.9c0.2,0,0.3-0.1,0.5-0.1C97.6,168.9,97.3,171,97.1,173z"/>
		<path class="st0" d="M106.3,181.7c0.6,1.9,0.9,3.7,0.6,6.2c-0.6-0.5-1.1-0.8-1.1-1.1c-0.1-1.7,0-3.4,0-5.1
			C105.9,181.7,106.1,181.7,106.3,181.7z"/>
	</g>
	<g>
		<path d="M150.8,183c-0.1,2-0.2,4-0.3,6c-0.1,1.1-0.3,1.3-1.3,1.2c-0.5,0-0.9-0.1-1.4-0.2c-1.3-0.3-1.5-0.6-1.3-1.9
			c0.4-2.2,0.6-4.5,0.2-6.7c-0.3-1.5,0.2-1.9,1.7-1.9c2.4,0,2.9,1,2.5,2.8C150.8,182.5,150.9,182.7,150.8,183
			C150.9,183,150.8,183,150.8,183z M148.7,188.1c0.1,0,0.3,0,0.4,0c0.2-2.2,0.3-4.4,0.5-6.6c-0.8-0.3-1.1,0.1-1.2,0.7
			c-0.1,1.7-0.1,3.3-0.1,5C148.3,187.4,148.6,187.7,148.7,188.1z"/>
		<path d="M128,176.3c1.4,0.1,2.4,0.2,3.5,0.4c0.9,0.1,1.2,0.8,1.2,1.6c0,1.8,0,3.6,0,5.4c0,0.5,0,1.1,0,1.6c0,0.8,0.5,1.8-0.6,2
			c-1.1,0.2-2.4,0.4-3.5-0.4c-0.2-0.2-0.3-0.7-0.2-1.1c0.6-2.4,0.1-4.8-0.1-7.1C128.1,178,128.1,177.4,128,176.3z M130.4,178
			c-0.5,1.4-0.7,6.3-0.4,7.1c0.1,0.3,0.5,0.4,0.8,0.6c0.4-1.2,0.6-6.2,0.3-7C131.1,178.5,130.8,178.3,130.4,178z"/>
		<path d="M137.4,187.5c1.8-2.9,1.1-5.7,1-8.4c-0.1-1.9,0.2-2.3,2.1-2c2.2,0.4,2.4,0.6,2.3,2.7c-0.1,2.1-0.3,4.3-0.6,6.4
			c-0.2,1.5-0.4,1.7-1.9,1.7C139.4,187.9,138.6,187.7,137.4,187.5z M140.2,186c0.2,0,0.4,0,0.6,0c0.3-2.2,0.2-4.4,0.5-6.6
			c0-0.1-0.3-0.4-0.5-0.5c-0.1,0-0.4,0.1-0.5,0.2c-0.1,0.4-0.2,0.8-0.3,1.1c-0.1,1.5-0.1,3.1-0.1,4.6
			C139.9,185.2,140.1,185.6,140.2,186z"/>
		<path d="M131.3,161.8c-0.1,2.3-0.2,4.6-0.3,6.8c-0.1,1.4-0.5,1.8-1.9,1.6c-1.7-0.2-2.3-0.7-1.7-2.2c0.7-1.9,0.7-3.8,0.6-5.7
			c0-0.7-0.2-1.5-0.3-2.2c-0.1-0.9,0.3-1.3,1.1-1.2C130.6,159,131.5,160,131.3,161.8z M130,161.5c-0.2,0-0.3,0-0.5,0
			c0.3,1.9-0.8,3.9,0.2,5.8C129.8,165.4,129.9,163.4,130,161.5z"/>
		<path d="M152.1,166c-0.1,1.7-0.3,3.3-0.4,5c-0.1,1.2-0.9,1.6-2.6,1.3c-1-0.2-1.1-0.4-1-1.7c0.2-2.4,0.4-4.8-0.2-7.2
			c-0.3-1.3,0.2-1.7,1.5-1.7c0.5,0,1.1,0.1,1.6,0.2c0.9,0.2,1.4,0.7,1.3,1.7C152.1,164.4,152.1,165.2,152.1,166
			C152,166,152.1,166,152.1,166z M150.2,163.8c-0.7,1-0.9,4.7-0.2,6.3C150.8,169,150.9,165.5,150.2,163.8z"/>
		<path class="st0" d="M148.7,188.1c-0.1-0.3-0.4-0.7-0.4-1c0-1.7,0-3.3,0.1-5c0-0.6,0.3-1,1.2-0.7c-0.2,2.2-0.3,4.4-0.5,6.6
			C149,188.1,148.8,188.1,148.7,188.1z"/>
		<path class="st0" d="M130.4,178c0.4,0.3,0.7,0.5,0.8,0.8c0.3,0.8,0.1,5.9-0.3,7c-0.3-0.2-0.7-0.4-0.8-0.6
			C129.7,184.2,129.9,179.4,130.4,178z"/>
		<path class="st0" d="M140.2,186c-0.1-0.4-0.3-0.7-0.3-1.1c0-1.5,0-3.1,0.1-4.6c0-0.4,0.1-0.8,0.3-1.1c0.1-0.1,0.4-0.3,0.5-0.2
			c0.2,0.1,0.5,0.3,0.5,0.5c-0.2,2.2-0.1,4.4-0.5,6.6C140.6,186,140.4,186,140.2,186z"/>
		<path class="st0" d="M130,161.5c-0.1,2-0.2,3.9-0.3,5.9c-1-1.9,0-3.9-0.2-5.8C129.6,161.5,129.8,161.5,130,161.5z"/>
		<path class="st0" d="M150.2,163.8c0.7,1.8,0.6,5.2-0.2,6.3C149.4,168.5,149.5,164.8,150.2,163.8z"/>
		<path d="M142.5,164.7c0,0.8-0.1,2.2-0.1,3.6c0,0.9,0.1,2-0.9,2.2c-1,0.2-2.1,0-3.1-0.2c-0.2,0-0.5-0.8-0.4-1.1
			c0.9-2.6,0.6-5.1,0.2-7.7c-0.2-1.4,0.3-1.9,1.7-1.6c0.1,0,0.3,0.1,0.4,0.1C143.2,161.2,143.4,161.2,142.5,164.7z M140,169.1
			c0.4-0.4,0.6-0.5,0.6-0.7c0.2-1.8,0.5-3.7,0.6-5.5c0-0.2-0.1-0.5-0.2-0.7c-0.1-0.1-0.3-0.2-0.5-0.4c-0.2,0.2-0.4,0.4-0.4,0.6
			c-0.2,1.8-0.4,3.7-0.5,5.5C139.5,168.2,139.8,168.5,140,169.1z"/>
		<path class="st0" d="M140,169.1c-0.2-0.6-0.5-0.9-0.4-1.1c0.1-1.8,0.3-3.7,0.5-5.5c0-0.2,0.3-0.4,0.4-0.6c0.3,0.2,0.5,0.2,0.5,0.4
			c0.1,0.2,0.2,0.5,0.2,0.7c-0.2,1.8-0.4,3.7-0.6,5.5C140.6,168.6,140.3,168.7,140,169.1z"/>
	</g>
	<g>
		<path d="M149.2,145.5c-0.2,0.9-0.5,2.5-0.8,3.9c-0.3,1.2-1.3,1-2.1,1c-0.9,0-1.5-0.5-1.5-1.5c0.1-1.7,0.1-3.5,0.2-5.2
			c0.1-1.1,0.5-1.4,1.6-1.2c0.3,0.1,0.6,0.2,0.9,0.3C149.3,143.3,149.3,143.3,149.2,145.5z M147.4,144.7c-0.2,0-0.4,0-0.5,0
			c-0.1,1.2-0.3,2.3-0.4,3.5c0.2,0,0.3,0,0.5,0.1C147.2,147.1,148,146,147.4,144.7z"/>
		<path d="M129.8,141.6c1.2,0.2,2.2,0.2,3.1,0.4c0.3,0.1,0.8,0.5,0.8,0.8c0.1,2,0.4,4.1,0.1,6.1c-1.4,0.4-2.4-0.2-3.4-0.7
			c-0.3-0.1-0.6-0.5-0.6-0.8C129.7,145.6,129.8,143.7,129.8,141.6z M132,144c-0.9,1.3-0.8,2,0,3.1C132,146,132,145,132,144z"/>
		<path d="M132.9,130.6c0.9,1.4,0.1,2.8,0.1,4.2c0,0.7-0.2,1.3-0.2,2c0,0.9,0,1.7-1.1,1.7c-1.1,0-2.1-0.7-2.2-1.6
			c-0.1-0.5,0-1.1,0-1.6c0-1,0.1-2,0.1-3c0-1.3,0.1-1.6,1.4-1.7c0.2,0,0.4,0,0.6,0C131.9,130.6,132.3,130.6,132.9,130.6z
			 M131.6,132.8c-1.2,1-0.9,2.2-0.5,3.4C131.3,135,131.5,133.9,131.6,132.8z"/>
		<path d="M139.1,131.9c0.2-0.1,0.2-0.2,0.3-0.2c3.8,0.1,3.1,0.4,2.9,3.1c-0.1,1.1-0.2,2.3-0.3,3.4c-0.1,1-0.7,1.3-1.5,1
			c-1.6-0.6-2-1.2-1.7-2.7C138.9,135,139,133.4,139.1,131.9z M140.6,135.2c0,0-0.1,0-0.1,0c0,0.5,0,0.9,0,1.4c0.1,0,0.1,0,0.2,0
			C140.6,136.1,140.6,135.6,140.6,135.2z"/>
		<path d="M141.9,142.2c0,0.3,0.1,0.7,0.1,1.1c-0.1,1.6-0.2,3.2-0.4,4.8c-0.1,1-0.5,1.2-1.5,1.1c-1.9-0.4-2.2-0.9-2-2.9
			c0.1-1.1,0.1-2.1,0.2-3.2c0.1-1.4,0.5-1.6,1.8-1.3c0.5,0.1,0.9,0.2,1.4,0.3C141.6,141.9,141.7,142.1,141.9,142.2z M139.5,146.8
			c0.7-1.6,0.7-1.6,0.1-3C139.6,145.1,139.6,146,139.5,146.8z"/>
		<path class="st0" d="M147.4,144.7c0.5,1.3-0.2,2.4-0.5,3.5c-0.2,0-0.3,0-0.5-0.1c0.1-1.2,0.3-2.3,0.4-3.5
			C147.1,144.7,147.3,144.7,147.4,144.7z"/>
		<path class="st0" d="M132,144c0,1,0,2,0,3.1C131.2,146,131.1,145.3,132,144z"/>
		<path class="st0" d="M131.6,132.8c-0.2,1.1-0.3,2.2-0.5,3.4C130.7,134.9,130.5,133.8,131.6,132.8z"/>
		<path class="st0" d="M140.6,135.2c0,0.5,0,0.9,0.1,1.4c-0.1,0-0.1,0-0.2,0c0-0.5,0-0.9,0-1.4C140.5,135.2,140.5,135.2,140.6,135.2
			z"/>
		<path class="st0" d="M139.5,146.8c0-0.9,0.1-1.8,0.1-3C140.2,145.2,140.2,145.2,139.5,146.8z"/>
		<path d="M150.6,135.9c-0.2,0.9-0.5,2.5-0.8,3.9c-0.3,1.2-1.3,1-2.1,1c-0.9,0-1.5-0.5-1.5-1.5c0.1-1.7,0.1-3.5,0.2-5.2
			c0.1-1.1,0.5-1.4,1.6-1.2c0.3,0.1,0.6,0.2,0.9,0.3C150.6,133.6,150.6,133.6,150.6,135.9z M148.8,135.1c-0.2,0-0.4,0-0.5,0
			c-0.1,1.2-0.3,2.3-0.4,3.5c0.2,0,0.3,0,0.5,0.1C148.6,137.5,149.3,136.4,148.8,135.1z"/>
		<path class="st0" d="M148.8,135.1c0.5,1.3-0.2,2.4-0.5,3.5c-0.2,0-0.3,0-0.5-0.1c0.1-1.2,0.3-2.3,0.4-3.5
			C148.5,135.1,148.6,135.1,148.8,135.1z"/>
	</g>
	<g>
		<path d="M132,90.5c-0.2,2.4-0.3,4.6-0.6,6.8c-0.1,1.1-0.7,1.3-1.7,0.8c-0.5-0.2-1-0.4-1.4-0.8c-0.3-0.3-0.7-1-0.6-1.3
			c0.6-1.3,0.4-2.6,0.1-3.9c-0.3-1.5,0.1-1.8,1.6-1.6C130.1,90.6,130.9,90.5,132,90.5z M129.5,92.3c0.1,1.2-0.6,2.3,0,3.5
			C130,94.6,130.3,93.5,129.5,92.3z"/>
		<path d="M136.7,94.1c-0.1,0.8-0.2,1.6-0.3,2.4c-0.1,0.9-0.3,1.6-1.3,1.7c-0.7,0.1-1.9-1-1.9-1.8c-0.1-1.7-0.1-3.3,0-5
			c0.1-1,0.7-1.4,1.7-1.1C136.5,91,136.8,91.6,136.7,94.1z M134.9,93.1c-0.3,0.9-0.5,1.7,0,2.5C134.9,94.8,134.9,94,134.9,93.1z"/>
		<path d="M133.9,80.2c1.2-0.4,2.1,0.3,2.9,0.8c0.4,0.2,0.5,1,0.5,1.6c0,1.1-0.2,2.1-0.3,3.2c-0.1,0.8-0.1,1.7-1.2,1.8
			c-0.7,0.1-2-1-2.1-1.8c-0.1-0.3-0.1-0.7,0-1c0.3-1.3,0.3-2.6,0-3.9C133.7,80.6,133.9,80.4,133.9,80.2z M135.2,84.8
			c0.1,0,0.3,0.1,0.4,0.1c0.1-0.7,0.1-1.5,0.2-2.2c-0.1,0-0.2,0-0.3,0C135.4,83.4,135.3,84.1,135.2,84.8z"/>
		<path class="st0" d="M129.5,92.3c0.9,1.2,0.6,2.3,0,3.5C128.8,94.6,129.6,93.5,129.5,92.3z"/>
		<path class="st0" d="M134.9,93.1c0,0.8,0,1.7,0,2.5C134.4,94.8,134.7,94,134.9,93.1z"/>
		<path class="st0" d="M135.2,84.8c0.1-0.7,0.3-1.5,0.4-2.2c0.1,0,0.2,0,0.3,0c-0.1,0.7-0.1,1.5-0.2,2.2
			C135.5,84.9,135.3,84.9,135.2,84.8z"/>
		<path d="M128.4,78.8c1.2-0.4,2.1,0.3,2.9,0.8c0.4,0.2,0.5,1,0.5,1.6c0,1.1-0.2,2.1-0.3,3.2c-0.1,0.8-0.1,1.7-1.2,1.8
			c-0.7,0.1-2-1-2.1-1.8c-0.1-0.3-0.1-0.7,0-1c0.3-1.3,0.3-2.6,0-3.9C128.2,79.2,128.4,79,128.4,78.8z M129.6,83.5
			c0.1,0,0.3,0.1,0.4,0.1c0.1-0.7,0.1-1.5,0.2-2.2c-0.1,0-0.2,0-0.3,0C129.9,82,129.8,82.7,129.6,83.5z"/>
		<path class="st0" d="M129.6,83.5c0.1-0.7,0.3-1.5,0.4-2.2c0.1,0,0.2,0,0.3,0c-0.1,0.7-0.1,1.5-0.2,2.2
			C129.9,83.5,129.8,83.5,129.6,83.5z"/>
		<path d="M135,69c1.1-0.6,2.1,0,3,0.4c0.4,0.2,0.6,1,0.7,1.5c0.1,1.1,0.1,2.1,0.1,3.2c0,0.8,0,1.7-1,1.9c-0.7,0.2-2.1-0.8-2.3-1.6
			c-0.1-0.3-0.2-0.7-0.1-1c0.2-1.3,0-2.6-0.4-3.9C134.8,69.5,134.9,69.3,135,69z M136.7,73.6c0.2,0,0.3,0,0.5,0c0-0.8,0-1.5-0.1-2.3
			c-0.1,0-0.2,0-0.3,0C136.8,72.1,136.8,72.8,136.7,73.6z"/>
		<path class="st0" d="M136.7,73.6c0-0.7,0.1-1.5,0.1-2.2c0.1,0,0.2,0,0.3,0c0,0.8,0,1.5,0.1,2.3C137,73.6,136.9,73.6,136.7,73.6z"
			/>
		<path d="M129.4,68.3c1.1-0.6,2.1,0,3,0.4c0.4,0.2,0.6,1,0.7,1.5c0.1,1.1,0.1,2.1,0.1,3.2c0,0.8,0,1.7-1,1.9
			c-0.7,0.2-2.1-0.8-2.3-1.6c-0.1-0.3-0.2-0.7-0.1-1c0.2-1.3,0-2.6-0.4-3.9C129.2,68.8,129.3,68.5,129.4,68.3z M131.1,72.8
			c0.2,0,0.3,0,0.5,0c0-0.8,0-1.5-0.1-2.3c-0.1,0-0.2,0-0.3,0C131.2,71.3,131.1,72.1,131.1,72.8z"/>
		<path class="st0" d="M131.1,72.8c0-0.7,0.1-1.5,0.1-2.2c0.1,0,0.2,0,0.3,0c0,0.8,0,1.5,0.1,2.3C131.4,72.8,131.2,72.8,131.1,72.8z
			"/>
	</g>
	<g>
		<path class="st0" d="M121.3,97.4c0.2,0.3,0.6,0.5,1.1,0.7c0-0.3-0.1-0.5-0.2-0.8C121.9,97.3,121.6,97.3,121.3,97.4z"/>
		<g>
			<g>
				<path class="st0" d="M116.8,91.9c0.1,0.6,0.1,1.1,0,1.7c0,0.3-0.1,0.5-0.1,0.8c0,0.2,0,0.4,0.1,0.5c0.2,0.5,0.2,0.5,0.1,0.1
					c0,0.8,0.7,1.5,1.5,1.5c0.8,0,1.5-0.7,1.5-1.5c0-0.2,0-0.4-0.1-0.7c0-0.1-0.2-0.6-0.1-0.3c0,0.3,0,0.5,0,0.8
					c0.2-1,0.3-1.9,0.1-2.9c-0.1-0.8-0.6-1.5-1.5-1.5C117.6,90.4,116.7,91.1,116.8,91.9L116.8,91.9z"/>
			</g>
		</g>
		<path d="M116.5,91.2c0,2.2,0,4.1,0,6c0,1,0.3,1.1,0.8,0.7c0.2-0.2,0.5-0.3,0.7-0.7c0.2-0.3,0.4-0.9,0.3-1.1
			c-0.2-1.2-0.1-2.3,0.1-3.5c0.2-1.3,0-1.6-0.7-1.4C117.3,91.3,117,91.2,116.5,91.2z M117.6,92.9c-0.1,1,0.2,2.1-0.1,3.1
			C117.2,94.9,117.1,93.9,117.6,92.9z"/>
		<path class="st0" d="M117.6,92.9c-0.5,1-0.4,2.1-0.1,3.1C117.8,94.9,117.4,93.9,117.6,92.9z"/>
		<path d="M119.2,89.8c0,2.2,0,4.1,0,6c0,1,0.3,1.1,0.8,0.7c0.2-0.2,0.5-0.3,0.7-0.7c0.2-0.3,0.4-0.9,0.3-1.1
			c-0.2-1.2-0.1-2.3,0.1-3.5c0.2-1.3,0-1.6-0.7-1.4C120.1,89.9,119.7,89.9,119.2,89.8z M120.3,91.5c-0.1,1,0.2,2.1-0.1,3.1
			C120,93.5,119.9,92.5,120.3,91.5z"/>
		<path class="st0" d="M120.3,91.5c-0.5,1-0.4,2.1-0.1,3.1C120.5,93.6,120.2,92.5,120.3,91.5z"/>
		<path d="M118.3,84.8c-0.1-0.8-0.1-1.6-0.2-2.4c-0.1-0.9-0.2-1.6-0.9-1.7c-0.4-0.1-1.2,1-1.2,1.8c0,1.7-0.1,3.3,0,5
			c0,1,0.5,1.4,1.1,1C118.2,87.9,118.4,87.3,118.3,84.8z M117.1,85.8c-0.2-0.9-0.3-1.7,0-2.5C117.1,84.1,117.1,84.9,117.1,85.8z"/>
		<path class="st0" d="M117.1,85.8c0-0.8,0-1.7,0-2.5C116.8,84.1,117,84.9,117.1,85.8z"/>
		<path d="M121,83.4c-0.1-0.8-0.1-1.6-0.2-2.4c-0.1-0.9-0.2-1.6-0.9-1.7c-0.4-0.1-1.2,1-1.2,1.8c0,1.7-0.1,3.3,0,5
			c0,1,0.5,1.4,1.1,1C120.9,86.6,121.1,85.9,121,83.4z M119.9,84.4c-0.2-0.9-0.3-1.7,0-2.5C119.9,82.7,119.9,83.6,119.9,84.4z"/>
		<path class="st0" d="M119.9,84.4c0-0.8,0-1.7,0-2.5C119.6,82.7,119.7,83.5,119.9,84.4z"/>
		<path d="M118.1,70.5c-0.9-0.4-1.7,0.3-2.3,0.8c-0.3,0.2-0.4,1-0.4,1.6c0,1.1,0.1,2.1,0.2,3.2c0.1,0.8,0.1,1.7,1,1.8
			c0.6,0.1,1.6-1,1.7-1.8c0-0.3,0.1-0.7,0-1c-0.2-1.3-0.3-2.6,0-3.9C118.3,71,118.2,70.8,118.1,70.5z M117.1,75.2
			c-0.1,0-0.2,0.1-0.4,0.1c-0.1-0.7-0.1-1.5-0.2-2.2c0.1,0,0.1,0,0.2,0C116.9,73.7,117,74.5,117.1,75.2z"/>
		<path class="st0" d="M117.1,75.2c-0.1-0.7-0.2-1.5-0.3-2.2c-0.1,0-0.1,0-0.2,0c0.1,0.7,0.1,1.5,0.2,2.2
			C116.9,75.3,117,75.2,117.1,75.2z"/>
		<path d="M122.2,69.2c-0.9-0.4-1.7,0.3-2.3,0.8c-0.3,0.2-0.4,1-0.4,1.6c0,1.1,0.1,2.1,0.2,3.2c0.1,0.8,0.1,1.7,1,1.8
			c0.6,0.1,1.6-1,1.7-1.8c0-0.3,0.1-0.7,0-1c-0.2-1.3-0.3-2.6,0-3.9C122.4,69.6,122.3,69.4,122.2,69.2z M121.3,73.8
			c-0.1,0-0.2,0.1-0.4,0.1c-0.1-0.7-0.1-1.5-0.2-2.2c0.1,0,0.1,0,0.2,0C121.1,72.4,121.2,73.1,121.3,73.8z"/>
		<path class="st0" d="M121.3,73.8c-0.1-0.7-0.2-1.5-0.3-2.2c-0.1,0-0.1,0-0.2,0c0.1,0.7,0.1,1.5,0.2,2.2
			C121,73.9,121.1,73.9,121.3,73.8z"/>
	</g>
	<g>
		<path d="M110.4,120.8c0,0.4,0,1,0.1,1.7c0.1,0.7,0.5,1,1.1,0.7c1.6-0.7,1.8-0.5,1.6-2.2c-0.1-0.7,0-1.4-0.1-2.1
			c-0.1-0.6-0.4-0.8-1-0.6c-0.1,0-0.2,0.1-0.3,0.1C110.1,118.8,110,118.9,110.4,120.8z M111.5,119.8c0.5,0.6,0.7,1.2,0.1,1.8
			C111.6,121,111.5,120.4,111.5,119.8z"/>
		<path class="st0" d="M111.5,119.8c0,0.6,0.1,1.2,0.1,1.8C112.2,121,112,120.4,111.5,119.8z"/>
		<path d="M116.7,116.7c-0.9-0.3-1.7,0.3-2.4,0.6c-0.3,0.2-0.4,0.8-0.4,1.1c0,0.8,0.2,1.5,0.3,2.2c0.1,0.6,0.2,1.2,1,1.2
			c0.6,0,1.6-0.8,1.7-1.4c0-0.2,0-0.5,0-0.7c-0.3-0.9-0.3-1.8-0.1-2.8C116.9,117,116.8,116.9,116.7,116.7z M115.9,120
			c-0.1,0-0.2,0.1-0.4,0.1c-0.1-0.5-0.1-1.1-0.2-1.6c0.1,0,0.1,0,0.2,0C115.6,119,115.7,119.5,115.9,120z"/>
		<path class="st0" d="M115.9,120c-0.1-0.5-0.2-1-0.4-1.5c-0.1,0-0.1,0-0.2,0c0.1,0.5,0.1,1.1,0.2,1.6
			C115.6,120.1,115.7,120.1,115.9,120z"/>
		<path d="M120.6,115.1c-0.9-0.3-1.7,0.3-2.4,0.6c-0.3,0.2-0.4,0.8-0.4,1.1c0,0.8,0.2,1.5,0.3,2.2c0.1,0.6,0.2,1.2,1,1.2
			c0.6,0,1.6-0.8,1.7-1.4c0-0.2,0-0.5,0-0.7c-0.3-0.9-0.3-1.8-0.1-2.8C120.8,115.5,120.7,115.3,120.6,115.1z M119.7,118.5
			c-0.1,0-0.2,0.1-0.4,0.1c-0.1-0.5-0.1-1.1-0.2-1.6c0.1,0,0.1,0,0.2,0C119.5,117.5,119.6,118,119.7,118.5z"/>
		<path class="st0" d="M119.7,118.5c-0.1-0.5-0.2-1-0.4-1.5c-0.1,0-0.1,0-0.2,0c0.1,0.5,0.1,1.1,0.2,1.6
			C119.5,118.5,119.6,118.5,119.7,118.5z"/>
		<path d="M110.4,112.5c0,0.4,0,1,0.1,1.7c0.1,0.7,0.5,1,1.1,0.7c1.6-0.7,1.8-0.5,1.6-2.2c-0.1-0.7,0-1.4-0.1-2.1
			c-0.1-0.6-0.4-0.8-1-0.6c-0.1,0-0.2,0.1-0.3,0.1C110.1,110.6,110,110.6,110.4,112.5z M111.5,111.6c0.5,0.6,0.7,1.2,0.1,1.8
			C111.6,112.8,111.5,112.2,111.5,111.6z"/>
		<path class="st0" d="M111.5,111.6c0,0.6,0.1,1.2,0.1,1.8C112.2,112.7,112,112.1,111.5,111.6z"/>
		<path d="M116.7,108.4c-0.9-0.3-1.7,0.3-2.4,0.6c-0.3,0.2-0.4,0.8-0.4,1.1c0,0.8,0.2,1.5,0.3,2.2c0.1,0.6,0.2,1.2,1,1.2
			c0.6,0,1.6-0.8,1.7-1.4c0-0.2,0-0.5,0-0.7c-0.3-0.9-0.3-1.8-0.1-2.8C116.9,108.7,116.8,108.6,116.7,108.4z M115.9,111.8
			c-0.1,0-0.2,0.1-0.4,0.1c-0.1-0.5-0.1-1.1-0.2-1.6c0.1,0,0.1,0,0.2,0C115.6,110.7,115.7,111.3,115.9,111.8z"/>
		<path class="st0" d="M115.9,111.8c-0.1-0.5-0.2-1-0.4-1.5c-0.1,0-0.1,0-0.2,0c0.1,0.5,0.1,1.1,0.2,1.6
			C115.6,111.8,115.7,111.8,115.9,111.8z"/>
		<path d="M120.6,106.9c-0.9-0.3-1.7,0.3-2.4,0.6c-0.3,0.2-0.4,0.8-0.4,1.1c0,0.8,0.2,1.5,0.3,2.2c0.1,0.6,0.2,1.2,1,1.2
			c0.6,0,1.6-0.8,1.7-1.4c0-0.2,0-0.5,0-0.7c-0.3-0.9-0.3-1.8-0.1-2.8C120.8,107.2,120.7,107,120.6,106.9z M119.7,110.2
			c-0.1,0-0.2,0.1-0.4,0.1c-0.1-0.5-0.1-1.1-0.2-1.6c0.1,0,0.1,0,0.2,0C119.5,109.2,119.6,109.7,119.7,110.2z"/>
		<path class="st0" d="M119.7,110.2c-0.1-0.5-0.2-1-0.4-1.5c-0.1,0-0.1,0-0.2,0c0.1,0.5,0.1,1.1,0.2,1.6
			C119.5,110.3,119.6,110.3,119.7,110.2z"/>
	</g>
	<g>
		<path d="M128.3,118.5c-0.1-0.5-0.2-1.5-0.3-2.4c0-1,0.4-1.5,1.3-1.2c2.3,0.6,2.6,0.3,2.6,2.7c0,1,0.2,2,0.3,3
			c0,0.8-0.4,1.3-1.2,1.1c-0.1,0-0.3-0.1-0.4-0.1C128.3,121.3,128.2,121.2,128.3,118.5z M129.9,119.6c0.6-0.9,0.7-1.8-0.2-2.5
			C129.8,117.9,129.9,118.8,129.9,119.6z"/>
		<path class="st0" d="M129.9,119.6c-0.1-0.8-0.1-1.7-0.2-2.5C130.7,117.8,130.5,118.7,129.9,119.6z"/>
		<path d="M137.6,122.9c-1.2,0.6-2.3,0-3.3-0.4c-0.4-0.2-0.7-1-0.7-1.5c-0.1-1.1,0-2.1,0-3.2c0-0.8,0-1.7,1.1-1.9
			c0.8-0.2,2.3,0.8,2.5,1.6c0.1,0.3,0.2,0.7,0.1,1c-0.2,1.3-0.1,2.6,0.4,3.9C137.8,122.5,137.7,122.7,137.6,122.9z M135.8,118.4
			c-0.2,0-0.3,0-0.5,0c0,0.8,0,1.5,0,2.3c0.1,0,0.2,0,0.3,0C135.7,119.9,135.7,119.2,135.8,118.4z"/>
		<path class="st0" d="M135.8,118.4c-0.1,0.7-0.1,1.5-0.2,2.2c-0.1,0-0.2,0-0.3,0c0-0.8,0-1.5,0-2.3
			C135.5,118.4,135.6,118.4,135.8,118.4z"/>
		<path d="M143.1,124.3c-1.2,0.6-2.3,0-3.3-0.4c-0.4-0.2-0.7-1-0.7-1.5c-0.1-1.1,0-2.1,0-3.2c0-0.8,0-1.7,1.1-1.9
			c0.8-0.2,2.3,0.8,2.5,1.6c0.1,0.3,0.2,0.7,0.1,1c-0.2,1.3-0.1,2.6,0.4,3.9C143.3,123.8,143.2,124.1,143.1,124.3z M141.3,119.8
			c-0.2,0-0.3,0-0.5,0c0,0.8,0,1.5,0,2.3c0.1,0,0.2,0,0.3,0C141.2,121.3,141.2,120.6,141.3,119.8z"/>
		<path class="st0" d="M141.3,119.8c-0.1,0.7-0.1,1.5-0.2,2.2c-0.1,0-0.2,0-0.3,0c0-0.8,0-1.5,0-2.3
			C141,119.8,141.1,119.8,141.3,119.8z"/>
		<path d="M128.3,108.8c-0.1-0.5-0.2-1.5-0.3-2.4c0-1,0.4-1.5,1.3-1.2c2.3,0.6,2.6,0.3,2.6,2.7c0,1,0.2,2,0.3,3
			c0,0.8-0.4,1.3-1.2,1.1c-0.1,0-0.3-0.1-0.4-0.1C128.3,111.6,128.2,111.5,128.3,108.8z M129.9,110c0.6-0.9,0.7-1.8-0.2-2.5
			C129.8,108.3,129.9,109.1,129.9,110z"/>
		<path class="st0" d="M129.9,110c-0.1-0.8-0.1-1.7-0.2-2.5C130.7,108.2,130.5,109,129.9,110z"/>
		<path d="M137.6,113.3c-1.2,0.6-2.3,0-3.3-0.4c-0.4-0.2-0.7-1-0.7-1.5c-0.1-1.1,0-2.1,0-3.2c0-0.8,0-1.7,1.1-1.9
			c0.8-0.2,2.3,0.8,2.5,1.6c0.1,0.3,0.2,0.7,0.1,1c-0.2,1.3-0.1,2.6,0.4,3.9C137.8,112.8,137.7,113,137.6,113.3z M135.8,108.8
			c-0.2,0-0.3,0-0.5,0c0,0.8,0,1.5,0,2.3c0.1,0,0.2,0,0.3,0C135.7,110.3,135.7,109.5,135.8,108.8z"/>
		<path class="st0" d="M135.8,108.8c-0.1,0.7-0.1,1.5-0.2,2.2c-0.1,0-0.2,0-0.3,0c0-0.8,0-1.5,0-2.3
			C135.5,108.8,135.6,108.8,135.8,108.8z"/>
		<path d="M143.1,114.7c-1.2,0.6-2.3,0-3.3-0.4c-0.4-0.2-0.7-1-0.7-1.5c-0.1-1.1,0-2.1,0-3.2c0-0.8,0-1.7,1.1-1.9
			c0.8-0.2,2.3,0.8,2.5,1.6c0.1,0.3,0.2,0.7,0.1,1c-0.2,1.3-0.1,2.6,0.4,3.9C143.3,114.2,143.2,114.4,143.1,114.7z M141.3,110.2
			c-0.2,0-0.3,0-0.5,0c0,0.8,0,1.5,0,2.3c0.1,0,0.2,0,0.3,0C141.2,111.7,141.2,110.9,141.3,110.2z"/>
		<path class="st0" d="M141.3,110.2c-0.1,0.7-0.1,1.5-0.2,2.2c-0.1,0-0.2,0-0.3,0c0-0.8,0-1.5,0-2.3
			C141,110.1,141.1,110.2,141.3,110.2z"/>
	</g>
	<g>
		<path d="M126.2,310.1c-0.6,3-1.2,5.7-1.7,8.4c-0.3,1.2-0.5,2.5-0.7,3.7c-0.1,0.6-0.5,1.1-1.3,1.1c-0.9-0.1-1.8-0.3-2.7-0.6
			c-0.1,0-0.1-0.8,0-1.1c1.1-3.4,1.4-7,1.4-10.5c0-1.5,0.5-1.8,1.9-1.6C124.1,309.6,125,309.8,126.2,310.1z M124.4,311.7
			c-1.3-0.3-1.4,0.4-1.5,1.1c-0.4,2.5-0.7,4.9-1.1,7.4c0,0.3,0.1,0.6,0.1,0.9C123.6,318.1,123.3,314.8,124.4,311.7z"/>
		<path d="M123.3,300c0.1-1.9,0.2-3.6,0.2-5.3c0-1.4-0.1-2.8-0.2-4.2c-0.1-1.3,0.4-1.8,1.6-1.6c3.3,0.5,3.5,0.8,3.4,4.1
			c-0.1,2.5-0.2,4.9-0.4,7.4c0,0.4-0.3,0.9-0.6,1.1c-0.2,0.2-0.9,0.1-1-0.2C125.6,300.3,124.5,300.3,123.3,300z M125.1,298.6
			c1.3-0.1,1.4-0.7,1.4-1.3c0.1-1.7,0.2-3.5,0.3-5.2c0-0.4-0.4-0.7-0.6-1.1c-0.4,0.3-1,0.6-1,1C125,294.2,125,296.3,125.1,298.6z"/>
		<path class="st0" d="M124.4,311.7c-1,3.1-0.8,6.4-2.4,9.3c0-0.3-0.2-0.6-0.1-0.9c0.3-2.5,0.7-4.9,1.1-7.4
			C123,312.1,123.1,311.4,124.4,311.7z"/>
		<path class="st0" d="M125.1,298.6c-0.1-2.3-0.1-4.5,0.1-6.7c0-0.4,0.7-0.7,1-1c0.2,0.4,0.6,0.7,0.6,1.1c0,1.7-0.2,3.5-0.3,5.2
			C126.5,298,126.4,298.5,125.1,298.6z"/>
		<path d="M135.8,311.4c-0.6,3-1.2,5.7-1.7,8.4c-0.3,1.2-0.5,2.5-0.7,3.7c-0.1,0.6-0.5,1.1-1.3,1.1c-0.9-0.1-1.8-0.3-2.7-0.6
			c-0.1,0-0.1-0.8,0-1.1c1.1-3.4,1.4-7,1.4-10.5c0-1.5,0.5-1.8,1.9-1.6C133.7,311,134.7,311.2,135.8,311.4z M134,313.1
			c-1.3-0.3-1.4,0.4-1.5,1.1c-0.4,2.5-0.7,4.9-1.1,7.4c0,0.3,0.1,0.6,0.1,0.9C133.2,319.5,133,316.1,134,313.1z"/>
		<path class="st0" d="M134,313.1c-1,3.1-0.8,6.4-2.4,9.3c0-0.3-0.2-0.6-0.1-0.9c0.3-2.5,0.7-4.9,1.1-7.4
			C132.6,313.5,132.7,312.7,134,313.1z"/>
	</g>
	<g>
		<path d="M113.7,255c0.1,1.7,0.2,3.5,0.3,5.2c0.1,1.4-0.6,1.8-1.9,1.2c-0.4-0.2-0.9-0.4-1.2-0.7c-0.3-0.3-0.7-0.9-0.6-1.3
			c0.6-2.5,0-4.9-0.5-7.3c-0.1-0.5-0.3-1-0.4-1.6c-0.2-1.1,0.1-1.5,1.2-1.5c2.9,0,3.1,0.2,3.2,3.2C113.8,253.1,113.8,254,113.7,255
			C113.8,255,113.7,255,113.7,255z M111.8,250.9c-0.6,1.9-0.1,6.7,0.9,8.2C112.1,256.3,112.8,253.7,111.8,250.9z"/>
		<path d="M113.3,269c-0.3,3.9-0.5,7.4-0.8,10.9c0,0.3,0,0.7-0.1,1c-0.2,0.9-1,1.2-1.6,0.5c-0.9-1-1.6-2.1-1.3-3.6
			c0.5-2.6,0.6-5.3,0.1-8c-0.2-1.1,0.2-1.5,1.3-1.4C111.7,268.5,112.5,268.8,113.3,269z M111.4,277.4
			C111.4,277.4,111.4,277.4,111.4,277.4c0.2-2.2,0.3-4.4,0.4-6.6c-0.1,0-0.3,0-0.4,0C111.4,273,111.4,275.2,111.4,277.4z"/>
		<path class="st0" d="M111.8,250.9c1,2.8,0.3,5.4,0.9,8.2C111.8,257.5,111.3,252.8,111.8,250.9z"/>
		<path class="st0" d="M111.4,277.4c0-2.2,0-4.4,0-6.6c0.1,0,0.3,0,0.4,0C111.7,273,111.6,275.2,111.4,277.4
			C111.4,277.4,111.4,277.4,111.4,277.4z"/>
		<path d="M113.3,288.2c-0.3,3.9-0.5,7.4-0.8,10.9c0,0.3,0,0.7-0.1,1c-0.2,0.9-1,1.2-1.6,0.5c-0.9-1-1.6-2.1-1.3-3.6
			c0.5-2.6,0.6-5.3,0.1-8c-0.2-1.1,0.2-1.5,1.3-1.4C111.7,287.8,112.5,288,113.3,288.2z M111.4,296.7
			C111.4,296.7,111.4,296.7,111.4,296.7c0.2-2.2,0.3-4.4,0.4-6.6c-0.1,0-0.3,0-0.4,0C111.4,292.3,111.4,294.5,111.4,296.7z"/>
		<path class="st0" d="M111.4,296.7c0-2.2,0-4.4,0-6.6c0.1,0,0.3,0,0.4,0C111.7,292.3,111.6,294.5,111.4,296.7
			C111.4,296.7,111.4,296.7,111.4,296.7z"/>
	</g>
	<g>
		<path d="M102.3,207.9c0.7,0,1.2,0.3,1.3,1.1c0.2,1.3,0.3,2.7,0.4,4c0.2,2.1,0.4,4.3,0.8,6.4c0.3,1.9,0.1,2.4-1.9,2.8
			c-0.4,0.1-0.8,0.2-1.2,0.2c-0.8,0.1-1.2-0.3-1-1.1c0.6-3.9-0.5-7.6-1.6-11.2c-0.5-1.4-0.3-1.7,1.2-2
			C100.9,208.1,101.5,208,102.3,207.9z M102,209.7c-1,0-1.1,0.5-1,1.2c0.4,2.5,0.7,5,1.1,7.6c0.1,0.5,0.3,0.9,0.6,1.6
			C103.2,218.5,102.7,212.1,102,209.7z"/>
		<path d="M113,205.2c0.2,3.1,0.3,6,0.4,8.8c0.1,1,0.2,2,0.3,3c0.1,1.5-2.2,3.1-3.5,2.3c-0.4-0.2-0.6-1-0.6-1.5
			c0.7-3.5-0.3-6.9-1.3-10.2c-0.4-1.5-0.4-1.7,1.1-2c0.7-0.1,1.4-0.3,2.2-0.4C112.3,205.2,112.8,205.2,113,205.2z M111.6,217.4
			c0.9-1,0.7-1.6,0.7-2.3c-0.1-1-0.2-2-0.3-3c-0.1-1.3,0-2.6-0.1-3.8c0-0.5-0.1-1.1-1-1.1c-0.1,0.3-0.3,0.7-0.3,1
			C110.9,211.1,111.2,214,111.6,217.4z"/>
		<path d="M114.4,231c0.3,2.7,0.5,5.5,0.8,8.2c0.1,1.3-0.1,1.6-1.3,2c-0.3,0.1-0.5,0.1-0.8,0.2c-2,0.4-2.1,0.2-2-1.8
			c0.1-3.3,0.1-6.7-0.9-10c-0.4-1.4-0.2-1.7,1.2-1.9c0.7-0.1,1.3-0.2,2-0.3c0.8-0.1,1.3,0.3,1.3,1.1c0,0.8,0,1.6,0,2.4
			C114.6,231,114.5,231,114.4,231z M113.1,239.1c0.8-1.8,0.4-7.9-0.5-9.5C111.7,231.6,112,237.7,113.1,239.1z"/>
		<path d="M93.3,210.9c1.2,0,1.6,0.3,1.8,1.4c0.4,3.2,0.9,6.5,1.3,9.7c0.1,1.1-0.3,1.4-1.4,1.3c-0.3,0-0.7-0.1-1-0.1
			c-0.6-0.1-1.3-0.1-1.6-0.5c-0.2-0.3,0.1-1.1,0.2-1.6c0-0.5,0.1-0.9,0-1.4c-0.4-2.1-1-4.2-1.4-6.3
			C90.6,211.5,91.1,210.9,93.3,210.9z M94.3,220.9c0.2-2.9-0.3-6.8-1-8c-0.1,0.2-0.4,0.3-0.4,0.4c0.3,2.2,0.5,4.4,0.8,6.6
			C93.8,220.1,94,220.4,94.3,220.9z"/>
		<path d="M106.8,241.1c-1.2,0-1.7-0.6-1.9-1.5c-0.4-1.7-0.8-3.2-2.2-4.4c-0.3-0.2-0.4-0.8-0.4-1.3c-0.1-0.5,0.1-1.1,0-1.6
			c-0.2-2.4-0.2-2.4,2.1-3c0.3-0.1,0.6-0.1,1.1-0.1c0.7,1.8,0.7,3.7,0.9,5.5C106.7,236.9,106.7,239,106.8,241.1z M104.5,233.9
			c0.1-1,0.4-1.7-0.5-2.2C103.6,232.5,103.5,233.1,104.5,233.9z"/>
		<path class="st0" d="M102,209.7c0.6,2.4,1.1,8.7,0.7,10.4c-0.3-0.7-0.6-1.1-0.6-1.6c-0.4-2.5-0.7-5-1.1-7.6
			C100.9,210.2,101.1,209.7,102,209.7z"/>
		<path class="st0" d="M111.6,217.4c-0.4-3.3-0.7-6.2-1-9.2c0-0.3,0.2-0.7,0.3-1c0.9,0,1,0.5,1,1.1c0,1.3,0,2.6,0.1,3.8
			c0.1,1,0.2,2,0.3,3C112.3,215.7,112.5,216.4,111.6,217.4z"/>
		<path class="st0" d="M113.1,239.1c-1.1-1.3-1.4-7.5-0.5-9.5C113.6,231.2,113.9,237.3,113.1,239.1z"/>
		<path class="st0" d="M94.3,220.9c-0.3-0.5-0.5-0.8-0.5-1c-0.3-2.2-0.6-4.4-0.8-6.6c0-0.1,0.2-0.3,0.4-0.4
			C93.9,214,94.4,217.9,94.3,220.9z"/>
		<path class="st0" d="M104.5,233.9c-1-0.8-0.9-1.4-0.5-2.2C104.9,232.2,104.6,232.9,104.5,233.9z"/>
		<path d="M95.3,230.3c0.9,0,1.2,0.1,1.4,0.5c0.3,1.1,0.7,2.1,1,3.2c0.1,0.3-0.2,0.5-1.1,0.4c-0.3,0-0.5,0-0.8,0c-0.4,0-1,0-1.3-0.2
			c-0.2-0.1,0.1-0.3,0.1-0.5c0-0.2,0-0.3,0-0.5c-0.3-0.7-0.7-1.4-1.1-2.1C93.3,230.5,93.7,230.3,95.3,230.3z M96.1,233.6
			c0.1-1-0.3-2.2-0.8-2.6c-0.1,0-0.3,0.1-0.3,0.1c0.2,0.7,0.4,1.4,0.6,2.2C95.7,233.3,95.9,233.4,96.1,233.6z"/>
		<path class="st0" d="M96.1,233.6c-0.2-0.2-0.4-0.2-0.4-0.3c-0.2-0.7-0.5-1.4-0.6-2.2c0,0,0.2-0.1,0.3-0.1
			C95.8,231.3,96.2,232.6,96.1,233.6z"/>
	</g>
</g>
</svg>
