<?xml version="1.0" encoding="utf-8"?>
<!-- Generator: Adobe Illustrator 21.0.2, SVG Export Plug-In . SVG Version: 6.00 Build 0)  -->
<svg version="1.1" id="Layer_1" xmlns="http://www.w3.org/2000/svg" xmlns:xlink="http://www.w3.org/1999/xlink" x="0px" y="0px"
	 viewBox="0 0 315 165" style="enable-background:new 0 0 315 165;" xml:space="preserve">
<style type="text/css">
	.st0{fill:#4D4D4D;}
	.st1{fill:#D2D2D2;}
</style>
<g>
	<g>
		<path class="st0" d="M159,84.1c0-19.8,0-38,0-56.7c4.4,0,7.8,0,12.3,0c0,18.3,0,36.7,0,56.2c41,0,81,0,121.4,0
			c0,6.2,0,11.3,0,17.1c-61.8,0-123.5,0-185.6,0c0-5.5,0-10.6,0-16.7C124,84.1,140.7,84.1,159,84.1z"/>
		<g>
			<g>
				<g>
					<g>
						<path class="st1" d="M159,84.7c0.3-0.1,0.1-0.3-0.6-0.2l-0.5,0.3L159,84.7z"/>
						<path class="st1" d="M153.9,84.1c-0.9,0.2-1.9,0.4-1.3,0.7c0.9-0.3,1.1-0.2,2-0.6c0.8,0,1.3,0.1,1.2,0.2
							c0.3-0.1,1.2,0.1,1.6-0.1c-1-0.3-2.2-0.3-3.5-0.1C153.6,84.3,153.9,84.2,153.9,84.1z"/>
						<path class="st1" d="M116.9,101.2l-0.5,0C116.6,101.2,116.7,101.2,116.9,101.2z"/>
						<path class="st1" d="M162.4,101.4c-0.3,0-0.5,0-0.5,0.1C162.2,101.4,162.5,101.4,162.4,101.4z"/>
						<path class="st1" d="M170.2,101.8c-0.2,0-0.3,0-0.5,0C169.9,101.8,170.1,101.8,170.2,101.8z"/>
						<path class="st1" d="M116.9,101.2l1.2,0.1C118.2,101.2,117.5,101.2,116.9,101.2z"/>
						<path class="st1" d="M143.8,84.9c0.3,0,0.5,0,0.7-0.1C144.2,84.9,144,84.9,143.8,84.9C143.8,84.9,143.8,84.9,143.8,84.9z"/>
						<path class="st1" d="M106.3,90.6l0-0.4c0-0.1-0.1-0.2-0.1-0.3L106.3,90.6z"/>
						<path class="st1" d="M115.9,83.3c-0.3,0-0.5,0.3-0.6,0.4c0.2-0.1,0.5-0.2,0.8-0.2C116.1,83.4,116,83.4,115.9,83.3z"/>
						<path class="st1" d="M140.3,83.8l0.4,0C140.7,83.8,140.5,83.8,140.3,83.8z"/>
						<path class="st1" d="M107.5,101.5c0,0,0.1,0.1,0.2,0.1C107.7,101.6,107.6,101.6,107.5,101.5z"/>
						<path class="st1" d="M160.3,66.2C160.3,66.2,160.3,66.2,160.3,66.2C160.3,66.3,160.3,66.4,160.3,66.2z"/>
						<path class="st1" d="M158.9,84.1l0-0.2c-0.1,0-0.1-0.1-0.2-0.1L158.9,84.1z"/>
						<path class="st1" d="M184.4,102.1C184.4,102.1,184.4,102.1,184.4,102.1C184,102.1,184.2,102.1,184.4,102.1z"/>
						<path class="st1" d="M287.5,82.5c1.5,0.3-2.4,0.3-0.2,0.6C287.1,83,289.3,82.6,287.5,82.5z"/>
						<path class="st1" d="M143.4,84.9c-0.2,0-0.4,0-0.6,0C143.1,84.9,143.2,84.9,143.4,84.9z"/>
						<path class="st1" d="M287.3,83.1L287.3,83.1l0.2,0C287.4,83.1,287.4,83.1,287.3,83.1z"/>
						<path class="st1" d="M217.2,102c-0.1,0-0.2-0.1-0.3-0.1C216.8,101.9,216.9,101.9,217.2,102z"/>
						<path class="st1" d="M192.8,101.6l0.6,0C193.1,101.6,192.9,101.6,192.8,101.6z"/>
						<path class="st1" d="M229.8,101.6c0.3,0,0.4,0.1,0.9,0c0,0-0.1,0-0.1,0C230.4,101.6,230.2,101.6,229.8,101.6z"/>
						<path class="st1" d="M243,101.6c-0.1,0-0.2,0-0.2-0.1c-0.1,0-0.3,0-0.4,0L243,101.6z"/>
						<path class="st1" d="M160.5,28.6c-0.1-0.1-0.2-0.2-0.3-0.3C160.3,28.5,159.9,28.6,160.5,28.6z"/>
						<path class="st1" d="M143.8,84.8c-0.1,0.1-0.2,0.1-0.4,0.1c0.2,0,0.3,0,0.4,0C143.9,84.8,143.9,84.8,143.8,84.8z"/>
						<path class="st1" d="M230.4,99.3l2.1,0C231.9,99.4,231.1,99.3,230.4,99.3z"/>
						<path class="st1" d="M198.7,84.8l-0.5,0C198.4,84.8,198.5,84.8,198.7,84.8z"/>
						<path class="st1" d="M238.7,99.3c0.4,0.1,0.8,0.2,1.2,0.2c0.1,0,0.2,0,0.2-0.1L238.7,99.3z"/>
						<path class="st1" d="M160.2,28.3L160.2,28.3L160.2,28.3z"/>
						<path class="st1" d="M160.6,40.6c0-2-0.4-0.9-0.6-1.4c-0.1-2.4,0.3-1.1,0.5-1.9c-0.1-1.5-0.4-2.6-0.4-3.7
							c0.1-0.1,0.1-0.3,0.2,0c-0.1-0.7-0.1-1.8-0.2-2.9c0-0.5,0-1.2,0-1.6c0-0.2-0.1-0.4-0.1-0.7c0,0,0.1,0,0.1-0.1
							c0.1,0,0.1,0.1,0.2,0.1c-0.2-0.2-0.5-0.4-0.5-0.5c0.3,0,0.6-0.1,0.9-0.1c0.3,0,0.6,0,0.8,0.1c-0.5,0-0.6,0.1-0.8,0.2l0.9-0.1
							c0.9,0.3-1.4,0.1-1,0.4c0.1,0,0.7-0.1,1.2-0.1c0.5,0,1-0.1,1.4-0.1c0.9-0.1,1.8-0.1,2.5-0.1c0.3,0.3-3.3,0.1-1.4,0.4l-2.2-0.1
							c1.7,0.5-1.3,0,0.2,0.5c2.9,0.1,3.2-0.2,6-0.1c0.6-0.2-0.2-0.3,0.4-0.5c0.3,0,0.6,0,0.9-0.1c0.1,0,0.2,0,0.3,0
							c0.1,0,0.1,0,0.2,0c0.2,0,0.4,0.1,0.4,0.1c-0.1,0.4-0.3,0.6-0.4,0.7c0,0,0,0,0,0c0,0.1,0,0.1,0,0.2c0,0.1,0,0.3,0,0.4
							c0,0.3,0,0.7,0.1,1.2c0.2,0.8,0.7,1.1,0.4,3.2l-0.4-0.7c0,2.8,0.6,1.6,0.3,4.5c-0.2-0.5-0.1-2.2-0.2-1.8
							c-0.3,1.9,0.2,1.3,0.2,2.8l-0.3,0.3c0.1,2.9,0.3,6.2,0.4,9.4c-0.1-0.2-0.2-0.7-0.3,0c0.2,4.1,0,8.8-0.2,12.7l0.3,1.5
							c0,0.4-0.1,0.7-0.2,0.3c-0.1,1.5,0.2,0.1,0.3,0.8c0,0.9-0.2,1.2-0.3,0.6c0.2,2.7,0.5,7.8,0.2,10.6l-0.1-0.6
							c-0.1,2.2,0.6,2.5,0.3,4.6l-0.1-0.4c0,1.7,0,2.8,0,5.7c1.1,0,2.3,0,3.4,0c0.8,0,1.6,0,2.4,0c1.5,0,3,0.1,4.2,0.2
							c0.7-0.4,4.8,0.2,5.1-0.4c2.8,0.3,2,0.4,5.9,0.6c1,0,1.6-0.4,2.8-0.4l0,0.3l1.7-0.3l0.9,0.4l1.2-0.1c-0.5,0-1-0.1-1-0.2
							c1.9-0.1,4.6,0.2,4.7,0.4l4.5-0.3c-0.1,0.1-0.8,0.2-1.4,0.2c2.4-0.3,0.4,0.3,2.6,0c-0.3-0.1,0.2-0.2,0.2-0.2
							c1.1,0.2,3.6,0.2,5.4,0.1l-0.4,0.2c3.3,0.1,7-0.1,10.7-0.1c-1.3-0.1-1-0.5,0.1-0.5l0.4,0.3c0.7-0.2-1.1-0.1,0.3-0.4
							c1.4,0,0.9,0.4,0.1,0.5l1.7-0.1c0.1,0.1-0.3,0.1-0.4,0.3c0.7-0.2,2.9,0.3,3.9,0l0.1,0.1c3.7,0,5.4-0.1,8.4-0.1
							c0.1-0.3,1.2-0.2,2.1-0.4c2.2,0.1,4.7,0.3,7.4,0.3c1.9-0.1,0.6-0.2,1.4-0.4c0.1,0.3,2.8,0.2,1.4,0.4c3.2,0,4.1-0.1,8.2-0.3
							c-0.4-0.1-0.9-0.2-0.7-0.2c0.7,0,1.7,0.1,1.6,0.2l-0.2,0c4.6-0.4,10.5,0.7,14.2,0.2l-0.2,0l3.8-0.3c1.7,0-1,0.2,0.2,0.4
							c4.1-0.4,6.4,0.1,9.8-0.2c0.6,0.2,1.4,0.3,2.4,0.3c0.5,0,1,0,1.5,0c0.1,0,0.1,0,0.2,0l0,0.1c0,0.1,0,0,0,0.4
							c0,0.7,0,1.3,0,1.9c0,1.3,0,2.4-0.2,3.4l0.2-0.2c0.2,0.9-0.1,1.1-0.1,1.8c0.1-0.1,0.2-1,0.3-0.4c0,1.4,0.1,2.9,0.1,4.3
							c0,0.7,0,1.5,0,2.2l0,0.6l0,0.2l0,0.3l-0.3,0l-0.1,0l-0.1,0l-0.2,0l-1.9-0.1l-3.7-0.1c-2.5-0.1-5-0.1-7.5-0.2
							c-2.9,0-1.6,0.9-5.3,0.5l1-0.3c-5.8,0.4-11.9,0-17.5,0.3c0.3-0.1,0.3-0.2,0.9-0.2c-1.2-0.2-4.4,0-4.5,0.2
							c-0.9,0-0.2-0.2-0.7-0.3c-1.2-0.1-3,0.3-3.7,0.1c-0.1,0,0.3-0.1,0.6-0.1c-0.8,0.1-3.7,0-2.9,0.2c-2.1-0.1-4.1,0.1-5.8,0
							c-1.1,0.3-3.6-0.1-4,0.3c0.2-0.5-3.7-0.4-5.1-0.2c0.5-0.1-1.2-0.1-0.6-0.3c-1.5,0-2.9,0.1-2.7,0.3c-2.8-0.5-5.7,0.4-7.3-0.3
							c-4.6,0.2-8.8,0.4-12.9,0.5c0.1-0.5,4.5,0,4.4-0.5c-3.9,0.2-6.1,0.6-10,0.5c-1-0.1,0.6-0.2,0.9-0.3c-3.9,0.2-7.5,0-11,0.2
							c0,0,0.4-0.1,0.7-0.1c-0.7,0-1.6-0.1-1.5,0.1l0.7-0.1c1.1,0.3-2.7,0.6-2.8,0.8c1.2-0.6-3.4-0.1-1.6-0.9c-0.4,0-1,0.1-0.9,0.3
							c-0.7,0-0.9-0.1-0.2-0.3c-2.4,0.1-1.6,0.3-3.8,0.3c0-0.1,0.5-0.1,0.7-0.3c-1.1,0.2-2.3,0.4-4.1,0.3c0.1-0.1-0.1-0.1,0.5-0.1
							c-3.2,0-5.5,0.5-9,0.3c1-0.4-1.2-0.1-1.4-0.5l-1.9,0.1l0.8,0.2c-1.7,0-3.1,0.3-4.6,0.1l1.2-0.2l-3.1,0.1l1.8,0.1
							c-1.7,0.2,0.2,0.5-2,0.4c0.4,0-1.7,0-2.5-0.2l0,0c-0.8,0.1-1.7,0.2-2.9,0.2c-0.3-0.1,0.3-0.4,0-0.5c-0.8,0.3-3.9,0.1-4.9,0.4
							c0.3-0.1,0.4-0.3,0.2-0.3l-0.7,0.3c-0.8-0.1-0.9-0.1-0.8-0.3c-2.3,0,0.7,0.5-2,0.3c0.2,0,0.1-0.1,0.6-0.1
							c-2.8-0.1-5.3,0.2-7.9,0c-0.7-0.4,2.2-0.1,1.4-0.4c-3.7,0.1-7.6,0.5-11.1,0.4l0.7,0c-0.5,0.5-2.6-0.3-4.4,0
							c0.4,0,0.6-0.3,0.5-0.2c-2.4-0.1-5,0.1-8.6,0.3l0.5-0.1c-1.4-0.1-3.8-0.1-5.3-0.1c-0.5,0.1-1.3,0.1-0.8,0.3
							c-1-0.2-1.9-0.2-2.9-0.3l-0.7,0l-0.6,0c-0.3,0-0.6,0-0.9,0l0-0.6l-0.1-0.7c0-0.6-0.1-1.3-0.1-1.9c0-1.3,0-2.5,0.2-3.8
							c0,0.5,0.1,1.2,0.1,0.8l-0.1-3.6c-0.2,0.3-0.1,0.5-0.3,1.2c-0.1-0.5-0.2-1.5-0.2-2.4c0.2,1.6,0.4,0,0.5-0.7
							c-0.1,0.1-0.1-0.1-0.2-0.1c0.4-1.9-0.5-0.3-0.2-2.9l0.1,0.1c0-0.5-0.1-1-0.1-1.5c0.3,0,0.8-0.1,1.2,0c0.4,0.3-0.9,0.1-0.7,0.3
							c0.3,0,0.5,0,0.8-0.1c0.3,0,0.7-0.1,1-0.1c0.7-0.1,1.4-0.1,2,0c-0.6,0.1-1.5,0.1-2.1,0.1c1.4,0.3,1.6,0.2,2.7,0.3l-0.1,0
							l2.5,0.1l-0.6-0.1c1.8-0.7,3.7-0.1,6.2-0.6c-2.4,0.4-0.4,0.3-0.6,0.6c0.6,0.1,1.6,0.2,1.3,0.3c1.2-0.2,1.9,0.2,3.6-0.2
							c0.1,0.1,1.2,0,1,0.3c1.5-0.1-0.4-0.2-0.2-0.3c2.3-0.3,5.5,0.4,8.8-0.1c2.9-0.2,3.4-0.5,6.1-0.7c0.9,0.2-0.7,0.4-0.7,0.4
							c1.5,0.1,2.5,0.1,3.9,0c-0.3,0.1,0,0.2,0.4,0.3c1.1,0,0.7-0.4,2.2-0.2c-0.2,0.1-0.6,0.3-1.1,0.4c1.3-0.1,2.6-0.3,3.9-0.4
							c0.4,0.2-0.8,0.3-1.3,0.4c1.5-0.1,3.9-0.2,4.4-0.4l-1-0.1c0.5,0,0.3,0.2-0.1,0.3c-1.3,0.2-1.9-0.1-1.9-0.2l1-0.1
							c-1-0.6-3.8,0.1-5.8,0.1l0.8-0.4l-2,0.3c-0.4-0.1-0.7-0.3,0.2-0.4c-1.4-0.2-1.2,0.1-2.4-0.1c-0.1,0-0.1-0.1,0-0.1l-1.3,0.1
							c0.3-0.1-0.2-0.3,0.6-0.2c-2.4-0.2-3.9,0.3-4.8,0l0.2,0c-3.4,0.1-0.3,0.3-2.8,0.7l-1.7-0.8l-0.3,0.3c-0.3,0-1,0-0.9-0.2
							c-1.3,0.2,0.2,0.1-0.5,0.3c-1.7-0.3-4.6,0.1-5-0.4c-0.6,0.2,1.6,0.2-0.2,0.3c-0.5-0.5-2.1,0.1-3.6-0.2
							c0.5-0.3,1.9-0.1,0.4-0.4c-0.9,0.5-3-0.1-4.3,0c-0.1,0.4-2.8,0.2-4.9,0.3c0.1,0-0.5-0.1-1.3-0.1c-0.4,0-0.9,0-1.4-0.1
							c-0.7,0-1.3,0-2-0.1c0,0.5,0,0.9,0,1.4c0,0.4,0,0.8,0,1.1l-0.1-0.1c0.4,0.4,0.3,2.5,0.4,4c-0.2-0.1-0.3-0.3-0.4-1.1l0,1.4
							c0.1,0.3,0.2,0.8,0.2,1.7l-0.3-0.4c0,1.9,0.3,3.8,0.1,6.2c0.3,0.1,0.7-1.9,0.9,0.6c-0.1,0.1-0.4,0.2-0.4-0.5
							c0,0.2,0.1,0.8,0.1,1.2l-0.2-1c-0.1,1.1,0.2,0.5,0.2,1.5c-0.2,0-0.1,0.8-0.3,0.8c0-0.3,0.1-1.1,0-1.4c0,0.7-0.1,1.6-0.1,2.4
							c0.5,0,0.9,0.1,1.1,0.2c-0.1-0.1,0.2-0.3,1.1-0.3c1.9,0,0.7,0.2,1.8,0.3c0.5-0.1,1.7,0,1.7-0.3c0.6,0,0.7,0.1,0.9,0.2
							c1-0.1,4.6,0,3.5-0.4l-0.3,0c0,0,0.1,0,0.2,0c0,0,0,0,0,0h0c3.2-0.3,6.6,0.2,9.8,0l0,0.1c1.9-0.1,4.2-0.1,5.6-0.3
							c0.6,0,1.3,0.2,1.1,0.3c1.4-0.1,1.6-0.2,3.7,0c-1.5,0.2,0.5,0.2-1.5,0.1c1.9,0.1,2.3,0.2,4.3,0c-0.7,0.3,1.4,0.3,2.3,0.2
							l-1.3-0.2c1,0,1.9,0,2.8,0l-0.5,0.3c3.8,0.4,6.9-0.7,9.9,0c1-0.2-2.1-0.2-1.2-0.4c1.8,0,3.6,0.5,4.2,0.5
							c2.4,0.2,2.3-0.5,4.8-0.4c-0.3-0.1-0.6-0.4,1.3-0.5c1.8,0,2.2,0.5,1.1,0.6c-0.4,0-0.6,0-0.6-0.1c-0.6,0-1.3,0.1-0.6,0.2
							l0.2-0.1c0.9,0.1,3.3,0.1,2.7,0.3c1.3-0.1,0.6-0.2-0.4-0.3c2.3,0.2,3.5,0,5.9,0.1c-0.4-0.1-0.7-0.2-0.3-0.2
							c3.4,0.1,1.5-0.2,3.8-0.3c1.3,0.2-0.5,0.4,1.9,0.3c1.4,0.1,0.3,0.3-0.3,0.4c2.1-0.2,4,0.2,5.2,0.2l-1.1,0.1
							c0.7-0.1,1.2-0.1,1.8-0.1l-0.6-0.2c0.7,0,1.2,0,1.2,0.1c0.7-0.2-0.5-0.4,0.8-0.6c0.9,0.1,2.7-0.1,3,0.2
							c-2.8-0.1,0.3,0.3-2,0.4c0.5,0,1,0,1.7,0c0.1,0-0.1,0.1-0.3,0.1c2.6,0.3,1.2-0.4,4-0.3c-0.3,0.2,0.6,0.3,1.1,0.3
							c-1.1,0-0.5-0.3,0.5-0.4c1.8,0.1,1.9-0.1,2.8-0.1l-1.1-0.1c0.4-0.2,1.2-0.2,2.5-0.2c0.1,0.1-1.1,0.1-0.7,0.2
							c1.4-0.3,3.1,0.3,5,0.1c0.9,0.1,0.1,0.3,0.9,0.4c2.1-0.2,2.3,0.2,4.5,0.1c-0.6-0.2-0.8-0.2,0.8-0.4l-3.7,0.2l2.4-0.3
							c-1.1,0-2.3,0.1-3,0.1c1.1-0.2,1-0.1,0.5-0.3c1.5,0.4,3-0.2,4.8,0l-0.1,0.6c2.6,0.3,4.7-0.3,8.1-0.2l-1.1-0.1
							c0.5-0.2,2.1,0,3.2-0.1c-0.1,0.2,0.6,0.3,1.1,0.4c-0.1-0.1,2.5,0,2.8-0.4l1.5,0.3c2.8,0.1,3.2-0.6,5.8-0.5
							c-0.8,0.2,0.4,0.4-1.4,0.5c0.9,0,1.7,0,1.7-0.1c0.5,0.1,2.5-0.3,3.3-0.1c0.4-0.1,0.5-0.3,1.5-0.3c0.1,0,0,0.1,0,0.1
							c0-0.1,1.6-0.1,0.7-0.4c2.7,0.6,7.6,0,10,0.5c1.9-0.1,4.3-0.1,6-0.1c-0.1,0.1,0,0.1-0.3,0.1c2.4,0.2,1.5-0.6,4.3-0.4
							c1.4,0.3-1.5,0.2-0.6,0.3c0.4,0.6,3.3-0.1,5.2,0.3l-0.4,0c1.4,0.2,3.5-0.2,5.8-0.2c0,0-0.1,0.1,0,0.1c1.6-0.3,4.6-0.4,6.8-0.5
							c-0.7,0.3-1,0.1-0.6,0.4c1,0-0.3-0.4,1.7-0.5c0.6,0.1,2.1,0.3,2.3,0.5l-1.9,0c1,0.4,2.4,0,3.4,0l-0.1,0.2
							c2.9-0.1,2.9-0.4,6-0.4l-0.3-0.1c1.7-0.4,1.4,0.2,3.1-0.1l0.5,0.4c1.1-0.1,3.9-0.4,5.9-0.5c-1.1,0.3-3.5,0.4-4.9,0.6
							c1.1,0,3.8,0,4.3-0.2c-0.4,0-1,0.1-1.5,0.1c0.7-0.2,1.4-0.3,2.3-0.3c0.4,0,0.9-0.1,1.4-0.1c0.6,0,1.2,0,1.8,0
							c0-0.1,0-0.2,0-0.2c0.2,0.3,0.3,0,0.4-0.8c0-0.2,0-0.4,0-0.6c0-0.2,0-0.4,0-0.6c0-0.4,0-0.8,0-1.2c0-1.7,0-3.6,0.3-4.4
							c-0.1-1.5-0.1-3.1-0.1-4.7c0-0.8,0-1.6,0.1-2.4c0-0.5,0-1,0-1.5c0-0.7,0-1.4,0-2.2c-1.3,0-2.6,0-3.9,0c1.6,0.6-1.3,0-1,0.6
							c-1.1,0-1.5,0-1.6,0l-3.2-0.4c-0.8-0.2,1-0.1,0.9-0.3c-2.3,0-1-0.3-2.5-0.4c0.3,0.2-0.8,0.3-2.1,0.2l1.9,0.3
							c-3.2,0.3-2.8-0.5-6.1-0.2l1-0.2c-1.7,0.1-6.2,0-7.8,0.5c-0.3-0.1-0.7-0.2,0-0.3c-4-0.1-8.9,0.5-12,0.2l0.3-0.1
							c-0.7,0-1.3,0.3-2.2,0.1c0-0.1,0.3-0.1,0-0.2c-0.4,0.1-2,0.3-3,0.2l0.8-0.2c-3.9-0.2-6,0.4-9.3,0.5c0-0.4-3.1-0.6-4.6-0.7
							l0.1-0.1c-4.6-0.1-7.7,0.4-12,0.5c-2.6-0.5-8.9-0.2-13.1-0.5c0.6,0.1-0.1,0.3-0.9,0.4c-1-0.1-2.7,0.3-2.6-0.1l0.4,0
							c-0.7-0.4-2.8-0.3-4.4-0.3l-0.3,0.5c-4.1-0.8-10.9,0.3-13.1-0.4c-1,0.1-2.2,0.1-3.2,0.3l0.1-0.3c-2.8-0.1-4.2-0.1-7.6,0
							l0.7-0.2c-1.9,0-2.4,0.8-4.2,0.8l-0.5-0.4c-1.2,0-2.5,0-3.7-0.1l-1.9-0.1l-0.4,0c-0.1,0-0.1,0-0.2,0c0-0.1,0-0.2-0.1-0.3
							c0,0,0,0,0-0.1l0-0.3l-0.1-0.7c0.1,0.1,0.2,0.2,0.2,0.7c0-1.6,0.3-6.1-0.3-5.6c0.4,0,0-3.5-0.1-5.3l0.3,0.3
							c-0.4-1.5-0.5-1.6-0.6-3.7c0-0.5,0.2-0.4,0.2,0.2c0.1-1.7-0.3-1.3-0.1-3.4l0.2,0.8c0-1.7-0.1-1.6-0.3-2.6
							c-0.1-1.1,0.1-3.3,0.3-3.6c-0.2-0.2-0.4-1.2-0.3-2.2c0.1-0.1,0.2,0.2,0.2,0.4c0.2-2.9-0.3-4.3-0.1-6.3c0.1,0,0.1-0.2,0.2-0.3
							c0,2.3,0,4.2,0,4c0.3,0,0.3-1.9,0.7-0.4c-0.2-1.5-0.6-4.1-0.5-5.9c0-0.1,0-0.2,0.1-0.2l0,0.2c0-0.4,0-0.8,0-1.2
							c0-0.6,0.1-1,0.1-1.5c0.2-0.2,0.1-2.1,0.1-3.1c-0.3,0.1-0.2-1.1-0.5,0c0-0.1,0,0.2,0,0.8c0,0.1,0,0.3,0,0.4c0,0,0,0,0-0.1
							c0,0.6,0,1.4,0,2.3c-0.1-0.7-0.3-1.5-0.1-2.5c-0.2-0.5-0.4-1-0.5-1.3c0.4-1.3,0.6-3.7,0.8-4.1c-0.2-2.8-0.1-6.7-0.6-8.5
							c0-0.4,0-0.8,0.1-1c0.1-0.2,0.1-0.4,0.2-0.7c0.1,0.6,0,1.6,0.1,1.7c0-0.1,0-0.3,0-0.5c0-0.2,0-0.5,0-0.7c0-0.5,0-1,0-1.5
							c-0.5,0-1.1,0-1.6,0c-0.3,0-0.5,0-0.7,0c-0.2,0-0.3,0-0.5,0c-0.6,0-1,0.1-1.2,0.2c-2-0.2,1.1-0.3-1.7-0.3l0.4-0.1
							c-1.5-0.2-2.8-0.2-4.1-0.1c-1.5,0.1-2.9,0.2-4.4,0.3c0,0.8,0.1,1.5,0.1,2.3c0,0.6,0.1,1.1,0.1,1.7c0,1.2,0,2.5-0.2,3.9
							c0-0.4,0.1-0.6,0.1-0.7c-0.3,7,0.3,14.4-0.2,21.3c-0.1,2,0.1,2.2,0.3,3.4l-0.3,0.4l0.3,2c0.3,2.9-0.7,5-0.3,8.7l0.2-0.5
							c0,1.3,0.1,4.2-0.1,3.9c0,0.1,0.2,0.4,0.1,0.9l-0.2,0l0.3,3.2c-0.1,2.5-0.6-0.4-0.7,3.3c0.1,1.4,0.5,3.9,0.6,3.4
							c0-0.5,0.1-1.4,0.3-1.4l0.1,1.2c0.5,0.2,0.9,1.2,1.3-1.9l-0.3-2.1l0.2-0.7l0,1.8c0.2-1,0-1.7-0.1-2.4c0.1-0.2,0.2-0.5,0.2-0.9
							l-0.4-2.1c0.2-0.3,0.4,0.9,0.5-0.5c-0.2-1-0.4,0.9-0.5-0.7c0.2-1,0.4-0.7,0.2-1.9c0.1-0.2,0.2,0.1,0.2,0.6
							c-0.1-1.1-0.1-2.8-0.3-3.4c0.3-1.1-0.1-3.6,0.4-3.5c-0.1-0.3-0.3-1.9-0.4-2.8c0.5,1.8,0-3.7,0.6-3.2c-0.5-1.3-0.2-4.8-0.5-7.1
							c0,0.1,0.1,0.4,0.1,0.6c0-1.3,0.2-1.7,0.3-2.5c-0.4-0.2-0.5-2.2-0.7-3.3c0.4-1.6,0.5,1,0.8,0.5c-0.3,0.1-0.3-2.8-0.6-2.3
							c0.2-1.2,0.1-1.1,0.4-1.7c-0.5-0.2-0.1-1.1-0.4-2.2c0.2-1.8,0.5-0.5,0.3-2.4C160.4,38.8,160.6,40.6,160.6,40.6z M170.5,48.6
							L170.5,48.6c0-0.4,0-0.7,0-1C170.5,47.8,170.5,48.1,170.5,48.6z M170.5,52.5c0-0.5,0-1.1,0-1.7c0.1-0.1,0.2,0,0.2,0.4
							C170.7,51,170.6,51.9,170.5,52.5z M172.5,44.2c0,0.6,0,0.8-0.1,0.9c0-0.3,0-0.6,0-1.1c0,0,0-0.1,0-0.1
							C172.4,44,172.5,44.1,172.5,44.2z"/>
						<path class="st1" d="M172.1,43.1c0-0.1,0-0.1,0-0.3c0,0.1,0,0.2-0.1,0.4c0,0.1,0.1,0.2,0.1,0.2
							C172.1,43.3,172.1,43.2,172.1,43.1z"/>
						<path class="st1" d="M116.3,101.2L116.3,101.2C116.4,101.2,116.3,101.2,116.3,101.2C116.3,101.1,116.3,101.2,116.3,101.2z"/>
						<polygon class="st1" points="194.3,84.9 194.3,84.8 193.9,84.9 						"/>
						<path class="st1" d="M107.6,88.5c0,0,0.1-0.1,0.1-0.3C107.6,88.2,107.6,88.3,107.6,88.5z"/>
						<path class="st1" d="M111.9,84.7l1.3,0.1C112.7,84.7,112.3,84.7,111.9,84.7z"/>
						<path class="st1" d="M119.1,84.8c0.1,0,0.1-0.1,0.1-0.1c0,0,0,0,0,0L119.1,84.8z"/>
						<path class="st1" d="M192.3,99.7c0.1,0,0.2,0,0.3,0C193.2,99.6,192.7,99.6,192.3,99.7z"/>
						<path class="st1" d="M158.3,100.3c0.4-0.1,0.7-0.1,1.1-0.1C158.8,100.2,158.3,100.2,158.3,100.3z"/>
						<path class="st1" d="M230.1,99.3L230.1,99.3c0.1,0,0.1,0,0.2,0L230.1,99.3z"/>
						<path class="st1" d="M161,100.2c-0.6-0.1-1.1,0-1.6,0C159.9,100.2,160.5,100.2,161,100.2z"/>
						<path class="st1" d="M150.2,85l0.3,0c0,0,0,0,0,0L150.2,85z"/>
						<path class="st1" d="M150.6,84.9l0.4,0C150.8,84.9,150.6,84.9,150.6,84.9z"/>
						<path class="st1" d="M151.8,84.8l-0.8,0.1C151.2,84.9,151.6,84.9,151.8,84.8z"/>
						<path class="st1" d="M140.7,84.8l-0.1,0.1C140.6,84.9,140.7,84.9,140.7,84.8z"/>
						<path class="st1" d="M137.8,84.9c0.7,0,1.7,0.2,2.7,0.2l0.1-0.1C140.1,85.1,138.5,84.7,137.8,84.9z"/>
						<path class="st1" d="M125.8,83.6l2.4,0.1c-0.4-0.1-1-0.3,0.1-0.3C125.3,83.1,128.9,83.6,125.8,83.6z"/>
						<path class="st1" d="M118.3,83.4c1.3-0.1,0-0.2,0.1-0.2C117.5,83.3,117.3,83.3,118.3,83.4z"/>
						<path class="st1" d="M133.2,101.4l-0.1,0.3C134.1,101.6,133.1,101.6,133.2,101.4z"/>
						<polygon class="st1" points="143.6,100.1 142.6,99.9 142.2,100.1 						"/>
						<polygon class="st1" points="149.7,101.9 149.3,101.9 151,101.8 						"/>
						<path class="st1" d="M240.7,101.8l-0.3-0.3C239.7,101.5,239.6,101.9,240.7,101.8z"/>
						<path class="st1" d="M279.9,101.5c0.4,0.2,1.5,0.3,2.2,0.1C281.3,101.6,280.4,101.4,279.9,101.5z"/>
						<polygon class="st1" points="204.7,82.4 205.5,82.3 204,82.4 						"/>
					</g>
				</g>
			</g>
		</g>
	</g>
	<g>
		<path class="st0" d="M309,4.4c0,5.8,0,10.7,0,16.4c-67.1,0-134,0-201.7,0c0-5.2,0-10.6,0-16.4C174.3,4.4,241.3,4.4,309,4.4z"/>
		<g>
			<g>
				<g>
					<g>
						<path class="st1" d="M309,5.1c0.2-0.1,0.1-0.3-0.5-0.2L308,5.2L309,5.1z"/>
						<path class="st1" d="M304.7,4.5c-0.7,0.2-1.6,0.4-1.1,0.7c0.7-0.3,0.9-0.2,1.7-0.6c0.6,0,1.1,0.1,1,0.2c0.2-0.1,1,0.1,1.3-0.1
							c-0.8-0.3-1.9-0.3-3-0.1C304.5,4.6,304.7,4.5,304.7,4.5z"/>
						<path class="st1" d="M242.9,3.9l0.4,0C243.2,4,243,3.9,242.9,3.9z"/>
						<path class="st1" d="M204.5,3.8c0.3,0,0.4,0,0.4-0.1C204.7,3.7,204.5,3.7,204.5,3.8z"/>
						<path class="st1" d="M198,3.4c0.1,0,0.3,0,0.4,0C198.2,3.4,198.1,3.4,198,3.4z"/>
						<path class="st1" d="M242.9,3.9l-1-0.1C241.8,3.9,242.4,3.9,242.9,3.9z"/>
						<path class="st1" d="M296.2,5.3c0.2,0,0.4,0,0.6-0.1C296.6,5.2,296.4,5.2,296.2,5.3C296.2,5.2,296.2,5.2,296.2,5.3z"/>
						<path class="st1" d="M259.8,3.7l0.3,0c0.1,0,0.2-0.1,0.3-0.1L259.8,3.7z"/>
						<path class="st1" d="M272.7,3.6c-0.3,0-0.4,0.3-0.5,0.4c0.2-0.1,0.4-0.2,0.6-0.2C272.9,3.8,272.8,3.7,272.7,3.6z"/>
						<path class="st1" d="M293.3,4.1l0.4,0C293.6,4.1,293.4,4.1,293.3,4.1z"/>
						<path class="st1" d="M250.5,3.6c0,0-0.1-0.1-0.1-0.1C250.4,3.5,250.4,3.6,250.5,3.6z"/>
						<path class="st1" d="M307.7,19.3C307.7,19.3,307.7,19.3,307.7,19.3C307.7,19.2,307.7,19.2,307.7,19.3z"/>
						<path class="st1" d="M309.1,4.4l0,0.2c0.1,0,0.1,0,0.2,0L309.1,4.4z"/>
						<path class="st1" d="M186,3C186,3,186,3,186,3C186.4,3,186.2,3,186,3z"/>
						<path class="st1" d="M122.1,22c-1.2-0.3,2-0.3,0.2-0.6C122.4,21.5,120.5,21.8,122.1,22z"/>
						<path class="st1" d="M295.9,5.2c-0.2,0-0.4,0-0.5,0C295.6,5.2,295.7,5.2,295.9,5.2z"/>
						<path class="st1" d="M122.3,21.4L122.3,21.4l-0.2,0C122.1,21.4,122.2,21.4,122.3,21.4z"/>
						<path class="st1" d="M158.4,3.2c0.1,0,0.2,0.1,0.3,0.1C158.7,3.3,158.6,3.3,158.4,3.2z"/>
						<path class="st1" d="M179,3.6l-0.5,0C178.7,3.6,178.8,3.6,179,3.6z"/>
						<path class="st1" d="M147.7,3.6c-0.3,0-0.4-0.1-0.7,0c0,0,0.1,0,0.1,0C147.2,3.6,147.4,3.6,147.7,3.6z"/>
						<path class="st1" d="M136.6,3.6c0.1,0,0.1,0,0.2,0.1c0.1,0,0.2,0,0.4,0L136.6,3.6z"/>
						<path class="st1" d="M276.6,19.7c0.2,0.1,0.4,0.2,0.5,0.3C277,19.7,278.6,19.6,276.6,19.7z"/>
						<path class="st1" d="M296.2,5.1c-0.1,0.1-0.2,0.1-0.3,0.1c0.1,0,0.3,0,0.4,0C296.3,5.2,296.3,5.1,296.2,5.1z"/>
						<path class="st1" d="M147.3,5.8l-1.8,0C146,5.8,146.7,5.8,147.3,5.8z"/>
						<path class="st1" d="M196.9,19.7l0.4,0C197.2,19.7,197,19.7,196.9,19.7z"/>
						<path class="st1" d="M140.3,5.8c-0.3-0.1-0.6-0.2-1-0.2c-0.1,0-0.2,0-0.2,0.1L140.3,5.8z"/>
						<path class="st1" d="M277.1,19.9L277.1,19.9L277.1,19.9z"/>
						<path class="st1" d="M288.8,19.2c-1.7,0-0.8,0.4-1.1,0.6c-2,0.1-0.9-0.3-1.6-0.5c-1.3,0.1-2.2,0.4-3.1,0.4
							c-0.1-0.1-0.3-0.1,0-0.2c-1.3,0.3-3.9,0-5.5,0.4c-0.1,0-0.2-0.1-0.2-0.1c0.3,0.2,0.3,0.4,0.2,0.5c-0.8,0-1.4,0.2-1.7,0
							c0.5,0,0.5-0.1,0.7-0.2l-0.8,0.1c-0.7-0.3,1.1-0.1,1.1-0.4c-1.5,0.1-3.3,0.4-4.5,0.3c-0.2-0.3,2.8-0.1,1.2-0.4l1.8,0.1
							c-1.4-0.5,1.1,0-0.2-0.5c-2.4-0.1-2.7,0.2-5.1,0.1c-0.5,0.2,0.2,0.3-0.4,0.5c-3.4,0.3-2.7-0.9-5.2-0.4
							c-0.6,0.2-0.9,0.7-2.7,0.4l0.6-0.4c-2.3,0-1.3,0.6-3.8,0.3c0.4-0.2,1.8-0.1,1.5-0.2c-1.6-0.3-1.1,0.2-2.3,0.2l-0.3-0.3
							c-2.5,0.1-5.2,0.3-8,0.4c0.2-0.1,0.6-0.2,0-0.3c-3.5,0.2-7.4,0-10.7-0.2l-1.3,0.3c-0.3,0-0.6-0.1-0.2-0.2
							c-1.3-0.1-0.1,0.2-0.7,0.3c-0.7,0-1-0.2-0.5-0.3c-2.3,0.2-6.5,0.5-9,0.2l0.5-0.1c-1.9-0.1-2.1,0.6-3.9,0.3L224,20
							c-4.1-0.1-8.6,0.1-11.7-0.3c-0.6,0.4-4-0.2-4.3,0.4c-2.3-0.3-1.7-0.4-5-0.6c-0.9,0-1.3,0.4-2.4,0.4l0-0.3l-1.5,0.3l-0.8-0.4
							l-1,0.1c0.4,0,0.9,0.1,0.8,0.2c-1.6,0.1-3.9-0.2-3.9-0.4l-3.8,0.3c0.1-0.1,0.7-0.2,1.2-0.2c-2,0.3-0.4-0.3-2.2,0
							c0.2,0.1-0.1,0.2-0.2,0.2c-0.9-0.2-3-0.2-4.6-0.1l0.3-0.2c-2.8-0.1-5.9,0.1-9,0.1c1.1,0.1,0.9,0.5-0.1,0.5l-0.4-0.3
							c-0.6,0.2,1,0.1-0.3,0.4c-1.2,0-0.8-0.4-0.1-0.5l-1.4,0.1c-0.1-0.1,0.3-0.1,0.3-0.3c-0.6,0.2-2.5-0.3-3.3,0l-0.1-0.1
							c-3.1,0-4.6,0.1-7.1,0.1c0,0.3-1,0.2-1.8,0.4c-1.9-0.1-4-0.3-6.2-0.3c-1.6,0.1-0.5,0.2-1.2,0.4c-0.1-0.3-2.4-0.2-1.2-0.4
							c-2.7,0-3.5,0.1-6.9,0.3c0.4,0.1,0.8,0.2,0.6,0.2c-0.6,0-1.4-0.1-1.3-0.2l0.2,0c-3.8,0.4-8.9-0.7-11.9-0.2l0.2,0l-3.2,0.3
							c-1.5,0,0.9-0.2-0.2-0.4c-3.4,0.4-5.4-0.1-8.2,0.2c-2.2-0.8-7.8,0.1-10.7-0.4l0.2,0.2c-0.8,0.2-0.9-0.1-1.5-0.1
							c0.1,0.1,0.8,0.2,0.4,0.3c-0.7,0-1.5,0-2.3,0.1c0-1,0-1.9,0.1-2.9c0-1.4,0.1-2.7,0.1-4.1c0.1-1.4,0.1-2.8,0.2-4.1
							c0-0.7,0-1.4,0.1-2.1l0-0.3c0-0.1,0-0.2,0-0.2l0,0c0,0,0,0,0,0l0,0c0,0,0,0,0-0.1l0-0.1c0,0,0.1,0,0.2-0.1
							c0.1,0,0.2-0.1,0.3-0.1c0.4-0.2,0.9-0.3,2.5-0.1L111,5.9c4.9-0.4,10,0,14.8-0.3c-0.3,0.1-0.3,0.2-0.8,0.2c1,0.2,3.7,0,3.8-0.2
							c0.7,0,0.2,0.2,0.6,0.3c1,0.1,2.5-0.3,3.1-0.1c0.1,0-0.3,0.1-0.5,0.1c0.7-0.1,3.1,0,2.4-0.2c1.8,0.1,3.4-0.1,4.9,0
							c0.9-0.3,3.1,0.1,3.4-0.3c-0.1,0.5,3.1,0.4,4.3,0.2c-0.4,0.1,1,0.1,0.5,0.3c1.3,0,2.5-0.1,2.3-0.3c2.4,0.5,4.8-0.4,6.1,0.3
							c3.8-0.2,7.4-0.4,10.9-0.5c-0.1,0.5-3.8,0-3.7,0.5c3.3-0.2,5.2-0.6,8.4-0.5c0.8,0.1-0.5,0.2-0.8,0.3c3.3-0.2,6.3,0,9.3-0.2
							c0,0-0.3,0.1-0.6,0.1c0.6,0,1.3,0.1,1.3-0.1l-0.6,0.1c-0.9-0.3,2.3-0.6,2.4-0.8c-1,0.6,2.9,0.1,1.3,0.9c0.4,0,0.9-0.1,0.8-0.3
							c0.6,0,0.7,0.1,0.2,0.3c2.1-0.1,1.3-0.3,3.2-0.3c0,0.1-0.4,0.1-0.6,0.3c0.9-0.2,1.9-0.4,3.5-0.3c-0.1,0.1,0.1,0.1-0.4,0.1
							c2.7,0,4.6-0.5,7.6-0.3c-0.9,0.4,1,0.1,1.2,0.5l1.6-0.1l-0.6-0.2c1.4,0,2.6-0.3,3.8-0.1l-1,0.2l2.6-0.1L204.1,5
							c1.4-0.2-0.2-0.5,1.7-0.4c-0.4,0,1.4,0,2.1,0.2l0,0c0.7-0.1,1.4-0.2,2.4-0.2c0.3,0.1-0.2,0.4,0,0.5c0.7-0.3,3.3-0.1,4.1-0.4
							c-0.3,0.1-0.3,0.3-0.2,0.3l0.6-0.3c0.6,0.1,0.7,0.1,0.6,0.3c2,0-0.6-0.5,1.7-0.3c-0.2,0-0.1,0.1-0.5,0.1
							c2.3,0.1,4.5-0.2,6.6,0c0.6,0.4-1.9,0.1-1.1,0.4c3.1-0.1,6.4-0.5,9.4-0.4l-0.6,0c0.4-0.5,2.2,0.3,3.7,0
							c-0.4,0-0.5,0.3-0.4,0.2c2,0.1,4.2-0.1,7.3-0.3L241.3,5c1.2,0.1,3.2,0.1,4.5,0.1c0.4-0.1,1.1-0.1,0.7-0.3
							c4,0.8,7.6-0.4,11.2,0.2c-0.4,0-1,0.1-0.7,0.1l3-0.1c-0.2-0.2-0.4-0.1-1-0.3c0.4-0.1,1.2-0.2,2-0.2c-1.4,0.2,0,0.4,0.6,0.5
							c-0.1-0.1,0.1-0.1,0.1-0.2c1.6,0.4,0.3-0.5,2.4-0.2l-0.1,0.1c0.8-0.1,1.6-0.2,2.4-0.2c0.4,0.3-0.9,0.1-0.9,0.3
							c1.2,0,2.4-0.5,3.5-0.2c-0.5,0.1-1.3,0.1-1.8,0.1c1.2,0.3,1.3,0.2,2.2,0.3l-0.1,0l2.1,0.1l-0.5-0.1c1.5-0.7,3.1-0.1,5.2-0.6
							c-2,0.4-0.3,0.3-0.5,0.6c0.5,0.1,1.3,0.2,1.1,0.3c1-0.2,1.6,0.2,3-0.2c0.1,0.1,1,0,0.8,0.3c1.3-0.1-0.3-0.2-0.2-0.3
							c2-0.3,4.6,0.4,7.4-0.1c2.4-0.2,2.9-0.5,5.1-0.7c0.8,0.2-0.6,0.4-0.6,0.4c1.2,0.1,2.1,0.1,3.3,0c-0.2,0.1,0,0.2,0.4,0.3
							c0.9,0,0.6-0.4,1.8-0.2c-0.2,0.1-0.5,0.3-0.9,0.4c1.1-0.1,2.2-0.3,3.3-0.4c0.3,0.2-0.7,0.3-1.1,0.4c1.3-0.1,3.3-0.2,3.7-0.4
							l-0.8-0.1c0.5,0,0.2,0.2-0.1,0.3c-1.1,0.2-1.6-0.1-1.6-0.2l0.8-0.1c-0.8-0.6-3.2,0.1-4.9,0.1l0.7-0.4l-1.7,0.3
							c-0.4-0.1-0.6-0.3,0.2-0.4c-1.2-0.2-1,0.1-2-0.1c-0.1,0-0.1-0.1,0-0.1l-1.1,0.1c0.2-0.1-0.2-0.3,0.5-0.2c-2-0.2-3.3,0.3-4.1,0
							l0.2,0c-2.8,0.1-0.3,0.3-2.4,0.7L285,3.9l-0.3,0.3c-0.3,0-0.9,0-0.8-0.2c-1.1,0.2,0.2,0.1-0.4,0.3c-1.4-0.3-3.9,0.1-4.2-0.4
							c-0.5,0.2,1.3,0.2-0.2,0.3c-0.4-0.5-1.7,0.1-3-0.2c0.4-0.3,1.6-0.1,0.3-0.4c-0.8,0.5-2.5-0.1-3.6,0c-0.1,0.4-2.4,0.2-4.2,0.3
							c0.1-0.1-3.4-0.2-5.1-0.3l0-0.1c-0.3,0.4-2.1,0.3-3.3,0.4c0-0.2,0.3-0.3,1-0.4l-1.2,0c-0.3,0.1-0.7,0.2-1.4,0.2l0.3-0.3
							c-1.6,0-3.2,0.3-5.2,0.1c-0.1,0.3,1.6,0.7-0.5,0.9c-0.1-0.1-0.2-0.4,0.4-0.4c-0.2,0-0.7,0.1-1,0.1l0.9-0.2
							c-0.9-0.1-0.5,0.2-1.2,0.2c0-0.2-0.6-0.1-0.4-0.3c0.2,0,0.6,0.1,0.9,0c-0.8,0-1.9-0.2-2.2-0.3c0.1,0.1,0,0.3-0.6,0.3
							c-1.6,0-0.5-0.2-1.5-0.3c-0.4,0.1-1.4,0-1.4,0.3c-0.5,0-0.6-0.1-0.7-0.2c-0.8,0.1-3.8,0-2.9,0.4l0.2,0c0,0-0.1,0-0.1,0
							c0,0,0,0,0,0h0c-2.7,0.3-5.6-0.2-8.3,0l0-0.1c-1.6,0.1-3.5,0.1-4.7,0.3c-0.5,0-1.1-0.2-0.9-0.3c-1.2,0.1-1.4,0.2-3.1,0
							c1.2-0.2-0.4-0.2,1.3-0.1c-1.6-0.1-1.9-0.2-3.6,0c0.6-0.3-1.2-0.3-1.9-0.2l1.1,0.2c-0.8,0-1.6,0-2.3,0l0.4-0.3
							c-3.2-0.4-5.8,0.7-8.3,0c-0.9,0.2,1.8,0.2,1,0.4c-1.5,0-3-0.5-3.5-0.5c-2-0.2-1.9,0.5-4,0.4c0.3,0.1,0.5,0.4-1.1,0.5
							c-1.5,0-1.8-0.5-0.9-0.6c0.4,0,0.5,0,0.5,0.1c0.5,0,1.1-0.1,0.5-0.2l-0.2,0.1c-0.7-0.1-2.8-0.1-2.3-0.3
							c-1.1,0.1-0.5,0.2,0.4,0.3c-1.9-0.2-3,0-5-0.1c0.3,0.1,0.6,0.2,0.3,0.2c-2.9-0.1-1.3,0.2-3.2,0.3c-1.1-0.2,0.4-0.4-1.6-0.3
							c-1.2-0.1-0.3-0.3,0.2-0.4c-1.8,0.2-3.4-0.2-4.4-0.2l0.9-0.1c-0.6,0.1-1,0.1-1.5,0.1l0.5,0.2c-0.6,0-1,0-1-0.1
							c-0.6,0.2,0.4,0.4-0.7,0.6c-0.7-0.1-2.3,0.1-2.5-0.2c2.3,0.1-0.3-0.3,1.7-0.4c-0.4,0-0.8,0-1.4,0c-0.1,0,0.1-0.1,0.2-0.1
							c-2.2-0.3-1,0.4-3.3,0.3c0.3-0.2-0.5-0.3-0.9-0.3c0.9,0,0.4,0.3-0.4,0.4c-1.5-0.1-1.6,0.1-2.4,0.1l0.9,0.1
							c-0.3,0.2-1,0.2-2.1,0.2c-0.1-0.1,0.9-0.1,0.6-0.2c-1.1,0.3-2.6-0.3-4.2-0.1c-0.7-0.1-0.1-0.3-0.7-0.4
							c-1.8,0.2-1.9-0.2-3.8-0.1c0.5,0.2,0.6,0.2-0.7,0.4l3.1-0.2l-2,0.3c0.9,0,2-0.1,2.5-0.1c-0.9,0.2-0.8,0.1-0.4,0.3
							c-1.3-0.4-2.5,0.2-4,0l0-0.6c-2.2-0.3-3.9,0.3-6.8,0.2l0.9,0.1c-0.4,0.2-1.8,0-2.7,0.1c0.1-0.2-0.5-0.3-0.9-0.4
							c0,0.1-2.1,0-2.4,0.4L155,3.4c-2.3-0.1-2.7,0.6-4.9,0.5c0.7-0.2-0.3-0.4,1.2-0.5c-0.7,0-1.4,0-1.4,0.1
							c-0.4-0.1-2.1,0.3-2.8,0.1c-0.3,0.1-0.4,0.3-1.3,0.3c-0.1,0,0-0.1,0-0.1c0,0.1-1.3,0.1-0.6,0.4c-2.3-0.6-6.4,0-8.4-0.5
							c-1.6,0.1-3.6,0.1-5.1,0.1c0.1-0.1,0-0.1,0.3-0.1c-2-0.2-1.3,0.6-3.6,0.4c-1.2-0.3,1.2-0.2,0.5-0.3c-0.3-0.6-2.8,0.1-4.4-0.3
							l0.4,0c-1.2-0.2-2.9,0.2-4.9,0.2c0,0,0.1-0.1,0-0.1c-1.3,0.3-3.9,0.4-5.7,0.5c0.6-0.3,0.9-0.1,0.5-0.4c-0.8,0,0.2,0.4-1.4,0.5
							c-0.5-0.1-1.8-0.3-1.9-0.5l1.6,0c-0.8-0.4-2.1,0-2.9,0l0.1-0.2c-1.4,0-2.6,0.2-3.7,0.3c0,0.4,0.1,0.8,0.1,1.2
							c0,0.4,0,1.1,0,1.5l0.1-0.3c0.4,1.4-0.2,1.2,0.1,2.6l-0.4,0.4c0.1,0.9,0.4,3.3,0.5,5c-0.3-1-0.4-2.9-0.6-4.2
							c0,0.9,0,3.2,0.2,3.7c0-0.4-0.1-0.9-0.1-1.2c0.3,1.1,0.5,2.7,0.5,4.5c-0.3-0.1-0.4,0.4-0.4,1.1c0,0.2,0,0.4,0,0.6
							c0,0.2,0,0.5,0,0.8c0,0.7,0,1.4,0,2.1c0.7,0,1.4,0,2.1,0.1c0.4,0,0.5,0.1,0.7,0.1c0.2,0,0.3,0.1,0.4,0.1
							c3.3-0.3,6.5,0.1,10.4,0.1c-1.4-0.6,1.1,0,0.9-0.6c0.9,0,1.2,0,1.3,0l2.7,0.4c0.6,0.2-0.8,0.1-0.8,0.3c2,0,0.8,0.3,2.1,0.4
							c-0.3-0.2,0.7-0.3,1.8-0.2l-1.6-0.3c2.7-0.3,2.4,0.5,5.1,0.2l-0.9,0.2c1.4-0.1,5.2,0,6.6-0.5c0.3,0.1,0.6,0.2,0,0.3
							c3.4,0.1,7.5-0.5,10.1-0.2l-0.3,0.1c0.6,0,1.1-0.3,1.9-0.1c0,0.1-0.3,0.1,0,0.2c0.3-0.1,1.7-0.3,2.5-0.2l-0.7,0.2
							c3.3,0.2,5.1-0.4,7.8-0.5c0,0.4,2.6,0.6,3.9,0.7l0,0.1c3.8,0.1,6.5-0.4,10.1-0.5c2.2,0.5,7.5,0.2,11,0.5
							c-0.5-0.1,0.1-0.3,0.7-0.4c0.8,0.1,2.3-0.3,2.2,0.1l-0.3,0c0.6,0.4,2.3,0.3,3.7,0.3l0.2-0.5c3.5,0.8,9.1-0.3,11.1,0.4
							c0.8-0.1,1.9-0.1,2.7-0.3l0,0.3c2.3,0.1,3.5,0.1,6.4,0l-0.6,0.2c1.6,0,2.1-0.8,3.6-0.8l0.5,0.4c2.8,0,5.7,0.4,8.5,0
							c0,0.1-0.1,0.2-0.6,0.2c1.3,0,5.2,0.3,4.7-0.3c0,0.4,2.9,0,4.5-0.1l-0.2,0.3c1.3-0.4,1.3-0.5,3.1-0.6c0.4,0,0.4,0.2-0.2,0.2
							c1.4,0.1,1.1-0.3,2.8-0.1l-0.6,0.2c1.5,0,1.4-0.1,2.2-0.3c0.9-0.1,2.8,0.1,3,0.3c0.2-0.2,1-0.4,1.9-0.3
							c0.1,0.1-0.2,0.2-0.4,0.2c2.5,0.2,3.7-0.3,5.3-0.1c0,0.1,0.1,0.1,0.3,0.2c-2,0-3.5,0-3.4,0c0,0.3,1.6,0.3,0.3,0.7
							c1.3-0.2,3.4-0.6,5-0.5c0.1,0,0.1,0,0.2,0.1l-0.2,0c0.4,0,0.7,0,1,0c0.5,0,0.8,0.1,1.3,0.1c0.2,0.2,1.8,0.1,2.6,0.1
							c-0.1-0.3,1-0.2,0-0.5c0.1,0-0.1,0-0.7,0c-0.1,0-0.3,0-0.3,0c0,0,0,0,0.1,0c-0.5,0-1.2,0-2,0c0.6-0.1,1.3-0.3,2.1-0.1
							c0.4-0.2,0.8-0.4,1.1-0.5c1.1,0.4,3.1,0.6,3.4,0.8c2.4-0.2,5.7-0.1,7.2-0.6c0.7-0.1,0.8,0.2,1,0.2c-0.4,0.1-0.9,0-1.1,0.1
							c1.4-0.1,4-0.1,4.4-0.4c1.7,0.2-1,0.3,1.4,0.3l-0.3,0.1c4.6,0.6,7.6-0.9,12.7-0.2c-0.4,0-0.5-0.1-0.6-0.1
							c5.9,0.3,12.1-0.3,17.9,0.2c1.6,0.1,1.8-0.1,2.8-0.3l0.4,0.3l1.7-0.3c0.5-0.1,1-0.1,1.6,0c0.6,0,1.2,0.1,2,0.2
							c0-0.4,0.1-0.8,0.1-1.2c0-0.4,0.1-0.8,0.1-1.3c0-0.7,0-1.5-0.1-2.3l-0.2,0.4c0-1.1-0.1-3.5,0.1-3.3c0-0.1-0.2-0.4-0.1-0.8
							l0.2,0l-0.3-2.7c0.1-2.1,0.6,0.3,0.7-2.7c-0.1-1.1-0.5-3.3-0.6-2.8c0,0.5-0.1,1.2-0.3,1.2l-0.1-1c-0.5-0.2-0.9-1-1.3,1.6
							l0.3,1.8l-0.2,0.6l0-1.5c-0.2,0.9,0,1.4,0.1,2c-0.1,0.1-0.2,0.4-0.2,0.8l0.4,1.8c-0.2,0.2-0.4-0.8-0.5,0.4
							c0.2,0.8,0.4-0.8,0.5,0.6c-0.2,0.9-0.4,0.6-0.2,1.6c-0.1,0.1-0.2-0.1-0.2-0.5c0.1,0.9,0.1,2.4,0.3,2.8
							c-0.1,0.4-0.1,1.2-0.1,1.8c0,0.3,0,0.6,0,0.8c0,0.2-0.1,0.1-0.2,0.1c0.1,0,0.2,0.2,0.3,0.6c-0.1,0-0.2,0.1-0.4,0.1
							c0.1-0.1,0-0.2,0-0.2c0,0-0.1,0-0.1,0c0,0-0.1,0-0.1,0c-0.1,0-0.2,0-0.3,0c-0.9,0-2,0-1.8-0.3c-1.1,0.5-4,0.2-6,0.5
							c0.1,0,0.3-0.1,0.5-0.1c-1.1,0-1.4-0.2-2.1-0.3c-0.1,0.4-1.9,0.5-2.8,0.7c-1.4-0.4,0.8-0.5,0.4-0.8c0.1,0.3-2.4,0.3-1.9,0.6
							c-1-0.2-0.9-0.1-1.4-0.4c-0.2,0.5-1,0.1-1.8,0.4c-1.5-0.2-0.4-0.5-2-0.3C287.3,19.4,288.8,19.2,288.8,19.2z M249.5,20.1
							L249.5,20.1c0.3,0,0.6,0,0.8,0C250.1,20.1,249.9,20.1,249.5,20.1z M246.2,20.1c0.4,0,0.9,0,1.4,0c0.1,0.1,0,0.2-0.3,0.2
							C247.5,20.2,246.7,20.2,246.2,20.1z M253.2,22c-0.5,0-0.7,0-0.8-0.1c0.2,0,0.5,0,0.9,0c0,0,0,0,0.1,0
							C253.3,22,253.3,22,253.2,22z"/>
						<path class="st1" d="M254.1,21.7c0.1,0,0.1,0,0.2,0C254.2,21.6,254.1,21.6,254.1,21.7c-0.2-0.1-0.2,0-0.3,0
							C253.9,21.7,254,21.7,254.1,21.7z"/>
						<path class="st1" d="M243.3,4L243.3,4C243.3,4,243.4,4,243.3,4C243.4,4,243.4,4,243.3,4z"/>
						<polygon class="st1" points="200.6,19.6 200.6,19.6 200.9,19.6 						"/>
						<path class="st1" d="M261.5,5c0,0,0.1,0.1,0.2,0.1C261.8,5,261.7,5,261.5,5z"/>
						<path class="st1" d="M269.4,5l1.1,0.1C270,5.1,269.7,5,269.4,5z"/>
						<path class="st1" d="M275.4,5.2c0.1,0,0.1-0.1,0.1-0.1l0,0L275.4,5.2z"/>
						<path class="st1" d="M179.4,5.5c-0.1,0-0.2,0-0.2,0C178.6,5.6,179,5.5,179.4,5.5z"/>
						<path class="st1" d="M208,4.8c-0.3,0.1-0.6,0.1-0.9,0.1C207.6,5,208,5,208,4.8z"/>
						<path class="st1" d="M147.5,5.8L147.5,5.8c-0.1,0-0.1,0-0.2,0L147.5,5.8z"/>
						<path class="st1" d="M205.7,5c0.5,0.1,0.9,0,1.3,0C206.6,4.9,206.1,4.9,205.7,5z"/>
						<path class="st1" d="M301.6,5.3l0.3,0c0,0,0,0,0,0L301.6,5.3z"/>
						<path class="st1" d="M301.9,5.3l0.3,0C302.1,5.2,302,5.2,301.9,5.3z"/>
						<path class="st1" d="M302.9,5.1l-0.7,0.1C302.5,5.2,302.8,5.2,302.9,5.1z"/>
						<path class="st1" d="M293.6,5.2l-0.1,0.1C293.6,5.2,293.6,5.2,293.6,5.2z"/>
						<path class="st1" d="M291.2,5.2c0.6,0,1.5,0.2,2.3,0.2l0.1-0.1C293.1,5.4,291.7,5,291.2,5.2z"/>
						<path class="st1" d="M281,3.9l2,0.1c-0.4-0.1-0.8-0.3,0.1-0.3C280.6,3.4,283.7,4,281,3.9z"/>
						<path class="st1" d="M274.7,3.8c1.1-0.1,0-0.2,0-0.2C274.1,3.6,273.9,3.7,274.7,3.8z"/>
						<path class="st1" d="M229.1,3.8l0.1-0.3C228.4,3.5,229.2,3.6,229.1,3.8z"/>
						<polygon class="st1" points="220.4,5.1 221.2,5.2 221.6,5 						"/>
						<polygon class="st1" points="215.2,3.3 215.6,3.2 214.2,3.3 						"/>
						<path class="st1" d="M138.6,3.4l0.3,0.3C139.4,3.6,139.6,3.3,138.6,3.4z"/>
						<path class="st1" d="M106.6,6.2c-0.2,0.4-0.3,1.3-0.1,1.9C106.5,7.3,106.6,6.5,106.6,6.2z"/>
						<polygon class="st1" points="191.8,22.1 191.2,22.2 192.4,22.1 						"/>
					</g>
				</g>
			</g>
		</g>
	</g>
	<g>
		<path class="st0" d="M158.3,126.2c0.4-6.6,0.7-11.8,1-17.4c4.1,0,7.7,0,12.1,0c0,5.4,0,10.5,0,16.8c7.2,0,13.7,0,20.5,0
			c0,6.3,0,11.4,0,17.3c-61.7,0-123.4,0-185.8,0c0-5.3,0-10.6,0-16.8C56.6,126.2,107.1,126.2,158.3,126.2z"/>
		<g>
			<g>
				<g>
					<g>
						<path class="st1" d="M158.3,126.9c0.2-0.1,0.1-0.3-0.5-0.2l-0.5,0.3L158.3,126.9z"/>
						<path class="st1" d="M154.1,126.2c-0.7,0.2-1.6,0.4-1.1,0.7c0.7-0.3,0.9-0.2,1.7-0.6c0.6,0,1.1,0.1,1,0.2
							c0.2-0.1,1,0.1,1.3-0.1c-0.8-0.3-1.9-0.3-3-0.1C153.8,126.4,154,126.3,154.1,126.2z"/>
						<path class="st1" d="M91.8,125.7l0.4,0C92.1,125.7,92,125.7,91.8,125.7z"/>
						<path class="st1" d="M53.3,125.5c0.3,0,0.4,0,0.4-0.1C53.4,125.5,53.2,125.5,53.3,125.5z"/>
						<path class="st1" d="M46.7,125.2c0.1,0,0.3,0,0.4,0C46.9,125.2,46.8,125.2,46.7,125.2z"/>
						<path class="st1" d="M91.8,125.7l-1-0.1C90.7,125.7,91.3,125.7,91.8,125.7z"/>
						<path class="st1" d="M145.5,127c0.2,0,0.4,0,0.6-0.1C145.9,127,145.7,127,145.5,127C145.5,127,145.5,127,145.5,127z"/>
						<path class="st1" d="M108.8,125.5l0.3,0c0.1,0,0.2-0.1,0.3-0.1L108.8,125.5z"/>
						<path class="st1" d="M121.9,125.4c-0.3,0-0.4,0.3-0.5,0.4c0.2-0.1,0.4-0.2,0.6-0.2C122,125.6,122,125.5,121.9,125.4z"/>
						<path class="st1" d="M142.6,125.9l0.4,0C142.8,125.9,142.7,125.9,142.6,125.9z"/>
						<path class="st1" d="M99.5,125.4c0,0-0.1-0.1-0.1-0.1C99.4,125.3,99.4,125.4,99.5,125.4z"/>
						<path class="st1" d="M160.5,111.2C160.5,111.2,160.5,111.2,160.5,111.2C160.5,111.2,160.5,111.3,160.5,111.2z"/>
						<path class="st1" d="M158.3,126.2l0-0.2c-0.1,0-0.1-0.1-0.2-0.1L158.3,126.2z"/>
						<path class="st1" d="M34.6,124.8C34.6,124.8,34.7,124.8,34.6,124.8C35,124.8,34.8,124.8,34.6,124.8z"/>
						<path class="st1" d="M71.5,144.1c-1.3-0.3,2-0.3,0.2-0.6C71.8,143.6,69.9,144,71.5,144.1z"/>
						<path class="st1" d="M145.1,127c-0.2,0-0.4,0-0.5,0C144.9,127,145,127,145.1,127z"/>
						<path class="st1" d="M71.6,143.5L71.6,143.5l-0.2,0C71.5,143.5,71.6,143.5,71.6,143.5z"/>
						<path class="st1" d="M6.2,125c0.1,0,0.3,0.1,0.5,0.1C6.7,125.1,6.6,125,6.2,125z"/>
						<path class="st1" d="M27.5,125.4l-0.5,0C27.2,125.4,27.4,125.4,27.5,125.4z"/>
						<path class="st1" d="M5.3,136.2c0,0.3-0.1,0.4,0,0.8c0,0,0-0.1,0-0.1C5.3,136.7,5.3,136.5,5.3,136.2z"/>
						<path class="st1" d="M10.6,143.8c-0.1,0-0.1,0-0.2-0.1c-0.1,0-0.2,0-0.4,0L10.6,143.8z"/>
						<path class="st1" d="M174.2,126.8c-0.2-0.1-0.4-0.2-0.5-0.3C173.9,126.8,172.2,126.8,174.2,126.8z"/>
						<path class="st1" d="M145.5,126.9c-0.1,0.1-0.2,0.1-0.3,0.1c0.1,0,0.3,0,0.4,0C145.5,126.9,145.6,126.9,145.5,126.9z"/>
						<path class="st1" d="M7.5,136.7l0,1.8C7.5,137.9,7.5,137.3,7.5,136.7z"/>
						<path class="st1" d="M146.8,141.8l0.4,0C147,141.8,146.9,141.8,146.8,141.8z"/>
						<path class="st1" d="M7.6,141.5c0,0,0,0.1,0,0.1c0,0,0,0,0,0c0,0,0,0,0,0l0.1,0c0.1,0,0.2,0,0.2-0.1l-0.3,0
							C7.7,141.6,7.7,141.6,7.6,141.5C7.7,141.6,7.7,141.6,7.6,141.5z"/>
						<path class="st1" d="M173.7,126.5L173.7,126.5L173.7,126.5z"/>
						<path class="st1" d="M169.8,116.2c0,1.7,0.4,0.8,0.6,1.2c0.1,2-0.3,0.9-0.5,1.6c0.1,1.3,0.4,2.2,0.4,3.2
							c-0.1,0.1-0.1,0.3-0.2,0c0.1,0.4,0.1,1,0.1,1.6c0,0.9,0,1.9,0,2.9c0.6,0,1.3,0,1.8-0.1c0.3,0,0.6,0,0.8-0.1
							c0.2,0,0.3-0.1,0.5-0.1c0.1,0,0.2,0.1,0.2,0.1c-0.3-0.2-0.3-0.4-0.2-0.5c0.8,0,1.4-0.2,1.7,0c-0.5,0-0.5,0.1-0.7,0.2l0.8-0.1
							c0.7,0.3-1.1,0.1-1.1,0.4c1.6-0.1,3.4-0.4,4.5-0.3c0.2,0.3-2.8,0.1-1.2,0.4l-1.8-0.1c1.4,0.5-1.1,0,0.2,0.5
							c2.4,0.1,2.7-0.2,5.1-0.1c0.5-0.2-0.2-0.3,0.4-0.5c3.4-0.3,2.7,0.9,5.2,0.4c0.7-0.2,0.9-0.7,2.7-0.4l-0.6,0.4
							c1.1,0,1.5-0.1,1.7-0.2c0.1-0.1,0.3-0.2,0.7-0.1c0,0.1,0,0.2,0,0.3c0,0-0.1-0.1-0.1-0.1c-0.3,0.1-0.5,0.1-0.4,0.1
							c0.1,0.1,0.2,0.1,0.3,0.1c0.1,0.1,0.3-0.1,0.3,0.3c-0.1,0.1-0.2,0.1-0.3,0.1c0.1,2.4,0.3,5.2,0.4,8c-0.1-0.2-0.2-0.6-0.3,0
							c0.1,1.2,0.1,2.5,0.1,3.8l0,2c0,0.4,0,0.4,0,0.5l0,0.2c-0.2,0-0.3-0.1-0.4-0.1c-0.5,0-1-0.1-1.5-0.1l-1.3,0.3
							c-0.3,0-0.6-0.1-0.2-0.2c-1.3-0.1-0.1,0.2-0.7,0.3c-0.7,0-1-0.2-0.5-0.3c-2.3,0.2-6.6,0.5-9,0.2l0.5-0.1
							c-1.9-0.1-2.1,0.6-3.9,0.3l0.3-0.1c-4.1-0.1-8.7,0.1-11.8-0.3c-0.6,0.4-4.1-0.2-4.3,0.4c-2.3-0.3-1.7-0.4-5-0.6
							c-0.9,0-1.3,0.4-2.4,0.4l0-0.3l-1.5,0.3l-0.8-0.4l-1,0.1c0.4,0,0.9,0.1,0.8,0.2c-1.6,0.1-3.9-0.2-3.9-0.4l-3.8,0.3
							c0.1-0.1,0.7-0.2,1.2-0.2c-2,0.3-0.4-0.3-2.2,0c0.2,0.1-0.1,0.2-0.2,0.2c-0.9-0.2-3-0.2-4.6-0.1l0.3-0.2
							c-2.8-0.1-5.9,0.1-9.1,0.1c1.1,0.1,0.9,0.5-0.1,0.5l-0.4-0.3c-0.6,0.2,1,0.1-0.3,0.4c-1.2,0-0.8-0.4-0.1-0.5l-1.4,0.1
							c-0.1-0.1,0.3-0.1,0.3-0.3c-0.6,0.2-2.5-0.3-3.3,0l-0.1-0.1c-3.2,0-4.6,0.1-7.1,0.1c-0.1,0.3-1.1,0.2-1.8,0.4
							c-1.9-0.1-4-0.3-6.3-0.3c-1.6,0.1-0.5,0.2-1.2,0.4c-0.1-0.3-2.4-0.2-1.2-0.4c-2.7,0-3.5,0.1-6.9,0.3c0.4,0.1,0.8,0.2,0.6,0.2
							c-0.6,0-1.4-0.1-1.3-0.2l0.2,0c-3.9,0.4-8.9-0.7-12-0.2l0.2,0l-3.2,0.3c-1.5,0,0.9-0.2-0.2-0.4c-3.4,0.4-5.4-0.1-8.3,0.2
							c-2.2-0.8-7.8,0.1-10.8-0.4l0.2,0.2c-0.8,0.2-0.9-0.1-1.5-0.1c0.1,0.1,0.8,0.2,0.4,0.3c-6.5,0.2-13.4-0.3-20.1-0.4
							c-2.4,0-1.4,0.9-4.5,0.5l0.9-0.3c-4.9,0.4-10.1,0-14.9,0.3c0.3-0.1,0.3-0.2,0.8-0.2c-1-0.2-3.8,0-3.8,0.2
							c-0.7,0-0.2-0.2-0.6-0.3c-1-0.1-2.6,0.3-3.1,0.1c-0.1,0,0.3-0.1,0.5-0.1c-0.7,0.1-3.1,0-2.5,0.2c-1.8-0.1-3.5,0.1-4.9,0
							c-0.1,0-0.2,0.1-0.2,0.1c0,0-0.1,0-0.1,0c-0.1,0-0.2,0-0.3,0c0-0.3,0.1-0.4-0.2-0.5c0.5,0.1,0.4-3.2,0.2-4.3
							c0.1,0.4,0.1-1,0.3-0.5c0-1.3-0.1-2.5-0.3-2.3c0.5-2.4-0.4-4.8,0.3-6.2c0-0.1,0-0.2,0-0.2l0,0l0-0.1c0-0.1,0-0.2-0.1-0.2
							c-0.2-0.1,2.1-0.2,3.5-0.2c1.5-0.1,3-0.1,4.4-0.2c-0.1,0.5-3.8,0-3.7,0.5c3.3-0.2,5.2-0.6,8.5-0.5c0.8,0.1-0.5,0.2-0.8,0.3
							c3.3-0.2,6.4,0,9.3-0.2c0,0-0.3,0.1-0.6,0.1c0.6,0,1.3,0.1,1.3-0.1l-0.6,0.1c-0.9-0.3,2.3-0.6,2.4-0.8c-1,0.6,2.9,0.1,1.3,0.9
							c0.4,0,0.9-0.1,0.8-0.3c0.6,0,0.7,0.1,0.2,0.3c2.1-0.1,1.3-0.3,3.2-0.3c0,0.1-0.4,0.1-0.6,0.3c1-0.2,1.9-0.4,3.5-0.3
							c-0.1,0.1,0.1,0.1-0.4,0.1c2.7,0,4.6-0.5,7.6-0.3c-0.9,0.4,1,0.1,1.2,0.5l1.6-0.1l-0.6-0.2c1.4,0,2.7-0.3,3.9-0.1l-1,0.2
							l2.6-0.1l-1.5-0.1c1.4-0.2-0.2-0.5,1.7-0.4c-0.4,0,1.4,0,2.1,0.2l0,0c0.7-0.1,1.4-0.2,2.5-0.2c0.3,0.1-0.2,0.4,0,0.5
							c0.7-0.3,3.3-0.1,4.2-0.4c-0.3,0.1-0.3,0.3-0.2,0.3l0.6-0.3c0.7,0.1,0.7,0.1,0.6,0.3c2,0-0.6-0.5,1.7-0.3
							c-0.2,0-0.1,0.1-0.5,0.1c2.3,0.1,4.5-0.2,6.7,0c0.6,0.4-1.9,0.1-1.2,0.4c3.1-0.1,6.4-0.5,9.4-0.4l-0.6,0
							c0.4-0.5,2.2,0.3,3.8,0c-0.4,0-0.5,0.3-0.4,0.2c2.1,0.1,4.2-0.1,7.3-0.3l-0.4,0.1c1.2,0.1,3.2,0.1,4.5,0.1
							c0.4-0.1,1.1-0.1,0.7-0.3c4,0.8,7.7-0.4,11.3,0.2c-0.4,0-1,0.1-0.7,0.1l3-0.1c-0.2-0.2-0.4-0.1-1-0.3c0.4-0.1,1.2-0.2,2-0.2
							c-1.4,0.2,0,0.4,0.6,0.5c-0.1-0.1,0.1-0.1,0.1-0.2c1.6,0.4,0.3-0.5,2.4-0.2l-0.1,0.1c0.8-0.1,1.6-0.2,2.4-0.2
							c0.4,0.3-0.9,0.1-0.9,0.3c1.2,0,2.4-0.5,3.5-0.2c-0.5,0.1-1.3,0.1-1.8,0.1c1.2,0.3,1.4,0.2,2.3,0.3l-0.1,0l2.1,0.1l-0.5-0.1
							c1.5-0.7,3.1-0.1,5.2-0.6c-2,0.4-0.3,0.3-0.5,0.6c0.5,0.1,1.3,0.2,1.1,0.3c1-0.2,1.6,0.2,3-0.2c0.1,0.1,1.1,0,0.8,0.3
							c1.3-0.1-0.3-0.2-0.2-0.3c2-0.3,4.6,0.4,7.5-0.1c2.4-0.2,2.9-0.5,5.2-0.7c0.8,0.2-0.6,0.4-0.6,0.4c1.2,0.1,2.2,0.1,3.3,0
							c-0.2,0.1,0,0.2,0.4,0.3c0.9,0,0.6-0.4,1.9-0.2c-0.2,0.1-0.5,0.3-0.9,0.4c1.1-0.1,2.2-0.3,3.3-0.4c0.3,0.2-0.7,0.3-1.1,0.4
							c1.3-0.1,3.3-0.2,3.7-0.4l-0.8-0.1c0.5,0,0.2,0.2-0.1,0.3c-1.1,0.2-1.6-0.1-1.6-0.2l0.8-0.1c-0.8-0.6-3.3,0.1-4.9,0.1l0.7-0.4
							l-1.7,0.3c-0.4-0.1-0.6-0.3,0.2-0.4c-1.2-0.2-1,0.1-2-0.1c-0.1,0-0.1-0.1,0-0.1l-1.1,0.1c0.2-0.1-0.2-0.3,0.5-0.2
							c-2.1-0.2-3.3,0.3-4.1,0l0.2,0c-2.8,0.1-0.3,0.3-2.4,0.7l-1.4-0.8l-0.3,0.3c-0.3,0-0.9,0-0.8-0.2c-1.1,0.2,0.2,0.1-0.4,0.3
							c-1.4-0.3-3.9,0.1-4.2-0.4c-0.5,0.2,1.4,0.2-0.2,0.3c-0.4-0.5-1.7,0.1-3-0.2c0.4-0.3,1.6-0.1,0.3-0.4c-0.8,0.5-2.5-0.1-3.6,0
							c-0.1,0.4-2.4,0.2-4.2,0.3c0.1-0.1-3.4-0.2-5.1-0.3l0.1-0.1c-0.3,0.4-2.1,0.3-3.4,0.4c0.1-0.2,0.3-0.3,1-0.4l-1.2,0
							c-0.3,0.1-0.7,0.2-1.4,0.2l0.3-0.3c-1.6,0-3.2,0.3-5.3,0.1c-0.1,0.3,1.6,0.7-0.5,0.9c-0.1-0.1-0.2-0.4,0.4-0.4
							c-0.2,0-0.7,0.1-1,0.1l0.9-0.2c-0.9-0.1-0.5,0.2-1.2,0.2c0-0.2-0.6-0.1-0.4-0.3c0.2,0,0.7,0.1,0.9,0c-0.8,0-1.9-0.2-2.2-0.3
							c0.1,0.1,0,0.3-0.6,0.3c-1.6,0-0.5-0.2-1.5-0.3c-0.4,0.1-1.4,0-1.4,0.3c-0.5,0-0.6-0.1-0.7-0.2c-0.8,0.1-3.9,0-2.9,0.4l0.2,0
							c0,0-0.1,0-0.1,0c0,0,0,0,0,0h0c-2.7,0.3-5.6-0.2-8.3,0l0-0.1c-1.6,0.1-3.6,0.1-4.7,0.3c-0.5,0-1.1-0.2-0.9-0.3
							c-1.2,0.1-1.4,0.2-3.1,0c1.2-0.2-0.4-0.2,1.3-0.1c-1.6-0.1-2-0.2-3.7,0c0.6-0.3-1.2-0.3-2-0.2l1.1,0.2c-0.9,0-1.6,0-2.4,0
							l0.4-0.3c-3.3-0.4-5.9,0.7-8.4,0c-0.9,0.2,1.8,0.2,1,0.4c-1.5,0-3.1-0.5-3.5-0.5c-2.1-0.2-1.9,0.5-4.1,0.4
							c0.3,0.1,0.5,0.4-1.1,0.5c-1.5,0-1.8-0.5-0.9-0.6c0.4,0,0.5,0,0.5,0.1c0.5,0,1.1-0.1,0.5-0.2l-0.2,0.1
							c-0.7-0.1-2.8-0.1-2.3-0.3c-1.1,0.1-0.5,0.2,0.4,0.3c-1.9-0.2-3,0-5-0.1c0.3,0.1,0.6,0.2,0.3,0.2c-2.9-0.1-1.3,0.2-3.2,0.3
							c-1.1-0.2,0.4-0.4-1.6-0.3c-1.2-0.1-0.3-0.3,0.2-0.4c-1.8,0.2-3.4-0.2-4.4-0.2l1-0.1c-0.6,0.1-1,0.1-1.5,0.1l0.5,0.2
							c-0.6,0-1,0-1-0.1c-0.6,0.2,0.4,0.4-0.7,0.6c-0.7-0.1-2.3,0.1-2.5-0.2c2.3,0.1-0.3-0.3,1.7-0.4c-0.4,0-0.8,0-1.4,0
							c-0.1,0,0.1-0.1,0.2-0.1c-2.2-0.3-1,0.4-3.4,0.3c0.3-0.2-0.5-0.3-0.9-0.3c0.9,0,0.4,0.3-0.4,0.4c-1.5-0.1-1.6,0.1-2.4,0.1
							l0.9,0.1c-0.3,0.2-1,0.2-2.1,0.2c-0.1-0.1,0.9-0.1,0.6-0.2c-1.2,0.3-2.6-0.3-4.2-0.1c-0.7-0.1-0.1-0.3-0.7-0.4
							c-1.8,0.2-2-0.2-3.8-0.1c0.5,0.2,0.6,0.2-0.7,0.4l3.1-0.2l-2,0.3c0.9,0,2-0.1,2.5-0.1c-1,0.2-0.9,0.1-0.4,0.3
							c-1.3-0.4-2.5,0.2-4,0l0-0.6c-2.2-0.3-4,0.3-6.9,0.2l0.9,0.1c-0.4,0.2-1.8,0-2.7,0.1c0-0.1-0.1-0.2-0.3-0.2
							c-0.3-0.1-0.7-0.1-1-0.2c0.1,0.1-0.7,0.1-1.6,0.1c0,1,0.1,2,0.3,2.3c0,0.3-0.1,0.5-0.1,0.8l-0.1,0.6c-0.1,2.3,0.6,2.7,0.5,4.9
							c-0.2-0.7-0.4,0.3-0.5-1.2c0,0.8,0,1.4,0.1,1.4c-0.1,0.4,0.3,2.1,0.1,2.8c0.1,0.3,0.3,0.4,0.3,1.3c0,0.1-0.1,0-0.1,0
							c0.1,0,0.1,1.3,0.4,0.6c-0.2,0.6-0.2,1.2-0.3,2c0,0.2,0,0.4,0,0.6c0,0.2,0,0.5,0,0.7c0,0.5,0,1,0,1.5c2.4,0,3.7-0.1,4.8,0.2
							c1.6-0.1,3.6-0.1,5.1-0.1c-0.1,0.1,0,0.1-0.3,0.1c2.1,0.2,1.3-0.6,3.6-0.4c1.2,0.3-1.2,0.2-0.5,0.3c0.3,0.6,2.8-0.1,4.4,0.3
							l-0.4,0c1.2,0.2,2.9-0.2,4.9-0.2c0,0-0.1,0.1,0,0.1c1.3-0.3,3.9-0.4,5.8-0.5c-0.6,0.3-0.9,0.1-0.5,0.4c0.8,0-0.2-0.4,1.4-0.5
							c0.5,0.1,1.8,0.3,1.9,0.5l-1.6,0c0.8,0.4,2.1,0,2.9,0l-0.1,0.2c2.4-0.1,2.5-0.4,5.1-0.4l-0.3-0.1c1.4-0.4,1.2,0.2,2.6-0.1
							l0.4,0.4c0.9-0.1,3.3-0.4,5-0.5c-1,0.3-3,0.4-4.2,0.6c0.9,0,3.2,0,3.7-0.2c-0.4,0-0.9,0.1-1.2,0.1c1.2-0.3,2.7-0.5,4.5-0.5
							c-0.3,0.8,4.9,0.2,6.2,0.8c3.3-0.3,6.6,0.1,10.4,0.1c-1.4-0.6,1.1,0,0.9-0.6c0.9,0,1.2,0,1.3,0l2.7,0.4
							c0.6,0.2-0.9,0.1-0.8,0.3c2,0,0.8,0.3,2.1,0.4c-0.3-0.2,0.7-0.3,1.8-0.2l-1.6-0.3c2.7-0.3,2.4,0.5,5.1,0.2l-0.9,0.2
							c1.4-0.1,5.2,0,6.6-0.5c0.3,0.1,0.6,0.2,0,0.3c3.4,0.1,7.6-0.5,10.2-0.2l-0.3,0.1c0.6,0,1.1-0.3,1.9-0.1c0,0.1-0.3,0.1,0,0.2
							c0.3-0.1,1.7-0.3,2.5-0.2l-0.7,0.2c3.3,0.2,5.1-0.4,7.9-0.5c0,0.4,2.6,0.6,3.9,0.7l0,0.1c3.9,0.1,6.6-0.4,10.1-0.5
							c2.2,0.5,7.5,0.2,11.1,0.5c-0.5-0.1,0.1-0.3,0.7-0.4c0.8,0.1,2.3-0.3,2.2,0.1l-0.3,0c0.6,0.4,2.4,0.3,3.7,0.3l0.2-0.5
							c3.5,0.8,9.2-0.3,11.1,0.4c0.8-0.1,1.9-0.1,2.7-0.3l0,0.3c2.3,0.1,3.5,0.1,6.4,0l-0.6,0.2c1.6,0,2.1-0.8,3.6-0.8l0.5,0.4
							c2.9,0,5.7,0.4,8.6,0c0,0.1-0.1,0.2-0.6,0.2c1.3,0,5.2,0.3,4.7-0.3c0,0.4,2.9,0,4.5-0.1l-0.2,0.3c1.3-0.4,1.3-0.5,3.2-0.6
							c0.4,0,0.4,0.2-0.2,0.2c1.4,0.1,1.1-0.3,2.9-0.1l-0.6,0.2c1.5,0,1.4-0.1,2.2-0.3c1-0.1,2.7,0.1,3.4,0.3
							c0.2-0.1,0.6-0.2,1.2-0.3c0-0.4,0-0.8,0-1.3c0.1-0.1,0.2,0.3,0.2,0.6c0-0.4,0-0.9,0-1.3c0-0.2,0-0.3,0-0.5c0-0.1,0-0.3,0-0.4
							c0-0.5-0.1-0.9-0.1-1.3c-0.1-0.8-0.1-1.5,0-2.4c0.1,0,0.1-0.1,0.2-0.3c0,2,0,3.5,0,3.4c0.3,0,0.3-1.6,0.7-0.3
							c-0.2-1.3-0.6-3.4-0.5-5c0-0.1,0-0.1,0.1-0.2l0,0.2c0-0.4,0-0.7,0-1c0-0.5,0.1-0.8,0.1-1.3c0.2-0.2,0.1-1.8,0.1-2.6
							c-0.3,0.1-0.2-1-0.5,0c0-0.1,0,0.1,0,0.7c0,0.1,0,0.3,0,0.3c0,0,0,0,0-0.1c0,0.5,0,1.2,0,2c-0.1-0.6-0.3-1.3-0.1-2.2
							c-0.2-0.4-0.4-0.9-0.5-1.1c0.2-0.5,0.3-1.3,0.5-2c0-0.1,0-0.2,0-0.3c0-0.1,0-0.2,0-0.4c0-0.3,0.1-0.5,0.1-0.7
							c0.1-0.4,0.1-0.8,0.2-0.9c0-0.3,0-0.5,0-0.8c-0.9,0-1.9,0.1-3,0.1c-0.6,0-1.3,0.1-1.9,0.1c-1.2,0.1-2.3,0.2-3,0.4
							c-0.7,0.1-0.8-0.2-1-0.2c0.4-0.1,0.9,0,1.1-0.1c-1.4,0.1-4.1,0.1-4.4,0.4c-1.7-0.2,1-0.3-1.4-0.3l0.3-0.1
							c-1.6-0.2-3-0.2-4.3,0c-0.7,0.1-1.3,0.1-2,0.2L173,125l-0.3,0.1c-0.2,0-0.5,0.1-0.8,0.1c0-0.2,0-0.4,0-0.7l0-0.4
							c0-0.2,0-0.3,0-0.5c0-0.7,0.1-1.5,0.2-2.3c0,0.4-0.1,0.5-0.1,0.6c0.1-2.1,0.1-4.3,0.1-6.5l-0.1-3.3l0-1.6c0-0.7,0-1.4,0-2.1
							c-2.5,0-3.8-0.1-5.5-0.2c-1.7-0.1-1.8,0.1-2.8,0.3l-0.4-0.3l-1.7,0.3c-0.2,0-0.4,0-0.6,0c-0.2,0-0.4,0-0.6,0
							c-0.4,0-0.9,0-1.3-0.1c-0.1,0.9-0.3,1.8-0.5,2.8c-0.1,0.8-0.2,1.8-0.1,2.8l0.2-0.4c-0.1,1.1-0.1,3.5-0.3,3.3
							c0,0.1,0.2,0.4,0.1,0.8l-0.2,0l0.1,2.8c-0.2,2.1-0.6-0.4-0.8,2.7c0,1.2,0.3,3.3,0.4,2.9c0-0.5,0.2-1.2,0.3-1.2l0,1.1
							c0.5,0.2,0.9,1.1,1.4-1.5l-0.2-1.8l0.3-0.6l-0.1,1.5c0.3-0.8,0.1-1.4,0-2c0.1-0.1,0.2-0.4,0.3-0.7l-0.3-1.8
							c0.2-0.2,0.3,0.8,0.5-0.4c-0.2-0.8-0.5,0.8-0.5-0.6c0.3-0.8,0.4-0.6,0.3-1.6c0.1-0.1,0.2,0.1,0.2,0.5
							c-0.1-0.9,0.1-2.4-0.1-2.9c0.3-0.9,0.1-3,0.5-2.9c0-0.1,0-0.2-0.1-0.4c0-0.1,0-0.5-0.1-0.5c-0.1-0.2-0.1-0.4-0.1-0.6
							c0,0,0,0,0.1,0c0,0,0,0,0,0.1c0.1,0.2,0.1,0.2,0.2,0.2c0.1,0,0.2,0,0.2,0c0,0,0.1,0,0.1,0c0.1,0,0.2,0,0.3,0
							c0.7,0,1.2,0.1,1,0.3c1.1-0.5,4-0.2,6-0.5c-0.1,0-0.3,0.1-0.5,0.1c1.1,0,1.5,0.2,2.1,0.3c0-0.2,0.2-0.4,0.7-0.5
							c0.1,0.1,0.1,0.3,0.2,0.5c0,0.1-0.1,0.2-0.1,0.2c0,0.1-0.1,0.1-0.1,0.1c0,0-0.1,0-0.1-0.1c0,0-0.1,0-0.1-0.1
							c-0.1-0.1-0.2-0.1-0.4,0c0.1,0,0.1-0.1,0.2,0c0,0,0,0,0.1,0.1c0,0,0,0.2,0.1,0.3c0.1,0.5,0.1,1,0.3,0.8
							c-0.2,1-0.1,0.9-0.4,1.4c0.5,0.2,0.1,1,0.4,1.8c-0.2,1.5-0.5,0.4-0.3,2.1C170,117.7,169.8,116.2,169.8,116.2z M191.2,135.2
							L191.2,135.2c0-0.3,0-0.6,0-0.8C191.1,134.6,191.2,134.8,191.2,135.2z M191.2,138.5c0-0.4,0-0.9,0-1.4c0.1-0.1,0.2,0,0.2,0.3
							C191.3,137.3,191.3,138,191.2,138.5z M193.1,131.5c0,0.5,0,0.7-0.1,0.8c0-0.2,0-0.5,0-0.9c0,0,0,0,0-0.1
							C193,131.3,193.1,131.4,193.1,131.5z"/>
						<path class="st1" d="M192.7,130.6c0-0.1,0-0.1,0-0.2C192.7,130.5,192.7,130.6,192.7,130.6c-0.1,0.2,0,0.2,0,0.3
							C192.8,130.7,192.8,130.7,192.7,130.6z"/>
						<path class="st1" d="M92.3,125.8L92.3,125.8C92.3,125.8,92.3,125.8,92.3,125.8C92.3,125.8,92.3,125.8,92.3,125.8z"/>
						<polygon class="st1" points="150.5,141.7 150.5,141.7 150.8,141.7 						"/>
						<path class="st1" d="M110.6,126.7c0,0,0.1,0.1,0.2,0.1C110.8,126.8,110.7,126.8,110.6,126.7z"/>
						<path class="st1" d="M118.5,126.8l1.1,0.1C119.1,126.8,118.8,126.8,118.5,126.8z"/>
						<path class="st1" d="M124.6,126.9c0.1,0,0.1-0.1,0.1-0.1l0,0L124.6,126.9z"/>
						<path class="st1" d="M28,127.3c-0.1,0-0.2,0-0.2,0C27.2,127.3,27.5,127.3,28,127.3z"/>
						<path class="st1" d="M56.7,126.6c-0.3,0.1-0.6,0.1-0.9,0.1C56.3,126.8,56.7,126.8,56.7,126.6z"/>
						<path class="st1" d="M7.5,136.5L7.5,136.5c0,0.1,0,0.1,0,0.2L7.5,136.5z"/>
						<path class="st1" d="M54.4,126.7c0.5,0.1,0.9,0,1.3,0C55.4,126.7,54.9,126.7,54.4,126.7z"/>
						<path class="st1" d="M150.9,127.1l0.3,0c0,0,0,0,0,0L150.9,127.1z"/>
						<path class="st1" d="M151.2,127l0.3,0C151.4,127,151.3,127,151.2,127z"/>
						<path class="st1" d="M152.2,126.9l-0.7,0.1C151.8,127,152.1,127,152.2,126.9z"/>
						<path class="st1" d="M142.9,126.9l-0.1,0.1C142.8,127,142.8,127,142.9,126.9z"/>
						<path class="st1" d="M140.4,127c0.6,0,1.5,0.2,2.3,0.2l0.1-0.1C142.4,127.2,141,126.8,140.4,127z"/>
						<path class="st1" d="M130.2,125.7l2,0.1c-0.4-0.1-0.8-0.3,0.1-0.3C129.8,125.2,132.9,125.8,130.2,125.7z"/>
						<path class="st1" d="M123.9,125.5c1.1-0.1,0-0.2,0-0.2C123.2,125.4,123,125.5,123.9,125.5z"/>
						<path class="st1" d="M78,125.5l0.1-0.3C77.2,125.3,78.1,125.4,78,125.5z"/>
						<polygon class="st1" points="69.2,126.9 70,127 70.4,126.8 						"/>
						<polygon class="st1" points="64,125 64.4,125 63,125.1 						"/>
						<path class="st1" d="M8.6,144l-0.3-0.3C7.7,143.7,7.6,144.1,8.6,144z"/>
						<path class="st1" d="M41.8,143.7c0.4,0.2,1.3,0.3,1.9,0.1C43,143.8,42.2,143.6,41.8,143.7z"/>
						<polygon class="st1" points="141.6,144.2 141,144.3 142.2,144.2 						"/>
					</g>
				</g>
			</g>
		</g>
	</g>
	<g>
		<path class="st0" d="M171.2,150.6c0,3.8,0,7.2,0,11.1c-3.8,0-7.4,0-11.7,0c0-3.6,0-7.1,0-11.1
			C163.6,150.6,167.2,150.6,171.2,150.6z"/>
		<g>
			<g>
				<g>
					<g>
						<path class="st1" d="M171.2,151.3c0-0.1,0-0.3-0.1-0.2l0,0.3L171.2,151.3z"/>
						<path class="st1" d="M170.8,150.7c-0.1,0.2-0.2,0.4-0.1,0.7c0.1-0.3,0.1-0.2,0.2-0.6c0.1,0,0.1,0.1,0.1,0.2
							c0-0.1,0.1,0.1,0.1-0.1c-0.1-0.3-0.2-0.3-0.3-0.1C170.7,150.8,170.8,150.7,170.8,150.7z"/>
						<path class="st1" d="M164.3,150.1L164.3,150.1C164.3,150.2,164.3,150.2,164.3,150.1z"/>
						<path class="st1" d="M160,150C160,150,160,149.9,160,150C160,149.9,160,149.9,160,150z"/>
						<path class="st1" d="M158.7,149.6C158.7,149.6,158.7,149.6,158.7,149.6C158.7,149.6,158.7,149.6,158.7,149.6z"/>
						<path class="st1" d="M164.3,150.1l-0.1-0.1C164.2,150.1,164.3,150.1,164.3,150.1z"/>
						<path class="st1" d="M169.9,151.5C169.9,151.4,169.9,151.4,169.9,151.5C169.9,151.4,169.9,151.4,169.9,151.5L169.9,151.5z"/>
						<path class="st1" d="M166.1,149.9L166.1,149.9c0,0,0-0.1,0.1-0.1L166.1,149.9z"/>
						<path class="st1" d="M167.4,149.8c0,0,0,0.3-0.1,0.4c0-0.1,0-0.2,0.1-0.2C167.4,150,167.4,149.9,167.4,149.8z"/>
						<path class="st1" d="M169.6,150.3L169.6,150.3C169.6,150.3,169.6,150.3,169.6,150.3z"/>
						<path class="st1" d="M165.1,149.8c0,0,0-0.1,0-0.1C165.1,149.8,165.1,149.8,165.1,149.8z"/>
						<path class="st1" d="M169.9,152.2C169.9,152.2,169.9,152.2,169.9,152.2C169.9,152.2,169.9,152.2,169.9,152.2z"/>
						<polygon class="st1" points="171.3,150.6 171.3,150.6 171.5,150.6 						"/>
						<path class="st1" d="M158.2,151.4C158.2,151.4,158.2,151.4,158.2,151.4C158.2,151.3,158.2,151.3,158.2,151.4z"/>
						<path class="st1" d="M161,162.8c-0.2-0.3,0.3-0.3,0-0.6C161.1,162.4,160.8,162.7,161,162.8z"/>
						<path class="st1" d="M169.8,151.4C169.8,151.4,169.8,151.4,169.8,151.4C169.8,151.4,169.8,151.4,169.8,151.4z"/>
						<path class="st1" d="M161.1,162.2L161.1,162.2L161.1,162.2C161.1,162.2,161.1,162.2,161.1,162.2z"/>
						<path class="st1" d="M158.4,154.6c0,0,0.1,0,0.1,0C158.4,154.6,158.4,154.6,158.4,154.6z"/>
						<path class="st1" d="M158.8,152.5L158.8,152.5C158.7,152.5,158.7,152.5,158.8,152.5z"/>
						<path class="st1" d="M158.7,155.8C158.7,155.8,158.7,155.8,158.7,155.8C158.7,155.8,158.7,155.8,158.7,155.8
							C158.7,155.8,158.7,155.8,158.7,155.8z"/>
						<path class="st1" d="M158.7,156.9C158.8,156.9,158.8,156.9,158.7,156.9L158.7,156.9L158.7,156.9z"/>
						<path class="st1" d="M170,155.7c0.1,0,0.2,0,0.3-0.1C170.1,155.7,170,155.5,170,155.7z"/>
						<path class="st1" d="M169.9,151.3c0,0.1,0,0.1,0,0.1c0,0,0,0,0,0C169.9,151.4,169.9,151.3,169.9,151.3z"/>
						<path class="st1" d="M161,155.8l0,0.2C161,155.9,161,155.9,161,155.8z"/>
						<path class="st1" d="M168.9,160.5L168.9,160.5C168.9,160.5,168.9,160.5,168.9,160.5z"/>
						<path class="st1" d="M161,156.5c-0.1,0-0.2,0.1-0.2,0.1c0,0,0,0,0.1,0L161,156.5z"/>
						<path class="st1" d="M170.3,155.6L170.3,155.6L170.3,155.6z"/>
						<path class="st1" d="M169.6,154.4c0,0.2,0.4,0.1,0.6,0.1c0.1,0.2-0.3,0.1-0.5,0.2c0.1,0.1,0.4,0.2,0.4,0.3c-0.1,0-0.1,0-0.2,0
							c0.3,0.1,0,0.4,0.4,0.6c0,0-0.1,0-0.1,0c0.2,0,0.4,0,0.5,0c0,0.1,0.2,0.1,0,0.2c0,0-0.1-0.1-0.2-0.1l0.1,0.1
							c-0.3,0.1-0.1-0.1-0.4-0.1c0.1,0.2,0.4,0.3,0.3,0.5c-0.3,0-0.1-0.3-0.4-0.1l0.1-0.2c-0.5,0.1,0-0.1-0.5,0
							c-0.1,0.3,0.2,0.3,0.1,0.5c0.2,0.1,0.3,0,0.5,0c0.3,0.4-0.9,0.3-0.4,0.5c0.2,0.1,0.7,0.1,0.4,0.3l-0.4-0.1
							c0,0.2,0.6,0.1,0.3,0.4c-0.2,0-0.1-0.2-0.2-0.2c-0.3,0.2,0.2,0.1,0.2,0.2l-0.3,0c0.1,0.3,0.3,0.5,0.4,0.8
							c-0.1,0-0.2-0.1-0.3,0c0.2,0.4,0,0.8-0.2,1.1l0.3,0.1c0,0-0.1,0.1-0.2,0c-0.1,0.1,0.2,0,0.3,0.1c0,0.1-0.2,0.1-0.3,0.1
							c0.1,0.2,0.3,0.2,0.3,0.3c0.1,0.1,0.1,0.2-0.1,0.2l-0.1-0.1c-0.1,0,0.6,0.4,0.3,0.4l-0.1-0.1c0,0,0,0.1,0,0.2
							c-0.1,0-0.3,0-0.5-0.3c0.2,0.4-0.2-0.2,0,0.4c-0.2-0.3-0.1-0.4-0.3-0.6c-0.1,0-0.1,0.4-0.2,0.4l0-0.3l-0.2,0.3l-0.1-0.4
							l-0.1,0.1c0,0,0.1,0.1,0.1,0.2c-0.2,0.1-0.4-0.2-0.4-0.4l-0.4,0.3c0-0.1,0.1-0.2,0.1-0.2c-0.2,0.3,0-0.3-0.2,0
							c0,0.1,0,0.2,0,0.2c-0.1-0.2-0.3-0.2-0.5-0.1l0-0.2c-0.3-0.1-0.6,0.1-0.9,0.1c0.1,0.1,0.1,0.5,0,0.5l0-0.3
							c-0.1,0.2,0.1,0.1,0,0.4c-0.1,0-0.1-0.4,0-0.5l-0.1,0.1c0-0.1,0-0.1,0-0.3c-0.1,0.2-0.3-0.3-0.3,0l0-0.1
							c-0.3,0-0.5,0.1-0.7,0.1c0,0.3-0.1,0.2-0.2,0.4c-0.2-0.1-0.4-0.3-0.6-0.3c-0.2,0.1,0,0.2-0.1,0.4c0-0.3-0.2-0.2-0.1-0.4
							c-0.3,0-0.4,0.1-0.7,0.3c0,0.1,0.1,0.2,0.1,0.2c-0.1,0-0.1-0.1-0.1-0.2l0,0c-0.4,0.4-0.9-0.7-1.2-0.2l0,0l-0.3,0.3
							c-0.2,0,0.1-0.2,0-0.4c-0.3,0.4-0.6-0.1-0.8,0.2c0-0.4,0-0.4-0.1-0.3c0,0-0.2,0.1,0-0.1l-0.1,0.2c-0.1,0.2,0.1-0.1,0.1-0.1
							c-0.1,0.1-0.1,0.2-0.2,0.3c-0.1,0-0.1,0.1-0.1,0.1c0-0.1,0.1-0.2,0.2-0.3c0.1-0.1,0.1-0.1,0.2-0.1c0,0,0.1,0,0.1,0l0,0l0-0.1
							c0-0.3-0.9-0.1-0.5-0.5l0.3,0.1c-0.4-0.5,0-1-0.3-1.5c0.1,0,0.2,0,0.2,0.1c0.2-0.1,0-0.4-0.2-0.4c0-0.1,0.2,0,0.3-0.1
							c0.1-0.1-0.3-0.3-0.1-0.3c0,0,0.1,0,0.1,0c-0.1-0.1,0-0.3-0.2-0.3c0.1-0.2-0.1-0.4,0-0.5c-0.3-0.1,0.1-0.3-0.3-0.4
							c0.5,0,0.4-0.3,0.2-0.4c0.1,0,0.1-0.1,0.3-0.1c0-0.1-0.1-0.3-0.3-0.2c0.5-0.2-0.4-0.5,0.3-0.6c-0.2-0.4-0.4-0.8-0.5-1.1
							c0.5,0,0,0.4,0.5,0.4c-0.2-0.3-0.6-0.5-0.5-0.9c0.1-0.1,0.2,0,0.3,0.1c-0.2-0.3,0-0.7-0.2-1c0,0,0.1,0,0.1,0.1
							c0-0.1,0.1-0.1-0.1-0.1l0.1,0.1c-0.3,0.1-0.6-0.2-0.8-0.2c0.6,0.1,0.1-0.2,0.9,0c0,0-0.1-0.1-0.3-0.1c0,0,0.1,0,0.3,0
							c-0.1-0.1-0.3-0.1-0.3-0.2c0.1,0,0.1,0.1,0.3,0.1c-0.2-0.1-0.4-0.3-0.3-0.3c0.1,0,0.1,0.1,0.1,0.1c0-0.1-0.4-0.5-0.4-0.7
							c0,0,0.1,0,0.1,0c0.4,0.4,0.2,0.1,0.5,0.5c0,0,0-0.1,0-0.1l-0.2-0.2c0.1,0,0-0.3,0.1-0.1c0,0.1,0,0.1,0,0.2l0.1-0.1l-0.2-0.1
							c0-0.2-0.3-0.5,0-0.4c0,0,0.1,0,0.3,0.2l0,0c0-0.1,0.1-0.2,0.2-0.2c0,0.1,0,0.4,0.1,0.5c0-0.3,0.2-0.1,0.3-0.4
							c0,0.1,0,0.3,0,0.3l0.1-0.3c0.1,0.1,0.1,0.1,0.1,0.3c0.2,0-0.1-0.5,0.2-0.3c0,0,0,0.1,0,0.1c0.2,0.1,0.5-0.2,0.7,0
							c0.1,0.4-0.2,0.1-0.1,0.4c0.3-0.1,0.7-0.5,1-0.4l-0.1,0c0-0.5,0.2,0.3,0.4,0c0,0-0.1,0.3,0,0.2c0.2,0.1,0.4-0.1,0.8-0.3l0,0.1
							c0.1,0.1,0.3,0.1,0.5,0.1c0-0.1,0.1-0.1,0.1-0.3c0.4,0.8,0.8-0.4,1.2,0.2c0,0-0.1,0.1-0.1,0.1l0.3-0.1c0-0.2,0-0.1-0.1-0.3
							c0-0.1,0.1-0.2,0.2-0.2c-0.1,0.2,0,0.4,0.1,0.5c0-0.1,0-0.1,0-0.2c0.2,0.4,0-0.5,0.3-0.2l0,0.1c0.1-0.1,0.2-0.2,0.3-0.2
							c0,0.3-0.1,0.1-0.1,0.3c0.1,0,0.3-0.5,0.4-0.2c-0.1,0.1-0.1,0.1-0.2,0.1c0.1,0.3,0.1,0.2,0.2,0.3l0,0l0.2,0.1l-0.1-0.1
							c0.2-0.7,0.3-0.1,0.5-0.6c-0.2,0.4,0,0.3-0.1,0.6c0.1,0.1,0.1,0.2,0.1,0.3c0.1-0.2,0.2,0.2,0.3-0.2c0,0.1,0.1,0,0.1,0.3
							c0.1-0.1,0-0.2,0-0.3c0.2-0.3,0.5,0.4,0.8-0.1c0.3-0.2,0.3-0.5,0.5-0.7c0.1,0.2-0.1,0.4-0.1,0.4c0.1,0.1,0.2,0.1,0.3,0
							c0,0.1,0,0.2,0,0.3c0.1,0,0.1-0.4,0.2-0.2c0,0.1,0,0.3-0.1,0.4c0.1-0.1,0.2-0.3,0.3-0.4c0,0.2-0.1,0.3-0.1,0.4
							c0.1-0.1,0.3-0.2,0.4-0.4l-0.1-0.1c0,0,0,0.2,0,0.3c-0.1,0.2-0.2-0.1-0.2-0.2l0.1-0.1c-0.1-0.6-0.3,0.1-0.5,0.1l0.1-0.4
							l-0.2,0.3c0-0.1-0.1-0.3,0-0.4c-0.1-0.2-0.1,0.1-0.2-0.1c0,0,0-0.1,0-0.1l-0.1,0.1c0-0.1,0-0.3,0.1-0.2
							c-0.2-0.2-0.3,0.3-0.4,0l0,0c-0.3,0.1,0,0.3-0.2,0.7l-0.1-0.8l0,0.3c0,0-0.1,0-0.1-0.2c-0.1,0.2,0,0.1,0,0.3
							c-0.1-0.3-0.4,0.1-0.4-0.4c-0.1,0.2,0.1,0.2,0,0.3c0-0.5-0.2,0.1-0.3-0.2c0-0.3,0.2-0.1,0-0.4c-0.1,0.5-0.3-0.1-0.4,0
							c0,0.4-0.2,0.2-0.4,0.3c0-0.1-0.4-0.2-0.5-0.3l0-0.1c0,0.4-0.2,0.3-0.3,0.4c0-0.2,0-0.3,0.1-0.4l-0.1,0c0,0.1-0.1,0.2-0.1,0.2
							l0-0.3c-0.2,0-0.3,0.3-0.5,0.1c0,0.3,0.2,0.7-0.1,0.9c0-0.1,0-0.4,0-0.4c0,0-0.1,0.1-0.1,0.1l0.1-0.2
							c-0.1-0.1-0.1,0.2-0.1,0.2c0-0.2-0.1-0.1,0-0.3c0,0,0.1,0.1,0.1,0c-0.1,0-0.2-0.2-0.2-0.3c0,0.1,0,0.3-0.1,0.3
							c-0.2,0-0.1-0.2-0.2-0.3c0,0.1-0.1,0-0.1,0.3c0,0-0.1-0.1-0.1-0.2c-0.1,0.1-0.4,0-0.3,0.4l0,0l0,0h0h0c-0.3,0.3-0.6-0.2-0.9,0
							l0-0.1c-0.2,0.1-0.4,0.1-0.5,0.3c0,0-0.1-0.2-0.1-0.3c-0.1,0.1-0.1,0.2-0.3,0c0.1-0.2,0-0.2,0.1-0.1c-0.2-0.1-0.2-0.2-0.4,0
							c0.1-0.3-0.1-0.3-0.2-0.2l0.1,0.2c-0.1,0-0.2,0-0.2,0l0-0.3c-0.3-0.4-0.6,0.7-0.9,0c-0.1,0.2,0.2,0.2,0.1,0.4
							c-0.1,0-0.4-0.5-0.5-0.5c-0.4-0.2-0.2,0.5-0.6,0.4c0.1,0.1,0.2,0.4,0.1,0.5c-0.2,0-0.5-0.5-0.4-0.6c0.1,0,0.1,0,0.1,0.1
							c0,0,0.1-0.1,0-0.2l0,0.1c-0.2-0.1-0.5-0.1-0.6-0.3c-0.1,0.1,0,0.2,0.2,0.3c-0.4-0.2-0.5,0-0.9-0.1c0.1,0.1,0.3,0.2,0.2,0.2
							c-0.2,0-0.2,0-0.3,0c0.1,0.2,0.3,0.3,0.3,0.5c-0.2,0-0.4-0.4-0.3,0c-0.1,0.1-0.3-0.2-0.4-0.4c0.2,0.5-0.2,0.5-0.2,0.7
							l-0.1-0.2c0.1,0.1,0.1,0.2,0.1,0.3l0.2,0c0,0.1,0,0.2-0.1,0.1c0.2,0.2,0.4,0.1,0.6,0.4c-0.1,0.1,0.1,0.4-0.2,0.3
							c0.1-0.4-0.3,0-0.4-0.4c0,0.1,0,0.2,0,0.3c0,0-0.1,0-0.1-0.1c-0.3,0.4,0.4,0.3,0.3,0.7c-0.2-0.1-0.3,0.1-0.3,0.2
							c0-0.2,0.3,0,0.4,0.1c-0.1,0.2,0.1,0.2,0.1,0.2l0.1-0.1c0.2,0,0.2,0.1,0.2,0.2c-0.1,0-0.1-0.1-0.2-0.1
							c0.3,0.1-0.3,0.3-0.1,0.4c-0.1,0.1-0.3,0-0.4,0.1c0.2,0.2-0.2,0.2-0.1,0.4c0.2-0.1,0.2-0.1,0.4,0.1l-0.2-0.3l0.3,0.2
							c0-0.1-0.1-0.2-0.1-0.3c0.2,0.1,0.1,0.1,0.3,0c-0.4,0.1,0.2,0.3,0,0.4l-0.6,0c-0.3,0.2,0.3,0.4,0.2,0.7l0.1-0.1
							c0.2,0,0,0.2,0.1,0.3c-0.2,0-0.3,0.1-0.4,0.1c0.1,0,0,0.2,0.4,0.2l-0.3,0.1c-0.1,0.2,0.6,0.3,0.5,0.5c-0.2-0.1-0.4,0-0.5-0.1
							c0,0.1,0,0.1,0.1,0.1c-0.1,0,0.3,0.2,0.1,0.3c0.1,0,0.3,0,0.3,0.1c0,0-0.1,0-0.1,0c0.1,0,0.1,0.1,0.4,0.1
							c-0.6,0.2,0,0.7-0.5,0.9c0.1,0.2,0.1,0.4,0.1,0.5c-0.1,0-0.1,0-0.1,0c-0.2,0.2,0.6,0.1,0.4,0.4c-0.3,0.1-0.2-0.1-0.3-0.1
							c-0.6,0,0.1,0.3-0.3,0.5l0,0c-0.2,0.1,0.2,0.3,0.2,0.5c0,0-0.1,0-0.1,0c0.3,0.1,0.4,0.4,0.5,0.6c-0.3-0.1-0.1-0.1-0.4-0.1
							c0,0.1,0.4,0,0.5,0.1c-0.1,0.1-0.3,0.2-0.5,0.2l0-0.2c-0.4,0.1,0,0.2,0,0.3l-0.2,0c0.1,0.3,0.4,0.2,0.4,0.6l0.1,0
							c0.4,0.1-0.2,0.2,0.1,0.3l-0.4,0.2c0.1,0.1,0.4,0.4,0.5,0.5c-0.3,0.1-0.4-0.2-0.6-0.3c0,0.2,0,0.5,0.2,0.5
							c0,0-0.1-0.1-0.1-0.1c0.3,0,0.5,0.1,0.5,0.3c-0.5,0.3-0.4,0.6-0.5,1c0.1,0,0.2,0.1,0.1,0.3c0.4-0.1,0.6-0.1,0.9-0.1
							c0.3,0.1,0.5,0.1,0.9,0.1c-0.1-0.6,0.2,0,0.2-0.6c0.1,0,0.2,0,0.2,0c0.1,0.1,0.2,0.2,0.3,0.4c0.1,0.2-0.1,0.1-0.1,0.3
							c0.2,0,0.1,0.3,0.2,0.4c0-0.2,0.1-0.3,0.2-0.2l-0.2-0.3c0.3-0.3,0.2,0.5,0.5,0.2l-0.1,0.2c0.1-0.1,0.5,0,0.7-0.5
							c0,0.1,0.1,0.2,0,0.3c0.4,0.1,0.8-0.5,1.1-0.2l0,0.1c0.1,0,0.1-0.3,0.2-0.1c0,0.1,0,0.1,0,0.2c0-0.1,0.2-0.3,0.3-0.2l-0.1,0.2
							c0.3,0.2,0.5-0.4,0.8-0.5c0,0.4,0.3,0.6,0.4,0.7l0,0.1c0.4,0.1,0.7-0.4,1-0.5c0.2,0.5,0.8,0.2,1.1,0.5c-0.1-0.1,0-0.3,0.1-0.4
							c0.1,0.1,0.2-0.3,0.2,0.1l0,0c0.1,0.4,0.2,0.3,0.4,0.3l0-0.5c0.4,0.8,1-0.3,1.2,0.4c0.1-0.1,0.2-0.1,0.3-0.3l0,0.3
							c0.4,0.1,0.7,0.1,1.2,0l0,0.2c0.4,0,0-0.8,0.2-0.8l0.3,0.4c0.3,0,0.8,0.1,1.1,0.2c0-0.2,0-0.4-0.2-0.7
							c0.1,0.1,0.2,0.2,0.2,0.3c0-0.2,0.3-0.8-0.3-1c0.4,0.2,0-0.5-0.1-0.8l0.3,0.1c-0.4-0.3-0.5-0.3-0.6-0.6c0-0.1,0.2,0,0.2,0
							c0.1-0.2-0.3-0.2-0.1-0.4l0.2,0.1c0-0.2-0.1-0.1-0.3-0.2c-0.1-0.1,0.1-0.3,0.3-0.3c-0.2,0-0.4-0.1-0.3-0.2c0.1,0,0.2,0,0.2,0
							c0.2-0.3-0.3-0.4-0.1-0.6c0.1,0,0.1,0,0.2,0c0,0.2,0,0.4,0,0.4c0.3,0,0.3-0.2,0.7,0c-0.2-0.1-0.6-0.4-0.5-0.5c0,0,0,0,0.1,0
							l0,0c0,0,0-0.1,0-0.1c0-0.1,0.1-0.1,0.1-0.1c0.2,0,0.1-0.2,0.1-0.3c-0.3,0-0.2-0.1-0.5,0c0,0,0,0,0,0.1c0,0,0,0,0,0l0,0
							c0,0.1,0,0.1,0,0.2c-0.1-0.1-0.3-0.1-0.1-0.2c-0.2,0-0.4-0.1-0.5-0.1c0.4-0.1,0.6-0.3,0.8-0.4c-0.2-0.2-0.1-0.6-0.6-0.7
							c-0.1-0.1,0.2-0.1,0.2-0.1c0.1,0,0,0.1,0.1,0.1c-0.1-0.1-0.1-0.4-0.4-0.5c0.2-0.2,0.3,0.1,0.3-0.1l0.1,0
							c0.6-0.5-0.9-0.8-0.2-1.3c0,0-0.1,0.1-0.1,0.1c0.3-0.6-0.3-1.3,0.2-1.9c0.1-0.2-0.1-0.2-0.3-0.3l0.3,0l-0.3-0.2
							c-0.3-0.3,0.7-0.4,0.3-0.8l-0.2,0c0-0.1-0.1-0.4,0.1-0.3c0,0-0.2,0-0.1-0.1l0.2,0l-0.3-0.3c0.1-0.2,0.6,0,0.7-0.3
							c-0.1-0.1-0.5-0.3-0.6-0.3c0,0-0.1,0.1-0.3,0.1l-0.1-0.1c-0.5,0-0.9-0.1-1.3,0.2l0.3,0.2l-0.2,0.1l0-0.2
							c-0.2,0.1,0,0.1,0.1,0.2c-0.1,0-0.2,0-0.2,0.1l0.4,0.2c-0.2,0-0.4-0.1-0.5,0c0.2,0.1,0.4-0.1,0.5,0.1
							c-0.2,0.1-0.4,0.1-0.2,0.2c-0.1,0-0.2,0-0.2,0c0.1,0.1,0.1,0.2,0.3,0.3c-0.3,0.1,0.1,0.3-0.4,0.3c0.1,0,0.3,0.2,0.4,0.2
							c-0.5-0.2,0,0.3-0.6,0.3c0.5,0.1,0.2,0.4,0.5,0.6c0,0-0.1,0-0.1-0.1c0,0.1-0.2,0.1-0.3,0.2c0.4,0,0.5,0.2,0.7,0.3
							c-0.4,0.1-0.5-0.1-0.8,0c0.3,0,0.3,0.2,0.6,0.2c-0.2,0.1-0.1,0.1-0.4,0.1c0.5,0,0.1,0.1,0.4,0.2c-0.2,0.2-0.5,0-0.3,0.2
							C169.8,154.6,169.6,154.4,169.6,154.4z M170.5,158.5L170.5,158.5C170.4,158.5,170.4,158.5,170.5,158.5
							C170.4,158.5,170.4,158.5,170.5,158.5z M170.5,158.9c0,0,0-0.1,0-0.1c0.1,0,0.2,0,0.2,0C170.6,158.7,170.5,158.8,170.5,158.9z
							 M172.4,158.1C172.4,158.2,172.4,158.2,172.4,158.1c-0.1,0.1-0.1,0-0.1,0l0,0C172.3,158.1,172.4,158.1,172.4,158.1z"/>
						<path class="st1" d="M172,158C172,158,172,158,172,158C172,158,172,158,172,158L172,158L172,158z"/>
						<path class="st1" d="M164.4,150.2L164.4,150.2C164.4,150.2,164.4,150.2,164.4,150.2C164.4,150.2,164.4,150.2,164.4,150.2z"/>
						<polygon class="st1" points="169.3,160.4 169.3,160.5 169.3,160.4 						"/>
						<path class="st1" d="M166.3,151.2C166.3,151.2,166.3,151.2,166.3,151.2C166.3,151.2,166.3,151.2,166.3,151.2z"/>
						<path class="st1" d="M167.1,151.2l0.1,0.1C167.1,151.3,167.1,151.2,167.1,151.2z"/>
						<path class="st1" d="M167.7,151.4c0,0,0-0.1,0-0.1l0,0L167.7,151.4z"/>
						<path class="st1" d="M160.6,152.5C160.6,152.5,160.6,152.5,160.6,152.5C160.7,152.5,160.7,152.5,160.6,152.5z"/>
						<path class="st1" d="M160.8,151c0,0.1,0,0.1,0,0.1C160.8,151.2,160.9,151.2,160.8,151z"/>
						<polygon class="st1" points="161,155.8 161,155.8 161,155.8 						"/>
						<path class="st1" d="M160.7,151.2C160.8,151.2,160.8,151.2,160.7,151.2C160.8,151.1,160.7,151.1,160.7,151.2z"/>
						<path class="st1" d="M170.4,151.5L170.4,151.5C170.5,151.5,170.5,151.5,170.4,151.5L170.4,151.5z"/>
						<path class="st1" d="M170.5,151.5L170.5,151.5C170.5,151.4,170.5,151.4,170.5,151.5z"/>
						<path class="st1" d="M170.6,151.3L170.6,151.3C170.5,151.4,170.6,151.4,170.6,151.3z"/>
						<path class="st1" d="M169.6,151.4l0,0.1C169.6,151.4,169.6,151.4,169.6,151.4z"/>
						<path class="st1" d="M169.3,151.4c0.1,0,0.2,0.2,0.2,0.2l0-0.1C169.6,151.6,169.4,151.2,169.3,151.4z"/>
						<path class="st1" d="M168.3,150.1l0.2,0.1c0-0.1-0.1-0.3,0-0.3C168.2,149.6,168.6,150.2,168.3,150.1z"/>
						<path class="st1" d="M167.6,150c0.1-0.1,0-0.2,0-0.2C167.6,149.8,167.5,149.9,167.6,150z"/>
						<path class="st1" d="M162.9,150l0-0.3C162.8,149.7,162.9,149.8,162.9,150z"/>
						<polygon class="st1" points="162,151.3 162.1,151.4 162.1,151.2 						"/>
						<polygon class="st1" points="161.4,149.5 161.5,149.4 161.3,149.5 						"/>
						<path class="st1" d="M158.5,156.7l0.3,0C158.8,156.6,158.4,156.6,158.5,156.7z"/>
						<path class="st1" d="M158.8,160.2c-0.2,0.1-0.3,0.2-0.1,0.3C158.7,160.4,158.9,160.2,158.8,160.2z"/>
						<polygon class="st1" points="168.4,162.9 168.3,163 168.4,162.9 						"/>
					</g>
				</g>
			</g>
		</g>
	</g>
</g>
</svg>
