<?xml version="1.0" encoding="utf-8"?>
<!-- Generator: Adobe Illustrator 21.0.2, SVG Export Plug-In . SVG Version: 6.00 Build 0)  -->
<svg version="1.1" id="Layer_1" xmlns="http://www.w3.org/2000/svg" xmlns:xlink="http://www.w3.org/1999/xlink" x="0px" y="0px"
	 viewBox="0 0 315 165" style="enable-background:new 0 0 315 165;" xml:space="preserve">
<style type="text/css">
	.st0{fill:#FFFFFF;}
	.st1{fill:#4D4D4D;}
</style>
<g>
	<g>
		<path class="st0" d="M159,84.1c0-19.8,0-38,0-56.7c4.4,0,7.8,0,12.3,0c0,18.3,0,36.7,0,56.2c41,0,81,0,121.4,0
			c0,6.2,0,11.3,0,17.1c-61.8,0-123.5,0-185.6,0c0-5.5,0-10.6,0-16.7C124,84.1,140.7,84.1,159,84.1z"/>
		<g>
			<g>
				<g>
					<g>
						<path class="st1" d="M159,84.6c0.3-0.1,0.1-0.2-0.6-0.2l-0.5,0.2L159,84.6z"/>
						<path class="st1" d="M153.9,84.1c-0.9,0.1-1.9,0.3-1.3,0.6c0.9-0.2,1.1-0.1,2-0.4c0.8,0,1.3,0.1,1.2,0.2
							c0.3-0.1,1.2,0.1,1.6-0.1c-1-0.2-2.2-0.2-3.5,0C153.6,84.2,153.9,84.2,153.9,84.1z"/>
						<path class="st1" d="M116.9,101.1l-0.5,0C116.6,101.1,116.7,101.1,116.9,101.1z"/>
						<path class="st1" d="M162.4,101.2c-0.3,0-0.5,0-0.5,0.1C162.2,101.3,162.5,101.3,162.4,101.2z"/>
						<path class="st1" d="M170.2,101.5c-0.2,0-0.3,0-0.5,0C169.9,101.5,170.1,101.5,170.2,101.5z"/>
						<path class="st1" d="M116.9,101.1l1.2,0.1C118.2,101.1,117.5,101.1,116.9,101.1z"/>
						<path class="st1" d="M143.8,84.7c0.3,0,0.5,0,0.7-0.1C144.2,84.7,144,84.7,143.8,84.7C143.8,84.7,143.8,84.7,143.8,84.7z"/>
						<path class="st1" d="M106.5,90.6l0-0.4c0-0.1-0.1-0.2-0.1-0.3L106.5,90.6z"/>
						<path class="st1" d="M115.9,83.5c-0.3,0-0.5,0.2-0.6,0.3c0.2-0.1,0.5-0.1,0.8-0.1C116.1,83.6,116,83.6,115.9,83.5z"/>
						<path class="st1" d="M140.3,83.9l0.4,0C140.7,83.8,140.5,83.9,140.3,83.9z"/>
						<path class="st1" d="M107.7,101.3c0,0,0.1,0.1,0.2,0.1C107.9,101.4,107.8,101.4,107.7,101.3z"/>
						<path class="st1" d="M160,66.2C160,66.2,159.9,66.2,160,66.2C160,66.3,160,66.4,160,66.2z"/>
						<path class="st1" d="M158.9,84.1l0-0.2c0,0-0.1-0.1-0.1-0.1L158.9,84.1z"/>
						<path class="st1" d="M184.4,101.8C184.4,101.8,184.4,101.8,184.4,101.8C184,101.8,184.2,101.8,184.4,101.8z"/>
						<path class="st1" d="M287.5,82.8c1.5,0.2-2.4,0.2-0.2,0.5C287.1,83.1,289.3,82.9,287.5,82.8z"/>
						<path class="st1" d="M143.4,84.7c-0.2,0-0.4,0-0.6,0C143.1,84.7,143.2,84.7,143.4,84.7z"/>
						<path class="st1" d="M287.3,83.2L287.3,83.2l0.2,0C287.4,83.2,287.4,83.2,287.3,83.2z"/>
						<path class="st1" d="M217.2,101.7c-0.1,0-0.2-0.1-0.3-0.1C216.8,101.6,216.9,101.6,217.2,101.7z"/>
						<path class="st1" d="M192.8,101.4l0.6,0C193.1,101.4,192.9,101.4,192.8,101.4z"/>
						<path class="st1" d="M229.8,101.4c0.3,0,0.4,0,0.9,0c0,0-0.1,0-0.1,0C230.4,101.4,230.2,101.4,229.8,101.4z"/>
						<path class="st1" d="M243,101.4c-0.1,0-0.2,0-0.2,0c-0.1,0-0.3,0-0.4,0L243,101.4z"/>
						<path class="st1" d="M160.2,28.3c-0.1-0.1-0.2-0.1-0.3-0.2C160.1,28.3,159.6,28.3,160.2,28.3z"/>
						<path class="st1" d="M143.8,84.6c-0.1,0.1-0.2,0.1-0.4,0.1C143.5,84.7,143.7,84.7,143.8,84.6
							C143.9,84.6,143.9,84.6,143.8,84.6z"/>
						<path class="st1" d="M230.4,99.7l2.1,0C231.9,99.7,231.1,99.7,230.4,99.7z"/>
						<path class="st1" d="M198.7,84.5l-0.5,0C198.4,84.5,198.5,84.5,198.7,84.5z"/>
						<path class="st1" d="M238.7,99.7c0.4,0.1,0.8,0.1,1.2,0.1c0.1,0,0.2,0,0.2-0.1L238.7,99.7z"/>
						<path class="st1" d="M160,28.1L160,28.1L160,28.1z"/>
						<path class="st1" d="M160.2,40.6c0-2-0.3-0.9-0.4-1.4c-0.1-2.4,0.2-1.1,0.3-1.9c-0.1-1.5-0.3-2.6-0.3-3.7c0-0.1,0.1-0.3,0.1,0
							c-0.1-0.7-0.1-1.8-0.1-2.9c0-0.6,0-1.1,0-1.7c0-0.1,0-0.3,0-0.3l0-0.2c0-0.1,0-0.2-0.1-0.3c0.1,0,0.1,0,0.1-0.1
							c0.1,0,0.1,0,0.1,0.1c-0.2-0.1-0.4-0.3-0.4-0.4c0.6,0,1.5-0.2,1.8,0c-0.5,0-0.6,0.1-0.9,0.1l0.9-0.1c0.9,0.3-1.3,0.1-1.3,0.3
							c1.8-0.1,3.9-0.3,5.3-0.2c0.3,0.3-3.3,0.1-1.4,0.3l-2.2-0.1c1.7,0.4-1.3,0,0.2,0.4c2.9,0.1,3.2-0.1,6-0.1
							c0.6-0.1-0.2-0.2,0.4-0.4c0.3,0,0.6,0,0.9,0c0.2,0,0.5,0,0.7,0c0.2,0,0.4,0,0.5,0.1c0,0.2-0.1,0.3-0.1,0.4
							c-0.1,0.1-0.1,0.1-0.1,0.4c-0.1,0.5-0.1,1,0,2c0.2,0.8,0.5,1.1,0.3,3.2l-0.3-0.7c0,2.8,0.4,1.6,0.2,4.5
							c-0.1-0.5-0.1-2.2-0.1-1.8c-0.2,1.9,0.2,1.3,0.2,2.8l-0.3,0.3c0,2.9,0.2,6.2,0.3,9.4c-0.1-0.2-0.2-0.7-0.2,0
							c0.1,4.1,0,8.8-0.2,12.7l0.2,1.5c0,0.4-0.1,0.7-0.1,0.3c-0.1,1.5,0.1,0.1,0.2,0.8c0,0.9-0.1,1.2-0.2,0.6
							c0.2,2.7,0.4,7.8,0.2,10.6l-0.1-0.6c-0.1,2.2,0.5,2.5,0.2,4.6l0-0.4c0,0.8,0,1.6,0,2.4c0,1,0,2,0,3.1c1.9,0,3.8,0,5.5,0
							c1.5,0,3,0.1,4.2,0.2c0.7-0.3,4.8,0.1,5.1-0.3c2.8,0.2,2,0.3,5.9,0.4c1,0,1.6-0.3,2.8-0.3l0,0.2l1.7-0.2l0.9,0.3l1.2-0.1
							c-0.5,0-1-0.1-1-0.2c1.9-0.1,4.6,0.2,4.7,0.3l4.5-0.2c-0.1,0.1-0.8,0.1-1.4,0.2c2.4-0.2,0.4,0.2,2.6,0
							c-0.3-0.1,0.2-0.1,0.2-0.2c1.1,0.1,3.6,0.1,5.4,0.1l-0.4,0.2c3.3,0,7-0.1,10.7-0.1c-1.3-0.1-1-0.4,0.1-0.4l0.4,0.2
							c0.7-0.2-1.1-0.1,0.3-0.3c1.4,0,0.9,0.3,0.1,0.4l1.7-0.1c0.1,0.1-0.3,0.1-0.4,0.2c0.7-0.2,2.9,0.2,3.9,0l0.1,0.1
							c3.7,0,5.4-0.1,8.4-0.1c0.1-0.2,1.2-0.2,2.1-0.3c2.2,0.1,4.7,0.2,7.4,0.2c1.9-0.1,0.6-0.2,1.4-0.3c0.1,0.2,2.8,0.2,1.4,0.3
							c3.2,0,4.1,0,8.2-0.2c-0.4-0.1-0.9-0.1-0.7-0.2c0.7,0,1.7,0.1,1.6,0.2l-0.2,0c4.6-0.3,10.5,0.6,14.2,0.2l-0.2,0l3.8-0.2
							c1.7,0-1,0.1,0.2,0.3c4.1-0.3,6.4,0,9.8-0.2c0.6,0.1,1.4,0.2,2.4,0.2c0.5,0,1,0,1.5,0c0.2,0,0.3,0,0.5,0l0.1,0l0,0.1l0,0
							l0,0.2l0,0.5c0,0.7,0,1.3,0,1.9c0,1.3,0,2.4-0.1,3.4l0.1-0.2c0.1,0.9-0.1,1.1-0.1,1.8c0.1-0.1,0.1-1,0.2-0.4
							c0,1.4,0,2.9,0,4.3c0,0.7,0,1.5,0,2.2l0,1l0,0.3c-4.7-0.1-9.4-0.2-14-0.3c-2.9,0-1.6,0.7-5.3,0.4l1-0.2
							c-5.8,0.3-11.9,0-17.5,0.2c0.3-0.1,0.3-0.1,0.9-0.1c-1.2-0.2-4.4,0-4.5,0.1c-0.9,0-0.2-0.1-0.7-0.2c-1.2-0.1-3,0.2-3.7,0.1
							c-0.1,0,0.3-0.1,0.6-0.1c-0.8,0.1-3.7,0-2.9,0.2c-2.1-0.1-4.1,0.1-5.8,0c-1.1,0.2-3.6-0.1-4,0.2c0.2-0.3-3.7-0.3-5.1-0.1
							c0.5-0.1-1.2-0.1-0.6-0.2c-1.5,0-2.9,0.1-2.7,0.2c-2.8-0.4-5.7,0.3-7.3-0.2c-4.6,0.2-8.8,0.3-12.9,0.4c0.1-0.3,4.5,0,4.4-0.4
							c-3.9,0.1-6.1,0.4-10,0.3c-1,0,0.6-0.1,0.9-0.2c-3.9,0.1-7.5,0-11,0.2c0,0,0.4-0.1,0.7-0.1c-0.7,0-1.6,0-1.5,0.1l0.7,0
							c1.1,0.2-2.7,0.5-2.8,0.6c1.2-0.4-3.4-0.1-1.6-0.7c-0.4,0-1,0.1-0.9,0.2c-0.7,0-0.9-0.1-0.2-0.2c-2.4,0.1-1.6,0.2-3.8,0.2
							c0-0.1,0.5-0.1,0.7-0.2c-1.1,0.1-2.3,0.3-4.1,0.2c0.1,0-0.1-0.1,0.5-0.1c-3.2,0-5.5,0.4-9,0.2c1-0.3-1.2-0.1-1.4-0.4l-1.9,0.1
							l0.8,0.1c-1.7,0-3.1,0.2-4.6,0.1l1.2-0.1l-3.1,0.1l1.8,0.1c-1.7,0.1,0.2,0.4-2,0.3c0.4,0-1.7,0-2.5-0.2l0,0
							c-0.8,0.1-1.7,0.2-2.9,0.1c-0.3-0.1,0.3-0.3,0-0.4c-0.8,0.2-3.9,0.1-4.9,0.3c0.3-0.1,0.4-0.2,0.2-0.2l-0.7,0.2
							c-0.8-0.1-0.9-0.1-0.8-0.2c-2.3,0,0.7,0.4-2,0.2c0.2,0,0.1,0,0.6-0.1c-2.8-0.1-5.3,0.1-7.9,0c-0.7-0.3,2.2-0.1,1.4-0.3
							c-3.7,0.1-7.6,0.3-11.1,0.3l0.7,0c-0.5,0.4-2.6-0.2-4.4,0c0.4,0,0.6-0.2,0.5-0.2c-2.4-0.1-5,0.1-8.6,0.2l0.5-0.1
							c-1.4-0.1-3.8-0.1-5.3-0.1c-0.5,0.1-1.3,0.1-0.8,0.2c-1-0.1-1.9-0.2-2.9-0.2c-0.5,0-0.9,0-1.4,0l-0.5,0l-0.4,0
							c0-0.5-0.1-1-0.1-1.5c0-0.6,0-1.3-0.1-1.9c0-1.3,0-2.5,0.1-3.8c0,0.5,0.1,1.2,0.1,0.8l-0.1-3.6c-0.2,0.3-0.1,0.5-0.2,1.2
							c-0.1-0.5-0.2-1.5-0.2-2.4c0.1,1.6,0.3,0,0.4-0.7c-0.1,0.1-0.1-0.1-0.2-0.1c0.3-1.9-0.3-0.3-0.1-2.9l0.1,0.1
							c0-0.3,0-0.5-0.1-0.8c0-0.3,0-0.5-0.1-0.8c0.4,0,0.8,0,1.2,0c0.4,0.2-0.9,0.1-0.8,0.3c0.3,0,0.5,0,0.8-0.1
							c0.4,0,0.7-0.1,1.1-0.1c0.7-0.1,1.4-0.1,2,0c-0.6,0.1-1.5,0.1-2.1,0.1c1.4,0.2,1.6,0.2,2.7,0.2l-0.1,0l2.5,0.1l-0.6-0.1
							c1.8-0.5,3.7-0.1,6.2-0.4c-2.4,0.3-0.4,0.2-0.6,0.4c0.6,0.1,1.6,0.1,1.3,0.2c1.2-0.2,1.9,0.1,3.6-0.1c0.1,0.1,1.2,0,1,0.2
							c1.5-0.1-0.4-0.1-0.2-0.2c2.3-0.2,5.5,0.3,8.8,0c2.9-0.1,3.4-0.4,6.1-0.5c0.9,0.1-0.7,0.3-0.7,0.3c1.5,0.1,2.5,0.1,3.9,0
							c-0.3,0.1,0,0.1,0.4,0.2c1.1,0,0.7-0.3,2.2-0.2c-0.2,0.1-0.6,0.2-1.1,0.3c1.3-0.1,2.6-0.2,3.9-0.3c0.4,0.1-0.8,0.2-1.3,0.3
							c1.5-0.1,3.9-0.1,4.4-0.3l-1-0.1c0.5,0,0.3,0.2-0.1,0.2c-1.3,0.2-1.9-0.1-1.9-0.1l1,0c-1-0.4-3.8,0.1-5.8,0l0.8-0.3l-2,0.3
							c-0.4-0.1-0.7-0.3,0.2-0.3c-1.4-0.2-1.2,0.1-2.4-0.1c-0.1,0-0.1,0,0-0.1L139,84c0.3-0.1-0.2-0.2,0.6-0.2
							c-2.4-0.2-3.9,0.2-4.8,0l0.2,0c-3.4,0.1-0.3,0.2-2.8,0.5l-1.7-0.6l-0.3,0.2c-0.3,0-1,0-0.9-0.1c-1.3,0.2,0.2,0.1-0.5,0.2
							c-1.7-0.2-4.6,0.1-5-0.3c-0.6,0.2,1.6,0.1-0.2,0.3c-0.5-0.4-2.1,0.1-3.6-0.1c0.5-0.2,1.9-0.1,0.4-0.3c-0.9,0.3-3-0.1-4.3,0
							c-0.1,0.3-2.8,0.1-4.9,0.2c0.1,0-0.5-0.1-1.3-0.1c-0.9,0-2.1-0.1-3.3-0.1c0,0.5,0,0.9,0,1.4c0,0.4,0,0.7,0,1l0-0.1
							c0.3,0.4,0.2,2.5,0.3,4c-0.2-0.1-0.2-0.3-0.3-1.1l0,1.4c0.1,0.3,0.1,0.8,0.2,1.7l-0.2-0.4c0,1.9,0.2,3.8,0.1,6.2
							c0.2,0.1,0.5-1.9,0.7,0.6c-0.1,0.1-0.3,0.2-0.3-0.5c0,0.2,0.1,0.8,0,1.2l-0.2-1c-0.1,1.1,0.1,0.6,0.1,1.5
							c-0.1,0-0.1,0.8-0.2,0.7c0-0.1,0-0.4,0-0.7c0-0.2,0-0.4,0-0.6c0,0.5-0.1,1.5-0.1,2.2c0.5,0,0.9,0.1,1.1,0.1
							c-0.1,0,0-0.1,0.1-0.1c0.1,0,0.5-0.1,0.8-0.1c1.9,0,0.6,0.2,1.7,0.3c0.5-0.1,1.7,0,1.7-0.2c0.6,0,0.7,0.1,0.9,0.2
							c1-0.1,4.6,0,3.5-0.3l-0.3,0c0,0,0.1,0,0.2,0c0,0,0,0,0,0h0c3.2-0.2,6.6,0.1,9.8,0l0,0.1c1.9-0.1,4.2-0.1,5.6-0.2
							c0.6,0,1.3,0.1,1.1,0.2c1.4-0.1,1.6-0.1,3.7,0c-1.5,0.1,0.5,0.1-1.5,0.1c1.9,0.1,2.3,0.2,4.3,0c-0.7,0.2,1.4,0.2,2.3,0.2
							l-1.3-0.1c1,0,1.9,0,2.8,0l-0.5,0.2c3.8,0.3,6.9-0.5,9.9,0c1-0.2-2.1-0.1-1.2-0.3c1.8,0,3.6,0.4,4.2,0.4
							c2.4,0.1,2.3-0.4,4.8-0.3c-0.3-0.1-0.6-0.3,1.3-0.4c1.8,0,2.2,0.4,1.1,0.4c-0.4,0-0.6,0-0.6-0.1c-0.6,0-1.3,0.1-0.6,0.2
							l0.2-0.1c0.9,0.1,3.3,0.1,2.7,0.2c1.3-0.1,0.6-0.1-0.4-0.2c2.3,0.1,3.5,0,5.9,0.1c-0.4,0-0.7-0.2-0.3-0.2
							c3.4,0.1,1.5-0.2,3.8-0.2c1.3,0.1-0.5,0.3,1.9,0.2c1.4,0.1,0.3,0.2-0.3,0.3c2.1-0.2,4,0.1,5.2,0.1l-1.1,0.1c0.7,0,1.2,0,1.8,0
							l-0.6-0.2c0.7,0,1.2,0,1.2,0.1c0.7-0.1-0.5-0.3,0.8-0.5c0.9,0.1,2.7-0.1,3,0.1c-2.8-0.1,0.3,0.2-2,0.3c0.5,0,1,0,1.7,0
							c0.1,0-0.1,0-0.3,0.1c2.6,0.2,1.2-0.3,4-0.3c-0.3,0.1,0.6,0.3,1.1,0.2c-1.1,0-0.5-0.2,0.5-0.3c1.8,0.1,1.9-0.1,2.8-0.1l-1.1,0
							c0.4-0.1,1.2-0.1,2.5-0.2c0.1,0.1-1.1,0.1-0.7,0.1c1.4-0.2,3.1,0.2,5,0.1c0.9,0.1,0.1,0.3,0.9,0.3c2.1-0.2,2.3,0.2,4.5,0
							c-0.6-0.2-0.8-0.1,0.8-0.3l-3.7,0.1l2.4-0.3c-1.1,0-2.3,0.1-3,0.1c1.1-0.1,1-0.1,0.5-0.2c1.5,0.3,3-0.2,4.8,0l-0.1,0.4
							c2.6,0.2,4.7-0.2,8.1-0.1l-1.1-0.1c0.5-0.2,2.1,0,3.2-0.1c-0.1,0.1,0.6,0.2,1.1,0.3c-0.1-0.1,2.5,0,2.8-0.3l1.5,0.2
							c2.8,0.1,3.2-0.4,5.8-0.4c-0.8,0.2,0.4,0.3-1.4,0.4c0.9,0,1.7,0,1.7-0.1c0.5,0.1,2.5-0.2,3.3-0.1c0.4-0.1,0.5-0.2,1.5-0.2
							c0.1,0,0,0.1,0,0.1c0-0.1,1.6-0.1,0.7-0.3c2.7,0.5,7.6,0,10,0.4c1.9,0,4.3-0.1,6-0.1c-0.1,0,0,0.1-0.3,0.1
							c2.4,0.1,1.5-0.4,4.3-0.3c1.4,0.2-1.5,0.1-0.6,0.2c0.4,0.5,3.3-0.1,5.2,0.2l-0.4,0c1.4,0.2,3.5-0.2,5.8-0.1c0,0-0.1,0,0,0.1
							c1.6-0.2,4.6-0.3,6.8-0.4c-0.7,0.2-1,0.1-0.6,0.3c1,0-0.3-0.3,1.7-0.4c0.6,0.1,2.1,0.2,2.3,0.4l-1.9,0c1,0.3,2.4,0,3.4,0
							l-0.1,0.1c2.9,0,2.9-0.3,6-0.3l-0.3-0.1c1.7-0.3,1.4,0.2,3.1-0.1l0.5,0.3c1.1-0.1,3.9-0.3,5.9-0.3c-1.1,0.2-3.5,0.3-4.9,0.5
							c1.1,0,3.8,0,4.3-0.2c-0.4,0-1,0.1-1.5,0.1c0.7-0.1,1.4-0.2,2.3-0.3c0.4,0,0.9-0.1,1.4-0.1c0.6,0,1.1,0,1.8,0
							c0-0.1,0-0.2,0-0.2c0.1,0.2,0.2-0.1,0.3-0.8c0-0.3,0-0.7,0-1.1c0-0.4,0-0.8,0-1.2c0-1.7,0-3.6,0.2-4.4
							c-0.1-1.5-0.1-3.1-0.1-4.7c0-0.8,0-1.6,0.1-2.4c0-0.4,0-0.8,0-1.2c0-0.7,0-1.4,0-2.1c-1.2,0-2.4,0-3.6,0c1.6,0.4-1.3,0-1,0.5
							c-1.1,0-1.5,0-1.6,0l-3.2-0.3c-0.8-0.1,1-0.1,0.9-0.2c-2.3,0-1-0.2-2.5-0.3c0.3,0.2-0.8,0.2-2.1,0.2l1.9,0.2
							c-3.2,0.2-2.8-0.4-6.1-0.1l1-0.1c-1.7,0.1-6.2,0-7.8,0.4c-0.3-0.1-0.7-0.2,0-0.2c-4-0.1-8.9,0.4-12,0.2l0.3-0.1
							c-0.7,0-1.3,0.2-2.2,0.1c0,0,0.3-0.1,0-0.1c-0.4,0-2,0.2-3,0.1l0.8-0.1c-3.9-0.1-6,0.3-9.3,0.4c0-0.3-3.1-0.4-4.6-0.5l0.1,0
							c-4.6,0-7.7,0.3-12,0.4c-2.6-0.4-8.9-0.1-13.1-0.4c0.6,0.1-0.1,0.3-0.9,0.3c-1-0.1-2.7,0.2-2.6-0.1l0.4,0
							c-0.7-0.3-2.8-0.2-4.4-0.2l-0.3,0.4c-4.1-0.6-10.9,0.2-13.1-0.3c-1,0.1-2.2,0.1-3.2,0.2l0.1-0.2c-2.8-0.1-4.2-0.1-7.6,0
							l0.7-0.2c-1.9,0-2.4,0.6-4.2,0.6l-0.5-0.3c-1.2,0-2.5,0-3.7-0.1c-1.1,0-2.9-0.1-2.8,0l0-0.1l0-0.1c0,0,0,0,0-0.2
							c0-0.4,0-0.9-0.1-1.3c0,0.1,0.1,0.2,0.2,0.7c0-1.6,0.2-6.1-0.2-5.6c0.3,0,0-3.5-0.1-5.3l0.2,0.3c-0.3-1.5-0.3-1.6-0.4-3.7
							c0-0.5,0.2-0.4,0.1,0.2c0.1-1.7-0.2-1.3-0.1-3.4l0.1,0.8c0-1.7-0.1-1.6-0.2-2.6c-0.1-1.1,0.1-3.3,0.2-3.6
							c-0.1-0.2-0.3-1.2-0.2-2.2c0.1-0.1,0.1,0.2,0.1,0.4c0.1-2.9-0.2-4.3,0-6.3c0.1,0,0.1-0.2,0.1-0.3c0,2.3,0,4.2,0,4
							c0.2,0,0.2-1.9,0.5-0.4c-0.1-1.5-0.5-4.1-0.4-5.9c0-0.1,0-0.2,0.1-0.2l0,0.2c0-0.4,0-0.8,0-1.2c0-0.6,0.1-1,0.1-1.5
							c0.2-0.2,0.1-2.1,0.1-3.1c-0.2,0.1-0.2-1.1-0.4,0c0-0.1,0,0.2,0,0.8c0,0.1,0,0.3,0,0.4c0,0,0,0,0-0.1c0,0.6,0,1.4,0,2.3
							c-0.1-0.7-0.2-1.5-0.1-2.5c-0.1-0.5-0.3-1-0.3-1.3c0.3-1.3,0.5-3.7,0.6-4.1c-0.1-2.8-0.1-6.7-0.5-8.5c0-0.4,0-0.6,0-0.8
							c0-0.2,0.1-0.4,0.1-0.6c0,0.3,0,0.7,0,1c0,0.2,0,0.4,0.1,0.6c0-0.1,0-0.3,0-0.4c0-0.2,0-0.4,0-0.6c0-0.5,0-1,0-1.6
							c-0.5,0-1.1,0-1.6,0c-0.4,0-0.7,0-1,0c-0.6,0-1,0.1-1.2,0.2c-2-0.1,1.1-0.3-1.7-0.2l0.4-0.1c-1.5-0.1-2.8-0.1-4.1-0.1
							c-1.4,0.1-2.8,0.2-4.2,0.2c0,0.7,0.1,1.4,0.1,2.1c0,0.6,0,1.1,0.1,1.7c0,1.2,0,2.5-0.2,3.9c0-0.4,0.1-0.6,0.1-0.7
							c-0.3,7,0.2,14.4-0.2,21.3c-0.1,2,0.1,2.2,0.2,3.4l-0.2,0.4l0.3,2c0.2,2.9-0.6,5-0.2,8.7l0.2-0.5c0,1.3,0.1,4.2-0.1,3.9
							c0,0.1,0.2,0.4,0.1,0.9l-0.1,0l0.2,3.2c-0.1,2.5-0.5-0.4-0.5,3.3c0,1.4,0.3,3.9,0.4,3.4c0-0.5,0.1-1.4,0.2-1.4l0.1,1.2
							c0.3,0.2,0.7,1.2,1-1.9l-0.2-2.1l0.2-0.7l0,1.8c0.2-1,0-1.7-0.1-2.4c0.1-0.2,0.2-0.5,0.2-0.9l-0.3-2.1
							c0.1-0.3,0.3,0.9,0.3-0.5c-0.2-1-0.3,0.9-0.4-0.7c0.2-1,0.3-0.7,0.2-1.9c0.1-0.2,0.1,0.1,0.2,0.6c-0.1-1.1,0-2.8-0.2-3.4
							c0.2-1.1-0.1-3.6,0.3-3.5c-0.1-0.3-0.3-1.9-0.3-2.8c0.4,1.8,0-3.7,0.4-3.2c-0.4-1.3-0.2-4.8-0.4-7.1c0,0.1,0.1,0.4,0.1,0.6
							c0-1.3,0.1-1.7,0.2-2.5c-0.3-0.2-0.4-2.2-0.5-3.3c0.3-1.6,0.3,1,0.6,0.5c-0.2,0.1-0.2-2.8-0.4-2.3c0.2-1.2,0.1-1.1,0.3-1.7
							c-0.4-0.2-0.1-1.1-0.3-2.2c0.2-1.8,0.3-0.5,0.2-2.4C160,38.8,160.2,40.6,160.2,40.6z M170.7,48.6L170.7,48.6c0-0.4,0-0.7,0-1
							C170.7,47.8,170.7,48.1,170.7,48.6z M170.7,52.5c0-0.5,0-1.1,0-1.7c0.1-0.1,0.1,0,0.1,0.4C170.8,51,170.8,51.9,170.7,52.5z
							 M172.2,44.2c0,0.6,0,0.8-0.1,0.9c0-0.3,0-0.6,0-1.1c0,0,0-0.1,0-0.1C172.1,44,172.2,44.1,172.2,44.2z"/>
						<path class="st1" d="M171.9,43.1c0-0.1,0-0.1,0-0.3c0,0.1,0,0.2,0,0.4c0,0.1,0,0.2,0.1,0.2C171.9,43.3,171.9,43.2,171.9,43.1z
							"/>
						<path class="st1" d="M116.3,101.1L116.3,101.1C116.4,101.1,116.3,101.1,116.3,101.1C116.3,101,116.3,101.1,116.3,101.1z"/>
						<polygon class="st1" points="194.3,84.6 194.3,84.5 193.9,84.6 						"/>
						<path class="st1" d="M107.4,88.5c0,0,0-0.1,0.1-0.3C107.5,88.2,107.5,88.3,107.4,88.5z"/>
						<path class="st1" d="M111.9,84.5l1.3,0.1C112.7,84.6,112.3,84.6,111.9,84.5z"/>
						<path class="st1" d="M119.1,84.6c0.1,0,0.1-0.1,0.1-0.1c0,0,0,0,0,0L119.1,84.6z"/>
						<path class="st1" d="M192.3,99.9c0.1,0,0.2,0,0.3,0C193.2,99.9,192.7,99.9,192.3,99.9z"/>
						<path class="st1" d="M158.3,100.4c0.4,0,0.7-0.1,1.1-0.1C158.8,100.3,158.3,100.3,158.3,100.4z"/>
						<path class="st1" d="M230.1,99.7L230.1,99.7c0.1,0,0.1,0,0.2,0L230.1,99.7z"/>
						<path class="st1" d="M161,100.3c-0.6,0-1.1,0-1.6,0C159.9,100.3,160.5,100.4,161,100.3z"/>
						<path class="st1" d="M150.2,84.7l0.3,0c0,0,0,0,0,0L150.2,84.7z"/>
						<path class="st1" d="M150.6,84.7l0.4,0C150.8,84.7,150.6,84.7,150.6,84.7z"/>
						<path class="st1" d="M151.8,84.6l-0.8,0.1C151.2,84.7,151.6,84.7,151.8,84.6z"/>
						<path class="st1" d="M140.7,84.6l-0.1,0.1C140.6,84.7,140.7,84.7,140.7,84.6z"/>
						<path class="st1" d="M137.8,84.7c0.7,0,1.7,0.2,2.7,0.1l0.1-0.1C140.1,84.8,138.5,84.5,137.8,84.7z"/>
						<path class="st1" d="M125.8,83.7l2.4,0.1c-0.4-0.1-1-0.2,0.1-0.2C125.3,83.3,128.9,83.8,125.8,83.7z"/>
						<path class="st1" d="M118.3,83.6c1.3,0,0-0.1,0.1-0.2C117.5,83.5,117.3,83.5,118.3,83.6z"/>
						<path class="st1" d="M133.2,101.2l-0.1,0.2C134.1,101.4,133.1,101.4,133.2,101.2z"/>
						<polygon class="st1" points="143.6,100.2 142.6,100.1 142.2,100.3 						"/>
						<polygon class="st1" points="149.7,101.6 149.3,101.6 151,101.6 						"/>
						<path class="st1" d="M240.7,101.5l-0.3-0.2C239.7,101.3,239.6,101.6,240.7,101.5z"/>
						<path class="st1" d="M279.9,101.3c0.4,0.1,1.5,0.2,2.2,0.1C281.3,101.4,280.4,101.3,279.9,101.3z"/>
						<polygon class="st1" points="204.7,82.7 205.5,82.6 204,82.7 						"/>
					</g>
				</g>
			</g>
		</g>
	</g>
	<g>
		<path class="st0" d="M309,4.4c0,5.8,0,10.7,0,16.4c-67.1,0-134,0-201.7,0c0-5.2,0-10.6,0-16.4C174.3,4.4,241.3,4.4,309,4.4z"/>
		<g>
			<g>
				<g>
					<g>
						<path class="st1" d="M309,4.9c0.2-0.1,0.1-0.2-0.5-0.2L308,5L309,4.9z"/>
						<path class="st1" d="M304.7,4.4c-0.7,0.1-1.6,0.3-1.1,0.6c0.7-0.2,0.9-0.1,1.7-0.4c0.6,0,1.1,0.1,1,0.2c0.2-0.1,1,0.1,1.3-0.1
							c-0.8-0.2-1.9-0.2-3,0C304.5,4.6,304.7,4.5,304.7,4.4z"/>
						<path class="st1" d="M242.9,4.1l0.4,0C243.2,4.1,243,4.1,242.9,4.1z"/>
						<path class="st1" d="M204.5,3.9c0.3,0,0.4,0,0.4-0.1C204.7,3.9,204.5,3.9,204.5,3.9z"/>
						<path class="st1" d="M198,3.6c0.1,0,0.3,0,0.4,0C198.2,3.6,198.1,3.6,198,3.6z"/>
						<path class="st1" d="M242.9,4.1l-1-0.1C241.8,4.1,242.4,4,242.9,4.1z"/>
						<path class="st1" d="M296.2,5c0.2,0,0.4,0,0.6-0.1C296.6,5,296.4,5,296.2,5C296.2,5,296.2,5,296.2,5z"/>
						<path class="st1" d="M259.8,3.9l0.3,0c0.1,0,0.2-0.1,0.3-0.1L259.8,3.9z"/>
						<path class="st1" d="M272.7,3.8c-0.3,0-0.4,0.2-0.5,0.3c0.2-0.1,0.4-0.1,0.6-0.1C272.9,3.9,272.8,3.9,272.7,3.8z"/>
						<path class="st1" d="M293.3,4.2l0.4,0C293.6,4.2,293.4,4.2,293.3,4.2z"/>
						<path class="st1" d="M250.5,3.8c0,0-0.1-0.1-0.1-0.1C250.4,3.8,250.4,3.8,250.5,3.8z"/>
						<path class="st1" d="M308,19.4C308,19.5,308,19.4,308,19.4C308,19.4,308,19.3,308,19.4z"/>
						<path class="st1" d="M309.1,4.4l0,0.2c0,0,0.1,0,0.1,0L309.1,4.4z"/>
						<path class="st1" d="M186,3.4C186,3.4,186,3.4,186,3.4C186.4,3.4,186.2,3.4,186,3.4z"/>
						<path class="st1" d="M122.1,21.7c-1.2-0.2,2-0.2,0.2-0.5C122.4,21.3,120.5,21.6,122.1,21.7z"/>
						<path class="st1" d="M295.9,5c-0.2,0-0.4,0-0.5,0C295.6,5,295.7,5,295.9,5z"/>
						<path class="st1" d="M122.3,21.3L122.3,21.3l-0.2,0C122.1,21.2,122.2,21.3,122.3,21.3z"/>
						<path class="st1" d="M158.4,3.5c0.1,0,0.2,0.1,0.3,0.1C158.7,3.6,158.6,3.6,158.4,3.5z"/>
						<path class="st1" d="M179,3.8l-0.5,0C178.7,3.8,178.8,3.8,179,3.8z"/>
						<path class="st1" d="M147.7,3.8c-0.3,0-0.4,0-0.7,0c0,0,0.1,0,0.1,0C147.2,3.8,147.4,3.8,147.7,3.8z"/>
						<path class="st1" d="M136.6,3.8c0.1,0,0.1,0,0.2,0c0.1,0,0.2,0,0.4,0L136.6,3.8z"/>
						<path class="st1" d="M276.6,20c0.2,0.1,0.4,0.1,0.5,0.2C277,20,278.6,19.9,276.6,20z"/>
						<path class="st1" d="M296.2,4.9C296.1,5,296,5,295.9,5C296,5,296.1,5,296.2,4.9C296.3,5,296.3,4.9,296.2,4.9z"/>
						<path class="st1" d="M147.3,5.5l-1.8,0C146,5.5,146.7,5.5,147.3,5.5z"/>
						<path class="st1" d="M196.9,20l0.4,0C197.2,20,197,20,196.9,20z"/>
						<path class="st1" d="M140.3,5.5c-0.3-0.1-0.6-0.1-1-0.1c-0.1,0-0.2,0-0.2,0.1L140.3,5.5z"/>
						<path class="st1" d="M277.1,20.1L277.1,20.1L277.1,20.1z"/>
						<path class="st1" d="M288.8,19.6c-1.7,0-0.8,0.3-1.1,0.4c-2,0.1-0.9-0.2-1.6-0.3c-1.3,0.1-2.2,0.3-3.1,0.3
							c-0.1,0-0.3-0.1,0-0.1c-1.3,0.2-3.9,0-5.5,0.3c-0.1,0-0.2,0-0.2-0.1c0.3,0.1,0.3,0.3,0.2,0.4c-0.8,0-1.4,0.2-1.7,0
							c0.5,0,0.5-0.1,0.7-0.1l-0.8,0.1c-0.7-0.3,1.1-0.1,1.1-0.3c-1.5,0.1-3.3,0.3-4.5,0.2c-0.2-0.3,2.8-0.1,1.2-0.3l1.8,0.1
							c-1.4-0.4,1.1,0-0.2-0.4c-2.4-0.1-2.7,0.1-5.1,0.1c-0.5,0.1,0.2,0.2-0.4,0.4c-3.4,0.3-2.7-0.6-5.2-0.3
							c-0.6,0.2-0.9,0.5-2.7,0.3l0.6-0.3c-2.3,0-1.3,0.4-3.8,0.2c0.4-0.1,1.8-0.1,1.5-0.1c-1.6-0.2-1.1,0.2-2.3,0.2l-0.3-0.3
							c-2.5,0-5.2,0.2-8,0.3c0.2-0.1,0.6-0.2,0-0.2c-3.5,0.1-7.4,0-10.7-0.2l-1.3,0.2c-0.3,0-0.6-0.1-0.2-0.1
							c-1.3-0.1-0.1,0.1-0.7,0.2c-0.7,0-1-0.1-0.5-0.2c-2.3,0.2-6.5,0.4-9,0.2l0.5-0.1c-1.9-0.1-2.1,0.5-3.9,0.2l0.3,0
							c-4.1-0.1-8.6,0.1-11.7-0.2c-0.6,0.3-4-0.1-4.3,0.3c-2.3-0.2-1.7-0.3-5-0.4c-0.9,0-1.3,0.3-2.4,0.3l0-0.2l-1.5,0.2l-0.8-0.3
							l-1,0.1c0.4,0,0.9,0.1,0.8,0.2c-1.6,0.1-3.9-0.2-3.9-0.3l-3.8,0.2c0.1-0.1,0.7-0.1,1.2-0.2c-2,0.2-0.4-0.2-2.2,0
							c0.2,0.1-0.1,0.1-0.2,0.2c-0.9-0.1-3-0.1-4.6-0.1l0.3-0.2c-2.8,0-5.9,0.1-9,0.1c1.1,0.1,0.9,0.4-0.1,0.4l-0.4-0.2
							c-0.6,0.2,1,0.1-0.3,0.3c-1.2,0-0.8-0.3-0.1-0.4l-1.4,0.1c-0.1-0.1,0.3-0.1,0.3-0.2c-0.6,0.2-2.5-0.2-3.3,0l-0.1-0.1
							c-3.1,0-4.6,0.1-7.1,0.1c0,0.2-1,0.2-1.8,0.3c-1.9-0.1-4-0.2-6.2-0.2c-1.6,0.1-0.5,0.2-1.2,0.3c-0.1-0.2-2.4-0.2-1.2-0.3
							c-2.7,0-3.5,0-6.9,0.2c0.4,0.1,0.8,0.1,0.6,0.2c-0.6,0-1.4-0.1-1.3-0.2l0.2,0c-3.8,0.3-8.9-0.6-11.9-0.2l0.2,0l-3.2,0.2
							c-1.5,0,0.9-0.1-0.2-0.3c-3.4,0.3-5.4,0-8.2,0.2c-2.2-0.6-7.8,0-10.7-0.3l0.2,0.1c-0.8,0.1-0.9-0.1-1.5-0.1
							c0.1,0.1,0.8,0.1,0.4,0.2c-0.8,0-1.7,0-2.5,0c0-1.1,0-2.1,0-3.2c0-1.4,0.1-2.7,0.1-4.1c0-1.4,0.1-2.8,0.1-4.1
							c0-0.7,0-1.4,0.1-2.1l0-0.5l0-0.3l0-0.1l0,0l0,0c0,0,0,0,0,0l0,0c0,0,0,0,0,0c0,0,0,0,0,0c0,0,0.1,0,0.2,0
							c0.3-0.1,0.5-0.1,0.7-0.2c0.4-0.1,0.9-0.2,2.5-0.1L111,5.5c4.9-0.3,10,0,14.8-0.2c-0.3,0.1-0.3,0.1-0.8,0.1
							c1,0.2,3.7,0,3.8-0.1c0.7,0,0.2,0.1,0.6,0.2c1,0.1,2.5-0.2,3.1-0.1c0.1,0-0.3,0.1-0.5,0.1c0.7-0.1,3.1,0,2.4-0.2
							c1.8,0.1,3.4-0.1,4.9,0c0.9-0.2,3.1,0.1,3.4-0.2c-0.1,0.3,3.1,0.3,4.3,0.1c-0.4,0.1,1,0.1,0.5,0.2c1.3,0,2.5-0.1,2.3-0.2
							c2.4,0.4,4.8-0.3,6.1,0.2c3.8-0.2,7.4-0.3,10.9-0.4c-0.1,0.3-3.8,0-3.7,0.4c3.3-0.1,5.2-0.4,8.4-0.3c0.8,0-0.5,0.1-0.8,0.2
							c3.3-0.1,6.3,0,9.3-0.2c0,0-0.3,0.1-0.6,0.1c0.6,0,1.3,0,1.3-0.1l-0.6,0c-0.9-0.2,2.3-0.5,2.4-0.6c-1,0.4,2.9,0.1,1.3,0.7
							c0.4,0,0.9-0.1,0.8-0.2c0.6,0,0.7,0.1,0.2,0.2c2.1-0.1,1.3-0.2,3.2-0.2c0,0.1-0.4,0.1-0.6,0.2c0.9-0.1,1.9-0.3,3.5-0.2
							c-0.1,0,0.1,0.1-0.4,0.1c2.7,0,4.6-0.4,7.6-0.2c-0.9,0.3,1,0.1,1.2,0.4l1.6-0.1L200.2,5c1.4,0,2.6-0.2,3.8-0.1L203,5l2.6-0.1
							l-1.5-0.1c1.4-0.1-0.2-0.4,1.7-0.3c-0.4,0,1.4,0,2.1,0.2l0,0c0.7-0.1,1.4-0.2,2.4-0.1c0.3,0.1-0.2,0.3,0,0.4
							c0.7-0.2,3.3-0.1,4.1-0.3c-0.3,0.1-0.3,0.2-0.2,0.2l0.6-0.2c0.6,0.1,0.7,0.1,0.6,0.2c2,0-0.6-0.4,1.7-0.2
							c-0.2,0-0.1,0-0.5,0.1c2.3,0.1,4.5-0.1,6.6,0c0.6,0.3-1.9,0.1-1.1,0.3c3.1-0.1,6.4-0.3,9.4-0.3l-0.6,0c0.4-0.4,2.2,0.2,3.7,0
							c-0.4,0-0.5,0.2-0.4,0.2c2,0.1,4.2-0.1,7.3-0.2l-0.4,0.1c1.2,0.1,3.2,0.1,4.5,0.1c0.4-0.1,1.1-0.1,0.7-0.2
							c4,0.6,7.6-0.3,11.2,0.2c-0.4,0-1,0.1-0.7,0.1l3-0.1c-0.2-0.2-0.4-0.1-1-0.2c0.4-0.1,1.2-0.2,2-0.2c-1.4,0.1,0,0.3,0.6,0.4
							c-0.1-0.1,0.1-0.1,0.1-0.2c1.6,0.3,0.3-0.3,2.4-0.1l-0.1,0.1c0.8,0,1.6-0.2,2.4-0.1c0.4,0.2-0.9,0.1-0.9,0.3
							c1.2,0,2.4-0.4,3.5-0.2c-0.5,0.1-1.3,0.1-1.8,0.1c1.2,0.2,1.3,0.2,2.2,0.2l-0.1,0l2.1,0.1l-0.5-0.1c1.5-0.5,3.1-0.1,5.2-0.4
							c-2,0.3-0.3,0.2-0.5,0.4c0.5,0.1,1.3,0.1,1.1,0.2c1-0.2,1.6,0.1,3-0.1c0.1,0.1,1,0,0.8,0.2c1.3-0.1-0.3-0.1-0.2-0.2
							c2-0.2,4.6,0.3,7.4,0c2.4-0.1,2.9-0.4,5.1-0.5c0.8,0.1-0.6,0.3-0.6,0.3c1.2,0.1,2.1,0.1,3.3,0c-0.2,0.1,0,0.1,0.4,0.2
							c0.9,0,0.6-0.3,1.8-0.2c-0.2,0.1-0.5,0.2-0.9,0.3c1.1-0.1,2.2-0.2,3.3-0.3c0.3,0.1-0.7,0.2-1.1,0.3c1.3-0.1,3.3-0.1,3.7-0.3
							l-0.8-0.1c0.5,0,0.2,0.2-0.1,0.2c-1.1,0.2-1.6-0.1-1.6-0.1l0.8,0c-0.8-0.4-3.2,0.1-4.9,0l0.7-0.3l-1.7,0.3
							c-0.4-0.1-0.6-0.3,0.2-0.3c-1.2-0.2-1,0.1-2-0.1c-0.1,0-0.1,0,0-0.1l-1.1,0.1c0.2-0.1-0.2-0.2,0.5-0.2c-2-0.2-3.3,0.2-4.1,0
							l0.2,0c-2.8,0.1-0.3,0.2-2.4,0.5L285,4l-0.3,0.2c-0.3,0-0.9,0-0.8-0.1c-1.1,0.2,0.2,0.1-0.4,0.2c-1.4-0.2-3.9,0.1-4.2-0.3
							c-0.5,0.2,1.3,0.1-0.2,0.3c-0.4-0.4-1.7,0.1-3-0.1c0.4-0.2,1.6-0.1,0.3-0.3c-0.8,0.3-2.5-0.1-3.6,0c-0.1,0.3-2.4,0.1-4.2,0.2
							c0.1-0.1-3.4-0.1-5.1-0.2l0,0c-0.3,0.3-2.1,0.2-3.3,0.3c0-0.2,0.3-0.2,1-0.3l-1.2,0c-0.3,0.1-0.7,0.1-1.4,0.2l0.3-0.2
							c-1.6,0-3.2,0.2-5.2,0.1c-0.1,0.2,1.6,0.5-0.5,0.7c-0.1-0.1-0.2-0.3,0.4-0.3c-0.2,0-0.7,0.1-1,0l0.9-0.2
							c-0.9-0.1-0.5,0.1-1.2,0.1c0-0.1-0.6-0.1-0.4-0.2c0.2,0,0.6,0.1,0.9,0c-0.8,0-1.9-0.1-2.2-0.2c0.1,0.1,0,0.2-0.6,0.2
							c-1.6,0-0.5-0.2-1.5-0.3C248,3.9,247,3.8,247,4c-0.5,0-0.6-0.1-0.7-0.2c-0.8,0.1-3.8,0-2.9,0.3l0.2,0c0,0-0.1,0-0.1,0
							c0,0,0,0,0,0h0c-2.7,0.2-5.6-0.1-8.3,0l0-0.1c-1.6,0.1-3.5,0.1-4.7,0.2c-0.5,0-1.1-0.1-0.9-0.2c-1.2,0.1-1.4,0.1-3.1,0
							c1.2-0.1-0.4-0.1,1.3-0.1c-1.6-0.1-1.9-0.2-3.6,0c0.6-0.2-1.2-0.2-1.9-0.2l1.1,0.1c-0.8,0-1.6,0-2.3,0l0.4-0.2
							c-3.2-0.3-5.8,0.5-8.3,0c-0.9,0.2,1.8,0.1,1,0.3c-1.5,0-3-0.4-3.5-0.4c-2-0.1-1.9,0.4-4,0.3c0.3,0.1,0.5,0.3-1.1,0.4
							c-1.5,0-1.8-0.4-0.9-0.4c0.4,0,0.5,0,0.5,0.1c0.5,0,1.1-0.1,0.5-0.2l-0.2,0.1c-0.7-0.1-2.8-0.1-2.3-0.2
							c-1.1,0.1-0.5,0.1,0.4,0.2c-1.9-0.1-3,0-5-0.1c0.3,0,0.6,0.2,0.3,0.2c-2.9-0.1-1.3,0.2-3.2,0.2c-1.1-0.1,0.4-0.3-1.6-0.2
							c-1.2-0.1-0.3-0.2,0.2-0.3c-1.8,0.2-3.4-0.1-4.4-0.1l0.9-0.1c-0.6,0-1,0-1.5,0l0.5,0.2c-0.6,0-1,0-1-0.1
							c-0.6,0.1,0.4,0.3-0.7,0.5c-0.7-0.1-2.3,0.1-2.5-0.1c2.3,0.1-0.3-0.2,1.7-0.3c-0.4,0-0.8,0-1.4,0c-0.1,0,0.1,0,0.2-0.1
							c-2.2-0.2-1,0.3-3.3,0.3c0.3-0.1-0.5-0.3-0.9-0.2c0.9,0,0.4,0.2-0.4,0.3c-1.5-0.1-1.6,0.1-2.4,0.1l0.9,0
							c-0.3,0.1-1,0.1-2.1,0.2c-0.1-0.1,0.9-0.1,0.6-0.1c-1.1,0.2-2.6-0.2-4.2-0.1c-0.7-0.1-0.1-0.3-0.7-0.3c-1.8,0.2-1.9-0.2-3.8,0
							c0.5,0.2,0.6,0.1-0.7,0.3l3.1-0.1l-2,0.3c0.9,0,2-0.1,2.5-0.1c-0.9,0.1-0.8,0.1-0.4,0.2c-1.3-0.3-2.5,0.2-4,0l0-0.4
							c-2.2-0.2-3.9,0.2-6.8,0.1l0.9,0.1c-0.4,0.2-1.8,0-2.7,0.1c0.1-0.1-0.5-0.2-0.9-0.3c0,0.1-2.1,0-2.4,0.3L155,3.7
							c-2.3-0.1-2.7,0.4-4.9,0.4c0.7-0.2-0.3-0.3,1.2-0.4c-0.7,0-1.4,0-1.4,0.1c-0.4-0.1-2.1,0.2-2.8,0.1c-0.3,0.1-0.4,0.2-1.3,0.2
							c-0.1,0,0-0.1,0-0.1c0,0.1-1.3,0.1-0.6,0.3c-2.3-0.5-6.4,0-8.4-0.4c-1.6,0-3.6,0.1-5.1,0.1c0.1,0,0-0.1,0.3-0.1
							c-2-0.1-1.3,0.4-3.6,0.3c-1.2-0.2,1.2-0.1,0.5-0.2c-0.3-0.5-2.8,0.1-4.4-0.2l0.4,0c-1.2-0.2-2.9,0.2-4.9,0.1c0,0,0.1,0,0-0.1
							c-1.3,0.2-3.9,0.3-5.7,0.4c0.6-0.2,0.9-0.1,0.5-0.3c-0.8,0,0.2,0.3-1.4,0.4c-0.5-0.1-1.8-0.2-1.9-0.4l1.6,0
							c-0.8-0.3-2.1,0-2.9,0l0.1-0.1c-0.8,0-1.3,0.1-1.8,0.1c-0.6,0.1-1.1,0.1-1.8,0.1c0,0.7,0.1,1.7,0.1,2.5l0.1-0.3
							c0.3,1.4-0.2,1.2,0.1,2.6l-0.3,0.4c0.1,0.9,0.3,3.3,0.3,5c-0.2-1-0.3-2.9-0.5-4.2c0,0.9,0,3.2,0.2,3.7c0-0.4-0.1-0.9-0.1-1.2
							c0.2,1.1,0.3,2.7,0.3,4.5c-0.2-0.1-0.3,0.4-0.3,1.1c0,0.4,0,0.8,0,1.3c0,0.7,0,1.3,0,2c0.4,0,0.7,0,1.1,0c0.3,0,0.8,0,0.9,0
							c0.4,0,0.8,0.1,1,0.2c3.3-0.2,6.5,0.1,10.4,0.1c-1.4-0.4,1.1,0,0.9-0.5c0.9,0,1.2,0,1.3,0l2.7,0.3c0.6,0.1-0.8,0.1-0.8,0.2
							c2,0,0.8,0.2,2.1,0.3c-0.3-0.2,0.7-0.2,1.8-0.2l-1.6-0.2c2.7-0.2,2.4,0.4,5.1,0.1l-0.9,0.1c1.4-0.1,5.2,0,6.6-0.4
							c0.3,0.1,0.6,0.2,0,0.2c3.4,0.1,7.5-0.4,10.1-0.2l-0.3,0.1c0.6,0,1.1-0.2,1.9-0.1c0,0-0.3,0.1,0,0.1c0.3,0,1.7-0.2,2.5-0.1
							l-0.7,0.1c3.3,0.1,5.1-0.3,7.8-0.4c0,0.3,2.6,0.4,3.9,0.5l0,0c3.8,0,6.5-0.3,10.1-0.4c2.2,0.4,7.5,0.1,11,0.4
							c-0.5-0.1,0.1-0.3,0.7-0.3c0.8,0.1,2.3-0.2,2.2,0.1l-0.3,0c0.6,0.3,2.3,0.2,3.7,0.2l0.2-0.4c3.5,0.6,9.1-0.2,11.1,0.3
							c0.8-0.1,1.9-0.1,2.7-0.2l0,0.2c2.3,0.1,3.5,0.1,6.4,0l-0.6,0.2c1.6,0,2.1-0.6,3.6-0.6l0.5,0.3c2.8,0,5.7,0.3,8.5,0
							c0,0-0.1,0.1-0.6,0.2c1.3,0,5.2,0.2,4.7-0.2c0,0.3,2.9,0,4.5-0.1l-0.2,0.2c1.3-0.3,1.3-0.3,3.1-0.4c0.4,0,0.4,0.2-0.2,0.1
							c1.4,0.1,1.1-0.2,2.8-0.1l-0.6,0.1c1.5,0,1.4-0.1,2.2-0.2c0.9-0.1,2.8,0.1,3,0.2c0.2-0.1,1-0.3,1.9-0.2
							c0.1,0.1-0.2,0.1-0.4,0.1c2.5,0.1,3.7-0.2,5.3,0c0,0.1,0.1,0.1,0.3,0.1c-2,0-3.5,0-3.4,0c0,0.2,1.6,0.2,0.3,0.5
							c1.3-0.1,3.4-0.5,5-0.4c0.1,0,0.1,0,0.2,0.1l-0.2,0c0.4,0,0.7,0,1,0c0.5,0,0.8,0.1,1.3,0.1c0.2,0.2,1.8,0.1,2.6,0.1
							c-0.1-0.2,1-0.2,0-0.4c0.1,0-0.1,0-0.7,0c-0.1,0-0.3,0-0.3,0c0,0,0,0,0.1,0c-0.5,0-1.2,0-2,0c0.6-0.1,1.3-0.2,2.1-0.1
							c0.4-0.1,0.8-0.3,1.1-0.3c1.1,0.3,3.1,0.5,3.4,0.6c2.4-0.1,5.7-0.1,7.2-0.5c0.7-0.1,0.8,0.1,1,0.2c-0.4,0-0.9,0-1.1,0.1
							c1.4-0.1,4,0,4.4-0.3c1.7,0.1-1,0.3,1.4,0.2l-0.3,0.1c4.6,0.4,7.6-0.7,12.7-0.1c-0.4,0-0.5-0.1-0.6-0.1
							c5.9,0.3,12.1-0.2,17.9,0.2c1.6,0.1,1.8-0.1,2.8-0.2l0.4,0.2l1.7-0.3c0.5,0,1,0,1.5,0c0.6,0,1.2,0.1,1.9,0.1
							c0.1-1.8,0.3-2.9,0.1-4.7l-0.2,0.4c0-1.1-0.1-3.5,0.1-3.3c0-0.1-0.2-0.4-0.1-0.8l0.1,0l-0.2-2.7c0.1-2.1,0.5,0.3,0.5-2.7
							c0-1.1-0.3-3.3-0.4-2.8c0,0.5-0.1,1.2-0.2,1.2l-0.1-1c-0.3-0.2-0.7-1-1,1.6l0.2,1.8l-0.2,0.6l0-1.5c-0.2,0.9,0,1.4,0.1,2
							c-0.1,0.1-0.2,0.4-0.2,0.8l0.3,1.8c-0.1,0.2-0.3-0.8-0.3,0.4c0.2,0.8,0.3-0.8,0.4,0.6c-0.2,0.9-0.3,0.6-0.2,1.6
							c-0.1,0.1-0.1-0.1-0.2-0.5c0.1,0.9,0,2.4,0.2,2.8c-0.2,0.9,0.1,3-0.3,2.9c0,0,0,0.1,0,0.2c0,0,0,0.1,0.1,0.1
							c0,0.1,0.1,0.2,0.1,0.4c-0.1,0-0.2,0.1-0.4,0.1c0.1-0.1,0.1-0.1,0-0.2c-0.1,0,0,0-0.2,0c-0.2,0-0.4,0-0.6,0
							c-0.9,0-2,0-1.8-0.2c-1.1,0.4-4,0.2-6,0.4c0.1,0,0.3-0.1,0.5-0.1c-1.1,0-1.4-0.1-2.1-0.2c-0.1,0.3-1.9,0.4-2.8,0.5
							c-1.4-0.3,0.8-0.3,0.4-0.6c0.1,0.2-2.4,0.2-1.9,0.4c-1-0.2-0.9-0.1-1.4-0.3c-0.2,0.4-1,0.1-1.8,0.3c-1.5-0.2-0.4-0.3-2-0.2
							C287.3,19.8,288.8,19.6,288.8,19.6z M249.5,20.3L249.5,20.3c0.3,0,0.6,0,0.8,0C250.1,20.3,249.9,20.3,249.5,20.3z M246.2,20.3
							c0.4,0,0.9,0,1.4,0c0.1,0.1,0,0.1-0.3,0.1C247.5,20.4,246.7,20.3,246.2,20.3z M253.2,21.7c-0.5,0-0.7,0-0.8-0.1
							c0.2,0,0.5,0,0.9,0c0,0,0,0,0.1,0C253.3,21.7,253.3,21.7,253.2,21.7z"/>
						<path class="st1" d="M254.1,21.5c0.1,0,0.1,0,0.2,0C254.2,21.4,254.1,21.4,254.1,21.5c-0.2,0-0.2,0-0.3,0
							C253.9,21.5,254,21.5,254.1,21.5z"/>
						<path class="st1" d="M243.3,4.1L243.3,4.1C243.3,4.1,243.4,4.1,243.3,4.1C243.4,4.1,243.4,4.1,243.3,4.1z"/>
						<polygon class="st1" points="200.6,19.9 200.6,19.9 200.9,19.9 						"/>
						<path class="st1" d="M261.5,4.8c0,0,0.1,0,0.2,0.1C261.8,4.9,261.7,4.8,261.5,4.8z"/>
						<path class="st1" d="M269.4,4.9l1.1,0.1C270,4.9,269.7,4.9,269.4,4.9z"/>
						<path class="st1" d="M275.4,5c0.1,0,0.1-0.1,0.1-0.1l0,0L275.4,5z"/>
						<path class="st1" d="M179.4,5.2c-0.1,0-0.2,0-0.2,0C178.6,5.3,179,5.3,179.4,5.2z"/>
						<path class="st1" d="M208,4.7c-0.3,0-0.6,0.1-0.9,0.1C207.6,4.8,208,4.8,208,4.7z"/>
						<path class="st1" d="M147.5,5.5L147.5,5.5c-0.1,0-0.1,0-0.2,0L147.5,5.5z"/>
						<path class="st1" d="M205.7,4.8c0.5,0,0.9,0,1.3,0C206.6,4.8,206.1,4.8,205.7,4.8z"/>
						<path class="st1" d="M301.6,5.1l0.3,0c0,0,0,0,0,0L301.6,5.1z"/>
						<path class="st1" d="M301.9,5l0.3,0C302.1,5,302,5,301.9,5z"/>
						<path class="st1" d="M302.9,5L302.2,5C302.5,5,302.8,5,302.9,5z"/>
						<path class="st1" d="M293.6,5L293.6,5C293.6,5,293.6,5,293.6,5z"/>
						<path class="st1" d="M291.2,5c0.6,0,1.5,0.2,2.3,0.1l0.1-0.1C293.1,5.2,291.7,4.9,291.2,5z"/>
						<path class="st1" d="M281,4l2,0.1c-0.4-0.1-0.8-0.2,0.1-0.2C280.6,3.7,283.7,4.1,281,4z"/>
						<path class="st1" d="M274.7,3.9c1.1,0,0-0.1,0-0.2C274.1,3.8,273.9,3.9,274.7,3.9z"/>
						<path class="st1" d="M229.1,3.9l0.1-0.2C228.4,3.8,229.2,3.8,229.1,3.9z"/>
						<polygon class="st1" points="220.4,4.9 221.2,5 221.6,4.9 						"/>
						<polygon class="st1" points="215.2,3.6 215.6,3.5 214.2,3.6 						"/>
						<path class="st1" d="M138.6,3.6l0.3,0.2C139.4,3.8,139.6,3.5,138.6,3.6z"/>
						<path class="st1" d="M106.7,6.2c-0.1,0.4-0.2,1.3-0.1,1.9C106.7,7.3,106.8,6.5,106.7,6.2z"/>
						<polygon class="st1" points="191.8,21.8 191.2,21.9 192.4,21.8 						"/>
					</g>
				</g>
			</g>
		</g>
	</g>
	<g>
		<path class="st0" d="M158.3,126.2c0.4-6.6,0.7-11.8,1-17.4c4.1,0,7.7,0,12.1,0c0,5.4,0,10.5,0,16.8c7.2,0,13.7,0,20.5,0
			c0,6.3,0,11.4,0,17.3c-61.7,0-123.4,0-185.8,0c0-5.3,0-10.6,0-16.8C56.6,126.2,107.1,126.2,158.3,126.2z"/>
		<g>
			<g>
				<g>
					<g>
						<path class="st1" d="M158.3,126.7c0.2-0.1,0.1-0.2-0.5-0.2l-0.5,0.2L158.3,126.7z"/>
						<path class="st1" d="M154.1,126.2c-0.7,0.1-1.6,0.3-1.1,0.6c0.7-0.2,0.9-0.1,1.7-0.4c0.6,0,1.1,0.1,1,0.2
							c0.2-0.1,1,0.1,1.3-0.1c-0.8-0.2-1.9-0.2-3,0C153.8,126.3,154,126.3,154.1,126.2z"/>
						<path class="st1" d="M91.8,125.8l0.4,0C92.1,125.9,92,125.8,91.8,125.8z"/>
						<path class="st1" d="M53.3,125.7c0.3,0,0.4,0,0.4-0.1C53.4,125.7,53.2,125.7,53.3,125.7z"/>
						<path class="st1" d="M46.7,125.4c0.1,0,0.3,0,0.4,0C46.9,125.4,46.8,125.4,46.7,125.4z"/>
						<path class="st1" d="M91.8,125.8l-1-0.1C90.7,125.8,91.3,125.8,91.8,125.8z"/>
						<path class="st1" d="M145.5,126.8c0.2,0,0.4,0,0.6-0.1C145.9,126.8,145.7,126.8,145.5,126.8
							C145.5,126.8,145.5,126.8,145.5,126.8z"/>
						<path class="st1" d="M108.8,125.6l0.3,0c0.1,0,0.2-0.1,0.3-0.1L108.8,125.6z"/>
						<path class="st1" d="M121.9,125.6c-0.3,0-0.4,0.2-0.5,0.3c0.2-0.1,0.4-0.1,0.6-0.1C122,125.7,122,125.7,121.9,125.6z"/>
						<path class="st1" d="M142.6,126l0.4,0C142.8,126,142.7,126,142.6,126z"/>
						<path class="st1" d="M99.5,125.6c0,0-0.1-0.1-0.1-0.1C99.4,125.5,99.4,125.6,99.5,125.6z"/>
						<path class="st1" d="M160.2,111.1C160.2,111.1,160.2,111.1,160.2,111.1C160.2,111.2,160.2,111.2,160.2,111.1z"/>
						<path class="st1" d="M158.3,126.2l0-0.2c0,0-0.1,0-0.1-0.1L158.3,126.2z"/>
						<path class="st1" d="M34.6,125.2C34.6,125.2,34.7,125.2,34.6,125.2C35,125.1,34.8,125.1,34.6,125.2z"/>
						<path class="st1" d="M71.5,143.8c-1.3-0.2,2-0.2,0.2-0.5C71.8,143.5,69.9,143.7,71.5,143.8z"/>
						<path class="st1" d="M145.1,126.8c-0.2,0-0.4,0-0.5,0C144.9,126.8,145,126.8,145.1,126.8z"/>
						<path class="st1" d="M71.6,143.4L71.6,143.4l-0.2,0C71.5,143.4,71.6,143.4,71.6,143.4z"/>
						<path class="st1" d="M6.5,125.3c0.1,0,0.3,0.1,0.5,0.1C7,125.4,6.9,125.3,6.5,125.3z"/>
						<path class="st1" d="M27.5,125.6l-0.5,0C27.2,125.6,27.4,125.6,27.5,125.6z"/>
						<path class="st1" d="M5.5,136.2c0,0.3,0,0.4,0,0.8c0,0,0-0.1,0-0.1C5.5,136.7,5.5,136.5,5.5,136.2z"/>
						<path class="st1" d="M10.6,143.6c-0.1,0-0.1,0-0.2,0c-0.1,0-0.2,0-0.4,0L10.6,143.6z"/>
						<path class="st1" d="M174.2,126.5c-0.2-0.1-0.4-0.1-0.5-0.2C173.9,126.5,172.2,126.5,174.2,126.5z"/>
						<path class="st1" d="M145.5,126.7c-0.1,0.1-0.2,0.1-0.3,0.1C145.3,126.8,145.4,126.8,145.5,126.7
							C145.5,126.8,145.6,126.7,145.5,126.7z"/>
						<path class="st1" d="M7.2,136.7l0,1.8C7.2,137.9,7.2,137.3,7.2,136.7z"/>
						<path class="st1" d="M146.8,142.1l0.4,0C147,142.1,146.9,142.1,146.8,142.1z"/>
						<path class="st1" d="M7.3,141.9C7.3,141.9,7.3,142,7.3,141.9c0.3,0.1,0.4,0.1,0.6,0.1c0.1,0,0.2,0,0.2-0.1l-0.6,0L7.3,141.9
							L7.3,141.9L7.3,141.9z"/>
						<path class="st1" d="M173.7,126.3L173.7,126.3L173.7,126.3z"/>
						<path class="st1" d="M170.2,116.2c0,1.7,0.3,0.8,0.4,1.2c0.1,2-0.2,0.9-0.3,1.6c0.1,1.3,0.3,2.2,0.3,3.2c0,0.1-0.1,0.3-0.1,0
							c0.1,0.4,0.1,1,0.1,1.6c0,0.8,0,1.8,0,2.7c0.6,0,1.2,0,1.8,0c0.1,0,0.2,0,0.3,0l0.3,0c0.2,0,0.3,0,0.5-0.1
							c0.1,0,0.2,0,0.2,0.1c-0.3-0.1-0.3-0.3-0.2-0.4c0.8,0,1.4-0.2,1.7,0c-0.5,0-0.5,0.1-0.7,0.1l0.8-0.1c0.7,0.3-1.1,0.1-1.1,0.3
							c1.6-0.1,3.4-0.3,4.5-0.2c0.2,0.3-2.8,0.1-1.2,0.3l-1.8-0.1c1.4,0.4-1.1,0,0.2,0.4c2.4,0.1,2.7-0.1,5.1-0.1
							c0.5-0.1-0.2-0.2,0.4-0.4c3.4-0.3,2.7,0.6,5.2,0.3c0.7-0.2,0.9-0.5,2.7-0.3l-0.6,0.3c1.1,0,1.4-0.1,1.8-0.2
							c0.4-0.1,0.5-0.1,0.9-0.1c0,0.1,0,0.1,0,0.2c0,0,0-0.1-0.1-0.1c-0.3,0-0.5,0-0.4,0.1c0.2,0.1,0.2,0.1,0.3,0.1
							c0,0.1,0.2-0.1,0.2,0.5l-0.3,0.3c0,2.5,0.2,5.2,0.3,8c-0.1-0.2-0.2-0.6-0.2,0c0,1.2,0.1,2.5,0,3.8l0,2l0,0.5l0,0.2l0,0.1
							l0,0.2l-0.2,0l-0.1,0l-0.4,0c-0.5,0-1,0-1.5-0.1l-1.3,0.2c-0.3,0-0.6-0.1-0.2-0.1c-1.3-0.1-0.1,0.1-0.7,0.2
							c-0.7,0-1-0.1-0.5-0.2c-2.3,0.2-6.6,0.4-9,0.2l0.5-0.1c-1.9-0.1-2.1,0.5-3.9,0.2l0.3,0c-4.1-0.1-8.7,0.1-11.8-0.2
							c-0.6,0.3-4.1-0.1-4.3,0.3c-2.3-0.2-1.7-0.3-5-0.4c-0.9,0-1.3,0.3-2.4,0.3l0-0.2l-1.5,0.2l-0.8-0.3l-1,0.1
							c0.4,0,0.9,0.1,0.8,0.2c-1.6,0.1-3.9-0.2-3.9-0.3l-3.8,0.2c0.1-0.1,0.7-0.1,1.2-0.2c-2,0.2-0.4-0.2-2.2,0
							c0.2,0.1-0.1,0.1-0.2,0.2c-0.9-0.1-3-0.1-4.6-0.1l0.3-0.2c-2.8,0-5.9,0.1-9.1,0.1c1.1,0.1,0.9,0.4-0.1,0.4l-0.4-0.2
							c-0.6,0.2,1,0.1-0.3,0.3c-1.2,0-0.8-0.3-0.1-0.4l-1.4,0.1c-0.1-0.1,0.3-0.1,0.3-0.2c-0.6,0.2-2.5-0.2-3.3,0l-0.1-0.1
							c-3.2,0-4.6,0.1-7.1,0.1c-0.1,0.2-1.1,0.2-1.8,0.3c-1.9-0.1-4-0.2-6.3-0.2c-1.6,0.1-0.5,0.2-1.2,0.3c-0.1-0.2-2.4-0.2-1.2-0.3
							c-2.7,0-3.5,0-6.9,0.2c0.4,0.1,0.8,0.1,0.6,0.2c-0.6,0-1.4-0.1-1.3-0.2l0.2,0c-3.9,0.3-8.9-0.6-12-0.2l0.2,0l-3.2,0.2
							c-1.5,0,0.9-0.1-0.2-0.3c-3.4,0.3-5.4,0-8.3,0.2c-2.2-0.6-7.8,0-10.8-0.3l0.2,0.1c-0.8,0.1-0.9-0.1-1.5-0.1
							c0.1,0.1,0.8,0.1,0.4,0.2c-6.5,0.2-13.4-0.2-20.1-0.3c-2.4,0-1.4,0.7-4.5,0.4l0.9-0.2c-4.9,0.3-10.1,0-14.9,0.2
							c0.3-0.1,0.3-0.1,0.8-0.1c-1-0.2-3.8,0-3.8,0.1c-0.7,0-0.2-0.1-0.6-0.2c-1-0.1-2.6,0.2-3.1,0.1c-0.1,0,0.3-0.1,0.5-0.1
							c-0.7,0.1-3.1,0-2.5,0.2c-1.8-0.1-3.5,0.1-4.9,0c-0.1,0-0.2,0-0.4,0.1c-0.1,0-0.2,0-0.3,0c-0.1,0-0.2,0-0.3,0
							c0-0.1,0-0.2,0-0.3c0-0.1,0-0.2,0-0.3c0-0.1-0.1-0.2-0.1-0.2c0.3,0.1,0.3-3.2,0.1-4.3c0.1,0.4,0.1-1,0.2-0.5
							c0-1.3-0.1-2.5-0.2-2.3c0.4-2.4-0.3-4.8,0.2-6.2l0-0.5l0-0.1l0,0l0,0c0-0.1,0-0.2,0-0.2l0.3,0c0.4,0,0.8,0,1.2,0
							c0.8,0,1.5-0.1,2.3-0.1c1.5,0,3-0.1,4.4-0.1c-0.1,0.3-3.8,0-3.7,0.4c3.3-0.1,5.2-0.4,8.5-0.3c0.8,0-0.5,0.1-0.8,0.2
							c3.3-0.1,6.4,0,9.3-0.2c0,0-0.3,0.1-0.6,0.1c0.6,0,1.3,0,1.3-0.1l-0.6,0c-0.9-0.2,2.3-0.5,2.4-0.6c-1,0.4,2.9,0.1,1.3,0.7
							c0.4,0,0.9-0.1,0.8-0.2c0.6,0,0.7,0.1,0.2,0.2c2.1-0.1,1.3-0.2,3.2-0.2c0,0.1-0.4,0.1-0.6,0.2c1-0.1,1.9-0.3,3.5-0.2
							c-0.1,0,0.1,0.1-0.4,0.1c2.7,0,4.6-0.4,7.6-0.2c-0.9,0.3,1,0.1,1.2,0.4l1.6-0.1l-0.6-0.1c1.4,0,2.7-0.2,3.9-0.1l-1,0.1
							l2.6-0.1l-1.5-0.1c1.4-0.1-0.2-0.4,1.7-0.3c-0.4,0,1.4,0,2.1,0.2l0,0c0.7-0.1,1.4-0.2,2.5-0.1c0.3,0.1-0.2,0.3,0,0.4
							c0.7-0.2,3.3-0.1,4.2-0.3c-0.3,0.1-0.3,0.2-0.2,0.2l0.6-0.2c0.7,0.1,0.7,0.1,0.6,0.2c2,0-0.6-0.4,1.7-0.2
							c-0.2,0-0.1,0-0.5,0.1c2.3,0.1,4.5-0.1,6.7,0c0.6,0.3-1.9,0.1-1.2,0.3c3.1-0.1,6.4-0.3,9.4-0.3l-0.6,0c0.4-0.4,2.2,0.2,3.8,0
							c-0.4,0-0.5,0.2-0.4,0.2c2.1,0.1,4.2-0.1,7.3-0.2l-0.4,0.1c1.2,0.1,3.2,0.1,4.5,0.1c0.4-0.1,1.1-0.1,0.7-0.2
							c4,0.6,7.7-0.3,11.3,0.2c-0.4,0-1,0.1-0.7,0.1l3-0.1c-0.2-0.2-0.4-0.1-1-0.2c0.4-0.1,1.2-0.2,2-0.2c-1.4,0.1,0,0.3,0.6,0.4
							c-0.1-0.1,0.1-0.1,0.1-0.2c1.6,0.3,0.3-0.3,2.4-0.1l-0.1,0.1c0.8,0,1.6-0.2,2.4-0.1c0.4,0.2-0.9,0.1-0.9,0.3
							c1.2,0,2.4-0.4,3.5-0.2c-0.5,0.1-1.3,0.1-1.8,0.1c1.2,0.2,1.4,0.2,2.3,0.2l-0.1,0l2.1,0.1l-0.5-0.1c1.5-0.5,3.1-0.1,5.2-0.4
							c-2,0.3-0.3,0.2-0.5,0.4c0.5,0.1,1.3,0.1,1.1,0.2c1-0.2,1.6,0.1,3-0.1c0.1,0.1,1.1,0,0.8,0.2c1.3-0.1-0.3-0.1-0.2-0.2
							c2-0.2,4.6,0.3,7.5,0c2.4-0.1,2.9-0.4,5.2-0.5c0.8,0.1-0.6,0.3-0.6,0.3c1.2,0.1,2.2,0.1,3.3,0c-0.2,0.1,0,0.1,0.4,0.2
							c0.9,0,0.6-0.3,1.9-0.2c-0.2,0.1-0.5,0.2-0.9,0.3c1.1-0.1,2.2-0.2,3.3-0.3c0.3,0.1-0.7,0.2-1.1,0.3c1.3-0.1,3.3-0.1,3.7-0.3
							l-0.8-0.1c0.5,0,0.2,0.2-0.1,0.2c-1.1,0.2-1.6-0.1-1.6-0.1l0.8,0c-0.8-0.4-3.3,0.1-4.9,0l0.7-0.3l-1.7,0.3
							c-0.4-0.1-0.6-0.3,0.2-0.3c-1.2-0.2-1,0.1-2-0.1c-0.1,0-0.1,0,0-0.1l-1.1,0.1c0.2-0.1-0.2-0.2,0.5-0.2c-2.1-0.2-3.3,0.2-4.1,0
							l0.2,0c-2.8,0.1-0.3,0.2-2.4,0.5l-1.4-0.6l-0.3,0.2c-0.3,0-0.9,0-0.8-0.1c-1.1,0.2,0.2,0.1-0.4,0.2c-1.4-0.2-3.9,0.1-4.2-0.3
							c-0.5,0.2,1.4,0.1-0.2,0.3c-0.4-0.4-1.7,0.1-3-0.1c0.4-0.2,1.6-0.1,0.3-0.3c-0.8,0.3-2.5-0.1-3.6,0c-0.1,0.3-2.4,0.1-4.2,0.2
							c0.1-0.1-3.4-0.1-5.1-0.2l0.1,0c-0.3,0.3-2.1,0.2-3.4,0.3c0.1-0.2,0.3-0.2,1-0.3l-1.2,0c-0.3,0.1-0.7,0.1-1.4,0.2l0.3-0.2
							c-1.6,0-3.2,0.2-5.3,0.1c-0.1,0.2,1.6,0.5-0.5,0.7c-0.1-0.1-0.2-0.3,0.4-0.3c-0.2,0-0.7,0.1-1,0l0.9-0.2
							c-0.9-0.1-0.5,0.1-1.2,0.1c0-0.1-0.6-0.1-0.4-0.2c0.2,0,0.7,0.1,0.9,0c-0.8,0-1.9-0.1-2.2-0.2c0.1,0.1,0,0.2-0.6,0.2
							c-1.6,0-0.5-0.2-1.5-0.3c-0.4,0.1-1.4,0-1.4,0.2c-0.5,0-0.6-0.1-0.7-0.2c-0.8,0.1-3.9,0-2.9,0.3l0.2,0c0,0-0.1,0-0.1,0
							c0,0,0,0,0,0h0c-2.7,0.2-5.6-0.1-8.3,0l0-0.1c-1.6,0.1-3.6,0.1-4.7,0.2c-0.5,0-1.1-0.1-0.9-0.2c-1.2,0.1-1.4,0.1-3.1,0
							c1.2-0.1-0.4-0.1,1.3-0.1c-1.6-0.1-2-0.2-3.7,0c0.6-0.2-1.2-0.2-2-0.2l1.1,0.1c-0.9,0-1.6,0-2.4,0l0.4-0.2
							c-3.3-0.3-5.9,0.5-8.4,0c-0.9,0.2,1.8,0.1,1,0.3c-1.5,0-3.1-0.4-3.5-0.4c-2.1-0.1-1.9,0.4-4.1,0.3c0.3,0.1,0.5,0.3-1.1,0.4
							c-1.5,0-1.8-0.4-0.9-0.4c0.4,0,0.5,0,0.5,0.1c0.5,0,1.1-0.1,0.5-0.2l-0.2,0.1c-0.7-0.1-2.8-0.1-2.3-0.2
							c-1.1,0.1-0.5,0.1,0.4,0.2c-1.9-0.1-3,0-5-0.1c0.3,0,0.6,0.2,0.3,0.2c-2.9-0.1-1.3,0.2-3.2,0.2c-1.1-0.1,0.4-0.3-1.6-0.2
							c-1.2-0.1-0.3-0.2,0.2-0.3c-1.8,0.2-3.4-0.1-4.4-0.1l1-0.1c-0.6,0-1,0-1.5,0l0.5,0.2c-0.6,0-1,0-1-0.1
							c-0.6,0.1,0.4,0.3-0.7,0.5c-0.7-0.1-2.3,0.1-2.5-0.1c2.3,0.1-0.3-0.2,1.7-0.3c-0.4,0-0.8,0-1.4,0c-0.1,0,0.1,0,0.2-0.1
							c-2.2-0.2-1,0.3-3.4,0.3c0.3-0.1-0.5-0.3-0.9-0.2c0.9,0,0.4,0.2-0.4,0.3c-1.5-0.1-1.6,0.1-2.4,0.1l0.9,0
							c-0.3,0.1-1,0.1-2.1,0.2c-0.1-0.1,0.9-0.1,0.6-0.1c-1.2,0.2-2.6-0.2-4.2-0.1c-0.7-0.1-0.1-0.3-0.7-0.3c-1.8,0.2-2-0.2-3.8,0
							c0.5,0.2,0.6,0.1-0.7,0.3l3.1-0.1l-2,0.3c0.9,0,2-0.1,2.5-0.1c-1,0.1-0.9,0.1-0.4,0.2c-1.3-0.3-2.5,0.2-4,0l0-0.4
							c-2.2-0.2-4,0.2-6.9,0.1l0.9,0.1c-0.4,0.2-1.8,0-2.7,0.1c0-0.1-0.1-0.1-0.3-0.2c-0.2,0-0.4-0.1-0.8-0.1c0,0.1-0.8,0.1-1.6,0.1
							c0,0.9,0.1,2.1,0.2,2.1l-0.2,1.3c-0.1,2.3,0.4,2.7,0.4,4.9c-0.2-0.7-0.3,0.3-0.4-1.2c0,0.8,0,1.4,0.1,1.4
							c-0.1,0.4,0.2,2.1,0.1,2.8c0.1,0.3,0.2,0.4,0.2,1.3c0,0.1-0.1,0-0.1,0c0.1,0,0.1,1.3,0.3,0.6c-0.1,0.6-0.2,1.2-0.2,2
							c0,0.4,0,0.8,0,1.1c0,0.5,0,1,0,1.5c0.5,0,1.1,0,1.6,0c0.4,0,0.8,0,1.1,0c0.7,0,1.4,0.1,1.9,0.2c1.6,0,3.6-0.1,5.1-0.1
							c-0.1,0,0,0.1-0.3,0.1c2.1,0.1,1.3-0.4,3.6-0.3c1.2,0.2-1.2,0.1-0.5,0.2c0.3,0.5,2.8-0.1,4.4,0.2l-0.4,0
							c1.2,0.2,2.9-0.2,4.9-0.1c0,0-0.1,0,0,0.1c1.3-0.2,3.9-0.3,5.8-0.4c-0.6,0.2-0.9,0.1-0.5,0.3c0.8,0-0.2-0.3,1.4-0.4
							c0.5,0.1,1.8,0.2,1.9,0.4l-1.6,0c0.8,0.3,2.1,0,2.9,0l-0.1,0.1c2.4,0,2.5-0.3,5.1-0.3l-0.3-0.1c1.4-0.3,1.2,0.2,2.6-0.1
							l0.4,0.3c0.9-0.1,3.3-0.3,5-0.3c-1,0.2-3,0.3-4.2,0.5c0.9,0,3.2,0,3.7-0.2c-0.4,0-0.9,0.1-1.2,0.1c1.2-0.2,2.7-0.3,4.5-0.3
							c-0.3,0.6,4.9,0.1,6.2,0.6c3.3-0.2,6.6,0.1,10.4,0.1c-1.4-0.4,1.1,0,0.9-0.5c0.9,0,1.2,0,1.3,0l2.7,0.3
							c0.6,0.1-0.9,0.1-0.8,0.2c2,0,0.8,0.2,2.1,0.3c-0.3-0.2,0.7-0.2,1.8-0.2l-1.6-0.2c2.7-0.2,2.4,0.4,5.1,0.1l-0.9,0.1
							c1.4-0.1,5.2,0,6.6-0.4c0.3,0.1,0.6,0.2,0,0.2c3.4,0.1,7.6-0.4,10.2-0.2l-0.3,0.1c0.6,0,1.1-0.2,1.9-0.1c0,0-0.3,0.1,0,0.1
							c0.3,0,1.7-0.2,2.5-0.1l-0.7,0.1c3.3,0.1,5.1-0.3,7.9-0.4c0,0.3,2.6,0.4,3.9,0.5l0,0c3.9,0,6.6-0.3,10.1-0.4
							c2.2,0.4,7.5,0.1,11.1,0.4c-0.5-0.1,0.1-0.3,0.7-0.3c0.8,0.1,2.3-0.2,2.2,0.1l-0.3,0c0.6,0.3,2.4,0.2,3.7,0.2l0.2-0.4
							c3.5,0.6,9.2-0.2,11.1,0.3c0.8-0.1,1.9-0.1,2.7-0.2l0,0.2c2.3,0.1,3.5,0.1,6.4,0l-0.6,0.2c1.6,0,2.1-0.6,3.6-0.6l0.5,0.3
							c2.9,0,5.7,0.3,8.6,0c0,0-0.1,0.1-0.6,0.2c1.3,0,5.2,0.2,4.7-0.2c0,0.3,2.9,0,4.5-0.1l-0.2,0.2c1.3-0.3,1.3-0.3,3.2-0.4
							c0.4,0,0.4,0.2-0.2,0.1c1.4,0.1,1.1-0.2,2.9-0.1l-0.6,0.1c1.5,0,1.4-0.1,2.2-0.2c0.5,0,1.2,0,1.8,0c0.3,0,0.6,0.1,0.8,0.1
							c0.2,0,0.5,0.1,0.6,0.1c0.2-0.1,0.7-0.2,1.2-0.2c0-0.4,0-0.8,0-1.3c0.1-0.1,0.1,0.3,0.1,0.6c0-0.4,0-0.8,0-1.2
							c0-0.3,0-0.5,0-0.8c0-0.5,0-0.9-0.1-1.3c-0.1-0.8-0.1-1.5,0-2.4c0.1,0,0.1-0.1,0.1-0.3c0,2,0,3.5,0,3.4c0.2,0,0.2-1.6,0.5-0.3
							c-0.1-1.3-0.5-3.4-0.4-5c0-0.1,0-0.1,0.1-0.2l0,0.2c0-0.4,0-0.7,0-1c0-0.5,0.1-0.8,0.1-1.3c0.2-0.2,0.1-1.8,0.1-2.6
							c-0.2,0.1-0.2-1-0.4,0c0-0.1,0,0.1,0,0.7c0,0.1,0,0.3,0,0.3c0,0,0,0,0-0.1c0,0.5,0,1.2,0,2c-0.1-0.6-0.2-1.3-0.1-2.2
							c-0.1-0.4-0.3-0.9-0.3-1.1c0.3-1.1,0.5-2.9,0.6-4c0-0.3,0-0.5,0-0.8c-2.4,0-3.2,0.1-4.5,0.1c-1.2,0.1-2.3,0.1-3,0.3
							c-0.7,0.1-0.8-0.1-1-0.2c0.4,0,0.9,0,1.1-0.1c-1.4,0.1-4.1,0-4.4,0.3c-1.7-0.1,1-0.3-1.4-0.2l0.3-0.1c-1.6-0.2-3-0.1-4.3,0
							c-1.2,0.1-2.4,0.2-3.7,0.3c0-0.2,0-0.5,0-0.7c0-0.3,0-0.7,0-1c0-0.7,0.1-1.5,0.2-2.3c0,0.4-0.1,0.5-0.1,0.6
							c0.1-2.1,0.1-4.3,0.1-6.5l0-3.3c0-1.2,0-2.4,0-3.6c-0.6,0-1.1,0-1.7,0l-1.3,0c-0.8,0-1.7-0.1-2.5-0.1
							c-1.7-0.1-1.8,0.1-2.8,0.2l-0.4-0.2l-1.7,0.3c-0.4,0-0.7,0-1.1,0c-0.4,0-0.9,0-1.3-0.1c-0.1,0.9-0.2,1.7-0.4,2.7
							c-0.1,0.8-0.2,1.8-0.1,2.8l0.2-0.4c-0.1,1.1-0.1,3.5-0.3,3.3c0,0.1,0.1,0.4,0,0.8l-0.1,0l0.1,2.7c-0.2,2.1-0.5-0.4-0.6,2.7
							c0,1.2,0.2,3.3,0.3,2.9c0-0.5,0.1-1.2,0.3-1.2l0,1.1c0.3,0.2,0.6,1,1-1.5l-0.1-1.8l0.2-0.6l-0.1,1.5c0.2-0.9,0.1-1.4,0-2
							c0.1-0.1,0.2-0.4,0.2-0.7l-0.2-1.8c0.1-0.2,0.2,0.8,0.4-0.4c-0.1-0.8-0.4,0.8-0.4-0.6c0.2-0.9,0.3-0.6,0.2-1.6
							c0.1-0.1,0.1,0.1,0.2,0.5c-0.1-0.9,0.1-2.4-0.1-2.9c0.2-0.9,0.1-3,0.4-2.9c0-0.1-0.1-0.5-0.1-0.9c0-0.3,0-0.3-0.1-0.4
							c0-0.1,0-0.2,0-0.3c0,0,0,0,0.1,0c0,0,0,0,0,0c0.1,0.2,0.1,0.2,0.1,0.1c0.1,0,0.1,0,0.2,0c0.2,0,0.5,0,0.7,0
							c0.7,0,1.2,0.1,1,0.2c1.1-0.4,4-0.2,6-0.4c-0.1,0-0.3,0.1-0.5,0.1c1.1,0,1.4,0.1,2.2,0.2c0,0,0.1-0.1,0.2-0.1
							c0,0,0.1,0,0.2-0.1c0,0,0,0,0.1,0c0.1-0.1,0.3-0.1,0.5-0.1c0.1,0.2,0.1,0.3,0.2,0.6c-0.1,0.7-0.2,0.5-0.3,0.2
							c0-0.2-0.1-0.2-0.1-0.2c0,0-0.1,0-0.2,0c0.1,0,0.1,0,0.1,0c0,0.2,0.1,0.5,0.1,0.7c0.1,0.5,0.1,1,0.2,0.8
							c-0.2,1-0.1,0.9-0.3,1.4c0.4,0.2,0.1,1,0.3,1.8c-0.2,1.5-0.3,0.4-0.2,2.1C170.3,117.7,170.2,116.2,170.2,116.2z M191.4,135.2
							L191.4,135.2c0-0.3,0-0.6,0-0.8C191.3,134.6,191.3,134.8,191.4,135.2z M191.4,138.5c0-0.4,0-0.9,0-1.4c0.1-0.1,0.1,0,0.1,0.3
							C191.5,137.3,191.4,138,191.4,138.5z M192.8,131.5c0,0.5,0,0.7-0.1,0.8c0-0.2,0-0.5,0-0.9c0,0,0,0,0-0.1
							C192.8,131.3,192.8,131.4,192.8,131.5z"/>
						<path class="st1" d="M192.5,130.6c0-0.1,0-0.1,0-0.2C192.5,130.5,192.5,130.6,192.5,130.6c0,0.2,0,0.2,0,0.3
							C192.5,130.7,192.5,130.7,192.5,130.6z"/>
						<path class="st1" d="M92.3,125.9L92.3,125.9C92.3,125.9,92.3,125.9,92.3,125.9C92.3,125.9,92.3,125.9,92.3,125.9z"/>
						<polygon class="st1" points="150.5,142 150.5,142 150.8,142 						"/>
						<path class="st1" d="M110.6,126.6c0,0,0.1,0,0.2,0.1C110.8,126.6,110.7,126.6,110.6,126.6z"/>
						<path class="st1" d="M118.5,126.6l1.1,0.1C119.1,126.7,118.8,126.7,118.5,126.6z"/>
						<path class="st1" d="M124.6,126.8c0.1,0,0.1-0.1,0.1-0.1l0,0L124.6,126.8z"/>
						<path class="st1" d="M28,127c-0.1,0-0.2,0-0.2,0C27.2,127.1,27.5,127,28,127z"/>
						<path class="st1" d="M56.7,126.5c-0.3,0-0.6,0.1-0.9,0.1C56.3,126.6,56.7,126.6,56.7,126.5z"/>
						<path class="st1" d="M7.2,136.5L7.2,136.5c0,0.1,0,0.1,0,0.2L7.2,136.5z"/>
						<path class="st1" d="M54.4,126.6c0.5,0,0.9,0,1.3,0C55.4,126.6,54.9,126.6,54.4,126.6z"/>
						<path class="st1" d="M150.9,126.8l0.3,0c0,0,0,0,0,0L150.9,126.8z"/>
						<path class="st1" d="M151.2,126.8l0.3,0C151.4,126.8,151.3,126.8,151.2,126.8z"/>
						<path class="st1" d="M152.2,126.7l-0.7,0.1C151.8,126.8,152.1,126.8,152.2,126.7z"/>
						<path class="st1" d="M142.9,126.8L142.9,126.8C142.8,126.8,142.8,126.8,142.9,126.8z"/>
						<path class="st1" d="M140.4,126.8c0.6,0,1.5,0.2,2.3,0.1l0.1-0.1C142.4,126.9,141,126.6,140.4,126.8z"/>
						<path class="st1" d="M130.2,125.8l2,0.1c-0.4-0.1-0.8-0.2,0.1-0.2C129.8,125.4,132.9,125.9,130.2,125.8z"/>
						<path class="st1" d="M123.9,125.7c1.1,0,0-0.1,0-0.2C123.2,125.6,123,125.6,123.9,125.7z"/>
						<path class="st1" d="M78,125.7l0.1-0.2C77.2,125.5,78.1,125.6,78,125.7z"/>
						<polygon class="st1" points="69.2,126.7 70,126.8 70.4,126.6 						"/>
						<polygon class="st1" points="64,125.3 64.4,125.3 63,125.4 						"/>
						<path class="st1" d="M8.6,143.7l-0.3-0.2C7.7,143.5,7.6,143.8,8.6,143.7z"/>
						<path class="st1" d="M41.8,143.5c0.4,0.1,1.3,0.2,1.9,0.1C43,143.6,42.2,143.5,41.8,143.5z"/>
						<polygon class="st1" points="141.6,143.9 141,144 142.2,143.9 						"/>
					</g>
				</g>
			</g>
		</g>
	</g>
	<g>
		<path class="st0" d="M171.2,150.6c0,3.8,0,7.2,0,11.1c-3.8,0-7.4,0-11.7,0c0-3.6,0-7.1,0-11.1
			C163.6,150.6,167.2,150.6,171.2,150.6z"/>
		<g>
			<g>
				<g>
					<g>
						<path class="st1" d="M171.2,151.1c0-0.1,0-0.2-0.1-0.2l0,0.2L171.2,151.1z"/>
						<path class="st1" d="M170.8,150.6c-0.1,0.1-0.2,0.3-0.1,0.6c0.1-0.2,0.1-0.1,0.2-0.4c0.1,0,0.1,0.1,0.1,0.2
							c0-0.1,0.1,0.1,0.1-0.1c-0.1-0.2-0.2-0.2-0.3,0C170.7,150.8,170.8,150.7,170.8,150.6z"/>
						<path class="st1" d="M164.3,150.3L164.3,150.3C164.3,150.3,164.3,150.3,164.3,150.3z"/>
						<path class="st1" d="M160.1,150.1C160.2,150.1,160.2,150.1,160.1,150.1C160.2,150.1,160.1,150.1,160.1,150.1z"/>
						<path class="st1" d="M158.9,149.9C159,149.9,159,149.9,158.9,149.9C159,149.8,158.9,149.8,158.9,149.9z"/>
						<path class="st1" d="M164.3,150.3l-0.1-0.1C164.2,150.3,164.3,150.2,164.3,150.3z"/>
						<path class="st1" d="M169.9,151.2C169.9,151.2,169.9,151.2,169.9,151.2C169.9,151.2,169.9,151.2,169.9,151.2L169.9,151.2z"/>
						<path class="st1" d="M166.1,150.1L166.1,150.1c0,0,0-0.1,0.1-0.1L166.1,150.1z"/>
						<path class="st1" d="M167.4,150c0,0,0,0.2-0.1,0.3c0-0.1,0-0.1,0.1-0.1C167.4,150.1,167.4,150.1,167.4,150z"/>
						<path class="st1" d="M169.6,150.4L169.6,150.4C169.6,150.4,169.6,150.4,169.6,150.4z"/>
						<path class="st1" d="M165.1,150C165.1,150,165.1,150,165.1,150C165.1,150,165.1,150,165.1,150z"/>
						<path class="st1" d="M170.2,152.2C170.2,152.2,170.2,152.2,170.2,152.2C170.2,152.2,170.2,152.2,170.2,152.2z"/>
						<polygon class="st1" points="171.3,150.6 171.3,150.6 171.4,150.6 						"/>
						<path class="st1" d="M158.5,151.7C158.5,151.7,158.5,151.7,158.5,151.7C158.5,151.7,158.5,151.7,158.5,151.7z"/>
						<path class="st1" d="M161.1,162.6c-0.1-0.2,0.2-0.2,0-0.5C161.1,162.2,160.9,162.4,161.1,162.6z"/>
						<path class="st1" d="M169.8,151.2C169.8,151.2,169.8,151.2,169.8,151.2C169.8,151.2,169.8,151.2,169.8,151.2z"/>
						<polygon class="st1" points="161.1,162.1 161.1,162.1 161.1,162.1 						"/>
						<path class="st1" d="M158.7,154.6C158.7,154.6,158.7,154.6,158.7,154.6C158.7,154.6,158.7,154.6,158.7,154.6z"/>
						<path class="st1" d="M159,152.5L159,152.5C158.9,152.5,158.9,152.5,159,152.5z"/>
						<path class="st1" d="M158.9,155.8C158.9,155.8,158.9,155.8,158.9,155.8C158.9,155.8,159,155.8,158.9,155.8
							C158.9,155.8,158.9,155.8,158.9,155.8z"/>
						<polygon class="st1" points="159,156.9 159,156.9 159,156.9 						"/>
						<path class="st1" d="M170.3,155.7c0.1,0,0.1,0,0.2-0.1C170.4,155.7,170.3,155.5,170.3,155.7z"/>
						<path class="st1" d="M169.9,151.1C169.9,151.2,169.9,151.2,169.9,151.1L169.9,151.1C169.9,151.2,169.9,151.1,169.9,151.1z"/>
						<path class="st1" d="M160.6,155.8l0,0.2C160.6,155.9,160.6,155.9,160.6,155.8z"/>
						<path class="st1" d="M168.9,160.8L168.9,160.8C168.9,160.8,168.9,160.8,168.9,160.8z"/>
						<path class="st1" d="M160.6,156.5c-0.1,0-0.1,0.1-0.1,0.1c0,0,0,0,0.1,0L160.6,156.5z"/>
						<path class="st1" d="M170.5,155.6L170.5,155.6L170.5,155.6z"/>
						<path class="st1" d="M170,154.4c0,0.2,0.3,0.1,0.4,0.1c0.1,0.2-0.2,0.1-0.3,0.2c0.1,0.1,0.3,0.2,0.3,0.3c0,0-0.1,0-0.1,0
							c0.2,0.1,0,0.4,0.3,0.6c0,0,0,0-0.1,0c0.1,0,0.3,0,0.4,0c0,0.1,0.2,0.1,0,0.2c0,0-0.1-0.1-0.1-0.1l0.1,0.1
							c-0.3,0.1-0.1-0.1-0.3-0.1c0.1,0.2,0.3,0.3,0.2,0.5c-0.3,0-0.1-0.3-0.3-0.1l0.1-0.2c-0.4,0.1,0-0.1-0.4,0
							c-0.1,0.3,0.1,0.3,0.1,0.5c0.1,0.1,0.2,0,0.4,0c0.3,0.4-0.6,0.3-0.3,0.5c0.2,0.1,0.5,0.1,0.3,0.3l-0.3-0.1
							c0,0.2,0.4,0.1,0.2,0.4c-0.1,0-0.1-0.2-0.1-0.2c-0.2,0.2,0.2,0.1,0.2,0.2l-0.3,0c0,0.3,0.2,0.5,0.3,0.8c-0.1,0-0.2-0.1-0.2,0
							c0.1,0.4,0,0.8-0.2,1.1l0.2,0.1c0,0-0.1,0.1-0.1,0c-0.1,0.1,0.1,0,0.2,0.1c0,0.1-0.1,0.1-0.2,0.1c0.1,0.1,0.2,0.3,0.2,0.5
							c0,0.2,0,0.2-0.1,0.2l-0.1,0c-0.1,0,0.5,0.3,0.2,0.3l0,0c0,0.1,0,0.1,0,0.2c-0.1,0-0.3,0-0.4-0.2c0.1,0.3-0.1-0.1-0.1,0.3
							c-0.2-0.2-0.2-0.3-0.5-0.4c-0.1,0-0.1,0.3-0.2,0.3l0-0.2l-0.2,0.2l-0.1-0.3l-0.1,0.1c0,0,0.1,0.1,0.1,0.2
							c-0.2,0.1-0.4-0.2-0.4-0.3l-0.4,0.2c0-0.1,0.1-0.1,0.1-0.2c-0.2,0.2,0-0.2-0.2,0c0,0.1,0,0.1,0,0.2c-0.1-0.1-0.3-0.1-0.5-0.1
							l0-0.2c-0.3,0-0.6,0.1-0.9,0.1c0.1,0.1,0.1,0.4,0,0.4l0-0.2c-0.1,0.2,0.1,0.1,0,0.3c-0.1,0-0.1-0.3,0-0.4l-0.1,0.1
							c0-0.1,0-0.1,0-0.2c-0.1,0.2-0.3-0.2-0.3,0l0-0.1c-0.3,0-0.5,0.1-0.7,0.1c0,0.2-0.1,0.2-0.2,0.3c-0.2-0.1-0.4-0.2-0.6-0.2
							c-0.2,0.1,0,0.2-0.1,0.3c0-0.2-0.2-0.2-0.1-0.3c-0.3,0-0.4,0-0.7,0.2c0,0.1,0.1,0.1,0.1,0.2c-0.1,0-0.1-0.1-0.1-0.2l0,0
							c-0.4,0.3-0.9-0.6-1.2-0.2l0,0L162,161c-0.2,0,0.1-0.1,0-0.3c-0.4,0.3-0.6,0-0.9,0.2c-0.4-0.6-0.5,0-0.4-0.3l-0.1,0.1
							c-0.1,0.1,0-0.1,0-0.1c-0.1,0.1-0.1,0.1-0.1,0.2c-0.1,0-0.1,0-0.1,0c0-0.1,0.1-0.2,0.1-0.3c0,0,0,0,0.1,0c0,0,0,0,0.1-0.1
							c0-0.1,0.1-0.3,0.1-0.4c0-0.3-0.7-0.1-0.4-0.5l0.2,0.1c-0.3-0.5,0-1-0.2-1.5c0.1,0,0.1,0,0.1,0.1c0.2-0.1,0-0.4-0.1-0.4
							c0-0.1,0.1,0,0.2-0.1c0.1-0.1-0.2-0.3-0.1-0.3c0,0,0.1,0,0.1,0c-0.1-0.1,0-0.3-0.2-0.3c0.1-0.2-0.1-0.4,0-0.5
							c-0.2-0.1,0.1-0.3-0.2-0.4c0.3,0,0.3-0.3,0.1-0.4c0.1,0,0.1-0.1,0.2-0.1c0-0.1-0.1-0.3-0.2-0.2c0.4-0.2-0.3-0.5,0.2-0.6
							c-0.2-0.4-0.3-0.8-0.4-1.1c0.3,0,0,0.4,0.4,0.4c-0.1-0.3-0.4-0.5-0.3-0.9c0-0.1,0.1,0,0.2,0.1c-0.1-0.3,0-0.7-0.2-1
							c0,0,0.1,0,0.1,0.1c0-0.1,0-0.1-0.1-0.1l0,0.1c-0.2,0.1-0.5-0.2-0.6-0.2c0.4,0.1,0.1-0.3,0.7-0.1c0,0-0.1-0.1-0.2-0.1
							c0-0.1,0.1-0.1,0.2,0c-0.1-0.2-0.2-0.1-0.2-0.2c0.1,0,0.1,0,0.2,0.1c-0.1-0.1-0.3-0.2-0.2-0.2c0,0,0.1,0,0.1,0.1
							c0-0.1-0.3-0.4-0.3-0.6c0,0,0.1,0,0.1,0c0.2,0.3,0.2,0.1,0.4,0.4c0,0,0-0.1,0-0.1l-0.1-0.1c0.1,0,0-0.2,0.2-0.1
							c0,0,0,0.1,0,0.1l0.1-0.1c0,0-0.1-0.1-0.1-0.1c0.1-0.1-0.1-0.4,0-0.3c0,0,0.1,0,0.2,0.2l0,0c0-0.1,0.1-0.2,0.2-0.1
							c0,0.1,0,0.3,0,0.4c0.1-0.2,0.3-0.1,0.4-0.3c0,0.1,0,0.2,0,0.2l0.1-0.2c0.1,0.1,0.1,0.1,0.1,0.2c0.2,0-0.1-0.4,0.2-0.2
							c0,0,0,0,0,0.1c0.2,0.1,0.5-0.1,0.7,0c0.1,0.3-0.2,0.1-0.1,0.3c0.3-0.1,0.7-0.3,1-0.3l-0.1,0c0-0.4,0.2,0.2,0.4,0
							c0,0-0.1,0.2,0,0.2c0.2,0.1,0.4-0.1,0.8-0.2l0,0.1c0.1,0.1,0.3,0.1,0.5,0.1c0-0.1,0.1-0.1,0.1-0.2c0.4,0.6,0.8-0.3,1.2,0.2
							c0,0-0.1,0.1-0.1,0.1l0.3-0.1c0-0.2,0-0.1-0.1-0.2c0-0.1,0.1-0.2,0.2-0.2c-0.1,0.1,0,0.3,0.1,0.4c0-0.1,0-0.1,0-0.2
							c0.2,0.3,0-0.3,0.3-0.1l0,0.1c0.1,0,0.2-0.2,0.3-0.1c0,0.2-0.1,0.1-0.1,0.3c0.1,0,0.3-0.4,0.4-0.2c-0.1,0.1-0.1,0.1-0.2,0.1
							c0.1,0.2,0.1,0.2,0.2,0.2l0,0l0.2,0.1l-0.1-0.1c0.2-0.5,0.3-0.1,0.5-0.4c-0.2,0.3,0,0.2-0.1,0.4c0.1,0.1,0.1,0.1,0.1,0.2
							c0.1-0.2,0.2,0.1,0.3-0.1c0,0.1,0.1,0,0.1,0.2c0.1-0.1,0-0.1,0-0.2c0.2-0.2,0.5,0.3,0.8,0c0.3-0.1,0.3-0.4,0.5-0.5
							c0.1,0.1-0.1,0.3-0.1,0.3c0.1,0.1,0.2,0.1,0.3,0c0,0.1,0,0.1,0,0.2c0.1,0,0.1-0.3,0.2-0.2c0,0.1,0,0.2-0.1,0.3
							c0.1-0.1,0.2-0.2,0.3-0.3c0,0.1-0.1,0.2-0.1,0.3c0.1-0.1,0.3-0.1,0.4-0.3l-0.1-0.1c0,0,0,0.2,0,0.2c-0.1,0.2-0.2-0.1-0.2-0.1
							l0.1,0c-0.1-0.4-0.3,0.1-0.5,0l0.1-0.3l-0.2,0.3c0-0.1-0.1-0.3,0-0.3c-0.1-0.2-0.1,0.1-0.2-0.1c0,0,0,0,0-0.1l-0.1,0.1
							c0-0.1,0-0.2,0.1-0.2c-0.2-0.2-0.3,0.2-0.4,0l0,0c-0.3,0.1,0,0.2-0.2,0.5l-0.1-0.6l0,0.2c0,0-0.1,0-0.1-0.1
							c-0.1,0.2,0,0.1,0,0.2c-0.1-0.2-0.4,0.1-0.4-0.3c-0.1,0.2,0.1,0.1,0,0.3c0-0.4-0.2,0.1-0.3-0.1c0-0.2,0.2-0.1,0-0.3
							c-0.1,0.3-0.3-0.1-0.4,0c0,0.3-0.2,0.1-0.4,0.2c0-0.1-0.4-0.1-0.5-0.2l0,0c0,0.3-0.2,0.2-0.3,0.3c0-0.2,0-0.2,0.1-0.3l-0.1,0
							c0,0.1-0.1,0.1-0.1,0.2l0-0.2c-0.2,0-0.3,0.2-0.5,0.1c0,0.2,0.2,0.5-0.1,0.7c0-0.1,0-0.3,0-0.3c0,0-0.1,0.1-0.1,0l0.1-0.2
							c-0.1-0.1-0.1,0.1-0.1,0.1c0-0.1-0.1-0.1,0-0.2c0,0,0.1,0.1,0.1,0c-0.1,0-0.2-0.1-0.2-0.2c0,0.1,0,0.2-0.1,0.2
							c-0.2,0-0.1-0.2-0.2-0.3c0,0.1-0.1,0-0.1,0.2c0,0-0.1-0.1-0.1-0.2c-0.1,0.1-0.4,0-0.3,0.3l0,0l0,0h0h0c-0.3,0.2-0.6-0.1-0.9,0
							l0-0.1c-0.2,0.1-0.4,0.1-0.5,0.2c0,0-0.1-0.1-0.1-0.2c-0.1,0.1-0.1,0.1-0.3,0c0.1-0.1,0-0.1,0.1-0.1c-0.2-0.1-0.2-0.2-0.4,0
							c0.1-0.2-0.1-0.2-0.2-0.2l0.1,0.1c-0.1,0-0.2,0-0.2,0l0-0.2c-0.3-0.3-0.6,0.5-0.9,0c-0.1,0.2,0.2,0.1,0.1,0.3
							c-0.2,0-0.3-0.4-0.4-0.4c-0.2-0.1-0.2,0.4-0.5,0.3c0.1,0.1,0.1,0.3,0,0.4c-0.2,0-0.4-0.4-0.3-0.4c0.1,0,0.1,0,0.1,0.1
							c0.1,0,0.2-0.1,0-0.2l0,0.1c-0.1-0.1-0.5-0.1-0.5-0.2c-0.2,0.1,0,0.1,0.2,0.2c-0.4-0.1-0.5,0-0.9-0.1c0.1,0,0.2,0.2,0.2,0.2
							c-0.2,0-0.2,0-0.3,0c0,0.2,0.2,0.2,0.2,0.5c-0.1,0-0.3-0.3-0.2,0.1c-0.1,0.1-0.2-0.1-0.3-0.3c0.2,0.4-0.1,0.5-0.1,0.7
							l-0.1-0.2c0,0.1,0,0.2,0,0.3l0.2,0c0,0.1,0,0.2-0.1,0.2c0.1,0.1,0.3,0,0.5,0.2c-0.1,0.1,0.1,0.3-0.1,0.4
							c0.1-0.4-0.2,0-0.3-0.3c0,0.1,0,0.2,0,0.3c0,0,0,0-0.1,0c-0.2,0.3,0.3,0.1,0.3,0.4c-0.1,0-0.3,0.1-0.2,0.1c0-0.1,0.2,0,0.3,0
							c-0.1,0.2,0.1,0.2,0.1,0.2l0-0.1c0.1,0,0.1,0.1,0.2,0.2c-0.1,0-0.1-0.1-0.1-0.1c0.2,0.1-0.2,0.3-0.1,0.4
							c-0.1,0.1-0.3,0-0.3,0.1c0.2,0.2-0.2,0.2,0,0.4c0.2-0.1,0.1-0.1,0.3,0.1l-0.1-0.3l0.3,0.2c0-0.1-0.1-0.2-0.1-0.3
							c0.1,0.1,0.1,0.1,0.2,0c-0.3,0.1,0.2,0.3,0,0.4l-0.4,0c-0.2,0.2,0.2,0.4,0.1,0.7l0.1-0.1c0.2,0,0,0.2,0.1,0.3
							c-0.1,0-0.2,0.1-0.3,0.1c0.1,0,0,0.2,0.3,0.2l-0.2,0.1c-0.1,0.2,0.4,0.3,0.4,0.5c-0.2-0.1-0.3,0-0.4-0.1c0,0.1,0,0.1,0.1,0.1
							c-0.1,0,0.2,0.2,0.1,0.3c0.1,0,0.2,0,0.2,0.1c0,0-0.1,0-0.1,0c0.1,0,0.1,0.1,0.3,0.1c-0.5,0.2,0,0.7-0.4,0.9
							c0,0.2,0.1,0.4,0.1,0.5c0,0-0.1,0-0.1,0c-0.1,0.2,0.4,0.1,0.3,0.4c-0.2,0.1-0.1-0.1-0.2-0.1c-0.5,0,0.1,0.3-0.2,0.5l0,0
							c-0.2,0.1,0.2,0.3,0.1,0.5c0,0,0,0-0.1,0c0.2,0.1,0.3,0.4,0.4,0.6c-0.2-0.1-0.1-0.1-0.3-0.1c0,0.1,0.3,0,0.4,0.1
							c-0.1,0.1-0.2,0.2-0.4,0.2l0-0.2c-0.3,0.1,0,0.2,0,0.3l-0.1,0c0,0.3,0.3,0.3,0.3,0.5l0.1,0c0.3,0.1-0.2,0.1,0.1,0.3l-0.3,0
							c0.1,0.2,0.3,0.4,0.3,0.6c-0.2,0-0.3-0.3-0.5-0.5c0,0.2,0,0.5,0.2,0.5c0,0-0.1-0.1-0.1-0.2c0.2,0.1,0.3,0.2,0.3,0.5
							c-0.4,0.2-0.3,0.5-0.4,0.8c0.1,0,0.2,0.1,0.2,0.2c0.4-0.1,0.6-0.1,0.9,0c0.1,0,0.3,0,0.4,0.1c0.2,0,0.3,0,0.4,0
							c-0.1-0.4,0.1,0,0.1-0.5c0.1,0,0.1,0,0.1,0l0.3,0.3c0.1,0.1-0.1,0.1-0.1,0.2c0.2,0,0.1,0.2,0.2,0.3c0-0.2,0.1-0.2,0.2-0.2
							l-0.2-0.2c0.3-0.2,0.2,0.4,0.5,0.1l-0.1,0.1c0.1-0.1,0.5,0,0.7-0.4c0,0.1,0.1,0.2,0,0.2c0.4,0.1,0.8-0.4,1.1-0.2l0,0.1
							c0.1,0,0.1-0.2,0.2-0.1c0,0,0,0.1,0,0.1c0,0,0.2-0.2,0.3-0.1l-0.1,0.1c0.3,0.1,0.5-0.3,0.8-0.4c0,0.3,0.3,0.4,0.4,0.5l0,0
							c0.4,0,0.7-0.3,1-0.4c0.2,0.4,0.8,0.1,1.1,0.4c-0.1-0.1,0-0.3,0.1-0.3c0.1,0.1,0.2-0.2,0.2,0.1l0,0c0.1,0.3,0.2,0.2,0.4,0.2
							l0-0.4c0.4,0.6,1-0.2,1.2,0.3c0.1-0.1,0.2-0.1,0.3-0.2l0,0.2c0.1,0,0.2,0,0.3,0.1c0.1,0,0.3,0,0.6,0l-0.1,0.2
							c0.4,0,0.2-0.6,0.4-0.6l0.2,0.3c0.3,0,0.7,0.1,1.1,0.1c0-0.2,0-0.4-0.1-0.7c0,0,0.1,0.1,0.2,0.2c0-0.2,0.2-0.9-0.2-1
							c0.3,0.1,0-0.5-0.1-0.8l0.2,0c-0.3-0.2-0.3-0.1-0.4-0.3c0,0,0.2,0,0.1,0c0.1-0.1-0.2-0.1-0.1-0.3l0.1,0.1
							c0-0.2-0.1-0.1-0.2-0.2c-0.1-0.1,0.1-0.3,0.2-0.3c-0.1,0-0.3-0.1-0.2-0.2c0.1,0,0.1,0,0.1,0c0.1-0.3-0.2-0.4,0-0.6
							c0.1,0,0.1,0,0.1,0c0,0.2,0,0.4,0,0.4c0.2,0,0.2-0.2,0.5,0c-0.1-0.1-0.5-0.4-0.4-0.5c0,0,0,0,0.1,0l0,0c0,0,0-0.1,0-0.1
							c0-0.1,0.1-0.1,0.1-0.1c0.2,0,0.1-0.2,0.1-0.3c-0.2,0-0.2-0.1-0.4,0c0,0,0,0,0,0.1c0,0,0,0,0,0l0,0c0,0.1,0,0.1,0,0.2
							c-0.1-0.1-0.2-0.1-0.1-0.2c-0.1,0-0.3-0.1-0.3-0.1c0.3-0.1,0.5-0.3,0.6-0.4c-0.1-0.2-0.1-0.6-0.5-0.7
							c-0.1-0.1,0.1-0.1,0.2-0.1c0,0,0,0.1,0.1,0.1c-0.1-0.1,0-0.4-0.3-0.5c0.1-0.2,0.3,0.1,0.2-0.1l0.1,0c0.4-0.5-0.7-0.8-0.1-1.3
							c0,0-0.1,0.1-0.1,0.1c0.3-0.6-0.2-1.3,0.2-1.9c0.1-0.2-0.1-0.2-0.2-0.3l0.2,0l-0.3-0.2c-0.2-0.3,0.6-0.4,0.2-0.8l-0.2,0
							c0-0.1-0.1-0.4,0.1-0.3c0,0-0.2,0-0.1-0.1l0.1,0l-0.2-0.3c0.1-0.2,0.5,0,0.5-0.3c0-0.1-0.3-0.3-0.4-0.3c0,0-0.1,0.1-0.2,0.1
							l-0.1-0.1c-0.3,0-0.7-0.1-1,0.2l0.2,0.2l-0.2,0.1l0-0.2c-0.2,0.1,0,0.1,0.1,0.2c-0.1,0-0.2,0-0.2,0.1l0.3,0.2
							c-0.1,0-0.3-0.1-0.3,0c0.2,0.1,0.3-0.1,0.4,0.1c-0.2,0.1-0.3,0.1-0.2,0.2c-0.1,0-0.1,0-0.2,0c0.1,0.1,0,0.2,0.2,0.3
							c-0.2,0.1,0.1,0.3-0.3,0.3c0.1,0,0.3,0.2,0.3,0.2c-0.4-0.2,0,0.3-0.4,0.3c0.4,0.1,0.2,0.4,0.4,0.6c0,0-0.1,0-0.1-0.1
							c0,0.1-0.1,0.1-0.2,0.2c0.3,0,0.4,0.2,0.5,0.3c-0.3,0.1-0.3-0.1-0.6,0c0.2,0,0.2,0.2,0.4,0.2c-0.2,0.1-0.1,0.1-0.3,0.1
							c0.4,0,0.1,0.1,0.3,0.2c-0.2,0.2-0.3,0-0.2,0.2C170.1,154.6,170,154.4,170,154.4z M170.6,158.5L170.6,158.5
							C170.6,158.5,170.6,158.5,170.6,158.5C170.6,158.5,170.6,158.5,170.6,158.5z M170.6,158.9c0,0,0-0.1,0-0.1c0.1,0,0.1,0,0.1,0
							C170.8,158.7,170.7,158.8,170.6,158.9z M172.1,158.1C172.1,158.2,172.1,158.2,172.1,158.1C172,158.2,172,158.2,172.1,158.1
							l-0.1,0C172,158.1,172.1,158.1,172.1,158.1z"/>
						<path class="st1" d="M171.8,158C171.8,158,171.8,158,171.8,158C171.8,158,171.8,158,171.8,158L171.8,158L171.8,158z"/>
						<path class="st1" d="M164.4,150.3L164.4,150.3C164.4,150.3,164.4,150.3,164.4,150.3C164.4,150.3,164.4,150.3,164.4,150.3z"/>
						<polygon class="st1" points="169.3,160.7 169.3,160.8 169.3,160.7 						"/>
						<path class="st1" d="M166.3,151C166.3,151,166.3,151.1,166.3,151C166.3,151.1,166.3,151,166.3,151z"/>
						<path class="st1" d="M167.1,151.1l0.1,0.1C167.1,151.1,167.1,151.1,167.1,151.1z"/>
						<path class="st1" d="M167.7,151.2C167.7,151.1,167.7,151.1,167.7,151.2L167.7,151.2L167.7,151.2z"/>
						<path class="st1" d="M160.4,152.5C160.4,152.5,160.4,152.5,160.4,152.5C160.4,152.5,160.4,152.5,160.4,152.5z"/>
						<path class="st1" d="M160.7,150.9C160.7,151,160.7,151,160.7,150.9C160.7,151,160.7,151,160.7,150.9z"/>
						<polygon class="st1" points="160.6,155.8 160.6,155.8 160.6,155.8 						"/>
						<path class="st1" d="M160.6,151C160.6,151.1,160.6,151.1,160.6,151C160.6,151,160.6,151,160.6,151z"/>
						<path class="st1" d="M170.4,151.3L170.4,151.3C170.5,151.3,170.5,151.2,170.4,151.3L170.4,151.3z"/>
						<path class="st1" d="M170.5,151.2L170.5,151.2C170.5,151.2,170.5,151.2,170.5,151.2z"/>
						<path class="st1" d="M170.6,151.2L170.6,151.2C170.5,151.2,170.6,151.2,170.6,151.2z"/>
						<path class="st1" d="M169.6,151.2L169.6,151.2C169.6,151.2,169.6,151.2,169.6,151.2z"/>
						<path class="st1" d="M169.3,151.2c0.1,0,0.2,0.2,0.2,0.1l0-0.1C169.6,151.4,169.4,151.1,169.3,151.2z"/>
						<path class="st1" d="M168.3,150.2l0.2,0.1c0-0.1-0.1-0.2,0-0.2C168.2,149.9,168.6,150.3,168.3,150.2z"/>
						<path class="st1" d="M167.6,150.1c0.1,0,0-0.1,0-0.2C167.6,150,167.5,150.1,167.6,150.1z"/>
						<path class="st1" d="M162.9,150.1l0-0.2C162.8,150,162.9,150,162.9,150.1z"/>
						<polygon class="st1" points="162,151.1 162.1,151.2 162.1,151.1 						"/>
						<polygon class="st1" points="161.4,149.8 161.5,149.7 161.3,149.8 						"/>
						<path class="st1" d="M158.8,156.7l0.2,0C159,156.6,158.7,156.6,158.8,156.7z"/>
						<path class="st1" d="M159,160.2c-0.1,0-0.2,0.1-0.1,0.2C158.9,160.3,159,160.2,159,160.2z"/>
						<polygon class="st1" points="168.4,162.6 168.3,162.7 168.4,162.6 						"/>
					</g>
				</g>
			</g>
		</g>
	</g>
</g>
</svg>
