<?xml version="1.0" encoding="utf-8"?>
<!-- Generator: Adobe Illustrator 21.0.2, SVG Export Plug-In . SVG Version: 6.00 Build 0)  -->
<svg version="1.1" id="Layer_1" xmlns="http://www.w3.org/2000/svg" xmlns:xlink="http://www.w3.org/1999/xlink" x="0px" y="0px"
	 viewBox="0 0 280 245" style="enable-background:new 0 0 280 245;" xml:space="preserve">
<style type="text/css">
	.st0{fill:#FFFFFF;}
	.st1{fill:#4D4D4D;}
</style>
<g>
	<g>
		<path class="st0" d="M156.3,229.8c2,0.2,4,0.3,5.9,0.7c12.7,2.6,25.5,3.6,38.3,3.4c11.4-0.2,22.7-1.6,33.5-5.4
			c7-2.5,13.3-6,18.1-11.8c1.2-1.4,2.2-3.1,3-4.7c2-4.2,0.9-8-3.5-9.4c-4.3-1.4-9-2.3-13.5-2.4c-8.6-0.2-17,1.3-25.3,3.4
			c-14.8,3.8-29.6,7.7-44.3,11.7c-17.5,4.7-35,10-52.6,14.4c-21,5.3-42.3,9.3-64.1,8.4c-10.6-0.4-21-2-30.3-7.5
			c-9-5.3-15.3-12.9-17.7-23.3c-0.8-3.4,0.5-6.4,2.2-9.1c2.2-3.7,5.6-6.1,9.4-8c8.3-4.1,17.3-5.3,26.5-5.6
			c20.5-0.7,38.7,6,55.6,16.8c4.9,3.2,9.6,6.8,14.4,10.2c0.8,0.5,1.7,0.9,2.5,1.3c-0.3,0.5-0.6,0.9-0.9,1.4
			c-4.1-0.6-8.4-0.8-12.4-1.9c-9-2.5-18.1-5.2-26.9-8.3c-9.7-3.4-19.4-6.4-29.6-7.4c-3.7-0.4-7.7,0.1-11.3,1.1
			c-4.7,1.2-6.4,4.9-5.2,9.6c2.1,8,6.8,13.7,14.9,16.6c7.9,2.9,16,4.1,24.2,4.4c19.4,0.8,38.8-0.5,57.6-5.6
			c16.7-4.5,33.1-10.4,48.9-17.5c8.6-3.9,16.8-8.5,25.2-12.6c6.6-3.2,13.6-5.3,20.8-6.4c11.1-1.6,22.2-1.6,33.2,0.9
			c6.8,1.6,13.5,3.6,18.9,8.4c6.1,5.4,7.6,11.5,3.4,18.6c-5.2,8.9-13.3,14.7-22.2,19.4c-10.5,5.6-21.9,7.8-33.7,8.8
			c-11.5,1-22.8-0.7-34.2-2.5c-7.8-1.2-15.5-2.6-22.7-5.7c-2.2-1-4.3-2.2-6.4-3.3C156.1,230.4,156.2,230.1,156.3,229.8z"/>
		<g>
			<g>
				<g>
					<g>
						<path class="st1" d="M156.7,229.9c0.1-0.3,0.1-0.3,0-0.2c0,0.1-0.1,0.2-0.2,0.4c0,0.1-0.1,0.2-0.1,0.3c0,0.1,0,0.1-0.1,0.2
							c-0.1,0.1,0.1,0.1,0.1,0.1l0.4,0.1l0.5,0.2l-0.8-0.4c-0.1,0,0-0.1,0-0.1l0-0.2L156.7,229.9z"/>
						<path class="st1" d="M164,234.7c1.6,0.6,3.6,1.1,2.6,0.6c-1.7-0.4-2-0.6-3.8-1.2c-1.4-0.6-2.3-1.2-2.1-1.1
							c-0.5-0.2-2-1.1-2.8-1.4c1.6,1,3.8,2.2,6.2,3C164.7,234.9,164.1,234.7,164,234.7z"/>
						<path class="st1" d="M269.3,193.3c0.3,0.2,0.5,0.4,0.8,0.6C269.9,193.6,269.6,193.5,269.3,193.3z"/>
						<path class="st1" d="M183.5,200c0.6-0.3,0.9-0.5,0.9-0.5C183.8,199.8,183.3,200,183.5,200z"/>
						<path class="st1" d="M169.5,206.4c0.3-0.1,0.6-0.2,0.8-0.3C170.1,206.1,169.7,206.3,169.5,206.4z"/>
						<path class="st1" d="M269.3,193.3c-0.6-0.5-1.3-0.9-2-1.3C267.1,191.9,268.3,192.6,269.3,193.3z"/>
						<path class="st1" d="M183.5,239.1c-0.5-0.1-0.9-0.1-1.3-0.2C182.6,239,183,239.1,183.5,239.1
							C183.4,239.2,183.4,239.1,183.5,239.1z"/>
						<path class="st1" d="M265.2,226l-0.6,0.5c-0.2,0.2-0.3,0.3-0.4,0.4L265.2,226z"/>
						<path class="st1" d="M238.1,239.6c0.7-0.2,0.9-0.4,1.1-0.5c-0.4,0.2-0.8,0.3-1.4,0.5C237.8,239.6,237.9,239.7,238.1,239.6z"/>
						<path class="st1" d="M190.1,240.7l-0.9-0.1C189.5,240.6,189.9,240.7,190.1,240.7z"/>
						<path class="st1" d="M277.7,208.3c0,0,0.1-0.2,0.1-0.3C277.8,208,277.8,208.1,277.7,208.3z"/>
						<path class="st1" d="M191.3,234.5C191.4,234.5,191.3,234.4,191.3,234.5C191.2,234.4,191.1,234.5,191.3,234.5z"/>
						<path class="st1" d="M156.4,229.8l0.5,0c0.1,0,0.1,0,0.1-0.1L156.4,229.8z"/>
						<path class="st1" d="M143.3,216.3c0.1,0,0.1,0,0.1,0C144.1,216,143.7,216.1,143.3,216.3z"/>
						<path class="st1" d="M84.4,193.4c2.6,1.4-4.4-1.9-0.5,0.1C83.6,193.3,87.7,195.1,84.4,193.4z"/>
						<path class="st1" d="M184.2,239.3c0.4,0.1,0.8,0.1,1.2,0.2C184.9,239.4,184.5,239.3,184.2,239.3z"/>
						<path class="st1" d="M84,193.5L84,193.5l0.4,0.2C84.2,193.6,84.1,193.6,84,193.5z"/>
						<path class="st1" d="M80.1,227.8c0.1,0,0.4,0,0.7,0.1C80.7,227.8,80.6,227.8,80.1,227.8z"/>
						<path class="st1" d="M127.6,221.4l-1.2,0.3C126.9,221.6,127.3,221.5,127.6,221.4z"/>
						<path class="st1" d="M55.2,226.6c-0.6-0.1-0.8-0.2-1.7-0.3c0.1,0,0.2,0,0.3,0.1C54,226.4,54.5,226.5,55.2,226.6z"/>
						<path class="st1" d="M32.5,215.8c0.1,0.1,0.2,0.3,0.3,0.4c0.2,0.2,0.4,0.4,0.5,0.6C33,216.5,32.7,216.2,32.5,215.8z"/>
						<path class="st1" d="M254.8,203.6c0.4,0.5,0.6,0.8,0.8,1.1c-0.1-0.2,0.5,0.6,0.6,0.9c0.1,0.2,0.1,0.2,0-0.1
							C256,205.2,255.8,204.6,254.8,203.6z"/>
						<path class="st1" d="M183.5,239.2c0.2,0,0.4,0,0.8,0.1C183.9,239.2,183.7,239.2,183.5,239.2
							C183.3,239.2,183.3,239.2,183.5,239.2z"/>
						<path class="st1" d="M53.9,227.5c-1.4-0.3-2.7-0.6-4.1-0.9C51,226.9,52.5,227.2,53.9,227.5z"/>
						<path class="st1" d="M72.5,236.9l0.9-0.1C73.1,236.8,72.8,236.9,72.5,236.9z"/>
						<path class="st1" d="M38.1,222.4c-0.6-0.4-1.3-0.9-1.9-1.4c-0.1-0.1-0.3-0.2-0.4-0.3C36.5,221.3,37.3,221.8,38.1,222.4z"/>
						<path class="st1" d="M255.6,204.7C255.6,204.7,255.6,204.7,255.6,204.7C255.6,204.7,255.6,204.7,255.6,204.7z"/>
						<path class="st1" d="M241.3,226.2c1.8-0.9,2.1-1.2,2.2-1.3c0-0.1-0.3,0,0.1-0.3c2-1.3,2.5-1.6,2.6-1.7c0.2-0.1,0,0.2,0.7-0.3
							c2.4-1.9,3.9-3.6,5.3-5.3c0.1-0.1,0.4-0.4,0.1,0c1-1.2,2.4-3.2,3.4-5.4c0.5-1.1,0.9-2.4,0.9-3.6c0.1-1.2-0.3-2.4-0.8-3.2
							c-0.1-0.3-0.2-0.4-0.2-0.5c0.2,0.6,0.2,0.7,0.1,0.6c-0.4-0.8-1-1.4-1.6-1.8c-0.6-0.4-1.1-0.7-1.3-0.9c0.5,0.2,0.8,0.4,1,0.5
							c0.2,0.1,0.3,0.2,0.6,0.3c-0.5-0.4-1.1-0.7-1.7-1c-0.8-0.4-0.1-0.2,0.6,0.2c0.8,0.4,1.6,1.2,1.6,1.1c-0.7-0.7-1.6-1.2-2.5-1.6
							c-0.9-0.3-1.8-0.6-2.7-0.8c-1.8-0.5-3.5-0.8-4.9-1.1c-0.3-0.1,1.3,0.1,2.6,0.4c1.2,0.3,2,0.5,0.2,0c1.4,0.3,2.8,0.8,4.2,1.2
							c-1.5-0.6-0.9-0.4-0.3-0.2c0.3,0.1,0.7,0.2,0.8,0.2c0.1,0-0.1-0.1-0.8-0.4c-2.7-0.9-4.3-1.2-5.9-1.4c-1.6-0.3-3.2-0.5-6-0.7
							c-1.3,0,0.4,0.2-0.9,0.2c-4,0-5.6,0-6.9,0c-1.3,0-2.4,0-5.3,0.5c-1.5,0.3-2.1,0.6-6.2,1.3l1.4-0.5c-2.7,0.5-3.4,0.8-4.2,1
							c-0.8,0.2-1.6,0.4-4.4,1.1c1-0.3,4.2-1.1,3.4-0.9c-3.7,0.7-2.5,0.7-5.3,1.4l-0.6,0c-5.6,1.5-11.8,3.2-18,4.9
							c0.3-0.1,1.4-0.5-0.1-0.1c-7.8,2.2-16.8,4.4-24.4,6.3l-2.9,0.9c-0.7,0.2-1.3,0.3-0.5,0.1c-3,0.8-0.1,0.1-1.5,0.6
							c-1.7,0.5-2.2,0.5-1.2,0.2c-5.2,1.6-14.7,4.4-20.2,5.8l1.1-0.3c-4.3,1.1-4.7,1.6-8.7,2.6l0.8-0.2c-9.3,2.5-19.5,5.3-26.7,6.7
							c-1.3,0.5-9.3,2-9.8,2.3c-2.7,0.5-3.7,0.6-4.9,0.8c-1.2,0.2-2.8,0.4-6.6,1c-2,0.3-3,0.7-5.5,1l-0.1-0.1
							c-1.1,0.2-2.3,0.4-3.4,0.6l-1.8,0l-2.4,0.3c0.9-0.1,2-0.1,1.9-0.1c-1.8,0.2-4.1,0.4-5.9,0.5c-0.9,0-1.7,0.1-2.3,0.1
							c-0.6,0-0.9,0-0.9,0c-1.5,0.1-2.9,0.2-4.4,0.2c-1.5,0.1-2.9,0.1-4.4,0.1c0.2-0.1,1.7-0.1,2.8-0.1c-4.7,0.2-0.9-0.1-5.2,0
							c0.6,0-0.3,0.1-0.4,0.1c-1.1-0.1-2.8-0.1-4.8-0.2c-1.9-0.1-4-0.3-5.8-0.4l0.7,0c-6.4-0.7-13.6-2.1-20.1-5.3
							c1.1,0.6,1.6,0.8,1.5,0.9c-0.1,0-0.8-0.2-1.7-0.7l-0.7-0.5c-1.3-0.5,2,1.1-0.6-0.1c-2.4-1.4-1.5-1.1-0.1-0.3
							c-1-0.5-1.9-1.1-2.9-1.6c-0.1-0.1,0.5,0.2,0.7,0.3c-0.6-0.3-1.8-1.1-2.9-2c-1.2-0.9-2.4-1.9-3.1-2.5l-0.1-0.2
							c-2.6-2.5-4.2-4.5-5.6-6.6c-1.3-2.1-2.4-4.1-3.4-6.8c-0.2-0.1-0.9-2.3-1.4-3.9c-0.5-2.1-0.1-4.3,0.9-6.4
							c0.5-1.1,1.1-2.2,1.8-3.2c0.7-1,1.5-2,2.4-2.8c1.3-1.2,1.6-1.4,1.5-1.4c0,0-0.2,0.1,0.4-0.4c0.1,0,1.3-0.8,2.2-1.2
							c0.9-0.5,1.4-0.7,0.3-0.1c2.7-1.5,4.6-2.3,6.7-3c2.1-0.7,4.4-1.5,8.3-2.3c-0.9,0.1-1.8,0.3-1.3,0.1c1.4-0.3,3.3-0.5,3.1-0.4
							l-0.4,0.1c4.4-0.8,9.6-1.1,14.6-1c5,0.1,9.6,0.6,13.2,1.1l-0.4-0.1c2.4,0.3,4.9,0.8,7.3,1.3c3.3,0.9-2-0.4,0.4,0.3
							c3.9,0.9,6.9,1.9,9.7,2.9c1.4,0.5,2.7,1.1,4.1,1.7c1.4,0.6,2.8,1.2,4.3,1.9c2.2,1.3,6.3,3.3,10.3,5.7
							c4.1,2.4,8.2,5.2,10.9,7.4l-0.3-0.3c1.5,1,1.7,1.3,2.8,2.1c-0.1-0.2-1.5-1.2-0.6-0.6c1.5,1.1,3.1,2.2,4.7,3.3
							c0.4,0.3,0.9,0.6,1.3,0.8l0.9,0.4c0,0,0.1,0,0.1,0.1l-0.1,0.1l-0.2,0.3c-0.1,0.2,0,0.1-0.7,0c-3.9-0.5-7.8-0.8-11.5-1.9
							c-7.6-2.2-15.1-4.5-22.5-7c-5.4-1.8-3.2-0.6-9.9-3.1l2,0.5c-5.5-1.7-11.1-3.5-16.9-4.7c-2.9-0.6-5.8-1.1-8.7-1.4
							c-2.9-0.3-5.9-0.1-8.7,0.4c0.7-0.1,0.7-0.2,1.8-0.3c-1.2,0.1-3.4,0.4-5.3,1c-1,0.3-1.8,0.7-2.4,1.1c-0.6,0.4-0.9,0.7-0.9,0.7
							c-0.7,0.6-0.8,0.7-0.8,0.7c0,0,0-0.1-0.4,0.4c-0.9,1-1.4,2.7-1.4,4.1c0,1.5,0.3,2.7,0.4,3.4c0,0.2-0.2-0.7-0.3-1.1
							c0.2,0.8,0.7,2.6,1.2,4c0.5,1.4,1,2.3,0.8,1.6c1.7,4,4.4,7,7.2,9.1c0.9,0.6,2.5,1.6,4,2.3c1.5,0.7,2.9,1.2,3.2,1.2
							c-0.2,0.1,1.6,0.7,3.7,1.4c2.1,0.6,4.7,1.2,6,1.4c-0.9-0.1,2.3,0.5,1.2,0.4c3,0.5,5.8,0.8,5.3,0.6c2.8,0.5,5.6,0.6,8.1,0.6
							c2.5,0.1,4.7,0.1,6.3,0.3c9.1,0,17.4-0.5,25.5-1.4c-0.1,0.1-2.4,0.4-4.5,0.6c-2.2,0.2-4.2,0.3-4.1,0.4
							c3.9-0.3,6.9-0.6,9.9-1.1c3-0.4,6-0.9,9.8-1.5c2-0.3-1.1,0.3-1.8,0.4c7.6-1.3,14.7-3,21.2-5c0,0-0.2,0.1-0.4,0.2
							c-0.3,0.1-0.6,0.2-0.9,0.3c1.3-0.4,3-0.8,2.9-0.9l-1.3,0.4c-2.1,0.5,5.1-1.8,5.3-2c-2.1,1,6.5-2,3.1-0.5
							c0.8-0.3,1.9-0.7,1.7-0.7c1.3-0.4,1.7-0.5,0.4,0c4.6-1.6,2.9-1.1,7.1-2.6c0,0.1-0.8,0.4-1.2,0.6c2.1-0.8,4.1-1.7,7.6-2.9
							c-0.2,0.1,0.2,0-0.8,0.4c6-2.2,10-4.1,16.5-6.8c-1.8,1,2.2-0.9,2.6-0.9c1.1-0.5,2.3-1.1,3.4-1.6l-1.4,0.6c3-1.4,5.5-2.8,8.1-4
							l-2.2,1.2l5.5-2.8l-3.1,1.5c2.9-1.6-0.4,0,3.5-2c-0.8,0.4,2.9-1.5,4.5-2.2l0,0c1.4-0.8,2.9-1.6,5.1-2.7c0.6-0.2-0.4,0.4,0,0.3
							c0.7-0.4,2.4-1.3,4.2-2.2c1.8-0.8,3.7-1.6,4.6-2c-0.6,0.3-0.6,0.4-0.4,0.3l1.2-0.6c1.4-0.5,1.7-0.5,1.5-0.4
							c4.3-1.4-1.5,0.2,3.7-1.3c-0.4,0.1-0.2,0.1-1.1,0.4c5.2-1.5,10.2-2.4,15.2-2.9c0.7,0-0.3,0.1-1.4,0.3
							c-1.1,0.1-2.1,0.3-1.2,0.2c7.1-0.9,14.9-1.3,21.8-0.4l-1.3-0.2c1-0.2,5.2,0.7,8.6,1.3c-0.8-0.2-1.1-0.1-0.9-0.1
							c2.3,0.5,4.7,1,7.4,1.8c2.6,0.8,5.6,1.7,8.7,3.4c-0.3-0.1-0.5-0.3-0.8-0.4c1.2,0.7,2.8,1.6,4.3,2.8c1.5,1.1,2.8,2.5,3.8,3.6
							c0.7,0.6,1.6,2.1,1.1,1.1c1.3,1.9,2.1,4.1,2.2,6.3c0.1,1.1-0.1,2.2-0.2,3.2c-0.2,1.1-0.5,2.1-1,3.1c-1.8,3.9-4.3,7.4-7.4,10.2
							c0.7-0.7,1.6-1.8,1-1.2c-1.6,1.7-3.3,3.3-5.1,4.8c0.5-0.3,0.8-0.5,2-1.4c-0.6,0.6-2.1,2-3.6,3c2.5-2-0.1-0.1-1.3,0.6
							c0.2-0.1-0.2,0.2,0,0.2c-1.6,1-1.7,1.1-1.9,1.3c-0.2,0.2-0.6,0.6-2.8,1.8l0.2-0.2c-1.6,1-3.1,1.9-4.9,2.8
							c-0.8,0.3,1.8-1,1.8-1.2c-2.5,1.4-4.9,2.8-7.4,3.6c1.1-0.5,2.7-1.2,3.8-1.7c-1.3,0.5-2,0.8-2.7,1.1c-0.6,0.3-1.2,0.5-2.2,0.9
							l0.2-0.1c-1.5,0.6-3.1,1.1-4.6,1.5l1.2-0.3c-3.3,1.4-7,2.1-11.7,3.1c4.6-1.1,0.7-0.3,1.1-0.5c-1.2,0.2-3.1,0.4-2.6,0.3
							c-2.2,0.5-3.8,0.5-7,1c-0.1,0-2.4,0.2-1.9,0.1c-3,0.3,0.7,0,0.5,0.1c-4.5,0.7-10.7,0.4-17.3,0c-5.7-0.4-6.7-0.4-12-1.1
							c-1.8-0.3,1.5,0,1.5,0c-2.8-0.5-5-0.8-7.7-1.1c0.5,0,0-0.1-0.8-0.3c-2.1-0.3-1.5,0-4.3-0.6c0.5,0,1.1,0.1,2.2,0.2
							c-2.5-0.4-5-0.7-7.6-1.3c-0.7-0.2,1.6,0.2,2.5,0.3c-1.5-0.3-3.3-0.7-5-1c-1.6-0.4-3-0.8-3.4-0.8c0.6,0.2,1.2,0.4,1.8,0.6
							c-1-0.3-0.5-0.3,0.3-0.1c2.5,0.6,3.6,0.9,3.7,1l-1.8-0.4c1.8,0.8,7.4,1.6,11.2,2.1l-1.6,0l3.9,0.4c0.8,0.2,1.4,0.4-0.5,0.1
							c2.7,0.5,2.4,0.3,4.7,0.7c0.3,0.1,0.1,0-0.1,0l2.6,0.3c-0.5,0,0.4,0.2-1.2-0.1c4.7,0.8,7.7,0.8,9.4,1.2l-0.4,0
							c6.6,0.5,0.7-0.1,5.6,0.1c1.1,0.2,2.2,0.4,3.3,0.5l0.7-0.1c0.7,0,2,0,1.8,0.1c2.6-0.1-0.4-0.1,1-0.2c1.6,0.1,3.9,0,5.9-0.2
							c1.9-0.2,3.6-0.3,4-0.3c1.2-0.2-3.1,0.2,0.3-0.2c1,0.1,4-0.5,7-0.9c-0.9,0.3-3.7,0.7-0.7,0.3c1.8-0.5,5.8-1,8.2-1.7
							c0-0.1,1.4-0.5,3.2-1c1.8-0.6,4.1-1.3,6.1-2.2c-0.1,0.1,1.8-0.6,4.1-1.7c2.3-1.1,5-2.6,6.7-3.6l-0.1,0.1
							c0.6-0.5,4.1-2.7,6.4-4.6c0,0.2-0.4,0.5-1.7,1.5c0.8-0.6,1.5-1.1,2.2-1.7c0.5-0.5,1.2-1,2.5-2.3c-0.1,0.2-0.3,0.4-0.4,0.6
							c2.8-2.5,5.3-5.4,8-9.4c0-0.1-0.6,0.6-0.8,0.9c-0.3,0.2-0.2,0,1.1-2.2c0.1-0.1,0.4-0.2-0.3,0.9c0.1-0.2,0.3-0.5,0.5-0.9
							c0.2-0.4,0.4-0.8,0.7-1.2c-0.3,0.6-0.6,1.2-0.9,1.8c0.6-0.9,0.7-1.2,0.8-1.4c0.1-0.2,0.2-0.4,0.5-1.2c0,0,0.2-0.3,0.3-0.5
							c0.1-0.3,0.2-0.5,0.2-0.4c-0.1,0.4-0.6,1.4-0.9,2c0.5-0.9,0.9-1.9,1.2-2.8c0.3-0.9,0.5-1.7,0.6-2.1c0,0.1-0.1,0.1-0.1-0.1
							c0-0.2,0.1-0.6,0.1-1.4c0-1.9-0.1-2.2-0.1-2.4c0-0.1,0.1-0.1-0.1-1.2c-0.1-0.4-0.4-1.2-0.7-1.9c-0.3-0.7-0.6-1.2-0.7-1.2
							c-0.5-1-0.7-1.1-0.9-1.5c-0.6-0.8-2.1-2.5-3.5-3.6c-1.3-1.1-2.4-1.8-1.6-1.1l0.4,0.3c-0.1-0.1-0.2-0.1-0.3-0.2c0,0,0,0,0,0
							l0,0c-2.6-1.9-5.5-3.4-8.6-4.6c-3.1-1.2-6.2-2-9.3-2.7l0,0c-1.8-0.4-3.9-0.7-5.8-1c-1.9-0.3-3.7-0.4-5.1-0.5
							c-1.1-0.1-2.6-0.3-2.1-0.3c-2.9-0.1-3.2-0.1-7.3-0.1c2.9-0.1-1-0.1,3-0.1c-3.7,0-4.6-0.1-8.6,0.4c1.3-0.2-2.8,0.1-4.6,0.4
							c0.9-0.1,1.7-0.2,2.6-0.2c-2,0.2-3.7,0.4-5.5,0.7l0.9-0.3c-7.6,0.9-13.4,3.3-18.8,5.3c-0.9,0.5,0.1,0.1,1-0.3
							c1-0.4,2-0.8,1.2-0.4c-3.3,1.3-6.6,2.8-7.6,3.2c-4.3,2.1-3.9,2.2-8.4,4.5c0.6-0.2,1.2-0.4-2.1,1.4c-3.1,1.6-4,1.7-2,0.7
							c0.7-0.4,1.1-0.6,1.1-0.5c1-0.5,2.3-1.2,1-0.7l-0.4,0.3c-1.6,0.7-5.9,2.9-4.9,2.3c-2.3,1.2-1,0.6,0.8-0.3
							c-4.1,1.9-6.3,3.1-10.5,4.9c0.7-0.3,1.3-0.5,0.7-0.2c-6.2,2.6-2.7,1.3-6.9,3.1c-2.5,0.9,0.8-0.5-3.5,1.3
							c-2.6,1-0.6,0.1,0.4-0.4c-3.9,1.7-7.4,2.8-9.6,3.6l2.1-0.8c-1.2,0.5-2.3,0.9-3.3,1.2l1.2-0.3c-1.2,0.4-2.3,0.8-2.3,0.7
							c-1.2,0.5,1-0.2-1.4,0.8c-1.7,0.5-5,1.8-5.6,1.8c5.2-1.7-0.6,0,3.7-1.5c-0.8,0.3-1.9,0.7-3.1,1.1c-0.2,0,0.2-0.1,0.5-0.2
							c-5,1.5-2.2,0.9-7.4,2.6c0.6-0.3-1.2,0.2-2.1,0.5c2.1-0.6,1-0.2-0.9,0.5c-3.3,0.9-3.6,1.1-5.4,1.6l2-0.5
							c-0.7,0.3-2.3,0.7-4.7,1.4c-0.2,0,2.1-0.6,1.3-0.4c-2.5,0.9-5.9,1.4-9.5,2.3c-1.7,0.3-0.2-0.1-1.7,0.1
							c-4.1,0.9-4.5,0.7-8.8,1.5c1.3-0.1,1.5-0.1-1.6,0.4c2.4-0.4,4.8-0.8,7.1-1.2c-1.5,0.4-3,0.6-4.6,0.9c1.1-0.2,2.2-0.4,3.2-0.6
							c1-0.2,1.9-0.4,2.6-0.5c-2.2,0.5-1.9,0.4-0.9,0.3c-3,0.4-5.8,1.1-9.3,1.4l0.1-0.3c-5.2,0.5-9.2,1.2-15.9,1.4l2.2,0
							c-0.9,0.2-4.2,0.2-6.4,0.3c0.2-0.1-1.2-0.1-2.1-0.2c0.1,0.1-4.9,0-5.6,0.2c-1,0-2-0.1-3-0.2c-5.4-0.2-6.2,0.2-11.5-0.4
							c1.6,0-0.8-0.2,2.7,0c-1.7-0.1-3.3-0.3-3.3-0.3c-1-0.1-4.8-0.5-6.4-0.9c-0.7-0.1-1,0-2.9-0.5c-0.2-0.1,0,0,0,0
							c0,0.1-3-0.7-1.4-0.1c-1.3-0.4-2.8-0.9-4.5-1.4c-1.6-0.6-3.4-1.2-5-2c-3.3-1.6-5.9-4.1-7.2-6c-2.4-2.9-4.2-7.3-4.7-10.6
							c0.1,0.2,0.1,0,0.1,0.6c-0.2-1.1-0.2-1.9-0.1-2.5c0-0.6,0.1-0.9,0.2-1.3c0.1-0.4,0.2-0.8,0.5-1.4c0.3-0.6,0.8-1.3,1.9-2.1
							c0.6-0.4,0.8-0.4,0.7-0.3c-0.1,0.1-0.4,0.3-0.8,0.5c-0.7,0.5-1.3,1.2-0.7,0.6c0.4-0.1,1.5-1.2,3.4-1.7c1.9-0.6,4.2-1,6-1.1
							l-0.9,0.1c1.4-0.1,3.1-0.3,5-0.2c1.9,0.1,4.1,0.3,6.3,0.7c0,0-0.2,0,0,0c1.6,0.2,3.8,0.5,6.2,1c2.4,0.5,4.9,1.2,7,1.8
							c-1.4-0.3-1.9-0.5-1.2-0.1c1.9,0.5-0.5-0.4,3.3,0.7c1.2,0.4,3.9,1.4,4.2,1.6l-3.5-1.1c1.8,0.7,4.6,1.5,6.4,2.1l-0.3,0
							c5.4,1.8,5.5,1.7,11.4,3.6l-0.6-0.2c3.3,0.8,2.6,1,5.9,1.8l0.9,0.5c2.1,0.6,7.5,2,11.3,3c-2.2-0.5-6.7-1.6-9.5-2.4
							c2.1,0.6,7.2,2.1,8.3,2.3c-0.9-0.2-1.9-0.5-2.8-0.7c1.3,0.3,2.8,0.7,4.5,1.1c1.7,0.4,3.7,0.7,5.9,1c-0.4,0.2,2.4,0.5,5.7,0.9
							l0.4,0.1l0.2,0c0.1,0,0.2,0,0.2-0.1l0.5-0.7l0.5-0.8c0.1-0.1,0.2-0.3,0.2-0.4l-0.4-0.2c-0.5-0.2-0.9-0.4-1.4-0.7
							c-0.4-0.2-0.7-0.4-1-0.6c-1.3-0.9-2.3-1.7-2.9-2.3c-3.2-2.2-6.2-4.5-9.5-6.8c-3.3-2.2-6.9-4.4-10.9-6.6c2.7,1.8-2.3-1.2-2-0.7
							c-1.9-0.9-2.6-1.3-2.8-1.4l-2.9-1.4l-2.9-1.3c-1.4-0.7,1.9,0.7,1.7,0.6c-2.1-0.9-2.6-1.1-2.8-1.3c-0.3-0.1-0.3-0.2-1.7-0.8
							c0.3,0.2-0.1,0.1-0.9-0.2c-0.8-0.2-1.9-0.6-3.2-1.1l3.5,1.3c-1.5-0.5-2.6-0.9-3.5-1.2c-0.9-0.3-1.5-0.5-2.2-0.7
							c-1.3-0.5-2.7-0.9-5.9-1.6c0.7,0.1,1.4,0.2,2,0.4c-1.6-0.4-4.6-1-7.7-1.5c-1.5-0.2-3.1-0.4-4.4-0.5c-1.4-0.1-2.5-0.1-3.3-0.1
							c-0.6-0.1-1.4-0.2,0.1-0.1c-8-0.5-17.8,0.5-23.8,1.9l0.6-0.2c-1.5,0.4-2.5,0.7-4.3,1.2c0.1-0.1,0.6-0.2-0.1,0
							c-0.8,0.2-3.7,1.4-5.5,2.2l1.5-0.7c-3.6,1.5-6.3,3-8.5,4.8c-2.2,1.9-3.8,4.2-5.2,7.1c-0.1-0.1-0.9,1.3-1.3,3.3
							c-0.2,1-0.3,2.1-0.1,3.2c0.1,0.5,0.2,1,0.3,1.5c0.1,0.5,0.2,0.9,0.3,1.3l-0.1-0.1c1.3,4.4,3.1,7.9,5.4,11
							c1.1,1.5,2.4,2.9,3.8,4.3c1.4,1.3,2.9,2.6,4.6,3.8c2,1.7,5.8,4.1,10.3,5.9c4.5,1.8,9.6,3,13.8,3.6c-1.3-0.2,0.2-0.1,1.7,0
							c1.9,0.3,5.4,0.3,5.1,0.5l-0.7-0.1c0.7,0.1,2.1,0.3,3.7,0.4c1.6,0.1,3.4,0.1,5,0.1l0.5-0.3c4.1,0.2,9.5,0,14.4-0.4
							c4.9-0.4,9.3-1,11.5-1.2c2-0.3,4.4-0.7,6.3-1.1l-0.1,0.2c5.4-0.9,8.1-1.4,14.7-2.8l-1.3,0.4c3.7-0.8,4.6-1.4,8.1-2.3l1.1,0
							c6.5-1.6,13.1-3.1,19.4-5c-0.1,0.1-0.3,0.2-1.3,0.5c3-0.8,11.7-3.1,10.6-3.1c0.1,0.1,1.7-0.4,3.8-1c2.1-0.6,4.6-1.4,6.3-1.9
							l-0.5,0.3c2.9-1,3-1.1,7-2.3c1-0.3,0.9-0.1-0.4,0.2c3.2-0.8,2.5-0.8,6.4-1.8l-1.4,0.5c3.3-0.9,3-0.9,4.9-1.5
							c2.1-0.6,6.3-1.6,6.9-1.7c0.4-0.2,2.2-0.8,4.2-1.3c0.3,0-0.4,0.2-0.8,0.3c5.6-1.4,8.2-2.3,12.1-3.2c0.1,0,0.3,0,0.7-0.1
							c-4.4,1.1-7.3,1.9-7.7,2c0,0.1,3.6-0.8,0.8,0.1c2.8-0.9,7.7-2.3,11.2-3.2c0.2,0,0.3-0.1,0.5-0.1l-0.4,0.1
							c0.8-0.2,1.5-0.4,2.2-0.6c1.1-0.3,1.8-0.5,2.9-0.7c0.4,0,4.1-1,5.9-1.5c-0.2-0.1,2.2-0.7-0.1-0.2c0.3-0.1-0.3,0.1-1.5,0.4
							c-0.3,0.1-0.6,0.2-0.8,0.2c0,0,0.1,0,0.1,0c-1.2,0.3-2.7,0.7-4.4,1.2c1.4-0.4,2.8-0.9,4.8-1.3c0.9-0.3,1.9-0.7,2.4-0.9
							c2.5-0.5,7.2-1.6,7.9-1.6c2.7-0.7,5.9-1.5,8.9-2.1c3-0.6,5.7-1,7.5-1.3c1.6-0.2,1.8-0.1,2.4-0.1c-0.9,0.1-2,0.2-2.5,0.3
							c1.6-0.2,3.9-0.4,6-0.4c2.1-0.1,3.8,0,4.2-0.1c4,0.4-2.2-0.1,3.2,0.5l-0.7,0c2.7,0.4,5.1,0.9,7.3,1.5c1.1,0.3,2.3,0.6,3.2,1.1
							c1,0.5,1.8,1.1,2.4,2.1c1.2,1.8,0.9,4.4-0.2,6.6c-1.1,2.2-2.7,4.4-4.8,6.5c0.6-0.6,0.9-0.9,1-1c-2.3,2.5-5,4.7-8,6.5
							c-3,1.8-6.2,3.2-9.6,4.4c-6.7,2.3-13.6,3.7-20.4,4.4c-3.8,0.3-4.2,0.5-6.6,0.7l-0.8-0.1c-1.3,0.1-2.7,0.2-4,0.3
							c-5.7,0.2-9.9-0.3-17.1-0.5l0.9,0.2c-2.6-0.2-8.2-0.6-7.8-0.7c-0.3,0-0.9,0-1.9-0.2l-0.1-0.1c-2.1-0.2-4.2-0.5-6.3-0.7
							c-4.9-0.9,0.8-0.1-6.3-1.5c-0.6-0.1-1.5-0.3-2.3-0.4c-0.8-0.1-1.7-0.1-2.4-0.2c-1.5-0.1-2.4-0.1-1.9,0
							c1.1,0.1,2.8,0.3,2.8,0.4l-2.5-0.2c-0.5,0.2-2.3,0.2,3.6,1c1.4,0.1,2.7,0.4,4.1,0.6l1.3,0.4c-1.2-0.2-2.3-0.4-3.5-0.7
							c2,0.5,3.2,0.6,4.6,0.8c0.3,0.1,0.9,0.3,1.7,0.4c1.4,0.1,2.8,0.3,4.1,0.4c0.5,0.2-1.9-0.1,0.9,0.4c1.9,0.1-1.8-0.4,1.4-0.1
							c2,0.4,1.4,0.4,3.8,0.5c0.3,0.1-0.2,0.1-1.1,0c2.1,0.2,5.6,0.5,6.7,0.4c2.1,0.3,7.1,0.3,6.9,0.5c0.7,0,3.7-0.1,5.6-0.1
							c-1.8,0.1,0,0.1,2.2,0.1c2.1,0,4.6-0.1,4.1,0.1c1.3-0.2,3.7-0.3,6.3-0.5c2.6-0.2,5.5-0.5,7.8-1c-0.3,0.1-0.8,0.2-1.2,0.2
							c2.6-0.3,3.4-0.4,5-0.7c0.3-0.2,4.3-1.1,6.4-1.8c3.1-0.6-1.8,0.7-0.8,0.6c-0.1-0.1,1.2-0.4,2.5-0.8c1.2-0.4,2.3-0.8,1.8-0.7
							c2.4-0.6,2-0.6,3.3-0.8c0.3-0.4,2.2-0.8,4-1.8c1.7-0.7,1.9-0.7,2.1-0.8c0.3-0.1,0.6-0.2,2.3-1.2c0.8-0.4,0.5-0.2,0,0.1
							C242.1,225.8,241.3,226.2,241.3,226.2z M192.4,208.6L192.4,208.6c0.8-0.2,1.4-0.4,1.8-0.5
							C193.8,208.2,193.3,208.3,192.4,208.6z M184.9,210.5c0.9-0.2,2-0.5,3.3-0.9c0.3,0,0,0.1-0.8,0.3
							C187.8,209.8,186,210.3,184.9,210.5z M201,207.3c-1.2,0.3-1.6,0.4-1.8,0.4c0.6-0.2,1.2-0.3,2.1-0.6c0,0,0.1,0,0.1-0.1
							C201.3,207.2,201.2,207.2,201,207.3z"/>
						<path class="st1" d="M203.1,206.6c0.2,0,0.3-0.1,0.5-0.1c-0.2,0.1-0.5,0.1-0.7,0.2c-0.1,0.1-0.3,0.1-0.4,0.2
							C202.6,206.7,202.9,206.6,203.1,206.6z"/>
						<path class="st1" d="M270.2,193.9l-0.1-0.1c0.1,0.1,0.2,0.2,0.3,0.2C270.2,194,270.2,194,270.2,193.9z"/>
						<polygon class="st1" points="81.1,235.9 81.1,235.9 81.8,235.8 						"/>
						<path class="st1" d="M261.6,228c-0.1,0-0.2,0.1-0.5,0.3C261.1,228.2,261.3,228.1,261.6,228z"/>
						<path class="st1" d="M245.4,236.6c-0.8,0.3-1.6,0.6-2.5,0.8C244,237.1,244.8,236.8,245.4,236.6z"/>
						<path class="st1" d="M231.8,240.3c-0.2,0.1-0.2,0.1-0.3,0.1c0,0,0,0,0,0L231.8,240.3z"/>
						<path class="st1" d="M128.8,222c-0.2,0.1-0.4,0.1-0.5,0.2C127.1,222.6,127.9,222.3,128.8,222z"/>
						<path class="st1" d="M190.9,196.8c-0.6,0.3-1.2,0.7-1.9,1C190.1,197.3,190.9,196.9,190.9,196.8z"/>
						<path class="st1" d="M54.4,227.6C54.4,227.6,54.4,227.6,54.4,227.6c-0.2,0-0.3-0.1-0.5-0.1L54.4,227.6z"/>
						<path class="st1" d="M186.2,199.3c1.1-0.5,2-1,2.8-1.4C188.1,198.3,187.1,198.8,186.2,199.3z"/>
						<path class="st1" d="M171.1,236.6l-0.7-0.2c0,0,0,0-0.1,0L171.1,236.6z"/>
						<path class="st1" d="M170.4,236.5l-0.7-0.2C170,236.4,170.3,236.4,170.4,236.5z"/>
						<path class="st1" d="M168.1,235.8l1.5,0.4C169.1,236.1,168.5,235.9,168.1,235.8z"/>
						<path class="st1" d="M189.5,240.1l0.2,0C189.6,240.1,189.5,240.1,189.5,240.1z"/>
						<path class="st1" d="M195.1,240.9c-1.3-0.2-3.4-0.6-5.2-0.8l-0.2,0C190.6,240.1,193.9,240.8,195.1,240.9z"/>
						<path class="st1" d="M218.8,242.6c-1.6,0.1-3.2,0.2-4.8,0.2c0.8,0,1.9,0.1-0.2,0.1c3,0,2.7-0.1,2.4-0.1
							C216,242.8,215.7,242.8,218.8,242.6z"/>
						<path class="st1" d="M233.6,240.6c-2.5,0.5,0,0.1-0.1,0.1C235.1,240.4,235.5,240.3,233.6,240.6z"/>
						<path class="st1" d="M238.3,184.8l0.3-0.1C236.6,184.6,238.6,184.7,238.3,184.8z"/>
						<path class="st1" d="M218,186.8l1.9-0.2l0.9-0.2C219.8,186.4,218.9,186.6,218,186.8z"/>
						<path class="st1" d="M206,188.9l0.8-0.3c-1,0.4-2.1,0.8-3.1,1.2C204.5,189.5,205.3,189.2,206,188.9z"/>
						<path class="st1" d="M35.6,219.1l0.4,0.5c0.5,0.4,0.9,0.6,0.9,0.5C36.8,220,36.5,219.7,35.6,219.1z"/>
						<path class="st1" d="M82.4,207.2c0.8,0.3,2.9,1,4.2,1.4C84.9,208,83.2,207.4,82.4,207.2z"/>
						<path class="st1" d="M60.7,238.8c-0.5,0-1,0.1-1.6,0.1c1,0,2-0.1,3-0.1L60.7,238.8z"/>
					</g>
				</g>
			</g>
		</g>
	</g>
	<g>
		<path class="st0" d="M134.3,211.2c-0.6-1-1.4-1.9-1.7-3c-4-12-8.1-23.9-11.8-35.9c-4.9-15.7-8.8-31.7-11.5-47.9
			c-2.1-12.2-2.9-24.4-1.6-36.8c0.6-5.8,2.4-11.4,5.4-16.4c3.2-5.2,7.9-8.7,13.7-10.5c7.1-2.2,14.4-2.8,21.6-1.5
			c10.2,1.8,16.7,8.2,20.1,17.8c3.6,10.3,3.8,21.1,3.2,31.8c-1.1,17.6-4.7,34.8-9.3,51.7c-3.6,13.4-8.8,26.1-15.7,38.2
			c-1.2,2.1-2.9,2.7-4.9,2.2c-2-0.4-2.3-2.3-2.1-3.9c0.2-2.4,0.6-4.8,1-7.2c3.1-17.2,6.5-34.3,9.2-51.6c1.7-10.7,2.6-21.6,3.4-32.5
			c0.4-5.9,0-11.9-0.4-17.8c-0.3-4-2.4-7.4-5.5-10.1c-4.3-3.7-9.3-3.6-13.3,0.3c-5.1,4.9-7.1,11.4-8.4,18
			c-2.2,11.6-1.9,23.3-1.1,34.9c0.9,12.7,2,25.3,3.6,37.9c1.8,13.7,4.3,27.2,6.5,40.8c0.1,0.4,0.1,0.7,0.1,1.1
			C134.7,211,134.5,211.1,134.3,211.2z"/>
		<g>
			<g>
				<g>
					<g>
						<path class="st1" d="M134.2,210.9c-0.1,0.1-0.2,0.1,0,0.1c0.1,0,0.1,0,0.2-0.1c0.1,0,0.1,0,0.2-0.1c0.1,0,0.2,0,0.1-0.1
							c-0.1-0.2-0.1-0.3-0.2-0.5l0.1,0.5C134.5,210.8,134.3,210.8,134.2,210.9z"/>
						<path class="st1" d="M134.1,205.5c-0.3-1-0.6-2.2-0.6-1.5c0.3,1,0.3,1.3,0.7,2.4c0.2,0.9,0.2,1.6,0.1,1.4
							c0.1,0.3,0.2,1.4,0.4,1.9c-0.1-1.2-0.3-2.7-0.7-4.2C133.9,205.1,134,205.5,134.1,205.5z"/>
						<path class="st1" d="M124.3,117.8l0,0.6C124.3,118.2,124.3,118,124.3,117.8z"/>
						<path class="st1" d="M145.6,76.9c-0.4-0.2-0.5-0.3-0.5-0.3C145.4,76.8,145.6,76.9,145.6,76.9z"/>
						<path class="st1" d="M151.3,83.8c-0.1-0.2-0.1-0.3-0.2-0.5C151.2,83.5,151.3,83.7,151.3,83.8z"/>
						<path class="st1" d="M124.3,117.8l0-1.5C124.3,116.3,124.3,117.1,124.3,117.8z"/>
						<path class="st1" d="M131.7,193.6c0.1,0.3,0.1,0.5,0.2,0.8C131.8,194.1,131.7,193.9,131.7,193.6
							C131.7,193.6,131.7,193.6,131.7,193.6z"/>
						<path class="st1" d="M125.8,141.9l0,0.4c0,0.1,0.1,0.2,0.1,0.4L125.8,141.9z"/>
						<path class="st1" d="M127.6,160.3c0-0.4-0.2-0.5-0.3-0.7c0.1,0.2,0.1,0.5,0.2,0.9C127.6,160.5,127.6,160.4,127.6,160.3z"/>
						<path class="st1" d="M131.5,189.4l0.1,0.5C131.6,189.8,131.6,189.5,131.5,189.4z"/>
						<path class="st1" d="M124.9,128.7c0,0,0-0.1,0-0.2C124.9,128.5,124.9,128.6,124.9,128.7z"/>
						<path class="st1" d="M127.6,190.9C127.6,190.9,127.6,190.9,127.6,190.9C127.6,191,127.6,191,127.6,190.9z"/>
						<path class="st1" d="M134.3,211.2l-0.2-0.2c0,0-0.1,0-0.1,0L134.3,211.2z"/>
						<path class="st1" d="M152.8,100.5C152.8,100.5,152.8,100.5,152.8,100.5C152.8,100,152.8,100.3,152.8,100.5z"/>
						<path class="st1" d="M164.7,153.6c-0.6,1.7,0.5-2.9-0.2-0.3C164.6,153.1,164.1,155.7,164.7,153.6z"/>
						<path class="st1" d="M131.6,193.1c0-0.2-0.1-0.5-0.1-0.7C131.5,192.7,131.6,192.9,131.6,193.1z"/>
						<path class="st1" d="M164.5,153.3L164.5,153.3l-0.1,0.3C164.5,153.4,164.5,153.4,164.5,153.3z"/>
						<path class="st1" d="M149,139.6c0-0.1,0.1-0.2,0.1-0.4C149.1,139.3,149.1,139.3,149,139.6z"/>
						<path class="st1" d="M152.5,110.5l-0.1,0.7C152.5,111,152.5,110.7,152.5,110.5z"/>
						<path class="st1" d="M146.7,154.7c-0.1,0.4-0.1,0.5-0.2,1c0,0,0-0.1,0-0.2C146.5,155.4,146.6,155.1,146.7,154.7z"/>
						<path class="st1" d="M143.8,170.3c0-0.1,0.1-0.2,0.1-0.3c0-0.2,0.1-0.3,0.1-0.5L143.8,170.3z"/>
						<path class="st1" d="M113.9,144.7c0,0.3,0,0.6,0,0.7C114,145.2,114.6,147.5,113.9,144.7z"/>
						<path class="st1" d="M131.7,193.6c-0.1-0.1-0.1-0.2-0.1-0.5C131.6,193.3,131.7,193.5,131.7,193.6
							C131.7,193.7,131.7,193.7,131.7,193.6z"/>
						<path class="st1" d="M147.6,155.5l-0.5,2.5C147.3,157.3,147.5,156.4,147.6,155.5z"/>
						<path class="st1" d="M147.3,59.5l-0.6-0.1C147,59.5,147.2,59.5,147.3,59.5z"/>
						<path class="st1" d="M145.8,165.4c-0.1,0.4-0.2,0.9-0.4,1.4c0,0.1,0,0.2,0,0.3L145.8,165.4z"/>
						<path class="st1" d="M114,145.5C114,145.5,114,145.5,114,145.5C114,145.5,114,145.5,114,145.5z"/>
						<path class="st1" d="M118.4,161.4c-0.6-2.3-0.5-1-0.7-1.5c-0.8-2.7-0.2-1.3-0.4-2.3c-0.5-1.7-1-3-1.3-4.3c0-0.1,0-0.4,0.1-0.1
							c-0.6-1.8-1.4-5.4-2-7.5c0-0.2,0-0.2,0-0.3c0,0.4-0.1,0.4-0.2,0.4c-0.2-1-0.6-1.9-0.5-2.3c0.1,0.6,0.2,0.7,0.3,1l-0.3-1.1
							c-0.1-1,0.4,1.5,0.5,1.5c-0.5-2.1-1.2-4.6-1.5-6.3c0.1-0.4,0.9,3.8,0.6,1.6l0.5,2.6c-0.2-2,0.3,1.5,0.2-0.3
							c-0.7-3.4-0.9-3.7-1.6-7.1c-0.2-0.7-0.1,0.3-0.3-0.5c-1.1-4.7-0.3-3.8-1.2-7.3c-0.3-0.9-0.5-1.2-0.9-3.7l0.3,0.8
							c-0.5-3.3-0.6-1.8-1-5.3c0.2,0.6,0.4,2.6,0.4,2.1c-0.2-2.2-0.3-1.6-0.6-3.3l0.1-0.4c-0.5-3.5-1-7.3-1.3-11.2
							c0.1,0.2,0.2,0.9,0.2,0c-0.4-4.9-0.2-10.5,0.2-15.2c0-0.6,0-1.2,0-1.8c0-0.4,0.1-0.8,0.1-0.3c0.2-1.8-0.1-0.1-0.1-1
							c0.1-1.1,0.2-1.4,0.2-0.7c0.1-1.6,0.4-3.9,1-6.2c0.6-2.3,1.4-4.5,2.2-6l-0.2,0.6c0.6-1.2,0.8-1.9,1.1-2.6
							c0.3-0.7,0.6-1.3,1.3-2.3c-0.1,0.1-0.2,0.3-0.2,0.4c1.5-2.4,3.5-4.7,5.8-6.5c2.3-1.7,4.7-2.9,6.8-3.5c0.4-0.2,1.7-0.7,3.1-1
							c1.3-0.3,2.6-0.6,2.8-0.8c1.6-0.2,2.2-0.3,3-0.3c0.8,0,1.7-0.2,4-0.2c1.2,0,1.8-0.2,3.4-0.2l0,0.2c0.7,0,1.4,0,2.1-0.1
							l1.1,0.3c0.5,0,1,0.1,1.4,0.1c-0.6-0.1-1.2-0.2-1.1-0.3c2.3,0.1,5.4,1.1,5.4,1.2c1.7,0.4,3.4,1,4.9,1.8
							c-0.1,0-0.9-0.4-1.6-0.6c1.3,0.5,1.4,0.6,1.5,0.7c0.1,0.1,0.1,0.1,1.2,0.7c-0.3-0.2,0.2,0,0.3,0c0.5,0.4,1.4,1,2.3,1.7
							c0.9,0.7,1.8,1.6,2.5,2.4l-0.4-0.2c2.6,2.8,4.8,6.6,6.2,10.8c-0.5-1.5-0.2-1.2,0.3,0l0,0.5c0.4,0.8-0.4-1.3,0.3,0.3
							c0.5,1.6,0.2,1.1-0.2,0.2c0.2,0.6,0.4,1.3,0.6,1.9c0,0.1-0.2-0.3-0.3-0.4c0.4,0.8,0.7,3.4,1.1,4.5l0,0.1c0.8,4.3,1,6.4,1.3,10
							c0.1,0.1,0.2,1.5,0.3,2.6c0,2.7-0.1,5.6-0.3,8.8c0,2.3,0.1,0.7,0.1,1.7c-0.1,0.2-0.3,3.4-0.3,1.7c-0.2,3.9-0.3,4.9-0.8,9.8
							c0.1-0.5,0.2-1.1,0.2-0.8c-0.1,0.9-0.3,2-0.3,1.9l0-0.2c-0.4,5.5-2.2,12.5-2.8,16.8l0-0.2c-0.2,1.5-0.5,3-0.8,4.5
							c-0.5,2,0.2-1.2-0.2,0.2c-0.8,4.8-1.7,7.5-2.6,11.5c-1.1,2.9-2.7,10.7-4.3,14.6l0.2-0.2c-0.2,1.1-0.5,1.2-0.7,2
							c0.1-0.1,0.4-1.1,0.3-0.4c-2.8,8.8-6.8,17.7-11.4,26c-0.8,1.5-1,2-1.2,2.6c-0.1,0.3-0.2,0.6-0.5,1.1c-0.2,0.4-0.6,1-1.4,1.5
							c0.3-0.2,0.5-0.5,0.7-0.8c-0.5,0.6-1.1,1-1.8,1.1c-0.4,0.1-0.7,0.1-1.1,0.1c-0.4,0-0.8-0.1-1.1-0.2c-0.6-0.2-1-0.8-1.1-1.6
							c-0.1-0.8,0-1.6,0-2.5c0.4-3.5,1.1-6.9,1.6-10.3c0,0.4,0,0.4-0.1,1.1c0.2-0.7,0.4-2,0.6-3.2c0.2-1.1,0.3-2.1,0.3-2.1
							c0.2-1,0.1-0.2,0.3-0.9c0.3-1.4,0.5-3.6,0.8-4.3c0-0.1,0,0.4-0.1,0.7c0.1-0.9,0.8-4.3,0.5-3.5c0.5-2.5,0.8-4.8,1.3-6.8
							c0.1-1.3,0.9-4.3,0.7-4.8c0.2,0.2,1-4.4,1.2-6c0,0.5,0.3-1.4,0.3-0.7c0.3-1.8,0.6-3.5,0.4-3.2c0.9-3.3,1-6.8,1.6-8.6
							c0.8-5.4,1.5-10.5,2-15.4c0.2,0.2-0.7,5.4-0.4,5.3c0.5-4.7,0.6-7.4,1.2-12c0.1-1.2,0,0.7,0,1.1c0.4-4.7,0.9-9,1-13.2
							c0,0,0,0.5,0,0.9c0.1-0.8,0.2-1.9,0.1-1.8l0,0.8c-0.2,1.3-0.1-3.3-0.1-3.4c0.1,0.7,0.2-0.3,0.3-1.2c0.1-0.9,0.1-1.8,0.3-0.6
							c0-0.5,0-1.2-0.1-1.1c0-0.8,0.1-1.1,0.1-0.2c0-3-0.1-1.9-0.2-4.6c0.1,0,0.1,0.5,0.1,0.8c-0.1-1.4-0.3-2.7-0.3-5
							c0,0.1,0.1-0.1,0.1,0.5c-0.1-1.9-0.3-3.6-0.5-5.3c-0.1-1.7-0.4-3.5-1.3-5.5c0.3,0.5,0.2,0.2,0-0.3c-0.2-0.5-0.6-1.2-0.6-1.3
							c-0.4-0.7-0.9-1.3-1.4-1.9c0.2,0.3,0.3,0.5,0.5,0.8c-1.2-1.7-2.6-2.8-4-3.9c0.4,0.3,0.8,0.6,1.2,0.9c-1-0.8-2.1-1.6-3.3-2.1
							c0.3,0.2,0.7,0.3,1,0.5c0.3,0.2,0.6,0.4,0.9,0.6c-0.9-0.5-0.9-0.4-0.9-0.4c-0.1,0-0.1-0.1-1.3-0.6c0.3,0.1-0.2-0.1-0.9-0.3
							c-0.7-0.2-1.6-0.4-2.1-0.4l0,0c-1,0-2,0.2-3.5,0.7c-0.4,0.1,0.2-0.3,0-0.3c-0.5,0.2-1.5,0.8-2.5,1.5c-1,0.7-1.8,1.7-2.2,2.2
							c0.2-0.3,0.2-0.4,0.1-0.3c-0.2,0.2-0.3,0.5-0.5,0.7c-0.7,0.7-0.7,0.8-0.7,0.6c-0.9,1.1-0.7,1-0.6,0.9c0.1-0.1,0.2-0.2-0.8,1.2
							c0.1-0.2,0-0.1,0.3-0.6c-2,2.8-3,5.7-4,8.6c-0.5,0.8,0.8-2.6,0.3-1.6c-1.4,4.2-2.1,8.9-2.6,13.2l0.1-0.8
							c0.2,0.6-0.5,3.1-0.6,5.3c0-0.5-0.1-0.7-0.1-0.6c-0.3,2.9-0.3,6-0.2,10.4l-0.1-0.5c-0.1,1.7,0,4.5,0.1,6.4
							c0.1,0.5,0.1,1.6,0.2,1c-0.1,5.7,0.9,10.9,0.9,16c0-0.6-0.2-1.4-0.1-1l0.4,4.3c0.1-0.4,0-0.6,0-1.5c0.1,0.5,0.3,1.8,0.4,2.8
							c-0.2-1.9-0.2,0-0.2,0.9c0-0.1,0.1,0.1,0.1,0.1c0,2.3,0.3,0.4,0.4,3.4l-0.1-0.2c0.1,1.1,0.3,2.2,0.4,3.4
							c-0.1,0.5-0.2-1.2-0.3-1.3c0.2,1.7,0.6,3.4,0.6,5c-0.1-0.7-0.2-1.8-0.3-2.5c0,1.7,0.1,1.9,0.2,3.2l0-0.1l0.2,3l0-0.8
							c0.6,2.1,0.5,4.4,1.1,7.3c-0.6-2.8-0.2-0.5-0.4-0.7c0.1,0.8,0.1,1.9,0.1,1.6c0.3,1.4,0.2,2.3,0.6,4.3c0,0.1,0.2,1.5,0,1.2
							c0.3,1.8,0-0.4,0.1-0.3c0.5,2.7,0.7,6.5,1.6,10.5c0.6,3.4,0.9,4,1.5,7.2c0.1,1.1-0.3-0.8-0.3-0.8c0.2,1.7,0.4,3,0.8,4.7
							c-0.1-0.3-0.1,0,0,0.5c0.2,1.3,0.3,0.8,0.5,2.6c-0.1-0.3-0.3-0.7-0.4-1.3c0.3,1.5,0.6,3,1,4.6c0,0.4-0.3-0.9-0.4-1.5
							c0.3,1.8,0.9,4.6,1.1,5.2l-0.1-1.2c0.1,0.7-0.1,0.4-0.2-0.1c-0.4-1.5-0.3-2.2-0.3-2.3l0.2,1.1c0.1-1.2-0.8-4.5-1.2-6.8
							l0.4,0.9l-0.6-2.3c0-0.5,0-0.9,0.2,0.3c-0.2-1.7-0.3-1.4-0.4-2.9c0-0.2,0-0.1,0,0.1l-0.3-1.6c0.1,0.3,0.1-0.3,0.2,0.7
							c-0.4-2.9-0.9-4.6-0.9-5.7l0.1,0.2c-0.7-4-0.2-0.4-0.9-3.3l0.1-2.1l-0.2-0.4c-0.1-0.4-0.2-1.2-0.1-1.1c-0.3-1.5,0,0.3-0.3-0.6
							c-0.2-2-0.8-5.5-0.7-5.9c-0.2-0.7,0.2,1.9-0.2-0.2c0.2-0.6-0.4-2.4-0.5-4.3c0.2,0.5,0.3,2.3,0.2,0.4c-0.4-1.1-0.4-3.5-0.6-5.1
							c-0.2-0.1-0.4-3.3-0.8-5.9c0.1,0.2-0.4-4.9-0.5-7.3l0,0.1c-0.2-0.4-0.4-2.9-0.6-4.7c0.1,0.1,0.2,0.4,0.3,1.4l-0.1-1.7
							c-0.1-0.4-0.2-0.9-0.3-2l0.2,0.4c-0.2-2.3-0.5-4.5-0.6-7.5c-0.1-0.2-0.2,2.3-0.5-0.7c0.1-0.1,0.2-0.2,0.3,0.6
							c0-0.3-0.1-0.9-0.1-1.5l0.2,1.2c0-1.3-0.1-0.7-0.2-1.7c0.1,0,0-0.8,0.1-0.6c0,0.3,0,0.9,0.1,1.3c-0.1-1.2-0.1-2.6-0.1-3.1
							c0,0.1-0.1,0-0.2-0.9c-0.1-2.3,0.1-0.8,0-2.1c-0.1-0.5-0.1-2-0.2-2c0-0.7,0-0.8,0.1-1c-0.1-1.2-0.2-5.5-0.3-4.1l0,0.3
							c0-0.1,0-0.1,0-0.2c0,0,0,0,0,0l0,0c-0.2-3.8,0.1-8,0.3-11.8l0,0c0.1-2.3,0.5-5,0.6-6.7c0.1-0.7,0.3-1.6,0.3-1.3
							c0.3-1.7,0.2-1.9,0.8-4.4c-0.3,1.7,0.2-0.6-0.3,1.8c0.5-2.2,0.7-2.7,1.1-5c-0.1,0.8,0.6-1.6,0.9-2.6c-0.2,0.5-0.4,1-0.6,1.5
							c0.3-1.1,0.7-2.1,1.1-3.1l-0.1,0.6c0.9-2.1,1.8-3.9,2.8-5.6c1-1.6,2.2-3,3.6-4c0.4-0.4-0.1,0-0.5,0.4
							c-0.5,0.4-0.9,0.9-0.6,0.4c0.7-0.8,1.6-1.4,2.4-1.8c0.8-0.4,1.4-0.6,1.7-0.7c1.3-0.4,1.9-0.5,2.6-0.6c0.6-0.1,1.4-0.2,2.8,0.2
							c-0.2-0.1-0.3-0.2-0.2-0.2c0.1,0,0.2,0,0.5,0.1c0.3,0.1,0.7,0.2,1.2,0.4c0.9,0.5,1.4,0.9,1.6,1.1c0.1,0.2-0.1,0.1-0.6-0.2
							c-0.4-0.3-0.6-0.4-0.6-0.4c-0.6-0.3-1.4-0.6-0.7-0.2l0.3,0.1c0.2,0.1,0.5,0.3,0.9,0.5c0.3,0.2,0.7,0.5,1,0.7
							c0.6,0.5,1,0.9,0.7,0.7c1.2,1,0.6,0.4-0.3-0.4c1,0.9,1.7,1.6,2.4,2.4c0.7,0.8,1.3,1.7,1.9,2.9c-0.2-0.4-0.3-0.8-0.1-0.4
							c0.4,0.9,0.6,1.5,0.8,1.8c0.1,0.4,0.2,0.5,0.3,0.7c0.1,0.3,0.2,0.4,0.5,1.7c0.1,1.6-0.2-0.6,0.1,2.2c0.1,1.7-0.1,0.4-0.2-0.3
							c0.3,2.5,0.3,4.8,0.3,6.2l-0.1-1.3c0.1,0.8,0.1,1.5,0.1,2.1l0.1-0.8c0,0.8,0,1.5,0,1.4c0.1,0.8,0.2-0.6,0.3,1
							c0,1.1,0.1,3.2-0.1,3.6c0.1-3.3-0.1,0.4-0.2-2.4c0,0.5,0,1.2,0,2c0,0.1,0-0.1,0-0.3c-0.2,3.2,0.2,1.5,0,4.7
							c-0.1-0.4-0.2,0.7-0.2,1.3c0.1-1.3,0.2-0.6,0.2,0.6c-0.2,2.1-0.1,2.3-0.2,3.4l0.1-1.3c0.1,0.4,0,1.5-0.1,3
							c-0.1,0.1,0.1-1.3,0-0.8c0,1.6-0.5,3.7-0.6,6c-0.2,1-0.2,0.1-0.3,1c-0.1,2.6-0.4,2.7-0.6,5.4c0.2-0.8,0.2-0.9,0.1,1l0.4-4.4
							l-0.1,2.8c0.1-1.3,0.2-2.8,0.3-3.6c0,1.4-0.1,1.2,0.1,0.6c-0.4,1.8-0.3,3.6-0.6,5.7l-0.3-0.1c-0.5,3.1-0.5,5.6-1.2,9.7
							l0.2-1.3c0,0.6-0.3,2.5-0.5,3.8c-0.1-0.1-0.2,0.7-0.4,1.2c0.1-0.1-0.5,3-0.4,3.4l-0.4,1.8c-0.6,3.3-0.4,3.8-0.9,6.9
							c0.1-1-0.3,0.5,0-1.7c-0.2,1.1-0.4,2-0.3,2c-0.2,0.6-0.4,2.9-0.6,3.9c0,0.5,0,0.6-0.2,1.8c0,0.1,0,0,0,0c0,0-0.3,1.9,0,0.8
							c-0.9,3.2-1.6,9-2.4,11.8c-0.4,2.3-0.9,5.1-1.3,7.1c0-0.1,0,0,0-0.4c-0.6,2.9,0,1.8-0.8,5.1c-0.5,1.6,0.2-1.7,0-0.7
							c-0.4,0.4-0.7,3.9-1.3,6.1l0.1-0.5c-0.4,1.7-0.7,4.1-1.1,6.9c0,0,0-0.1,0,0c-0.1,1-0.2,2.3-0.2,3.8c0,0.8,0.1,1.6,0.4,2.3
							c0.4,0.7,1.1,1.2,1.8,1.4c-0.9-0.1-1.2-0.6-0.8-0.1c0.6,0.3,0.6,0.2,0.6,0.1c0.1-0.1,0.3,0.1,1.5,0.1c0.4,0,1.1,0,1.6-0.2
							c0.6-0.2,1-0.5,1.2-0.5c-0.6,0.5-1.4,0.9-2.3,0.9c0.6,0,1.5-0.2,2.1-0.7c0.7-0.5,1.1-1.2,1.4-1.7l0,0.2
							c1.7-3.1,1.5-3.2,3.3-6.5l-0.2,0.3c0.8-1.9,0.9-1.5,1.6-3.4l0.4-0.5c0.5-1.2,1.8-4.4,2.8-6.6c-0.4,1.3-1.5,3.9-2.2,5.5
							c0.6-1.2,1.9-4.1,2.1-4.8c-0.2,0.5-0.4,1.1-0.7,1.6c0.5-1.6,1.3-3.6,2.3-6c0.1,0.3,0.8-1.3,1.5-3.2c0.7-1.9,1.5-4.1,2-5
							c1.4-4.5,2.9-8.9,4.2-14.2c-0.8,1.8,0.4-1.6,0-1.3c0.3-1.2,0.4-1.7,0.5-1.8l1.1-3.7c0.3-0.9-0.2,1.2-0.1,1.1
							c0.7-2.7,0.4-1.1,0.9-2.9c-0.2,0.3,0.1-1,0.5-2.5l-0.6,2.2c0.7-3.8,1-3.2,1.7-7.1l-0.2,1.2c0.4-2,1.5-7.3,1.6-9.3
							c0.1-0.3,0.3-0.8,0.1,0.1c0.9-4.8,1.4-10.7,2-14.4l0,0.4c0.1-0.9,0-1.6,0.2-2.7c0,0.1,0,0.4,0.1,0c0-0.5,0.1-2.4,0.2-3.6l0,1
							c0.5-4.7,0.3-7.2,0.3-11.2c0.2,0,0.3-3.7,0.3-5.6l0,0.1c-0.2-5.5-0.9-9.4-2.2-14.3c-0.2-1.6-0.9-4.2-2-6.9
							c-1.1-2.8-2.7-5.5-4.3-7.6c0.4,0.7-0.2,0-0.8-0.7c-0.7-1-2.5-2.3-2.2-2.3c0.1,0.1,0.2,0.2,0.3,0.3c-0.5-0.8-2.5-2.3-4.3-3.3
							l-0.4,0.1c-2.1-1.4-5.3-2.5-8.3-3c-3-0.5-5.7-0.5-7.1-0.7c-1.2,0-2.7,0.1-3.9,0.2l0.1-0.1c-3.4,0.3-5.1,0.5-9.1,1.6l0.8-0.3
							c-2.3,0.6-2.8,1.2-4.8,2l-0.7,0.1c-3.8,1.6-7.4,4.2-9.7,7.6c0-0.1,0-0.2,0.5-0.7c-0.6,0.7-1.8,2.3-2.5,3.6
							c-0.8,1.3-1.2,2.5-1,2.2c-0.1,0-0.6,0.9-1.1,2.2c-0.5,1.2-1,2.8-1.2,3.9l0-0.4c-0.3,1.9-0.4,1.9-0.8,4.5
							c-0.1,0.6-0.2,0.5,0-0.3c-0.4,2-0.2,1.6-0.5,4.1l0-0.9c-0.2,2.1-0.2,1.9-0.2,3.1c-0.1,1.3-0.3,4-0.4,4.3
							c0.1,0.3,0.1,1.4,0.1,2.7c-0.1,0.2-0.1-0.3-0.1-0.5c-0.2,3.5,0.1,5.2,0.1,7.6c0,0.1-0.1,0.2-0.1,0.4c-0.1-2.8-0.1-5-0.1-4.8
							c-0.1,0-0.1,2.3-0.3,0.5c0.1,1.8,0.4,4.9,0.5,7.1c0,0.1,0,0.2,0,0.3l0-0.2c0,0.5,0.1,1,0.1,1.4c0,0.7,0.1,1.1,0.1,1.8
							c-0.1,0.3,0.2,2.6,0.3,3.7c0.1-0.1,0.3,1.4,0.2,0c0,0.2,0-0.2-0.1-1c0-0.2,0-0.4-0.1-0.5c0,0,0,0,0,0.1
							c-0.1-0.7-0.2-1.7-0.3-2.8c0.1,0.9,0.3,1.8,0.3,3c0.1,0.6,0.3,1.2,0.4,1.5c0,1.6,0.3,4.5,0.2,4.9c0.6,3.4,1.4,8,2,10.1
							c0.2,1,0.1,1.1,0.2,1.5c-0.1-0.5-0.3-1.2-0.3-1.5c0.4,1.9,1.1,5.7,1.4,6.1c0.4,2.4-0.4-1.3,0.3,2l-0.1-0.4
							c1.1,6.6,2.8,10.4,4.2,17.7c-0.1-0.5-0.2-0.7-0.2-0.9c1.9,8.2,4.7,16.6,7.1,24.6c0.7,2.3,0.9,2.5,1.4,3.8l0,0.5l0.9,2.3
							c1.2,3.3,1.5,5.8,3.1,10l-0.1-0.6c0.5,1.5,1.6,4.7,1.4,4.5c0.1,0.1,0.3,0.5,0.4,1.1l-0.1,0.1l1.3,3.7c0.9,2.9-0.4-0.3,0.9,3.8
							c0.1,0.2,0.1,0.4,0.2,0.6c0.1,0.2,0.2,0.5,0.3,0.7c0.3,0.5,0.6,0.9,0.9,1.2c0.6,0.7,0.9,1.2,0.8,0.9c-0.3-0.6-0.9-1.4-0.8-1.5
							l0.9,1.2c0.2,0.1,0.5,0.3,0.5,0.1c0-0.1,0-0.3-0.2-0.7c-0.2-0.4-0.5-0.9-0.9-1.7c-0.4-0.6-0.6-1.5-1-2.3l-0.2-0.8l0.7,2
							c-0.3-1.2-0.6-1.9-0.9-2.7c0-0.2-0.1-0.6-0.2-1.1l-1-2.3c0-0.3,0.5,1,0-0.6c-0.5-1.1,0.2,1.1-0.5-0.7
							c-0.3-1.2-0.1-0.9-0.6-2.2c0-0.2,0.1,0.1,0.3,0.6c-0.5-1.2-1.1-3.2-1.4-3.8c-0.3-1.3-1.4-4.1-1.1-4c-0.2-0.4-0.9-2.1-1.2-3.2
							c0.9,2-1.4-4.2-0.9-3.7c-0.7-1.4-1.9-5.4-2.9-8c0.1,0.1,0.2,0.4,0.3,0.7c-0.5-1.5-0.6-2-0.8-2.9c-0.3-0.1-1.1-2.5-1.5-3.7
							c-0.4-1.9,0.6,1.1,0.6,0.4c-0.1,0.1-1.1-3.2-1.1-2.5c-0.3-1.5-0.3-1.2-0.4-2c-0.3-0.2-0.4-1.3-0.9-2.5
							c-0.5-2.1,0.1-0.6-0.6-2.8C117.8,159.4,118.4,161.4,118.4,161.4z M107.5,106.6L107.5,106.6c0,0.5,0.1,0.9,0.1,1.2
							C107.6,107.5,107.6,107.2,107.5,106.6z M107.4,101.9c0,0.6,0,1.3,0,2c0,0.2-0.1,0-0.1-0.5
							C107.3,103.7,107.3,102.6,107.4,101.9z M107,111.9c-0.1-0.7-0.1-1-0.1-1.1c0,0.4,0.1,0.8,0.1,1.3c0,0,0,0.1,0,0.1
							C107,112.1,107,112.1,107,111.9z"/>
						<path class="st1" d="M107.3,113.3c0,0.1,0,0.2,0,0.3c0-0.2,0-0.3,0-0.4c0-0.1,0-0.2-0.1-0.3
							C107.2,113,107.3,113.1,107.3,113.3z"/>
						<path class="st1" d="M124.3,118.5L124.3,118.5c0,0,0,0.1,0,0.1C124.3,118.5,124.3,118.5,124.3,118.5z"/>
						<polygon class="st1" points="142.2,59.1 142.1,59.1 141.7,59.1 						"/>
						<path class="st1" d="M125.4,144.4c0,0.1,0,0.1,0,0.3C125.4,144.8,125.4,144.6,125.4,144.4z"/>
						<path class="st1" d="M126.4,155.6l0.1,1.6C126.5,156.5,126.5,156,126.4,155.6z"/>
						<path class="st1" d="M127.3,164.2c0,0.1,0.1,0.1,0.1,0.2l0,0L127.3,164.2z"/>
						<path class="st1" d="M153.5,110c0,0.1,0,0.2,0,0.3C153.4,111.1,153.5,110.6,153.5,110z"/>
						<path class="st1" d="M141.1,74.9c0.4,0,0.9,0,1.3,0.1c-0.4-0.1-0.7-0.1-0.9-0.1C141.3,74.9,141.1,74.9,141.1,74.9z"/>
						<path class="st1" d="M147.7,155.2L147.7,155.2c0,0.1,0,0.2-0.1,0.3L147.7,155.2z"/>
						<path class="st1" d="M144.3,75.6c-0.7-0.3-1.3-0.5-1.9-0.6C143.1,75.2,143.8,75.4,144.3,75.6z"/>
						<path class="st1" d="M132.9,201.2l0.1,0.4c0,0,0,0,0,0L132.9,201.2z"/>
						<path class="st1" d="M133,201.6l0.1,0.5C133.1,201.9,133.1,201.7,133,201.6z"/>
						<path class="st1" d="M133.3,203l-0.2-1C133.2,202.4,133.2,202.8,133.3,203z"/>
						<path class="st1" d="M131.1,189.9l-0.1-0.1C131,189.8,131.1,189.9,131.1,189.9z"/>
						<path class="st1" d="M130.5,186.5c0.1,0.8,0.2,2.1,0.5,3.2l0.1,0.1C130.9,189.3,130.7,187.2,130.5,186.5z"/>
						<path class="st1" d="M128.9,172.1l0.4,2.9c0-0.5,0-1.2,0.2,0.1C129.1,171.4,129.5,175.8,128.9,172.1z"/>
						<path class="st1" d="M127.9,163.1c0.2,1.5,0.1,0,0.1,0.1C127.8,162.2,127.8,162,127.9,163.1z"/>
						<path class="st1" d="M125.7,98.3l0.1,0.2C126,97.3,125.7,98.4,125.7,98.3z"/>
						<path class="st1" d="M128.3,86.1c-0.2,0.3-0.3,0.7-0.5,1.1c0,0.2-0.1,0.4-0.1,0.6C127.9,87.2,128.1,86.6,128.3,86.1z"/>
						<path class="st1" d="M132.8,80.3c-0.1,0.1-0.2,0.3-0.3,0.4c0.4-0.5,0.8-1,1.2-1.5C133.4,79.6,133.1,80,132.8,80.3z"/>
						<path class="st1" d="M144.2,167.5l0.2-0.3C144.5,166.4,144.4,166.2,144.2,167.5z"/>
						<path class="st1" d="M150.1,193c0.3-0.4,1-1.6,1.2-2.4C150.9,191.6,150.3,192.6,150.1,193z"/>
						<path class="st1" d="M154.6,60.3l0.9,0.3c-0.6-0.2-1.1-0.5-1.7-0.7C154.1,60.1,154.4,60.2,154.6,60.3z"/>
					</g>
				</g>
			</g>
		</g>
	</g>
	<g>
		<path class="st0" d="M261.2,174.5c-8.3-2.5-15.9-5.7-23.1-10.1c-13.3-8.1-23.4-19.2-32.1-31.9c-9.6-14-18-28.7-25.5-43.9
			c-1.3-2.6-2.3-5.4-4-7.7c-3.3-4.4,1.3-10.7,6.5-10.8c3.2-0.1,6,1,7.9,3.4c2.5,3.3,5,6.7,6.8,10.4c3.2,6.5,6.1,13.2,8.9,20
			c4.3,10.7,9.6,20.8,16.7,29.8c7.5,9.5,13.8,20.1,22.8,28.4C250.8,166.5,256,170.3,261.2,174.5z"/>
		<g>
			<g>
				<g>
					<g>
						<path class="st1" d="M261,174.8c0.1,0.1,0.1-0.1-0.2-0.3l-0.3-0.1L261,174.8z"/>
						<path class="st1" d="M259.1,172.8c-0.4-0.2-0.9-0.5-0.8-0.2c0.5,0.2,0.5,0.3,1,0.5c0.3,0.2,0.5,0.5,0.4,0.5
							c0.1,0.1,0.5,0.4,0.7,0.5C260.1,173.7,259.6,173.2,259.1,172.8C258.9,172.8,259,172.8,259.1,172.8z"/>
						<path class="st1" d="M231.6,144.6l0.1,0.2C231.8,144.7,231.7,144.7,231.6,144.6z"/>
						<path class="st1" d="M217.3,124.7c0.1,0.2,0.2,0.2,0.2,0.2C217.4,124.8,217.3,124.6,217.3,124.7z"/>
						<path class="st1" d="M215.3,121c0,0.1,0.1,0.1,0.1,0.2C215.4,121.1,215.4,121.1,215.3,121z"/>
						<path class="st1" d="M231.6,144.6l-0.3-0.6C231.2,144,231.5,144.3,231.6,144.6z"/>
						<path class="st1" d="M254.5,169.7c0.1,0.1,0.2,0.1,0.3,0.2L254.5,169.7C254.6,169.7,254.6,169.7,254.5,169.7z"/>
						<path class="st1" d="M238.3,153.1l0.1,0.2c0.1,0,0.1,0.1,0.2,0.1L238.3,153.1z"/>
						<path class="st1" d="M243.8,159.3c-0.1-0.1-0.3-0.1-0.4-0.1c0.1,0,0.2,0.1,0.4,0.2C243.8,159.4,243.8,159.3,243.8,159.3z"/>
						<path class="st1" d="M253.4,168.1l0.2,0.1C253.6,168.2,253.5,168.2,253.4,168.1z"/>
						<path class="st1" d="M234.7,148.4C234.7,148.4,234.7,148.3,234.7,148.4C234.7,148.3,234.7,148.3,234.7,148.4z"/>
						<path class="st1" d="M252.4,170.8C252.4,170.8,252.4,170.8,252.4,170.8C252.4,170.8,252.4,170.8,252.4,170.8z"/>
						<path class="st1" d="M261.2,174.5l-0.1,0c0,0,0,0-0.1,0.1L261.2,174.5z"/>
						<path class="st1" d="M211.9,114.2C211.9,114.2,211.9,114.2,211.9,114.2C212,114.4,212,114.3,211.9,114.2z"/>
						<path class="st1" d="M176.1,81.5c-0.3-0.7,0.9,0.9,0.3-0.1C176.5,81.5,175.6,80.6,176.1,81.5z"/>
						<path class="st1" d="M254.4,169.6l-0.3-0.2C254.2,169.5,254.3,169.5,254.4,169.6z"/>
						<path class="st1" d="M176.4,81.4L176.4,81.4l-0.1-0.1C176.4,81.3,176.4,81.3,176.4,81.4z"/>
						<path class="st1" d="M204.8,98.1c0,0,0,0.1,0,0.2C204.8,98.3,204.8,98.2,204.8,98.1z"/>
						<path class="st1" d="M209.7,110.3l-0.1-0.3C209.7,110.1,209.7,110.2,209.7,110.3z"/>
						<path class="st1" d="M201.9,91.9c-0.1-0.2-0.1-0.2-0.2-0.4c0,0,0,0,0,0.1C201.8,91.6,201.8,91.7,201.9,91.9z"/>
						<path class="st1" d="M198.9,85.4c0,0,0,0.1,0,0.1c0,0.1,0.1,0.1,0.1,0.2L198.9,85.4z"/>
						<path class="st1" d="M233.5,160.7c0.1,0.1,0.2,0.2,0.2,0.3C233.6,160.8,234.5,161.4,233.5,160.7z"/>
						<path class="st1" d="M254.6,169.7c-0.1,0-0.1,0-0.2-0.1C254.5,169.6,254.5,169.7,254.6,169.7
							C254.6,169.7,254.6,169.7,254.6,169.7z"/>
						<path class="st1" d="M200.7,92.1l-0.4-1C200.4,91.3,200.6,91.7,200.7,92.1z"/>
						<path class="st1" d="M200.2,122.7l0.2,0.2C200.3,122.8,200.3,122.8,200.2,122.7z"/>
						<path class="st1" d="M198.9,88c0-0.2-0.1-0.4-0.2-0.6c0,0-0.1-0.1-0.1-0.1L198.9,88z"/>
						<path class="st1" d="M233.7,160.9L233.7,160.9L233.7,160.9z"/>
						<path class="st1" d="M240.1,164.6c-0.9-0.5-0.5-0.1-0.8-0.1c-1.1-0.6-0.4-0.4-0.8-0.7c-0.7-0.4-1.3-0.6-1.8-0.9
							c0,0-0.1-0.1,0-0.1c-0.8-0.3-2.1-1.4-3-1.8c-0.1-0.1-0.1-0.1-0.1-0.1c0.1,0.2,0,0.3,0,0.3c-0.4-0.3-0.8-0.4-0.9-0.6
							c0.2,0.2,0.3,0.2,0.4,0.2l-0.4-0.3c-0.3-0.4,0.6,0.4,0.7,0.3c-0.8-0.5-1.8-1.1-2.4-1.6c0-0.2,1.5,1,0.7,0.3l0.9,0.7
							c-0.6-0.7,0.6,0.4,0.1-0.3c-1.2-0.9-1.4-0.9-2.6-1.9c-0.3-0.1,0,0.2-0.3,0c-1.8-1.2-1.1-1.4-2.4-2.2c-0.4-0.2-0.7-0.1-1.4-1
							l0.4,0.1c-1.1-1-0.8-0.3-1.9-1.5c0.2,0.1,0.9,0.7,0.8,0.6c-0.7-0.8-0.6-0.4-1.2-0.9l0-0.2c-1.2-1-2.5-2.2-3.8-3.4
							c0.1,0,0.3,0.2,0.1-0.1c-1.6-1.5-3.2-3.4-4.5-5.1l-0.6-0.5c-0.1-0.1-0.2-0.3,0-0.2c-0.5-0.7-0.1,0-0.4-0.2
							c-0.3-0.4-0.3-0.5-0.1-0.3c-1-1-2.8-3.1-3.6-4.4l0.2,0.2c-0.7-1-1.1-0.9-1.6-1.9l0.1,0.2c-1.5-2.1-3.3-4.4-4.2-6.2
							c-0.4-0.2-1.4-2.2-1.7-2.2c-0.7-1.3-0.4-1-1.5-2.8c-0.3-0.5-0.6-0.6-1-1.2l0.1-0.1l-0.6-0.7l-0.1-0.5l-0.4-0.5
							c0.1,0.2,0.2,0.5,0.2,0.5c-0.6-0.8-1.2-2.1-1.2-2.2l-1.4-2c0.1,0,0.3,0.3,0.5,0.6c-0.8-1,0-0.3-0.7-1.2c0.1,0.2-0.1,0-0.2,0
							c-0.2-0.5-0.9-1.7-1.5-2.5l0.2,0.1c-0.9-1.5-1.9-3.2-3-4.9c0.3,0.6,0.1,0.6-0.2,0.1l0-0.3c-0.3-0.3,0.3,0.6-0.2,0
							c-0.4-0.7-0.1-0.5,0.2-0.2l-0.5-0.8c0-0.1,0.1,0.1,0.2,0.1c-0.3-0.3-0.6-1.4-1.1-1.8l0-0.1c-1-1.7-1.5-2.5-2.3-3.9
							c-0.1,0-0.4-0.5-0.8-0.9c-0.5-1.1-1.1-2.3-1.8-3.6c-0.5-0.9-0.2-0.2-0.5-0.6c0.1-0.1-0.6-1.4-0.2-0.8
							c-0.8-1.5-1.1-1.9-2.2-3.8c0.1,0.2,0.2,0.5,0.1,0.4c-0.2-0.3-0.4-0.8-0.3-0.8l0.1,0.1c-1.3-2.1-2.2-5.2-3.3-6.9l0.1,0.1
							l-1-1.8c-0.4-0.9,0.3,0.5,0.1-0.2c-1.1-1.9-1.5-3.2-2.7-4.7c-0.2-0.4-0.3-0.8-0.6-1.2c-0.1-0.2-0.2-0.5-0.3-0.7
							c-0.1-0.3-0.1-0.5-0.2-0.8c-0.2-1.1,0.1-2.4,0.6-3.1l-0.1,0.1c0.1-0.4,0.3-0.5,0.5-0.7c-0.1,0-0.3,0.4-0.2,0.1
							c0.9-1.7,2.6-3,4.5-3.6c0.9-0.2,1.9-0.3,3-0.1c1,0.1,2,0.4,2.9,0.7c0.6,0.3,0.9,0.3,1.1,0.3c0.3,0.1,0.6,0.1,1.2,0.8
							c-0.2-0.1-0.3-0.1-0.5-0.2c0.6,0.4,1.1,0.9,1.6,1.5c0.5,0.6,1,1.3,1.4,1.9c0.9,1.3,1.8,2.6,2.7,3.8c-0.1-0.1-0.2-0.1-0.3-0.4
							c0.3,0.6,1.3,2,1.3,2c0.2,0.4,0,0.1,0.1,0.4c0.3,0.6,0.9,1.3,1,1.7c0,0.1-0.1-0.1-0.2-0.2c0.3,0.3,0.9,1.7,0.8,1.3
							c0.4,1.1,1,1.9,1.3,2.8c0.4,0.5,0.8,1.8,1,1.9c-0.2,0,0.7,1.9,1.1,2.5c-0.2-0.2,0.2,0.6,0,0.4c0.3,0.8,0.7,1.4,0.7,1.2
							c0.4,1.5,1.4,2.7,1.5,3.6c1.1,2.2,2,4.3,2.9,6.3c-0.2,0-1-2.3-1.1-2.1c0.9,1.9,1.5,3,2.3,4.9c0.2,0.5-0.2-0.2-0.3-0.4
							c0.9,1.9,1.6,3.8,2.5,5.4c0,0-0.1-0.2-0.2-0.3c0.2,0.3,0.3,0.8,0.4,0.7l-0.2-0.3c-0.1-0.6,0.9,1.2,1,1.2c-0.5-0.4,0.7,1.7,0,1
							c0.1,0.2,0.3,0.5,0.3,0.4c0.1,0.3,0.2,0.5-0.1,0.2c0.6,1.2,0.5,0.7,1.1,1.8c0,0-0.2-0.2-0.3-0.3c0.4,0.5,0.7,1,1.2,1.9
							c-0.1,0,0,0.1-0.2-0.2c0.8,1.5,1.6,2.5,2.5,4.2c-0.5-0.4,0.3,0.6,0.2,0.8l0.6,0.9l-0.1-0.4c0.4,0.8,1,1.4,1.3,2.1l-0.4-0.5
							l0.9,1.4l-0.4-0.8c0.6,0.7,0.1-0.2,0.7,0.8c-0.1-0.2,0.5,0.8,0.6,1.2l0,0c0.3,0.3,0.6,0.7,0.9,1.3c0,0.2-0.2,0-0.2,0.1
							c0.4,0.3,1.2,1.7,1.7,2.1c-0.1-0.1-0.2-0.1-0.2,0l0.3,0.2c0.2,0.4,0.2,0.4,0.1,0.4c0.7,1,0-0.5,0.8,0.8
							c-0.1-0.1-0.1,0-0.2-0.2c0.8,1.2,1.8,2.2,2.6,3.4c0.1,0.4-0.8-0.9-0.6-0.5c1.2,1.5,2.7,3.1,3.8,4.7l-0.2-0.3
							c0.4,0.1,0.7,1.2,1.4,1.9c-0.2-0.2-0.3-0.2-0.2-0.1c0.7,1.1,1.6,2.1,2.9,3.7l-0.2-0.2c0.4,0.7,1.2,1.7,1.6,2.4
							c0.2,0.2,0.5,0.5,0.4,0.3c1.2,2.3,3.1,3.8,4.3,5.8c-0.2-0.2-0.4-0.5-0.3-0.3l1.3,1.5c0-0.2-0.1-0.2-0.3-0.6
							c0.2,0.1,0.6,0.5,0.9,0.9c-0.6-0.6-0.1,0.1,0.1,0.5c0-0.1,0.1,0,0.1,0c0.5,0.9,0.3,0,1.1,1.1l-0.1,0c0.4,0.4,0.7,0.7,1.1,1.1
							c0.1,0.3-0.4-0.4-0.5-0.3c0.5,0.6,1.2,1,1.6,1.6c-0.3-0.2-0.6-0.6-0.8-0.8c0.4,0.7,0.5,0.7,0.9,1.2l0,0l0.9,1l-0.2-0.3
							c0.9,0.5,1.4,1.4,2.5,2.2c-1.1-0.7-0.2-0.1-0.4,0c0.2,0.3,0.6,0.7,0.4,0.6c0.5,0.3,0.7,0.8,1.5,1.3c0,0.1,0.5,0.5,0.3,0.5
							c0.6,0.5-0.1-0.2,0-0.2c1,0.7,2.1,2.1,3.6,3.1c1.3,0.9,1.6,1,2.8,1.8c0.3,0.4-0.4-0.1-0.4-0.1c0.6,0.5,1,0.9,1.7,1.3
							c-0.1-0.1,0,0.1,0.1,0.2c0.5,0.4,0.4,0.1,1,0.6c-0.1,0-0.3-0.1-0.6-0.2c0.6,0.4,1.2,0.8,1.8,1.2c0.1,0.2-0.4-0.2-0.7-0.3
							c0.7,0.5,1.7,1.2,2,1.3l-0.4-0.4c0.2,0.2,0,0.2-0.1,0.1c-0.6-0.4-0.8-0.7-0.8-0.7l0.4,0.3c-0.2-0.6-1.7-1.2-2.5-1.9l0.5,0.1
							l-0.9-0.5c-0.1-0.2-0.2-0.4,0.2-0.1c-0.5-0.5-0.6-0.4-1-0.8c0-0.1,0,0,0,0l-0.6-0.4c0.1,0.1,0-0.2,0.3,0.1
							c-0.9-0.9-1.7-1.2-2-1.6l0.1,0.1c-1.4-1.1-0.2,0-1.4-0.7l-0.5-0.9l-0.2,0c-0.1-0.1-0.4-0.4-0.3-0.4c-0.6-0.4,0,0.1-0.3-0.1
							c-0.6-0.7-1.9-1.6-1.9-1.9c-0.3-0.1,0.6,0.6-0.2,0.1c0-0.4-0.8-0.7-1.3-1.4c0.3,0.1,0.8,0.7,0.3,0c-0.5-0.2-1.1-1.1-1.6-1.6
							c-0.2,0.1-1.1-1-1.9-1.8c0.1,0-1.4-1.7-2-2.6l0,0c-0.3,0-1-0.9-1.5-1.5c0.1,0,0.2,0,0.5,0.3l-0.5-0.6
							c-0.2-0.1-0.3-0.3-0.7-0.6l0.2,0.1c-0.6-0.8-1.4-1.5-2.1-2.6c-0.1,0,0.4,1-0.6,0c0-0.1,0.1-0.2,0.3,0.1
							c-0.1-0.1-0.3-0.3-0.4-0.5l0.4,0.4c-0.3-0.5-0.3-0.2-0.5-0.6c0.1-0.1-0.2-0.3-0.1-0.3c0.1,0.1,0.2,0.4,0.4,0.5
							c-0.3-0.4-0.7-1-0.7-1.2c0,0.1-0.1,0.1-0.4-0.2c-0.6-0.8-0.1-0.4-0.4-0.9c-0.2-0.2-0.5-0.7-0.7-0.6c-0.2-0.2-0.2-0.3-0.2-0.4
							c-0.4-0.4-1.5-2-1.2-1.4l0.1,0.1c0,0,0,0-0.1-0.1l0,0l0,0c-1.1-1.3-2-2.9-3.1-4.3l0,0c-0.6-0.8-1.4-1.8-1.9-2.3
							c-0.2-0.2-0.4-0.6-0.2-0.6c-0.5-0.6-0.6-0.6-1.2-1.6c0.5,0.6-0.1-0.3,0.5,0.6c-0.6-0.8-0.6-1.1-1.4-1.8
							c0.3,0.2-0.3-0.7-0.7-1.1l0.4,0.6c-0.3-0.4-0.6-0.8-0.9-1.2l0.3,0.1c-1.1-1.7-2.5-2.8-3.2-4.2c-0.4-0.4,0.6,1,0.2,0.6
							c-0.5-0.8-0.9-1.7-1.1-2c-0.6-1.1-0.9-0.9-1.6-2.1c0,0.2,0,0.4-0.6-0.4c-0.5-0.8-0.4-1.1-0.1-0.6c0.1,0.2,0.2,0.3,0.1,0.3
							c0.2,0.2,0.4,0.6,0.3,0.2l-0.1-0.1c-0.2-0.4-0.9-1.5-0.6-1.3c-0.4-0.6-0.2-0.2,0,0.3c-0.6-1.1-1-1.6-1.6-2.7
							c0.1,0.2,0.1,0.4,0,0.2c-0.9-1.6-0.5-0.6-1.1-1.7c-0.3-0.7,0.3,0.1-0.4-0.9c-0.3-0.7,0.1-0.2,0.2,0c-0.6-1-0.9-1.9-1.2-2.5
							l0.3,0.5c-0.2-0.3-0.3-0.6-0.5-0.8l0.1,0.4c-0.1-0.3-0.3-0.6-0.2-0.6c-0.2-0.3,0,0.3-0.5-0.3c-0.2-0.5-0.7-1.3-0.6-1.5
							c0.6,1.4,0.1-0.2,0.7,0.9c-0.1-0.2-0.3-0.5-0.4-0.8c0-0.1,0.1,0,0.1,0.1c-0.5-1.3-0.4-0.5-1.1-1.8c0.2,0.1,0-0.4-0.1-0.6
							c0.3,0.5,0,0.3-0.3-0.1c-0.3-0.9-0.5-0.9-0.7-1.4l0.2,0.5c-0.2-0.1-0.3-0.6-0.6-1.2c0-0.1,0.3,0.5,0.2,0.3
							c-0.4-0.6-0.5-1.6-1-2.5c-0.1-0.5,0.1-0.1,0-0.5c-0.6-1-0.4-1.2-0.9-2.3c0,0.4,0.1,0.4-0.4-0.3l0.8,1.8l-0.7-1.1
							c0.2,0.6,0.6,1.1,0.7,1.5c-0.3-0.5-0.3-0.5-0.3-0.2c-0.2-0.8-0.7-1.5-1-2.4l0.3-0.1c-0.4-1.4-1.1-2.3-1.7-4l0.2,0.6
							c-0.2-0.2-0.5-1-0.7-1.6c0.1,0,0-0.3,0-0.6c-0.1,0.1-0.5-1.2-0.8-1.3l-0.2-0.8c-0.5-1.4-0.9-1.5-1.5-2.8
							c0.3,0.4,0.1-0.3,0.5,0.6c-0.2-0.4-0.4-0.8-0.4-0.8c-0.1-0.3-0.7-1.2-0.8-1.6c-0.1-0.2-0.2-0.2-0.5-0.7c0-0.1,0,0,0,0
							c0,0-0.4-0.7-0.3-0.3c-0.3-1.5-1.8-3.7-2.1-5c-0.5-0.9-1.1-2-1.5-2.9c0.1,0,0,0,0.1,0.1c-0.5-1.2-0.6-0.6-1.3-1.9
							c-0.3-0.7,0.5,0.6,0.3,0.2c0.2-0.3-1-1.5-1.4-2.5l0.2,0.2c-0.3-0.7-1.1-1.5-1.9-2.5c0,0,0.1,0,0,0c-0.6-0.6-1.6-1.9-2.4-2.8
							c0.3,0.2,0.4,0.4,0.3,0.1c-0.3-0.4-0.1,0.2-0.8-0.6c-0.2-0.3-0.7-0.9-0.7-1.1c0.3,0.2,0.5,0.5,0.8,0.7c-0.2-0.5-1-1-1.4-1.3
							l0.1,0c-0.7-0.4-1.1-0.6-1.5-0.7c-0.4-0.1-0.8-0.3-1.7-0.5l0.2,0.1c-0.9,0-0.7-0.3-1.7-0.3l-0.3-0.2c-0.6,0-2.2,0.1-3.2,0.5
							c0.5-0.3,1.9-0.6,2.7-0.6c-0.6-0.1-2.1,0.1-2.4,0.3c0.2-0.1,0.5-0.2,0.8-0.2c-0.7,0.3-1.7,0.6-2.7,1.2c0-0.2-0.7,0.1-1.5,0.7
							c-0.8,0.6-1.4,1.4-1.8,1.7c-0.6,1-1,2-1.3,3.2c-0.2,1.1-0.2,2.5,0.5,3.7c0-0.5,0-0.3,0.1-0.1c0.1,0.3,0.4,0.6,0.4,0.4
							c0.3,0.5,0.5,0.7,0.5,0.7c0.3,0.5,0.5,1,0.8,1.5c0.1,0.4-0.3-0.4-0.4-0.3c0.6,1.1,0.1,0.5,0.5,1.2c0-0.2,0.3,0.3,0.6,1
							l-0.3-0.9c0.9,1.5,0.4,1.4,1.3,3l-0.3-0.5c0.4,0.8,1.4,3.1,2,3.7c0,0.2,0.1,0.4-0.1,0c0.9,2,2.4,4.2,3,5.7l-0.1-0.1
							c0.2,0.3,0.4,0.6,0.6,1c0,0-0.1-0.1-0.1,0.1c0.1,0.2,0.6,0.9,0.8,1.4l-0.3-0.4c0.9,1.9,1.7,2.8,2.6,4.3
							c-0.2,0.1,0.5,1.6,0.9,2.3l0,0c1.2,2.2,2.2,3.6,3.4,5.5c0.5,1.3,2.3,4.2,3.4,6.2c-0.1-0.3,0.2,0,0.4,0.3
							c0.2,0.5,0.9,1.2,0.7,1.2l-0.1-0.2c0,0.4,0.7,1.4,1.1,2.1l0.3,0c0.9,2.1,3.2,4.9,3.6,6.1c0.3,0.4,0.7,1,1.1,1.4l-0.1,0.1
							c0.8,1.3,1.2,1.9,2.2,3.4l-0.3-0.3c0.6,0.9,1.1,0.9,1.6,1.7l0,0.4c1,1.5,1.9,3.1,3.2,4.5c0,0-0.1,0-0.3-0.2
							c0.5,0.7,1.9,2.8,1.9,2.3c-0.1,0.1,1.1,1.5,1.8,2.2l-0.2,0c0.7,0.5,0.7,0.5,1.5,1.4c0.2,0.2,0.1,0.3-0.1,0
							c0.5,0.8,0.6,0.5,1.2,1.4l-0.3-0.3c0.6,0.7,0.6,0.6,1,1c0.4,0.4,1.1,1.4,1.1,1.6c0.1,0,0.6,0.4,0.9,0.8c0,0.1-0.1,0-0.2-0.1
							c1,1.2,1.7,1.6,2.3,2.5c0,0,0,0.1,0.1,0.2c-0.9-0.9-1.5-1.7-1.5-1.6c-0.1,0.1,0.6,0.9-0.1,0.4c0.6,0.5,1.7,1.4,2.4,2.1
							c0,0,0,0.1,0.1,0.1l-0.1-0.1c0.1,0.2,0.3,0.3,0.5,0.4c0.2,0.2,0.3,0.4,0.6,0.6c0,0.2,0.8,0.9,1.1,1.2c0.1-0.1,0.5,0.3,0.2-0.2
							c0.1,0.1-0.1-0.1-0.3-0.3c-0.1-0.1-0.1-0.1-0.2-0.1l0,0c-0.2-0.2-0.5-0.5-0.9-0.9c0.3,0.2,0.7,0.5,1,0.9
							c0.3,0.1,0.5,0.3,0.7,0.3c0.4,0.6,1.3,1.6,1.3,1.8c1.2,1,2.8,2.4,3.7,2.8c0.4,0.3,0.3,0.4,0.4,0.5c-0.2-0.1-0.4-0.3-0.6-0.4
							c0.7,0.5,2,1.6,2.3,1.6c0.8,0.7-0.6-0.2,0.6,0.7l-0.2-0.1c2.2,2,4.2,2.5,6.8,4.6c-0.2-0.1-0.3-0.2-0.3-0.3
							c3.1,2.2,6.8,3.8,10,5.6c0.9,0.5,1.1,0.4,1.7,0.6l0.1,0.2l1.1,0.3c1.5,0.5,2.4,1.4,4.3,1.9l-0.2-0.2c0.7,0.3,2.1,0.7,2,0.8
							c0.1,0,0.3,0,0.5,0.1l0,0.1l1.7,0.4c1.3,0.5-0.3,0.2,1.6,0.9c0.7,0.2,2.1,0.4,1.8,0.3c-0.3-0.1-0.7-0.3-0.7-0.4l0.7,0.2
							c0.2-0.2,0.7-0.3-0.8-0.9l-1.1-0.2l-0.3-0.2l0.9,0.3c-0.5-0.3-0.8-0.3-1.2-0.3c-0.1-0.1-0.2-0.2-0.4-0.3l-1.1-0.1
							c-0.1-0.1,0.5,0-0.2-0.3c-0.5-0.1,0.4,0.4-0.4,0.1c-0.5-0.3-0.3-0.3-0.9-0.4c-0.1-0.1,0.1-0.1,0.3,0c-0.6-0.1-1.4-0.5-1.7-0.5
							c-0.5-0.3-1.8-0.7-1.7-0.8c-0.2,0-1-0.2-1.5-0.4c1,0.1-1.8-0.8-1.5-0.9c-0.7-0.1-2.4-0.9-3.6-1.4c0.1,0,0.2,0,0.3,0.1
							c-0.6-0.3-0.8-0.5-1.2-0.7c-0.2,0.1-1.2-0.3-1.8-0.5c-0.7-0.6,0.6,0,0.4-0.2c0,0.2-1.4-0.6-1.2-0.3c-0.5-0.4-0.5-0.3-0.7-0.6
							c-0.2,0.2-0.6-0.3-1.1-0.4c-0.8-0.6-0.1-0.3-1-0.8C239.2,164.2,240.1,164.6,240.1,164.6z M220.2,149.6L220.2,149.6
							c0.2,0.2,0.3,0.3,0.4,0.4C220.5,149.9,220.4,149.8,220.2,149.6z M218.8,148.1c0.2,0.2,0.4,0.4,0.6,0.7c0,0.1-0.1,0.1-0.2-0.1
							C219.3,148.7,219,148.3,218.8,148.1z M221.2,151.9c-0.3-0.2-0.3-0.3-0.3-0.4c0.1,0.1,0.3,0.2,0.4,0.4c0,0,0,0,0,0
							C221.3,152,221.3,152,221.2,151.9z"/>
						<path class="st1" d="M221.8,152.2c0,0,0.1,0,0.1,0.1C221.8,152.3,221.8,152.2,221.8,152.2c-0.1-0.1-0.1-0.1-0.1-0.1
							C221.7,152.1,221.7,152.2,221.8,152.2z"/>
						<path class="st1" d="M231.8,144.8L231.8,144.8C231.8,144.8,231.8,144.9,231.8,144.8C231.8,144.8,231.8,144.8,231.8,144.8z"/>
						<polygon class="st1" points="201.6,124.7 201.5,124.7 201.7,124.8 						"/>
						<path class="st1" d="M238.5,154.4c0,0,0,0.1,0.1,0.1C238.6,154.5,238.5,154.4,238.5,154.4z"/>
						<path class="st1" d="M241.8,158.2l0.4,0.6C242.1,158.5,241.9,158.3,241.8,158.2z"/>
						<path class="st1" d="M244.4,161C244.5,161,244.5,161,244.4,161L244.4,161L244.4,161z"/>
						<path class="st1" d="M209,110.9c0,0,0-0.1-0.1-0.1C208.8,110.4,208.9,110.7,209,110.9z"/>
						<path class="st1" d="M218.1,126.8c-0.1-0.1-0.3-0.3-0.4-0.5C217.9,126.6,218,126.9,218.1,126.8z"/>
						<polygon class="st1" points="200.8,92.2 200.8,92.2 200.7,92.1 						"/>
						<path class="st1" d="M217.2,125.6c0.2,0.3,0.3,0.5,0.5,0.7C217.6,126.1,217.4,125.9,217.2,125.6z"/>
						<path class="st1" d="M257.2,171.9l0.1,0.1c0,0,0,0,0,0L257.2,171.9z"/>
						<path class="st1" d="M257.4,172l0.2,0.1C257.5,172.1,257.4,172,257.4,172z"/>
						<path class="st1" d="M257.9,172.4l-0.4-0.2C257.7,172.2,257.8,172.3,257.9,172.4z"/>
						<path class="st1" d="M253.3,168.7L253.3,168.7C253.2,168.7,253.2,168.7,253.3,168.7z"/>
						<path class="st1" d="M252,167.7c0.3,0.2,0.7,0.7,1.1,1l0.1,0C253,168.6,252.4,167.8,252,167.7z"/>
						<path class="st1" d="M247.5,163l0.9,0.9c-0.1-0.2-0.3-0.4,0.1-0.1C247.5,162.7,248.8,164.2,247.5,163z"/>
						<path class="st1" d="M244.6,160.2C245.1,160.7,244.7,160.2,244.6,160.2C244.4,159.9,244.3,159.8,244.6,160.2z"/>
						<path class="st1" d="M226.5,137.4l0.1,0C226.3,137,226.6,137.4,226.5,137.4z"/>
						<polygon class="st1" points="222.6,133.4 222.9,133.8 223.1,134 						"/>
						<polygon class="st1" points="221.3,130.2 221.5,130.4 220.9,129.7 						"/>
						<path class="st1" d="M199.5,86.5l-0.1,0.2C199.6,87,199.8,87,199.5,86.5z"/>
						<path class="st1" d="M186.4,70.2c-0.2-0.1-0.8-0.3-1.2-0.3C185.7,69.9,186.1,70.1,186.4,70.2z"/>
						<polygon class="st1" points="197.5,120.6 197.2,120.3 197.7,120.9 						"/>
					</g>
				</g>
			</g>
		</g>
	</g>
	<g>
		<path class="st0" d="M13.7,174.5c4.8-3.8,9.6-6.9,13.6-10.9c5.4-5.4,10.4-11.3,15-17.4c6.1-7.9,12.5-15.8,17.4-24.5
			c5.6-9.9,9.6-20.7,14.4-31.1c2.7-5.9,5.2-12,9.7-16.8c3.2-3.5,7.5-4.6,11.3-3c4,1.7,5.6,5.8,3.7,9.7
			c-8.7,17.4-17.7,34.6-28.8,50.7c-7.4,10.9-15.7,21-26.4,28.8C34.7,166.5,24.9,171.4,13.7,174.5z"/>
		<g>
			<g>
				<g>
					<g>
						<path class="st1" d="M13.6,174.2c-0.1,0.1,0,0.2,0.4,0l0.2-0.2L13.6,174.2z"/>
						<path class="st1" d="M16.3,173.7c0.4-0.2,0.9-0.5,0.6-0.6c-0.4,0.3-0.5,0.3-1,0.6c-0.4,0.1-0.7,0.2-0.6,0.1
							c-0.1,0.1-0.6,0.1-0.8,0.3c0.5,0,1.2-0.2,1.8-0.5C16.5,173.6,16.4,173.7,16.3,173.7z"/>
						<path class="st1" d="M50.7,154.5l-0.2,0.2C50.6,154.7,50.7,154.6,50.7,154.5z"/>
						<path class="st1" d="M67,136.1c-0.1,0.2-0.1,0.2-0.1,0.2C67,136.2,67,136.1,67,136.1z"/>
						<path class="st1" d="M69.6,132.8c-0.1,0.1-0.1,0.1-0.2,0.2C69.5,132.9,69.6,132.9,69.6,132.8z"/>
						<path class="st1" d="M50.7,154.5l0.5-0.4C51.3,154.1,51,154.3,50.7,154.5z"/>
						<path class="st1" d="M21.4,171.6c-0.1,0.1-0.2,0.1-0.3,0.2L21.4,171.6C21.4,171.6,21.4,171.6,21.4,171.6z"/>
						<path class="st1" d="M42.3,161.4l-0.2,0.1c0,0-0.1,0.1-0.1,0.1L42.3,161.4z"/>
						<path class="st1" d="M35.3,165.9c0.2-0.1,0.2-0.2,0.2-0.3c-0.1,0.1-0.2,0.2-0.3,0.3C35.2,165.9,35.2,165.9,35.3,165.9z"/>
						<path class="st1" d="M23.3,171.4l-0.2,0.1C23.2,171.5,23.2,171.5,23.3,171.4z"/>
						<path class="st1" d="M47.1,157.8C47.1,157.9,47.2,157.8,47.1,157.8C47.2,157.8,47.2,157.8,47.1,157.8z"/>
						<path class="st1" d="M21.8,169.3C21.8,169.2,21.8,169.2,21.8,169.3C21.8,169.3,21.8,169.3,21.8,169.3z"/>
						<path class="st1" d="M13.7,174.5l0.1-0.1c0,0,0-0.1,0-0.1L13.7,174.5z"/>
						<path class="st1" d="M74,126.5C74,126.5,74,126.5,74,126.5C73.9,126.7,74,126.6,74,126.5z"/>
						<path class="st1" d="M88.6,70c0.4-0.1,0.1,0.1-0.2,0.2c-0.3,0.1-0.5,0.3,0.2,0.1C88.5,70.3,89.7,69.8,88.6,70z"/>
						<path class="st1" d="M21.6,171.5l0.3-0.1C21.7,171.5,21.7,171.5,21.6,171.5z"/>
						<path class="st1" d="M88.6,70.3L88.6,70.3l0.1,0C88.7,70.3,88.7,70.3,88.6,70.3z"/>
						<path class="st1" d="M83.2,111.4c0,0-0.1,0.1-0.1,0.1C83.1,111.5,83.1,111.5,83.2,111.4z"/>
						<path class="st1" d="M76.2,122.6l0.2-0.3C76.3,122.4,76.3,122.5,76.2,122.6z"/>
						<path class="st1" d="M86.4,105.3c0.1-0.2,0.1-0.2,0.2-0.4c0,0,0,0-0.1,0.1C86.6,105,86.5,105.1,86.4,105.3z"/>
						<path class="st1" d="M89.8,99c0,0-0.1,0.1-0.1,0.1c0,0.1-0.1,0.1-0.1,0.2L89.8,99z"/>
						<path class="st1" d="M37.1,153.8c-0.1,0.1-0.2,0.1-0.3,0.2C36.9,153.9,36.3,154.8,37.1,153.8z"/>
						<path class="st1" d="M21.4,171.7c0,0,0.1-0.1,0.2-0.1C21.5,171.6,21.4,171.6,21.4,171.7C21.3,171.6,21.3,171.7,21.4,171.7z"/>
						<path class="st1" d="M85.6,104.5l0.6-1C86,103.8,85.8,104.2,85.6,104.5z"/>
						<path class="st1" d="M65.6,111.4l-0.1,0.2C65.6,111.6,65.6,111.5,65.6,111.4z"/>
						<path class="st1" d="M87.7,100.6c0.1-0.2,0.3-0.3,0.4-0.5c0,0,0-0.1,0-0.1L87.7,100.6z"/>
						<path class="st1" d="M36.8,154L36.8,154L36.8,154z"/>
						<path class="st1" d="M32.1,159.8c0.7-0.8,0.2-0.5,0.3-0.7c0.8-1,0.5-0.4,0.9-0.6c0.5-0.6,0.8-1.2,1.2-1.7c0.1,0,0.1-0.1,0.1,0
							c0.5-0.7,1.7-1.9,2.1-2.8c0.1,0,0.1-0.1,0.1-0.1c-0.2,0.1-0.3,0-0.3,0c0.3-0.4,0.5-0.8,0.7-0.8c-0.2,0.2-0.2,0.3-0.2,0.4
							l0.3-0.4c0.4-0.2-0.4,0.6-0.3,0.7c0.6-0.8,1.2-1.8,1.7-2.3c0.2,0-1.1,1.4-0.3,0.7l-0.8,0.9c0.8-0.5-0.5,0.5,0.3,0.1
							c1-1.2,1-1.4,2-2.6c0.1-0.3-0.2,0,0-0.3c1.2-1.8,1.4-1.1,2.2-2.5c0.2-0.4,0.1-0.7,0.9-1.5l-0.1,0.4c0.9-1.2,0.3-0.8,1.4-2
							c-0.1,0.3-0.7,1-0.5,0.8c0.7-0.7,0.4-0.6,0.8-1.2l0.2,0c0.9-1.3,2-2.7,3-4.1c0,0.1-0.2,0.4,0.1,0.1c1.3-1.8,2.9-3.8,4.2-5.4
							l0.4-0.7c0.1-0.2,0.3-0.2,0.2-0.1c0.5-0.6,0-0.1,0.1-0.4c0.3-0.4,0.4-0.5,0.3-0.2c0.8-1.3,2.2-3.6,3.2-4.8l-0.1,0.3
							c0.7-1,0.5-1.3,1.2-2.2l-0.1,0.2c1.5-2.2,2.8-4.8,4-6.4c0-0.4,1.3-2.3,1.1-2.5c0.8-1.3,0.7-0.9,1.7-2.7
							c0.3-0.5,0.2-0.8,0.5-1.5l0.1,0.1l0.3-0.9l0.4-0.4l0.2-0.6c-0.1,0.2-0.3,0.5-0.3,0.4c0.4-1,1.1-2.2,1.2-2.2l0.9-2.3
							c0,0.1-0.1,0.5-0.2,0.8c0.4-1.2,0.2-0.1,0.6-1.3c-0.1,0.1,0-0.1-0.1-0.2c0.3-0.5,0.9-1.7,1.2-2.7l0,0.2
							c0.7-1.6,1.5-3.5,2.3-5.3c-0.3,0.6-0.4,0.4-0.2-0.1l0.2-0.2c0.1-0.4-0.3,0.5-0.1-0.2c0.3-0.7,0.4-0.4,0.2,0l0.3-0.9
							c0.1,0,0,0.2,0,0.3c0.1-0.4,0.8-1.4,0.8-1.9l0.1,0c0.8-1.8,1.1-2.7,1.8-4.2c-0.1-0.1,0.2-0.7,0.3-1.1c0.5-1.1,1.2-2.2,1.8-3.6
							c0.4-0.9,0-0.3,0.1-0.8c0.1,0,0.8-1.3,0.5-0.6c0.7-1.6,0.9-2,1.8-4c-0.2,0.2-0.3,0.4-0.3,0.3c0.2-0.4,0.5-0.8,0.5-0.7l0,0.1
							c1-2.3,3.2-4.6,4.3-6.2l-0.1,0.1c0.4-0.5,0.8-1.1,1.2-1.6c0.6-0.6-0.3,0.5,0.2,0c1.4-1.6,2.6-2.1,4.1-2.8c0.7,0,1.8-0.3,3-0.3
							c1.2,0,2.5,0.3,3.2,0.8L95,71.5c0.4,0.1,0.5,0.3,0.7,0.5c0-0.1-0.4-0.3-0.1-0.2c1.7,0.8,3.1,2.6,3.3,4.5c0.1,1,0,2-0.3,2.9
							c-0.3,0.9-0.9,1.8-1.4,2.8c-0.7,1.4,0,1-1.1,2.6l0.1-0.6c-1.2,2.9-2.9,5.7-4.2,8.5c0.1-0.2,0-0.2,0.1-0.5
							c-0.4,0.5-1.1,2.1-1,2.2c-0.2,0.4-0.1,0.1-0.3,0.3c-0.4,0.5-0.6,1.5-0.9,1.8c0,0,0.1-0.2,0.1-0.3c-0.1,0.4-0.9,1.7-0.6,1.4
							c-0.6,1-1,2-1.5,2.7c-0.1,0.6-1,1.7-0.9,2c-0.2-0.2-1.1,1.7-1.4,2.4c0.1-0.2-0.4,0.5-0.3,0.2c-0.4,0.7-0.7,1.4-0.6,1.3
							c-1,1.2-1.3,2.8-2,3.4c-1.1,2.2-2.2,4.2-3.3,6.1c-0.2-0.2,1.2-2.1,1-2.2c-1,1.9-1.4,3-2.6,4.8c-0.3,0.4,0.1-0.3,0.1-0.5
							c-1,1.8-2.1,3.4-3,5.1c0,0,0.1-0.2,0.2-0.4c-0.2,0.3-0.5,0.7-0.4,0.7l0.2-0.3c0.4-0.4-0.5,1.4-0.5,1.5
							c0.1-0.7-1.1,1.5-0.8,0.5c-0.1,0.2-0.2,0.5-0.2,0.5c-0.2,0.3-0.3,0.4-0.2,0c-0.7,1.1-0.3,0.8-1,1.8c0,0,0.1-0.2,0.1-0.4
							c-0.3,0.6-0.5,1.1-1.1,1.9c0-0.1-0.1,0,0.1-0.2c-1,1.4-1.4,2.6-2.6,4.1c0.1-0.6-0.4,0.5-0.6,0.5l-0.5,0.9l0.3-0.3
							c-0.5,0.7-0.9,1.5-1.4,2l0.3-0.6l-1,1.4l0.6-0.7c-0.5,0.8,0.2,0.1-0.5,1c0.1-0.2-0.5,0.7-0.9,1l0,0c-0.2,0.4-0.4,0.8-0.9,1.3
							c-0.2,0.1-0.1-0.2-0.2-0.2c-0.1,0.4-1.2,1.7-1.5,2.2c0.1-0.2,0-0.2,0-0.2l-0.1,0.4c-0.3,0.3-0.3,0.3-0.4,0.2
							c-0.8,1,0.4-0.2-0.6,0.9c0.1-0.1,0-0.1,0.2-0.3c-1,1.1-1.8,2.3-2.7,3.3c-0.4,0.2,0.7-0.9,0.3-0.7c-1.3,1.5-2.5,3.2-3.9,4.6
							l0.3-0.2c0,0.4-1.1,0.9-1.7,1.7c0.2-0.2,0.1-0.3,0.1-0.3c-0.9,0.9-1.8,1.9-3.2,3.3l0.1-0.2c-0.6,0.5-1.5,1.3-2.2,1.9
							c-0.1,0.2-0.5,0.5-0.2,0.4c-2.2,1.4-3.7,3.3-5.7,4.3c0.2-0.2,0.5-0.4,0.3-0.3l-1.5,1.2c0.2,0,0.2-0.1,0.6-0.3
							c-0.2,0.2-0.6,0.6-1,0.8c0.7-0.6-0.1-0.1-0.5,0c0.1,0,0,0.1,0,0.1c-1,0.4,0,0.3-1.2,0.9l0-0.1c-0.4,0.3-0.8,0.6-1.3,0.9
							c-0.3,0,0.4-0.4,0.4-0.5c-0.6,0.4-1.2,1-1.8,1.3c0.3-0.2,0.7-0.5,0.9-0.7c-0.7,0.3-0.8,0.4-1.3,0.6l0,0l-1.2,0.6l0.3-0.1
							c-0.7,0.8-1.7,1.1-2.7,1.9c1-0.8,0.1-0.2,0.1-0.4c-0.3,0.1-0.8,0.3-0.7,0.2c-0.5,0.4-1,0.4-1.7,1c-0.1,0-0.6,0.3-0.5,0.1
							c-0.7,0.4,0.2,0,0.2,0.1c-1,0.7-2.7,1.1-4.3,2.1c-1.4,0.7-1.6,1-2.9,1.6c-0.5,0.1,0.3-0.3,0.3-0.3c-0.8,0.2-1.3,0.5-2,0.8
							c0.1-0.1,0-0.1-0.3,0c-0.6,0.2-0.3,0.3-1.1,0.5c0.1-0.1,0.2-0.2,0.5-0.4c-0.6,0.3-1.3,0.6-1.9,0.9c-0.2,0,0.4-0.3,0.6-0.4
							c-0.8,0.3-2,0.8-2.2,1l0.5-0.1c-0.3,0.1-0.2-0.1,0-0.2c0.6-0.3,1-0.3,1-0.2l-0.5,0.2c0.6,0.1,1.9-0.7,2.9-1.1l-0.3,0.3
							l0.9-0.5c0.2,0,0.4,0,0,0.2c0.7-0.2,0.6-0.3,1.2-0.4c0.1,0,0,0,0,0l0.7-0.3c-0.1,0.1,0.2,0.1-0.3,0.2c1.3-0.4,1.9-1,2.4-1
							l-0.1,0.1c1.6-0.8,0.1-0.2,1.3-0.9l1,0l0.1-0.2c0.2-0.1,0.5-0.2,0.5-0.1c0.6-0.4-0.1,0,0.2-0.3c0.9-0.3,2.2-1.2,2.5-1
							c0.2-0.3-0.8,0.3,0-0.2c0.4,0.1,1-0.6,1.7-0.8c-0.2,0.2-0.9,0.5-0.1,0.3c0.3-0.4,1.4-0.7,2-1.1c-0.1-0.2,1.3-0.8,2.2-1.5
							c0,0.1,1.9-1.1,2.9-1.6l0,0c0.1-0.3,1-0.9,1.7-1.4c0,0.1-0.1,0.2-0.4,0.5l0.6-0.4c0.1-0.2,0.3-0.3,0.7-0.6l-0.1,0.2
							c0.8-0.6,1.6-1.3,2.7-2c0-0.1-1,0.3,0-0.6c0.1,0,0.2,0.1-0.1,0.3c0.1-0.1,0.3-0.3,0.5-0.4l-0.4,0.4c0.5-0.3,0.2-0.3,0.6-0.6
							c0.1,0.1,0.3-0.2,0.3-0.1c-0.1,0.1-0.4,0.2-0.5,0.4c0.4-0.3,1-0.7,1.2-0.8c-0.1,0-0.1-0.1,0.2-0.4c0.8-0.6,0.3-0.1,0.8-0.5
							c0.1-0.2,0.7-0.6,0.6-0.7c0.2-0.2,0.3-0.2,0.4-0.2c0.4-0.4,1.8-1.7,1.3-1.4l-0.1,0.1c0,0,0,0,0.1-0.1l0,0l0,0
							c1.2-1.3,2.7-2.4,3.9-3.6l0,0c0.7-0.8,1.6-1.7,2-2.3c0.2-0.2,0.6-0.5,0.5-0.3c0.5-0.6,0.5-0.7,1.3-1.5
							c-0.5,0.6,0.2-0.2-0.5,0.6c0.7-0.7,0.9-0.8,1.5-1.8c-0.1,0.4,0.6-0.5,0.9-0.9l-0.5,0.5c0.4-0.4,0.7-0.8,1-1.1l0,0.3
							c1.5-1.5,2.1-3.1,3.4-4.2c0.2-0.5-0.8,0.8-0.6,0.4c0.6-0.7,1.4-1.4,1.6-1.6c0.9-1,0.5-1.1,1.4-2.2c-0.2,0.1-0.4,0.1,0.2-0.7
							c0.6-0.8,0.9-0.8,0.6-0.3c-0.1,0.2-0.2,0.3-0.2,0.2c-0.2,0.3-0.4,0.6-0.1,0.3l0-0.1c0.3-0.3,1.1-1.4,1-1.1
							c0.4-0.6,0.1-0.3-0.2,0.1c0.8-1,1.1-1.6,1.9-2.6c-0.1,0.1-0.3,0.3-0.2,0.1c1.1-1.5,0.4-0.7,1.1-1.8c0.5-0.5,0,0.3,0.7-0.8
							c0.5-0.6,0.2,0,0.1,0.2c0.6-1,1.3-1.7,1.7-2.3l-0.3,0.5c0.2-0.3,0.3-0.6,0.5-0.8l-0.3,0.2c0.2-0.3,0.4-0.5,0.4-0.5
							c0.1-0.4-0.3,0.1,0-0.5c0.3-0.4,0.7-1.2,1-1.3c-0.9,1.2,0.2-0.1-0.4,1c0.1-0.2,0.3-0.5,0.5-0.8c0,0,0,0.1,0,0.1
							c0.9-1.1,0.2-0.6,1-1.9c0,0.2,0.3-0.2,0.4-0.4c-0.3,0.5-0.3,0.2,0-0.3c0.6-0.8,0.5-0.9,0.8-1.3l-0.3,0.5
							c0-0.2,0.3-0.6,0.6-1.2c0.1,0-0.3,0.5-0.1,0.4c0.3-0.7,1-1.3,1.5-2.3c0.3-0.4,0.2,0,0.4-0.3c0.5-1,0.7-1,1.3-2.1
							c-0.3,0.2-0.3,0.3,0.1-0.5l-1,1.7l0.5-1.2c-0.3,0.5-0.6,1.1-0.8,1.4c0.2-0.6,0.2-0.5,0-0.3c0.6-0.6,0.7-1.4,1.3-2.2l0.2,0.2
							c0.9-1.2,1.2-2.3,2.2-3.8l-0.3,0.5c0-0.3,0.6-1,0.8-1.5c0.1,0.1,0.3-0.2,0.5-0.4c-0.1,0,0.7-1.2,0.6-1.4l0.5-0.7
							c0.8-1.3,0.6-1.6,1.3-2.9c-0.1,0.4,0.3-0.1-0.1,0.8c0.2-0.4,0.5-0.8,0.4-0.8c0.2-0.2,0.5-1.2,0.8-1.6c0.1-0.2,0-0.3,0.3-0.8
							c0,0,0,0,0,0c0,0,0.3-0.8,0-0.4c1-1.1,2-3.6,2.8-4.6c0.5-0.9,1-2.1,1.5-2.9c0,0.1,0,0-0.1,0.2c0.7-1.1,0.1-0.8,0.9-2.1
							c0.5-0.6-0.3,0.7,0,0.3c0.4,0,0.8-1.6,1.4-2.4l-0.1,0.2c0.4-0.6,0.8-1.7,1.3-2.8c0,0,0,0.1,0,0c0.2-0.8,0.9-2.3,1.4-3.4
							c-0.1,0.4-0.2,0.5,0,0.4c0.2-0.5-0.3,0,0.2-0.9c0.2-0.3,0.6-0.9,0.8-1l-0.5,0.9c0.4-0.4,0.6-1.2,0.9-1.6l0,0.1
							c0.7-1.4,0.5-1.5,1.3-3l-0.1,0.1c0.2-0.9,0.5-0.6,0.7-1.6l0.3-0.2c0.2-0.6,0.3-2.2,0-3.3c0.3,0.6,0.3,1.9,0.2,2.8
							c0.2-0.6,0.2-2.2,0-2.5c0.1,0.2,0.1,0.6,0.1,0.8c-0.2-0.8-0.3-1.8-0.9-2.9c0.2,0-0.1-0.8-0.7-1.5c-0.6-0.8-1.5-1.4-1.8-1.8
							c-1-0.6-2-1-3.1-1.3c-1.1-0.3-2.4-0.4-3.6-0.1c0.5,0.1,0.3,0.1,0,0.2c-0.3,0.1-0.6,0.1-0.5,0.3c-0.6,0.2-0.8,0.2-0.8,0.2
							c-0.6,0.1-1.2,0.3-1.7,0.5c-0.4,0.1,0.5-0.3,0.4-0.3c-1.2,0.6-0.6,0.1-1.4,0.5c0.2,0-0.3,0.4-0.9,0.8c0.3-0.2,0.6-0.3,0.9-0.5
							c-0.7,0.6-1,0.8-1.4,1c-0.3,0.2-0.7,0.4-1.3,1.2c0.1-0.2,0.2-0.3,0.3-0.5c-0.6,0.7-2.3,2.6-2.6,3.5c-0.1,0.1-0.3,0.2-0.1-0.1
							c-1.3,1.8-2.4,4.2-3.3,5.7l0-0.2c-0.2,0.4-0.2,0.7-0.5,1.1c0,0,0-0.2-0.1,0c-0.1,0.2-0.4,1-0.6,1.5l0.1-0.5
							c-1,1.9-1.2,3-1.9,4.7c-0.2-0.1-1,1.4-1.3,2.1l0,0c-1.1,2.2-1.6,3.9-2.4,6c-0.8,1.2-2,4.4-3,6.4c0.2-0.3,0.1,0.1,0,0.5
							c-0.3,0.5-0.4,1.4-0.6,1.3l0.1-0.2c-0.3,0.3-0.7,1.3-1.1,2.1l0.2,0.2c-1.2,1.9-2.3,5.4-3.1,6.3c-0.2,0.5-0.5,1.1-0.6,1.6
							l-0.1-0.1c-0.7,1.3-1,2-1.9,3.6l0.1-0.4c-0.5,0.9-0.2,1.4-0.7,2.2l-0.3,0.2c-0.9,1.6-2,3.1-2.7,4.7c0,0,0-0.1,0.1-0.4
							c-0.4,0.7-1.9,2.7-1.5,2.6c-0.2-0.1-1,1.5-1.5,2.4l0-0.2c-0.3,0.8-0.3,0.8-0.9,1.8c-0.2,0.2-0.2,0.1,0-0.1
							c-0.6,0.7-0.3,0.7-1,1.5l0.2-0.4c-0.6,0.8-0.5,0.7-0.7,1.2c-0.3,0.5-1.1,1.4-1.3,1.5c0,0.1-0.2,0.6-0.6,1
							c-0.1,0,0-0.1,0.1-0.2c-1,1.2-1.3,2-2,2.7c-0.1,0-0.1,0-0.2,0.1c0.8-1,1.4-1.8,1.3-1.7c-0.1-0.1-0.7,0.7-0.4,0
							c-0.4,0.7-1.1,1.9-1.7,2.7c0,0-0.1,0.1-0.1,0.1l0.1-0.1c-0.1,0.2-0.3,0.3-0.4,0.5c-0.2,0.2-0.3,0.4-0.5,0.6
							c-0.2,0-0.8,0.9-1.1,1.3c0.1,0.1-0.3,0.6,0.2,0.1c-0.1,0.1,0-0.1,0.2-0.4c0-0.1,0.1-0.1,0.1-0.2l0,0c0.2-0.3,0.5-0.6,0.8-1
							c-0.2,0.4-0.4,0.7-0.8,1.1c-0.1,0.3-0.2,0.5-0.3,0.7c-0.6,0.4-1.5,1.4-1.7,1.5c-0.9,1.3-2.2,2.9-2.6,3.8
							c-0.2,0.4-0.4,0.3-0.5,0.5c0.1-0.2,0.3-0.4,0.4-0.6c-0.5,0.7-1.6,2-1.6,2.3c-0.8,0.8,0.3-0.6-0.7,0.6l0.1-0.2
							c-2.1,2.1-2.7,4-5.2,6.3c0.2-0.2,0.3-0.2,0.3-0.2c-2.6,2.7-5.1,5.9-7.9,8.2c-0.8,0.7-0.8,0.8-1.2,1.3l-0.3,0l-0.7,0.8
							c-1.1,1.1-2.3,1.4-3.8,2.8l0.3-0.1c-0.6,0.4-1.8,1.4-1.7,1.2c0,0.1-0.1,0.2-0.4,0.3l-0.1-0.1l-1.3,1.2c-1.1,0.8,0-0.4-1.6,0.8
							c-0.6,0.5-1.5,1.5-1.3,1.3c0.2-0.2,0.6-0.4,0.7-0.4l-0.5,0.4c0,0.3-0.2,0.8,1.2-0.1l0.8-0.8l0.4-0.1l-0.8,0.6
							c0.5-0.2,0.7-0.5,1-0.8c0.1,0,0.3-0.1,0.5-0.2l0.8-0.9c0.2,0-0.3,0.4,0.3,0c0.4-0.4-0.5,0.1,0.1-0.4c0.5-0.2,0.4-0.1,0.9-0.5
							c0.1,0,0,0.1-0.2,0.3c0.4-0.4,1.2-0.9,1.4-1.2c0.5-0.2,1.5-1.2,1.6-1c0.1-0.2,0.7-0.8,1.1-1.1c-0.6,0.8,1.6-1.2,1.5-0.9
							c0.4-0.6,1.9-1.8,2.7-2.8c0,0.1-0.1,0.2-0.2,0.3c0.5-0.5,0.7-0.6,1.1-0.9c-0.1-0.2,0.7-1,1-1.5c0.7-0.5-0.2,0.5,0.1,0.5
							c-0.1-0.1,0.9-1.2,0.6-1.1c0.5-0.4,0.4-0.4,0.8-0.5c-0.1-0.3,0.4-0.5,0.7-1c0.7-0.6,0.3,0,1-0.9
							C32.7,159,32.1,159.8,32.1,159.8z M47.7,140L47.7,140c-0.1,0.2-0.2,0.3-0.3,0.4C47.5,140.3,47.5,140.2,47.7,140z M49,138.3
							c-0.2,0.2-0.4,0.5-0.6,0.7c-0.1,0-0.1-0.1,0.1-0.2C48.4,138.9,48.8,138.5,49,138.3z M45.5,141.3c0.2-0.3,0.3-0.3,0.3-0.4
							c-0.1,0.1-0.2,0.3-0.3,0.5c0,0,0,0,0,0C45.5,141.4,45.5,141.3,45.5,141.3z"/>
						<path class="st1" d="M45.3,141.8c0,0,0,0.1-0.1,0.1C45.2,141.9,45.3,141.9,45.3,141.8c0.1-0.1,0.1-0.1,0.1-0.1
							C45.3,141.7,45.3,141.8,45.3,141.8z"/>
						<path class="st1" d="M50.5,154.7L50.5,154.7C50.5,154.7,50.5,154.7,50.5,154.7C50.5,154.7,50.5,154.7,50.5,154.7z"/>
						<polygon class="st1" points="64.7,113.6 64.6,113.6 64.6,113.8 						"/>
						<path class="st1" d="M41,161.5c0,0-0.1,0-0.1,0.1C40.9,161.6,40.9,161.5,41,161.5z"/>
						<path class="st1" d="M36.8,164.2l-0.6,0.3C36.4,164.4,36.6,164.3,36.8,164.2z"/>
						<path class="st1" d="M33.4,166.1C33.4,166.1,33.4,166.1,33.4,166.1L33.4,166.1L33.4,166.1z"/>
						<path class="st1" d="M75.3,122.3c0,0,0.1-0.1,0.1-0.1C75.5,121.9,75.4,122.1,75.3,122.3z"/>
						<path class="st1" d="M65.3,137.6c0.1-0.2,0.2-0.3,0.3-0.5C65.4,137.3,65.2,137.5,65.3,137.6z"/>
						<polygon class="st1" points="85.5,104.6 85.5,104.6 85.6,104.5 						"/>
						<path class="st1" d="M66.1,136.4c-0.2,0.2-0.4,0.5-0.5,0.7C65.7,136.9,65.9,136.6,66.1,136.4z"/>
						<path class="st1" d="M18.1,172.7l-0.2,0.1c0,0,0,0,0,0L18.1,172.7z"/>
						<path class="st1" d="M17.9,172.8l-0.2,0.1C17.8,172.9,17.9,172.8,17.9,172.8z"/>
						<path class="st1" d="M17.3,173.1l0.4-0.2C17.6,172.9,17.4,173,17.3,173.1z"/>
						<path class="st1" d="M22.9,171L22.9,171C22.9,171,22.9,171,22.9,171z"/>
						<path class="st1" d="M24.4,170.4c-0.3,0.1-0.9,0.3-1.4,0.5l0,0.1C23.2,170.8,24.1,170.7,24.4,170.4z"/>
						<path class="st1" d="M30.5,168.3l-1.2,0.5c0.2,0,0.5-0.1,0,0.2C30.9,168.4,29,169,30.5,168.3z"/>
						<path class="st1" d="M34.1,166.5c-0.6,0.4,0,0.1,0,0.1C34.5,166.3,34.6,166.2,34.1,166.5z"/>
						<path class="st1" d="M57.1,148.4l0,0.1C57.5,148.1,57.1,148.5,57.1,148.4z"/>
						<polygon class="st1" points="60.3,143.7 59.9,144.1 59.8,144.4 						"/>
						<polygon class="st1" points="63.1,141.8 62.9,141.9 63.4,141.2 						"/>
						<path class="st1" d="M89.3,100.2l-0.2,0.1C88.9,100.6,89.1,100.8,89.3,100.2z"/>
						<path class="st1" d="M98.9,81.3c0.2-0.2,0.5-0.7,0.6-1.1C99.2,80.7,99,81.1,98.9,81.3z"/>
						<polygon class="st1" points="65.9,108 66,107.6 65.7,108.3 						"/>
					</g>
				</g>
			</g>
		</g>
	</g>
	<g>
		<path class="st0" d="M158.6,21.5c-0.6,9.2-4.7,18.3-14,24.5c-3.2,2.1-6.5,2-9.7-0.2c-4.1-2.8-6.5-6.9-8.5-11.4
			c-2.7-6-4.3-12.2-3.6-18.9c0.5-4.9,3.4-8.2,7.7-10.2c7.5-3.6,14.9-2.9,22,1.4C157.3,9.7,158.6,14.5,158.6,21.5z"/>
		<g>
			<g>
				<g>
					<g>
						<path class="st1" d="M158.3,21.5c0,0.1,0.1,0,0.1-0.2l-0.2-0.1L158.3,21.5z"/>
						<path class="st1" d="M158.6,20.3c-0.1-0.2-0.2-0.5-0.4-0.3c0.2,0.2,0.1,0.3,0.3,0.5c0,0.2-0.1,0.3-0.1,0.3
							c0,0.1,0,0.3,0.1,0.4c0.1-0.2,0.1-0.5,0-0.9C158.5,20.2,158.5,20.3,158.6,20.3z"/>
						<path class="st1" d="M150.5,5.4L150.5,5.4C150.6,5.5,150.5,5.4,150.5,5.4z"/>
						<path class="st1" d="M139.7,2.8c0.1,0,0.1,0,0.1,0C139.7,2.8,139.6,2.8,139.7,2.8z"/>
						<path class="st1" d="M137.7,2.7c0,0,0.1,0,0.1,0C137.8,2.7,137.7,2.7,137.7,2.7z"/>
						<path class="st1" d="M150.5,5.4l-0.2-0.2C150.2,5.3,150.4,5.3,150.5,5.4z"/>
						<path class="st1" d="M158,17.9c0,0.1,0,0.1,0.1,0.2L158,17.9L158,17.9z"/>
						<path class="st1" d="M154.7,8L154.7,8c0.1,0.1,0.1,0.1,0.2,0.1L154.7,8z"/>
						<path class="st1" d="M157.1,11.1c0-0.1-0.2,0-0.2,0C156.9,11.1,157,11.1,157.1,11.1C157.1,11.2,157.1,11.1,157.1,11.1z"/>
						<path class="st1" d="M158.5,17l0,0.1C158.5,17,158.5,17,158.5,17z"/>
						<path class="st1" d="M152.5,6.4C152.5,6.3,152.5,6.3,152.5,6.4C152.5,6.3,152.5,6.3,152.5,6.4z"/>
						<path class="st1" d="M157.4,25.7C157.4,25.7,157.4,25.7,157.4,25.7C157.4,25.7,157.4,25.7,157.4,25.7z"/>
						<path class="st1" d="M158.6,21.5L158.6,21.5C158.7,21.6,158.7,21.6,158.6,21.5L158.6,21.5z"/>
						<path class="st1" d="M134.2,3.3C134.2,3.3,134.2,3.3,134.2,3.3C134.3,3.2,134.2,3.3,134.2,3.3z"/>
						<path class="st1" d="M124.1,30c0-0.4,0.3,0.5,0.3-0.1C124.3,30,124,29.5,124.1,30z"/>
						<path class="st1" d="M158,17.8l0-0.2C158,17.7,158,17.7,158,17.8z"/>
						<path class="st1" d="M124.4,29.9L124.4,29.9L124.4,29.9C124.4,29.9,124.4,29.9,124.4,29.9z"/>
						<path class="st1" d="M126.8,7c0,0,0.1,0,0.1,0C126.9,7,126.9,7,126.8,7z"/>
						<path class="st1" d="M132.3,4.2l-0.1,0C132.2,4.2,132.2,4.2,132.3,4.2z"/>
						<path class="st1" d="M124.8,9.5c-0.1,0.1-0.1,0.1-0.1,0.2c0,0,0,0,0,0C124.7,9.6,124.7,9.5,124.8,9.5z"/>
						<path class="st1" d="M123.2,12.4L123.2,12.4c0.1-0.1,0.1-0.1,0.1-0.2L123.2,12.4z"/>
						<path class="st1" d="M154.2,34.8c0.1,0,0.1-0.1,0.2-0.1C154.3,34.7,154.5,34.3,154.2,34.8z"/>
						<path class="st1" d="M158.1,17.8C158.1,17.8,158.1,17.8,158.1,17.8L158.1,17.8C158.1,17.9,158.1,17.9,158.1,17.8z"/>
						<path class="st1" d="M125.6,10.2c-0.1,0.1-0.2,0.2-0.3,0.4C125.4,10.5,125.5,10.4,125.6,10.2z"/>
						<path class="st1" d="M137.2,46.4l0.1,0C137.2,46.5,137.2,46.4,137.2,46.4z"/>
						<path class="st1" d="M124.6,11.9c-0.1,0.1-0.1,0.1-0.2,0.2c0,0,0,0,0,0.1L124.6,11.9z"/>
						<path class="st1" d="M154.4,34.7L154.4,34.7L154.4,34.7z"/>
						<path class="st1" d="M155.5,31.6c-0.2,0.4,0.1,0.3,0.1,0.4c-0.2,0.5-0.2,0.2-0.4,0.3c-0.1,0.3,0,0.7-0.2,0.9c0,0-0.1,0-0.1,0
							c0,0.4-0.5,1-0.5,1.5c0,0-0.1,0-0.1,0c0.1,0,0.2,0,0.3,0.1c-0.1,0.2-0.1,0.4-0.2,0.4c0.1-0.1,0-0.1,0-0.2l-0.1,0.2
							c-0.3,0.1,0.1-0.3,0-0.4c-0.2,0.4-0.3,0.9-0.5,1.2c-0.2,0,0.3-0.7,0-0.4l0.3-0.4c-0.4,0.2,0.2-0.3-0.3-0.1
							c-0.4,0.6-0.3,0.7-0.7,1.3c0,0.2,0.1,0,0.1,0.2c-0.4,0.9-0.8,0.4-1,1.1c0,0.2,0.1,0.4-0.3,0.7l0-0.3c-0.4,0.5,0,0.5-0.5,0.9
							c0-0.1,0.3-0.5,0.2-0.4c-0.4,0.3-0.1,0.3-0.3,0.6l-0.2-0.1c-0.4,0.5-0.8,1.2-1.4,1.8c0-0.1,0-0.2-0.1-0.1
							c-0.6,0.8-1.5,1.5-2.3,2l-0.2,0.3c-0.1,0.1-0.2,0-0.1,0c-0.3,0.2,0,0.1-0.1,0.2c-0.2,0.1-0.3,0.1-0.2,0
							c-0.2,0.3-0.5,0.6-0.9,0.9c-0.4,0.3-0.8,0.6-1.1,0.7l0.1-0.1c-0.5,0.3-0.3,0.6-0.8,0.8l0.1-0.1c-1,0.6-2.1,1.2-3,1.1
							c-0.1,0.3-1.1,0.1-1.1,0.3c-0.3-0.1-0.4-0.1-0.6-0.2c-0.1-0.1-0.3-0.1-0.7-0.2c-0.2,0-0.4,0.1-0.7,0.1l0-0.2
							c-0.1,0-0.3,0-0.4,0l-0.1-0.2c-0.1,0-0.2,0-0.3-0.1c0.1,0,0.2,0.2,0.2,0.2c-0.4-0.1-0.9-0.5-0.9-0.6c-0.3-0.1-0.6-0.2-1-0.4
							c0.1,0,0.2,0,0.3,0.1c-0.5-0.2,0-0.2-0.5-0.3c0,0.1-0.1,0.1-0.1,0.1c-0.2-0.2-0.6-0.6-1-0.8l0.1,0c-0.6-0.5-1.3-1-1.9-1.7
							c0.2,0.3,0,0.3-0.2,0.2l0-0.2c-0.2-0.1,0.1,0.2-0.2,0.1c-0.2-0.3,0-0.3,0.2-0.2l-0.3-0.3c0,0,0.1,0,0.2,0
							c-0.2,0-0.3-0.6-0.6-0.7l0,0c-0.6-0.7-0.8-1-1.3-1.6c-0.1,0.1-0.3-0.2-0.5-0.3c-0.3-0.5-0.5-1-0.8-1.6
							c-0.3-0.4-0.2-0.1-0.3-0.2c0.1-0.1-0.2-0.7,0-0.4c-0.4-0.7-0.5-0.9-1-1.7c0,0.1,0,0.2,0,0.2c-0.1-0.2-0.1-0.4-0.1-0.4l0,0
							c-0.7-0.9-0.7-2.5-1.3-3.2l0,0l-0.5-0.8c-0.1-0.4,0.2,0.2,0.1-0.1c-0.6-0.8-0.5-1.5-0.9-2.2c0.2-0.7-0.7-2.1-0.7-3l-0.1,0.1
							c-0.1-0.2,0-0.3,0-0.4c-0.1,0,0,0.2-0.1,0.1c-0.6-1.8-0.6-3.8-0.7-5.6c0-0.7-0.5-0.4-0.3-1.2l0.2,0.2c-0.2-1.4,0-2.8,0-4.2
							c0,0.1,0.1,0.1,0.1,0.2c0.1-0.3,0.1-1,0-1.1c0-0.2,0.1,0,0.2-0.1c0.1-0.3,0-0.7,0.1-0.8c0,0,0,0.1,0,0.1
							c0-0.2,0.2-0.8,0.1-0.7c0.2-0.4,0.2-0.9,0.5-1.2c0-0.3,0.4-0.7,0.3-0.9c0.2,0.1,0.6-0.7,0.7-1c0,0.1,0.2-0.2,0.2,0
							c0.2-0.3,0.4-0.6,0.2-0.6c0.6-0.3,0.7-1.1,1.3-1.1c0.7-0.8,1.5-1.5,2.3-2c0.1,0.2-0.9,0.6-0.7,0.8c0.7-0.6,1.1-1,1.9-1.4
							c0.2-0.1-0.1,0.1-0.1,0.2c0.8-0.5,1.6-0.7,2.4-1.1c0,0-0.1,0.1-0.1,0.1c0.2-0.1,0.4-0.1,0.3-0.2l-0.1,0.1
							c-0.3,0,0.5-0.5,0.5-0.6c-0.2,0.4,0.8-0.2,0.5,0.3c0.1,0,0.2-0.1,0.2-0.2c0.2,0,0.2,0,0.1,0.1c0.5-0.2,0.3-0.3,0.8-0.4
							c0,0-0.1,0.1-0.1,0.2c0.2-0.2,0.5-0.3,0.9-0.4c0,0,0,0.1-0.1,0.1c0.7-0.2,1.2-0.5,2.1-0.5c-0.2,0.2,0.3,0,0.4,0.2l0.4-0.1
							l-0.2-0.1c0.4,0,0.7-0.2,1.1-0.1l-0.3,0.1l0.7-0.1l-0.4-0.1c0.4-0.1-0.1-0.2,0.5-0.2c-0.1,0,0.4,0,0.6,0.1l0,0
							c0.2-0.1,0.4-0.1,0.7,0c0.1,0.1-0.1,0.2,0,0.2c0.2-0.2,0.9,0,1.2-0.1c-0.1,0-0.1,0.1-0.1,0.1l0.2-0.1c0.2,0.1,0.2,0.1,0.2,0.2
							c0.6,0.1-0.1-0.3,0.5-0.1c-0.1,0,0,0-0.1,0c0.6,0.2,1.3,0.1,1.9,0.3c0.1,0.2-0.5-0.1-0.4,0.1c0.9,0.2,1.8,0.2,2.6,0.6
							l-0.1-0.1c0.2-0.2,0.6,0.3,1,0.4C148,4.9,148,5,148,5c0.5,0.2,1.1,0.4,2,0.7l-0.1,0c0.3,0.2,0.8,0.4,1.1,0.6
							c0.1,0,0.3,0.1,0.2,0c0.8,0.9,2,0.9,2.6,1.8C153.7,8,153.6,8,153.6,8c0.2,0.2,0.5,0.3,0.7,0.5c0-0.1,0-0.1-0.1-0.3
							c0.1,0,0.3,0.2,0.5,0.3c-0.3-0.2-0.1,0.1-0.1,0.3c0,0,0.1,0,0.1-0.1c0.2,0.5,0.2-0.1,0.5,0.5l-0.1,0c0.2,0.1,0.4,0.3,0.5,0.5
							c0,0.2-0.2-0.2-0.3-0.1c0.2,0.3,0.6,0.4,0.7,0.7c-0.1-0.1-0.2-0.3-0.4-0.4c0.1,0.4,0.1,0.4,0.2,0.6l0,0l0.2,0.5
							c0-0.1,0-0.1,0-0.1c0.5,0.2,0.5,0.7,0.9,1.2c-0.4-0.4-0.2,0-0.3,0c0,0.2,0.1,0.4,0,0.3c0.2,0.2,0.1,0.5,0.4,0.8
							c0,0,0.1,0.3,0,0.3c0.2,0.3,0.1-0.1,0.1-0.1c0.3,0.5,0.2,1.3,0.5,2c0.2,0.7,0.4,0.8,0.6,1.4c-0.1,0.2-0.2-0.2-0.2-0.2
							c0,0.4,0,0.6,0.1,0.9c0-0.1-0.1,0-0.1,0.1c0,0.3,0.2,0.2,0.1,0.5c-0.1-0.1-0.2-0.1-0.2-0.3c0.1,0.3,0.2,0.6,0.2,0.9
							c-0.1,0.1-0.1-0.2-0.2-0.3c0.1,0.4,0.1,0.9,0.3,1.1l0-0.2c0,0.1-0.1,0.1-0.1,0c-0.1-0.3,0-0.5,0.1-0.5l0,0.2
							c0.3-0.3-0.1-0.9-0.1-1.4l0.2,0.2l-0.2-0.5c0-0.1,0.2-0.2,0.2,0c0.1-0.3-0.1-0.3,0-0.6c0,0,0,0,0,0l-0.1-0.3
							c0.1,0.1,0.1-0.1,0.1,0.1c0-0.6-0.3-0.9-0.2-1.2l0,0c-0.2-0.8-0.2-0.1-0.5-0.6l0.3-0.5l-0.2,0c0-0.1,0-0.2,0-0.2
							c-0.2-0.3-0.1,0.1-0.2-0.1c0-0.4-0.4-1.1-0.2-1.2c-0.2-0.1,0,0.4-0.2,0c0.2-0.2-0.2-0.5-0.2-0.8c0.2,0.1,0.2,0.4,0.2,0
							c-0.3-0.1-0.2-0.7-0.4-1c-0.2,0.1-0.4-0.6-0.7-1c0.1,0-0.5-0.9-0.8-1.3l0,0c-0.2,0.1-0.5-0.4-0.8-0.6c0.1-0.1,0.2-0.1,0.4,0.1
							l-0.3-0.2c-0.1,0-0.2-0.1-0.4-0.2l0.2,0c-0.4-0.3-0.8-0.5-1.3-0.9c-0.1,0.1,0.2,0.6-0.4,0.3c0-0.1,0.1-0.2,0.2-0.1
							c-0.1,0-0.2-0.1-0.3-0.1l0.3,0c-0.2-0.2-0.2,0-0.3-0.1c0.1-0.1-0.1-0.1,0-0.2c0.1,0,0.1,0.1,0.2,0.2c-0.2-0.2-0.4-0.4-0.5-0.5
							c0,0.1-0.1,0.1-0.2,0c-0.4-0.2-0.1-0.2-0.3-0.4c-0.1,0-0.4-0.2-0.4-0.1c-0.1-0.1-0.1-0.1-0.1-0.2c-0.2-0.1-1-0.5-0.8-0.2
							l0.1,0l0,0l0,0l0,0c-0.8-0.2-1.4-0.8-2.2-1l0,0c-0.5-0.1-1-0.3-1.3-0.3c-0.1,0-0.3-0.2-0.2-0.2c-0.4-0.1-0.4,0-0.9-0.3
							c0.4,0-0.1-0.1,0.4,0c-0.4-0.2-0.5-0.3-1-0.3c0.2-0.1-0.3-0.2-0.5-0.3l0.3,0.2c-0.2,0-0.5-0.1-0.7-0.2l0.2-0.1
							c-0.9-0.4-1.8,0-2.4-0.4c-0.3,0.1,0.5,0.1,0.3,0.2c-0.4-0.1-0.9-0.4-1-0.3c-0.6-0.1-0.6,0.2-1.2,0.1c0.1,0.1,0.2,0.2-0.3,0.3
							c-0.4,0-0.5-0.2-0.3-0.3c0.1,0,0.2,0,0.2,0c0.1,0,0.3-0.1,0.2-0.1l-0.1,0.1c-0.2-0.1-0.8,0-0.7-0.1c-0.3,0.1-0.1,0.1,0.1,0.1
							c-0.6-0.1-0.9,0.1-1.5,0.1c0.1,0,0.2,0.1,0.1,0.1c-0.9,0-0.4,0.2-0.9,0.3c-0.3,0,0.1-0.2-0.5-0.1c-0.4,0-0.1-0.1,0-0.2
							C136,3,135.5,3,135.2,3l0.3-0.1C135.3,3,135.2,3,135.1,3l0.2,0.1c-0.2,0-0.3,0-0.3,0c-0.1,0.1,0.2,0.2-0.1,0.3
							c-0.2,0-0.6,0.2-0.7,0.1c0.7-0.1-0.1-0.1,0.4-0.3c-0.1,0.1-0.2,0.1-0.4,0.1c0,0,0,0,0.1-0.1c-0.7,0.1-0.2,0.3-0.9,0.5
							c0.1-0.1-0.2-0.1-0.3-0.1c0.3-0.1,0.2,0.1,0,0.2c-0.4,0.1-0.4,0.2-0.6,0.3l0.3-0.1c-0.1,0.1-0.3,0.2-0.5,0.3
							c0-0.1,0.2-0.1,0.1-0.1c-0.3,0.3-0.8,0.1-1.2,0.4c-0.2,0-0.1-0.1-0.3-0.1c-0.4,0.3-0.6,0.1-1,0.5c0.2,0,0.2,0-0.1,0.3l0.8-0.5
							l-0.5,0.4c0.2-0.1,0.5-0.3,0.6-0.4c-0.2,0.2-0.2,0.2,0,0.2c-0.4,0-0.6,0.4-1.1,0.5l-0.1-0.3c-0.6,0.2-1,0.7-1.7,1.2l0.3-0.1
							c0,0.2-0.4,0.3-0.6,0.5c0-0.1-0.2,0-0.3,0c0.1,0-0.5,0.4-0.4,0.6l-0.4,0.2c-0.5,0.5-0.4,0.8-0.8,1.2c0-0.2-0.2,0,0-0.4
							c-0.1,0.2-0.3,0.3-0.2,0.4c-0.1,0.1-0.3,0.6-0.5,0.7c0,0.1,0,0.2-0.1,0.4c0,0,0,0,0,0c0,0-0.2,0.4,0.1,0.2
							c-0.7,0.4-0.9,1.7-1.3,2.1c-0.1,0.5-0.3,1-0.4,1.5c0,0,0,0,0-0.1c-0.2,0.6,0.2,0.4,0,1.1c-0.2,0.3,0-0.4-0.1-0.2
							c-0.3,0-0.1,0.8-0.3,1.3l0-0.1c-0.1,0.3,0,0.9,0,1.4c0,0,0,0,0,0c0.1,0.4,0.2,1.1,0.2,1.7c-0.1-0.2-0.1-0.2-0.2-0.1
							c0,0.2,0.2-0.1,0.2,0.4c-0.1,0.2-0.1,0.5-0.3,0.6l0-0.5c-0.2,0.2,0,0.6,0,0.8l-0.1,0c0,0.7,0.3,0.7,0.3,1.5l0.1-0.1
							c0.2,0.4-0.1,0.4,0.1,0.8l-0.2,0.1c0.1,0.3,0.3,0.9,0.4,1.4c-0.2-0.3-0.4-0.8-0.5-1.2c0,0.3,0.1,0.9,0.3,1
							c0-0.1-0.1-0.2-0.1-0.3c0.2,0.3,0.3,0.7,0.4,1.3c-0.4,0,0.2,1.4,0,1.9c0.4,0.9,0.4,1.9,0.8,2.9c0.2-0.5,0.1,0.3,0.4,0.2
							c0.1,0.2,0.1,0.3,0.1,0.4l0.1,0.8c0,0.2-0.1-0.2-0.2-0.2c0.2,0.6,0,0.3,0,0.7c0.1-0.1,0.2,0.1,0.3,0.5l0-0.5
							c0.4,0.7,0,0.7,0.4,1.4l-0.2-0.2c0.2,0.4,0.6,1.4,1,1.7c0,0.1,0,0.2-0.1,0c0.4,0.9,1.1,1.9,1.4,2.7l-0.1,0
							c0.1,0.2,0.3,0.2,0.3,0.5c0,0-0.1,0-0.1,0c0.1,0.1,0.3,0.4,0.4,0.6l-0.2-0.1c0.4,0.9,0.9,1.2,1.4,1.9
							c-0.2,0.1,0.2,0.8,0.4,1.1l0,0c0.6,1,1.3,1.5,2,2.2c0.2,0.7,1.4,1.7,2.2,2.5c-0.1-0.1,0.1-0.1,0.3,0c0.2,0.2,0.6,0.3,0.5,0.4
							l-0.1-0.1c0,0.3,0.5,0.5,0.8,0.8l0.2-0.2c0.3,0.5,1,0.8,1.6,1c0.6,0.2,1.2,0.3,1.4,0.6c0.3,0,0.6,0.1,0.9,0l0,0.1
							c0.7,0.1,1.1,0.2,2,0l-0.2,0.1c0.5,0,0.6-0.5,1-0.6l0.2,0.2c0.8-0.2,1.8-0.4,2.4-1c0,0,0,0.1-0.1,0.2c0.2-0.1,0.5-0.3,0.8-0.5
							c0.3-0.2,0.4-0.4,0.3-0.4c0.1,0.1,0.7-0.5,1-0.8l0,0.2c0.2-0.4,0.2-0.4,0.6-0.8c0.1-0.1,0.2,0,0,0.1c0.4-0.2,0.2-0.3,0.6-0.6
							l-0.1,0.2c0.3-0.3,0.3-0.3,0.4-0.5c0.2-0.2,0.6-0.5,0.8-0.5c0-0.1,0.1-0.3,0.3-0.5c0.1,0,0,0.1,0,0.1c0.6-0.4,0.7-0.8,1.1-1.1
							c0,0,0.1,0,0.1,0c-0.4,0.4-0.7,0.7-0.7,0.7c0.1,0.1,0.4-0.2,0.3,0.2c0.2-0.3,0.5-0.9,0.9-1.2c0,0,0,0,0.1,0l0,0
							c0.1-0.1,0.1-0.1,0.2-0.2c0.1-0.1,0.2-0.1,0.3-0.2c0.1,0,0.4-0.4,0.5-0.5c-0.1-0.1,0.1-0.3-0.2-0.2c0,0,0,0-0.1,0.2
							c0,0,0,0.1-0.1,0.1l0,0c-0.1,0.1-0.2,0.3-0.4,0.4c0.1-0.2,0.1-0.4,0.4-0.5c0-0.1,0-0.3,0-0.4c0.4-0.1,0.8-0.5,1-0.5
							c0.4-0.6,1-1.4,1-1.9c0.1-0.2,0.2-0.1,0.3-0.2c0,0.1-0.1,0.2-0.1,0.3c0.2-0.4,0.6-1,0.5-1.2c0.3-0.4,0,0.3,0.3-0.3l0,0.1
							c0.5-0.5,0.6-1.1,0.8-1.6c0.2-0.6,0.3-1.1,0.8-1.7c-0.1,0.1-0.1,0.1-0.1,0.1c0.9-1.5,1.2-3.3,1.9-4.9c0.2-0.5,0.1-0.5,0.1-0.8
							l0.2-0.1l0-0.5c0.1-0.7,0.6-1.1,0.5-2.1l-0.1,0.1c0.1-0.3,0.1-1,0.2-1c0,0-0.1-0.1,0-0.2l0.1,0l0-0.8c0.1-0.6,0.3,0.1,0.4-0.8
							c0-0.3-0.1-1-0.2-0.8c0,0.1-0.1,0.3-0.2,0.3l0-0.3c-0.2-0.1-0.4-0.3-0.7,0.4l0.1,0.5l-0.1,0.2l0-0.4c-0.1,0.2,0,0.4,0,0.6
							c-0.1,0-0.1,0.1-0.1,0.2c0.1,0.2,0.1,0.3,0.2,0.5c-0.1,0-0.1-0.2-0.2,0.1c0.1,0.2,0.2-0.2,0.2,0.2c-0.1,0.2-0.2,0.1-0.2,0.4
							c-0.1,0-0.1,0-0.1-0.2c0,0.3-0.1,0.7,0,0.8c-0.2,0.2-0.1,0.9-0.3,0.8c0,0.1,0.1,0.5,0.1,0.7c-0.2-0.5-0.2,0.9-0.5,0.7
							c0.2,0.4-0.2,1.1-0.2,1.7c0,0,0-0.1,0-0.1c-0.1,0.3-0.2,0.4-0.3,0.5c0.2,0.1,0.1,0.6,0.1,0.9c-0.3,0.3-0.1-0.3-0.4-0.2
							c0.2,0-0.1,0.7,0.1,0.6c-0.2,0.2-0.1,0.2-0.3,0.3c0.2,0.1-0.1,0.3,0,0.6c-0.3,0.4-0.3,0-0.4,0.5
							C155.5,32,155.5,31.6,155.5,31.6z M149.8,41.1L149.8,41.1c0.1-0.1,0.1-0.1,0.2-0.2C150,41,149.9,41,149.8,41.1z M149.2,41.8
							c0.1-0.1,0.2-0.2,0.3-0.3c0.1,0,0.1,0.1,0,0.1C149.5,41.6,149.3,41.7,149.2,41.8z M151.3,41c-0.1,0.1-0.1,0.2-0.2,0.1
							C151.2,41.1,151.2,41,151.3,41L151.3,41C151.3,40.9,151.3,41,151.3,41z"/>
						<path class="st1" d="M151.3,40.7C151.3,40.6,151.3,40.6,151.3,40.7C151.3,40.6,151.3,40.6,151.3,40.7L151.3,40.7L151.3,40.7z"
							/>
						<path class="st1" d="M150.6,5.5L150.6,5.5C150.6,5.5,150.6,5.5,150.6,5.5C150.6,5.5,150.6,5.5,150.6,5.5z"/>
						<polygon class="st1" points="138.1,46.7 138.1,46.7 138.2,46.7 						"/>
						<path class="st1" d="M154.7,8.8C154.7,8.8,154.7,8.9,154.7,8.8C154.7,8.9,154.7,8.9,154.7,8.8z"/>
						<path class="st1" d="M156,10.6l0.1,0.3C156.1,10.7,156.1,10.7,156,10.6z"/>
						<path class="st1" d="M156.8,12.1C156.8,12.1,156.8,12.1,156.8,12.1L156.8,12.1L156.8,12.1z"/>
						<path class="st1" d="M132.7,5.1L132.7,5.1C132.5,5.2,132.6,5.1,132.7,5.1z"/>
						<path class="st1" d="M140.7,3.3c-0.1,0-0.2,0-0.3,0.1C140.5,3.4,140.6,3.4,140.7,3.3z"/>
						<polygon class="st1" points="125.6,10.2 125.6,10.2 125.6,10.2 						"/>
						<path class="st1" d="M140,3.4c0.1,0,0.3,0,0.4,0C140.3,3.4,140.1,3.4,140,3.4z"/>
						<path class="st1" d="M158.1,19.4L158.1,19.4C158.1,19.5,158.1,19.5,158.1,19.4L158.1,19.4z"/>
						<path class="st1" d="M158.1,19.5L158.1,19.5C158.2,19.5,158.2,19.5,158.1,19.5z"/>
						<path class="st1" d="M158.2,19.8l0-0.2C158.2,19.6,158.2,19.7,158.2,19.8z"/>
						<path class="st1" d="M158,17.1L158,17.1C158,17.1,158,17.1,158,17.1z"/>
						<path class="st1" d="M157.9,16.4c0,0.2,0,0.4,0,0.7l0,0C157.9,17,158,16.6,157.9,16.4z"/>
						<path class="st1" d="M157.9,13.4L158,14c0-0.1,0.1-0.3,0.1,0C158.1,13.2,158.1,14.2,157.9,13.4z"/>
						<path class="st1" d="M157.3,11.6c0.2,0.3,0.1,0,0.1,0C157.3,11.4,157.2,11.4,157.3,11.6z"/>
						<path class="st1" d="M146.8,3.8l0.1-0.1C146.6,3.7,146.8,3.8,146.8,3.8z"/>
						<path class="st1" d="M144.2,3.8l0.2,0.1l0.1-0.1C144.4,3.8,144.3,3.8,144.2,3.8z"/>
						<polygon class="st1" points="142.8,2.7 142.9,2.7 142.5,2.7 						"/>
						<path class="st1" d="M123.3,11.8l0.2,0C123.5,11.6,123.4,11.5,123.3,11.8z"/>
						<path class="st1" d="M122.5,21.5c-0.1,0.1-0.1,0.4,0,0.6C122.4,21.8,122.5,21.6,122.5,21.5z"/>
						<path class="st1" d="M135.3,46.9c-0.1,0-0.1,0-0.2-0.1l0.4,0.2L135.3,46.9z"/>
					</g>
				</g>
			</g>
		</g>
	</g>
</g>
</svg>
