<?xml version="1.0" encoding="utf-8"?>
<!-- Generator: Adobe Illustrator 21.0.2, SVG Export Plug-In . SVG Version: 6.00 Build 0)  -->
<svg version="1.1" id="Layer_1" xmlns="http://www.w3.org/2000/svg" xmlns:xlink="http://www.w3.org/1999/xlink" x="0px" y="0px"
	 viewBox="0 0 280 245" style="enable-background:new 0 0 280 245;" xml:space="preserve">
<style type="text/css">
	.st0{fill:#4D4D4D;}
	.st1{fill:#D2D2D2;}
</style>
<g>
	<g>
		<path class="st0" d="M156.3,229.8c2,0.2,4,0.3,5.9,0.7c12.7,2.6,25.5,3.6,38.3,3.4c11.4-0.2,22.7-1.6,33.5-5.4
			c7-2.5,13.3-6,18.1-11.8c1.2-1.4,2.2-3.1,3-4.7c2-4.2,0.9-8-3.5-9.4c-4.3-1.4-9-2.3-13.5-2.4c-8.6-0.2-17,1.3-25.3,3.4
			c-14.8,3.8-29.6,7.7-44.3,11.7c-17.5,4.7-35,10-52.6,14.4c-21,5.3-42.3,9.3-64.1,8.4c-10.6-0.4-21-2-30.3-7.5
			c-9-5.3-15.3-12.9-17.7-23.3c-0.8-3.4,0.5-6.4,2.2-9.1c2.2-3.7,5.6-6.1,9.4-8c8.3-4.1,17.3-5.3,26.5-5.6
			c20.5-0.7,38.7,6,55.6,16.8c4.9,3.2,9.6,6.8,14.4,10.2c0.8,0.5,1.7,0.9,2.5,1.3c-0.3,0.5-0.6,0.9-0.9,1.4
			c-4.1-0.6-8.4-0.8-12.4-1.9c-9-2.5-18.1-5.2-26.9-8.3c-9.7-3.4-19.4-6.4-29.6-7.4c-3.7-0.4-7.7,0.1-11.3,1.1
			c-4.7,1.2-6.4,4.9-5.2,9.6c2.1,8,6.8,13.7,14.9,16.6c7.9,2.9,16,4.1,24.2,4.4c19.4,0.8,38.8-0.5,57.6-5.6
			c16.7-4.5,33.1-10.4,48.9-17.5c8.6-3.9,16.8-8.5,25.2-12.6c6.6-3.2,13.6-5.3,20.8-6.4c11.1-1.6,22.2-1.6,33.2,0.9
			c6.8,1.6,13.5,3.6,18.9,8.4c6.1,5.4,7.6,11.5,3.4,18.6c-5.2,8.9-13.3,14.7-22.2,19.4c-10.5,5.6-21.9,7.8-33.7,8.8
			c-11.5,1-22.8-0.7-34.2-2.5c-7.8-1.2-15.5-2.6-22.7-5.7c-2.2-1-4.3-2.2-6.4-3.3C156.1,230.4,156.2,230.1,156.3,229.8z"/>
		<g>
			<g>
				<g>
					<g>
						<path class="st1" d="M157,230c0.1-0.5-0.2-0.3-0.6,0.9l-0.2-0.5c0.1,0,0.1,0.1,0.2,0.1l1.1,0.2l-1.1-0.6l0.3,0.9L157,230z"/>
						<path class="st1" d="M164,234.7c1.7,0.5,3.7,0.9,2.7,0.2c-1.7-0.3-2.1-0.5-3.9-0.9c-1.4-0.5-2.3-1.2-2-1.2
							c-0.5-0.2-2-1.1-2.8-1.3c1.6,1.1,3.7,2.3,6.2,3.1C164.7,234.8,164.2,234.7,164,234.7z"/>
						<path class="st1" d="M269.4,193.1c0.3,0.2,0.5,0.4,0.7,0.6C270,193.5,269.7,193.3,269.4,193.1z"/>
						<path class="st1" d="M183.3,199.7c0.6-0.3,0.8-0.5,0.9-0.5C183.6,199.5,183.2,199.7,183.3,199.7z"/>
						<path class="st1" d="M169.3,205.9c0.3-0.1,0.6-0.2,0.8-0.3C169.9,205.7,169.5,205.8,169.3,205.9z"/>
						<path class="st1" d="M269.4,193.1c-0.6-0.5-1.3-1-2-1.4C267.2,191.7,268.5,192.3,269.4,193.1z"/>
						<path class="st1" d="M183.5,238.7c-0.5-0.1-0.9-0.1-1.3-0.1C182.6,238.7,183,238.7,183.5,238.7
							C183.5,238.7,183.5,238.7,183.5,238.7z"/>
						<path class="st1" d="M265.5,226.3l-0.6,0.5c-0.1,0.2-0.3,0.3-0.4,0.5L265.5,226.3z"/>
						<path class="st1" d="M238.2,240c0.7-0.2,0.8-0.5,1.1-0.7c-0.3,0.2-0.8,0.4-1.4,0.6C237.9,240,238,240,238.2,240z"/>
						<path class="st1" d="M190.1,240.9l-0.9-0.1C189.5,240.8,189.8,240.8,190.1,240.9z"/>
						<path class="st1" d="M278.1,208.3c0.1,0,0.1-0.2,0.1-0.3C278.2,208.1,278.2,208.2,278.1,208.3z"/>
						<path class="st1" d="M191.3,235.1C191.3,235.1,191.3,235.1,191.3,235.1C191.1,235.1,191.1,235.1,191.3,235.1z"/>
						<path class="st1" d="M156.4,229.7l0.5,0c0.1,0,0.1-0.1,0.1-0.1L156.4,229.7z"/>
						<path class="st1" d="M143.1,215.6c0.1,0,0.1,0,0.1,0C143.9,215.3,143.5,215.5,143.1,215.6z"/>
						<path class="st1" d="M84.7,192.9c2.6,1.5-4.5-1.7-0.6,0.4C83.8,193,87.9,194.7,84.7,192.9z"/>
						<path class="st1" d="M184.3,238.9c0.4,0.1,0.8,0.1,1.2,0.2C185,239,184.6,238.9,184.3,238.9z"/>
						<path class="st1" d="M84.1,193.3L84.1,193.3l0.4,0.2C84.3,193.4,84.2,193.3,84.1,193.3z"/>
						<path class="st1" d="M80.1,227.2c0.1,0,0.4,0.1,0.7,0.1C80.7,227.3,80.6,227.3,80.1,227.2z"/>
						<path class="st1" d="M127.5,221l-1.2,0.3C126.8,221.2,127.2,221.1,127.5,221z"/>
						<path class="st1" d="M55.2,226.2c-0.6-0.1-0.8-0.2-1.7-0.3c0.1,0,0.2,0.1,0.3,0.1C54.1,226,54.5,226,55.2,226.2z"/>
						<path class="st1" d="M32.8,215.6c0.1,0.1,0.1,0.3,0.2,0.4c0.2,0.2,0.4,0.4,0.5,0.6C33.3,216.3,33,215.9,32.8,215.6z"/>
						<path class="st1" d="M255.3,203.2c0.4,0.5,0.6,1,0.7,1.3c-0.1-0.3,0.6,0.6,0.7,0.9c0.1,0.2,0.1,0.2,0-0.1
							C256.6,205,256.3,204.2,255.3,203.2z"/>
						<path class="st1" d="M183.5,238.9c0.2,0,0.4,0,0.8,0c-0.3,0-0.6-0.1-0.9-0.1C183.4,238.8,183.3,238.8,183.5,238.9z"/>
						<path class="st1" d="M53.8,228.2c-1.4-0.3-2.8-0.6-4.1-0.9C50.8,227.6,52.3,227.9,53.8,228.2z"/>
						<path class="st1" d="M72.5,236.3l0.9-0.1C73.1,236.3,72.7,236.3,72.5,236.3z"/>
						<path class="st1" d="M37.8,223c-0.6-0.5-1.3-1-1.9-1.5c-0.2-0.1-0.3-0.2-0.5-0.2C36.1,221.8,36.9,222.4,37.8,223z"/>
						<path class="st1" d="M256,204.5C256,204.5,256,204.5,256,204.5C256,204.5,256,204.5,256,204.5z"/>
						<path class="st1" d="M241.6,227c1.8-0.9,2.2-1.3,2.2-1.4c0-0.1-0.3-0.1,0-0.4c2-1.3,2.5-1.6,2.7-1.6c0.2,0,0.1,0.3,0.8-0.2
							c2.4-1.9,3.8-3.8,5.3-5.6c0.2-0.1,0.5-0.4,0.2,0c0.9-1.3,2.4-3.3,3.4-5.6c0.5-1.2,0.9-2.5,0.9-3.8c0-1.3-0.3-2.6-0.9-3.4
							c-0.1-0.3-0.2-0.4-0.2-0.5c0.2,0.7,0.1,0.9-0.1,0.8c-0.4-0.9-1.1-1.5-1.7-1.9c-0.6-0.4-1.1-0.7-1.4-0.9c0.5,0.2,0.8,0.4,1,0.5
							c0.2,0.1,0.4,0.2,0.6,0.3c-0.5-0.4-1.2-0.7-1.8-0.9c-0.8-0.5-0.1-0.3,0.7,0.1c0.8,0.4,1.7,1.2,1.8,1.1
							c-0.8-0.7-1.7-1.3-2.7-1.6c-1-0.3-1.9-0.5-2.8-0.8c-1.8-0.4-3.6-0.7-4.9-1c-0.3-0.2,1.4,0,2.6,0.3c1.2,0.3,2.1,0.4,0.3-0.1
							c1.4,0.4,2.8,0.8,4.2,1.3c-1.5-0.8-0.9-0.5-0.2-0.3c0.3,0.1,0.7,0.2,0.8,0.2c0.1,0-0.1-0.2-0.8-0.5c-2.8-0.9-4.4-1.2-6-1.4
							c-1.6-0.2-3.2-0.5-6.1-0.7c-1.3,0.1,0.4,0.3-0.9,0.4c-4.1,0.1-5.6,0-7-0.1c-1.3-0.1-2.4-0.2-5.4,0.4c-1.5,0.4-2,0.9-6.2,1.5
							l1.3-0.6c-2.7,0.5-3.5,0.8-4.2,1.1c-0.8,0.3-1.6,0.5-4.4,1.1c0.9-0.4,4.2-1.2,3.3-1c-3.7,0.6-2.5,0.8-5.3,1.6l-0.7-0.2
							c-5.6,1.6-11.8,3.3-18,5.1c0.3-0.2,1.4-0.6-0.1-0.3c-7.8,2.2-16.8,4.4-24.4,6.2l-2.8,1.1c-0.7,0.2-1.3,0.2-0.6,0
							c-3,0.7-0.1,0.2-1.5,0.7c-1.7,0.5-2.3,0.5-1.2,0.1c-5.1,1.7-14.6,4.7-20.2,5.9l1-0.4c-4.3,1.1-4.6,1.9-8.7,2.7l0.7-0.3
							c-9.3,2.4-19.5,5.4-26.7,6.6c-1.3,0.7-9.3,1.9-9.8,2.5c-2.7,0.4-3.7,0.5-4.9,0.6c-1.2,0.1-2.8,0.3-6.6,0.9
							c-2,0.3-3,0.8-5.5,1.2l-0.1-0.3c-1.1,0.3-2.2,0.5-3.4,0.7l-1.9-0.2l-2.4,0.3c0.9-0.1,2-0.1,1.9,0c-3.7,0.6-9,0.5-9.1,0.3
							c-1.5,0.1-2.9,0.2-4.4,0.3c-1.5,0.1-2.9,0.1-4.4,0.2c0.2-0.1,1.7-0.2,2.8-0.3c-4.7,0.3-0.8-0.3-5.1,0c0.6,0.1-0.3,0.2-0.4,0.2
							c-1.1-0.1-2.8-0.2-4.7-0.3c-1.9-0.1-4-0.3-5.8-0.4l0.7-0.1c-6.4-0.7-13.5-2-19.9-5.2c1.1,0.6,1.5,0.9,1.4,1
							c-0.1,0.1-0.8-0.1-1.7-0.6l-0.6-0.7c-1.3-0.4,1.9,1.1-0.7,0c-2.3-1.4-1.4-1.2,0-0.5c-1-0.5-1.9-1-2.9-1.6
							c-0.1-0.2,0.6,0.2,0.8,0.2c-0.6-0.3-1.8-1.1-2.9-2c-1.1-0.9-2.3-1.9-3.1-2.5l-0.1-0.2c-2.6-2.4-4.2-4.4-5.5-6.4
							c-1.3-2-2.4-4-3.4-6.7c-0.3,0-1-2.2-1.6-3.8c-0.4-2,0-4.1,1-6.1c0.5-1,1.1-2.1,1.8-3.1c0.7-1,1.5-1.9,2.4-2.7
							c1.2-1.2,1.5-1.4,1.4-1.5c0-0.1-0.3,0,0.3-0.5c0.2,0,1.3-0.7,2.2-1.1c0.9-0.4,1.4-0.7,0.3,0c2.7-1.5,4.5-2.2,6.6-3
							c2.1-0.8,4.3-1.5,8.2-2.4c-0.9,0-1.8,0.2-1.3,0c1.4-0.3,3.3-0.5,3.1-0.3l-0.4,0.1c4.4-0.9,9.6-1.1,14.5-0.9
							c4.9,0.2,9.5,0.8,13.1,1.1l-0.4,0c2.4,0.3,4.9,0.7,7.3,1.2c3.3,0.9-2-0.3,0.4,0.5c3.9,0.7,6.9,1.8,9.7,2.8
							c1.4,0.5,2.7,1.1,4.1,1.7c1.4,0.6,2.8,1.2,4.3,1.8c2.1,1.4,6.1,3.4,10.2,5.8c2,1.2,4.1,2.4,6,3.7c1.9,1.3,3.5,2.5,4.9,3.7
							l-0.2-0.4c1.5,0.9,1.7,1.4,2.7,2.2c-0.1-0.2-1.5-1.3-0.5-0.7c1,0.7,2,1.4,3,2.1l1.1,0.8c0.1,0.1,0.3,0.2,0.5,0.3
							c0.7,0.1,0.1,0.8-0.3,0.5c-1.1-0.1-2.2-0.3-3.3-0.4c-1.6-0.2-3.2-0.5-4.7-0.9c-1.5-0.4-3.1-0.9-4.7-1.4
							c-6.3-1.9-12.6-3.9-18.8-6.1c-5.3-1.8-3.3-0.2-10-2.9l2,0.3c-5.5-1.6-11.2-3.4-17-4.6c-2.9-0.6-5.8-1.1-8.7-1.4
							c-3-0.3-6-0.1-8.8,0.4c0.7-0.2,0.7-0.3,1.8-0.4c-1.2,0-3.5,0.4-5.4,1c-1,0.3-1.9,0.8-2.6,1.2c-0.6,0.4-0.9,0.8-0.9,0.8
							c-0.8,0.7-0.9,0.8-0.9,0.7c0,0-0.1-0.1-0.5,0.4c-1,1.1-1.5,3-1.5,4.5c0,1.6,0.4,2.9,0.4,3.6c0,0.2-0.3-0.7-0.4-1.2
							c0.2,0.9,0.7,2.7,1.2,4.1c0.5,1.4,1.1,2.4,0.9,1.6c0.8,2,2,3.9,3.3,5.4c1.3,1.6,2.7,2.8,4.1,4c1,0.6,2.6,1.6,4.1,2.3
							c1.5,0.8,2.9,1.2,3.3,1.1c-0.2,0.2,1.5,0.9,3.7,1.5c2.2,0.6,4.8,1.1,6.1,1.3c-0.9,0,2.3,0.6,1.2,0.6c3,0.5,5.9,0.7,5.4,0.5
							c2.8,0.6,5.7,0.7,8.2,0.7c2.5,0,4.7,0,6.3,0.3c9.1-0.1,17.5-0.7,25.6-1.7c-0.1,0.2-2.4,0.5-4.5,0.7c-2.2,0.2-4.3,0.3-4.1,0.6
							c3.9-0.3,6.9-0.8,9.9-1.2c3-0.5,6-0.9,9.8-1.5c2-0.3-1.1,0.4-1.7,0.6c7.6-1.4,14.7-3,21.2-5.1c0,0-0.7,0.3-1.4,0.5
							c1.3-0.4,3-0.8,2.8-1l-1.3,0.4c-2.2,0.3,5-2.1,5.2-2.4c-2,1.3,6.5-1.9,3.3-0.1c0.8-0.3,1.9-0.7,1.6-0.8
							c1.3-0.4,1.7-0.4,0.5,0.1c4.6-1.6,2.9-1.3,7-2.7c0,0.1-0.8,0.4-1.2,0.7c2-0.9,4.1-1.8,7.6-3.1c-0.2,0.1,0.2,0.1-0.8,0.4
							c6-2.3,10-4.4,16.4-7c-1.7,1.2,2.2-0.8,2.7-0.6c1.1-0.5,2.3-1.1,3.4-1.7l-1.4,0.5c3-1.4,5.5-2.9,8.1-4.1l-2.1,1.2l5.5-2.8
							l-3.2,1.5c2.9-1.7-0.5-0.3,3.4-2.2c-0.8,0.4,2.9-1.5,4.5-2.1l0,0c1.4-0.8,2.8-1.7,5-2.7c0.6-0.2-0.3,0.6,0.1,0.5
							c0.6-0.5,2.4-1.4,4.1-2.2c1.8-0.8,3.6-1.6,4.5-2.1c-0.6,0.3-0.6,0.5-0.3,0.5l1.2-0.7c1.4-0.4,1.7-0.5,1.5-0.2
							c4.3-1.3-1.5-0.1,3.7-1.4c-0.4,0.1-0.2,0.1-1,0.4c5.2-1.5,10.2-2.5,15.2-2.9c0.8,0.1-0.3,0.2-1.4,0.4
							c-1.1,0.1-2.1,0.3-1.2,0.3c7.1-1,14.8-1.5,21.8-0.6l-1.3-0.2c1-0.4,5.1,0.8,8.6,1.3c-0.8-0.1-1.2,0.1-0.9,0
							c2.3,0.5,4.7,1,7.3,1.7c2.6,0.7,5.5,1.6,8.7,3.3c-0.3-0.1-0.6-0.2-0.8-0.3c1.2,0.7,2.8,1.7,4.2,2.8c1.5,1.1,2.8,2.4,3.7,3.6
							c0.7,0.6,1.6,2,1.2,1c1.2,2,1.9,4.1,2,6.2c0.1,1.1,0,2.1-0.2,3.2c-0.2,1-0.5,2.1-0.9,3c-1.7,3.9-4.2,7.4-7.3,10.1
							c0.7-0.7,1.5-1.8,1-1.2c-1.6,1.7-3.2,3.4-5.1,4.8c0.6-0.2,0.8-0.5,2-1.3c-0.6,0.7-2,2.1-3.5,3.1c2.5-2-0.2-0.3-1.4,0.4
							c0.2-0.1-0.1,0.3,0,0.3c-1.6,0.9-1.7,1-1.9,1.3c-0.2,0.3-0.5,0.7-2.8,1.9l0.2-0.2c-1.6,1-3,2-4.9,2.9c-0.9,0.2,1.7-1,1.7-1.3
							c-2.5,1.4-4.8,3-7.3,3.7c1.1-0.5,2.7-1.2,3.8-1.8c-1.3,0.5-2.1,0.7-2.7,1c-0.6,0.3-1.2,0.5-2.2,0.8l0.2-0.1
							c-1.5,0.5-3.1,1-4.6,1.4l1.2-0.3c-3.2,1.8-7,2.1-11.6,3.4c4.5-1.3,0.7-0.4,1-0.7c-1.2,0.1-3.1,0.3-2.6,0.2
							c-2.2,0.6-3.8,0.4-6.9,1.1c-0.2-0.1-2.4,0.2-1.9-0.1c-2.9,0.3,0.7,0.1,0.5,0.2c-4.5,0.8-10.7,0.2-17.2,0.1
							c-5.7-0.3-6.7-0.2-12-0.7c-1.7-0.4,1.5-0.1,1.5-0.1c-2.8-0.5-5-0.8-7.7-1.1c0.6,0,0-0.2-0.8-0.4c-2.1-0.3-1.5,0.1-4.3-0.5
							c0.5,0,1.2-0.1,2.2,0c-2.5-0.3-5-0.6-7.6-1.1c-0.6-0.3,1.6,0.1,2.5,0.2c-1.5-0.2-3.3-0.6-5-1c-1.6-0.3-3-0.7-3.5-0.7
							c0.6,0.2,1.2,0.4,1.8,0.6c-1-0.3-0.5-0.4,0.3-0.2c2.5,0.5,3.5,1,3.7,1.1l-1.8-0.4c0.9,0.5,2.7,0.9,4.8,1.2
							c2.1,0.3,4.5,0.5,6.3,0.9l-1.6,0.2l3.9,0.3c0.8,0.2,1.3,0.5-0.5,0.3c2.7,0.6,2.4,0.2,4.7,0.8c0.3,0.1,0.1,0.1-0.1,0.1l2.7,0.3
							c-0.5,0,0.4,0.4-1.2,0.1c4.7,0.9,7.7,0.7,9.5,1.2l-0.4,0c6.6,0.4,0.7-0.2,5.7-0.2c1.1,0.3,2.2,0.6,3.3,0.9l0.7-0.3
							c0.7,0,2,0.1,1.8,0.2c2.6-0.2-0.4-0.1,1-0.3c1.6,0.1,3.9,0,5.9-0.2c1.9-0.2,3.6-0.3,4-0.1c1.2-0.4-3.2,0.2,0.3-0.4
							c1.1,0.4,4-0.5,7-0.8c-0.9,0.4-3.7,0.7-0.7,0.5c1.7-0.7,5.8-1,8.3-1.7c0-0.2,1.3-0.6,3.2-1.1c1.8-0.6,4.1-1.3,6.1-2.2
							c-0.1,0.1,1.8-0.6,4.1-1.7c2.3-1.1,5-2.5,6.8-3.5l-0.1,0.1c0.5-0.7,4-2.8,6.3-4.7c0,0.2-0.3,0.6-1.6,1.7
							c0.8-0.6,1.5-1.1,2.3-1.7c0.5-0.5,1.1-1.1,2.4-2.4c-0.1,0.2-0.2,0.5-0.4,0.7c2.8-2.5,5.3-5.5,8-9.5c0-0.2-0.7,0.5-1,0.7
							c-0.4,0.2-0.3-0.1,0.9-2.3c0.2-0.1,0.5-0.1-0.1,1c0.1-0.2,0.3-0.5,0.5-0.9c0.2-0.4,0.4-0.8,0.7-1.2c-0.3,0.6-0.5,1.3-0.8,1.9
							c0.6-0.9,0.7-1.2,0.8-1.4c0.1-0.2,0.1-0.4,0.5-1.2c0.1,0.1,0.2-0.2,0.4-0.5c0.1-0.3,0.2-0.5,0.3-0.4c-0.1,0.4-0.7,1.4-0.9,2
							c0.5-0.9,0.9-1.9,1.3-2.8c0.3-0.9,0.6-1.7,0.7-2.1c-0.1,0.1-0.1,0.1-0.2-0.1c0-0.2,0-0.6,0-1.4c0-1.9-0.1-2.3,0-2.4
							c0-0.1,0.2-0.1,0-1.2c-0.2-0.5-0.5-1.3-0.8-2c-0.3-0.7-0.7-1.2-0.8-1.2c-0.6-1-0.6-1.2-0.8-1.6c-0.6-0.8-2.2-2.5-3.6-3.7
							c-1.4-1.1-2.4-1.8-1.6-1l0.4,0.3c-0.1-0.1-0.2-0.1-0.3-0.2c0,0,0,0,0,0l0,0c-5.2-3.7-11.8-6.1-18-7.4l0-0.1
							c-1.8-0.4-3.9-0.7-5.9-1c-1.9-0.2-3.8-0.4-5.1-0.4c-1.1-0.1-2.6-0.3-2.1-0.4c-2.9-0.1-3.2,0-7.4-0.1c2.9-0.2-1-0.2,3-0.2
							c-3.7-0.1-4.6-0.2-8.6,0.4c1.3-0.4-2.8-0.1-4.6,0.2c0.9,0,1.8-0.1,2.6-0.1c-2,0.2-3.7,0.4-5.5,0.7l0.9-0.5
							c-3.8,0.3-7.2,1.3-10.3,2.3c-3.1,1-5.8,2.2-8.7,3.1c-0.9,0.5,0.1,0.1,1.1-0.2c1-0.4,2-0.7,1.3-0.3c-3.3,1.3-6.8,2.5-7.8,3
							c-4.4,2-3.8,2.5-8.3,4.6c0.6-0.2,1.3-0.2-2,1.6c-3.1,1.6-4.1,1.5-2.1,0.4c0.7-0.4,1.1-0.5,1.1-0.5c1-0.6,2.3-1.3,1-0.8
							l-0.3,0.3c-1.6,0.7-5.9,2.8-5,2.2c-2.3,1.3-0.9,0.7,0.9-0.1c-4.1,1.8-6.3,3-10.6,4.8c0.7-0.2,1.4-0.4,0.7-0.1
							c-6.3,2.6-2.6,1.4-6.8,3.2c-2.5,0.8,0.7-0.7-3.5,1.1c-2.7,0.9-0.7-0.1,0.3-0.6c-3.8,1.8-7.4,2.7-9.6,3.5l2-0.9
							c-1.2,0.5-2.2,0.9-3.3,1.3l1.3-0.2c-1.2,0.4-2.3,0.8-2.3,0.7c-1.2,0.6,1.1,0-1.3,1.1c-1.7,0.5-5,1.8-5.6,1.7
							c5.2-1.6-0.7-0.1,3.7-1.6c-0.8,0.3-1.9,0.7-3.1,1c-0.2,0,0.2-0.1,0.5-0.2c-5,1.4-2.2,1.1-7.3,2.7c0.6-0.4-1.3,0-2.1,0.3
							c2.1-0.6,1.1,0-0.8,0.7c-3.4,0.9-3.6,1.2-5.3,1.6l2-0.5c-0.6,0.4-2.3,0.8-4.6,1.5c-0.2-0.1,2.1-0.7,1.2-0.5
							c-2.5,1-5.9,1.2-9.5,2.2c-1.7,0.2-0.2-0.3-1.7-0.1c-4.1,1-4.5,0.6-8.8,1.5c1.3,0.1,1.5,0-1.5,0.6c2.4-0.4,4.7-0.8,7.1-1.3
							c-1.5,0.4-3,0.7-4.5,1.1c1.1-0.2,2.2-0.4,3.2-0.6c1-0.2,1.9-0.4,2.6-0.5c-2.1,0.6-1.9,0.5-0.9,0.5c-3,0.2-5.8,1.2-9.3,1.4
							l0-0.6c-5.2,0.4-9.1,1.3-15.9,1.5l2.2,0c-0.9,0.3-4.2,0.2-6.3,0.4c0.2-0.2-1.2-0.2-2.1-0.4c0.1,0.2-4.9,0-5.5,0.4
							c-1-0.1-2-0.2-3-0.3c-5.4-0.3-6.2,0.4-11.4-0.1c1.6-0.1-0.8-0.4,2.7-0.3c-1.7-0.1-3.3-0.3-3.3-0.2c-1-0.2-4.8-0.4-6.4-0.9
							c-0.7-0.1-1,0.1-2.9-0.3c-0.2-0.1,0-0.1,0-0.1c0,0.1-3-0.6-1.4,0c-1.3-0.5-2.8-1-4.4-1.5c-1.6-0.6-3.4-1.2-5-2
							c-3.3-1.6-5.9-4.1-7.1-6c-2.4-2.8-4.2-7.2-4.7-10.4c0.1,0.2,0.1,0,0.2,0.6c-0.2-1.1-0.1-1.8-0.1-2.4c0-0.5,0-0.9,0.1-1.3
							c0-0.4,0.1-0.8,0.4-1.4c0.3-0.6,0.8-1.3,1.9-2c0.6-0.3,0.8-0.3,0.7-0.2c-0.1,0.1-0.4,0.3-0.7,0.5c-0.6,0.5-1.2,1.2-0.6,0.6
							c0.5,0,1.5-1,3.3-1.5c1.9-0.6,4.2-1.1,6-1l-0.9,0.1c1.4,0,3-0.2,4.9-0.2c1.9,0,4,0.2,6.3,0.6c0,0-0.2,0,0,0.1
							c1.6,0.1,3.8,0.4,6.2,0.9c2.4,0.5,4.9,1.1,7,1.7c-1.4-0.1-2-0.4-1.2,0.1c1.9,0.5-0.4-0.6,3.4,0.5c1.2,0.5,3.9,1.5,4.1,1.9
							l-3.5-1.1c1.7,0.9,4.6,1.5,6.4,2.2l-0.3,0.1c5.4,1.8,5.6,1.5,11.4,3.4l-0.6-0.3c3.3,0.6,2.6,1.1,5.9,1.8l0.9,0.7
							c2.2,0.5,7.5,1.9,11.4,2.8c-2.2-0.3-6.8-1.4-9.6-2.1c2.1,0.6,7.2,2,8.3,2.2c-0.9-0.2-2-0.4-2.8-0.7c1.3,0.2,2.9,0.5,4.6,0.9
							c1.8,0.4,3.7,0.7,5.9,1c-0.1,0.1,0.1,0.2,0.6,0.4c0.3,0.1,0.6,0.1,1,0.2c0.4,0.1,0.7,0.1,1.4,0.2c0.6,0.1,1.4,0.2,2.2,0.3
							c0.2,0,0.4,0.1,0.6,0.1l0.4-0.1c0.3,0,0.5-0.1,0.7-0.1l0.1,0c0,0,0.1-0.1,0.1-0.2l0.3-0.4l0.6-0.9c0.2-0.2,0-0.2,0-0.3
							c0-0.1-0.1-0.1-0.1-0.2c-0.1-0.1-0.1-0.3-0.2-0.5c-0.4-0.2-0.8-0.4-1.1-0.6c-0.4-0.2-0.8-0.4-1.1-0.6
							c-0.3-0.2-0.6-0.4-0.9-0.6c-0.2-0.1-0.3-0.2-0.4-0.3l-0.3-0.2c-0.7-0.5-1.2-1-1.5-1.4c-3.2-2.2-6.2-4.5-9.6-6.8
							c-3.3-2.3-6.9-4.5-10.9-6.6c2.5,2.1-2.3-1.2-2.1-0.4c-1.9-0.9-2.6-1.3-2.8-1.4l-2.8-1.5l-2.9-1.4c-1.3-0.8,1.9,0.7,1.8,0.5
							c-2.1-0.9-2.6-1.2-2.8-1.3c-0.2-0.2-0.3-0.3-1.7-0.9c0.3,0.2-0.1,0.1-0.9-0.1c-0.8-0.2-1.9-0.6-3.2-1.1l3.4,1.5
							c-1.6-0.5-2.7-0.8-3.5-1.1c-0.9-0.3-1.5-0.6-2.2-0.8c-1.3-0.5-2.7-1-5.9-1.6c0.7,0.1,1.4,0.2,2.1,0.3c-1.6-0.4-4.7-1-7.8-1.5
							c-1.5-0.2-3.1-0.3-4.4-0.5c-1.4,0-2.6-0.1-3.4,0c-0.6-0.1-1.4-0.3,0.1-0.3c-8.1-0.5-17.8,0.8-24,2l0.6-0.3
							c-1.5,0.4-2.5,0.9-4.3,1.3c0.1-0.1,0.5-0.3-0.1-0.1c-0.8,0.3-3.7,1.5-5.6,2.3l1.5-0.8c-3.7,1.4-6.4,3-8.6,5
							c-1.1,1-2.1,2.1-2.9,3.3c-0.9,1.2-1.6,2.6-2.3,4.1c-0.2-0.1-1.1,1.2-1.6,3.3c-0.2,1-0.3,2.2-0.2,3.4c0,0.3,0.1,0.6,0.1,0.8
							c0.1,0.2,0.1,0.5,0.2,0.7c0.1,0.5,0.2,0.9,0.3,1.3L3,209.5c1.3,4.5,3.2,8.1,5.6,11.2c1.2,1.5,2.5,2.9,3.9,4.3
							c1.4,1.3,3,2.6,4.7,3.8c2,1.8,5.8,4.3,10.3,6.1c4.5,1.9,9.7,3,13.9,3.7c-1.3-0.3,0.3-0.3,1.7-0.2c2,0.3,5.4,0.2,5.1,0.6
							l-0.7-0.1c0.7,0.2,2.1,0.4,3.7,0.5c1.6,0.1,3.4,0.1,5,0.1l0.5-0.5c4.1,0.4,9.5,0.2,14.4-0.3c4.9-0.5,9.3-1.1,11.6-1.1
							c2-0.4,4.4-0.8,6.3-1.2l-0.1,0.3c5.4-0.9,8.2-1.3,14.8-2.8l-1.3,0.5c3.8-0.8,4.6-1.8,8-2.7l1.1,0.2c6.5-1.6,13.1-2.9,19.4-5
							c-0.1,0.1-0.2,0.3-1.3,0.6c3-0.8,11.8-2.9,10.5-3.2c0.2,0.3,6.6-1.8,10.1-3l-0.5,0.4c2.8-1.2,2.9-1.3,7-2.5
							c1-0.2,0.9,0-0.4,0.3c3.3-0.8,2.4-1,6.4-1.9l-1.4,0.6c3.3-0.9,3-0.9,4.8-1.6c2.1-0.7,6.3-1.6,6.9-1.5c0.4-0.3,2.2-0.9,4.2-1.4
							c0.3,0-0.4,0.3-0.8,0.4c5.6-1.3,8.2-2.5,12.1-3.2c0.1,0.1,0.4,0,0.7,0c-4.4,1.2-8,2.1-7.7,2c0.1,0.2,3.7-0.7,0.9,0.4
							c2.8-0.9,7.6-2.6,11.1-3.4c0.2,0,0.3,0,0.5,0l-0.4,0.1c0.8-0.2,1.5-0.4,2.2-0.6c1.1-0.3,1.8-0.4,2.9-0.7
							c0.5,0.1,4.1-1,5.9-1.4c-0.2-0.2,2.1-0.8-0.1-0.5c0.3-0.1-0.3,0.1-1.5,0.4c-0.3,0.1-0.6,0.2-0.8,0.2c0,0,0.1,0,0.1-0.1
							c-1.2,0.3-2.7,0.7-4.4,1.2c1.4-0.5,2.8-1,4.8-1.4c0.9-0.4,1.8-0.9,2.4-1.1c2.5-0.3,7.3-1.3,8-1.2c2.7-0.8,5.9-1.5,8.9-2.2
							c3-0.6,5.7-1.1,7.4-1.5c1.6-0.2,1.8,0,2.4,0c-0.9,0.1-2,0.2-2.5,0.3c1.6-0.2,3.9-0.4,6-0.5c2-0.1,3.8-0.1,4.2-0.2
							c4,0.5-2.2,0.1,3.2,0.6l-0.7,0c2.6,0.5,5,1,7.3,1.5c1.1,0.3,2.3,0.6,3.2,1c0.9,0.4,1.7,1,2.3,1.9c1.1,1.7,1,4.1-0.1,6.3
							c-1,2.2-2.7,4.4-4.9,6.4c0.6-0.6,0.9-0.9,1-0.9c-4.6,5-10.9,8.5-17.5,10.8c-6.6,2.3-13.6,3.8-20.3,4.3
							c-3.8,0.3-4.2,0.5-6.6,0.9l-0.8-0.3c-1.3,0.2-2.7,0.4-4,0.5c-5.7,0.4-9.9-0.7-17.1-0.6l0.9,0.3c-2.6-0.2-8.2-0.6-7.7-0.8
							c-0.3,0-0.9,0.1-1.9-0.1l-0.1-0.2c-2.1-0.2-4.2-0.4-6.3-0.6c-4.8-0.9,0.8-0.4-6.2-1.8c-0.6-0.1-1.5-0.3-2.4-0.3
							c-0.9-0.1-1.7-0.1-2.4-0.1c-1.5,0-2.4,0-1.9,0.1c1.1,0.1,2.7,0.3,2.8,0.5l-2.5-0.1c-0.2,0.2-0.9,0.4-0.7,0.6
							c0.2,0.3,1.3,0.5,4.2,1c0.7,0,1.3,0.1,2,0.2l2.1,0.3l1.3,0.5c-1.2-0.2-2.3-0.4-3.5-0.7c1.9,0.6,3.2,0.7,4.7,0.8
							c0.3,0.2,0.9,0.4,1.7,0.5c1.4,0.1,2.8,0.1,4.2,0.2c0.5,0.2-1.9,0.1,0.9,0.6c2,0-1.8-0.6,1.4-0.4c2,0.5,1.4,0.5,3.8,0.6
							c0.3,0.2-0.2,0.2-1.1,0.1c2.1,0.1,5.6,0.5,6.7,0.3c2.1,0.4,7.1,0.3,6.9,0.7c0.7-0.1,3.7-0.2,5.7-0.3c-1.8,0.3,0,0.3,2.2,0.3
							c2.1,0,4.6-0.1,4.2,0.2c1.3-0.3,3.7-0.4,6.3-0.7c2.6-0.2,5.5-0.6,7.8-1c-0.3,0.1-0.7,0.2-1.2,0.3c2.6-0.3,3.4-0.3,5.1-0.6
							c0.3-0.4,4.3-1.3,6.3-2.2c3.2-0.5-1.8,0.9-0.7,1c-0.1-0.1,1.2-0.5,2.4-1c1.2-0.4,2.3-0.8,1.7-0.8c2.4-0.5,2.1-0.6,3.4-0.6
							c0.2-0.6,2.2-0.8,3.9-2c1.7-0.6,1.9-0.6,2.2-0.7c0.3-0.1,0.6-0.2,2.3-1.2c0.9-0.4,0.5-0.1,0,0.2
							C242.4,226.5,241.6,227,241.6,227z M192.3,208.2L192.3,208.2c0.8-0.2,1.4-0.4,1.8-0.5C193.7,207.8,193.2,207.9,192.3,208.2z
							 M184.8,210.2c0.9-0.2,2.1-0.5,3.3-0.8c0.3,0,0,0.2-0.7,0.4C187.7,209.5,185.9,210,184.8,210.2z M201.1,207.9
							c-1.2,0.4-1.6,0.4-1.8,0.4c0.6-0.2,1.2-0.3,2.1-0.6c0,0,0.1-0.1,0.1-0.1C201.5,207.7,201.3,207.8,201.1,207.9z"/>
						<path class="st1" d="M203.2,207c0.2-0.1,0.3-0.1,0.5-0.1c-0.2,0-0.5,0.1-0.7,0.1c-0.1,0.1-0.3,0.1-0.4,0.2
							C202.7,207.1,203,207,203.2,207z"/>
						<path class="st1" d="M270.3,193.8l-0.1-0.1c0.1,0.1,0.2,0.2,0.3,0.2C270.3,193.8,270.4,193.8,270.3,193.8z"/>
						<polygon class="st1" points="81,235.3 81,235.3 81.7,235.2 						"/>
						<path class="st1" d="M261.4,227.7c-0.1,0-0.2,0.1-0.5,0.3C260.9,228,261.2,227.9,261.4,227.7z"/>
						<path class="st1" d="M245.3,236.3c-0.8,0.3-1.6,0.5-2.5,0.8C243.9,236.8,244.7,236.5,245.3,236.3z"/>
						<path class="st1" d="M231.7,239.9c-0.2,0.1-0.2,0.1-0.2,0.2c0,0,0,0,0,0L231.7,239.9z"/>
						<path class="st1" d="M129,222.5c-0.2,0.1-0.4,0.1-0.5,0.2C127.2,223.1,128.1,222.9,129,222.5z"/>
						<path class="st1" d="M191,197c-0.6,0.4-1.2,0.7-1.9,1.1C190.2,197.6,191,197.1,191,197z"/>
						<path class="st1" d="M54.3,228.3C54.3,228.3,54.3,228.3,54.3,228.3c-0.2,0-0.3-0.1-0.5-0.1L54.3,228.3z"/>
						<path class="st1" d="M186.4,199.5c1.1-0.5,2-1,2.8-1.4C188.3,198.5,187.2,199,186.4,199.5z"/>
						<path class="st1" d="M171.2,236.2l-0.6-0.2c0,0,0,0-0.1,0L171.2,236.2z"/>
						<path class="st1" d="M170.5,236.1l-0.7-0.2C170.1,236,170.4,236.1,170.5,236.1z"/>
						<path class="st1" d="M168.2,235.5l1.5,0.4C169.2,235.7,168.6,235.5,168.2,235.5z"/>
						<path class="st1" d="M189.6,239.7l0.2-0.1C189.7,239.7,189.6,239.7,189.6,239.7z"/>
						<path class="st1" d="M195.2,240.5c-1.3-0.2-3.3-0.7-5.2-0.9l-0.2,0.1C190.7,239.7,193.9,240.5,195.2,240.5z"/>
						<path class="st1" d="M218.9,242.8c-1.6,0.1-3.2,0.2-4.8,0.2c0.8,0.1,2,0.2-0.2,0.3c3,0.1,2.7,0,2.4-0.1
							C216,243.1,215.7,243,218.9,242.8z"/>
						<path class="st1" d="M233.6,240.9c-2.5,0.6,0.1,0.1-0.1,0.2C235.2,240.7,235.5,240.6,233.6,240.9z"/>
						<path class="st1" d="M238.3,184.4l0.3-0.2C236.6,184.2,238.6,184.3,238.3,184.4z"/>
						<path class="st1" d="M218,187.1l1.9-0.1l0.9-0.4C219.9,186.7,219,186.9,218,187.1z"/>
						<path class="st1" d="M205.9,188.4l0.8-0.3c-1.1,0.4-2.1,0.8-3.1,1.2C204.3,189,205.1,188.7,205.9,188.4z"/>
						<path class="st1" d="M36,218.7l0.2,0.6c0.5,0.4,0.9,0.5,0.9,0.4C37.2,219.6,36.8,219.3,36,218.7z"/>
						<path class="st1" d="M82.3,207.5c0.8,0.4,2.8,1.2,4.2,1.4C84.8,208.4,83.1,207.7,82.3,207.5z"/>
						<path class="st1" d="M60.7,239.4c-0.5,0.1-1,0.1-1.6,0.1c1,0,2-0.1,3-0.1L60.7,239.4z"/>
					</g>
				</g>
			</g>
		</g>
	</g>
	<g>
		<path class="st0" d="M134.3,211.2c-0.6-1-1.4-1.9-1.7-3c-4-12-8.1-23.9-11.8-35.9c-4.9-15.7-8.8-31.7-11.5-47.9
			c-2.1-12.2-2.9-24.4-1.6-36.8c0.6-5.8,2.4-11.4,5.4-16.4c3.2-5.2,7.9-8.7,13.7-10.5c7.1-2.2,14.4-2.8,21.6-1.5
			c10.2,1.8,16.7,8.2,20.1,17.8c3.6,10.3,3.8,21.1,3.2,31.8c-1.1,17.6-4.7,34.8-9.3,51.7c-3.6,13.4-8.8,26.1-15.7,38.2
			c-1.2,2.1-2.9,2.7-4.9,2.2c-2-0.4-2.3-2.3-2.1-3.9c0.2-2.4,0.6-4.8,1-7.2c3.1-17.2,6.5-34.3,9.2-51.6c1.7-10.7,2.6-21.6,3.4-32.5
			c0.4-5.9,0-11.9-0.4-17.8c-0.3-4-2.4-7.4-5.5-10.1c-4.3-3.7-9.3-3.6-13.3,0.3c-5.1,4.9-7.1,11.4-8.4,18
			c-2.2,11.6-1.9,23.3-1.1,34.9c0.9,12.7,2,25.3,3.6,37.9c1.8,13.7,4.3,27.2,6.5,40.8c0.1,0.4,0.1,0.7,0.1,1.1
			C134.7,211,134.5,211.1,134.3,211.2z"/>
		<g>
			<g>
				<g>
					<g>
						<path class="st1" d="M134,210.6c-0.2,0.2,0,0.3,0.7-0.1l-0.2,0.4c0,0,0-0.1,0-0.1l-0.4-0.6l0.1,0.7l0.4-0.7L134,210.6z"/>
						<path class="st1" d="M134.1,205.5c-0.3-1-0.8-2.2-1-1.5c0.5,1,0.4,1.3,1,2.3c0.2,0.9,0.2,1.6,0,1.4c0.1,0.3,0.2,1.4,0.4,1.8
							c0.1-1.2-0.2-2.7-0.6-4.2C133.8,205.2,134,205.5,134.1,205.5z"/>
						<path class="st1" d="M124.5,117.8l0,0.6C124.5,118.2,124.5,118,124.5,117.8z"/>
						<path class="st1" d="M145.4,77.2c-0.3-0.2-0.5-0.2-0.5-0.2C145.2,77.1,145.5,77.2,145.4,77.2z"/>
						<path class="st1" d="M150.9,84c-0.1-0.2-0.1-0.3-0.2-0.5C150.7,83.7,150.8,83.9,150.9,84z"/>
						<path class="st1" d="M124.5,117.8l0.1-1.5C124.5,116.3,124.5,117.1,124.5,117.8z"/>
						<path class="st1" d="M131.2,193.7c0.1,0.3,0.1,0.5,0.2,0.8C131.4,194.2,131.4,193.9,131.2,193.7
							C131.3,193.7,131.3,193.7,131.2,193.7z"/>
						<path class="st1" d="M126.2,141.9l0,0.4c0,0.1,0.1,0.2,0.2,0.4L126.2,141.9z"/>
						<path class="st1" d="M128,160.3c0-0.4-0.3-0.5-0.5-0.7c0.1,0.2,0.2,0.5,0.3,0.9C127.9,160.5,127.9,160.4,128,160.3z"/>
						<path class="st1" d="M131.7,189.4l0.1,0.5C131.8,189.7,131.7,189.5,131.7,189.4z"/>
						<path class="st1" d="M125.3,128.6c0,0,0.1-0.1,0.1-0.2C125.3,128.5,125.3,128.5,125.3,128.6z"/>
						<path class="st1" d="M128.2,190.7C128.2,190.7,128.2,190.7,128.2,190.7C128.2,190.8,128.3,190.8,128.2,190.7z"/>
						<path class="st1" d="M134.3,211.2l-0.2-0.2c-0.1,0-0.1,0-0.2,0L134.3,211.2z"/>
						<path class="st1" d="M152.1,100.5C152.1,100.5,152.1,100.5,152.1,100.5C152.1,100,152.1,100.3,152.1,100.5z"/>
						<path class="st1" d="M165.3,153.7c-0.7,1.7,0.4-2.9-0.5-0.4C164.9,153.1,164.6,155.8,165.3,153.7z"/>
						<path class="st1" d="M131.2,193.2c0-0.2-0.1-0.5-0.1-0.7C131.1,192.8,131.2,193,131.2,193.2z"/>
						<path class="st1" d="M164.8,153.4L164.8,153.4l-0.1,0.3C164.7,153.5,164.7,153.5,164.8,153.4z"/>
						<path class="st1" d="M148.4,139.5c0.1-0.1,0.1-0.2,0.2-0.4C148.6,139.2,148.5,139.3,148.4,139.5z"/>
						<path class="st1" d="M152.1,110.5l-0.1,0.7C152.1,110.9,152.1,110.7,152.1,110.5z"/>
						<path class="st1" d="M146.3,154.6c-0.1,0.4-0.2,0.5-0.2,1c0,0,0-0.1,0.1-0.2C146.1,155.3,146.1,155,146.3,154.6z"/>
						<path class="st1" d="M143.4,170.2c0-0.1,0.1-0.2,0.1-0.3c0-0.2,0.1-0.3,0.1-0.5L143.4,170.2z"/>
						<path class="st1" d="M114.5,144.6c0,0.4,0,0.6-0.1,0.8C114.6,145.1,115.2,147.3,114.5,144.6z"/>
						<path class="st1" d="M131.4,193.6c-0.1-0.1-0.1-0.2-0.2-0.4C131.2,193.4,131.3,193.5,131.4,193.6
							C131.4,193.7,131.4,193.7,131.4,193.6z"/>
						<path class="st1" d="M148.3,155.6l-0.5,2.5C148,157.4,148.2,156.5,148.3,155.6z"/>
						<path class="st1" d="M147.2,60.1l-0.6,0C146.9,60.1,147.1,60.1,147.2,60.1z"/>
						<path class="st1" d="M146.5,165.5c-0.2,0.4-0.3,0.9-0.4,1.4c0,0.1,0,0.2,0,0.3L146.5,165.5z"/>
						<path class="st1" d="M114.4,145.4C114.4,145.4,114.4,145.4,114.4,145.4C114.4,145.4,114.4,145.4,114.4,145.4z"/>
						<path class="st1" d="M119.2,161.2c-0.6-2.3-0.6-1-1-1.4c-0.9-2.7-0.1-1.3-0.2-2.3c-0.6-1.7-1.2-2.9-1.5-4.2
							c0-0.1,0-0.4,0.1-0.1c-0.8-1.8-1.4-5.4-2.2-7.5c0-0.2,0-0.3,0-0.3c-0.1,0.4-0.3,0.5-0.4,0.4c-0.3-1-0.7-1.9-0.5-2.3
							c0.1,0.6,0.2,0.7,0.4,1l-0.4-1.1c0.1-1.1,0.5,1.5,0.7,1.4c-0.6-2.1-1.4-4.6-1.7-6.2c0.3-0.4,0.9,3.8,0.8,1.6l0.4,2.6
							c0.1-2.1,0.3,1.5,0.5-0.4c-0.6-3.4-1-3.7-1.6-7.1c-0.3-0.7-0.2,0.3-0.6-0.4c-1.3-4.7,0.1-3.9-1-7.3c-0.4-0.9-0.9-1.1-1.1-3.7
							l0.5,0.8c-0.5-3.3-0.9-1.8-1.1-5.2c0.2,0.6,0.5,2.6,0.5,2c0-2.3-0.5-1.5-0.7-3.2l0.3-0.4c-0.5-3.5-1.1-7.3-1.4-11.2
							c0.1,0.2,0.3,0.9,0.3,0c-0.5-4.9-0.2-10.5,0.3-15.1c0-0.6-0.1-1.2-0.1-1.8c0-0.4,0.2-0.8,0.2-0.3c0.3-1.8-0.2-0.1-0.2-1
							c0.1-1,0.3-1.3,0.3-0.7c0-1.6,0.3-3.9,0.8-6.1c0.5-2.2,1.4-4.4,2.2-5.9l-0.2,0.6c0.6-1.2,0.8-1.9,1-2.6
							c0.2-0.7,0.5-1.4,1.2-2.3c-0.1,0.1-0.1,0.3-0.2,0.4c1.5-2.4,3.5-4.7,5.7-6.3c2.2-1.7,4.7-2.8,6.7-3.3c0.3-0.3,1.7-0.7,3-1.1
							c1.3-0.3,2.6-0.6,2.7-0.9c1.6-0.2,2.2-0.1,3-0.2c0.8,0,1.7-0.1,3.9-0.1c1.2,0,1.8-0.4,3.3-0.4l0,0.3c0.7-0.1,1.4-0.1,2.1-0.2
							l1.1,0.5c0.5,0,0.9,0.1,1.4,0.1c-0.6-0.1-1.2-0.3-1.1-0.4c2.3,0.1,5.3,1.1,5.2,1.4c1.7,0.4,3.3,0.9,4.8,1.6
							c-0.2,0.1-0.9-0.3-1.6-0.5c1.3,0.4,1.4,0.6,1.4,0.7c0,0.1,0.1,0.2,1.2,0.7c-0.2-0.2,0.2-0.1,0.3-0.1c0.5,0.4,1.3,1,2.2,1.7
							c0.9,0.7,1.8,1.5,2.5,2.3l-0.4-0.2c2.5,2.8,4.8,6.4,6.1,10.5c-0.4-1.5,0.1-1.3,0.5-0.1l-0.1,0.6c0.5,0.7-0.3-1.3,0.5,0.2
							c0.5,1.6,0,1.2-0.4,0.3c0.2,0.6,0.4,1.2,0.7,1.9c-0.1,0.1-0.2-0.3-0.4-0.4c0.5,0.7,0.5,3.4,1.1,4.5l-0.1,0.1
							c0.8,4.3,1.1,6.3,1.3,9.8c0.3,0.1,0.3,1.5,0.5,2.5c0,2.7-0.3,5.6-0.4,8.8c0,2.3,0.2,0.7,0.3,1.7c-0.3,0.2-0.5,3.3-0.5,1.7
							c-0.2,3.8-0.3,4.9-0.6,9.8c0.2-0.5,0.3-1.1,0.3-0.8c-0.1,0.9-0.3,2-0.5,1.8l0-0.2c-0.2,5.5-2.6,12.4-2.9,16.7l0-0.2
							c-0.2,1.5-0.4,3-0.6,4.5c-0.5,2,0.1-1.3-0.4,0.2c-0.6,4.9-1.8,7.5-2.5,11.5c-1.5,2.8-2.7,10.7-4.5,14.5l0.2-0.2
							c-0.2,1.1-0.5,1.2-0.8,2c0.2-0.1,0.5-1.1,0.4-0.4c-2.6,8.8-6.9,17.6-11.5,25.8c-0.8,1.5-0.9,2-1,2.6c-0.1,0.3-0.2,0.6-0.4,1.1
							c-0.2,0.4-0.6,0.9-1.3,1.3c0.2-0.2,0.3-0.5,0.4-0.8c-0.4,0.5-0.8,0.8-1.4,1c-0.3,0.1-0.6,0.1-0.9,0.1c-0.2,0-0.3,0-0.5-0.1
							c-0.2,0-0.3-0.1-0.4-0.1c-0.4-0.2-0.6-0.4-0.8-1.1c-0.1-0.6,0-1.4,0-2.3c0.4-3.4,1.1-6.9,1.5-10.3c0,0.4,0.1,0.4,0,1.1
							c0.5-1.4,1-5.2,0.8-5.3c0.2-1,0.2-0.2,0.4-0.8c0.4-1.4,0.4-3.6,0.7-4.3c0.1-0.1,0,0.4,0,0.7c0.1-0.9,0.8-4.3,0.4-3.5
							c0.6-2.5,0.8-4.8,1.3-6.8c-0.1-1.4,0.9-4.3,0.6-4.8c0.4,0.3,1.2-4.4,1.2-6c0,0.6,0.4-1.4,0.5-0.7c0.3-1.8,0.5-3.5,0.2-3.2
							c1.1-3.3,0.7-6.8,1.7-8.6c0.7-5.5,1.3-10.6,1.7-15.5c0.4,0.2-0.6,5.4-0.2,5.3c0.4-4.7,0.4-7.4,0.9-12.1
							c0.2-1.2,0.1,0.7,0.2,1.1c0.3-4.7,0.9-9,0.9-13.2c0,0,0.1,0.5,0.1,0.9c0-0.8,0.2-1.9,0-1.8l0,0.8c-0.4,1.3-0.4-3.3-0.5-3.5
							c0.2,0.7,0.4-0.3,0.5-1.2c0.1-0.9,0.2-1.8,0.5-0.6c0-0.6-0.1-1.2-0.2-1.1c0.1-0.8,0.1-1.1,0.3-0.2c-0.1-3-0.3-1.9-0.3-4.6
							c0.1,0,0.2,0.5,0.3,0.8c-0.2-1.4-0.5-2.7-0.5-5c0.1,0.1,0.1-0.1,0.2,0.5c-0.1-1.9-0.4-3.6-0.6-5.3c-0.2-1.7-0.5-3.5-1.3-5.6
							c0.5,0.5,0.4,0.2,0.1-0.4c-0.2-0.5-0.6-1.2-0.5-1.4c-0.4-0.7-0.9-1.3-1.5-1.9c0.2,0.3,0.3,0.6,0.4,0.9
							c-1.3-1.7-2.7-2.8-4.1-3.9c0.5,0.2,0.9,0.5,1.3,0.8c-1-0.8-2.1-1.6-3.4-2.1c0.3,0.2,0.7,0.4,1,0.6c0.3,0.2,0.6,0.4,0.9,0.6
							c-0.9-0.5-1-0.3-1-0.3c-0.1,0.1-0.1,0-1.4-0.6c0.3,0.1-0.2-0.1-0.9-0.3c-0.7-0.2-1.6-0.4-2.1-0.5l0,0c-1,0.1-2.1,0.3-3.5,0.8
							c-0.4,0,0.2-0.5-0.1-0.5c-0.4,0.3-1.6,0.9-2.6,1.7c-1,0.8-1.8,1.7-2.1,2.3c0.2-0.4,0.1-0.5,0-0.4c-0.1,0.3-0.2,0.5-0.4,0.8
							c-0.7,0.7-0.8,0.8-0.8,0.5c-0.9,1.1-0.6,1-0.5,0.9c0.2-0.1,0.3-0.1-0.7,1.2c0.1-0.2,0-0.1,0.3-0.6c-2,2.8-3,5.8-4,8.7
							c-0.6,0.8,0.7-2.6,0.1-1.7c-1.4,4.3-1.9,9-2.5,13.3l0.1-0.8c0.4,0.7-0.7,3.1-0.6,5.3c0-0.5-0.2-0.7-0.2-0.6
							c-0.3,2.9-0.3,6-0.1,10.4l-0.1-0.5c-0.1,1.7,0,4.5,0,6.4c0.2,0.5,0.2,1.6,0.3,1c-0.5,5.8,1.1,10.9,0.8,16c0-0.6-0.2-1.4-0.2-1
							l0.5,4.3c0.2-0.4,0.1-0.6,0.2-1.5c0.2,0.5,0.4,1.7,0.5,2.8c-0.3-1.9-0.4,0-0.4,0.9c0.1-0.1,0.2,0.1,0.2,0.1
							c-0.2,2.3,0.5,0.3,0.5,3.4l-0.1-0.2c0.2,1.1,0.4,2.2,0.5,3.4c-0.2,0.5-0.2-1.2-0.5-1.3c0.2,1.7,0.8,3.4,0.7,5
							c-0.1-0.7-0.3-1.8-0.4-2.5c-0.1,1.7,0,1.9,0,3.2l0-0.1l0.2,3l0-0.8c0.9,2.1,0.6,4.4,1.4,7.3c-0.8-2.8-0.3-0.4-0.6-0.6
							c0,0.8,0.1,1.9-0.1,1.6c0.4,1.4,0.1,2.3,0.7,4.2c-0.1,0.1,0.2,1.5-0.1,1.2c0.3,1.8,0.1-0.4,0.3-0.3c0.7,2.7,0.5,6.6,1.6,10.5
							c0.7,3.4,1.2,4,1.8,7.1c0,1.1-0.5-0.8-0.5-0.8c0.1,1.8,0.4,3,0.8,4.7c-0.1-0.3-0.2,0-0.2,0.6c0.2,1.3,0.5,0.8,0.6,2.6
							c-0.2-0.3-0.4-0.6-0.6-1.2c0.3,1.5,0.8,3,1.1,4.6c-0.1,0.5-0.4-0.9-0.6-1.5c0.4,1.8,0.9,4.6,1.3,5.1l-0.1-1.2
							c0.1,0.6-0.2,0.4-0.3-0.1c-0.5-1.5-0.3-2.2-0.2-2.3l0.3,1.1c0.4-1.3-0.9-4.5-1.2-6.8l0.6,0.9l-0.7-2.3c0-0.5,0.2-0.9,0.4,0.2
							c-0.1-1.7-0.4-1.4-0.4-2.9c0-0.2,0-0.1,0.1,0l-0.4-1.6c0.1,0.3,0.2-0.3,0.3,0.7c-0.2-2.9-1.1-4.6-0.9-5.7l0.1,0.2
							c-0.8-4-0.4-0.3-1.2-3.3l0.4-2.1l-0.4-0.3c-0.1-0.4-0.1-1.2,0-1.1c-0.4-1.5-0.1,0.3-0.4-0.6c0-2-0.9-5.5-0.5-6
							c-0.3-0.7,0.1,1.9-0.4-0.2c0.4-0.7-0.4-2.4-0.4-4.3c0.3,0.5,0.4,2.3,0.4,0.4c-0.6-1-0.3-3.5-0.6-5.1c-0.4,0-0.5-3.3-0.9-5.9
							c0.1,0.2-0.3-4.9-0.4-7.3l0.1,0.1c-0.4-0.4-0.6-2.9-0.8-4.7c0.2,0.1,0.3,0.4,0.5,1.3l-0.1-1.7c-0.1-0.4-0.3-0.9-0.4-2l0.3,0.4
							c-0.2-2.3-0.7-4.5-0.7-7.4c-0.3-0.1-0.5,2.4-0.9-0.7c0.1-0.1,0.4-0.3,0.5,0.5c0-0.3-0.2-0.9-0.2-1.5l0.3,1.2
							c0-1.3-0.2-0.7-0.3-1.7c0.2,0,0.1-0.8,0.3-0.7c0,0.3,0,0.9,0.1,1.3c0-1.2,0-2.6,0.1-3.1c-0.1,0.1-0.3,0-0.3-0.9
							c-0.2-2.3,0.2-0.8,0.2-2.1c-0.2-0.5-0.1-2-0.4-2c0-0.7,0.1-0.8,0.2-1c-0.2-1.2-0.2-5.5-0.5-4.1l0,0.3c0-0.1,0-0.1,0-0.2
							c0,0,0,0,0,0l0,0c-0.4-3.8,0.2-8,0.3-11.8l0.1,0c0-2.3,0.4-5,0.4-6.7c0.1-0.7,0.4-1.5,0.5-1.2c0.2-1.7,0.1-1.9,0.8-4.4
							c-0.2,1.7,0.3-0.6-0.2,1.8c0.5-2.2,0.8-2.6,1.1-5c0,0.8,0.8-1.5,1-2.5c-0.2,0.5-0.4,0.9-0.7,1.4c0.3-1.1,0.7-2.1,1.1-3.1
							l0.1,0.6c1-2,1.8-3.9,2.7-5.5c0.9-1.6,2.1-3.1,3.5-3.9c0.3-0.5-0.1-0.1-0.6,0.3c-0.5,0.4-1,0.8-0.7,0.4
							c0.7-0.8,1.6-1.3,2.4-1.6c0.8-0.4,1.4-0.5,1.7-0.6c1.2-0.4,1.8-0.5,2.4-0.7c0.6-0.1,1.3-0.3,2.6,0.1c-0.2-0.1-0.3-0.2-0.1-0.3
							c0.1,0,0.2,0,0.5,0c0.3,0,0.7,0.1,1.2,0.3c0.9,0.5,1.4,1,1.5,1.2c0.1,0.2-0.2,0.2-0.7-0.1c-0.4-0.2-0.6-0.4-0.6-0.4
							c-0.6-0.3-1.4-0.5-0.7-0.1l0.3,0c0.2,0.1,0.5,0.3,0.8,0.5c0.3,0.2,0.6,0.5,0.9,0.7c0.5,0.5,0.9,0.9,0.6,0.7
							c1.2,1,0.6,0.3-0.2-0.5c0.9,0.9,1.6,1.6,2.3,2.4c0.6,0.8,1.2,1.6,1.8,2.8c-0.1-0.4-0.2-0.8,0-0.4c0.4,0.9,0.6,1.4,0.7,1.8
							c0.1,0.4,0.2,0.5,0.3,0.6c0.1,0.2,0.3,0.3,0.6,1.6c0,1.6-0.5-0.6-0.1,2.2c0,1.7-0.3,0.4-0.4-0.3c0.4,2.5,0.2,4.8,0.2,6.2
							l-0.2-1.3c0.1,0.8,0.1,1.5,0.2,2.1l0.2-0.8c0,0.8,0,1.5-0.1,1.4c0.2,0.8,0.4-0.6,0.6,1c-0.1,1.1,0.2,3.2-0.2,3.6
							c0.1-3.3-0.3,0.4-0.4-2.4c0,0.5,0.1,1.2,0,2c0,0.1-0.1-0.1-0.1-0.3c-0.3,3.1,0.4,1.4,0.2,4.7c-0.2-0.4-0.4,0.7-0.4,1.3
							c0.1-1.3,0.3-0.6,0.4,0.6c-0.3,2.1-0.1,2.3-0.2,3.4l0.2-1.3c0.1,0.4,0,1.5,0,3c-0.1,0.1,0-1.3-0.1-0.8
							c0.2,1.7-0.6,3.7-0.6,5.9c-0.2,1-0.3,0.1-0.5,1c0,2.6-0.5,2.7-0.6,5.4c0.3-0.7,0.3-0.9,0.3,1l0.3-4.4l0.1,2.9
							c0.1-1.3,0.1-2.8,0.2-3.6c0.1,1.4,0,1.2,0.3,0.6c-0.5,1.8-0.2,3.6-0.6,5.7l-0.6-0.1c-0.6,3.1-0.4,5.6-1.1,9.7l0.3-1.3
							c0.2,0.6-0.3,2.5-0.4,3.8c-0.2-0.2-0.4,0.7-0.6,1.2c0.2,0-0.5,3-0.2,3.4l-0.6,1.8c-0.7,3.3-0.1,3.8-0.7,7c0-1-0.4,0.4-0.2-1.7
							c-0.2,1.1-0.4,2-0.3,2c-0.2,0.6-0.2,3-0.6,3.9c0,0.5,0.2,0.6,0,1.8c-0.1,0.1-0.1,0-0.1,0c0.1,0-0.2,1.9,0.2,0.9
							c-1.2,3.1-1.6,9-2.7,11.8c-0.4,2.3-0.8,5.1-1.2,7.2c0-0.1-0.1,0,0-0.4c-0.7,2.8,0.2,1.9-0.6,5.1c-0.6,1.6,0.1-1.8-0.2-0.7
							c-0.7,0.3-0.6,4-1.4,6.1l0.1-0.5c-0.5,1.6-0.5,4.1-1,6.9c0,0,0-0.1-0.1,0c0,1-0.1,2.4-0.1,3.9c0,0.8,0.1,1.6,0.5,2.4
							c0.4,0.8,1.2,1.3,1.9,1.4c-0.5,0-0.8-0.2-1-0.2c-0.1-0.1-0.2,0,0.1,0.3c0.7,0.3,0.6,0.1,0.7,0.1c0.1-0.1,0.3,0,1.6,0
							c0.4,0.1,1.1,0.1,1.7-0.1c0.6-0.1,1.1-0.4,1.3-0.4c-0.7,0.6-1.6,0.9-2.5,1c0.7,0.1,1.6-0.2,2.3-0.7c0.7-0.6,1.2-1.3,1.5-1.9
							l0,0.2c1.7-3.1,1.4-3.3,3.1-6.6l-0.3,0.3c0.6-2,1-1.4,1.6-3.4l0.6-0.4c0.5-1.3,1.7-4.4,2.5-6.7c-0.3,1.4-1.3,4-1.9,5.7
							c0.6-1.2,1.9-4.2,2-4.9c-0.2,0.5-0.4,1.2-0.6,1.6c0.4-1.6,1.1-3.7,2.1-6.1c0.3,0.4,1-1.2,1.7-3.1c0.7-1.9,1.5-4.1,2.1-4.9
							c1.2-4.6,2.9-8.9,4.3-14.3c-1.1,1.7,0.4-1.6-0.3-1.4c0.3-1.2,0.4-1.7,0.5-1.8l1.3-3.7c0.4-0.9-0.2,1.2,0,1.1
							c0.7-2.7,0.5-1.1,1.1-2.9c-0.3,0.3-0.1-1,0.4-2.6l-0.8,2.1c0.6-3.9,1.3-3.2,1.8-7.1l-0.1,1.3c0.3-2,1.5-7.3,1.3-9.4
							c0.1-0.3,0.4-0.8,0.3,0.1c0.9-4.8,1.2-10.7,1.9-14.4l0.1,0.4c0.1-0.9-0.1-1.6,0.2-2.7c0.1,0.1,0.1,0.4,0.2,0
							c0-0.5,0-2.4,0.1-3.6l0.1,1c0.6-4.7,0.1-7.3,0.1-11.2c0.5,0,0.6-3.7,0.6-5.6l0.1,0.1c-0.2-5.6-1.1-9.4-2.4-14.4
							c-0.1-1.6-0.8-4.2-1.9-7.1c-1.1-2.8-2.8-5.6-4.3-7.8c0.4,0.7-0.3,0.1-1-0.6c-0.7-1-2.6-2.2-2.2-2.4c0.1,0.1,0.2,0.2,0.3,0.3
							c-0.2-0.4-0.8-1.1-1.6-1.7c-0.8-0.6-1.8-1.2-2.6-1.8l-0.5,0.3c-2.1-1.6-5.4-2.7-8.5-3.1c-3-0.4-5.8-0.5-7.2-0.8
							c-1.2,0.1-2.8,0.2-4,0.4l0-0.3c-3.4,0.2-5.1,0.4-9.2,1.6l0.8-0.4c-2.3,0.6-2.7,1.6-4.7,2.4l-0.8-0.1c-1.9,0.9-3.8,1.9-5.5,3.2
							c-1.7,1.3-3.2,2.8-4.3,4.6c0-0.1,0-0.3,0.4-0.8c-0.6,0.8-1.8,2.3-2.6,3.7c-0.8,1.4-1.2,2.5-0.8,2.3c-0.2-0.1-0.7,0.9-1.1,2.2
							c-0.5,1.3-0.9,2.9-1.1,3.9l-0.2-0.4c-0.2,1.9-0.1,2-0.6,4.6c-0.1,0.6-0.3,0.5-0.1-0.3c-0.5,2-0.1,1.6-0.5,4.1l-0.1-0.9
							c-0.3,2.1-0.1,1.9,0,3.1c0,1.3-0.3,4-0.6,4.3c0.1,0.3,0.3,1.5,0.2,2.7c-0.1,0.2-0.2-0.3-0.2-0.5c-0.3,3.5,0.3,5.2,0.1,7.7
							c-0.1,0.1-0.1,0.2-0.1,0.4c-0.1-2.8-0.1-5.1-0.1-4.9c-0.3,0-0.3,2.3-0.7,0.5c0.2,1.8,0.7,4.9,0.7,7.1c0,0.1,0,0.2-0.1,0.3
							l0-0.2c0,0.5,0.1,1,0.1,1.4c0,0.7,0,1.2,0.1,1.8c-0.2,0.3,0.1,2.6,0.2,3.7c0.3-0.1,0.4,1.4,0.5-0.1c0,0.2-0.1-0.2-0.1-1
							c0-0.2-0.1-0.4-0.1-0.5c0,0,0,0,0,0.1c-0.1-0.7-0.2-1.7-0.3-2.8c0.2,0.9,0.4,1.8,0.4,3c0.2,0.6,0.5,1.2,0.6,1.5
							c-0.2,1.6,0,4.6-0.2,5c0.6,3.4,1.4,8,2.3,10c0.2,0.9,0.1,1.1,0,1.5c-0.2-0.5-0.3-1.2-0.4-1.5c0.5,1.9,1.1,5.7,1.6,6.1
							c0.3,2.4-0.6-1.3,0.1,2l-0.2-0.4c0.8,6.6,3.2,10.3,4.3,17.7c-0.1-0.5-0.1-0.8-0.1-0.9c1.8,8.2,4.9,16.6,7,24.6
							c0.6,2.3,0.9,2.4,1.6,3.7l-0.1,0.6l1.1,2.2c1.3,3.2,1.2,6,3,10l0-0.6c0.5,1.5,1.7,4.7,1.4,4.5c0.1,0.1,0.4,0.4,0.5,1l-0.1,0.1
							l1.5,3.6c0.8,2.9-0.7-0.3,0.6,3.9c0.1,0.2,0.2,0.4,0.2,0.6c0.1,0.3,0.2,0.5,0.4,0.8c0.3,0.5,0.7,0.9,1,1.2
							c0.6,0.7,1,1.1,0.9,0.8c-0.3-0.5-0.8-1.4-0.7-1.6l0.9,1.2c0.3,0,0.7,0.2,0.8-0.1c0.1-0.1,0-0.4-0.1-0.8
							c-0.1-0.4-0.5-1-0.8-1.7c-0.2-0.3-0.3-0.5-0.5-1l-0.5-1.2l0-0.9l0.7,2c-0.2-1.2-0.6-1.9-1-2.7c0-0.2,0-0.6-0.1-1.1l-1.2-2.2
							c0.1-0.3,0.7,1,0.3-0.7c-0.6-1.1,0,1.2-0.8-0.6c-0.2-1.2,0.1-0.9-0.5-2.2c0.1-0.2,0.2,0,0.4,0.6c-0.5-1.2-1.1-3.2-1.6-3.7
							c-0.2-1.3-1.4-4.1-1-4.1c-0.2-0.3-1-2-1.4-3.1c1.2,1.9-1.3-4.2-0.6-3.8c-0.9-1.4-2-5.4-3.1-8c0.1,0.1,0.3,0.4,0.3,0.7
							c-0.5-1.5-0.5-2-0.7-3c-0.4-0.1-1.3-2.4-1.9-3.6c-0.2-2,0.8,1,1,0.3c-0.3,0.2-1.3-3.1-1.3-2.4c-0.2-1.5-0.3-1.3-0.2-2.1
							c-0.5-0.1-0.5-1.3-1.1-2.4c-0.3-2.1,0.3-0.7-0.5-2.9C118.4,159.3,119.2,161.2,119.2,161.2z M107.9,106.6L107.9,106.6
							c0,0.5,0.1,0.9,0.1,1.1C108,107.5,108,107.2,107.9,106.6z M107.7,101.9c0,0.6,0,1.3,0,2c-0.1,0.2-0.2,0-0.2-0.5
							C107.6,103.7,107.7,102.6,107.7,101.9z M106.4,112c-0.1-0.7-0.1-1,0-1.1c0,0.4,0.1,0.8,0.2,1.3c0,0,0,0.1,0,0.1
							C106.5,112.2,106.4,112.1,106.4,112z"/>
						<path class="st1" d="M106.9,113.3c0,0.1,0,0.2,0.1,0.3c0-0.2,0-0.3,0-0.5c0-0.1-0.1-0.2-0.1-0.3
							C106.8,113,106.8,113.2,106.9,113.3z"/>
						<path class="st1" d="M124.5,118.5L124.5,118.5c0,0,0,0.1,0,0.1C124.5,118.5,124.5,118.5,124.5,118.5z"/>
						<polygon class="st1" points="142.1,59.8 142.1,59.7 141.7,59.8 						"/>
						<path class="st1" d="M125.1,144.5c0,0.1,0,0.2,0,0.3C125.1,144.8,125.1,144.6,125.1,144.5z"/>
						<path class="st1" d="M126.1,155.6l0.1,1.6C126.2,156.5,126.1,156,126.1,155.6z"/>
						<path class="st1" d="M126.9,164.2c0.1,0.1,0.1,0.1,0.1,0.2l0,0L126.9,164.2z"/>
						<path class="st1" d="M154,110c0,0.1,0,0.2,0,0.3C154,111.2,154,110.6,154,110z"/>
						<path class="st1" d="M141.1,74.7c0.5-0.1,0.9,0,1.4,0c-0.4-0.1-0.7-0.1-1-0.1C141.3,74.6,141.2,74.7,141.1,74.7z"/>
						<path class="st1" d="M148.4,155.4C148.4,155.4,148.4,155.4,148.4,155.4c0,0.1,0,0.2-0.1,0.3L148.4,155.4z"/>
						<path class="st1" d="M144.5,75.3c-0.7-0.3-1.3-0.5-1.9-0.6C143.2,74.9,143.9,75.1,144.5,75.3z"/>
						<path class="st1" d="M132.5,201.2l0.1,0.4c0,0,0,0,0.1,0L132.5,201.2z"/>
						<path class="st1" d="M132.6,201.7l0.1,0.4C132.7,201.9,132.7,201.8,132.6,201.7z"/>
						<path class="st1" d="M133,203.1l-0.2-0.9C132.8,202.5,132.8,202.9,133,203.1z"/>
						<path class="st1" d="M130.7,190l-0.1-0.1C130.6,189.9,130.7,190,130.7,190z"/>
						<path class="st1" d="M130.1,186.5c0.1,0.8,0.1,2.1,0.4,3.2l0.1,0.1C130.4,189.3,130.4,187.3,130.1,186.5z"/>
						<path class="st1" d="M129.2,172l0.3,2.9c0-0.5,0.1-1.2,0.3,0.1C129.6,171.4,129.7,175.8,129.2,172z"/>
						<path class="st1" d="M128.2,163.1c0.2,1.5,0.2,0,0.2,0C128.2,162.1,128.2,161.9,128.2,163.1z"/>
						<path class="st1" d="M126,98.3l0.2,0.2C126.4,97.3,126.1,98.5,126,98.3z"/>
						<path class="st1" d="M128,86c-0.2,0.3-0.4,0.7-0.6,1c0,0.2,0,0.4,0,0.6C127.6,87.1,127.8,86.5,128,86z"/>
						<path class="st1" d="M133.3,80.7c-0.1,0.1-0.2,0.3-0.3,0.4c0.4-0.5,0.8-1,1.2-1.5C133.8,79.9,133.6,80.3,133.3,80.7z"/>
						<path class="st1" d="M143.7,167.4l0.4-0.3C144.1,166.3,143.8,166.1,143.7,167.4z"/>
						<path class="st1" d="M150.4,193.2c0.4-0.4,1.1-1.5,1.3-2.3C151.2,191.8,150.6,192.7,150.4,193.2z"/>
						<path class="st1" d="M154.9,59.7l1,0.3c-0.6-0.2-1.2-0.5-1.8-0.7C154.4,59.5,154.6,59.6,154.9,59.7z"/>
					</g>
				</g>
			</g>
		</g>
	</g>
	<g>
		<path class="st0" d="M261.2,174.5c-8.3-2.5-15.9-5.7-23.1-10.1c-13.3-8.1-23.4-19.2-32.1-31.9c-9.6-14-18-28.7-25.5-43.9
			c-1.3-2.6-2.3-5.4-4-7.7c-3.3-4.4,1.3-10.7,6.5-10.8c3.2-0.1,6,1,7.9,3.4c2.5,3.3,5,6.7,6.8,10.4c3.2,6.5,6.1,13.2,8.9,20
			c4.3,10.7,9.6,20.8,16.7,29.8c7.5,9.5,13.8,20.1,22.8,28.4C250.8,166.5,256,170.3,261.2,174.5z"/>
		<g>
			<g>
				<g>
					<g>
						<path class="st1" d="M260.8,175c0.2,0,0.2-0.2-0.1-0.4l-0.4,0.1L260.8,175z"/>
						<path class="st1" d="M259.1,172.8c-0.5-0.2-1.1-0.3-1,0.1c0.6,0,0.6,0.2,1.2,0.2c0.3,0.2,0.5,0.5,0.4,0.6
							c0.2,0,0.4,0.5,0.7,0.4c-0.2-0.5-0.8-1-1.4-1.2C258.8,172.8,259,172.9,259.1,172.8z"/>
						<path class="st1" d="M231.8,144.4l0.1,0.2C231.9,144.6,231.9,144.5,231.8,144.4z"/>
						<path class="st1" d="M217.6,124.5c0.1,0.2,0.2,0.2,0.2,0.2C217.7,124.6,217.6,124.5,217.6,124.5z"/>
						<path class="st1" d="M215.8,120.8c0,0.1,0.1,0.1,0.1,0.2C215.9,120.9,215.8,120.8,215.8,120.8z"/>
						<path class="st1" d="M231.8,144.4l-0.3-0.6C231.4,143.9,231.7,144.2,231.8,144.4z"/>
						<path class="st1" d="M254.3,170.1c0.1,0.1,0.2,0.1,0.3,0.2L254.3,170.1C254.3,170.1,254.3,170.1,254.3,170.1z"/>
						<path class="st1" d="M238.6,152.9l0.1,0.2c0.1,0,0.1,0,0.2,0L238.6,152.9z"/>
						<path class="st1" d="M244.1,159c-0.1-0.1-0.4,0-0.5,0c0.2,0,0.3,0.1,0.4,0.2C244,159.2,244,159.1,244.1,159z"/>
						<path class="st1" d="M253.5,168l0.2,0.1C253.7,168.1,253.6,168.1,253.5,168z"/>
						<path class="st1" d="M235,148.2c0,0,0-0.1,0-0.1C235,148.1,235,148.1,235,148.2z"/>
						<path class="st1" d="M252.6,170.1C252.6,170.2,252.6,170.2,252.6,170.1C252.6,170.2,252.7,170.2,252.6,170.1z"/>
						<path class="st1" d="M261.2,174.6l-0.1,0c0,0-0.1,0.1-0.1,0.1L261.2,174.6z"/>
						<path class="st1" d="M212.5,113.9C212.5,113.9,212.5,113.9,212.5,113.9C212.7,114.1,212.6,114,212.5,113.9z"/>
						<path class="st1" d="M175.7,81.8c-0.2-0.8,1,0.8,0.5-0.3c0,0.1-0.3-0.1-0.4-0.1c-0.1,0-0.2-0.1-0.2,0
							C175.5,81.5,175.6,81.6,175.7,81.8z"/>
						<path class="st1" d="M254.1,169.9l-0.3-0.2C254,169.8,254.1,169.9,254.1,169.9z"/>
						<path class="st1" d="M176.2,81.5L176.2,81.5l0-0.1C176.2,81.5,176.2,81.5,176.2,81.5z"/>
						<path class="st1" d="M205.3,97.8c0,0.1,0,0.1,0,0.2C205.3,98,205.3,98,205.3,97.8z"/>
						<path class="st1" d="M210.1,110.1l-0.1-0.3C210,109.9,210.1,110,210.1,110.1z"/>
						<path class="st1" d="M202.2,91.7c-0.1-0.2,0-0.2-0.2-0.4c0,0,0,0.1,0,0.1C202.1,91.4,202.2,91.5,202.2,91.7z"/>
						<path class="st1" d="M199.2,85.3c0,0,0,0.1,0,0.1c0,0.1,0.1,0.1,0.1,0.2L199.2,85.3z"/>
						<path class="st1" d="M233.8,160.2c0.1,0.2,0.1,0.3,0.1,0.4C234,160.3,234.9,160.9,233.8,160.2z"/>
						<path class="st1" d="M254.4,169.9c-0.1,0-0.1,0-0.2,0C254.2,170,254.3,170,254.4,169.9C254.4,170,254.4,170,254.4,169.9z"/>
						<path class="st1" d="M200.1,92.4l-0.4-1C199.8,91.6,199.9,92,200.1,92.4z"/>
						<path class="st1" d="M200.7,122.4l0.2,0.2C200.8,122.5,200.8,122.4,200.7,122.4z"/>
						<path class="st1" d="M198.2,88.3c0-0.2,0-0.4-0.1-0.7c0,0-0.1-0.1-0.1-0.1L198.2,88.3z"/>
						<path class="st1" d="M233.9,160.6L233.9,160.6L233.9,160.6z"/>
						<path class="st1" d="M240.5,164c-0.9-0.5-0.6,0.1-0.9,0.1c-1.1-0.6-0.4-0.5-0.6-0.9c-0.7-0.3-1.4-0.4-1.9-0.7
							c0-0.1-0.1-0.2,0.1-0.1c-0.9-0.2-2.1-1.4-3.1-1.6c0-0.1-0.1-0.1-0.1-0.1c0,0.2-0.1,0.4-0.2,0.5c-0.4-0.3-0.9-0.3-0.9-0.6
							c0.2,0.2,0.3,0.1,0.5,0.1l-0.5-0.2c-0.2-0.5,0.6,0.3,0.8,0.1c-0.9-0.5-2-0.9-2.5-1.4c0.1-0.4,1.5,0.9,0.9,0.1l0.9,0.8
							c-0.4-1,0.5,0.4,0.2-0.5c-1.2-1-1.5-0.9-2.6-1.9c-0.4-0.1-0.1,0.3-0.5,0.2c-1.9-1.1-0.8-1.7-2.3-2.4c-0.5-0.1-0.9,0.1-1.6-0.8
							l0.5,0c-1.1-1-1-0.1-2-1.4c0.3,0.1,0.9,0.7,0.8,0.5c-0.5-0.9-0.7-0.3-1.2-0.8l0.1-0.4c-1.2-1-2.6-2.1-3.9-3.3
							c0.1,0,0.4,0.1,0.2-0.2c-1.6-1.5-3.2-3.4-4.4-5.2l-0.8-0.4c-0.1-0.1-0.1-0.3,0-0.2c-0.4-0.7-0.2,0.1-0.5-0.1
							c-0.3-0.3-0.3-0.6,0-0.4c-1.1-1-3-2.9-3.7-4.3l0.2,0.2c-0.6-1-1.3-0.7-1.7-1.8l0.2,0.1c-1.4-2.2-3.3-4.4-4-6.3
							c-0.6-0.1-1.3-2.2-1.9-2.1c-0.6-1.4-0.3-1.1-1.2-3c-0.3-0.5-0.8-0.5-1.2-1l0.2-0.2l-0.8-0.6l0-0.6l-0.4-0.5
							c0.1,0.2,0.2,0.5,0.1,0.6c-0.7-0.8-1.1-2.2-1-2.3l-1.5-1.9c0.1,0,0.4,0.3,0.6,0.5c-0.9-0.9,0.2-0.4-0.7-1.2c0,0.2-0.2,0-0.3,0
							c-0.1-0.6-0.8-1.7-1.4-2.5l0.3,0.1c-0.9-1.6-2-3.2-3-4.9c0.3,0.7-0.1,0.7-0.5,0.2l0.2-0.4c-0.4-0.2,0.2,0.6-0.4,0
							c-0.3-0.7,0.1-0.6,0.4-0.3l-0.6-0.7c0.1-0.1,0.2,0.1,0.3,0c-0.4-0.2-0.5-1.5-1.1-1.8l0.1-0.1c-1-1.7-1.5-2.5-2.3-3.9
							c-0.3,0.1-0.5-0.5-0.9-0.8c-0.5-1.1-0.9-2.4-1.6-3.6c-0.6-0.8-0.3-0.1-0.7-0.5c0.2-0.2-0.5-1.4,0-0.9
							c-0.8-1.5-1.1-1.9-2.3-3.8c0,0.3,0.1,0.5,0,0.4c-0.2-0.3-0.3-0.9-0.2-0.9l0.1,0.1c-1.5-2-1.9-5.4-3.2-6.9l0.1,0.1l-1.1-1.7
							c-0.4-0.9,0.4,0.4,0.3-0.3c-1.3-1.8-1.5-3.3-2.8-4.7c-0.1-0.5-0.2-0.8-0.4-1.2c-0.1-0.2-0.1-0.4-0.2-0.6
							c-0.1-0.2-0.1-0.5-0.2-0.7c-0.2-0.9,0-2.1,0.6-2.7l-0.2,0c0-0.4,0.3-0.4,0.5-0.6c-0.1,0-0.4,0.3-0.3,0
							c0.8-1.6,2.4-2.8,4.2-3.3c0.4-0.1,0.9-0.2,1.3-0.1c0.4,0,1,0,1.4,0.1c0.9,0.1,1.8,0.4,2.6,0.8c0.6,0.3,0.8,0.2,1.1,0.1
							c0.3,0,0.6,0,1.1,0.7c-0.2,0-0.4,0-0.6,0c0.6,0.3,1.1,0.8,1.5,1.3c0.5,0.6,1,1.2,1.4,1.9c0.9,1.3,1.8,2.6,2.8,3.7
							c-0.2-0.1-0.2-0.1-0.4-0.3c0.2,0.7,1.2,2,1.4,1.9c0.2,0.4-0.1,0.2,0,0.5c0.2,0.6,1,1.2,1,1.6c0,0.1-0.2-0.1-0.2-0.2
							c0.3,0.3,0.8,1.7,0.9,1.2c0.4,1.1,1.1,1.9,1.3,2.8c0.5,0.4,0.7,1.8,1.2,1.8c-0.4,0.1,0.5,2,1,2.5c-0.2-0.2,0.1,0.6-0.2,0.5
							c0.3,0.7,0.7,1.4,0.9,1.2c0.1,1.6,1.6,2.6,1.3,3.7c1.2,2.2,2.2,4.2,3.2,6.2c-0.4,0.1-1-2.2-1.4-2c1,1.9,1.8,2.8,2.5,4.8
							c0.2,0.5-0.3-0.2-0.4-0.3c1,1.9,1.6,3.8,2.6,5.4c0,0-0.2-0.2-0.3-0.3c0.2,0.3,0.3,0.8,0.5,0.7l-0.2-0.3c0-0.7,1.2,1.1,1.4,1.1
							c-0.8-0.3,0.7,1.7-0.4,1.2c0.1,0.2,0.4,0.4,0.5,0.3c0.1,0.3,0.1,0.5-0.2,0.2c0.7,1.1,0.7,0.6,1.2,1.7c-0.1,0-0.2-0.2-0.4-0.2
							c0.4,0.5,0.9,0.9,1.3,1.9c-0.1,0-0.1,0.1-0.2-0.2c0.8,1.5,1.9,2.4,2.6,4.1c-0.7-0.3,0.2,0.6-0.1,0.9l0.6,0.8l-0.1-0.4
							c0.4,0.8,1.1,1.3,1.4,2l-0.5-0.5l1,1.4l-0.4-0.9c0.6,0.7,0.3-0.3,0.9,0.7c-0.2-0.2,0.5,0.8,0.5,1.3l0,0c0.3,0.3,0.7,0.6,1,1.2
							c0,0.2-0.4,0.1-0.4,0.3c0.5,0.2,1.3,1.7,1.9,2c-0.2-0.1-0.3,0-0.3,0.1l0.4,0.2c0.2,0.4,0.2,0.5,0,0.5c0.7,1,0.1-0.6,0.9,0.7
							c-0.1-0.1-0.1,0-0.3-0.2c0.8,1.3,1.9,2.2,2.6,3.4c0,0.5-0.8-0.9-0.8-0.3c1.3,1.5,2.8,3,3.9,4.5l-0.2-0.3
							c0.6-0.1,0.6,1.3,1.4,1.9c-0.2-0.2-0.4-0.1-0.3-0.1c0.7,1.1,1.7,2.1,3,3.6l-0.3-0.1c0.4,0.7,1.1,1.7,1.6,2.4
							c0.3,0.1,0.5,0.5,0.5,0.2c0.9,2.5,3.3,3.7,4.2,5.9c-0.2-0.2-0.5-0.4-0.4-0.3l1.3,1.4c0.1-0.3-0.1-0.3-0.2-0.7
							c0.3,0.1,0.7,0.5,1,0.8c-0.7-0.6-0.3,0.2-0.1,0.6c0-0.1,0.2,0,0.2-0.1c0.3,1,0.5-0.2,1.1,1.1l-0.1,0c0.4,0.4,0.8,0.6,1.2,1
							c0,0.4-0.5-0.3-0.6-0.2c0.5,0.6,1.4,0.8,1.7,1.5c-0.3-0.2-0.6-0.5-0.9-0.8c0.3,0.8,0.4,0.8,0.8,1.3l0,0l0.8,1.1l-0.2-0.3
							c1.2,0.2,1.5,1.4,2.8,2c-1.2-0.6-0.3,0-0.6,0.2c0.2,0.3,0.5,0.7,0.3,0.7c0.6,0.3,0.6,0.9,1.5,1.2c0,0.1,0.5,0.5,0.2,0.5
							c0.7,0.5,0-0.3,0.1-0.3c1.2,0.6,2,2.3,3.6,3.1c1.3,0.8,1.8,0.8,3,1.5c0.3,0.4-0.5,0-0.5,0c0.5,0.6,1,1,1.6,1.3
							c-0.2,0-0.1,0.1,0,0.4c0.5,0.3,0.5,0,1.1,0.6c-0.2,0-0.4,0-0.7-0.1c0.6,0.4,1.3,0.6,1.9,1c0,0.3-0.5-0.1-0.8-0.1
							c0.7,0.4,1.7,1.2,2.1,1.1l-0.3-0.4c0.2,0.2,0,0.3-0.2,0.2c-0.7-0.3-0.7-0.7-0.7-0.8l0.4,0.3c-0.1-0.8-1.7-1.2-2.5-1.9l0.6-0.1
							l-1-0.4c-0.1-0.2-0.1-0.5,0.4-0.2c-0.5-0.6-0.6-0.3-1-0.9c0-0.1,0-0.1,0.1,0l-0.6-0.4c0.2,0,0.1-0.3,0.4,0
							c-0.9-1-1.8-1.1-2-1.6l0.1,0c-1.5-1-0.3,0.1-1.6-0.5l-0.2-1.2l-0.3,0.1c-0.1-0.1-0.4-0.4-0.3-0.4c-0.7-0.3,0,0.2-0.4,0.1
							c-0.5-0.8-1.9-1.5-1.8-2c-0.4,0,0.5,0.7-0.3,0.2c0.1-0.6-0.9-0.7-1.3-1.4c0.4,0,0.8,0.6,0.4-0.1c-0.7,0-1.1-1.2-1.6-1.6
							c-0.3,0.2-1.2-1-2-1.7c0.1,0-1.3-1.8-1.9-2.7l0.1,0c-0.4,0.1-1.1-0.8-1.6-1.4c0.2-0.1,0.3-0.1,0.7,0.2l-0.5-0.6
							c-0.2-0.1-0.4-0.2-0.7-0.6l0.3,0c-0.6-0.8-1.5-1.4-2.2-2.5c-0.2,0.1,0.1,1.3-0.9,0.3c0.1-0.1,0.2-0.3,0.5-0.1
							c-0.1-0.1-0.3-0.3-0.4-0.5l0.5,0.3c-0.3-0.5-0.3-0.1-0.6-0.5c0.2-0.1-0.1-0.4,0.1-0.4c0.1,0.1,0.2,0.4,0.4,0.5
							c-0.3-0.4-0.6-1-0.6-1.3c-0.1,0.1-0.2,0.2-0.5-0.1c-0.6-0.8,0-0.4-0.3-1c-0.3-0.1-0.5-0.7-0.8-0.6c-0.2-0.2-0.1-0.4-0.1-0.5
							c-0.4-0.3-1.5-2-1.4-1.3l0.1,0.1c0,0,0,0-0.1-0.1l0,0l0,0c-1.3-1.2-2-3-3.1-4.3l0.1-0.1c-0.7-0.8-1.4-1.8-2-2.3
							c-0.2-0.2-0.3-0.7-0.1-0.6c-0.5-0.6-0.7-0.6-1.2-1.6c0.6,0.5,0-0.3,0.6,0.6c-0.5-0.9-0.6-1.1-1.4-1.8c0.4,0.1-0.2-0.8-0.6-1.1
							l0.3,0.7c-0.4-0.4-0.6-0.8-0.9-1.2l0.4,0c-0.9-1.9-2.8-2.5-3.1-4.2c-0.5-0.3,0.5,1,0,0.8c-0.5-0.8-0.7-1.9-0.8-2.1
							c-0.6-1.2-1.1-0.7-1.7-1.9c0,0.2-0.2,0.5-0.8-0.3c-0.5-0.8-0.2-1.3,0.2-0.8c0.1,0.2,0.2,0.3,0.1,0.3c0.2,0.2,0.5,0.5,0.4,0.2
							l-0.2,0c-0.2-0.5-0.8-1.6-0.5-1.4c-0.5-0.6-0.3-0.2-0.1,0.3c-0.5-1.1-1-1.6-1.5-2.8c0,0.2,0,0.4-0.1,0.3
							c-0.8-1.7-0.6-0.6-1.3-1.7c-0.2-0.7,0.5,0-0.2-1c-0.3-0.7,0.2-0.3,0.4-0.1c-0.7-0.9-0.9-1.9-1.1-2.5l0.4,0.5
							c-0.2-0.3-0.3-0.6-0.5-0.8l-0.1,0.4c-0.1-0.3-0.3-0.6-0.2-0.6c-0.3-0.3-0.2,0.4-0.7-0.1c-0.1-0.5-0.8-1.2-0.5-1.5
							c0.6,1.4,0.2-0.3,0.8,0.8c-0.1-0.2-0.3-0.5-0.4-0.8c0-0.1,0.1,0,0.1,0.1c-0.4-1.4-0.6-0.4-1.2-1.8c0.2,0.1,0.2-0.5,0-0.7
							c0.3,0.5-0.1,0.4-0.5-0.1c-0.3-0.9-0.5-0.9-0.7-1.3l0.2,0.5c-0.2-0.1-0.4-0.5-0.7-1.1c0.1-0.1,0.3,0.5,0.3,0.3
							c-0.6-0.5-0.4-1.6-1-2.5c-0.1-0.5,0.3-0.2,0.2-0.6c-0.7-1-0.3-1.2-0.9-2.3c-0.1,0.4,0,0.4-0.5-0.2l0.9,1.8l-0.8-1
							c0.2,0.6,0.6,1.1,0.7,1.4c-0.4-0.5-0.3-0.4-0.4-0.1c0-0.9-0.8-1.4-1-2.4l0.6-0.2c-0.3-1.4-1.2-2.2-1.8-4l0.1,0.6
							c-0.3-0.1-0.5-1-0.8-1.6c0.2,0,0.1-0.4,0.1-0.7c-0.1,0.1-0.5-1.3-0.9-1.3l-0.1-0.9c-0.5-1.4-1.2-1.3-1.7-2.7
							c0.4,0.3,0.2-0.3,0.8,0.5c-0.2-0.4-0.3-0.8-0.5-0.8c0-0.3-0.8-1.1-0.8-1.6c-0.2-0.1-0.4-0.1-0.6-0.6c0-0.1,0.1,0,0.1,0
							c-0.1,0-0.5-0.7-0.5-0.2c-0.1-1.6-1.8-3.7-1.9-5.1c-0.5-0.9-1.1-2-1.6-2.9c0.1,0,0.1,0,0.2,0.1c-0.5-1.3-0.9-0.4-1.5-1.8
							c-0.1-0.8,0.6,0.6,0.4,0.1c0.5-0.5-1-1.5-1.3-2.6l0.2,0.2c-0.2-0.8-1.3-1.4-2-2.5c0,0,0.1,0,0.1-0.1c-0.8-0.5-1.8-1.7-2.6-2.6
							c0.4,0.1,0.4,0.4,0.5,0c-0.4-0.4-0.2,0.4-1-0.4c-0.1-0.4-0.6-1-0.6-1.3c0.3,0.2,0.6,0.5,0.8,0.8c-0.1-0.7-1.1-1-1.5-1.4
							l0.2-0.1c-0.7-0.5-1.2-0.6-1.6-0.6c-0.4-0.1-0.9-0.2-1.7-0.4l0.1,0.2c-1,0.2-0.7-0.4-1.7-0.2l-0.2-0.4c-0.6,0-2.3,0.3-3.3,0.7
							c0.5-0.5,1.9-0.8,2.8-0.9c-0.6-0.1-2.3,0.1-2.5,0.4c0.2-0.1,0.6-0.3,0.8-0.2c-0.8,0.4-1.7,0.8-2.8,1.4c-0.1-0.4-0.9,0-1.6,0.6
							c-0.8,0.6-1.5,1.5-2,1.7c-0.5,1.1-1.1,2.1-1.3,3.4c-0.3,1.2-0.2,2.7,0.5,4c0.1-0.6,0.2-0.4,0.3-0.1c0.2,0.3,0.4,0.6,0.6,0.4
							c0.4,0.5,0.5,0.7,0.5,0.7c0.2,0.5,0.4,1.1,0.6,1.6c0,0.4-0.4-0.4-0.5-0.3c0.6,1,0,0.6,0.3,1.3c0.1-0.2,0.5,0.2,0.7,0.9l-0.2-1
							c1.1,1.4,0.2,1.5,1.2,3l-0.4-0.4c0.5,0.8,1.4,3.1,2.3,3.6c0,0.2,0,0.4-0.3,0.1c0.9,2,2.6,4.1,3.1,5.7l-0.2-0.1
							c0.2,0.3,0.6,0.5,0.7,1c-0.1,0-0.2-0.1-0.1,0.1c0.1,0.2,0.7,0.8,0.9,1.3l-0.4-0.3c0.8,2,1.9,2.7,2.8,4.2
							c-0.4,0.2,0.3,1.7,0.6,2.5l-0.1,0c1.1,2.2,2.4,3.5,3.6,5.4c0.3,1.5,2.2,4.2,3.2,6.3c-0.1-0.3,0.3-0.1,0.6,0.2
							c0.2,0.5,1,1.1,0.6,1.2l-0.1-0.2c-0.1,0.5,0.5,1.4,1,2.2l0.5-0.2c0.5,2.3,3.4,4.8,3.4,6.2c0.4,0.4,0.8,0.9,1.2,1.3l-0.3,0.1
							c0.8,1.3,1.1,1.9,2.2,3.4l-0.4-0.2c0.6,0.9,1.4,0.6,2,1.4l-0.2,0.5c1,1.5,1.8,3.2,3.2,4.5c-0.1,0-0.2,0-0.4-0.2
							c0.5,0.7,1.8,2.9,2,2.3c-0.3,0.2,1.1,1.5,1.9,2.2l-0.3,0.1c0.8,0.4,0.9,0.4,1.7,1.2c0.1,0.2,0,0.3-0.2,0
							c0.5,0.8,0.7,0.4,1.3,1.3l-0.4-0.2c0.6,0.7,0.6,0.6,1.1,0.9c0.5,0.4,1.1,1.4,1,1.7c0.2,0,0.7,0.2,1,0.7c0,0.1-0.2,0-0.3,0
							c0.9,1.3,1.8,1.5,2.4,2.5c-0.1,0.1,0,0.2,0,0.2c-0.9-0.9-1.5-1.7-1.5-1.6c-0.2,0.2,0.5,1-0.3,0.6c0.7,0.5,2,1.2,2.6,2
							c0,0.1,0,0.1,0,0.2l-0.1-0.1c0.1,0.2,0.3,0.3,0.5,0.4c0.2,0.3,0.3,0.4,0.5,0.6c-0.1,0.2,0.8,0.9,1.1,1.3
							c0.2-0.2,0.6,0.3,0.3-0.3c0,0.1-0.1,0-0.3-0.3c-0.1,0-0.1-0.1-0.2-0.1l0,0c-0.2-0.2-0.6-0.5-0.9-0.9c0.4,0.2,0.8,0.4,1.1,0.9
							c0.3,0.1,0.6,0.1,0.8,0.2c0.2,0.8,1.1,1.8,1,2.1c1.3,0.9,2.8,2.4,3.9,2.6c0.4,0.2,0.3,0.4,0.4,0.6c-0.2-0.1-0.5-0.3-0.6-0.3
							c0.8,0.5,2.1,1.6,2.5,1.4c0.8,0.8-0.7-0.1,0.5,0.8l-0.2,0c2.1,2.3,4.5,2.1,6.8,4.5c-0.2-0.2-0.3-0.2-0.3-0.3
							c3,2.3,6.9,3.7,10,5.8c0.9,0.5,1.1,0.4,1.8,0.5l0.1,0.4l1.2,0.1c1.5,0.4,2.2,1.7,4.3,2l-0.2-0.3c0.7,0.3,2.2,0.7,2,0.8
							c0.1,0,0.3-0.1,0.5,0.1l0,0.2l1.7,0.3c1.3,0.5-0.4,0.5,1.5,1.2c0.7,0.2,2.1,0.2,1.9,0c-0.3-0.1-0.7-0.3-0.7-0.5l0.7,0.1
							c0.3-0.4,0.9-0.7-0.6-1.5l-1.2-0.1l-0.3-0.3l0.9,0.3c-0.5-0.4-0.8-0.3-1.2-0.3c0-0.1-0.2-0.3-0.4-0.4l-1.2,0.1
							c-0.1-0.2,0.6-0.2-0.1-0.5c-0.6,0,0.3,0.6-0.5,0.4c-0.4-0.4-0.2-0.5-0.9-0.5c0-0.1,0.1-0.2,0.4-0.1c-0.6,0-1.4-0.5-1.8-0.3
							c-0.4-0.4-1.8-0.6-1.6-1c-0.2,0-1.1-0.1-1.5-0.2c1.1-0.1-1.8-0.8-1.3-1.2c-0.8,0.2-2.4-0.8-3.6-1.2c0.1,0,0.2,0,0.3,0.1
							c-0.6-0.3-0.7-0.6-1.1-0.8c-0.3,0.3-1.3-0.1-1.9-0.2c-0.6-0.7,0.7-0.2,0.6-0.6c-0.1,0.3-1.5-0.4-1.3,0
							c-0.5-0.5-0.4-0.4-0.6-0.8c-0.3,0.4-0.6-0.2-1.2-0.2c-0.7-0.7,0-0.5-1-0.9C239.6,163.6,240.5,164,240.5,164z M220.5,149.3
							L220.5,149.3c0.2,0.1,0.3,0.3,0.4,0.4C220.8,149.6,220.7,149.5,220.5,149.3z M219.1,147.8c0.2,0.2,0.4,0.4,0.6,0.7
							c0,0.1-0.1,0.1-0.3,0C219.5,148.5,219.2,148.1,219.1,147.8z M220.8,152.4c-0.3-0.2-0.3-0.3-0.3-0.4c0.1,0.1,0.3,0.2,0.4,0.4
							c0,0,0,0,0.1,0C220.9,152.4,220.9,152.4,220.8,152.4z"/>
						<path class="st1" d="M221.5,152.5c0,0,0.1,0,0.1,0.1c0-0.1-0.1-0.1-0.1-0.2c0,0-0.1,0-0.1,0
							C221.4,152.4,221.4,152.5,221.5,152.5z"/>
						<path class="st1" d="M232,144.7L232,144.7C232,144.7,232,144.7,232,144.7C232,144.7,232,144.7,232,144.7z"/>
						<polygon class="st1" points="202.1,124.3 202,124.3 202.2,124.5 						"/>
						<path class="st1" d="M238.3,154.5c0,0,0,0.1,0,0.2C238.3,154.7,238.3,154.6,238.3,154.5z"/>
						<path class="st1" d="M241.6,158.4l0.4,0.6C241.8,158.7,241.7,158.5,241.6,158.4z"/>
						<path class="st1" d="M244.2,161.3c0.1,0,0.1,0,0.1,0l0,0L244.2,161.3z"/>
						<path class="st1" d="M208.5,111.1c0,0,0-0.1-0.1-0.1C208.2,110.7,208.4,110.9,208.5,111.1z"/>
						<path class="st1" d="M217.9,126.9c-0.1-0.1-0.3-0.3-0.4-0.4C217.6,126.8,217.8,127,217.9,126.9z"/>
						<polygon class="st1" points="200.1,92.5 200.2,92.5 200.1,92.4 						"/>
						<path class="st1" d="M217,125.8c0.1,0.3,0.3,0.5,0.5,0.7C217.3,126.3,217.2,126,217,125.8z"/>
						<path class="st1" d="M257,172.2l0.1,0.1c0,0,0,0,0,0L257,172.2z"/>
						<path class="st1" d="M257.1,172.3l0.2,0.1C257.3,172.4,257.2,172.3,257.1,172.3z"/>
						<path class="st1" d="M257.7,172.7l-0.4-0.2C257.4,172.5,257.6,172.7,257.7,172.7z"/>
						<path class="st1" d="M253,168.9l-0.1,0C253,169,253,169,253,168.9z"/>
						<path class="st1" d="M251.8,168c0.3,0.3,0.6,0.8,1,1l0.1,0C252.6,169,252.2,168.1,251.8,168z"/>
						<path class="st1" d="M247.7,162.8l0.9,0.9c-0.1-0.2-0.2-0.5,0.2-0.2C247.8,162.3,248.9,164,247.7,162.8z"/>
						<path class="st1" d="M244.8,160c0.5,0.4,0.1-0.1,0.2-0.1C244.6,159.6,244.5,159.5,244.8,160z"/>
						<path class="st1" d="M226.8,137.2l0.2-0.1C226.7,136.7,226.9,137.2,226.8,137.2z"/>
						<polygon class="st1" points="222.3,133.6 222.5,134.1 222.9,134.2 						"/>
						<polygon class="st1" points="221.8,129.9 222,130 221.4,129.4 						"/>
						<path class="st1" d="M200,86.3l-0.2,0.3C200,86.9,200.3,86.8,200,86.3z"/>
						<path class="st1" d="M186.5,69.8c-0.2-0.2-0.8-0.5-1.2-0.4C185.7,69.5,186.2,69.8,186.5,69.8z"/>
						<polygon class="st1" points="197,120.9 196.7,120.6 197.2,121.2 						"/>
					</g>
				</g>
			</g>
		</g>
	</g>
	<g>
		<path class="st0" d="M13.7,174.5c4.8-3.8,9.6-6.9,13.6-10.9c5.4-5.4,10.4-11.3,15-17.4c6.1-7.9,12.5-15.8,17.4-24.5
			c5.6-9.9,9.6-20.7,14.4-31.1c2.7-5.9,5.2-12,9.7-16.8c3.2-3.5,7.5-4.6,11.3-3c4,1.7,5.6,5.8,3.7,9.7
			c-8.7,17.4-17.7,34.6-28.8,50.7c-7.4,10.9-15.7,21-26.4,28.8C34.7,166.5,24.9,171.4,13.7,174.5z"/>
		<g>
			<g>
				<g>
					<g>
						<path class="st1" d="M13.6,173.9c-0.1,0.1,0,0.3,0.4,0.1l0.2-0.4L13.6,173.9z"/>
						<path class="st1" d="M16.3,173.7c0.4-0.3,0.8-0.7,0.5-0.9c-0.4,0.4-0.5,0.4-0.9,0.9c-0.4,0.2-0.7,0.1-0.7,0
							c-0.1,0.1-0.6,0.1-0.8,0.4c0.6,0.1,1.2-0.1,1.8-0.5C16.5,173.5,16.3,173.6,16.3,173.7z"/>
						<path class="st1" d="M50.9,154.7l-0.2,0.1C50.7,154.8,50.8,154.8,50.9,154.7z"/>
						<path class="st1" d="M67.3,136.3c-0.1,0.2-0.1,0.2-0.1,0.3C67.2,136.4,67.3,136.3,67.3,136.3z"/>
						<path class="st1" d="M70,133.1c-0.1,0.1-0.1,0.1-0.2,0.2C69.9,133.2,70,133.2,70,133.1z"/>
						<path class="st1" d="M50.9,154.7l0.6-0.4C51.4,154.2,51.1,154.5,50.9,154.7z"/>
						<path class="st1" d="M21.2,171.2c-0.1,0.1-0.2,0.1-0.3,0.2L21.2,171.2C21.2,171.2,21.2,171.2,21.2,171.2z"/>
						<path class="st1" d="M42.5,161.7l-0.2,0.1c0,0.1,0,0.1-0.1,0.2L42.5,161.7z"/>
						<path class="st1" d="M35.5,166.2c0.2-0.1,0.1-0.4,0.1-0.5c0,0.2-0.1,0.3-0.3,0.4C35.3,166.2,35.4,166.2,35.5,166.2z"/>
						<path class="st1" d="M23.4,171.6l-0.2,0.1C23.2,171.7,23.3,171.6,23.4,171.6z"/>
						<path class="st1" d="M47.4,158.2c0,0,0.1,0,0.1,0C47.5,158.2,47.4,158.1,47.4,158.2z"/>
						<path class="st1" d="M22.2,169.8C22.2,169.8,22.2,169.8,22.2,169.8C22.2,169.8,22.2,169.8,22.2,169.8z"/>
						<path class="st1" d="M13.7,174.5L13.7,174.5c0.1-0.1,0.1-0.2,0-0.2L13.7,174.5z"/>
						<path class="st1" d="M74.6,126.9C74.6,126.9,74.6,126.9,74.6,126.9C74.5,127.1,74.6,127,74.6,126.9z"/>
						<path class="st1" d="M88.5,69.5c0.5,0,0.1,0.2-0.1,0.3c-0.3,0.2-0.4,0.3,0.2,0.3C88.4,70,89.6,69.3,88.5,69.5z"/>
						<path class="st1" d="M21.4,171.1l0.3-0.1C21.6,171.1,21.5,171.1,21.4,171.1z"/>
						<path class="st1" d="M88.5,70.1L88.5,70.1l0.1,0C88.6,70.1,88.6,70.1,88.5,70.1z"/>
						<path class="st1" d="M83.7,111.7c-0.1,0-0.1,0-0.2,0.1C83.6,111.8,83.6,111.8,83.7,111.7z"/>
						<path class="st1" d="M76.6,122.8l0.2-0.3C76.7,122.6,76.6,122.7,76.6,122.8z"/>
						<path class="st1" d="M86.7,105.5c0.1-0.1,0.2-0.2,0.3-0.4c0,0,0,0-0.1,0C86.9,105.2,86.9,105.3,86.7,105.5z"/>
						<path class="st1" d="M90.1,99.2c0,0-0.1,0.1-0.1,0.1c0,0.1-0.1,0.1-0.1,0.2L90.1,99.2z"/>
						<path class="st1" d="M37.5,154.2c-0.2,0.1-0.3,0.1-0.4,0.1C37.3,154.3,36.7,155.2,37.5,154.2z"/>
						<path class="st1" d="M21.3,171.3c0-0.1,0.1-0.1,0.2-0.2C21.4,171.2,21.3,171.2,21.3,171.3C21.2,171.3,21.2,171.3,21.3,171.3z"
							/>
						<path class="st1" d="M84.9,104.2l0.6-1C85.3,103.5,85.1,103.8,84.9,104.2z"/>
						<path class="st1" d="M66.1,111.7l-0.1,0.3C66.1,111.8,66.1,111.8,66.1,111.7z"/>
						<path class="st1" d="M87.1,100.2c0.2-0.1,0.3-0.3,0.5-0.5c0-0.1,0-0.1,0-0.1L87.1,100.2z"/>
						<path class="st1" d="M37.1,154.3L37.1,154.3L37.1,154.3z"/>
						<path class="st1" d="M32.7,160.3c0.7-0.8,0.1-0.6,0.1-0.9c0.8-1,0.6-0.3,1-0.5c0.5-0.7,0.6-1.4,1-1.8c0.1,0,0.2-0.1,0.1,0.1
							c0.3-0.8,1.7-1.9,2-2.9c0.1,0,0.1,0,0.2,0c-0.2,0-0.4-0.1-0.5-0.2c0.3-0.4,0.4-0.8,0.7-0.8c-0.2,0.2-0.1,0.3-0.2,0.5l0.2-0.5
							c0.6-0.1-0.4,0.6-0.2,0.8c0.6-0.8,1.1-1.9,1.6-2.4c0.4,0.1-1,1.4-0.2,0.9l-0.8,0.8c1-0.3-0.5,0.5,0.5,0.3c1.1-1.1,1-1.4,2-2.6
							c0.1-0.4-0.3-0.1-0.2-0.5c1.1-1.9,1.7-0.8,2.4-2.4c0.1-0.5-0.2-0.9,0.7-1.6l0.1,0.5c0.9-1.2,0.1-1,1.2-2.1
							c-0.1,0.3-0.6,1-0.4,0.9c0.9-0.6,0.3-0.7,0.7-1.3l0.4,0.1c0.9-1.3,1.8-2.8,2.8-4.3c0,0.1-0.1,0.4,0.3,0.2
							c1.2-1.9,2.9-3.7,4.4-5.4l0.2-0.8c0.1-0.2,0.3-0.2,0.2,0c0.6-0.6-0.1-0.1,0-0.5c0.3-0.4,0.5-0.4,0.4-0.1
							c0.7-1.3,2-3.8,3.1-4.9l-0.1,0.3c0.8-1,0.3-1.5,1.1-2.3l-0.1,0.2c1.5-2.2,2.8-4.8,4.1-6.4c-0.2-0.5,1.4-2.2,0.9-2.7
							c0.9-1.2,0.8-0.8,2-2.6c0.3-0.5,0-0.9,0.3-1.6l0.3,0.1l0.1-1l0.5-0.3l0.2-0.6c-0.1,0.2-0.4,0.4-0.4,0.4c0.3-1,1.2-2.2,1.4-2.1
							l0.8-2.3c0.1,0.1,0,0.5-0.1,0.8c0.2-1.3,0.4-0.1,0.6-1.3c-0.1,0.1-0.1-0.2-0.2-0.2c0.4-0.5,0.9-1.7,1.3-2.6l0.1,0.3
							c0.8-1.6,1.4-3.5,2.2-5.3c-0.4,0.6-0.6,0.3-0.4-0.2l0.4-0.1c0-0.4-0.4,0.5-0.3-0.3c0.3-0.7,0.5-0.3,0.5,0.1l0.3-0.9
							c0.1,0,0.1,0.2,0.2,0.3c0-0.4,0.9-1.3,0.8-1.9l0.1,0c0.8-1.8,1.1-2.7,1.7-4.2C74.7,92.1,75,91.6,75,91
							c0.6-1.1,1.3-2.2,1.9-3.5c0.3-1-0.1-0.4-0.1-0.9c0.3,0,0.9-1.3,0.7-0.5c0.7-1.6,0.9-2,1.7-4c-0.2,0.2-0.4,0.4-0.4,0.2
							c0.1-0.4,0.5-0.7,0.6-0.6l0,0.1c0.4-1.2,1.3-2.3,2.2-3.3c0.9-1,1.7-1.9,2.1-2.8l0,0.1c0.3-0.6,0.7-1.1,1.1-1.6
							c0.6-0.6-0.2,0.5,0.3,0.2c0.6-0.9,1.2-1.3,1.8-1.7c0.6-0.4,1.3-0.6,2-1c0.7,0.1,1.7-0.1,2.8-0.1c1.1,0,2.3,0.2,2.9,0.8l0-0.2
							c0.4,0,0.4,0.3,0.6,0.5c0-0.1-0.3-0.4,0-0.3c1.6,0.7,2.8,2.4,3,4.1c0.1,0.9,0,1.7-0.4,2.5c-0.1,0.2-0.2,0.4-0.3,0.6
							c-0.1,0.2-0.2,0.4-0.3,0.6c-0.3,0.5-0.5,0.9-0.8,1.4c-0.7,1.4,0.4,1.2-0.8,2.8l0-0.6c-1.1,3-2.9,5.7-4,8.6
							c0-0.2-0.1-0.2,0.1-0.5c-0.5,0.5-1.1,2.1-0.9,2.2c-0.2,0.4-0.2,0-0.4,0.2c-0.4,0.5-0.5,1.6-0.9,1.8c-0.1,0,0-0.2,0.1-0.3
							c-0.1,0.4-0.9,1.7-0.5,1.5c-0.7,1-0.9,2-1.5,2.7c0,0.7-1.1,1.7-0.8,2c-0.4-0.3-1.3,1.6-1.4,2.3c0-0.3-0.4,0.5-0.5,0.1
							c-0.4,0.7-0.7,1.4-0.4,1.4c-1.2,1.1-1.1,2.9-2.1,3.3c-1,2.3-2,4.3-3,6.3c-0.3-0.3,1.2-2.1,0.7-2.3c-0.9,1.9-1.2,3.1-2.4,4.9
							c-0.3,0.4,0-0.4,0-0.6c-0.9,1.9-2.1,3.4-2.9,5.1c0,0,0-0.2,0.1-0.4c-0.2,0.3-0.5,0.7-0.3,0.8l0.1-0.3c0.6-0.3-0.3,1.6-0.2,1.7
							c-0.2-0.8-1.1,1.5-1.2,0.2c-0.1,0.2-0.2,0.5,0,0.6c-0.2,0.3-0.4,0.3-0.3-0.1c-0.6,1.2-0.2,0.9-0.8,1.9c-0.1-0.1,0-0.3,0-0.4
							c-0.2,0.6-0.3,1.2-1,2c0-0.1-0.1,0,0-0.3c-0.9,1.4-1.2,2.7-2.5,4.2c0-0.7-0.5,0.4-0.8,0.3l-0.5,0.9l0.4-0.2
							c-0.5,0.7-0.8,1.5-1.3,2.1l0.3-0.6l-0.9,1.4l0.7-0.7c-0.4,0.8,0.4,0.2-0.3,1.1c0.1-0.2-0.5,0.7-1,1l0,0
							c-0.2,0.4-0.3,0.9-0.8,1.3c-0.2,0.1-0.2-0.4-0.4-0.3c0,0.5-1.2,1.7-1.3,2.3c0.1-0.2-0.1-0.3-0.2-0.3l0,0.4
							c-0.3,0.3-0.4,0.3-0.5,0.1c-0.8,0.9,0.6,0-0.5,1c0.1-0.1,0-0.1,0.1-0.3c-1,1.1-1.7,2.3-2.7,3.3c-0.5,0.1,0.7-1,0.2-0.8
							c-1.2,1.5-2.3,3.4-3.7,4.7l0.3-0.2c0.2,0.6-1.2,0.9-1.7,1.7c0.1-0.2,0-0.4,0-0.3c-1,0.9-1.8,2-3.1,3.4l0.1-0.3
							c-0.7,0.4-1.5,1.3-2.2,1.8c-0.1,0.3-0.5,0.6-0.1,0.5c-2.4,1.1-3.5,3.4-5.8,4.2c0.2-0.2,0.5-0.5,0.3-0.3l-1.5,1.2
							c0.3,0.1,0.3,0,0.7-0.1c-0.1,0.3-0.5,0.7-0.9,0.9c0.6-0.6-0.2-0.3-0.6-0.2c0.1,0,0,0.2,0.1,0.2c-1.1,0.2,0.1,0.5-1.2,1l0-0.1
							c-0.4,0.3-0.7,0.7-1.2,1c-0.3-0.1,0.4-0.4,0.3-0.6c-0.6,0.4-1,1.3-1.8,1.4c0.2-0.2,0.6-0.5,0.9-0.7c-0.8,0.1-0.9,0.3-1.4,0.5
							l0.1,0l-1.2,0.6l0.3-0.1c-0.5,1.1-1.7,1.1-2.6,2.2c0.9-1,0.1-0.3,0-0.6c-0.3,0.1-0.8,0.2-0.7,0.1c-0.4,0.5-1,0.3-1.6,1
							c-0.1-0.1-0.6,0.3-0.6,0c-0.7,0.4,0.2,0.1,0.2,0.2c-1,0.9-2.8,0.9-4.2,2.1c-1.3,0.8-1.5,1.2-2.7,1.9c-0.5,0,0.2-0.5,0.2-0.5
							c-0.8,0.2-1.3,0.4-2,0.8c0.1-0.1-0.1-0.1-0.3-0.2c-0.5,0.2-0.2,0.5-1,0.6c0.1-0.1,0.2-0.4,0.4-0.6c-0.6,0.3-1.2,0.7-1.9,1.1
							c-0.2-0.1,0.3-0.4,0.5-0.6c-0.7,0.3-1.9,0.8-2.1,1.2L18,173c-0.3,0.1-0.2-0.2,0-0.3c0.6-0.4,1-0.2,1-0.2l-0.5,0.2
							c0.7,0.4,1.9-0.8,2.9-1.1l-0.3,0.5l0.9-0.7c0.2,0,0.5,0.2,0,0.4c0.8-0.1,0.6-0.4,1.2-0.4c0.1,0,0.1,0,0,0.1l0.6-0.4
							c-0.1,0.1,0.2,0.2-0.2,0.3c1.3-0.3,1.8-1.1,2.4-1l-0.1,0.1c1.6-0.9,0-0.4,1.1-1.2l1.1,0.3l0-0.4c0.2-0.1,0.5-0.2,0.5-0.1
							c0.5-0.5-0.2-0.1,0.1-0.4c0.9-0.1,2.2-1.2,2.6-0.9c0.2-0.4-0.8,0.2-0.1-0.3c0.5,0.3,0.9-0.6,1.8-0.8c-0.1,0.4-0.9,0.6,0,0.4
							c0.2-0.6,1.5-0.7,2-1.1c-0.2-0.3,1.2-0.9,2.2-1.6c0,0.1,2-1,3-1.5l0,0.1c0-0.4,0.9-1,1.6-1.5c0.1,0.2,0,0.4-0.3,0.7l0.6-0.4
							c0.1-0.2,0.2-0.4,0.6-0.7l0,0.3c0.8-0.6,1.5-1.5,2.6-2.1c-0.1-0.2-1.3,0.1-0.3-0.9c0.1,0.1,0.3,0.2,0.1,0.5
							c0.1-0.1,0.3-0.3,0.5-0.4l-0.3,0.5c0.5-0.3,0.1-0.3,0.5-0.6c0.1,0.2,0.4-0.1,0.4,0.1c-0.1,0.1-0.4,0.2-0.5,0.4
							c0.4-0.3,1-0.6,1.3-0.6c-0.1-0.1-0.2-0.2,0.1-0.5c0.8-0.7,0.4,0,0.9-0.3c0.1-0.3,0.7-0.6,0.5-0.8c0.2-0.2,0.4-0.1,0.5-0.1
							c0.3-0.4,1.8-1.7,1.2-1.5l-0.1,0.1c0,0,0,0,0.1-0.1l0,0l0,0c1.1-1.4,2.8-2.3,3.9-3.6l0.1,0.1c0.7-0.8,1.5-1.7,1.9-2.4
							c0.2-0.2,0.6-0.4,0.6-0.2c0.5-0.6,0.5-0.8,1.3-1.5c-0.4,0.7,0.3-0.1-0.5,0.7c0.8-0.7,1-0.8,1.5-1.8c-0.1,0.4,0.7-0.4,1-0.8
							l-0.6,0.4c0.3-0.4,0.7-0.8,1-1.1l0.1,0.4c1.7-1.3,1.9-3.3,3.4-4.2c0.2-0.6-0.8,0.8-0.7,0.2c0.6-0.7,1.6-1.2,1.8-1.5
							c0.9-0.9,0.4-1.3,1.3-2.3c-0.2,0.1-0.6,0,0-0.9c0.6-0.7,1.1-0.7,0.8-0.1c-0.1,0.2-0.2,0.3-0.3,0.2c-0.1,0.3-0.3,0.6,0,0.4
							l0-0.2c0.4-0.3,1.1-1.4,1.1-1c0.3-0.7,0-0.4-0.3,0c0.9-0.9,1.1-1.6,1.9-2.5c-0.2,0.1-0.4,0.2-0.3,0c1.2-1.4,0.3-0.8,1-1.9
							c0.5-0.5,0.2,0.5,0.8-0.7c0.5-0.6,0.4,0,0.3,0.4c0.5-1.1,1.3-1.7,1.7-2.2l-0.3,0.6c0.2-0.3,0.3-0.6,0.5-0.8l-0.4,0.2
							c0.2-0.3,0.4-0.5,0.5-0.5c0.1-0.4-0.5,0-0.3-0.7c0.4-0.3,0.7-1.3,1-1.2c-0.9,1.2,0.4,0-0.3,1.1c0.1-0.2,0.3-0.5,0.5-0.8
							c0.1,0,0,0.1,0,0.2c1-1,0.1-0.7,0.9-2c0,0.3,0.5-0.1,0.6-0.3c-0.3,0.5-0.4,0.1-0.2-0.5c0.6-0.7,0.5-0.9,0.7-1.3l-0.4,0.4
							c0-0.3,0.2-0.6,0.5-1.2c0.1,0-0.2,0.6-0.1,0.4c0.1-0.8,1.1-1.2,1.5-2.2c0.4-0.3,0.3,0.1,0.6-0.2c0.4-1.1,0.9-0.9,1.3-2.1
							c-0.4,0.2-0.4,0.3-0.1-0.6l-0.9,1.8l0.4-1.3c-0.3,0.5-0.5,1.2-0.7,1.4c0.1-0.6,0.2-0.5-0.2-0.4c0.7-0.5,0.7-1.5,1.4-2.2
							l0.5,0.3c1-1.1,1-2.3,2.1-3.9l-0.4,0.5c-0.1-0.3,0.5-1,0.8-1.6c0.1,0.1,0.4-0.1,0.6-0.3c-0.1,0,0.7-1.2,0.4-1.5l0.6-0.6
							c0.8-1.3,0.3-1.8,1.1-3c0,0.5,0.4,0,0.1,0.9c0.2-0.4,0.5-0.8,0.4-0.8c0.2-0.2,0.4-1.3,0.8-1.6c0-0.2-0.1-0.4,0.1-0.8
							c0.1,0,0.1,0,0.1,0c-0.1,0,0.3-0.8-0.1-0.5c1.2-1,1.9-3.6,3-4.5c0.4-1,1-2.1,1.4-2.9c0,0.1,0.1,0,0,0.2c0.8-1.1-0.1-1,0.7-2.2
							c0.6-0.5-0.2,0.8,0.1,0.4c0.7,0.1,0.8-1.6,1.6-2.4l-0.1,0.2c0.5-0.6,0.6-1.8,1.3-2.9c0,0,0,0.1,0.1,0.1
							c0.1-0.9,0.7-2.4,1.2-3.5c0.1,0.4-0.1,0.5,0.2,0.5c0.2-0.5-0.4,0,0-1c0.3-0.2,0.7-0.9,1-0.9l-0.4,0.9c0.6-0.3,0.6-1.2,0.9-1.6
							l0.1,0.1c0.7-1.4,0.3-1.6,1.1-3.1l-0.2,0.1c0.1-1,0.6-0.6,0.6-1.6l0.5-0.2c0.1-0.3,0.1-0.9,0.1-1.6c0-0.6-0.2-1.3-0.3-1.9
							c0.4,0.6,0.6,2,0.5,2.9c0.1-0.3,0.2-0.9,0.2-1.4c0-0.5-0.1-1-0.2-1.2c0.1,0.3,0.2,0.6,0.1,0.9c-0.3-0.8-0.6-1.8-1.1-2.9
							c0.4,0,0.1-0.9-0.5-1.7c-0.6-0.8-1.5-1.5-1.8-2c-1.1-0.5-2.1-1-3.3-1.3c-1.2-0.3-2.5-0.5-3.9-0.2c0.5,0.2,0.3,0.3,0,0.3
							c-0.3,0.1-0.7,0.2-0.5,0.4c-0.6,0.2-0.8,0.3-0.9,0.2c-0.6,0.1-1.2,0.2-1.9,0.4c-0.5,0.1,0.5-0.4,0.4-0.5
							c-1.3,0.6-0.6,0-1.5,0.4c0.3,0.1-0.3,0.5-0.9,0.9c0.3-0.2,0.7-0.3,1.1-0.4c-0.7,0.7-1.1,0.8-1.5,1c-0.4,0.2-0.8,0.4-1.3,1.2
							c0.1-0.2,0.2-0.4,0.3-0.6c-0.6,0.8-2.3,2.7-2.4,3.7c-0.2,0.1-0.4,0.2-0.2-0.2c-1.4,1.8-2.2,4.4-3.3,5.8l-0.1-0.2
							c-0.1,0.4-0.1,0.8-0.4,1.2c0-0.1-0.1-0.2-0.2,0c-0.1,0.2-0.3,1.1-0.6,1.5l0.1-0.5c-1.1,1.8-1,3.1-1.7,4.8
							c-0.4-0.2-1.2,1.3-1.6,2l0-0.1c-1.1,2.2-1.4,4-2.2,6.1c-1,1.1-2.1,4.3-3.2,6.3c0.2-0.3,0.3,0.2,0.2,0.6
							c-0.3,0.5-0.3,1.5-0.6,1.2l0.1-0.2c-0.5,0.2-0.9,1.3-1.2,2l0.4,0.3c-1.6,1.7-2.1,5.4-3.3,6.2c-0.1,0.5-0.4,1.1-0.5,1.7
							l-0.2-0.2c-0.7,1.3-1.1,1.9-1.9,3.6l0-0.4c-0.5,0.9,0.1,1.5-0.3,2.4l-0.5,0c-0.9,1.6-2.1,3-2.7,4.7c0-0.1-0.1-0.2,0-0.4
							c-0.5,0.7-2,2.6-1.4,2.7c-0.3-0.2-1.1,1.5-1.5,2.4l-0.1-0.3c-0.2,0.9-0.1,1-0.7,2c-0.2,0.2-0.3,0.1-0.1-0.2
							c-0.6,0.7-0.2,0.7-1,1.5l0.1-0.4c-0.6,0.7-0.4,0.7-0.6,1.3c-0.3,0.5-1.1,1.4-1.4,1.4c0,0.2-0.1,0.7-0.5,1.1
							c-0.1,0,0-0.2,0-0.3c-1.1,1.1-1.2,2.1-2,2.8c-0.1,0-0.2,0-0.2,0c0.8-1,1.4-1.8,1.3-1.7c-0.2-0.2-0.9,0.6-0.6-0.2
							c-0.3,0.8-0.8,2.1-1.5,2.8c0,0-0.1,0-0.1,0l0-0.1c-0.2,0.2-0.3,0.3-0.3,0.5c-0.2,0.2-0.4,0.4-0.6,0.6c-0.2,0-0.8,0.8-1.1,1.2
							c0.2,0.1-0.2,0.6,0.4,0.3c-0.1,0.1,0-0.1,0.2-0.4c0-0.1,0.1-0.1,0.1-0.2l0,0c0.2-0.3,0.5-0.6,0.8-1c-0.1,0.4-0.3,0.8-0.8,1.1
							c0,0.3,0,0.7-0.1,0.8c-0.7,0.3-1.7,1.2-2,1.2c-0.8,1.3-2.1,2.9-2.3,4c-0.2,0.4-0.4,0.3-0.6,0.4c0.1-0.2,0.3-0.5,0.3-0.6
							c-0.4,0.8-1.6,2.1-1.4,2.4c-0.8,0.8,0.1-0.7-0.8,0.5l0-0.2c-2.3,1.9-2.3,4.3-5.1,6.3c0.2-0.1,0.3-0.2,0.4-0.2
							c-2.7,2.6-5,6-8,8.1c-0.8,0.6-0.8,0.9-1.1,1.4l-0.4-0.1l-0.6,1c-1,1.2-2.6,1.1-3.8,2.7l0.3,0c-0.6,0.4-1.7,1.4-1.8,1.2
							c0,0.1-0.1,0.3-0.3,0.4l-0.1-0.1l-1.2,1.3c-1.2,0.7-0.2-0.6-1.8,0.5c-0.6,0.5-1.4,1.7-1.1,1.6c0.2-0.2,0.7-0.4,0.8-0.3
							l-0.5,0.5c0.2,0.4,0.1,1.1,1.6,0.4l0.7-0.9l0.4,0l-0.8,0.6c0.6-0.2,0.7-0.5,1-0.9c0.1,0,0.3,0,0.5-0.1l0.6-1
							c0.2,0.1-0.2,0.6,0.5,0.2c0.3-0.5-0.6,0,0-0.7c0.6-0.2,0.5,0.1,1-0.5c0.1,0,0.1,0.2-0.1,0.4c0.4-0.5,1.2-1,1.3-1.3
							c0.6-0.1,1.5-1.2,1.7-0.8c0.1-0.2,0.6-0.9,1-1.2c-0.4,1,1.6-1.2,1.7-0.6c0.3-0.8,1.9-1.9,2.6-3c0,0.1-0.1,0.2-0.2,0.3
							c0.5-0.5,0.8-0.5,1.2-0.8c-0.2-0.3,0.5-1.2,0.7-1.8c0.9-0.4,0,0.7,0.4,0.8c-0.3-0.2,0.8-1.3,0.4-1.3c0.6-0.3,0.5-0.3,1-0.4
							c-0.3-0.4,0.4-0.5,0.5-1.1c0.8-0.5,0.5,0.1,1.1-0.8C33.2,159.5,32.7,160.3,32.7,160.3z M48,140.2L48,140.2
							c-0.1,0.2-0.2,0.3-0.3,0.4C47.8,140.6,47.8,140.4,48,140.2z M49.3,138.5c-0.2,0.2-0.4,0.5-0.6,0.7c-0.1,0-0.2-0.1,0-0.3
							C48.7,139.1,49,138.7,49.3,138.5z M45,140.9c0.2-0.3,0.3-0.3,0.4-0.3c-0.1,0.1-0.2,0.3-0.3,0.5c0,0,0,0,0,0.1
							C45,141,45,141,45,140.9z"/>
						<path class="st1" d="M44.9,141.6c0,0,0,0.1-0.1,0.1c0.1,0,0.1-0.1,0.2-0.1c0-0.1,0-0.1,0-0.1C45,141.5,45,141.5,44.9,141.6z"
							/>
						<path class="st1" d="M50.6,154.9L50.6,154.9C50.6,154.9,50.6,154.9,50.6,154.9C50.6,154.9,50.6,154.9,50.6,154.9z"/>
						<polygon class="st1" points="65.3,113.9 65.2,113.9 65.2,114.1 						"/>
						<path class="st1" d="M40.9,161.3c0,0-0.1,0-0.2,0C40.7,161.3,40.8,161.3,40.9,161.3z"/>
						<path class="st1" d="M36.6,163.9l-0.7,0.3C36.3,164.1,36.5,164,36.6,163.9z"/>
						<path class="st1" d="M33.2,165.7c0,0.1,0,0.1,0,0.1l0,0L33.2,165.7z"/>
						<path class="st1" d="M74.8,122c0,0,0.1-0.1,0.1-0.1C75,121.6,74.9,121.8,74.8,122z"/>
						<path class="st1" d="M65.1,137.5c0.1-0.2,0.2-0.4,0.2-0.5C65.1,137.2,65,137.4,65.1,137.5z"/>
						<polygon class="st1" points="84.9,104.3 84.9,104.3 84.9,104.2 						"/>
						<path class="st1" d="M65.9,136.2c-0.2,0.2-0.4,0.5-0.5,0.7C65.5,136.7,65.7,136.5,65.9,136.2z"/>
						<path class="st1" d="M18,172.3l-0.2,0c0,0,0,0,0,0.1L18,172.3z"/>
						<path class="st1" d="M17.8,172.4l-0.2,0.1C17.7,172.5,17.8,172.4,17.8,172.4z"/>
						<path class="st1" d="M17.2,172.7l0.4-0.2C17.5,172.6,17.3,172.6,17.2,172.7z"/>
						<path class="st1" d="M22.8,170.7l0-0.1C22.8,170.6,22.8,170.6,22.8,170.7z"/>
						<path class="st1" d="M24.2,170.1c-0.3,0.1-0.9,0.2-1.4,0.4l0,0.1C23,170.3,24,170.4,24.2,170.1z"/>
						<path class="st1" d="M30.6,168.5l-1.2,0.5c0.3,0,0.6,0,0.1,0.3C31.1,168.9,29.1,169.2,30.6,168.5z"/>
						<path class="st1" d="M34.3,166.7c-0.6,0.4,0.1,0.1,0.1,0.2C34.7,166.6,34.8,166.6,34.3,166.7z"/>
						<path class="st1" d="M57.3,148.6l0.1,0.2C57.8,148.4,57.4,148.7,57.3,148.6z"/>
						<polygon class="st1" points="60,143.5 59.5,143.8 59.6,144.2 						"/>
						<polygon class="st1" points="63.5,142.1 63.4,142.3 63.9,141.5 						"/>
						<path class="st1" d="M89.8,100.5l-0.4,0C89.3,100.8,89.6,101,89.8,100.5z"/>
						<path class="st1" d="M99.2,81.5c0.2-0.1,0.6-0.6,0.6-1.1C99.6,80.9,99.3,81.2,99.2,81.5z"/>
						<polygon class="st1" points="65.3,107.7 65.4,107.3 65.1,108.1 						"/>
					</g>
				</g>
			</g>
		</g>
	</g>
	<g>
		<path class="st0" d="M158.6,21.5c-0.6,9.2-4.7,18.3-14,24.5c-3.2,2.1-6.5,2-9.7-0.2c-4.1-2.8-6.5-6.9-8.5-11.4
			c-2.7-6-4.3-12.2-3.6-18.9c0.5-4.9,3.4-8.2,7.7-10.2c7.5-3.6,14.9-2.9,22,1.4C157.3,9.7,158.6,14.5,158.6,21.5z"/>
		<g>
			<g>
				<g>
					<g>
						<path class="st1" d="M157.9,21.5c0.1,0.1,0.3,0,0.2-0.2l-0.3-0.1L157.9,21.5z"/>
						<path class="st1" d="M158.5,20.3c-0.2-0.2-0.5-0.5-0.8-0.3c0.3,0.2,0.2,0.3,0.6,0.5c0,0.2-0.1,0.3-0.2,0.3
							c0.1,0.1-0.1,0.3,0.1,0.4c0.3-0.2,0.3-0.5,0.1-0.9C158.4,20.2,158.5,20.3,158.5,20.3z"/>
						<path class="st1" d="M150.6,5.2L150.6,5.2C150.7,5.3,150.6,5.2,150.6,5.2z"/>
						<path class="st1" d="M139.6,2.5c0.1,0,0.1,0,0.1-0.1C139.7,2.4,139.6,2.4,139.6,2.5z"/>
						<path class="st1" d="M137.6,2.2c0,0,0.1,0,0.1,0C137.7,2.2,137.7,2.2,137.6,2.2z"/>
						<path class="st1" d="M150.6,5.2L150.4,5C150.3,5.1,150.5,5.1,150.6,5.2z"/>
						<path class="st1" d="M157.6,17.9c0,0.1,0.1,0.1,0.1,0.1C157.7,18,157.7,17.9,157.6,17.9L157.6,17.9z"/>
						<path class="st1" d="M155,7.8L155,7.8c0.1,0.1,0.2,0,0.2,0L155,7.8z"/>
						<path class="st1" d="M157.5,10.9c0-0.1-0.3,0-0.4,0c0.1,0,0.2,0,0.3,0.1C157.3,11,157.4,11,157.5,10.9z"/>
						<path class="st1" d="M158.7,16.9l0,0.1C158.7,17,158.7,17,158.7,16.9z"/>
						<path class="st1" d="M152.7,6c0,0,0-0.1,0-0.1C152.7,5.9,152.7,6,152.7,6z"/>
						<path class="st1" d="M156.7,25.6C156.8,25.6,156.8,25.6,156.7,25.6C156.8,25.6,156.7,25.6,156.7,25.6z"/>
						<path class="st1" d="M158.7,21.5L158.7,21.5c0.1,0.1,0.1,0.1,0.2,0.1L158.7,21.5z"/>
						<path class="st1" d="M134,2.6C134,2.6,134,2.6,134,2.6C134.1,2.6,134,2.6,134,2.6z"/>
						<path class="st1" d="M123.5,30.2c0.1-0.4,0.5,0.5,0.6-0.1C124,30.1,123.5,29.7,123.5,30.2z"/>
						<path class="st1" d="M157.6,17.8c0,0,0-0.1,0-0.1C157.6,17.7,157.6,17.8,157.6,17.8z"/>
						<path class="st1" d="M124.1,30L124.1,30L124.1,30C124.1,30,124.1,30,124.1,30z"/>
						<path class="st1" d="M126.5,6.5c0,0,0.1,0,0.1,0C126.6,6.6,126.6,6.5,126.5,6.5z"/>
						<path class="st1" d="M132.1,3.8l-0.2,0C132.1,3.9,132.1,3.9,132.1,3.8z"/>
						<path class="st1" d="M124.4,9.2c-0.1,0.1-0.1,0.1-0.2,0.2c0,0,0,0,0,0C124.3,9.3,124.3,9.3,124.4,9.2z"/>
						<path class="st1" d="M122.8,12.3C122.9,12.3,122.9,12.2,122.8,12.3c0.1-0.1,0.1-0.1,0.1-0.1L122.8,12.3z"/>
						<path class="st1" d="M153.7,34.5c0.1,0,0.2,0,0.3,0C153.8,34.4,154,34,153.7,34.5z"/>
						<path class="st1" d="M157.8,17.9c-0.1,0-0.1,0-0.1-0.1l0,0.1C157.7,17.9,157.8,17.9,157.8,17.9z"/>
						<path class="st1" d="M126.2,10.6c-0.1,0.1-0.2,0.2-0.3,0.3C126,10.9,126.1,10.8,126.2,10.6z"/>
						<path class="st1" d="M137.4,45.9l0.1,0C137.4,45.9,137.4,45.9,137.4,45.9z"/>
						<path class="st1" d="M125.3,12.2c-0.1,0-0.2,0.1-0.3,0.2c0,0,0,0.1,0,0.1L125.3,12.2z"/>
						<path class="st1" d="M154,34.5L154,34.5L154,34.5z"/>
						<path class="st1" d="M154.8,31.3c-0.2,0.4,0.2,0.3,0.4,0.5c-0.1,0.6-0.4,0.1-0.6,0.2c-0.1,0.4,0.2,0.7,0,1
							c-0.1,0-0.1,0-0.1-0.1c0.1,0.5-0.5,1-0.3,1.5c0,0-0.1,0-0.1,0c0.2,0,0.4,0.1,0.5,0.2c-0.1,0.2,0,0.5-0.2,0.4
							c0.1-0.1,0-0.2,0-0.3l0,0.2c-0.4,0,0-0.3-0.2-0.4c-0.1,0.4-0.1,1-0.4,1.3c-0.3-0.1,0.3-0.7-0.2-0.5l0.4-0.4
							c-0.7,0.1,0.2-0.2-0.5-0.2c-0.4,0.5-0.2,0.7-0.7,1.2c0.1,0.2,0.3,0.1,0.3,0.3c-0.3,1-1.1,0.2-1.1,1c0.1,0.3,0.4,0.6-0.1,0.9
							l-0.2-0.4c-0.4,0.5,0.2,0.6-0.4,1c0-0.2,0.2-0.5,0.1-0.4c-0.5,0.2,0,0.4-0.2,0.7l-0.3-0.2c-0.4,0.6-0.7,1.3-1.2,1.9
							c0-0.1,0-0.3-0.2-0.2c-0.5,0.8-1.5,1.4-2.3,1.9l-0.1,0.4c-0.1,0-0.2,0-0.2-0.1c-0.4,0.1,0.1,0.2,0,0.4c-0.1,0.1-0.3,0-0.3-0.1
							c-0.2,0.3-0.4,0.7-0.8,1c-0.3,0.3-0.7,0.6-1.1,0.7l0.1-0.1c-0.5,0.2-0.2,0.9-0.7,0.9l0-0.1c-1,0.5-2,1.2-2.9,0.9
							c-0.1,0.5-1,0-1,0.5c-0.3-0.1-0.4-0.2-0.5-0.3c-0.1-0.1-0.3-0.2-0.7-0.3c-0.2-0.1-0.4,0.3-0.7,0.3l0.1-0.3
							c-0.1,0.1-0.3,0.1-0.4,0.2l-0.1-0.4c-0.1,0-0.2,0-0.3,0c0.1,0.1,0.2,0.2,0.1,0.3c-0.4,0-0.8-0.6-0.8-0.7
							c-0.3-0.1-0.6-0.1-1-0.3c0.1-0.1,0.2,0,0.4,0c-0.6,0,0.1-0.3-0.5-0.3c0,0.1-0.1,0.1-0.2,0.2c-0.1-0.3-0.6-0.6-0.9-0.8l0.2-0.1
							c-0.6-0.5-1.3-0.9-1.9-1.6c0.1,0.3-0.2,0.5-0.4,0.3l0.2-0.3c-0.3,0,0.1,0.3-0.3,0.2c-0.2-0.3,0.1-0.4,0.3-0.4l-0.3-0.2
							c0.1-0.1,0.2,0,0.3-0.1c-0.3,0-0.2-0.7-0.6-0.7l0.1-0.1c-0.5-0.7-0.9-0.9-1.3-1.5c-0.2,0.1-0.3-0.1-0.7-0.2
							c-0.2-0.5-0.3-1.1-0.7-1.6c-0.3-0.3-0.3,0-0.5-0.1c0.2-0.2-0.1-0.7,0.2-0.5c-0.4-0.6-0.5-0.8-1.1-1.6c0,0.1,0,0.3-0.1,0.3
							c-0.1-0.1-0.1-0.4,0-0.4l0,0c-0.8-0.8-0.4-2.6-1.2-3.2l0,0l-0.6-0.7c-0.1-0.4,0.3,0.2,0.3-0.2c-0.8-0.8-0.5-1.5-1-2.1
							c0.5-0.8-0.7-2.1-0.4-3l-0.2,0.1c-0.2-0.2,0-0.3,0-0.4c-0.1,0.1-0.1,0.3-0.2,0.2c-0.6-1.7-0.5-3.7-0.4-5.5
							c0-0.7-0.9-0.3-0.6-1.2l0.3,0.2c-0.4-1.4,0-2.8-0.2-4.1c0.1,0.1,0.2,0.1,0.2,0.2c0.3-0.3,0.1-1-0.1-1c0.1-0.2,0.2,0,0.3-0.1
							c0.2-0.2-0.2-0.7,0.1-0.8c0,0,0.1,0.1,0.1,0.1c-0.1-0.2,0.2-0.8-0.1-0.7c0.3-0.4,0.2-0.9,0.5-1.2c-0.2-0.4,0.5-0.6,0.1-0.9
							c0.4,0.2,0.7-0.5,0.7-0.9c0.1,0.2,0.3-0.1,0.4,0.1c0.2-0.3,0.3-0.6,0.1-0.7c0.8-0.1,0.5-1.2,1.3-1c0.6-0.9,1.3-1.6,2.1-2.1
							c0.2,0.4-0.9,0.6-0.6,1c0.6-0.6,0.9-1.2,1.8-1.5c0.2,0,0,0.2-0.1,0.3c0.7-0.6,1.6-0.7,2.3-1.2c0,0-0.1,0.1-0.1,0.2
							c0.1-0.1,0.4-0.1,0.3-0.3l-0.1,0.1c-0.3-0.2,0.4-0.8,0.4-1c-0.1,0.6,0.8-0.1,0.6,0.7c0.1-0.1,0.2-0.2,0.1-0.3
							c0.2,0,0.2,0.1,0.1,0.3c0.5-0.3,0.3-0.4,0.8-0.6c0,0.1-0.1,0.2-0.1,0.3c0.2-0.2,0.4-0.5,0.9-0.5c0,0.1,0.1,0.1-0.1,0.2
							c0.7-0.2,1.2-0.8,2-0.7c-0.2,0.5,0.3,0.1,0.4,0.5l0.4-0.2L138.5,4c0.4,0,0.7-0.3,1.1-0.2l-0.3,0.2l0.7-0.1l-0.4-0.1
							c0.4-0.2-0.1-0.5,0.5-0.4c-0.1,0,0.4,0,0.6,0.2l0,0c0.2-0.1,0.4-0.2,0.7-0.1c0.1,0.1-0.1,0.4,0,0.5c0.2-0.3,0.9,0,1.2-0.3
							c-0.1,0.1-0.1,0.3-0.1,0.3l0.2-0.2c0.2,0.1,0.2,0.1,0.1,0.3c0.5,0.1-0.1-0.5,0.5-0.2c-0.1,0,0,0.1-0.1,0.1
							c0.6,0.2,1.3,0,1.9,0.3c0.1,0.4-0.5,0-0.4,0.3c0.8,0.1,1.9,0,2.6,0.4l-0.1-0.1c0.3-0.5,0.5,0.5,1,0.4c-0.1,0-0.2,0.2-0.2,0.2
							c0.5,0.3,1.1,0.3,2,0.5l-0.2,0.1c0.3,0.3,0.8,0.5,1.1,0.7c0.2-0.1,0.3,0.1,0.3-0.2c0.6,1.2,2.1,0.7,2.5,1.9
							c-0.1-0.1-0.3-0.1-0.2,0c0.2,0.1,0.5,0.3,0.7,0.4c0.1-0.2,0-0.2,0-0.4c0.2,0,0.4,0.1,0.6,0.2c-0.4-0.2-0.3,0.3-0.2,0.5
							c0-0.1,0.1-0.1,0.2-0.1c0,0.6,0.4-0.3,0.6,0.4l-0.1,0.1c0.2,0.1,0.5,0.2,0.6,0.4c-0.2,0.2-0.2-0.1-0.4,0
							c0.2,0.3,0.8,0.2,0.8,0.7c-0.1-0.1-0.3-0.3-0.4-0.3c0,0.4,0,0.4,0.1,0.7l0,0l0.2,0.6l0-0.2c0.8,0,0.5,0.7,1.2,1
							c-0.6-0.4-0.3,0-0.6,0.1c0,0.2,0,0.4-0.1,0.4c0.3,0.2,0,0.5,0.4,0.7c-0.1,0,0.1,0.3-0.2,0.3c0.2,0.3,0.1-0.1,0.3-0.1
							c0.5,0.4,0,1.3,0.6,2c0.3,0.6,0.6,0.7,0.9,1.3c-0.1,0.2-0.4-0.1-0.4-0.1c-0.1,0.4-0.1,0.6,0.1,0.9c-0.1-0.1-0.2,0-0.3,0.1
							c0,0.3,0.4,0.1,0.2,0.5c-0.1-0.1-0.3-0.1-0.4-0.2c0.1,0.3,0.3,0.6,0.4,0.9c-0.2,0.1-0.3-0.2-0.4-0.3c0.1,0.4,0.2,0.9,0.5,1
							l0.1-0.2c0,0.1-0.2,0.1-0.3,0c-0.2-0.3,0.1-0.5,0.2-0.5l0.1,0.2c0.6-0.3-0.1-0.9-0.1-1.4l0.4,0.2l-0.4-0.4
							c0.1-0.1,0.3-0.2,0.4,0c0.2-0.4-0.2-0.3,0-0.6c0,0,0.1,0,0.1,0l-0.2-0.3c0.1,0.1,0.3-0.1,0.2,0.1c0.2-0.6-0.5-0.9-0.2-1.2l0,0
							c-0.3-0.8-0.3,0-0.8-0.6l0.7-0.6l-0.3,0c0-0.1,0-0.3,0.1-0.3c-0.3-0.3-0.1,0.1-0.4,0c0.2-0.5-0.4-1,0-1.3
							c-0.3-0.1,0,0.4-0.3,0.1c0.5-0.3-0.2-0.4-0.2-0.9c0.3,0,0.3,0.4,0.4-0.1c-0.5,0-0.2-0.7-0.4-1c-0.3,0.2-0.5-0.6-0.9-0.9
							c0.1,0-0.4-1-0.7-1.4l0.1,0c-0.3,0.2-0.6-0.3-1-0.5c0.2-0.1,0.3-0.2,0.5-0.1l-0.3-0.3c-0.1,0-0.3,0-0.5-0.1l0.2-0.1
							c-0.4-0.3-1-0.4-1.4-0.9c-0.2,0.2,0,0.8-0.6,0.6c0.1-0.1,0.2-0.3,0.3-0.3c-0.1,0-0.2,0-0.3-0.1l0.3-0.1
							c-0.2-0.2-0.2,0.1-0.4-0.1c0.1-0.2-0.1-0.2,0-0.3c0.1,0,0.1,0.2,0.2,0.2c-0.2-0.2-0.4-0.4-0.4-0.6c0,0.1-0.1,0.2-0.3,0.2
							c-0.4-0.2,0-0.3-0.2-0.5c-0.2,0.1-0.4-0.2-0.5,0c-0.1-0.1-0.1-0.2-0.1-0.3c-0.3,0-1-0.5-0.9-0.1l0,0c0,0,0,0,0,0l0,0l0,0
							c-0.8-0.1-1.4-0.9-2.2-1l0-0.1c-0.5-0.1-1-0.3-1.4-0.2c-0.1,0-0.3-0.3-0.2-0.4c-0.4,0-0.4,0.1-0.9-0.3c0.4-0.1-0.1-0.2,0.4,0
							c-0.4-0.2-0.5-0.4-1.1-0.3c0.2-0.2-0.3-0.4-0.5-0.4l0.3,0.3c-0.3,0-0.5-0.1-0.7-0.2l0.2-0.3c-0.9-0.6-1.8,0.4-2.5-0.4
							c-0.3,0.2,0.5,0.2,0.3,0.5c-0.4-0.1-0.9-0.6-1-0.6c-0.6-0.2-0.6,0.5-1.2,0.3c0.1,0.1,0.2,0.4-0.3,0.6c-0.4,0-0.6-0.5-0.3-0.6
							c0.1,0,0.2,0,0.2,0.1c0.1,0,0.3-0.1,0.2-0.2l-0.1,0.1c-0.2-0.1-0.8-0.1-0.7-0.3c-0.3,0.1-0.1,0.2,0.1,0.3
							c-0.6-0.2-0.9,0.1-1.5,0c0.1,0.1,0.2,0.2,0.1,0.2c-0.9-0.1-0.4,0.3-0.9,0.4c-0.4-0.1,0.1-0.4-0.5-0.2c-0.4-0.1-0.1-0.3,0-0.4
							c-0.5,0.3-1,0.1-1.4,0.1l0.3-0.2c-0.2,0.1-0.3,0.1-0.4,0.2l0.2,0.2c-0.2,0-0.3,0-0.3-0.1c-0.1,0.2,0.2,0.4-0.1,0.6
							c-0.2-0.1-0.6,0.3-0.8,0c0.7-0.1-0.2-0.3,0.4-0.5c-0.1,0.1-0.2,0.1-0.4,0.1c0,0,0-0.1,0-0.1c-0.7-0.1-0.2,0.4-0.9,0.6
							c0-0.2-0.3-0.3-0.4-0.2c0.3-0.1,0.2,0.2,0,0.5c-0.5,0-0.4,0.3-0.6,0.3l0.3,0c0,0.2-0.2,0.3-0.5,0.4C131.8,4.1,132.1,4,132,4
							c-0.2,0.4-0.8,0-1.2,0.4c-0.3,0-0.2-0.3-0.4-0.3c-0.4,0.4-0.6,0-1.1,0.5c0.3,0.1,0.3,0.1,0,0.5l0.8-0.6L129.7,5
							c0.3-0.1,0.5-0.4,0.6-0.4c-0.2,0.3-0.2,0.2,0,0.3c-0.5-0.2-0.6,0.5-1.1,0.5l-0.3-0.5c-0.7,0.1-0.9,0.9-1.7,1.3l0.3-0.1
							c0,0.3-0.4,0.3-0.6,0.6c-0.1-0.2-0.3-0.1-0.5-0.1c0.1,0.1-0.5,0.4-0.3,0.8l-0.5,0.1c-0.6,0.4-0.2,1-0.7,1.4
							c0-0.3-0.3-0.1-0.2-0.6c-0.2,0.2-0.3,0.3-0.2,0.4c-0.2,0-0.2,0.7-0.5,0.7c0,0.1,0.2,0.3,0,0.5c0,0-0.1-0.1-0.1-0.1
							c0.1,0.1-0.1,0.4,0.2,0.3c-0.9,0.3-0.9,1.7-1.6,2.1c-0.1,0.5-0.2,1.1-0.3,1.5c-0.1,0-0.1,0-0.1-0.1c-0.3,0.6,0.5,0.5,0.1,1.1
							c-0.4,0.3-0.1-0.4-0.3-0.2c-0.6,0,0,0.9-0.5,1.3l0-0.1c-0.2,0.3,0.2,0.9,0.1,1.5c0,0-0.1,0-0.1,0c0.3,0.4,0.4,1.2,0.5,1.7
							c-0.3-0.2-0.1-0.3-0.4-0.1c0,0.2,0.4-0.1,0.5,0.4c-0.1,0.2-0.2,0.5-0.5,0.6l0-0.5c-0.4,0.2,0,0.6,0,0.9l-0.2,0
							c0.1,0.7,0.5,0.7,0.5,1.5l0.1-0.1c0.4,0.4-0.2,0.4,0.1,0.8l-0.4,0.2c0.1,0.3,0.5,0.9,0.6,1.4c-0.3-0.2-0.6-0.8-0.8-1.1
							c0,0.3,0.2,0.9,0.4,1c-0.1-0.1-0.2-0.2-0.1-0.3c0.4,0.3,0.6,0.7,0.7,1.2c-0.8,0,0.1,1.4-0.4,2c0.5,0.9,0.4,1.9,0.8,3
							c0.4-0.6,0.1,0.3,0.7,0.1c0.1,0.2,0.1,0.3,0.1,0.4l-0.1,0.9c-0.1,0.2-0.2-0.2-0.3-0.1c0.1,0.6-0.2,0.3-0.2,0.7
							c0.2-0.1,0.4,0.1,0.4,0.4l0.1-0.5c0.6,0.6-0.2,0.8,0.4,1.5l-0.3-0.2c0.3,0.3,0.6,1.4,1.2,1.6c0,0.1-0.1,0.3-0.3,0.1
							c0.3,1,1.4,1.8,1.5,2.6l-0.2,0c0.1,0.1,0.4,0.2,0.4,0.4c-0.1,0-0.2,0-0.1,0.1c0.1,0.1,0.5,0.3,0.5,0.6l-0.2-0.1
							c0.3,1,1.1,1.1,1.6,1.8c-0.4,0.2-0.1,1,0.1,1.3l-0.1,0c0.6,1,1.5,1.4,2.3,2.1c0.1,0.8,1.4,1.8,2.1,2.7
							c-0.1-0.2,0.2-0.2,0.4-0.2c0.1,0.2,0.7,0.2,0.5,0.5l-0.1-0.1c-0.1,0.4,0.4,0.7,0.8,0.9l0.3-0.4c0.2,0.6,1,0.9,1.6,1.1
							c0.7,0.2,1.3,0.3,1.5,0.7c0.3-0.1,0.6,0,0.9-0.1l-0.1,0.3c0.8,0.2,1.2,0.2,2.2,0.1l-0.2,0.2c0.6,0,0.6-0.9,1-1l0.2,0.4
							c0.9-0.2,1.9-0.3,2.6-1.1c0,0.1,0.1,0.2-0.1,0.3c0.2-0.1,0.6-0.3,0.9-0.5c0.3-0.2,0.4-0.4,0.2-0.6c0.2,0.3,0.7-0.5,1-0.9
							l0.1,0.3c0.1-0.5,0-0.6,0.4-1c0.1-0.1,0.2,0.1,0,0.2c0.4-0.2,0.1-0.4,0.6-0.6l0,0.3c0.4-0.3,0.3-0.3,0.3-0.6
							c0.1-0.2,0.7-0.5,0.9-0.3c-0.1-0.2,0-0.5,0.2-0.6c0.1,0,0.1,0.2,0,0.2c0.7-0.3,0.6-1,1.1-1.1c0.1,0.1,0.1,0.1,0.2,0.1
							c-0.4,0.4-0.8,0.7-0.7,0.7c0.2,0.2,0.6-0.1,0.5,0.4c0.1-0.4,0.3-1.2,0.7-1.4c0,0,0.1,0,0.1,0l0,0.1c0.1-0.1,0.1-0.1,0.2-0.2
							c0.1-0.1,0.2-0.1,0.3-0.2c0.2,0.1,0.4-0.3,0.6-0.5c-0.2-0.2,0-0.4-0.4-0.3c0,0,0,0.1-0.1,0.2c0,0,0,0.1,0,0.1l0,0
							c-0.1,0.1-0.2,0.3-0.4,0.5c0-0.2,0.1-0.5,0.3-0.6c-0.1-0.2-0.1-0.4-0.1-0.5c0.5,0,1.1-0.3,1.3-0.2c0.3-0.7,1-1.4,0.8-2.1
							c0.1-0.2,0.3-0.1,0.4-0.1c0,0.1-0.1,0.2-0.1,0.3c0.1-0.4,0.6-1,0.4-1.3c0.4-0.3,0.1,0.4,0.5-0.2l0,0.1
							c0.6-0.4,0.7-1.1,0.8-1.7c0.1-0.6,0.2-1.2,0.8-1.8c-0.1,0.1-0.1,0.1-0.2,0.1c1-1.5,1.1-3.4,2-4.9c0.2-0.4,0-0.6-0.1-0.9l0.3,0
							l-0.2-0.6c-0.1-0.7,1-1.1,0.7-2.1l-0.2,0.1c0.1-0.3,0-1,0.3-1c0,0-0.2-0.1-0.1-0.2l0.2,0l-0.2-0.8c0.2-0.6,0.6,0.2,0.7-0.7
							c0-0.3-0.4-1-0.5-0.9c0,0.1-0.1,0.3-0.3,0.3l-0.1-0.3c-0.5-0.1-0.9-0.3-1.3,0.4l0.2,0.5l-0.2,0.1l0-0.4
							c-0.2,0.2-0.1,0.4,0.1,0.6c-0.1,0-0.2,0.1-0.3,0.2c0.1,0.2,0.3,0.4,0.4,0.5c-0.2,0-0.3-0.3-0.5,0.1c0.2,0.3,0.4-0.2,0.5,0.2
							c-0.2,0.2-0.4,0.1-0.3,0.4c-0.1,0-0.2,0-0.2-0.2c0.1,0.3,0,0.7,0.2,0.8c-0.3,0.2-0.1,0.9-0.5,0.7c0.1,0.1,0.3,0.5,0.2,0.7
							c-0.4-0.5-0.2,0.8-0.8,0.6c0.4,0.4,0,1.1,0,1.7c0,0-0.1-0.1,0-0.2c-0.1,0.3-0.3,0.3-0.4,0.5c0.4,0.2,0.3,0.6,0.4,1
							c-0.5,0.2-0.4-0.4-0.7-0.4c0.3,0.1,0.1,0.7,0.4,0.7c-0.3,0.2-0.2,0.2-0.5,0.2c0.4,0.2,0,0.3,0.2,0.6c-0.4,0.3-0.5-0.1-0.5,0.4
							C154.8,31.7,154.8,31.3,154.8,31.3z M149.6,40.9L149.6,40.9c0.1-0.1,0.1-0.1,0.1-0.2C149.7,40.7,149.6,40.8,149.6,40.9z
							 M148.9,41.5c0.1-0.1,0.2-0.2,0.3-0.3c0.1,0,0.1,0.1,0.1,0.2C149.3,41.4,149.1,41.5,148.9,41.5z M151.7,41.4
							c-0.1,0.1-0.1,0.1-0.2,0.1c0-0.1,0.1-0.1,0.2-0.2l0,0C151.7,41.3,151.7,41.3,151.7,41.4z"/>
						<path class="st1" d="M151.6,40.9C151.7,40.9,151.7,40.9,151.6,40.9C151.6,40.9,151.6,40.9,151.6,40.9L151.6,40.9L151.6,40.9z"
							/>
						<path class="st1" d="M150.7,5.3L150.7,5.3C150.7,5.3,150.7,5.3,150.7,5.3C150.7,5.3,150.7,5.3,150.7,5.3z"/>
						<polygon class="st1" points="138.3,46.1 138.3,46.1 138.3,46.1 						"/>
						<path class="st1" d="M154.5,9C154.5,9,154.5,9.1,154.5,9C154.5,9.1,154.5,9.1,154.5,9z"/>
						<path class="st1" d="M155.8,10.8l0.1,0.3C155.8,10.9,155.8,10.8,155.8,10.8z"/>
						<path class="st1" d="M156.4,12.3c0.1,0,0.1,0,0.1,0l0,0L156.4,12.3z"/>
						<path class="st1" d="M132.9,5.6C132.9,5.6,132.9,5.6,132.9,5.6C132.7,5.7,132.8,5.6,132.9,5.6z"/>
						<path class="st1" d="M140.6,3.5c-0.1,0-0.2,0.1-0.3,0.1C140.5,3.7,140.6,3.7,140.6,3.5z"/>
						<polygon class="st1" points="126.2,10.6 126.2,10.6 126.2,10.6 						"/>
						<path class="st1" d="M140,3.7c0.1,0.1,0.3,0,0.4,0C140.3,3.6,140.1,3.6,140,3.7z"/>
						<path class="st1" d="M157.7,19.4L157.7,19.4C157.7,19.5,157.7,19.5,157.7,19.4L157.7,19.4z"/>
						<path class="st1" d="M157.7,19.5L157.7,19.5C157.8,19.5,157.7,19.5,157.7,19.5z"/>
						<path class="st1" d="M157.8,19.8l-0.1-0.2C157.8,19.7,157.7,19.7,157.8,19.8z"/>
						<path class="st1" d="M157.6,17.1l-0.1,0C157.6,17.1,157.6,17.1,157.6,17.1z"/>
						<path class="st1" d="M157.5,16.5c0,0.2-0.2,0.4-0.1,0.6l0.1,0C157.4,17,157.7,16.6,157.5,16.5z"/>
						<path class="st1" d="M158.1,13.3c0,0.2,0.1,0.4,0.1,0.6c0.1-0.1,0.2-0.3,0.3,0C158.6,13.1,158.3,14.1,158.1,13.3z"/>
						<path class="st1" d="M157.6,11.5c0.2,0.3,0.1-0.1,0.2-0.1C157.6,11.3,157.6,11.2,157.6,11.5z"/>
						<path class="st1" d="M146.9,3.5l0.1-0.2C146.7,3.2,147,3.4,146.9,3.5z"/>
						<path class="st1" d="M144.1,4.2l0.2,0.2l0.2-0.2C144.3,4.1,144.2,4.2,144.1,4.2z"/>
						<polygon class="st1" points="142.9,2.1 143,2.1 142.6,2.1 						"/>
						<path class="st1" d="M122.8,11.6l0.3,0C123.2,11.5,122.9,11.3,122.8,11.6z"/>
						<path class="st1" d="M122.1,21.5c-0.2,0.1-0.2,0.4-0.1,0.6C122,21.9,122.2,21.6,122.1,21.5z"/>
						<polygon class="st1" points="135,47.4 134.7,47.4 135.1,47.5 						"/>
					</g>
				</g>
			</g>
		</g>
	</g>
</g>
</svg>
