<?xml version="1.0" encoding="utf-8"?>
<!-- Generator: Adobe Illustrator 21.1.0, SVG Export Plug-In . SVG Version: 6.00 Build 0)  -->
<svg version="1.1" id="Layer_1" xmlns="http://www.w3.org/2000/svg" xmlns:xlink="http://www.w3.org/1999/xlink" x="0px" y="0px"
	 viewBox="0 0 280 280" style="enable-background:new 0 0 280 280;" xml:space="preserve">
<style type="text/css">
	.st0{fill:#2A2A2A;}
</style>
<g>
	<path class="st0" d="M39.581,124.414c2.925,0,5.851,0.029,8.776-0.006c7.677-0.091,14.252,5.051,15.682,12.663
		c1.121,5.966-0.683,11.048-5.314,15.048c-3.015,2.604-6.566,3.688-10.512,3.674c-5.851-0.021-11.702-0.022-17.552-0.001
		c-7.77,0.028-14.309-5.924-15.476-13.292c-1.308-8.264,4.499-16.558,12.866-17.833c0.862-0.131,1.738-0.233,2.609-0.241
		C33.632,124.395,36.606,124.414,39.581,124.414z M39.737,149.895c0,0.001,0,0.002,0,0.003c2.875,0,5.75,0.01,8.625-0.007
		c0.679-0.004,1.373-0.018,2.032-0.16c4.337-0.934,7.479-5.085,7.722-8.993c0.343-5.511-4.249-10.416-9.355-10.419
		c-5.994-0.004-11.987-0.023-17.981,0c-5.152,0.02-9.679,4.32-9.549,9.954c0.14,6.04,4.982,9.64,9.588,9.624
		C33.792,149.886,36.764,149.895,39.737,149.895z"/>
	<path class="st0" d="M73.452,155.671c-2.098,0-4.069,0-6.027,0c-0.38-1.025-0.515-28.916-0.134-31.116
		c0.413-0.044,0.875-0.134,1.337-0.135c8.387-0.008,16.774-0.057,25.16,0.012c5.739,0.047,10.174,5.17,10.306,10.332
		c0.139,5.454-4.097,10.915-10.824,11.049c-0.515,0.01-1.031,0.001-1.58,0.126c3.582,3.315,7.415,6.254,11.186,9.692
		c-0.632,0.079-0.949,0.151-1.266,0.152c-2.194,0.01-4.389-0.018-6.582,0.017c-0.791,0.013-1.368-0.269-1.954-0.785
		c-4.675-4.121-9.377-8.212-14.07-12.312c-0.905-0.791-1.807-1.584-2.71-2.377c0.032-0.105,0.063-0.21,0.095-0.316
		c0.451-0.033,0.901-0.095,1.352-0.095c4.876-0.001,9.752,0.037,14.627-0.013c0.947-0.01,1.953-0.203,2.822-0.571
		c1.993-0.842,2.983-2.995,2.568-5.214c-0.377-2.014-2.073-3.57-4.126-3.778c-0.242-0.025-0.487-0.03-0.73-0.031
		c-5.997-0.003-11.995-0.006-17.992,0c-0.377,0-0.753,0.077-1.258,0.132c-0.034,0.631-0.09,1.199-0.091,1.768
		c-0.006,7.216-0.002,14.433-0.008,21.649C73.552,154.425,73.491,154.994,73.452,155.671z"/>
	<path class="st0" d="M253.979,137.314c-1.235,1.904-2.264,3.54-3.359,5.13c-0.183,0.266-0.644,0.393-1.001,0.471
		c-0.373,0.081-0.777,0.026-1.167,0.026c-7.219,0.001-14.438,0-21.657,0c-0.53,0-1.06,0-1.763,0c0.182,0.555,0.258,0.98,0.451,1.345
		c1.824,3.452,4.585,5.556,8.589,5.592c6.633,0.061,13.267,0.02,19.901,0.022c0.573,0,1.146,0,1.739,0
		c-0.149,1.293-1.165,3.032-3.386,5.887c-0.404,0-0.931,0-1.459,0c-5.707,0-11.414,0.042-17.12-0.01
		c-7.639-0.07-14.283-5.752-15.283-13.484c-0.662-5.123,0.762-9.716,4.488-13.368c2.997-2.937,6.68-4.502,10.938-4.509
		c6.634-0.011,13.267-0.003,19.901-0.003c0.518,0,1.036,0,1.719,0c-0.172,0.448-0.221,0.684-0.342,0.875
		c-0.832,1.319-1.715,2.608-2.507,3.951c-0.482,0.817-1.102,1.085-2.037,1.079c-5.511-0.033-11.023,0.003-16.535-0.014
		c-2.034-0.006-3.833,0.644-5.45,1.818c-1.277,0.927-2.318,2.09-3.024,3.516c-0.229,0.461-0.374,0.964-0.644,1.675
		C234.675,137.314,244.152,137.314,253.979,137.314z"/>
	<path class="st0" d="M149.13,155.767c-2.428,0-4.567,0.051-6.699-0.045c-0.403-0.018-0.875-0.56-1.148-0.971
		c-0.729-1.094-1.42-2.221-2.022-3.388c-0.446-0.865-1.06-1.127-1.996-1.119c-4.439,0.036-8.878-0.015-13.317,0.037
		c-1.112,0.013-1.816-0.317-2.343-1.322c-0.563-1.075-1.31-2.053-1.966-3.081c-0.203-0.317-0.371-0.657-0.694-1.234
		c5.29-0.148,10.375-0.008,15.744-0.09c-2.738-4.417-5.36-8.646-8.093-13.054c-1.282,2.014-2.461,3.85-3.623,5.696
		c-3.637,5.775-7.285,11.543-10.885,17.341c-0.586,0.944-1.258,1.349-2.375,1.273c-1.36-0.093-2.73-0.015-4.096-0.025
		c-0.472-0.003-0.944-0.048-1.694-0.089c0.826-1.35,1.505-2.504,2.226-3.632c4.124-6.448,8.259-12.889,12.387-19.335
		c1.314-2.053,2.714-4.059,3.903-6.182c1.724-3.079,6.209-3.351,8.299,0.049c2.323,3.779,4.774,7.479,7.164,11.216
		c2.863,4.477,5.72,8.957,8.58,13.436c0.708,1.109,1.424,2.214,2.119,3.332C148.771,154.854,148.869,155.173,149.13,155.767z"/>
	<path class="st0" d="M183.581,150.001c-0.578,0.985-0.948,1.649-1.351,2.292c-0.543,0.867-1.162,1.691-1.651,2.587
		c-0.383,0.704-0.903,0.918-1.66,0.916c-6.143-0.017-12.294,0.191-18.426-0.064c-7.431-0.309-13.335-6.076-14.419-12.9
		c-1.054-6.635,1.327-11.862,6.676-15.748c2.37-1.722,5.137-2.625,8.079-2.651c6.922-0.061,13.845-0.022,20.768-0.015
		c0.414,0,0.827,0.071,1.525,0.135c-1.232,1.917-2.275,3.66-3.465,5.294c-0.255,0.351-1.044,0.43-1.589,0.434
		c-4.534,0.033-9.068,0.018-13.602,0.019c-0.878,0-1.755,0.017-2.633,0.003c-5.487-0.089-10.033,4.608-9.8,10.32
		c0.202,4.947,4.428,9.202,9.376,9.251c6.678,0.067,13.358,0.02,20.037,0.029C182.02,149.905,182.592,149.954,183.581,150.001z"/>
	<path class="st0" d="M219.908,150.324c-1.072,1.666-2.127,3.344-3.235,4.986c-0.162,0.24-0.559,0.369-0.872,0.444
		c-0.324,0.078-0.679,0.033-1.02,0.033c-8.289,0.001-16.578,0.001-24.867,0.001c-0.195,0-0.39-0.004-0.585-0.002
		c-2.124,0.027-3.486-1.711-3.454-3.527c0.088-4.874,0.03-9.751,0.029-14.627c0-3.803-0.003-7.606,0.004-11.409
		c0.001-0.522,0.051-1.044,0.089-1.755c2.036-0.097,3.954-0.059,6.026-0.012c0.27,2.879,0.095,5.64,0.126,8.393
		c0.032,2.828,0.007,5.656,0.007,8.484c0,2.77,0,5.54,0,8.455c0.706,0.043,1.27,0.108,1.834,0.108
		c7.996,0.007,15.993,0.004,23.989,0.005c0.571,0,1.143,0,1.714,0C219.766,150.041,219.837,150.182,219.908,150.324z"/>
	<path class="st0" d="M261.39,131.519c-1.879,0.226-3.718-1.69-3.746-3.508c-0.032-2.085,1.57-3.71,3.683-3.71
		c2.051,0,3.624,1.53,3.672,3.573C265.045,129.794,263.358,131.498,261.39,131.519z M260.007,130c0.746,0.503,1.5,0.725,2.309,0.121
		c-0.408-0.508-0.773-0.964-1.248-1.555c-0.164,0.787-0.155,1.519-1.064,1.438c-0.183-1.294,0.133-2.636-0.256-4.026
		C258.402,127.456,258.528,128.772,260.007,130z M263.1,129.595c1.019-1.604,0.927-2.482-0.148-3.39
		c-0.108,0.667-0.225,1.392-0.384,2.379C262.631,128.703,262.827,129.076,263.1,129.595z"/>
</g>
</svg>
