<?xml version="1.0" encoding="utf-8"?>
<!-- Generator: Adobe Illustrator 21.0.2, SVG Export Plug-In . SVG Version: 6.00 Build 0)  -->
<svg version="1.1" id="Layer_1" xmlns="http://www.w3.org/2000/svg" xmlns:xlink="http://www.w3.org/1999/xlink" x="0px" y="0px"
	 viewBox="0 0 315 315" style="enable-background:new 0 0 315 315;" xml:space="preserve">
<style type="text/css">
	.st0{fill:#646464;}
</style>
<g>
	<g>
		<g>
			<g>
				<g>
					<path class="st0" d="M155.3,292.3c-0.1,0.6,0.7,0.9,1.5-0.3l-0.4-1.6C156.1,291,155.7,291.6,155.3,292.3z"/>
					<path class="st0" d="M162.8,285.9c0.1-0.9,0-1.9-0.3-2.6c-0.3-0.7-0.8-1-1.6-0.7c0.4,0.8,0.4,1.4,0.4,1.9c0,0.5,0,1.1,0.2,2.2
						c-0.6,1.3-1.7,1.9-1.9,1.4c0,0.6-1.5,1.6-1.3,2.7c2-0.8,3.5-2.8,3.8-5.4C162.6,285,162.7,285.6,162.8,285.9z"/>
					<path class="st0" d="M170.2,192.6l1,0.5C170.9,193,170.6,192.8,170.2,192.6z"/>
					<path class="st0" d="M142.8,162.6c-0.7,0.2-0.9,0.4-0.9,0.5C142.4,162.8,142.9,162.6,142.8,162.6z"/>
					<path class="st0" d="M157.9,160.6c-0.3,0-0.6,0.1-0.9,0.1C157.4,160.8,157.7,160.7,157.9,160.6z"/>
					<path class="st0" d="M170.2,192.6c-0.8-0.5-1.7-0.9-2.7-1.3C167.1,191.7,168.9,192,170.2,192.6z"/>
					<path class="st0" d="M156,270.2c0.4,0.4,0.7,0.6,1.1,0.8c-0.3-0.3-0.6-0.6-0.9-0.9C156.1,270.2,156.1,270.2,156,270.2z"/>
					<path class="st0" d="M156.5,214.5l-0.6,0.4c-0.1,0.2-0.2,0.5-0.3,0.8L156.5,214.5z"/>
					<path class="st0" d="M160.6,226.9c-0.6-0.3-1.3,0.5-1.8,0.8c0.6-0.2,1.1-0.2,1.6,0C160.6,227.5,160.7,227.3,160.6,226.9z"/>
					<path class="st0" d="M156.4,262l0.4,0.7C156.7,262.5,156.5,262.2,156.4,262z"/>
					<path class="st0" d="M178.6,202.5c0.3,0,0.7,0,0.9-0.1C179.4,202.4,179,202.4,178.6,202.5z"/>
					<path class="st0" d="M218.4,21.2c0,0.1,0,0.1,0,0.2C218.6,21.3,218.6,21.2,218.4,21.2z"/>
					<path class="st0" d="M252.5,30.9l-0.5,0c-0.1,0.2-0.2,0.4-0.2,0.6L252.5,30.9z"/>
					<path class="st0" d="M185.4,155.8c-0.1,0-0.1,0-0.1,0C184.5,156.1,184.9,156,185.4,155.8z"/>
					<path class="st0" d="M164.3,103.1c-2.9-1,4.7-1.3,0.4-2.4C165.1,101.2,160.7,102.5,164.3,103.1z"/>
					<path class="st0" d="M155.6,269.5c-0.3-0.4-0.6-0.7-0.8-1.1C155.1,268.9,155.4,269.3,155.6,269.5z"/>
					<path class="st0" d="M164.7,100.7L164.7,100.7l-0.4-0.1C164.4,100.7,164.5,100.7,164.7,100.7z"/>
					<path class="st0" d="M174.1,125.8c0.1,0.2,0.3,0.4,0.6,0.6C174.7,126.2,174.6,126.1,174.1,125.8z"/>
					<path class="st0" d="M202.5,148.8c0.6-0.2,1.2-0.4,1.7-0.6C203.5,148.4,202.9,148.6,202.5,148.8z"/>
					<path class="st0" d="M149.1,124.7c-0.6-0.1-0.8-0.3-1.7-0.2c0.1,0.1,0.2,0.1,0.3,0.2C147.9,124.5,148.4,124.5,149.1,124.7z"/>
					<path class="st0" d="M123.5,122.3c0.1,0.1,0.3,0.2,0.4,0.3c0.3,0,0.6,0,0.8,0L123.5,122.3z"/>
					<path class="st0" d="M139.3,19.9c0.6,0.3,1,0.6,1.2,1C140.1,20.1,143.9,19.6,139.3,19.9z"/>
					<path class="st0" d="M156.5,269.8c-0.3,0-0.6,0-0.9-0.3c0.2,0.3,0.4,0.5,0.6,0.7C156.4,270.1,156.5,270,156.5,269.8z"/>
					<path class="st0" d="M147.3,133.5l-4.1-0.5C144.3,133.1,145.8,133.3,147.3,133.5z"/>
					<path class="st0" d="M156.9,62.7l-1,0C156.3,62.8,156.7,62.8,156.9,62.7z"/>
					<path class="st0" d="M131,132c-0.7-0.5-1.5-0.8-2.2-1c-0.2,0.1-0.4,0.1-0.5,0.2L131,132z"/>
					<path class="st0" d="M140.6,20.8C140.6,20.8,140.6,20.8,140.6,20.8C140.6,20.8,140.6,20.8,140.6,20.8z"/>
					<path class="st0" d="M167.8,17.7c-4,0-1.9,1.4-2.7,2.3c-4.7,0.4-2.2-1.1-3.8-1.8c-2.9,0.4-5.2,1.8-7.4,1.8
						c-0.2-0.2-0.6-0.3-0.1-0.6c-3.1,1.2-9.2,0.3-12.8,1.9c-0.3-0.1-0.4-0.2-0.5-0.3c0.6,0.7,0.7,1.5,0.6,2
						c-1.8,0.1-3.2,1.1-3.9,0.2c1.1,0,1.1-0.4,1.6-0.7l-1.8,0.5c-1.7-1.3,2.5-0.6,2.4-1.6c-3.6,0.6-7.7,2-10.5,1.8
						c-0.7-1.3,6.4-0.9,2.7-1.8l4.3,0.3c-3.4-2,2.6,0-0.5-2.1c-5.7-0.1-6.3,1.1-11.9,1c-1.2,0.8,0.5,1.1-0.7,1.9
						c-7.8,2-6.5-2.9-12.2-0.6c-1.4,1.1-1.8,2.8-6.1,2.3l1.3-1.7c-5.4,0.4-2.9,2.5-8.6,2.1c0.9-0.7,4.2-1,3.4-1.1
						c-3.8-0.8-2.5,1.2-5.3,1.5l-0.7-1.3c-5.7,0.9-12,2.7-18.4,4.3c0.3-0.5,1.3-1.1-0.3-1.2c-1.2,0.4-2.5,0.7-3.7,1.1
						c-1.3,0.4-2.5,0.8-3.8,1.2c-2.5,0.9-5,1.7-7.2,2.7c-4.5,2-8.7,4-13.9,6.5c0.1,0.1,0.1,0.2,0.3,0.2l0.4,0.2l0.8,0.5
						c0.5,0.3,1,0.6,1.5,0.9c0.9,0.6,1.8,1.1,2.7,1.7c1.9,0.5,3.7,1,5.5,1.4c0.8,0.4,0.7,1-0.5,0.6c0.7,0.5,1.3,0.7,1.6,0.8
						c0.3,0.1,0.5,0,0.6-0.1c0.2-0.3,0.4-0.6,1.6-0.4c2.3,0.8,2.2,1.6,0.2,1.2c2.2,0.6,4.9,1.2,7.9,1.6c1.5,0.2,3,0.5,4.5,0.7
						c0.4,0.1,0.8,0.1,1.1,0.2l0.6,0.1l0.5,0.1c0.5,0.1,1,0.1,1.4,0.2c3.8,0.4,7.6,1.1,10.3,2.2l-1.1,0.2c4.2,1.2,5.3-1.5,9.1,0.3
						l-0.8,0.1c9.3,2.1,19.8,2.9,26.6,5.9c1.7-1.4,9.1,2.4,10.1,0.2c5.1,2.1,3.5,2.2,10.9,4.3c2,0.5,3.2-0.9,5.8-0.7l-0.2,1.2
						l3.6-0.7l1.5,1.8l2.4,0.1c-0.9-0.2-1.9-0.9-1.7-1.2c3.7,0.1,8.7,2.4,8.7,3l8.8,0.5c-0.3,0.5-1.7,0.4-2.9,0.5
						c4.8-0.4,0.6,1.4,5,1.1c-0.5-0.4,0.4-0.7,0.6-0.9c2,1.1,6.7,2,10.2,2.4l-0.8,0.7c6.2,1.5,13.2,2.4,20.1,4.3
						c-2.4-1.1-1.4-2.3,0.7-1.9l0.5,1.5c1.5-0.4-2-1.1,1-1.3c2.5,0.9,1.3,1.9-0.3,1.9c1.1,0.1,2.1,0.3,3.2,0.5
						c0.1,0.4-0.7,0.4-1,0.8c0.7-0.2,2,0.5,3.3,1.2c1.3,0.7,2.7,1.3,3.8,1l0,0.4c3.3,1.1,5.7,2,8,2.8c1.1,0.4,2.2,0.8,3.3,1.2
						c1.1,0.5,2.3,0.9,3.6,1.5c0.6-1,2.5,0.2,4.4,0.2c0.3,0.2,0.5,0.3,0.8,0.5l0.4,0.3c0.1,0.1,0.1,0.1,0.2,0.1
						c0.2,0.2,0.4,0.4,0.5,0.5c0.3,0.3,0.6,0.7,0.6,1.1c0,0.3-0.1,0.6-0.3,0.9c-0.2,0.2-0.4,0.4-0.6,0.6c-0.1,0.5-0.1,0.7,0.1,0.9
						c0.2,0.2,0.5,0.3,0.4,0.8c-0.2-0.2-0.5-0.2-0.8-0.2c-0.1,0-0.1,0-0.2,0c-0.1,0-0.2,0.1-0.3,0.1c-0.2,0.1-0.5,0.1-0.7,0.2
						c-0.9,0.2-1.4,0.3-0.5-0.5c-2.3,1.2-4,1.8-5.9,2.4c-1.9,0.6-4.1,1.3-7.9,2.1c0.9,0.3,1.8,0.4,1.4,0.8c-1.4,0.4-3.3,0-3.1-0.6
						l0.4-0.1c-2.1,0.6-4.5,0.9-6.9,0.9c-2.4,0-4.9-0.1-7.4-0.3c-2.5-0.2-4.8-0.4-7-0.4c-2.2,0-4.2,0.2-6,0.8l0.4-0.1l-7.3,1.3
						c-3.4-0.1,2-0.8-0.5-1.4c-7.9,1.8-12.5-0.2-19.1,0.9c-5-3.1-18,0.1-24.9-1.8l0.4,0.7c-1.8,0.7-2.2-0.4-3.5-0.5
						c0.2,0.6,1.9,0.6,0.8,1c-7.6,0.5-15.4,0.5-23.3,0.6c-2,0-4,0.1-6,0.1c-2,0-4,0.1-6,0.2c-4,0.2-8.2,0.6-12.4,1.5
						c-3,0.7-3.6,1.9-4.4,2.9c-0.4,0.5-0.8,1-1.7,1.5c-0.4,0.2-0.9,0.5-1.6,0.7c-0.5,0.2-1.8,0.6-3.2,1.1c0.3-0.4,0.7-0.9,1.2-1.4
						l0.7-0.7c0.2-0.2,0.3-0.4,0.4-0.6l-0.3,0.2c-0.1,0.1-0.2,0.1-0.3,0.2l-0.9,0.5c-0.6,0.3-1.1,0.7-1.7,1l-1.6,1l-1.4,1.2
						c-1,0.7-1.7,1.6-2.3,2.4c-0.6,0.9-1,1.8-1.2,2.9c-0.2,1.1-0.2,2.2,0.1,3.3c0.3,1,0.7,2,1.3,2.9c1.2,1.8,3.3,3.4,5.4,4.7
						c0.5,0.3,1.1,0.7,1.6,1l1.3,0.7c0.7,0.4,1.5,0.7,2.2,1c1.5,0.7,3,1.2,4.5,1.7c3,0.9,6,1.5,8.8,1.7c-0.7,0.2-0.8,0.5-1.9,0.3
						c2.2,1.5,8.8,1.7,8.9,1c1.7,0.4,0.3,0.8,1.3,1.3c1.1,0.5,2.7,0.4,4.1,0.4c1.4-0.1,2.6-0.1,3.2,0.5c0.2,0.2-0.7,0.2-1.2,0.2
						c1.6-0.2,7.2,1.1,5.8-0.2c4.1,1.1,8.1,0.4,11.3,1.4c2.3-1,7.1,1.3,7.9-0.4c-0.5,1.8,7.2,2.1,9.9,1.5c-0.9,0.5,2.2,0.8,1.1,1.4
						c3,0.2,5.8,0.2,5.3-0.8c5.3,2.6,11.2-0.6,14,2.5c4.4,0,8.7,0.2,12.8,0.5c4.1,0.3,8.1,0.7,11.9,1.5c-0.4,0.8-2.4,0.3-4.4,0
						c-2-0.4-4-0.6-4,0.3c3.7,0.3,6.6,0.3,9.4,0.7c0.7,0.1,1.4,0.2,2.1,0.3l0.5,0.1c0.2,0,0.2,0,0.3,0.1c0.2,0,0.4,0.1,0.6,0.1
						c0.7,0.2,1.5,0.5,2.1,0.9c0.2,0.3-0.2,0.3-0.6,0.3c-0.5,0-1,0-1.2,0.1c1.1,0.2,2.1,0.7,2.8,1.3l0.1,0c0,0,0,0,0,0l-0.1,0.1
						l-0.2,0.2c-0.2,0.1-0.3,0.2-0.5,0.3c-0.3,0.2-0.6,0.4-0.9,0.5c-0.6,0.3-1.1,0.7-1.7,1.2c-0.1-0.2,0.1-0.4,0.2-0.6
						c-0.2,0.1-0.5,0.1-0.6,0.2c-0.1,0-0.1,0.1-0.2,0.2c-0.1,0.1-0.2,0.3-0.1,0.5c0.2-0.1,0.3-0.2,0.3-0.2l0.2-0.2
						c0.3,0.2,0.5,0.5,0.4,0.8c0,0.2-0.1,0.4-0.3,0.5c-0.1,0.2-0.5,0.4-0.8,0.7c-1.4,1-3.1,1.9-3.2,2.2c1.7-2.8-6.6,0.9-3.8-2.8
						c-0.8,0.3-1.8,1-1.5,1.5c-1.3,0.1-1.8-0.1-0.6-1c-4.6,1.5-2.7,2-7,2.9c-0.1-0.4,0.7-0.7,1.1-1.3c-2,1.2-3.9,2.5-7.6,3
						c0.2-0.3-0.3-0.5,0.7-0.7c-6.1,1.5-10,4.4-16.9,5.2c1.6-2.1-2.4,0-3.1-1.4l-3.5,1.3l1.6,0.4c-3.2,0.7-5.7,2.4-8.6,2.5l2.2-1.1
						l-5.9,1.6l3.5-0.2c-3,1.5,0.8,1.8-3.6,2.3c0.8-0.3-3.2,0.7-5,0.2l0,0c-1.5,0.8-3,1.7-5.4,1.9c-0.7-0.3,0.1-1.7-0.3-1.9
						c-0.6,0.8-2.5,1.3-4.4,1.8c-0.5,0.1-1,0.3-1.5,0.4c-0.5,0.2-0.9,0.3-1.5,0.6c-1,0.5-1.8,1.1-2.1,1.6c0.5-0.6,0.1-1.3-0.2-1.3
						c-0.4,0.6-0.6,1.1-0.8,1.6c-1.7,0.9-2,1.1-2.3,0.5c-1.1,1.1-1.2,1.8-1.2,2c0.1,0.2,0.4,0.1,0.6,0.1c0.3-0.1,0.5-0.1,0.4,0.2
						c0,0.3-0.6,0.9-0.8,2.6c-0.1-0.5-0.3-0.3-0.3-1.4c-0.2,0.7-0.3,1.5-0.2,2.2c0.2,1.5,1,2.8,2,3.9c0.5,0.6,1.1,1.1,1.6,1.5
						c0.5,0.4,1,0.8,1.6,1.2c0.5,0.4,0.9,0.7,1.4,1.1c0.5,0.3,1,0.7,1.5,1c1,0.7,1.9,1.4,2.8,2c0.3,1-0.8,0.6-1.7,0
						c-1-0.6-1.9-1.2-1.5-0.2c0.4,0.3,0.8,0.5,1.2,0.8c0.4,0.3,0.9,0.5,1.3,0.7c0.9,0.4,1.8,0.9,2.6,1.3c0.9,0.4,1.8,0.7,2.7,1
						l1.4,0.5l1.4,0.4c0.9,0.3,1.8,0.5,2.7,0.8c0.9,0.2,1.8,0.5,2.7,0.7c1.8,0.5,3.5,0.9,5.2,1.6l-1.2-0.5c0.8-0.9,1.9-0.3,3.4,0.5
						c1.5,0.8,3.2,1.8,5,1.8c-0.9-0.1-1.4,0.9-1.1,0.7c4.5,1.5,9.6,1.7,16.5,3.1c-0.3,0.1-0.7,0.2-1,0.3c0.2,0.1,0.3,0.2,0.5,0.2
						l0.3,0.1l0.2,0.1c0.2,0.1,0.5,0.2,0.7,0.3c0.5,0.2,1,0.4,1.5,0.6c1,0.4,2,0.8,2.6,1.2c1.4-0.1,2.3,0.5,3.2-0.1
						c0,0.3,0.1,0.5,0.1,0.7c0,0.1,0.1,0.2,0.1,0.3l0.1,0.1c0,0,0.1,0,0,0.1l-0.2,0.1c-1,0.4-1.8,0.7-2.4,1c-1.2,0.6-2,1.3-3,2.2
						c-0.5,0.4-1.1,0.9-1.7,1.3l-0.2,0.2l-0.3,0.2l-0.7,0.4c-0.4,0.3-0.9,0.6-1.4,0.8c-1.8,1-3.7,1.9-5.8,2.3
						c0.9-0.5,1.8-1.6,1.1-1.2l-5.9,3.8c0.9,0.5,1.1,0,2.7,0c-0.5,0.9-2,2.2-3.6,3.1c2.5-2.1-0.7-1.3-2.2-1.1c0.4,0.1,0,0.7,0.3,0.8
						c-1.2,0.2-1.9,0.5-2.1,0.7c-0.3,0.3-0.2,0.5-0.2,0.8c0.1,0.3,0.1,0.6-0.2,0.9c-0.3,0.4-1,0.7-2.2,1.5l-0.3-0.4
						c-0.6,0.8-0.9,1.7-0.9,2.7c0.1,1,0.7,1.9,1.3,2.6c-0.2,0.5-0.8,0.1-1.2-0.4c-0.5-0.5-0.8-1.3-1.2-1.4c0.1,0.8,0.7,1.5,1.4,2.1
						c0.7,0.5,1.5,1,2.3,1.3c1.6,0.7,2.8,1.3,3.6,2.5c-1.2-0.5-3-1.6-4.3-2.3c0.7,1.3,1.5,2.1,2.1,2.7c0.3,0.3,0.7,0.5,1.1,0.8
						c0.3,0.2,0.7,0.5,1.1,0.8l-0.2-0.1c1.3,1,2.6,2.1,3.9,3.1l-0.9-0.9c2.3-0.3,3.9,0.5,5.7,1.4c1.8,0.9,3.7,1.9,6.3,2.1
						c-5-0.3-1.1,0.6-1.9,1.6c0.5,0.4,1.2,0.9,1.6,1.3c0.1,0,0.1,0.1,0.2,0.1c0,0,0,0.1,0.1,0.1c0,0.1,0.1,0.1,0.1,0.2
						c0,0.1,0,0.2-0.1,0.2c0.7-0.2,1.1,0.1,1.4,0.5c0.2,0.2,0.3,0.4,0.6,0.5c0.3,0.2,0.6,0.4,1.1,0.7c-0.2,0.1-0.2,0.4-0.4,0.7
						c-0.2,0.3-0.4,0.4-1,0.3c-0.1,0.5,0.1,0.5,0.4,0.4c0.3-0.2,0.7-0.6,1-0.5c0.2,0.6-0.2,1.4-0.8,2c-0.3,0.3-0.6,0.6-1,0.8
						c-0.5,0.4-1,0.7-1.6,1.1c-2.2,1.5-5,3-7.2,5.9c-2.1,2.2-3,4.1-3.4,5.9c-0.4,1.8-0.4,3.6,0.2,6.1c-0.1,0.9-0.5,0.7-0.9,0.1
						c-0.2-0.3-0.3-0.7-0.4-1c-0.1-0.3-0.2-0.5-0.2-0.5c-0.3,1.6,0,3.2,0.5,4.4c0.6,1.3,1.4,2.3,2.4,3.3c-0.6-0.3-0.5,0.4-0.3,1.3
						c1.4,1.7,2.1,0.3,3.3,2.9c-0.6-0.1-1.6-0.1-2.5-0.7c0.9,0.9,1.9,1.7,2.8,2.4c0.9,0.8,1.7,1.6,2.4,2.6c-0.2,0.4-0.6,0.2-1-0.2
						c-0.4-0.3-0.9-0.8-1.3-1c0.8,1,1.6,2.2,2,3.4c0.5,1.2,0.7,2.4,1.2,2.8c0.2-0.5,0.4-1.1,0.5-1.7c0,1-0.9,0.4-1.1-0.2
						c-0.5-1-0.6-1.6-0.5-2.2c0.1-0.5,0.3-0.9,0.5-1.1c0.3,0.5,0.5,1,0.8,1.5c0.4-0.5,0.5-1.3,0.2-2.1c-0.2-0.8-0.9-1.6-1.6-2.4
						c-1.4-1.5-3.4-2.9-4.6-4.4c0.8,0.1,1.5,0.2,2.3,0.2c-1.2-0.7-2.3-1.4-3.5-2.3c-0.1-0.5,0-1,0.3-1.1c0.3-0.2,0.7,0,1.3,0.6
						c-0.4-1.3-0.8-1.7-1.1-2.1c-0.2-0.2-0.3-0.4-0.5-0.7c-0.1-0.3-0.2-0.7-0.1-1.3c0.1-0.3,0.2-0.2,0.3,0c-0.2-0.4-0.3-0.7-0.5-1.1
						c-0.1-0.4-0.2-0.8-0.3-1.2c0.3,0.5,1.1-0.4,1,1c0.3-1.9,0.5-3.3,0.9-4.6c0.3-0.6,0.5-1.2,0.8-1.6c0.2-0.2,0.4-0.4,0.6-0.5
						c0.2-0.1,0.5-0.2,0.7-0.2l-0.2,0.3c2-2.3,2.1-2.6,1.8-2.9c-0.3-0.3-0.8-0.6,0.7-2.6c1.5,0.1,3,0.3,4.5,0.4l-0.2-1.4
						c0.6-0.4,1.7-1.2,1.8-0.6c1.4-2.3-0.7-0.1-0.1-1.7c1.6-0.6,3.3-2.5,4.2-4.4c0.5-0.9,0.8-1.8,1-2.6c0.2-0.8,0.2-1.4,0.6-1.7
						c-0.7-0.5-0.5,0.4-0.6,1c0,0.3-0.1,0.5-0.2,0.4c-0.1-0.1-0.2-0.5-0.7-1.3c0.8-0.8,0-1.8-1.4-2.4c-1.4-0.6-3.1-0.9-4.3-1.9
						c0.3-0.2,0.7-0.2,1.1-0.1c0.4,0.1,0.9,0.2,1.1,0.2c0.6,0.1,0.6,0-1-1.2c-2.4,1-5-2.7-7.3-3.5c-0.8,1.3-5.1-2-8.7-3.9
						c0.1-0.1-0.1-0.4-0.6-0.8c-0.4-0.4-1-0.9-1.6-1.5c-0.6-0.5-1.2-1.3-1-2.2c0.2-0.9,1.1-1.4,1.7-1.7l0.2,0.2
						c-0.7-0.5-0.3-1.1,0.6-1.8c0.2-0.2,0.4-0.3,0.7-0.5c0.3-0.2,0.6-0.4,0.9-0.5c0.7-0.4,1.4-0.8,2-1.3c0.3,0.8,0,1.4-1.2,2.5
						l2.4-1.3c0.3-0.7,1-1.4,2.5-2.4l-0.1,1.3c3.2-1.8,5.9-4.7,10.4-6.4c-0.1-0.5-1.3-0.7-1.9-1.1c-0.3-0.2-0.5-0.5-0.3-0.9
						c0.1-0.4,0.7-1,1.5-1.6c0.5,0.4,1.4,0.9,0.2,1.9c0.4-0.3,1.2-1.2,2.2-1.5c-0.4,0.6-0.8,1.2-1.4,1.8c2.6-1,0.7-1.3,2.4-2.1
						c0.7,0.5,1.9-0.4,2.3,0.1c-0.4,0.3-2,0.7-2.5,1.4c1.2-0.6,2.6-1.2,3.9-1.7c1.4-0.5,2.7-1,3.6-1.1c-0.9,0-1.5-0.4-0.2-1.3
						c1.9-1.2,2.7-1.3,3.3-1.4c0.7-0.1,1.2,0,2.9-0.8c0-0.2,0.2-0.4,0.6-0.6c0.2-0.1,0.3-0.2,0.5-0.4c-0.3-0.1-0.5-0.2-0.8-0.3
						c-1-0.4-2.1-0.7-3.2-0.6c-1.2-0.6-0.6-0.9-0.6-1.2c-1.6-0.5-4.4-1.7-6.6-2.5c-2.4-0.7-4-1.1-3.2-0.2l0.5,0.3
						c-0.1,0-0.3-0.1-0.4-0.1c0,0,0,0,0,0l0,0c-1-0.2-2-0.5-2.9-0.7l-1.4-0.4l-1.3-0.4c-1.6-0.5-3.1-1-4.6-1.5
						c-3.1-1.1-6.2-2.2-9.2-2.6l0.1-0.4c-3.7-0.4-8-1.7-10.7-1.7c-1.1-0.3-2.2-1.5-1.6-1.8c-1.4-0.3-2.1-0.4-3-0.6
						c-0.9-0.3-1.9-0.7-3.6-1.8c2.8,0.4-0.6-0.9,2.8,0.6c-1.6-0.8-2.5-1.4-3.5-2c-0.5-0.3-1-0.5-1.6-0.7c-0.3-0.1-0.7-0.2-1-0.3
						c-0.4-0.1-0.8-0.2-1.3-0.3c0.8-0.1,0.4-0.7-0.4-1.4c-0.4-0.3-0.9-0.6-1.4-0.9c-0.5-0.3-0.9-0.6-1.3-0.8c0.5,0.6,1,1.4,1.6,1.9
						c-0.9-0.4-1.5-0.9-2.2-1.4c-0.3-0.3-0.7-0.5-1-0.7l-0.5-0.4l-0.4-0.4c0.5-0.2,1-0.3,1.5-0.5c-0.5-0.6-0.9-1.1-1.4-1.6l-0.3-0.3
						l-0.1-0.1c-0.1-0.1-0.2-0.1-0.3-0.2c-0.4-0.3-0.9-0.6-1.3-1.1c-0.3-0.4-0.4-0.8-0.4-1.2c0-0.4,0.3-0.8,0.6-1.1
						c0.3-0.3,0.8-0.5,1.2-0.5c0.2,0,0.5,0,0.7,0.1c0.1,0,0.3,0.1,0.5,0.1c0.2,0,0.4,0.1,0.6,0.1c0.7-0.6-0.2-0.6-1-0.5
						c-0.5,0-1.3,0.1-1-0.6c0.3-0.1,0.6-0.1,0.8-0.1c0.4-0.1,0.8-0.1,1.2-0.1c0.8,0,1.7,0.1,2.4,0.2c1.5,0.2,2.8,0.4,3.3,0.2
						c4.8-0.3,3.9-2.9,8.8-3.5c-0.7-0.3-1.6-1.4,1.9-2.7c3.4-0.6,4.6,1,2.5,1.9c-0.8,0.2-1.2,0.2-1.2,0c-1.1,0.4-2.4,0.9-1,1.1
						l0.3-0.6c1.8,0.1,6.4-1,5.5,0c2.5-1,0.9-1-1-0.8c4.5-0.3,6.8-1.5,11.3-2.1c-0.8-0.1-1.5-0.5-0.8-0.6c6.7-0.9,2.7-1.5,7.1-2.7
						c2.7,0.1-0.5,1.9,3.8,0.3c2.8-0.1,0.9,1.1-0.1,1.7c3.9-1.8,7.7-1.1,10.1-1.5l-2.1,0.9c1.2-0.5,2.3-0.7,3.3-1l-1.4-0.6
						c1.3-0.1,2.4-0.4,2.4,0c1.2-0.9-1.3-1.3,1-2.7c1.8,0.1,5-1.7,5.9-0.6c-5.4,0.8,0.9,1.1-3.6,2.3c0.8-0.3,1.9-0.6,3.2-0.7
						c0.2,0.1-0.1,0.3-0.4,0.4c5.3-0.1,2-1.9,7.3-3.1c-0.5,0.9,1.6,1,2.4,0.6c-2.2,0.5-1.3-0.9,0.5-1.9c0.5-0.1,0.8-0.1,1.2-0.2
						c0.2,0,0.3-0.1,0.5-0.1c0.2-0.1,0.4-0.1,0.5-0.2c0.8-0.3,1.4-0.5,1.9-0.8c1-0.5,1.6-1,2.8-1.4c-1,0.3-2,0.6-3,0.8
						c0.6-0.9,2.8-1.6,5.3-3.1c0.9,0.2-2.1,1.5-0.9,1.1c1-1.1,2.6-1.7,4.6-2.6c1-0.5,2.1-1,3.1-1.6c0.5-0.3,1-0.6,1.5-1
						c0.2-0.2,0.5-0.4,0.7-0.5c0.2-0.2,0.5-0.4,0.4-0.5c-0.3-0.2-0.7-0.4-1-0.6c-0.6-0.7-0.1-0.8,0.3-0.8c0.5,0,0.9-0.1,0.3-0.8
						c-1.6-0.9-2.6-1.5-3.4-2.1c-0.8-0.6-1.3-1.1-1.9-1.7c-0.6-0.5-1.3-1.1-2.2-1.7c-1-0.6-2.3-1.3-4.2-1.9c0.7,0.8,1.1,1.2,0.7,1.2
						c-0.2,0-0.6-0.1-1.2-0.2c-0.6-0.1-1.6-0.4-2.7-0.5l1.3,0.4l1.3,0.5l1.3,0.5l1.3,0.5c0.4,0.2,0.9,0.4,1.3,0.6l1.2,0.6
						c0.8,0.4,1.6,0.9,2.4,1.3c-2.3-1.1-4.8-1.8-7.1-2.4c0.7,0.3,1.4,0.6,2.1,0.9c0.7,0.3,1.4,0.6,2.1,0.9c1.3,0.6,2.5,1.3,3.1,1.8
						c-3.4-1.3-2.7-1.1-2.7-0.2c-0.3-0.6-0.9-1.2-1.8-1.6c-0.8-0.5-1.8-0.8-2.8-1.1c-1-0.3-2-0.6-3-0.9c-1-0.3-1.9-0.7-2.7-1.2
						l0.8-2.2c-2.5-1.3-5-1.6-7.5-1.8c-2.6-0.2-5.4-0.3-8.7-1.1l2.1,0.7c-1,0.8-4.2-0.5-6.4-0.5c0.3-0.8-1-1.2-1.9-1.8
						c0,0.6-4.9-0.7-5.7,0.8l-2.9-1.4c-5.4-1-6.4,1.6-11.6,0.8c1.6-0.7-0.7-1.5,2.9-1.8c-1.7-0.2-3.3-0.5-3.4,0.1
						c-1-0.6-4.9,0.6-6.4-0.3c-0.8,0.3-1.1,1.1-3,0.8c-0.2-0.2,0-0.4,0-0.4c0,0.4-3.1,0.3-1.5,1.3c-5.1-2.9-14.9-1.1-19.3-3.8
						c-3.8-0.1-8.3-0.5-11.7-0.9c0.2-0.2,0.1-0.4,0.7-0.2c-4.5-1.4-3.2,1.8-8.4,0.2c-2.5-1.7,2.9-0.2,1.3-1
						c-0.2-1.3-1.7-1.5-3.7-1.7c-2-0.1-4.3-0.2-5.8-1.4l0.9,0c-1.2-0.7-2.8-0.9-4.6-1c-1.8-0.2-3.9-0.4-5.7-1.4c0,0,0.3-0.1,0.2-0.3
						c-0.8,0-1.7-0.1-2.6-0.3c-0.7-0.1-1.5-0.4-2.3-0.7c-0.8-0.4-1.8-0.9-2.4-1.6c-0.3-0.4-0.6-0.8-0.7-1.3c-0.1-0.5,0-0.9,0.2-1.3
						c0.4,0.6,0.6,1,0.8,1.1c0.2,0.2,0.4,0.1,1.2-0.1c0-0.5-0.5-0.6-1.1-0.7c-0.3-0.1-0.6-0.2-0.6-0.5c-0.1-0.3,0-0.7,0.7-1.2
						c0.8-0.2,1.8-0.4,2.6-0.5c0.9-0.1,1.5,0,1.9,0.5c-0.6,0.3-1.1,0.6-1.7,1c1.2,0.2,1.5,0,1.9-0.4c0.2-0.2,0.3-0.3,0.8-0.7
						c0.5-0.3,0.9-0.5,1.3-0.6l0,0.7c2.4-1,3.5-1.8,4.8-2.6c1.3-0.7,2.6-1.5,5.5-2l-0.7-0.4c2.9-2.1,2.8,0.4,5.9-1.2l1.2,1.4
						c2.1-0.7,7.4-2.3,11.3-2.9c-2.1,1.3-6.6,2.3-9.3,3.3c2.1-0.2,7.2-0.8,8.3-1.7c-0.9,0.2-1.9,0.7-2.8,0.5c2.5-1.5,6-2.3,10.3-2.5
						c-0.3,1.5,2.5,1.6,5.8,1.6c3.3,0,7-0.1,8.6,1.1c7.6-1.3,15.1,0.4,24,0.3c-3.1-2.4,2.6,0,2.1-2.5c2.1-0.1,2.9-0.1,3.1,0.1
						l6.3,1.5c1.5,0.7-2,0.5-1.8,1.1c4.6,0.2,1.9,1,4.9,1.7c-0.6-0.9,1.6-1.2,4.2-0.9l-3.7-1.1c6.4-1.3,5.5,2.1,12,0.7l-2,0.8
						c1.7-0.3,4.7-0.3,7.8-0.6c3.1-0.3,6.1-0.7,7.7-1.8c0.6,0.3,1.4,0.9,0,1.1c2,0,4.1-0.2,6.2-0.5c2.1-0.3,4.3-0.7,6.3-1.1
						c4.2-0.8,8.1-1.5,11.3-1.3l-0.5,0.7c1.5-0.4,2.5-1.5,4.5-1.3c0,0.3-0.5,0.7,0.2,0.6c0.8-0.4,3.9-1.9,6-2.4
						c-0.5,0.4-1,0.8-1.6,1.2c2-0.4,3.8-1.1,5.3-2c0.4-0.2,0.8-0.4,1.1-0.7l0.5-0.4c0.2-0.1,0.3-0.2,0.6-0.4c0.5-0.4,0.9-0.7,1.3-1
						c0.4-0.4,0.8-0.8,1.2-1.1l0.6-0.6c0.2-0.2,0.3-0.4,0.5-0.6l0.9-1.2c0.5-0.8,0.9-1.6,1.2-2.5c0.3-0.8,0.5-1.7,0.5-2.7
						c0-0.9-0.2-1.9-0.6-2.8c-0.2-0.3-0.4-0.7-0.7-1c0.8-0.3,0.5-2.2-1.9-4.2c-0.6-0.5-1.3-1-2.1-1.4l-1.1-0.7
						c-0.2-0.2-0.5-0.3-0.7-0.5c-0.8-0.6-1.7-1.1-2.4-1.5l0.2-0.2c-1-0.5-2-1-3-1.5c-1-0.4-2-0.8-2.9-1.1c-1.9-0.7-3.8-1.2-5.7-1.7
						c-3.7-1-7.4-1.6-11.5-2.6c-1.1-0.8-2.7-1.6-4.6-2.4c-1.9-0.7-4.1-1.4-6.4-2.1c-4.6-1.3-9.7-2.4-13.7-3.8c1.2,0.6-0.5,1.3-2,1.2
						c-1.8-0.8-5.5,0.1-4.9-1.4l0.7,0.2c-1.1-1.8-5.2-2.2-8.2-2.8l-0.9,2c-7.5-4.5-21.1-2.6-25-6.1c-2,0.2-4.4-0.2-6.4-0.1l0.3-1.1
						c-5.3-1.2-7.9-1.8-14.6-2.7l1.5-0.6c-3.7-0.7-5.3,2.4-8.7,1.8l-0.7-1.8c-6.5-1.1-12.8-3.7-19.5-3.4c0.1-0.2,0.4-0.7,1.5-0.6
						C99,42.6,90.5,40,91.2,42.5c0.2-1.5-6.7-1.3-10.3-1.3l0.7-1c-3.1,0.9-3.8,1.2-6.4,1.1c-0.5-0.3,0.2-0.9,0.6-0.5
						c-0.7-0.4-1.1-0.3-1.9-0.2c-0.7,0.1-1.6,0.2-2.4-0.4c0.7-0.1,1.3-0.2,1.9-0.3c-1.5-0.5-1.9-0.2-4.8-0.2
						c-1.2-0.1-2.1-0.6-2.3-1.1c-0.1-0.2,0-0.4,0.4-0.6c0.2-0.1,0.4-0.2,0.7-0.2c0.1,0,0.3,0,0.4-0.1c0.2,0,0.4,0,0.6,0
						c-0.1,0-0.3,0-0.4,0c-0.8,0-1.4-0.2-1.6-0.4c-0.2-0.2,0.1-0.5,1-0.8c1.1,0,1.3,0.3,1.4,0.4c1.2-0.3,1.7-0.5,2.2-0.8
						c0.4-0.2,0.6-0.5,0.9-0.8c0.3-0.3,0.6-0.5,1.1-0.7c0.5-0.2,1.2-0.3,1.9-0.2c0.3,0.3,0.6,0.4,0.8,0.5c-2.1,0.5-3.8,1.1-3.8,1
						c1,0.3,1.9,0.3,2.6,0.4c0.8,0.1,1.3,0.4,2.3,0.9c-1.3-0.4-1.6-2.3,1.7-2.4c0.2,0.1,0.4,0.1,0.5,0.3l-0.3,0.2
						c0.8-0.1,1.5-0.3,2.1-0.6c1.1,0,1.8,0,2.9-0.2c0.5,0.8,4.1-0.2,5.9-0.4c-0.3-1.1,2.1-1.2-0.3-1.9c0.3,0-0.3,0.2-1.5,0.4
						c-0.3,0.1-0.6,0.1-0.7,0.2c0,0,0.1-0.1,0.1-0.1c-1.2,0.2-2.7,0.5-4.4,0.8c1.3-0.8,2.7-1.5,4.8-1.2c0.8-0.9,1.7-1.7,2.3-2.1
						c2.7,1.2,7.5,1.5,8.3,2.4c1.4-0.3,2.8-0.6,4.4-0.9c1.5-0.3,3.1-0.5,4.5-0.8c3-0.6,5.6-1.4,7.3-2.5c1.6-0.4,1.9,0.5,2.5,0.7
						c-0.9,0.3-2,0.3-2.4,0.7c3.1-0.8,9.3-1,9.9-2.5c4,0.4-2.1,1.5,3.3,0.9l-0.7,0.5c5.4,0.8,9.7-0.3,14.2-1.4c2.2-0.5,4.5-1,7-1.2
						c2.5-0.2,5.1-0.1,8.1,0.6c-0.8-0.2-1.2-0.3-1.4-0.5c13.6,1.1,28.1-1.2,41.4,1.6c3.8,0.6,4.2-0.3,6.6-0.9l0.7,1.3l4.1-1.1
						c2.9-0.3,5.2,0.6,7.8,1.5c2.6,0.9,5.3,1.6,9,1l-0.8-0.9c2.5,0.4,8.1,0.4,7.6,1.3c0.3-0.1,0.9-0.8,1.9-0.2l0,0.6l6.4-0.3
						c4.8,1.1-1.1,2.3,5.9,3.5c2.6,0.1,7.7-0.7,6.8-1.3c-1.1-0.2-2.6-0.8-2.6-1.4l2.5,0c0.7-1.8,2.9-3.4-2.9-5.5l-4.3,0.5l-1.2-1.1
						l3.5,0.4c-1.9-1.1-3.2-0.6-4.7-0.2c-0.3-0.5-0.8-0.9-1.6-1.2l-4.3,1.2c-0.4-0.8,2-1.2-0.7-1.9c-2,0.6,1.6,1.9-1.6,2
						c-1.9-1.1-1.2-1.7-3.7-1.2c-0.3-0.5,0.3-0.8,1.2-0.9c-2.1,0.3-5.5-0.4-6.7,0.5c-2-1.3-7.1-0.4-6.7-2.1c-0.7,0.4-3.8,1-5.7,0.9
						c3.7-1.8-7.2-0.7-6.1-2.8c-2.7,1.7-9.5,0.3-14.1,1.1c0.3-0.1,0.8-0.4,1.2-0.3c-2.6-0.3-3.3-0.9-5-1.3c-0.4,1.6-4.4,1.7-6.6,2.7
						c-3.1-1.6,2-1.8,1-3.3c0.1,1.3-5.6,1.1-4.5,2.2c-2.4-1-2.1-0.5-3.3-1.8c-0.5,2-2.3,0.3-4.3,1.5c-3.5-1-0.9-1.8-4.8-1.3
						C164.3,18.3,167.8,17.7,167.8,17.7z M76.2,28.3C76.2,28.3,76.2,28.3,76.2,28.3c0.8-0.2,1.4-0.4,1.9-0.5
						C77.7,27.9,77.2,28,76.2,28.3z M65.9,31.3c0.6-0.2,1.3-0.4,2-0.7c0.8-0.2,1.5-0.5,2.4-0.8c0.7,0.2,0.6,0.6-0.4,0.9
						c0.1-0.2-0.4-0.1-1.2,0C67.9,30.9,66.8,31.1,65.9,31.3z M86,34.4c-1.1,0.3-1.6,0.2-1.8,0c0.5-0.1,1.2-0.2,2-0.5
						c0,0,0.1-0.1,0.1-0.2C86.3,34,86.2,34.2,86,34.4z"/>
					<path class="st0" d="M87.9,32.6c0.2-0.1,0.3-0.1,0.5-0.2c-0.3-0.1-0.5-0.1-0.7-0.1c-0.1,0.1-0.3,0.3-0.4,0.4
						C87.5,32.7,87.7,32.7,87.9,32.6z"/>
					<path class="st0" d="M171.3,193.2l-0.2-0.1c0.1,0.1,0.2,0.2,0.3,0.3C171.3,193.3,171.4,193.3,171.3,193.2z"/>
					<polygon class="st0" points="148.4,61.8 148.5,61.5 147.8,61.6 					"/>
					<path class="st0" d="M150.5,212c-0.1,0-0.4,0-0.8,0.1C149.7,212.2,150.1,212.1,150.5,212z"/>
					<path class="st0" d="M151.1,227.8c0.7,0.6,1.4,1.2,2,1.7C152.3,228.7,151.6,228.2,151.1,227.8z"/>
					<path class="st0" d="M163.5,235.1c0.2-0.1,0.4-0.2,0.5-0.3l0,0L163.5,235.1z"/>
					<path class="st0" d="M196.1,143.1c0.1,0,0.1-0.1,0.1-0.1C196.4,142.7,196.3,142.8,196.1,143.1z"/>
					<path class="st0" d="M134,160.2c0.6-0.4,1.3-0.7,2-1C134.8,159.3,133.9,159.5,134,160.2z"/>
					<path class="st0" d="M147.7,133.5C147.7,133.5,147.7,133.5,147.7,133.5c-0.1,0-0.3,0-0.4-0.1L147.7,133.5z"/>
					<path class="st0" d="M139,158.5c-1.2,0-2.2,0.3-3,0.7C137,159,138.1,158.9,139,158.5z"/>
					<path class="st0" d="M161.1,279.2l0,0.5c0.1,0,0.1,0,0.2,0.1C161.2,279.5,161.2,279.4,161.1,279.2z"/>
					<path class="st0" d="M161.3,279.7l0.1,0.5C161.4,280,161.4,279.8,161.3,279.7z"/>
					<path class="st0" d="M161.5,281.4c0-0.4,0-0.8-0.1-1.2C161.4,280.6,161.3,281.1,161.5,281.4z"/>
					<path class="st0" d="M152.7,264l-0.5-0.1C152.4,264,152.5,264,152.7,264z"/>
					<path class="st0" d="M152.3,256.6c-0.1,0.4-0.4,0.9-0.5,1.5c-0.1,0.5-0.3,1.1-0.4,1.8c0,0.6-0.1,1.3,0,2
						c0.1,0.7,0.2,1.4,0.5,1.9l0.4,0.1c-0.2-0.2-0.4-0.7-0.5-1.3c0-0.3-0.1-0.7-0.1-1c0-0.4,0-0.7,0.1-1.1
						C151.9,258.9,152.4,257.5,152.3,256.6z"/>
					<path class="st0" d="M173.4,241.2l-0.8,1.3c-0.3,0.4-0.7,0.8-1,1.2c-0.6,0.8-1.4,1.4-2,2c0.5-0.2,1-0.3,1.3-0.3
						c0.1,0,0.2,0.1,0,0.4c-0.1,0.2-0.3,0.5-0.7,0.9c0.4-0.2,0.7-0.4,0.9-0.6c0.3-0.2,0.6-0.4,0.8-0.6c0.4-0.4,0.6-0.7,0.7-0.8
						c0.2-0.3-0.1-0.2-0.3-0.2c-0.3,0.1-0.6,0.1-0.5-0.3C171.9,243.6,172.5,242.9,173.4,241.2z"/>
					<path class="st0" d="M164.3,229.4c2.3,0.9,0.2-0.6,0.5-0.8C163.2,228.3,162.8,228.2,164.3,229.4z"/>
					<path class="st0" d="M138.9,183.3l0.6-0.9C137.6,181.9,139.3,182.7,138.9,183.3z"/>
					<path class="st0" d="M118.6,178.2c0.4,0.6,0.8,1.2,1.2,1.8l1.4-0.2C120.2,179.4,119.4,178.8,118.6,178.2z"/>
					<path class="st0" d="M122.4,169.6c0,0.1,0,0.2,0,0.2c0.1-0.3,0.3-0.5,0.5-0.8C122.7,169.2,122.5,169.4,122.4,169.6z"/>
					<path class="st0" d="M128.1,121.8l0.5,1.3C129.9,123,130.3,121.7,128.1,121.8z"/>
					<path class="st0" d="M96.6,104.4c0.9,0.5,3,0.5,4.2-0.3C99.1,104.2,97.4,104,96.6,104.4z"/>
					<polygon class="st0" points="170.3,55.4 171.9,55.2 168.9,55.1 					"/>
				</g>
			</g>
		</g>
	</g>
</g>
</svg>
