<?xml version="1.0" encoding="utf-8"?>
<!-- Generator: Adobe Illustrator 21.0.2, SVG Export Plug-In . SVG Version: 6.00 Build 0)  -->
<svg version="1.1" id="Layer_1" xmlns="http://www.w3.org/2000/svg" xmlns:xlink="http://www.w3.org/1999/xlink" x="0px" y="0px"
	 viewBox="0 0 315 315" style="enable-background:new 0 0 315 315;" xml:space="preserve">
<style type="text/css">
	.st0{fill:#646464;}
</style>
<g>
	<g>
		<g>
			<g>
				<g>
					<path class="st0" d="M155.1,214c0,0.3,0.4,0.4,0.7-0.1l-0.2-0.7L155.1,214z"/>
					<path class="st0" d="M158.4,211.5c0-0.8-0.3-1.6-1-1.4c0.4,0.7,0.1,0.8,0.4,1.8c-0.2,0.5-0.7,0.7-0.9,0.5
						c0,0.3-0.6,0.6-0.5,1.1c0.9-0.3,1.5-1.1,1.6-2.2C158.2,211.2,158.3,211.4,158.4,211.5z"/>
					<path class="st0" d="M161.8,172.9l0.4,0.2C162.1,173.1,162,173,161.8,172.9z"/>
					<path class="st0" d="M150.2,160.7c-0.3,0.1-0.4,0.2-0.4,0.2C150,160.8,150.2,160.7,150.2,160.7z"/>
					<path class="st0" d="M156.5,160c-0.1,0-0.2,0-0.4,0C156.2,160.1,156.4,160.1,156.5,160z"/>
					<path class="st0" d="M161.8,172.9c-0.3-0.2-0.7-0.4-1-0.6C160.6,172.5,161.3,172.6,161.8,172.9z"/>
					<path class="st0" d="M155.3,205.2c0.2,0.2,0.3,0.3,0.5,0.3c-0.1-0.1-0.3-0.2-0.4-0.4C155.4,205.2,155.4,205.2,155.3,205.2z"/>
					<path class="st0" d="M155.9,182.2l-0.3,0.1c0,0.1-0.1,0.2-0.1,0.4L155.9,182.2z"/>
					<path class="st0" d="M157.6,186.9c-0.2-0.1-0.6,0.3-0.8,0.5c0.2-0.1,0.5-0.1,0.7-0.1C157.6,187.2,157.6,187.1,157.6,186.9z"/>
					<path class="st0" d="M155.8,201.6l0.2,0.3C156,201.8,155.9,201.7,155.8,201.6z"/>
					<path class="st0" d="M165.5,176.9c0.2,0,0.3,0,0.5,0C165.9,176.9,165.7,176.9,165.5,176.9z"/>
					<path class="st0" d="M181.5,101.5C181.4,101.5,181.5,101.5,181.5,101.5C181.5,101.5,181.6,101.5,181.5,101.5z"/>
					<path class="st0" d="M195.6,106l-0.2,0c0,0.1-0.1,0.2-0.1,0.3L195.6,106z"/>
					<path class="st0" d="M167.8,158.1C167.8,158.1,167.8,158.1,167.8,158.1C167.5,158.3,167.7,158.2,167.8,158.1z"/>
					<path class="st0" d="M159,136.3c-1.2-0.5,2-0.6,0.2-1.2C159.4,135.3,157.5,135.9,159,136.3z"/>
					<path class="st0" d="M155.2,204.9c-0.1-0.1-0.2-0.3-0.3-0.5C155,204.7,155.1,204.8,155.2,204.9z"/>
					<path class="st0" d="M159.2,135.1L159.2,135.1L159,135C159.1,135,159.1,135.1,159.2,135.1z"/>
					<path class="st0" d="M163.1,144.8c0,0.1,0.1,0.2,0.2,0.3C163.4,145.1,163.3,145,163.1,144.8z"/>
					<path class="st0" d="M175.6,154.7c0.2-0.1,0.4-0.2,0.7-0.2C176,154.5,175.8,154.6,175.6,154.7z"/>
					<path class="st0" d="M152.7,144.5c-0.3-0.1-0.3-0.2-0.7-0.1c0,0,0.1,0.1,0.1,0.1C152.3,144.4,152.5,144.4,152.7,144.5z"/>
					<path class="st0" d="M142.1,143.5c0.1,0,0.1,0.1,0.2,0.1c0.1,0,0.2,0,0.3,0L142.1,143.5z"/>
					<path class="st0" d="M148.7,101c0.2,0.1,0.4,0.3,0.5,0.5C149,101.1,150.6,100.9,148.7,101z"/>
					<path class="st0" d="M155.6,205c-0.2,0-0.3,0-0.4-0.1c0.1,0.1,0.2,0.2,0.3,0.3C155.5,205.2,155.6,205.1,155.6,205z"/>
					<path class="st0" d="M151.9,148.9l-1.7-0.2C150.7,148.8,151.3,148.9,151.9,148.9z"/>
					<path class="st0" d="M155.9,119.5l-0.4,0C155.7,119.6,155.8,119.6,155.9,119.5z"/>
					<path class="st0" d="M145.2,148.3c-0.3-0.2-0.6-0.4-0.9-0.5c-0.1,0-0.2,0.1-0.2,0.1L145.2,148.3z"/>
					<path class="st0" d="M149.2,101.5L149.2,101.5L149.2,101.5z"/>
					<path class="st0" d="M160.5,99.9c-1.6,0-0.8,0.7-1.1,1.1c-1.9,0.2-0.9-0.5-1.6-0.9c-1.2,0.2-2.1,0.9-3.1,0.9
						c-0.1-0.1-0.2-0.2,0-0.3c-1.3,0.6-3.8,0.1-5.3,0.9c-0.1-0.1-0.2-0.1-0.2-0.2c0.3,0.4,0.3,0.7,0.3,1c-0.7,0-1.3,0.5-1.6,0.1
						c0.4,0,0.5-0.2,0.7-0.4l-0.8,0.2c-0.7-0.7,1-0.3,1-0.8c-1.5,0.3-3.2,0.9-4.3,0.8c-0.3-0.7,2.7-0.4,1.1-0.9l1.8,0.2
						c-1.4-1,1.1,0-0.2-1.1c-2.3-0.1-2.6,0.5-4.9,0.4c-0.5,0.4,0.2,0.5-0.3,1c-3.2,0.9-2.7-1.5-5.1-0.4c-0.6,0.5-0.7,1.4-2.5,1.1
						l0.5-0.8c-2.3,0.2-1.2,1.2-3.6,1c0.4-0.3,1.7-0.5,1.4-0.5c-1.6-0.4-1,0.6-2.2,0.7l-0.3-0.6c-1.2,0.2-2.4,0.5-3.7,0.8l-0.5,0.1
						l-0.2,0.1l-0.1,0l-0.2,0c-0.5,0.1-1,0.2-1.5,0.4c-1,0.3-1.9,0.5-2.8,0.8c0-0.2,0.5-0.6-0.7-0.5c-1.9,0.7-3.6,1.4-5.3,2.1
						c-1.9,0.9-3.8,1.7-5.6,2.5c0.7,0.5,1.5,1,2.1,1.4c0.8,0.2,1.6,0.4,2.4,0.5c0.3,0.1,0.1,0.4-0.4,0.2c1,0.8,0.7-0.1,1.8,0.1
						c0.8,0.3,0.5,0.6-0.3,0.5c1.6,0.5,4.1,1,6.7,1.4c1.3,0.2,2.5,0.4,3.6,0.6c0.8,0.2,1.4,0.4,2,0.6l-0.5,0.1
						c1.7,0.5,2.2-0.8,3.8,0l-0.3,0c3.8,0.9,8.2,1.2,11,2.5c0.7-0.7,3.8,1,4.2-0.1c2.1,1,1.4,1.1,4.5,2c0.8,0.2,1.4-0.5,2.4-0.4
						l-0.1,0.6l1.5-0.4l0.6,0.9l1,0c-0.4-0.1-0.8-0.4-0.7-0.6c1.6,0,3.6,1.1,3.6,1.4l3.6,0.1c-0.1,0.2-0.7,0.2-1.2,0.3
						c2-0.3,0.2,0.7,2.1,0.4c-0.2-0.2,0.2-0.3,0.3-0.5c0.8,0.5,2.7,0.9,4.2,1l-0.4,0.4c2.6,0.6,5.5,1,8.3,1.8c-1-0.5-0.5-1.1,0.3-1
						l0.2,0.7c0.6-0.2-0.8-0.5,0.4-0.6c1,0.4,0.5,0.9-0.2,0.9l1.3,0.2c0,0.2-0.3,0.2-0.5,0.4c0.6-0.2,2,1.3,2.9,0.9l0,0.2
						c2.7,1,4,1.3,6.1,2.2c0.1-0.2,0.4-0.2,0.7-0.2c0.2,0,0.4,0.1,0.5,0.1c0.1,0,0.2-0.1,0.4-0.1c0.3,0.3,0.5,0.6,0.6,0.9
						c0,0.3-0.3,0.5-0.4,0.7c0,0.2,0.1,0.3,0.2,0.4c0.1,0.1,0.3,0.1,0.3,0.3c-0.3-0.1-0.6-0.1-0.8-0.1c-0.2,0-0.3-0.1-0.3-0.3
						c-0.1,0.1-0.1,0.1-0.3,0.1c-0.2,0.1-0.4,0.2-0.6,0.3c-0.4,0.1-0.7,0.3-1.1,0.4c-0.8,0.3-1.6,0.5-3.2,0.9
						c0.4,0.2,0.8,0.2,0.6,0.4c-0.6,0.2-1.3-0.1-1.3-0.3l0.1-0.1c-3.6,1.2-8.5-0.8-11.3,0.3l0.2-0.1l-3,0.6
						c-1.4-0.1,0.8-0.4-0.2-0.7c-3.3,0.9-5.2-0.1-7.9,0.4c-2.1-1.5-7.5,0-10.3-0.9l0.2,0.4c-0.7,0.4-0.9-0.2-1.4-0.3
						c0.1,0.3,0.8,0.3,0.4,0.5c-3.1,0.3-6.4,0.2-9.7,0.2c-3.3,0-6.6-0.1-10.2,0.7c-1.3,0.3-1.5,0.9-1.8,1.4c-0.1,0.2-0.5,0.5-1,0.8
						c-0.5,0.3-1.2,0.5-2.4,1c0.1-0.4,0.4-0.7,0.7-1.2c-0.4,0.3-0.9,0.6-1.3,0.9l-0.6,0.4l-0.4,0.5c-0.6,0.6-0.9,1.3-1.1,2.1
						c-0.2,0.9,0.1,1.8,0.5,2.4c0.4,0.7,1,1.4,1.8,1.9c0.8,0.6,1.7,1.1,2.7,1.5c0.2,0.1,0.5,0.2,0.7,0.3l0.5,0.2
						c0.3,0.1,0.6,0.2,0.9,0.3c1.3,0.4,2.5,0.6,3.7,0.7c-0.3,0.1-0.4,0.3-0.8,0.2c0.9,0.7,3.7,0.7,3.7,0.3c0.7,0.2,0.1,0.4,0.5,0.6
						c0.9,0.4,2.6-0.2,3,0.3c0.1,0.1-0.3,0.1-0.5,0.1c0.7-0.1,3,0.5,2.4-0.2c1.7,0.5,3.4,0.1,4.7,0.6c1-0.5,2.9,0.6,3.3-0.3
						c-0.2,0.9,3,1,4.1,0.7c-0.4,0.2,0.9,0.4,0.5,0.7c1.2,0.1,2.4,0,2.2-0.4c2.2,1.3,4.6-0.4,5.8,1.1c1.8,0,3.6,0,5.3,0.1
						c0.9,0,1.7,0.1,2.5,0.2c0.4,0,0.8,0.1,1.2,0.2l0.6,0.1c0.2,0,0.2,0,0.4,0.1c-0.1,0.1-0.1,0.2-0.2,0.2c-0.1,0-0.1,0.1-0.3,0.1
						c-0.3,0-0.8-0.1-1.2-0.2c-0.8-0.1-1.7-0.2-1.7,0.2c0.8,0,1.4,0,2.1,0.1c0.3,0,0.7,0,0.9,0c0.1,0,0.2-0.1,0.4-0.1
						c0.5-0.1,1.4,0.1,1.8,0.4c0.1,0.2-0.9,0.1-1.1,0.2c0.5,0.1,1,0.3,1.3,0.5c0,0.1-0.2,0.2-0.3,0.3l-0.4,0.2
						c-0.2,0.1-0.4,0.3-0.6,0.5c-0.1-0.1-0.1-0.2-0.1-0.2c-0.2,0.1-0.5,0-0.2,0.3c0-0.1,0.1-0.1,0.1-0.1c0.5,0.2,0.6,0.5,0.4,0.8
						c-0.2,0.3-0.7,0.7-0.7,0.9c0.1-0.3,0-0.5-0.2-0.5c-0.1,0-0.2-0.1-0.3-0.1c-0.1,0-0.3,0-0.5,0c-0.6,0-1.2,0-0.6-0.9
						c-0.3,0.2-0.7,0.4-0.6,0.7c-0.5,0-0.7-0.1-0.3-0.5c-1.9,0.7-1.1,0.9-2.9,1.3c0-0.2,0.3-0.4,0.4-0.6c-0.8,0.6-1.6,1.2-3.1,1.3
						c0.1-0.1-0.1-0.2,0.3-0.3c-2.5,0.6-4.1,2-7,2.3c0.6-1-1-0.1-1.3-0.8l-1.4,0.6l0.7,0.2c-1.3,0.3-2.4,1.1-3.5,1.1l0.9-0.5
						l-2.4,0.7l1.5,0c-1.2,0.7,0.4,0.9-1.4,1.1c0.3-0.2-1.3,0.3-2.1,0l0,0c-0.6,0.4-1.2,0.8-2.2,0.8c-0.3-0.2,0-0.9-0.2-1
						c-0.1,0.2-0.4,0.3-0.7,0.5c-0.2,0.1-0.3,0.1-0.5,0.2c-0.2,0.1-0.5,0.1-0.7,0.2c-1.1,0.3-2,0.8-2.1,1.3c0.2-0.3-0.1-0.6-0.3-0.6
						c-0.1,0.2-0.1,0.5-0.2,0.7c-0.7,0.4-0.8,0.5-1.1,0.2c-0.4,0.4-0.5,0.7-0.4,0.8c0,0.1,0.2,0.1,0.3,0c0.1,0,0.2,0,0.2,0.1
						c0,0.1-0.2,0.4-0.3,1c0-0.2-0.1-0.1-0.1-0.6c-0.1,0.4-0.1,0.7-0.1,1.1c0.1,0.6,0.4,1.1,0.8,1.5c0.4,0.4,0.9,0.8,1.3,1.2
						c0.2,0.2,0.4,0.4,0.7,0.5l0.6,0.4c0.4,0.3,0.8,0.6,1.1,0.8c0.1,0.5-0.4,0.3-0.8,0.1c-0.4-0.2-0.8-0.5-0.7,0
						c0.7,0.5,1.4,0.8,2.2,1.1c0.8,0.3,1.5,0.6,2.3,0.8c1.5,0.5,3.1,0.7,4.4,1.3l-0.5-0.2c0.7-0.9,2,1.1,3.5,1
						c-0.4,0-0.6,0.5-0.5,0.4c0.9,0.3,1.9,0.5,3.1,0.6c1,0.1,2.1,0.3,3.5,0.4c-0.1,0.1-0.3,0.1-0.4,0.2c0.3,0.2,0.7,0.4,1.1,0.5
						c0.4,0.2,0.8,0.3,1.1,0.5c0.7,0,1.1,0.2,1.6-0.1c0,0.1,0,0.2-0.1,0.3c0,0,0,0.1,0,0.1c0,0,0.1,0.1-0.1,0.1
						c-0.5,0.2-0.8,0.3-1,0.4c-0.5,0.3-0.8,0.5-1.1,0.9c-0.4,0.3-0.8,0.7-1.4,1.1c-0.7,0.4-1.5,0.8-2.4,0.9c0.4-0.2,0.7-0.7,0.5-0.5
						l-2.4,1.6c0.4,0.3,0.5,0.1,1.2,0.1c-0.2,0.4-0.8,1-1.4,1.4c0.5-0.5,0.4-0.6,0.1-0.7c-0.3,0-1,0.1-1.4,0.2
						c0.2,0,0.1,0.3,0.3,0.4c-1.2,0.2-1,0.4-0.9,0.6c0.1,0.1,0.1,0.2,0,0.4c-0.1,0.2-0.4,0.3-0.9,0.6l-0.2-0.1
						c-0.2,0.3-0.3,0.7-0.3,1.1c0,0.4,0.3,0.8,0.6,1.1c-0.2,0.2-0.4,0.1-0.6-0.2c-0.2-0.2-0.3-0.6-0.5-0.6c0.1,0.7,0.9,1.1,1.6,1.4
						c0.7,0.3,1.2,0.5,1.5,1c-0.6-0.2-1.3-0.7-1.8-1c0.2,0.5,0.4,0.9,0.7,1.1c0.3,0.3,0.6,0.4,1,0.8l-0.1-0.1l1.8,1.4l-0.4-0.4
						c1-0.2,1.7,0.1,2.4,0.5c0.7,0.4,1.5,0.8,2.6,0.8c-2.1,0-0.5,0.3-0.9,0.8c0.3,0.3,0.5,0.6,0.3,0.7c0.4-0.1,0.5,0.1,0.6,0.2
						c0.1,0.2,0.2,0.3,0.8,0.5c-0.2,0.1-0.1,0.5-0.7,0.4c0,0.2,0.1,0.2,0.3,0.1c0.2-0.1,0.4-0.3,0.5-0.2c0.2,0.5-0.5,1.1-1.2,1.4
						c-0.1,0.1-0.4,0.2-0.7,0.4c-0.3,0.2-0.5,0.3-0.8,0.5c-0.5,0.4-1,0.9-1.5,1.5c-0.9,1-1.2,1.8-1.4,2.6c-0.1,0.8-0.1,1.6,0.2,2.6
						c-0.1,0.4-0.3,0.3-0.5,0c-0.2-0.2-0.3-0.6-0.3-0.6c-0.1,0.7,0,1.4,0.2,1.9c0.2,0.5,0.6,1,1,1.4c-0.3-0.1-0.3,0.2-0.2,0.6
						c0.6,0.7,0.9,0.1,1.4,1.1c-0.3,0-0.7,0-1.2-0.2c0.8,0.7,1.7,1.2,2.2,2c-0.2,0.3-0.7-0.3-1.1-0.4c0.3,0.4,0.7,0.9,0.9,1.3
						c0.2,0.5,0.3,0.9,0.6,1.1c0.1-0.2,0.2-0.4,0.2-0.7c0,0.4-0.5,0.2-0.6-0.1c-0.2-0.4-0.3-0.6-0.2-0.8c0.1-0.2,0.2-0.4,0.3-0.5
						c0.1,0.2,0.2,0.4,0.3,0.6c0.5-0.5,0.1-1.3-0.5-1.9c-0.6-0.6-1.5-1.1-2-1.8l1.1,0c-0.5-0.3-1-0.5-1.5-0.9c0-0.4,0.3-0.8,0.8-0.3
						c-0.1-0.6-0.3-0.7-0.5-0.9c-0.2-0.2-0.3-0.3-0.2-0.8c0.1-0.1,0.1-0.1,0.1,0c-0.2-0.3-0.3-0.6-0.4-0.9c0.2,0.2,0.6-0.1,0.5,0.4
						c0.2-0.8,0.2-1.3,0.3-1.8c0.2-0.5,0.4-1,0.9-1l-0.1,0.1c0.8-1,0.8-1.1,0.7-1.3c-0.1-0.1-0.4-0.3,0.2-1.2c0.7,0.1,1.3,0.3,2,0.4
						l-0.2-0.7c0.2-0.2,0.7-0.5,0.8-0.2c0.3-0.6,0.2-0.6,0.1-0.5c-0.1,0-0.3,0.1-0.2-0.3c0.7-0.3,1.4-1.1,1.8-1.8
						c0.2-0.4,0.3-0.7,0.4-1.1c0.1-0.3,0.1-0.6,0.3-0.7c-0.3-0.2-0.3,0.2-0.3,0.4c0,0.1,0,0.2-0.1,0.2c-0.1,0-0.1-0.2-0.3-0.5
						c0.4-0.3,0.1-0.8-0.5-1c-0.6-0.3-1.3-0.3-1.8-0.8c0.7-0.3,1.9,0.6,0.8-0.5c-0.4,0.1-0.7,0.1-1-0.1c-0.3-0.1-0.5-0.3-0.8-0.5
						c-0.5-0.4-1-0.9-1.5-1.1c-0.2,0.3-0.7,0.1-1.4-0.2c-0.3-0.2-0.7-0.4-1.1-0.6c-0.4-0.2-0.6-0.4-1-0.5c0.1-0.1-0.3-0.5-0.8-0.9
						c-0.2-0.2-0.5-0.5-0.4-0.9c0.1-0.4,0.5-0.6,0.8-0.7l0.1,0.1c-0.4-0.2-0.3-0.5,0-0.7c0.3-0.3,0.8-0.5,1.2-0.9
						c0.1,0.2,0.1,0.4,0,0.5c0,0.2-0.1,0.3-0.2,0.5l0.7-0.4c0.1-0.3,0.4-0.6,1-1.1l0,0.6c0.7-0.4,1.3-0.9,1.9-1.4
						c0.3-0.2,0.7-0.5,1.1-0.7c0.5-0.3,1.1-0.6,1.8-0.8c-0.2-0.2-0.9-0.2-1.3-0.4c-0.4-0.2-0.4-0.5,0.2-1c0.3,0.1,0.9,0.4,0.5,0.7
						c0.2-0.1,0.4-0.5,0.8-0.6c-0.1,0.2-0.2,0.5-0.4,0.7c1.2-0.4,0.1-0.5,0.8-0.9c0.5,0.2,0.9-0.2,1.2,0c-0.2,0.1-0.9,0.3-1,0.6
						c0.5-0.2,1.1-0.5,1.7-0.7c0.6-0.2,1.1-0.4,1.5-0.5c-0.4,0-0.8-0.1-0.3-0.5c1.5-1,1.4-0.3,2.8-0.9c0-0.1,0.1-0.2,0.2-0.2
						c0.1,0,0.1-0.1,0.2-0.2c-0.1,0-0.2-0.1-0.3-0.1c-0.4-0.2-0.9-0.3-1.4-0.2c-0.5-0.2-0.1-0.4-0.1-0.5c-0.7-0.2-1.8-0.7-2.8-1
						c-1-0.3-1.7-0.5-1.5-0.1l0.2,0.1c-0.1,0-0.1,0-0.2,0c0,0,0,0,0,0l0,0c-0.9-0.2-1.6-0.4-2.4-0.6l-1.1-0.4
						c-0.4-0.1-0.7-0.2-1-0.3c-1.3-0.5-2.5-0.9-3.8-1.1l0.1-0.2c-1.5-0.1-3.3-0.7-4.5-0.6c-0.4-0.1-0.9-0.7-0.6-0.8
						c-1.1-0.2-1.3-0.1-2.7-1c1.2,0.1-0.2-0.4,1.2,0.2c-1.3-0.7-1.4-1.1-3-1.4c0.7-0.2-0.6-1-1.2-1.3c0.2,0.3,0.4,0.6,0.6,0.8
						c-0.4-0.1-0.6-0.4-0.9-0.6c-0.3-0.2-0.5-0.4-0.6-0.5c0.2-0.1,0.4-0.2,0.6-0.4c-0.1-0.3-0.1-0.4-0.3-0.5
						c-0.2-0.1-0.4-0.2-0.6-0.4c-0.3-0.3-0.4-0.8-0.1-1c0.2-0.3,0.8-0.3,1.2,0c0.1-0.3-0.1-0.3-0.4-0.3c-0.3,0-0.6,0-0.6-0.3
						c0.2-0.1,0.5-0.1,0.7,0c0.1,0,0.2,0.1,0.3,0.1c0.1,0,0.2,0.1,0.4,0.1c0.6,0.1,1.2,0.2,1.4,0.2c2-0.1,1.6-1.4,3.6-1.6
						c-0.3-0.2-0.7-0.7,0.8-1.3c1.4-0.2,1.9,0.6,1.1,1c-0.3,0.1-0.5,0.1-0.5,0c-0.4,0.2-1,0.4-0.4,0.5l0.1-0.3
						c0.7,0.1,2.7-0.4,2.3,0.1c1-0.5,0.4-0.5-0.4-0.4c1.9-0.1,2.8-0.6,4.7-0.8c-0.3-0.1-0.7-0.3-0.4-0.3c2.8-0.3,1.1-0.7,2.9-1.2
						c1.1,0.1-0.2,0.9,1.6,0.2c1.2,0,0.4,0.6,0,0.9c1.6-0.8,3.2-0.4,4.2-0.6l-0.8,0.4c0.5-0.2,0.9-0.3,1.4-0.4l-0.6-0.3
						c0.5,0,1-0.1,1,0.1c0.5-0.4-0.6-0.7,0.4-1.3c0.7,0.1,2.1-0.7,2.4-0.2c-2.2,0.3,0.4,0.6-1.4,1.1c0.3-0.2,0.8-0.3,1.3-0.3
						c0.1,0.1,0,0.1-0.2,0.2c1.1,0,1.3-0.2,1.5-0.5c0.1-0.1,0.2-0.3,0.4-0.5c0.1-0.1,0.2-0.2,0.4-0.2c0.1,0,0.2-0.1,0.3-0.1
						c0.1,0,0.2-0.1,0.5-0.1c-0.4,0.5,1.1,0.4,1.7,0.2c-1.6,0.4-0.9-0.4,0.1-0.9c2.3-0.4,2-0.9,2.9-1.3c-0.4,0.1-0.8,0.3-1.2,0.4
						c0-0.4,0.9-0.7,1.7-1.3c0.5,0.1-0.7,0.6-0.2,0.4c0.2-0.4,0.9-0.7,1.8-1.1c0.4-0.2,0.9-0.4,1.3-0.6c0.2-0.1,0.4-0.2,0.6-0.4
						c0.1-0.1,0.2-0.1,0.3-0.2c0.1-0.1,0.2-0.1,0.2-0.2c-0.1-0.1-0.3-0.2-0.4-0.2c-0.4-0.6,1-0.1,0.5-0.6c-1.3-0.7-1.6-1-2-1.5
						c-0.4-0.4-0.8-0.9-2.2-1.5c0.2,0.7,0.4,0.6-1.7,0.1c1.4,0.5,2.7,1.1,3.9,1.8c-1-0.4-2-0.7-3-1c1,0.5,2.4,1.1,2.9,1.5
						c-1.5-0.5-1.2-0.5-1.3-0.1c-0.1-0.5-0.9-0.8-1.7-1.1c-0.9-0.3-1.7-0.4-2.3-0.9l1-0.9c-0.7-0.4-1.5-0.7-2.4-0.9
						c-0.2,0-0.4-0.1-0.6-0.1l-0.4,0c-0.3,0-0.5,0-0.8-0.1c-1.1,0-2.2,0-3.6-0.4l0.9,0.3c-0.4,0.4-1.7-0.2-2.7-0.1
						c0.1-0.4-0.4-0.6-0.8-0.9c0,0.3-2-0.3-2.4,0.5l-1.2-0.7c-2.2-0.5-2.7,0.8-4.8,0.5c0.7-0.4-0.3-0.7,1.2-0.9
						c-0.7-0.1-1.4-0.2-1.4,0.1c-0.4-0.3-2,0.4-2.7-0.1c-0.3,0.1-0.5,0.5-1.3,0.4c-0.1-0.1,0-0.2,0-0.2c0,0.2-1.3,0.2-0.6,0.7
						c-2.1-1.4-6.2-0.5-8-1.7c-1.6,0-3.4-0.1-4.8-0.3c0.1-0.1,0-0.2,0.3-0.1c-1.9-0.6-1.4,1-3.5,0.2c-1-0.8,1.2-0.1,0.6-0.5
						c-0.1-1.3-2.7-0.3-3.9-1.3l0.4,0c-0.5-0.3-1.2-0.4-1.9-0.4c-0.4,0-0.8,0-1.2-0.1c-0.4-0.1-0.9-0.2-1-0.3c0,0,0.1-0.1,0.1-0.2
						c-0.4,0.2-1.2,0.1-1.9-0.3c-0.4-0.2-0.8-0.4-1.1-0.7c-0.3-0.3-0.4-0.8-0.3-1.1c0.6,0.5,0.3,0.6,1.1,0.4c0-0.2-0.3-0.2-0.7-0.3
						c-0.3-0.1-0.7-0.3-0.2-0.7c0.8-0.1,1.8-0.4,2.3,0c-0.2,0.1-0.5,0.3-0.7,0.4c0.6,0.1,0.8,0,0.9-0.2c0.1-0.1,0.3-0.4,0.5-0.4
						l0.1,0.3c0.1,0,0.1-0.1,0.1-0.1c0.1,0,0,0,0.2-0.1c0.2-0.1,0.4-0.2,0.5-0.3c0.3-0.2,0.5-0.4,0.8-0.5c0.5-0.3,1.1-0.7,2.3-0.9
						l-0.3-0.2c1.2-1,1.2,0.2,2.4-0.5l0.5,0.7c0.8-0.3,3-1.1,4.6-1.3c-0.9,0.6-2.7,1.1-3.8,1.6c0.9-0.1,3-0.3,3.4-0.8
						c-0.4,0.1-0.8,0.3-1.1,0.2c1-0.7,2.5-1.1,4.2-1.2c-0.1,0.8,1,0.8,2.4,0.8c1.4,0,2.9,0,3.6,0.6c3.1-0.6,6.2,0.2,9.9,0.1
						c-1.3-1.2,1.1,0,0.9-1.3c0.9-0.1,1.2-0.1,1.3,0l2.6,0.7c0.6,0.4-0.8,0.3-0.7,0.5c1.9,0.1,0.8,0.5,2,0.8
						c-0.3-0.4,0.7-0.6,1.7-0.5l-1.5-0.6c2.6-0.7,2.3,1,5,0.3l-0.8,0.4c1.4-0.2,5.1-0.1,6.4-1.2c0.2,0.1,0.6,0.4,0,0.6
						c1.7,0,3.5-0.4,5.2-0.7c1.7-0.4,3.3-0.7,4.7-0.6l-0.2,0.3c0.6-0.2,1-0.7,1.9-0.6c0,0.1-0.2,0.3,0.1,0.3
						c0.3-0.2,1.6-0.9,2.5-1.1c-0.2,0.2-0.4,0.4-0.6,0.6c0.9-0.2,1.5-0.4,2.6-1c0.9-0.6,1.7-1.2,2.2-1.9c0.5-0.7,0.8-1.3,1-2
						c0.2-0.7,0.2-1.5-0.3-2.2c0-0.1-0.1-0.2-0.2-0.2c0.2-0.1,0.3-0.3,0.3-0.6c0-0.2-0.1-0.3-0.2-0.5c-0.1-0.2-0.3-0.4-0.5-0.6
						c-0.4-0.4-1-0.8-1.5-1.3c-0.3-0.2-0.5-0.4-0.8-0.6c-0.3-0.2-0.6-0.3-0.7-0.4l0.1-0.1c-3.5-1.8-6.3-2-9.7-2.7
						c-1.8-1.6-7-2.4-10.2-3.6c0.5,0.3-0.2,0.7-0.8,0.6c-0.8-0.3-2.3,0.2-2-0.6l0.3,0.1c-0.4-0.9-2.1-1-3.4-1.3l-0.4,1
						c-3.1-2.1-8.8-1-10.3-2.7c-0.8,0.1-1.8-0.1-2.7,0.1l0.1-0.6c-2.2-0.5-3.3-0.8-6-1.1l0.6-0.3c-1.5-0.3-2.2,1.3-3.7,1l-0.3-0.9
						c-2.7-0.5-5.3-1.7-8.1-1.4c0.1-0.1,0.2-0.3,0.6-0.3c-1.3-0.2-4.8-1.4-4.5-0.2c0-0.4-0.6-0.5-1.5-0.6c-0.2,0-0.5,0-0.7,0l-0.4,0
						c-0.1,0-0.1,0-0.2,0c-0.2,0.1-0.4,0.1-0.7,0.2c0.2-0.2,0.3-0.3,0.4-0.5c-0.4,0.3-0.8,0.5-1.1,0.6c-0.4,0.1-0.7,0.1-1.4,0.1
						c-0.1-0.1,0.5-0.4,0.6-0.2c-0.1-0.2-0.5-0.1-0.9-0.1c-0.4,0.1-0.9,0.1-1.1-0.1c0.4,0,0.8-0.1,1.1-0.1c-0.6-0.2-0.9-0.1-2.5-0.1
						c-0.6,0-1-0.3-0.9-0.4c0.1-0.2,0.5-0.4,1.4-0.4c-0.1,0-0.1,0-0.2,0c-1,0-1.7-0.3-0.8-0.5c0.6,0,0.8,0.1,0.9,0.2
						c1.1-0.2,1-0.4,1.2-0.6c0.1-0.2,0.4-0.4,1.3-0.4c0.3,0.1,0.5,0.2,0.7,0.2c-0.9,0.2-1.6,0.5-1.7,0.4c0.6,0.1,1.2,0.1,1.6,0.2
						c0.5,0.1,0.9,0.2,1.7,0.4c-0.4-0.1-0.9-0.3-1.1-0.5c-0.1-0.2,0.1-0.4,0.5-0.4c0.1,0,0.1,0.1,0.2,0.1l0,0.1c0.2,0,0.2,0,0.2-0.1
						c0.2,0,0.3,0.1,0.5,0.1c-0.2,0.5,1.4,0,2.1-0.1c-0.1-0.5,0.8-0.6-0.1-0.9c0.1,0-0.1,0.1-0.6,0.2c-0.1,0-0.2,0.1-0.3,0.1
						c0,0,0,0,0-0.1c-0.4,0.1-0.9,0.2-1.4,0.3c0.1-0.2,0.2-0.3,0.5-0.4c0.3-0.1,0.7-0.1,1.1,0c0.3-0.4,0.7-0.8,0.9-1
						c1.1,0.6,3.1,0.8,3.5,1.3c2.2-0.6,5.3-0.8,6.7-2c0.6-0.2,0.8,0.2,1,0.4c-0.4,0.1-0.8,0.2-1,0.3c1.3-0.4,3.8-0.4,4.1-1.2
						c1.7,0.2-0.9,0.7,1.4,0.5l-0.3,0.2c4.5,0.9,7.1-2.3,12.1-0.9c-0.3-0.1-0.5-0.1-0.6-0.3c5.6,0.6,11.6-0.6,17.1,0.7
						c1.6,0.3,1.8-0.2,2.7-0.5l0.3,0.6l1.7-0.6c2.4-0.3,3.9,1.8,6.9,1.1l-0.3-0.4c1,0.2,3.4,0.1,3.1,0.6c0.1-0.1,0.4-0.4,0.8-0.1
						l0,0.3l2.7-0.2c2,0.5-0.5,1.2,2.4,1.7c1.1,0,3.2-0.5,2.8-0.7c-0.4-0.1-1.1-0.4-1.1-0.7l1,0c0.3-0.9,1.2-1.7-1.1-2.7l-1.8,0.3
						l-0.5-0.5l1.5,0.2c-0.8-0.5-1.3-0.2-2-0.1c-0.1-0.3-0.3-0.5-0.7-0.6l-1.8,0.7c-0.2-0.4,0.8-0.6-0.3-1c-0.8,0.3,0.7,0.9-0.7,1
						c-0.8-0.5-0.5-0.8-1.5-0.6c-0.1-0.3,0.1-0.4,0.5-0.4c-0.9,0.2-2.3-0.1-2.8,0.3c-0.8-0.6-2.9-0.1-2.8-1
						c-0.3,0.2-1.6,0.5-2.4,0.5c1.5-0.9-3-0.3-2.5-1.4c-1.1,0.9-3.9,0.2-5.9,0.6c0.1-0.1,0.3-0.2,0.5-0.2c-1.1-0.1-1.4-0.4-2.1-0.6
						c-0.2,0.8-1.9,0.9-2.8,1.3c-1.3-0.8,0.8-0.9,0.4-1.6c0,0.6-2.3,0.6-1.9,1.1c-1-0.5-0.9-0.2-1.4-0.9c-0.2,1-0.9,0.1-1.8,0.7
						c-1.5-0.5-0.4-0.9-2-0.6C159,100.3,160.5,99.9,160.5,99.9z M121.3,104.9C121.3,104.9,121.3,104.9,121.3,104.9
						c0.4-0.1,0.8-0.2,1-0.3C122.1,104.7,121.8,104.8,121.3,104.9z M117.4,106.2c0.5-0.2,1-0.4,1.6-0.6c0.4,0.1,0.5,0.2,0.2,0.4
						C119.2,105.9,118.2,106.1,117.4,106.2z M126.7,107.8c-0.2,0.1-0.4,0.1-0.5,0.1c0,0-0.1-0.1-0.1-0.1c0.1,0,0,0,0.2-0.1
						c0.1,0,0.3-0.1,0.5-0.1c0,0,0-0.1,0-0.1C126.8,107.6,126.8,107.7,126.7,107.8z"/>
					<path class="st0" d="M127.4,107c0.1,0,0.1-0.1,0.2-0.1c-0.1,0-0.2-0.1-0.3-0.1c-0.1,0.1-0.1,0.1-0.1,0.2
						C127.3,107,127.4,107,127.4,107z"/>
					<path class="st0" d="M162.3,173.2L162.3,173.2C162.2,173.2,162.3,173.2,162.3,173.2C162.2,173.2,162.3,173.2,162.3,173.2z"/>
					<polygon class="st0" points="152.4,119.2 152.4,119 152.1,119.1 					"/>
					<path class="st0" d="M152.9,180.9c-0.1,0-0.2,0-0.4,0C152.6,181,152.7,181,152.9,180.9z"/>
					<path class="st0" d="M153.3,187.6c0.2,0.1,0.4,0.3,0.5,0.5l0.4,0.4c-0.2-0.2-0.3-0.3-0.5-0.4
						C153.6,187.8,153.5,187.7,153.3,187.6z"/>
					<path class="st0" d="M158.6,190.8c0.1-0.1,0.2-0.1,0.2-0.2l0,0L158.6,190.8z"/>
					<path class="st0" d="M170.8,152.4C170.8,152.4,170.8,152.4,170.8,152.4C170.8,152.2,170.8,152.3,170.8,152.4z"/>
					<path class="st0" d="M146.5,159.3c0.3-0.2,0.5-0.3,0.8-0.5C146.8,159,146.4,159,146.5,159.3z"/>
					<path class="st0" d="M152.1,148.9C152.1,148.9,152.1,148.9,152.1,148.9c-0.1,0-0.1,0-0.2,0L152.1,148.9z"/>
					<path class="st0" d="M148.5,158.6c-0.5,0-0.9,0.1-1.2,0.3C147.7,158.8,148.1,158.8,148.5,158.6z"/>
					<path class="st0" d="M157.4,208.8l0,0.2c0,0,0.1,0,0.1,0L157.4,208.8z"/>
					<path class="st0" d="M157.5,209l0.1,0.2C157.5,209.1,157.5,209,157.5,209z"/>
					<path class="st0" d="M157.6,209.6c0-0.2,0-0.3-0.1-0.5C157.5,209.3,157.5,209.5,157.6,209.6z"/>
					<path class="st0" d="M154,202.6l-0.2,0C153.8,202.6,153.9,202.6,154,202.6z"/>
					<path class="st0" d="M153.8,199.3c-0.2,0.4-0.3,0.9-0.4,1.4c-0.1,0.6,0,1.2,0.2,1.7l0.2,0c-0.2-0.2-0.3-0.8-0.2-1.5
						C153.6,200.4,153.8,199.8,153.8,199.3z"/>
					<path class="st0" d="M163,193c-0.4,0.7-1,1.3-1.6,1.9c0.5-0.2,1.2-0.5,0.4,0.4c0.7-0.5,1.1-0.8,1.1-1c0.1-0.1-0.1-0.1-0.2-0.1
						c-0.1,0-0.3,0-0.3-0.1C162.4,194,162.6,193.7,163,193z"/>
					<path class="st0" d="M159.1,187.9c1,0.3,0.1-0.3,0.2-0.4C158.7,187.5,158.5,187.4,159.1,187.9z"/>
					<path class="st0" d="M148.6,168.8l0.3-0.5C148.1,168.2,148.7,168.6,148.6,168.8z"/>
					<path class="st0" d="M139.7,166.9c0.2,0.3,0.4,0.6,0.6,1c0.3,0,0.5,0,0.7-0.1C140.6,167.6,140.1,167.2,139.7,166.9z"/>
					<path class="st0" d="M142.5,163.6c0,0,0,0.1,0,0.1c0-0.1,0.1-0.2,0.2-0.3C142.6,163.4,142.6,163.5,142.5,163.6z"/>
					<path class="st0" d="M144.1,143.2l0.2,0.7C144.8,143.8,145,143.1,144.1,143.2z"/>
					<path class="st0" d="M131,136.6c0.4,0.2,1.2,0.3,1.7-0.1C132.1,136.6,131.4,136.5,131,136.6z"/>
					<polygon class="st0" points="161.6,115.7 162.2,115.6 161,115.5 					"/>
				</g>
			</g>
		</g>
	</g>
</g>
</svg>
